<svg xmlns="http://www.w3.org/2000/svg" height="9cm" width="44.5cm" viewBox="0 0 1681.9 340.2"><defs><clipPath id="a"><path d="M3273.9 227h1543.9v2027.5H3273.9z"/></clipPath><clipPath id="b"><path d="M367 227h1914.6v2035.6H367z"/></clipPath></defs><path d="M95 309.9a6.7 6.7 0 1 1 13.4 0 6.7 6.7 0 0 1-13.4 0M1537.3 309.9a6.7 6.7 0 1 1 13.3 0 6.7 6.7 0 0 1-13.3 0" fill="#fff"/><g fill="#e4e4e4"><path d="M629.4 251.3a2.7 2.7 0 1 0 0 5.3 2.7 2.7 0 0 0 0-5.3zm0 8a5.3 5.3 0 1 1 0-10.7 5.3 5.3 0 0 1 0 10.7M889 287.6a2.7 2.7 0 1 0 0 5.4 2.7 2.7 0 0 0 0-5.4zm0 8a5.3 5.3 0 1 1 0-10.7 5.3 5.3 0 0 1 0 10.7M1042.3 197.1a4.7 4.7 0 1 0 0 9.4 4.7 4.7 0 0 0 0-9.4zm0 12a7.3 7.3 0 1 1 0-14.6 7.3 7.3 0 0 1 0 14.6M306.4 212a4.7 4.7 0 1 0 0 9.3 4.7 4.7 0 0 0 0-9.3zm0 12a7.3 7.3 0 1 1 0-14.7 7.3 7.3 0 0 1 0 14.7M1358.8 103.8l3.4 3.5 3.5-3.5-3.5-3.4zm3.4 7.3l-7.2-7.3 7.2-7.2 7.2 7.2-7.2 7.3M688.4 293.6l3.4 3.5 3.5-3.5-3.5-3.4zm3.4 7.2l-7.2-7.2 7.2-7.2 7.2 7.2-7.2 7.2"/></g><g fill="#e4e4e4"><path d="M787.7 288h2.7v-12h-2.7z"/><path d="M783 283.3h12v-2.7h-12z"/></g><g fill="#e4e4e4"><path d="M1512.8 192.9c-.7 0-1.3.2-1.8.6-1.6 1.3-2.2 4.2-.3 6.8a10 10 0 0 0 3 2.4c1.3.7 2.7 1.6 3.8 3 1.2-1.4 2.6-2.3 3.8-3a10 10 0 0 0 3-2.4c2-2.6 1.4-5.5-.3-6.8-1.5-1.2-3.4-.7-5 1.2l-.4.5-1 1.6-1.2-1.6a6 6 0 0 0-.3-.5c-1.1-1.2-2.3-1.8-3.3-1.8zm4.7 18.2l-1.2-2.4c-1-1.9-2.4-2.8-4-3.8-1.3-.8-2.7-1.6-3.7-3-2.9-4-1.9-8.4.7-10.5 2-1.6 5.3-1.9 8.2 1 2.9-2.9 6.1-2.6 8.2-1 2.6 2.1 3.6 6.6.8 10.4-1 1.5-2.4 2.3-3.8 3.1-1.6 1-3 2-4 3.8l-1.2 2.4M1182.6 218.6c-.7 0-1.2.2-1.8.6-1.6 1.3-2.2 4.2-.3 6.8a10 10 0 0 0 3 2.4c1.3.8 2.7 1.6 3.8 3 1.2-1.4 2.6-2.2 3.8-3a10 10 0 0 0 3-2.4c2-2.6 1.4-5.5-.3-6.8-1.4-1.2-3.3-.7-5 1.3a6 6 0 0 0-.4.4l-1 1.6-1.2-1.6a6 6 0 0 0-.3-.4c-1.1-1.3-2.3-2-3.3-2zm4.7 18.2l-1.2-2.4c-1-1.9-2.4-2.8-4-3.8-1.3-.8-2.7-1.6-3.7-3-2.9-4-1.9-8.4.8-10.5 2-1.6 5.2-1.9 8.1 1 3-2.9 6.2-2.6 8.2-1 2.6 2.1 3.6 6.6.8 10.4-1 1.5-2.4 2.3-3.8 3.1-1.6 1-3 2-4 3.8l-1.2 2.4M363 136c.2 0 .1 0 0 0M136 56.8c-2 0-.9 1.6.5 1.8 1.4.2 4 3.3 3.7-1.3-1.3-1-2.8-.5-4.1-.5M159.9 119.4c-1-.5.6.4 0 0"/></g><g fill="#f0f0f0"><path d="M103.5 50.7c-3-2.2-7.6 1.3-1.8 1 .5 0 3 .3 1.8-1zM108.3 56.5c-1.7 4.9 6.7-.5 0 0zM107.6 52.9c3.8 2 12 5.6 14.4 1.6-5.5 2.4-12-3.9-15.7-2.5z"/><path d="M163.2 147.6c-3.6-2-10.3-2.2-10.5-6.5-2.9-5-9.1-6.3-13.5-9.7-2.7-.6-6.6-.6-7.5 0-.5-5.7-14.1 8-11.6-3.6.8-4.6-7.6-.7-4-6.1.8-8.9-7.7 5-9.8-3-3-9.2 12.3-13.6 15-4.5 4.6-.9-2-8.6 4.2-10.5 2.2-3.7 3-8.5 7.7-8.9-.4-7 9.8 1.2 9.6-5.7-6 2.1-2.6-6.4 3-4.8-8 6 10.4 4.4 2 .5-.5-1.1-.7-7.2-5.6-6.4-.7-8-7.8-2-11-7.4-5.4-4.7-8.2 3-4.8 6.3-3.4.4-1.3 9.2-4.7 2.8-2.2-3.8-15.4-3.2-9-10.1 3.8-4 5.9.6 9.8-1.7-5-.8 3.9-10.3 3.8-2.7-5.7 4.2 13 7.7 12 2.7 8.2-3.3-6.7-7.8-10.3-10.3-3.8-1.7-18.2-3.1-14 3.4 4.6 4.1-7-7.8-6 .7-2.4-.5-5.4 1.7-9.5.6 6.1-.3 1.1-2.4.6-4.4-.8-4.4 11-3.3 3.5-5.1-5-2.2-2.5 6.7-5.7 1-4.5-3.3-16-2.9-15.5 1-7.8 2.7 1 5 2.8 5-7-.1-14.4 1.4-21.5.4-6.9-.4-14.3-3-20.9-.4-4.6-.3-5.3 2.8-1.6 4.4-3.9-2.1-5.8 4-1.8 3.5-5.6 4.7 10.2 5.9 2.1 9.2-3.7 4.3 6.6-1.7 9.3-.6 1.1-6.6 11.5-5.7 16.6-2 2.6 3.2 4.6 7.2 8 8 2.7 4 5 8.2 4.5 13.6 3.4 6.6 9 11.3 12.2 17.3 5.4-3.3 8 12.7 16.2 11.6 6.6.5 10.8 9.4 18 10.4.8 6.3-6.9 13.1-.3 19.5 2.3 7.5 11.4 11 7.8 20-1.5 7.4-3.2 14-4 21-3.3 5.4 3 16.2 8.7 11.4-7.7-2 1.3-6.7 0-11.3.8-6 6-4.4 8.8-9.2-.9-4.4-2.2-4 1.7-2.4 6.5-4.1 7.4-13.3 15-16.5-.5-6.5 7.3-12.4 4.3-18.2-1.2-1.1-2.7-1.7-4.1-2.3M177.4 58c4.9.1 1-10 7.3-11.5.9-4.4-8 .8-8.6-4.8-2.1-4.4-9.6 1.6-7.6-2.2-6.6 0-14.6-.8-19.3 5.1-6.9-.8-14.6 4.4-18 8.9 5.2 2.8 13.3.9 16.2 7.1 2.3-1.1-4.3 2.6-.4 5.4 2.5 7.6 10.6 9.5 15 2.5 5.2-5.2 15.4-3.1 15.4-10.5z"/><path d="M127.7 119.1c-2.5-4.3-12.4-1.2-4.7-1.3 1-.2 5 3.8 4.7 1.3zM131.5 120.3c-6 3.4 8.1 2.7 1-.1h-1z"/></g><path d="M353.5 135.5" fill="#e4e4e4"/><g fill="#f0f0f0"><path d="M1348.6 166c-1.9-3.5-2.9 2 0 0zM1317.6 133.5c-3.1-3.5-14.8.4-5.2 2.2 1.7.2 4.8-.2 5.2-2.2zM1388.6 127.1c1.7-2.2 4.6-7.5 10.2-5.4 6.9-4.7-7.4-1-10.6.2-3.6 1.7-4.4 4.7.4 5.2zM1462.6 207.4c-4.4.6 1 4.5 0 0zM1453.9 208.2c3 3 6.9-2.3 0 0zM1413.6 204c3.7-5-2.3-8.2 0 0zM1508.2 252.8c-3.4 6.4 7.4 2.6 0 0zM1480.6 257.9c-6.5.7 3 6 0 0zM1498 234c1.2 3.8 4.6.5 0 0zM1455.4 197.8c3.8 1.4.4-3.4 0 0zM1459 196.5c2.4-3.7-4.1-1.4 0 0zM1464.3 171.8c7.2-.6 10.8-7.1 11.3-12.4 9-1.7-4.7-5.6-2.8 2.4 2 7.2-14.6 4.3-8.5 10zM1447.9 219c-4.6-2.1-9.8-1.4-9.3-8-2.9-2.3-.6-11.4-7.4-12.4 1.5 5 4 9-1.6 4.6.7 2.5 4 12.3 9.7 13.7-.8 2.6 7 3 8.6 2z"/><path d="M1444.9 206.5c-7.5 4.7 7 12 6.5 2 1-5.6-1.8-8.5-5.2-3.2l-1.3 1.1zM1454.5 193.6c-4.4 4.7 6.2-.7.9-2.3 2.8-6.5-5.6-.2-1 2.3zM1454.1 213.7c4.9 5 1.7-9.7-2.2-1.3-.1 1.3 1.5 1.1 2.2 1.3zM1458 219.2c-5.3 6 5.8-1 0 0zM1458.5 202c6.6-6.8-10.2-2.3 0 0zM1471.6 211c-6-2.2-10-.7-2.8 3.5 3.7 2.6 5 8.4 9.9 4.2 7.5 7.6-.2-8-5.3-7.3l-1.6-.4zM1383 224.8c-6.8.2-9.1 14.5-3 14.4 1.4-4.2 5.6-10.4 3-14.4zM1480.8 260.6zM1484.2 235.2c-4-1.7-7.7-13.6-9.2-11.6 3.3 7.3-6.7 7.2-5.5.6-4.7-1.3-12.4 2.8-14.8 6-1.3 4.4-12.4 3.8-7.5 11.3 2.8 4.9-.5 12.6 8 9.6 7.8-8.1 15.4 1.7 22.3 5.1 9.2-1 13.8-13 7-19.9zM1506 257.6c-3.7 1.3-8.5 9.3-1.6 5.5 1.4-.3 4.9-6.8 1.5-5.5z"/><path d="M1510 126.7c-11.7 1.3-22.8-2.8-34.1-4.1 4.4-4.3-11.5-4-2.8-1-4.3 6.5-10.2 1.8-14.3 0-4.8 2.4-11.8 1.7-13.2-3a83 83 0 0 0-30 3.8c-1.5 3.7-9.9-1.3-8.2 5.3 5 .2-4.3 5-.9.5 1-5.2-6.8-6-5.9-.6-7.7-.2-18 .5-24 3.2-2.6 3.4-1.6-5.3-7.3-2.3a20.9 20.9 0 0 0-24.9 4.2c-7.5-.3-7.4 9.8-3.3 10.9-3.2 8.8-9.6 3.5-10.2-2.5-3.8.5-7 4.5-8.5 7.7 3.5 5.3 8.7-8 5.6.3-1.3 2.2 12.2 1.4 3 2.3-5.9 2.5 5.3 5.8-3.5 7-10.3 2.3 1.2 16 6.3 6.6 4-8.6 12-5.8 16.8 0-.1-8.6 5 8.7 6.7-.2.8-2.8 5 4.5 8.4 3.4 6.8 4.3-6.4 6-9.5 2.9-5.2 4.1-12.2-.3-12.6-4.8-6.6.7-16.4-.3-19.7 6.6-3.6 5.4-8.1 9.8-7.1 17.2-2.6 6.2 5.2 10.6 8.5 14.6 6.1-2 11.6-4 16.7 0 .3 5.7 7.2 13.9 3.7 21-1.8 7 4.6 13.1 4.6 20.4 4.7 10.3 16.5-1.7 18.1-8.6-.3-7.2 10.2-12.5 3.8-20.4 1-8.3 12-11.8 12-20.4-5 .4-8.4.5-10.3-5.8-3.2-2.6-6.5-15.8-2.4-6.4 4 6.1 4.8 14.3 13.5 7.7 5.2-1.8 12.5-12.4 2.5-11-1.4 3.9-6-8.4-2-3.1 4.6 4.5 12.5.5 16.6 4.7 5 3.6 6 15.2 9.5 17 2.4-5.7 5.2-18.7 14-15 3.2 2.9.3 11.5 5 5.4.8 3.7.8 7.5 5.6 7.7 4.3 8.6 11.8-8.2 3.7-11 2-6.7 2 6.4 4-.2 7.1-3.8 16-13.5 10.3-23.6 5-.6 4.4 10.2 9 4.1-2-8.7 11.3-11 11.8-17.5.5 9.4 3.6 1.2 2.5-3.9-1.7-6.1 2.9-7.4 8.3-5.8 3.3-.6 11.7-4.4 4.4-.2-3.2 2.3-1.4 14 2 7.1 4.7-3.3 4-11.5 11.8-9.1 5.5-.6 14.3-7.5 6-11.1z"/></g><path d="M316.2 272.8c-3.2 5.2-3 11.6 1.4 14.4 4.5 2.7 11.5.7 14.7-4.5 3.1-5 4-10.3-2.4-14.2-6.6-4-10.6-.8-13.7 4.3M317.3 287l13.2-17.7" fill="#fff"/><g fill="#efefef"><path d="M436.4 64.2h8.8l2.4 4 2.3-4h36.8v-20h-50.3zm11.2 9.4l-3.9-6.8h-10V41.5h55.7V67h-38l-3.8 6.7"/><path d="M436.4 50.3h6v-6.1h-6zm8.7 2.6h-11.4V41.5h11.4V53M449.9 50.5h27.6V48h-27.6zM449.9 54.8h27.6V52h-27.6zM449.9 59h27.6v-2.6h-27.6z"/></g><path d="M-288-185.5a2.7 2.7 0 1 0 0 5.3 2.7 2.7 0 0 0 0-5.3zm0 8a5.3 5.3 0 1 1 0-10.7 5.3 5.3 0 0 1 0 10.7M41 276.5a2.7 2.7 0 1 0 0 5.3 2.7 2.7 0 0 0 0-5.3zm0 8a5.3 5.3 0 1 1 0-10.7 5.3 5.3 0 0 1 0 10.7" fill="#e4e4e4"/><path d="M79 74.8h19.5c.2-4.6 1.6-9.2 4.3-13a16.8 16.8 0 1 0-27.9 0c2.6 3.8 4 8.4 4.2 13zm22.2 2.7H76.4v-2c0-4.4-1.3-8.6-3.8-12.3a19.5 19.5 0 1 1 32.3 0 21.8 21.8 0 0 0-3.7 12.3v2" fill="#cacaca"/><path d="M77.7 87.4h22v-5.1h-22z" fill="#fff"/><path d="M79 86h19.3v-2.4H79.1zm22 2.7H76.4V81H101v7.7" fill="#cacaca"/><path d="M94.7 102.5h-12a5 5 0 0 1-5-5v-3.6h22v3.6a5 5 0 0 1-5 5" fill="#fff"/><path d="M79 95.2v2.3c0 2 1.7 3.6 3.7 3.6h12c2 0 3.6-1.6 3.6-3.6v-2.3zm15.7 8.6h-12a6.3 6.3 0 0 1-6.3-6.3v-5H101v5c0 3.5-2.8 6.3-6.3 6.3" fill="#cacaca"/><path d="M77.7 76.2H100v-.7c0-4.7 1.4-9.2 4-13a18.2 18.2 0 1 0-30.1 0c2.5 3.8 4 8.4 4 13v.7M88.8 93.9V61" fill="#fff"/><path d="M87.5 93.9H90V61h-2.6z" fill="#cacaca"/><path d="M85.5 52.2l3.3 6 3.3-6zm3.3 11.7l-7.7-14.4h15.4L88.8 64" fill="#cacaca"/><path d="M1445.4 100.5l2.9.3 4.1-9c.2-.5.7-.8 1.2-.8h2.9l.2-.2v-.2-.2h-.2l-1.3.2c-.5 0-1-.2-1.2-.6-.3-.3-.4-.9-.2-1.3l1-2.3c.3-.5.7-.8 1.3-.8h4.8c.1 0 .3-.2.3-.4l-.3-.2-3.4.5a1.3 1.3 0 0 1-1.4-1.8l4-8.7c.2-.5.6-.8 1.2-.8l21.3 1c2 0 5.4-1.2 7-2.8.4-.3.7-.7.8-1.2v-.7-.3c-.1-.5-.5-.9-.7-1.2-1.7-1.6-5-2.8-7.1-2.7l-20 .9c-.5 0-1-.3-1.2-.8l-3.8-8.4a1.3 1.3 0 0 1 1.4-1.9l3.3.6.3-.1v-.2-.2l-.2-.1h-4.9c-.5 0-1-.4-1.2-.9l-1-2.3a1.3 1.3 0 0 1 1.4-1.8l1.2.2.2-.1.1-.2c0-.2 0-.3-.2-.3h-3c-.4 0-.9-.4-1.1-.8l-4.1-9-2.9.2 3.8 25.1a1.3 1.3 0 0 1-1.2 1.5l-19.4.9c-.4 0-.8-.2-1-.5l-7.9-8.9 2.7 8a1.3 1.3 0 0 1-1 1.7c-1 .1-1.6.8-1.6 1.7l-1.4.3h1.4c0 .6.4 1.2 1 1.5.7.3 1 1 .7 1.6l-2.8 8 8-8.7c.2-.3.6-.5 1-.5l18.8.8a1.3 1.3 0 0 1 1.3 1.6zm3.7 3h-.1l-5.2-.4a1.3 1.3 0 0 1-1.2-1.6l3.8-25.3-16.7-.7-8.1 9c-.3.4-.8.5-1.2.5l-2.3-.4a1.3 1.3 0 0 1-1-1.8l3-8.7c-.9-.8-1.4-2-1.5-3.2v-.4c0-1.6 1-3 2.4-3.8l-2.9-8.2a1.3 1.3 0 0 1 1-1.8l2.3-.3c.5 0 1 0 1.2.4l8 9 17.3-.7-3.8-25a1.3 1.3 0 0 1 1.2-1.6l5.2-.4c.6 0 1 .3 1.3.8l4.2 9.1h2a3 3 0 0 1 1.7 5.4h2.7a3 3 0 0 1 3 3 3 3 0 0 1-3.5 2.9l-.9-.2 2.5 5.4 19-.8c2.6-.1 6.7 1.2 9 3.4 1 1 1.6 2.2 1.6 3.4v.4c0 1.2-.5 2.4-1.6 3.4a14.2 14.2 0 0 1-9 3.5l-20.4-.9-2.5 5.6.8-.2h.5a3 3 0 0 1 0 5.9h-2.7l.3.3a3 3 0 0 1 0 4.2 3 3 0 0 1-2 .9h-2l-4.2 9.1c-.2.5-.7.8-1.2.8" fill="#d6d6d6"/><path d="M1042.6 278.8l-12.2-7.5 6.2-.7 2.5-5.7 3.5 13.9" fill="#efefef"/><path d="M216.8 124.5c9.2 75.3 20.1 103.7 15 156.7H261L226 123l-9.1 1.5" fill="#fff"/><path d="M233.4 279.9h25.9l-34.5-155.4-6.6 1.1c3 23.3 6 42 8.6 58.6 5.9 36.1 9.8 60.2 6.6 95.7zm27.5 2.7h-29a1.3 1.3 0 0 1-1.3-1.5c3.4-36-.5-60-6.4-96.4-2.7-17-5.8-36-8.8-60 0-.8.4-1.4 1.1-1.5l9.2-1.5c.7-.1 1.3.3 1.5 1l35 158.2a1.3 1.3 0 0 1-1.3 1.7" fill="#e2e2e2"/><path d="M220.5 69l-1.2-4.3 5.1-6c-1.1-4-2.7-7.8-4.9-11.4a54.1 54.1 0 0 0-8.9 22l10 10-4.3 1.7-7.5-7.5c-1.2 20.6 14 33.7 14 33.7s7.7-22 3-43.6l-5.3 5.3" fill="#fff"/><path d="M210 76.7a43.4 43.4 0 0 0 12.2 28c1.6-5.6 5.7-22 2.8-38.3l-3.5 3.5c-.4.3-.8.4-1.3.3s-.8-.4-1-.9l-1.2-4.2c-.1-.4 0-.9.3-1.2l4.6-5.5a46 46 0 0 0-3.5-8.5 52.4 52.4 0 0 0-7.4 19l9.6 9.5a1.3 1.3 0 0 1-.5 2.2l-4.3 1.6c-.5.2-1 .1-1.4-.3zm12.8 31.8l-.9-.3a45.1 45.1 0 0 1-14.4-34.8 1.3 1.3 0 0 1 2.3-.8l6.8 6.9 1.7-.6-8.6-8.6c-.3-.3-.5-.7-.4-1.2a55.8 55.8 0 0 1 9-22.5c.3-.4.7-.6 1.2-.6s.9.3 1.1.6c2.1 3.5 3.8 7.4 5 11.7.2.4.1.9-.2 1.2l-4.6 5.5.4 1.4 3.7-3.7a1.3 1.3 0 0 1 2.2.7 91 91 0 0 1-3 44.2 1.3 1.3 0 0 1-1.3.9" fill="#e2e2e2"/><path d="M190.3 125l6.2 8-3.7 2.2-6.6-8.5a47.5 47.5 0 0 0-17.7 23.3c3.7 0 7.3-.7 10.8-1.6v-8.2l4.4 5.8c22.2-6.8 36.8-25.7 36.8-25.7s-15-3.5-30.2 4.6" fill="#fff"/><path d="M186 128.5a45.4 45.4 0 0 0-15.4 20c2.4-.1 4.9-.5 7.4-1.1v-7.2a1.3 1.3 0 0 1 2.4-.8l3.8 5a82.5 82.5 0 0 0 33.8-23.2c-4.5-.5-15-1-25.6 4.2l5.1 6.7c.3.3.4.7.3 1 0 .4-.3.8-.6 1l-3.7 2.2c-.5.4-1.3.2-1.7-.3zm-17.5 22.9a1.3 1.3 0 0 1-1.2-1.9 48.7 48.7 0 0 1 18.2-23.9c.6-.4 1.3-.2 1.8.3l5.9 7.5 1.3-.8-5.2-6.8a1.3 1.3 0 0 1 .4-2c15.3-8.3 30.5-5 31.1-4.8a1.3 1.3 0 0 1 .8 2.1c-.6.8-15.2 19.3-37.5 26.2-.5.2-1.1 0-1.4-.5l-2-2.6v4.2c0 .6-.4 1.1-1 1.3a47 47 0 0 1-11.2 1.7" fill="#e2e2e2"/><path d="M183.5 96.1l11 8.9-6.6.2-11.7-9.2c-8 0-15.6 1.6-25.9 5.8 4.5 4.1 9.9 7.2 15.5 9.6l12.7-4.5 3 2.9-10.7 3.6c23.4 8.2 49.7 4.4 49.7 4.4s-11.9-19.1-37-21.7" fill="#fff"/><path d="M175 113.3c18 5.3 36.8 4 43.1 3.4a51.5 51.5 0 0 0-30-18.5l7.3 5.7a1.3 1.3 0 0 1-.8 2.4l-6.6.2-.9-.3-11.4-8.8c-7.5 0-14.4 1.5-22.9 4.8 3.7 3 8 5.6 13 7.8l12.2-4.3c.5-.2 1-.1 1.4.2l3 2.9a1.3 1.3 0 0 1-.4 2.2zm30.6 6.7c-9.8 0-23-1-35.3-5.4a1.3 1.3 0 0 1 0-2.5l8.7-2.9-.9-.8-11.8 4.3h-1c-6.2-2.7-11.6-6-15.9-10a1.3 1.3 0 0 1 .4-2.2c9.9-4 17.8-5.8 26.4-5.8.3 0 .6.1.8.3l11.4 8.8h2.5l-8.3-6.6a1.3 1.3 0 0 1 1-2.4 52.7 52.7 0 0 1 38 22.3 1.3 1.3 0 0 1-.9 2c-.1 0-6.2.9-15.1.9" fill="#e2e2e2"/><path d="M206.6 86.6l-6 7.4 2-11.3a54 54 0 0 0-22-9.4 46 46 0 0 0 4.3 11l12.3 2.3-2.7 3.9-6.7-1.4c12 17.9 32.7 28.8 32.7 28.8s.8-17.6-14-31.3" fill="#fff"/><path d="M190.8 91a102.6 102.6 0 0 0 28.3 24.6 43 43 0 0 0-12.4-27l-5.1 6.3a1.3 1.3 0 0 1-2.4-1.1l2-10.5a52.3 52.3 0 0 0-18.8-8.2c.8 2.6 2 5.4 3.4 8l11.6 2.2a1.3 1.3 0 0 1 .9 2.1l-2.7 3.8c-.3.5-.8.7-1.3.6zm29.7 28.3c-.2 0-.4 0-.6-.2-.8-.4-21.2-11.3-33.2-29.2a1.3 1.3 0 0 1 1.3-2l6 1 1-1.3-10.3-2c-.4 0-.8-.2-1-.6-2-3.8-3.5-7.6-4.4-11.4a1.3 1.3 0 0 1 1.5-1.6c8.9 1.8 16.5 5 22.7 9.7.4.3.6.8.5 1.3l-1.2 6.1 2.7-3.3a1.3 1.3 0 0 1 2-.1 44.5 44.5 0 0 1 14.4 32.3 1.3 1.3 0 0 1-1.4 1.3" fill="#e2e2e2"/><path d="M246.4 89l1.5-3.6 8-.6c2-3.6 3.5-7.5 4.5-11.5a49.9 49.9 0 0 0-21 8.3v14.2l-3.9-.2V85c-15.4 13.7-15 33-15 33s21.5-10.6 33.4-29h-7.5" fill="#fff"/><path d="M234.2 88.1a46.2 46.2 0 0 0-12.3 27.6 93 93 0 0 0 29.5-25.5h-5a1.3 1.3 0 0 1-1.2-1.8l1.5-3.5c.2-.5.6-.8 1-.8l7.3-.6a46 46 0 0 0 3.5-8.5c-7.8 1.8-13 4-17.8 7.3v13.5a1.3 1.3 0 0 1-1.4 1.4l-3.9-.3c-.7 0-1.2-.6-1.2-1.3zm-13.8 31.2a1.3 1.3 0 0 1-1.3-1.3c0-.9-.2-20 15.5-34a1.3 1.3 0 0 1 2.2 1v9.4h1.3V81.6c0-.4.2-.8.5-1 5.5-4.1 12-6.7 21.5-8.6a1.3 1.3 0 0 1 1.6 1.6c-1 4-2.6 7.9-4.7 11.8-.2.4-.6.7-1 .7l-7.2.6-.4.9h5.5a1.3 1.3 0 0 1 1.1 2 93.6 93.6 0 0 1-34.6 29.7" fill="#e2e2e2"/><path d="M270.4 96.8l-13.2 13.5-1.7-5.4 8.8-9c-29.8-.6-43.9 21.9-43.9 21.9s12.1 1.5 27.1 0l-7.1-7.2h8.8l2.2 6.8c13.5-1.7 28.6-6 39.2-15.6a64 64 0 0 0-20.2-5" fill="#fff"/><path d="M222.8 116.7c3.9.3 12 .8 21.8 0l-5.2-5.2a1.3 1.3 0 0 1 1-2.3h8.8c.6 0 1.1.4 1.3 1l1.8 5.8a70 70 0 0 0 35.8-13.8 61.5 61.5 0 0 0-17.2-4l-12.7 13a1.3 1.3 0 0 1-2.3-.5l-1.7-5.3c-.1-.5 0-1 .3-1.4l6.6-6.8a51.2 51.2 0 0 0-38.3 19.5zm11.5 3.1c-8.3 0-14-.7-14-.7a1.3 1.3 0 0 1-1-2c.1-.3 14.8-23.2 45-22.6a1.3 1.3 0 0 1 1 2.3l-8.3 8.5.8 2.5 11.6-12c.3-.2.7-.4 1-.4 6.7.7 12.4 1.7 20.7 5.1a1.3 1.3 0 0 1 .4 2.3 71.3 71.3 0 0 1-40 16c-.6 0-1.2-.4-1.4-1l-1.9-5.9h-4.6l4.9 5a1.3 1.3 0 0 1-.8 2.3c-4.9.4-9.4.6-13.4.6" fill="#e2e2e2"/><path d="M232.6 125.5h9.3l-8 7.7c9.6 7.9 23.6 16.5 38.5 16.8a64.2 64.2 0 0 0-4-7.6h-12.9l-5.6-4.3h16.7c-17.8-25.7-46.2-17.8-46.2-17.8s4 4.8 10.5 10.5l1.7-5.3" fill="#fff"/><path d="M235.9 133.1c8.6 6.8 21 14.4 34.4 15.5l-2.6-4.9h-12.2c-.3 0-.6 0-.8-.3l-5.6-4.2a1.3 1.3 0 0 1 .9-2.4h14a41.7 41.7 0 0 0-41.1-15.7c1.5 1.6 4 4.3 7.4 7.3l1-3.3c.2-.6.7-1 1.3-1h9.3a1.3 1.3 0 0 1 1 2.3zm36.5 18.3c-15.6-.4-30-9.5-39.4-17.1a1.3 1.3 0 0 1 0-2l5.6-5.5h-5l-1.4 4.4a1.3 1.3 0 0 1-2.1.6 103.7 103.7 0 0 1-10.7-10.6 1.3 1.3 0 0 1 .6-2.2c.3 0 29.5-7.9 47.7 18.4a1.3 1.3 0 0 1-1.1 2h-12.7l2 1.7h12.6c.4 0 .9.2 1.1.6 1.5 2.4 2.9 5 4 7.8a1.3 1.3 0 0 1-1.2 1.9" fill="#e2e2e2"/><path d="M232.6 90.5c0 5.6-3.6 10.1-8 10.1s-8-4.5-8-10.1 3.6-10.2 8-10.2 8 4.6 8 10.2" fill="#fff"/><path d="M224.6 81.7c-3.6 0-6.6 4-6.6 8.8s3 8.8 6.6 8.8c3.7 0 6.7-4 6.7-8.8s-3-8.8-6.7-8.8zm0 20.2c-5 0-9.3-5.1-9.3-11.4s4.2-11.5 9.3-11.5 9.4 5.1 9.4 11.5-4.2 11.4-9.4 11.4" fill="#e2e2e2"/><path d="M222.3 114.4c0 7.6-4.9 13.8-10.9 13.8s-10.8-6.2-10.8-13.8c0-7.6 4.8-13.8 10.8-13.8s10.9 6.2 10.9 13.8" fill="#fff"/><path d="M211.4 102c-5.2 0-9.5 5.5-9.5 12.4s4.3 12.5 9.5 12.5c5.3 0 9.6-5.6 9.6-12.5s-4.3-12.5-9.6-12.5zm0 27.5c-6.7 0-12.2-6.7-12.2-15 0-8.4 5.5-15.2 12.2-15.2 6.7 0 12.2 6.8 12.2 15.1 0 8.4-5.5 15.1-12.2 15.1" fill="#e2e2e2"/><path d="M235.5 110.6c0 7.6-4.9 13.8-10.9 13.8s-10.8-6.2-10.8-13.8c0-7.6 4.8-13.8 10.8-13.8 6 0 11 6.2 11 13.8" fill="#fff"/><path d="M224.6 98.1c-5.2 0-9.5 5.6-9.5 12.5s4.3 12.5 9.5 12.5c5.3 0 9.6-5.6 9.6-12.5S229.9 98 224.6 98zm0 27.6c-6.7 0-12.2-6.8-12.2-15.1 0-8.4 5.5-15.2 12.2-15.2 6.8 0 12.2 6.8 12.2 15.2 0 8.3-5.4 15.1-12.2 15.1" fill="#e2e2e2"/><path d="M224.6 96.8c0 5.6-3.5 10.1-8 10.1-4.3 0-8-4.5-8-10.1s3.7-10.2 8-10.2c4.5 0 8 4.6 8 10.2" fill="#fff"/><path d="M216.7 88c-3.7 0-6.7 4-6.7 8.8 0 4.8 3 8.8 6.7 8.8s6.6-4 6.6-8.8c0-4.9-3-8.8-6.6-8.8zm0 20.2c-5.2 0-9.4-5.1-9.4-11.4 0-6.3 4.2-11.5 9.4-11.5s9.3 5.2 9.3 11.5-4.2 11.4-9.3 11.4" fill="#e2e2e2"/><path d="M228.5 126.7c0 5.6-3.6 10.2-8 10.2s-8-4.6-8-10.2 3.6-10 8-10 8 4.4 8 10" fill="#fff"/><path d="M220.5 118c-3.6 0-6.6 3.9-6.6 8.7 0 4.9 3 8.8 6.6 8.8s6.7-3.9 6.7-8.8c0-4.8-3-8.8-6.7-8.8zm0 20.2c-5.1 0-9.3-5.1-9.3-11.5s4.2-11.4 9.3-11.4 9.3 5.1 9.3 11.4-4.1 11.5-9.3 11.5" fill="#e2e2e2"/><g><path d="M338.2 306.1c-4.4-40-43.5-67.6-91.1-67.6S160.3 266 156 306h182.2" fill="#fff"/><g fill="#e2e2e2"><path d="M161.5 304.8h179.2c-5-37.8-42.4-65-89.6-65-47.3 0-84.7 27.2-89.6 65zm182.2 2.6H158.5l.2-1.4c4.3-40 43.1-68.8 92.4-68.8 49.2 0 88 28.9 92.4 68.8l.2 1.4"/><path d="M312.5 264.4l-.5-.2c-3.7-3-7.8-5.7-12.1-8.1a.8.8 0 0 1 .7-1.4c4.4 2.4 8.6 5.2 12.4 8.3a.8.8 0 0 1-.5 1.4M279.1 248h-.2a108.2 108.2 0 0 0-53.6-.6.8.8 0 1 1-.4-1.5c17.4-4.4 35.6-4.2 54.4.5a.8.8 0 0 1-.2 1.5M189.6 264.4a.8.8 0 0 1-.5-1.4 86.6 86.6 0 0 1 23.2-13.2.8.8 0 1 1 .6 1.5 85 85 0 0 0-23.3 13"/></g></g><g><path d="M1576.3 124.5c-9.2 75.3-20.1 103.7-15.1 156.7h-29l35-158.2 9.1 1.5" fill="#fff"/><path d="M1533.8 279.9h26c-3.3-35.5.6-59.6 6.4-95.7 2.7-16.5 5.8-35.3 8.6-58.6l-6.6-1zm27.4 2.7h-29a1.3 1.3 0 0 1-1.4-1.7l35.1-158.2c.2-.7.8-1.1 1.5-1l9.1 1.5c.7 0 1.2.7 1.1 1.4-2.9 24-6 43.2-8.7 60-6 36.5-9.8 60.5-6.4 96.5a1.3 1.3 0 0 1-1.3 1.5" fill="#e2e2e2"/><path d="M1602.7 125l-6.1 8 3.6 2.2 6.7-8.5a47.5 47.5 0 0 1 17.6 23.3c-3.6 0-7.3-.7-10.8-1.6v-8.2l-4.4 5.8c-22.1-6.8-36.8-25.7-36.8-25.7s15.1-3.5 30.2 4.6" fill="#fff"/><path d="M1615 147.4c2.5.6 5 1 7.4 1.2-4.5-9.8-9.2-16-15.3-20l-5.9 7.4c-.4.5-1.2.7-1.7.3l-3.7-2.2a1.3 1.3 0 0 1-.3-2l5.2-6.7a46.8 46.8 0 0 0-25.7-4.2 82.5 82.5 0 0 0 33.8 23.3l3.8-5.1c.4-.4 1-.6 1.5-.5.5.2 1 .7 1 1.3zm9.5 4a47 47 0 0 1-11.2-1.7c-.6-.2-1-.7-1-1.3v-4.2l-2 2.6c-.3.5-.9.7-1.4.5a84.2 84.2 0 0 1-37.5-26.2 1.3 1.3 0 0 1 .8-2.1c.6-.2 15.8-3.5 31.1 4.8.4.2.6.5.7.9 0 .3 0 .7-.3 1l-5.2 6.9 1.3.8 6-7.5c.4-.5 1.1-.7 1.7-.3 7.5 4.7 13 11.9 18.2 23.9.2.4.2.9-.1 1.3-.3.3-.7.6-1.1.6" fill="#e2e2e2"/><path d="M1609.5 96.1l-11 8.9 6.6.2 11.7-9.2c8 0 15.6 1.6 25.9 5.8a53.3 53.3 0 0 1-15.5 9.6l-12.6-4.5-3.1 2.9 10.7 3.6c-23.4 8.2-49.7 4.4-49.7 4.4s11.9-19.1 37-21.7" fill="#fff"/><path d="M1574.9 116.7c6.3.7 25.1 1.9 43-3.4l-6.8-2.3a1.3 1.3 0 0 1-.5-2.2l3-2.9c.4-.3 1-.4 1.4-.2l12.2 4.3c5-2.2 9.3-4.8 13-7.8a62.6 62.6 0 0 0-23-4.8l-11.3 8.8c-.2.2-.5.3-.9.3l-6.6-.2a1.3 1.3 0 0 1-.7-2.4l7.1-5.7a51.3 51.3 0 0 0-30 18.5zm12.5 3.3c-8.9 0-15-.9-15.1-.9a1.3 1.3 0 0 1-1-2c.5-.8 12.6-19.7 38.1-22.3.6 0 1.1.3 1.4.8.2.6 0 1.2-.4 1.6l-8.2 6.5 2.4.1L1616 95c.2-.2.5-.3.8-.3 8.6 0 16.5 1.8 26.4 5.8a1.3 1.3 0 0 1 .4 2.3c-4.3 3.9-9.7 7.2-15.9 9.8-.3.2-.6.2-1 0l-11.8-4.2-.9.8 8.6 3a1.3 1.3 0 0 1 0 2.4 109.3 109.3 0 0 1-35.2 5.4" fill="#e2e2e2"/><path d="M1586.5 86.6l6 7.4-2.1-11.3a54 54 0 0 1 22-9.4 46 46 0 0 1-4.3 11l-12.3 2.3 2.7 3.9 6.8-1.4c-12 17.9-32.8 28.8-32.8 28.8s-.8-17.6 14-31.3" fill="#fff"/><path d="M1586.3 88.6a43 43 0 0 0-12.4 27c5.1-3 18.8-11.8 28.3-24.5l-3.4.7c-.6 0-1.1-.1-1.4-.6l-2.7-3.8a1.3 1.3 0 0 1 .9-2l11.6-2.2a46 46 0 0 0 3.4-8.2 52.3 52.3 0 0 0-18.8 8.3l2 10.5a1.3 1.3 0 0 1-2.4 1zm-13.8 30.7a1.3 1.3 0 0 1-1.4-1.3c0-.8-.6-18.5 14.5-32.3.2-.3.6-.4 1-.4.3 0 .7.2.9.5l2.7 3.3-1.2-6.1c0-.5.1-1 .6-1.3 6.1-4.7 13.8-8 22.6-9.7a1.3 1.3 0 0 1 1.5 1.6c-.9 3.8-2.4 7.6-4.4 11.4-.2.3-.5.6-1 .7l-10.2 1.9 1 1.4 5.9-1.2a1.3 1.3 0 0 1 1.3 2 102.2 102.2 0 0 1-33.8 29.5" fill="#e2e2e2"/><path d="M1572.5 69l1.2-4.3-5.1-6c1.1-4 2.7-7.8 5-11.4a54.1 54.1 0 0 1 8.8 22l-10 10 4.3 1.7 7.5-7.5c1.2 20.6-14 33.7-14 33.7s-7.7-22-3-43.6l5.3 5.3" fill="#fff"/><path d="M1568 66.4a90.4 90.4 0 0 0 2.9 38.3 43.4 43.4 0 0 0 12-28l-5.2 5.2c-.4.4-.9.5-1.4.3l-4.4-1.6a1.3 1.3 0 0 1-.5-2.2l9.6-9.5c-1-6.4-3.5-12.7-7.4-19a46 46 0 0 0-3.5 8.5l4.7 5.5c.3.3.4.8.3 1.2l-1.3 4.2a1.3 1.3 0 0 1-2.2.6zm2.3 42a1.3 1.3 0 0 1-1.3-.8 91 91 0 0 1-3-44.2 1.3 1.3 0 0 1 2.2-.7l3.7 3.7.4-1.4-4.7-5.5c-.2-.3-.3-.8-.2-1.2 1.2-4.3 3-8.2 5-11.7a1.3 1.3 0 0 1 2.3 0c4.9 7.4 8 15 9 22.5.1.4 0 .9-.3 1.2l-8.6 8.5 1.6.6 7-6.8a1.3 1.3 0 0 1 2.2.8 45.1 45.1 0 0 1-14.5 34.8c-.2.2-.5.3-.8.3" fill="#e2e2e2"/><path d="M1546.6 89l-1.5-3.6-7.9-.6c-2-3.6-3.6-7.5-4.5-11.5a50 50 0 0 1 21 8.3v14.2l3.8-.2V85c15.4 13.7 15.1 33 15.1 33s-21.6-10.6-33.5-29h7.5" fill="#fff"/><path d="M1541.7 90.2a92.8 92.8 0 0 0 29.5 25.5c-.4-5-2.5-17.5-12.3-27.6v7.5c0 .7-.6 1.3-1.3 1.3l-3.8.3a1.3 1.3 0 0 1-1.5-1.4V82.3c-4.7-3.3-10-5.5-17.7-7.3a46 46 0 0 0 3.5 8.5l7.2.6c.5 0 .9.3 1 .8l1.6 3.5a1.3 1.3 0 0 1-1.2 1.8zm31 29h-.6a93.5 93.5 0 0 1-34-29.6 1.3 1.3 0 0 1 1-2h5.5l-.3-1-7.2-.5c-.4 0-.8-.3-1-.7-2.2-4-3.8-7.9-4.7-11.8a1.3 1.3 0 0 1 1.6-1.6c9.5 2 16 4.5 21.5 8.6.3.2.5.6.5 1v12.8h1.2V85a1.3 1.3 0 0 1 2.2-1 47.7 47.7 0 0 1 15.6 34c0 .4-.3.8-.6 1l-.7.3" fill="#e2e2e2"/><path d="M1522.7 96.8l13.2 13.5 1.7-5.4-8.7-9c29.7-.6 43.8 21.9 43.8 21.9s-12.1 1.5-27.1 0l7.1-7.2h-8.8l-2.2 6.8a71.5 71.5 0 0 1-39.2-15.6 64 64 0 0 1 20.2-5" fill="#fff"/><path d="M1548.5 116.8c9.7.7 18 .2 21.7-.1a51.2 51.2 0 0 0-38.2-19.5l6.5 6.8c.4.4.5.9.3 1.4l-1.7 5.3a1.3 1.3 0 0 1-2.2.5l-12.7-13c-5.5.5-10.5 1.5-17.2 4a70 70 0 0 0 35.8 13.8l1.8-5.8c.2-.6.7-1 1.3-1h8.8a1.3 1.3 0 0 1 1 2.3zm10.3 3c-4 0-8.5-.1-13.4-.6a1.3 1.3 0 0 1-.8-2.3l5-5h-4.8l-1.8 6c-.2.6-.8 1-1.5.9a71.3 71.3 0 0 1-40-16 1.3 1.3 0 0 1 .5-2.3c8.2-3.4 14-4.4 20.6-5 .4 0 .8 0 1 .4l11.7 11.9.8-2.5-8.2-8.5a1.3 1.3 0 0 1 .9-2.3 54 54 0 0 1 45 22.6 1.3 1.3 0 0 1-1 2s-5.7.7-14 .7" fill="#e2e2e2"/><path d="M1560.5 125.5h-9.3l8 7.7c-9.7 7.9-23.6 16.5-38.5 16.8 1.2-2.8 2.5-5.3 4-7.6h12.9l5.5-4.3h-16.6c17.8-25.7 46.2-17.8 46.2-17.8s-4 4.8-10.5 10.5l-1.7-5.3" fill="#fff"/><path d="M1525.3 143.7c-1 1.6-1.8 3.2-2.6 4.9 13.4-1 25.8-8.7 34.4-15.5l-7-6.7a1.3 1.3 0 0 1 1-2.3h9.3c.6 0 1 .4 1.2 1l1.1 3.3c3.4-3 6-5.7 7.4-7.3-6.6-1.2-26.7-3-41 15.7h14a1.3 1.3 0 0 1 .8 2.4l-5.6 4.2c-.2.2-.5.3-.8.3zm-4.7 7.7a1.3 1.3 0 0 1-1.2-1.9c1.2-2.7 2.5-5.4 4-7.8.2-.4.7-.6 1.1-.6h12.5l2.1-1.6h-12.7a1.3 1.3 0 0 1-1-2.1A45.3 45.3 0 0 1 1573 119a1.3 1.3 0 0 1 .6 2.2c-.1.2-4 4.9-10.7 10.6a1.3 1.3 0 0 1-2.1-.6l-1.4-4.4h-5l5.6 5.5a1.3 1.3 0 0 1 0 2c-9.4 7.6-23.8 16.7-39.4 17" fill="#e2e2e2"/><path d="M1560.5 90.5c0 5.6 3.5 10.1 8 10.1s8-4.5 8-10.1-3.6-10.2-8-10.2-8 4.6-8 10.2" fill="#fff"/><g><path d="M1568.5 81.7c-3.7 0-6.7 4-6.7 8.8s3 8.8 6.7 8.8 6.6-4 6.6-8.8-3-8.8-6.6-8.8zm0 20.2c-5.2 0-9.3-5.1-9.3-11.4s4.1-11.5 9.3-11.5c5.1 0 9.3 5.1 9.3 11.5s-4.2 11.4-9.3 11.4" fill="#e2e2e2"/><path d="M1570.7 114.4c0 7.6 5 13.8 11 13.8s10.8-6.2 10.8-13.8c0-7.6-4.9-13.8-10.9-13.8s-10.9 6.2-10.9 13.8" fill="#fff"/><path d="M1581.7 102c-5.3 0-9.6 5.5-9.6 12.4s4.3 12.5 9.6 12.5 9.5-5.6 9.5-12.5-4.3-12.5-9.5-12.5zm0 27.5c-6.8 0-12.2-6.7-12.2-15 0-8.4 5.4-15.2 12.2-15.2 6.7 0 12.2 6.8 12.2 15.1 0 8.4-5.5 15.1-12.2 15.1" fill="#e2e2e2"/><path d="M1557.5 110.6c0 7.6 5 13.8 11 13.8s10.8-6.2 10.8-13.8c0-7.6-4.9-13.8-10.9-13.8s-10.9 6.2-10.9 13.8" fill="#fff"/><path d="M1568.5 98.1c-5.3 0-9.6 5.6-9.6 12.5s4.3 12.5 9.6 12.5 9.5-5.6 9.5-12.5-4.3-12.5-9.5-12.5zm0 27.6c-6.8 0-12.2-6.8-12.2-15.1 0-8.4 5.4-15.2 12.2-15.2s12.2 6.8 12.2 15.2c0 8.3-5.5 15.1-12.2 15.1" fill="#e2e2e2"/><path d="M1568.5 96.8c0 5.6 3.5 10.1 8 10.1 4.4 0 8-4.5 8-10.1s-3.6-10.2-8-10.2c-4.5 0-8 4.6-8 10.2" fill="#fff"/><path d="M1576.3 88c-3.6 0-6.6 4-6.6 8.8 0 4.8 3 8.8 6.6 8.8s6.7-4 6.7-8.8c0-4.9-3-8.8-6.7-8.8zm0 20.2c-5 0-9.3-5.1-9.3-11.4 0-6.3 4.2-11.5 9.3-11.5 5.2 0 9.4 5.2 9.4 11.5s-4.2 11.4-9.4 11.4" fill="#e2e2e2"/><path d="M1564.6 126.7c0 5.6 3.6 10.2 8 10.2s8-4.6 8-10.2-3.6-10-8-10-8 4.4-8 10" fill="#fff"/><path d="M1572.5 118c-3.7 0-6.7 3.9-6.7 8.7 0 4.9 3 8.8 6.7 8.8s6.6-3.9 6.6-8.8c0-4.8-3-8.8-6.6-8.8zm0 20.2c-5.2 0-9.3-5.1-9.3-11.5s4.1-11.4 9.3-11.4 9.3 5.1 9.3 11.4-4.2 11.5-9.3 11.5" fill="#e2e2e2"/></g></g><g><path d="M1450.9 306.1c4.3-40 43.4-67.6 91-67.6 47.7 0 86.8 27.5 91.2 67.6h-182.2" fill="#fff"/><g fill="#e2e2e2"><path d="M1452.3 304.8h179.2c-5-37.8-42.3-65-89.6-65-47.2 0-84.6 27.2-89.6 65zm182.2 2.6h-185l.1-1.4c4.3-40 43.2-68.8 92.4-68.8 49.3 0 88.1 28.9 92.4 68.8l.2 1.4"/><path d="M1480.6 264.4l.5-.2c3.8-3 7.9-5.7 12.2-8.1a.8.8 0 1 0-.8-1.4 84.8 84.8 0 0 0-12.4 8.3.8.8 0 0 0 .5 1.4M1514 248h.1c18.6-4.7 36.6-4.9 53.6-.6.5.2.9-.1 1-.5a.8.8 0 0 0-.6-1 109.8 109.8 0 0 0-54.3.5.8.8 0 0 0 .1 1.5M1603.4 264.4c.2 0 .5-.1.6-.3.3-.4.2-.9-.1-1.1a86.6 86.6 0 0 0-23.2-13.2.8.8 0 1 0-.6 1.5 85 85 0 0 1 23.3 13"/></g></g><g><path d="M1219 306.6h67.5V295H1219zM1219 295h67.5v-9H1219z" fill="#fff"/><path d="M1219.8 305.9h65.9v-10.2h-66zm66.7 1.5H1219a.8.8 0 0 1-.8-.8V295c0-.5.3-.8.8-.8h67.5c.4 0 .8.3.8.8v11.7c0 .5-.4.8-.8.8" fill="#d6d6d6"/><path d="M1219.8 294.2h65.9V287h-66zm66.7 1.6H1219a.8.8 0 0 1-.8-.8v-9c0-.4.3-.7.8-.7h67.5c.4 0 .8.3.8.8v9c0 .4-.4.7-.8.7" fill="#d6d6d6"/><g clip-path="url(#a)" transform="matrix(.07905 0 0 -.07905 934.3 324.6)"><path d="M4100.2 1323.1l-193.7-18.7 4.7 210.2 188.2-4.1.8-187.4" fill="#fff"/><path d="M3921 1504.4l-4.2-189 173.4 16.7-.7 168.6zm-14.5-210a10 10 0 0 0-10 10.2l4.7 210.2a10 10 0 0 0 10.3 9.8l188.1-4.2a10 10 0 0 0 9.8-10l.8-187.3a10 10 0 0 0-9-10l-193.7-18.7h-1" fill="#d6d6d6"/><path d="M4206.8 1714.1c-4.3.8-8.8-.8-13.4-4.2l-5.8 161-373.9 3 9.2-170.3c-7.5 10-15.6 15.3-23 14-16.5-2.9-23-38.4-14.6-79.2s28.7-71.7 45.3-68.7c2.1.3 4.1 1.3 6 2.7 10.2-45.9 29.5-98.1 66-131 24.4-22.2 68-41.5 109.5-42.5 13.9-.3 57.5 8.8 102.4 49.5 24.5 22.2 45.8 61 61.7 117.7 16.6-2.9 36.8 27.9 45.3 68.7 8.4 40.9 1.9 76.4-14.7 79.3" fill="#fff"/><path d="M3836.5 1582.4a10 10 0 0 0 9.8-7.8c12.6-56.5 34.4-100 63-125.9a173 173 0 0 1 103-39.8c11-.7 52.3 7.8 95.5 46.9 24 21.7 43.8 59.8 58.7 113a10 10 0 0 0 11.6 7.1h.4c7.6 0 25.1 22 33.1 61 6.6 31.4 3 55.4-3 64.3-.7 1-2 2.8-3.6 3-1.3.2-3.3-.6-5.6-2.3a10 10 0 1 0-16 7.7L4178 1861l-353.7 2.8 8.5-159.7a10 10 0 0 0-18-6.5c-6.5 8.7-11.3 10.7-13.1 10.2-1.5-.3-2.9-2-3.6-3.1-6-8.9-9.5-32.8-3-64.3 8.3-40 26.7-62.4 33.7-61 .2.1.7.2 1.5.9a10 10 0 0 0 6.2 2.1zm176.3-193.5h-1c-47 1.1-92.1 23.4-116 45-30.1 27.3-52.5 69.5-66.5 125.6h-1c-24.3 0-44.7 37.5-52.8 76.8-6.9 33.4-4.6 64 6 79.6 5.6 8.1 12.1 10.8 16.7 11.6 3.7.6 8.3.5 13.4-1.6l-7.9 147.4a10 10 0 0 0 2.8 7.5c1.9 2 4.9 3 7.3 3l373.9-2.9a10 10 0 0 0 9.9-9.6l5.3-147.1c2.2.1 4 0 5.6-.3 4.6-.8 11.2-3.4 16.7-11.5 10.6-15.7 13-46.2 6-79.6-7.5-36.4-25.5-71.4-47.4-76.3-15.7-53.4-36.8-92.2-62.6-115.6-45.6-41.3-90.2-52-108.4-52" fill="#d6d6d6"/><path d="M3641.4 785.2c52.2 110.5 118.7 330.4 118.7 330.4l-134.9 73.4s-146.5-347.4-146.5-444.3c0-41.6 362.5-285.5 362.5-285.5l15 42.2-214.8 283.8" fill="#fff"/><path d="M3630.2 1174.9c-24-58-141.5-345.6-141.5-430.1 4-24.9 177.8-155.4 347.4-270l8.8 24.9L3629.8 784l2.6 5.4c45.8 97 103.4 281.3 115.8 321.3zm216.2-731.2l-10.8 7.2c-86 58-366.9 250.3-366.9 293.9 0 97.7 141.3 433.8 147.3 448l4.3 10.3 151.7-82.6-2.3-7.8c-.7-2.2-65.1-214.7-116.7-326.3l214.2-283.3-21-59.4" fill="#d6d6d6"/><path d="M4365.1 785.2c-52.2 110.5-125.5 320-125.5 320l145.3 83.8s124.2-347.4 124.2-444.2c0-41.7-316.4-286.4-316.4-286.4l-62.9 62.9 235.3 263.9" fill="#fff"/><path d="M4143.6 521.7l50-50c149.8 116.2 303.4 248.8 305.6 273.1 0 84.3-98.4 369-119.7 429.5l-127.7-73.7c13.8-39 76.7-214.4 122.4-311.2l2.8-6zm48.3-76.6l-75.8 75.8 237.2 266c-51.6 111.1-122.4 312.9-123.1 315l-2.7 7.7 162.8 94 4-11.3c5.2-14.2 124.9-350 124.9-447.6 0-43.2-245.2-236.1-320.3-294.3l-7-5.3" fill="#d6d6d6"/><path d="M4217.1 1784c6.5 62.1-7.3 118-56.6 156.3-9.3 7.2-97.7 60.3-171 61.8a310 310 0 0 1-56.4-4.8c-82.7-13.8-135.6-72.6-150.2-146.2-24.2-121.3 47-203.8 55.1-221 .7 18.9 6.2 37.6 4.3 56.5-2.4 24.5-1.2 51.2-.3 75.8 2.7 79.6 83 67.1 154.6 63.4 31.9-1.7 61.7 10.5 92.3 17 51.7 11.2 53.7 43 77.2-47.8 8.3-32-.4-68.3-2-100.7-1-19-4.3-45.4 8.4-61.6 4 8.3 6 17.5 9 26.2 14.2 40 28.9 60.8 35.6 125.1" fill="#fff"/><path d="M3985.2 1992.2c-14.8 0-31.7-1.6-50.4-4.7-74.3-12.4-127.4-64.1-142.1-138.3-17.5-87.8 16.7-154 38.6-189.3 1.1 8.8 2 17.4 1.1 25.8-2.4 23.3-1.5 47.8-.6 71.5l.2 5.7c.8 23.6 8.2 42 22 54.5 28.1 25.5 77.3 22.5 124.9 19.5l18.3-1.1c21-1.1 41.2 4.4 62.6 10.1 8.8 2.4 17.9 4.9 27 6.8 11.4 2.5 20.4 6 27.7 9 11.3 4.5 21 8.4 31 3.4 11.6-5.9 18-20.4 30.3-67.5 6.3-24.6 3.5-50.6.8-75.7-1-9.8-2-19-2.5-28l-.4-6.6c-.5-7-1-15-.6-22.5 3.2 9 6.4 17 9.6 24.8 10.5 26 19.5 48.4 24.5 95.5 6.9 66.2-10.4 114.4-52.8 147.4-7.7 5.9-94.3 58.2-165 59.7h-4.2zm-138.8-403.3l-17.4 37c-1 2-3.5 6-6.5 10.6-19.4 29.8-70.8 109.1-49.5 216.6 16.5 82.6 75.7 140.3 158.5 154.1 21.7 3.7 41.4 5.3 58.2 5 76.6-1.6 167.4-56.6 177-64 47.6-37 67.9-92.5 60.4-165.2-5.3-49.9-15.3-74.7-25.9-101-3.3-8.2-6.8-16.7-10.2-26.4a173 173 0 0 1-2.7-8.6c-1.9-6.2-3.8-12.5-6.9-18.7l-7-14.2-9.8 12.5c-13.6 17.4-12.1 42-10.9 62l.4 6.3c.5 9.5 1.6 19.5 2.6 29.1 2.5 23.4 5.2 47.5-.3 68.6-3.6 14-13.3 51.3-20 54.7-1.8.9-8.5-1.8-14.5-4.2-8-3.2-17.8-7.1-30.9-10-8.6-1.8-17.4-4.2-26-6.5-22-6-44.6-12-68.9-10.8l-18.5 1.1c-43.4 2.7-88.2 5.5-110.2-14.4-9.8-8.8-14.8-22-15.4-40.3l-.2-5.7c-.9-23-1.7-46.9.5-68.8 1.3-12.8-.4-25-2-36.8-1-7.3-2-14.2-2.3-21.1l-1.6-41" fill="#d6d6d6"/><path d="M4005.1 1566.5c11.5.8 38 .5 45.8 16.5 1 2.2 1.4 4.7 1.2 7.3-1.2 21.2-30 52.5-30.2 52.9a3.3 3.3 0 0 1-4.8-4.4s28.3-32.5 28.5-48.7c.1-1.8-.2-3.3-.7-4.6-3.3-10-28.6-12.4-40-12.5a3.3 3.3 0 1 1 .2-6.5" fill="#d6d6d6"/><path d="M3799.4 593.7s165.6-42.4 406-1.3l56.6 427.1s65 22.8 87.8 25.7c22.8 3 92.2-2.5 92.2-2.5s-35.6 186.5-89.4 240.9c-35.5 35.8-227.2 100.5-227.2 100.5s-45.6-45.6-117.7-45.6c-77.9 0-113.2 44.4-113.2 44.4S3688 1314.4 3650 1276c-53.2-53.8-91.8-208.5-91.8-208.5s51.5 1.6 87.5-10c49-15.8 84.1-38.2 84.1-38.2l69.7-425.7" fill="#fbfbfb"/><g fill="#d6d6d6"><path d="M3808.2 602c32-7 182.6-35 388.3-1l55.6 419.8a10 10 0 0 0 6.6 8.2c2.7 1 66.4 23 89.8 26.1 17.6 2.3 59.5 0 81-1.5-9 42.6-40.8 179.4-84 223-26.8 27-161.2 76.8-217.7 96.2a188.6 188.6 0 0 0-120.1-44.3c-66.2 0-103.5 30.3-116.1 42.9-61-20.6-205.8-73.3-234.5-102.3-42.2-42.5-75.6-154-86-191.5 18.2-.3 51.5-2 77.6-10.5 49.7-16 85-38.4 86.4-39.3 2.4-1.5 4-4 4.5-6.8zm189.9-37.4c-123.2 0-200 19.2-201.2 19.5a10 10 0 0 0-7.4 8l-68.9 421.1c-10.1 6-39.9 22.6-78 35-33.9 10.8-83.7 9.4-84.2 9.4a9.6 9.6 0 0 0-8.1 3.7 10 10 0 0 0-2 8.7c1.7 6.4 40 158 94.6 213.2 39.1 39.5 240 106.4 248.5 109.2 4 1.3 8.4 0 11-3.3 1.3-1.6 33.7-40.6 105.3-40.6 67.2 0 110.3 42.3 110.7 42.7a10 10 0 0 0 10.3 2.4c7.9-2.7 194.3-65.9 231-103 55.4-55.9 90.7-238.3 92.2-246a10 10 0 0 0-10.6-11.8c-.7 0-68.6 5.3-90.2 2.5-17.6-2.3-63.7-17.7-80-23.2l-55.7-421a10 10 0 0 0-8.2-8.6c-78.4-13.4-149.3-17.9-209.1-17.9M4068.5 1494.5a6.5 6.5 0 0 1-9.4 9c-28.9-29.4-56.3-24.5-76.3-15.9a87.6 87.6 0 0 0-22.5 14.5 6.5 6.5 0 1 1-9-9.5c.3-.3 10.3-9.7 26.2-16.8l1-.5c22.4-10 58-14.3 90 19.2M3887.5 1725c1 .4 24 13.8 53.4 14 6 0 12.4-.7 18.8-2.2l-5.8-25.1c-4.3 1-8.6 1.4-13 1.4a94 94 0 0 1-37.7-9.1l-3-1.5-12.7 22.5M4131.1 1725c-1 .4-24 13.8-53.4 14-6 0-12.4-.7-18.8-2.2l5.8-25.1c4.3 1 8.6 1.4 13 1.4 16 0 31.5-6.1 37.8-9.1l2.9-1.5 12.7 22.5"/></g><path d="M4221.1 496.4l-429-3.7C3655.3 464.2 3673.7 326 3673.7 326c8.6-207 140.4-749 140.4-749l157.2 28s-54.6 498.7-70.8 692.7l97.1 78.4h58.3l78.2-78.2c-13.6-194.8-68.7-697.6-68.7-697.6l165.2-22.1s124.8 544.3 130.5 751.5c0 151-140 166.9-140 166.9" fill="#fff"/><path d="M3793.2 482.8C3668 456 3683 332.4 3683.7 327.1c7.9-189.8 120.7-666.7 138-738.8l138.7 24.7c-7.6 69.3-55 506.4-69.8 683.7l-.5 5.3 104 83.9h66l84.3-84.4-.3-4.5c-12.4-177.8-60-617.3-67.7-688.3l146.5-19.6c16 71.4 123 551.2 128.2 740.7 0 136.5-120 155.2-130.6 156.5zm13.4-917.4l-2.2 9.2c-1.3 5.4-132.1 545.3-140.6 750.8-.1.6-18 147 126.3 177.1l2 .2 429.5 3.7h.6c1.5-.2 149-18.7 149-176.8-5.8-206.1-129.6-748.3-130.8-753.8l-2-8.9-184 24.7 1 9.7c.6 5 54.5 497 68.4 692.6l-72 72h-50.6l-90.2-72.7c16.5-195.3 69.7-682.3 70.3-687.3l1-9.3-175.7-31.2" fill="#d6d6d6"/><path d="M3743.4 440.6h511.2v24h-511.2z" fill="#d1d1d1"/><path d="M3706.5 527.5v-35.7l22.9-60.8 21.2 15.3-44.1 81.2" fill="#fff"/><path d="M3723.2 475.7l10.9-29 3.5 2.6zm6.1-54.7c-1 0-2 .2-2.9.5a10 10 0 0 0-6.4 6l-22.9 60.8a9.9 9.9 0 0 0-.6 3.5v35.7a10 10 0 0 0 18.8 4.8l44-81.2a10 10 0 0 0-2.9-13l-21.2-15.2a10 10 0 0 0-5.9-1.9" fill="#d6d6d6"/><path d="M3740.3 440.5l-33.8 87h65.1l8.7-86.9-40-.1" fill="#fff"/><path d="M3721.1 517.5l26-67h22.2l-6.7 67zm19.2-87a10 10 0 0 0-9.3 6.4l-33.8 87a10 10 0 0 0 9.3 13.6h65.2a10 10 0 0 0 10-9l8.6-87a10 10 0 0 0-10-10.9l-40-.1" fill="#d6d6d6"/><path d="M4291.5 520.4v-35.8l-22.9-60.7-21.2 15.2 44.1 81.3" fill="#fff"/><path d="M4260.4 442.1l3.5-2.5 10.9 29zm8.2-28.2c-2 0-4 .6-5.8 1.9l-21.2 15.2a10 10 0 0 0-3 13l44.1 81.2a10 10 0 0 0 18.8-4.8v-35.8a10 10 0 0 0-.6-3.5l-23-60.7a10 10 0 0 0-9.3-6.5" fill="#d6d6d6"/><path d="M4257.7 433.3l33.8 87h-65.2l-8.6-86.9h40" fill="#fff"/><path d="M4228.7 443.4h22.2l26 67h-41.5zm29-20h-40a10 10 0 0 0-10 11l8.7 87a10 10 0 0 0 10 9h65.1a10 10 0 0 0 9.3-13.6l-33.8-87a10 10 0 0 0-9.3-6.5" fill="#d6d6d6"/><path d="M4000.1 849h-303l47-390.6 256-1.1 256 1 47 390.7h-303" fill="#fff"/><path d="M3753 468.3l247.1-1 247 1 44.6 370.7h-583.3zm247.1-21l-264.8 1.1-49.5 410.6h628.5l-49.4-410.6-264.8-1.1" fill="#d6d6d6"/><path d="M4270.8 431c0-9.8-8.3-17.8-18.6-17.8H3748c-10.3 0-18.6 8-18.6 17.8 0 9.9 8.3 17.8 18.6 17.8h504.3c10.3 0 18.6-8 18.6-17.8" fill="#fff"/><g fill="#d6d6d6"><path d="M3747.9 438.8c-4.7 0-8.6-3.5-8.6-7.8s3.9-7.8 8.6-7.8h504.4c4.7 0 8.5 3.5 8.5 7.8s-3.8 7.8-8.6 7.8zm504.4-35.6h-504.4a28.2 28.2 0 0 0-28.6 27.8 28.2 28.2 0 0 0 28.6 27.8h504.4a28.2 28.2 0 0 0 28.5-27.8 28.2 28.2 0 0 0-28.6-27.8M3954.2 1681.2c0-9-8.7-16.2-19.2-16.2-10.6 0-19 7.2-19 16.2 0 8.8 8.4 16 19 16 1.2 0 2.2 0 3.5-.3 8.8-1.3 15.7-7.9 15.7-15.7M4097.2 1681.2c0-9-8.7-16.2-19.2-16.2-10.6 0-19 7.2-19 16.2 0 8.8 8.4 16 19 16 1.2 0 2.2 0 3.5-.3 8.8-1.3 15.7-7.9 15.7-15.7"/></g></g></g><g><g clip-path="url(#b)" transform="matrix(.08063 0 0 -.08063 233.8 324.4)"><path d="M936.7 438.6s360.6-223.8 369.5-314.7c8.2-82.9-355.5-667.4-355.5-667.4l-59 20s42.1 389.1 262.7 609.7c-173 83.2-397.8 227.7-397.8 227.7l180.1 124.7" fill="#fff"/><path d="M902.6-516.6l43.8-14.9C1050-364.7 1302.6 58.6 1296.3 123c-6.8 69.3-256.4 239.4-359.3 303.8L774.7 314.2c49.9-31.5 237-148.2 384-219l12.7-6.1-10-10C963.1-119.3 910.2-460.4 902.7-516.6zm52.4-38.9L881-530.4l.9 8c.4 3.9 43.7 383.5 255.7 605.6C968 166.6 753.5 304 751.2 305.4l-12.6 8.2 197.9 137 5.5-3.5c37.4-23.1 365-229 374.2-322.2 8.2-83.8-319.5-613.5-357-673.7l-4.1-6.7" fill="#d6d6d6"/><path d="M1581.2 625.7c-7.2 18.2-35.3 44.4-54 49.8-22.6 6.6-92.8-15.2-92.8-15.2s-286.5 85-316 104.8c-4.7 7.3-4.6 28.3-5.7 36.3-4.2 29.2-28.5 164.6-38.8 203.2-10.5 39-19.4 88.7-41.8 122.6-16.7 25.3-37.9 41.9-64.4 35.8-51-11.6-43.9-74.6-36.5-112 11-55.6 25-110.7 36.9-166 10.8-51.2 22.7-102.5 38.5-152.3 7.8-24.4 15.6-53.8 33.3-73.5.3-.7.7-1.3 1.2-1.5 62-25.4 349.4-40.9 349.4-40.9 42.7-42.7 110.5 7.1 110.5 7.1l39.2-10.7 23.2-41.5h24.3s-1.5 41.4-6.5 54" fill="#fff"/><path d="M1569.3 581.7h8c-1 15-2.8 33.9-5.4 40.3-6.1 15.6-31.9 39.4-47.5 44-14.4 4-61-7.2-87-15.3a10 10 0 0 0-5.9 0c-29.4 8.7-288.7 86-318.7 106a10 10 0 0 0-3 3c-4.2 7-5.3 18.2-6.3 32.2-.2 3.2-.4 6.1-.7 8.1-3.9 27.2-28.2 163.4-38.5 202l-6.1 24c-8.1 32.7-17.3 69.8-34.4 95.7-17 25.7-34.5 36-53.8 31.6-31.4-7.2-40.9-40-29-100.4 6.3-31.7 13.8-63.9 21-95 5.4-23.6 10.9-47.2 15.9-71 9.7-45.6 21.8-99.3 38.3-151.2l2.5-8c6.7-21.3 14.2-45.6 28.5-61.6 63.9-24 341-39.2 343.8-39.3a10 10 0 0 0 6.6-3c36.2-36.1 97 7.7 97.6 8.2a10 10 0 0 0 8.5 1.6l39.2-10.7a10 10 0 0 0 6.1-4.8zm18.5-20h-24.4c-3.6 0-7 2-8.7 5.1l-21.1 37.9-30.7 8.4c-16-10.5-74.5-44-116.6-6-35.3 1.9-289.3 16.8-349 41.3-3 1.3-4.7 3.5-5.6 5-16.8 19.2-25 45.3-32.1 68.4l-2.5 7.9c-16.7 52.7-29 107-38.8 153.1-5 23.6-10.4 47-15.8 70.6-7.3 31.2-14.7 63.6-21 95.6-14.3 72.2.5 113.8 44 123.8 28 6.4 53.3-7 75-40 19-28.8 28.6-67.7 37.1-102l6-23.6c10.7-40.1 35-176 39-204.4l.9-9.6c.3-5 1.1-16.2 2.6-21.1 28.7-15.7 197-68.3 308.2-101.4 17.1 5.2 73 21 95.7 14.4 21.5-6.2 52.1-34.3 60.5-55.7 5.4-13.6 7-50.2 7.3-57.4a10 10 0 0 0-10-10.3" fill="#d6d6d6"/><path d="M794 1699.2c-106.7 4.1-99.3-179.4-59-240 78.6-117.8 181.9 24.4 166.6 118.1-8 50-26 107.5-82.7 118.8-9 1.8-17.4 2.8-25 3.1" fill="#fff"/><path d="M790.5 1689.3c-24.2 0-42.8-11.4-55.4-33.9-28.7-51.2-19.3-149.2 8.3-190.6 16-24 42.3-50 76.6-36.5 44.6 17.6 80.8 92 71.8 147.4-11 67.5-34.8 102.7-74.8 110.6a151.3 151.3 0 0 1-26.5 3zm10.6-284.6c-21.4 0-48.5 10.2-74.4 49-31.2 46.8-41.5 153.6-9 211.5 16.8 30 43.3 45.3 76.7 44a169 169 0 0 0 26.5-3.3c64.8-12.8 82.7-78.6 90.6-127 10.5-64.5-31.2-148.3-84.2-169.2-6.8-2.7-15.8-5-26.2-5" fill="#d6d6d6"/><path d="M793.5-879.8V224.1a17.8 17.8 0 0 0 35.6 0V-879.8a17.8 17.8 0 0 0-35.6 0" fill="#fff"/><path d="M811.3 232a7.8 7.8 0 0 1-7.8-7.9V-879.8a7.8 7.8 0 1 1 15.6 0v1104c0 4.2-3.5 7.7-7.8 7.7zm0-1139.7a27.9 27.9 0 0 0-27.8 27.9v1104a27.8 27.8 0 0 0 55.6 0v-1104a27.9 27.9 0 0 0-27.8-27.9" fill="#d6d6d6"/><path d="M617-915.6a17.8 17.8 0 0 0-13.2 21.4c38.7 163.1 51.8 342 51.8 508s-13 318.7-26 430c-13 111.3-26 180.5-26 180.6a17.8 17.8 0 1 0 35 6.6c.1-.7 52.6-281.8 52.6-617.3 0-167.7-13.1-349-52.7-516.1a17.8 17.8 0 0 0-21.5-13.3" fill="#fff"/><path d="M621.1 235.5a8 8 0 0 1-6.4-3.4 7.7 7.7 0 0 1-1.3-5.8 3807.2 3807.2 0 0 0 52.1-612.5c0-193.2-17.5-364.9-52-510.3-.5-2-.1-4.1 1-6 1-1.7 2.8-3 4.8-3.4.6-.2 1.5 0 1.9-.2 3.6 0 6.7 2.4 7.5 6 34.8 146.7 52.5 319.6 52.5 513.9 0 318-47 585.5-52.3 615a8 8 0 0 1-3.4 5.3 7.7 7.7 0 0 1-4.3 1.4zm0-1161.7a27.6 27.6 0 0 0-27 34.2c34.1 144 51.5 314.1 51.5 505.7a3787 3787 0 0 1-51.8 608.7A27.7 27.7 0 0 0 616 255a27.6 27.6 0 0 0 32.5-22.2c5.5-30.1 52.7-299.3 52.7-619 0-195.8-17.8-370.3-53-518.5a27.7 27.7 0 0 0-27-21.4" fill="#d6d6d6"/><path d="M1068.5 306.8h-512v-68.3h1.8c14.8-18.2 122.4-32.3 253-32.3s238.2 14 253 32.3h4.2v68.3" fill="#fff"/><path d="M566.5 244.3c11.8-12 102-28.1 244.8-28.1 144.8 0 235.5 16.6 245.2 28.6a10 10 0 0 0 2 1.8v50.2h-492zm244.8-48.1c-82.4 0-225.3 7-257.3 32.6a10 10 0 0 0-7.5 9.7v68.3a10 10 0 0 0 10 10h512a10 10 0 0 0 10-10v-68.3a10 10 0 0 0-10-10h-.3c-32.7-25.4-174.8-32.3-256.9-32.3" fill="#d6d6d6"/><path d="M1066.1 306.8c0-20.2-114-36.6-254.8-36.6s-254.8 16.4-254.8 36.6c0 20.1 114.1 36.5 254.8 36.5s254.8-16.4 254.8-36.5" fill="#fff"/><path d="M568.3 306.8c17-11.5 107-26.6 243-26.6s226 15 243 26.6c-17 11.5-107 26.5-243 26.5s-226-15-243-26.5zm243-46.6c-44.2 0-264.8 2.3-264.8 46.6 0 44.3 220.6 46.5 264.8 46.5 44.2 0 264.8-2.2 264.8-46.5s-220.6-46.6-264.8-46.6" fill="#d6d6d6"/><path d="M980.4-902.5c-39.6 167.1-52.7 348.5-52.7 516.3 0 335.4 52.4 616.5 52.6 617.2a17.8 17.8 0 1 0 35-6.6c0-.1-13-69.4-26-180.6a3797.4 3797.4 0 0 1-25.9-430c0-166 13-344.8 51.8-508a17.8 17.8 0 1 0-34.7-8.2" fill="#fff"/><path d="M990 229.1a3782 3782 0 0 1-52.3-615.4c0-194.4 17.7-367.3 52.5-513.8a8 8 0 0 1 9.4-5.8 7.8 7.8 0 0 1 5.8 9.4c-34.6 145.3-52 317-52 510.3 0 171.7 14.1 329.2 26 431.1 11.3 97 22.7 162.7 25.9 180.5 1 5.1-1.9 9.2-6 10-2.2.4-4.2 0-6-1.3a7.7 7.7 0 0 1-3.2-5zm7.8-1155.3c-13 0-24.1 8.8-27 21.4-35.2 148-53 322.5-53.1 518.5 0 328.1 50.5 607.2 52.7 618.9l1.6-.1-1.6.3A27.6 27.6 0 0 0 1003 255a27.8 27.8 0 0 0 22.4-31.4l-.3-1.8c-3.2-17.7-14.5-82.8-25.8-179.2a3795 3795 0 0 1-26-428.9c0-191.7 17.4-361.8 51.6-505.6a27.6 27.6 0 0 0-20.6-33.5c-2.2-.5-4.3-.8-6.5-.8" fill="#d6d6d6"/><path d="M949.7 384.4c3 72.6 10.7 143.6-23.9 184-26.2 30.7-83 9-129.6 8-104.4-2.3-190.3-121.5-173.7-219.1a112.1 112.1 0 0 1 25-54c25-29.8 64.9-47.9 108.8-58 4-3.4 187-164 349.2-262.8-105.2-142-98.2-624.7-98.2-624.7s4.7-10.7 36.6-22c17-6 38.8-4.7 38.8-4.7s177.6 590.8 177.6 674c0 87.1-283.7 354.2-310.6 379.3" fill="#fff"/><path d="M1017.3-639a94.7 94.7 0 0 1 58-20c19.9 66.8 175 588.2 175 664.2 0 67-193.2 265.2-307.4 371.8l-3.4 3.2.2 4.6 1 22.4c3.1 62.4 6 121.5-22.5 154.7-15.2 17.8-46.2 13.4-79 8.8-14.2-2-28.9-4-42.8-4.3-43.3-1-87-24.3-119.8-64-35.1-42.5-52-97.5-44.2-143.4a102.5 102.5 0 0 1 22.7-49.3c21.3-25.4 56.1-43.8 103.5-54.6l2.4-.6 2-1.6c7.5-6.7 187.6-164.4 347.7-261.9l9.4-5.7-6.6-8.8c-97.7-131.8-96.5-574.2-96.2-615.5zm59.9-40c-8.3 0-23.5.7-36.6 5.4-33.5 11.8-41 24-42.4 27.4l-.8 1.8v2c-.4 19.5-5.7 469.3 93.9 622-152.4 94.3-319 238.5-339.7 256.6-50.4 11.9-88 32.3-111.8 60.6a122.3 122.3 0 0 0-27.1 58.8c-9 52.3 9.2 112 48.4 159.5 36.6 44.2 85.7 70.2 134.8 71.3 12.8.3 26.9 2.2 40.5 4.1 36.7 5.2 74.7 10.5 97-15.6 33.6-39.3 30.5-102.1 27.3-168.7l-.9-17.7c59.4-55.6 310.5-296 310.5-383.3 0-83.8-170.8-652.8-178.1-677l-2-6.7-7-.4-6.1-.1" fill="#d6d6d6"/><path d="M1097.2 1044.4c-24.6 33.4-50.5 86.2-76.5 133l30 190.4-125.5 11.7-39.2-144.7c-10.1-6.6-21.8-13-35.9-18.1-23-8.3-36.2-65.7-60.3-87.7l-18.5-101.4 12.3-11S756.8 1003 774 985c112.6-6.4 165.4-85.5 275.5-63.2 49.1 52.2 38.4-18.6 56 10.4 13.7 22.6 6.9 91.6-8.3 112.2" fill="#fff"/><path d="M779 994.7c49-3.7 86.5-20.2 122.7-36.3 44-19.5 85.7-38 142.7-27.4 15 15.3 26.5 21.6 37 20.5 8.5-1 13.6-6.5 17-11.4 9.8 22.2 3 81.8-9.3 98.4-18.4 25-36.8 59.4-56.4 95.8-6.9 12.9-13.8 25.8-20.8 38.3a10 10 0 0 0-1.1 6.4l28.4 179.9-106.6 9.8-37-136.5a10 10 0 0 0-4.2-5.8c-12.6-8.2-25-14.4-37.9-19-8.8-3.3-18.3-22.2-26.7-39-8.2-16.2-16.7-33-27.7-44.3l-17-92.8 8.2-7.3a10 10 0 0 0-2.2-16.4c-3.7-1.9-9.3-6.4-9.8-9.8-.2-1 0-2 .7-3.1zm232-86.9c-44.5 0-80.2 15.8-117.4 32.3C857.9 956 821 972.3 773.4 975a10 10 0 0 0-6.7 3.1c-8.5 9-9.1 17.5-8.1 23.1 1.1 6.7 5 12.1 9.2 16.1l-3.2 3a10 10 0 0 0-3.2 9.1l18.6 101.4a10 10 0 0 0 3 5.6c9.6 8.7 17.9 25.1 25.9 41 11 22 21.5 42.8 37.8 48.7a161 161 0 0 1 30.6 15l38.2 141a10 10 0 0 0 10.6 7.3l125.5-11.6a10 10 0 0 0 9-11.5l-29.5-187c6.4-11.6 12.8-23.6 19.2-35.5 18.4-34.2 37.3-69.6 55-93.5 17-23 24.8-97 8.8-123.3-3.7-6-8.4-12-16-12-7.8 0-11.7 6.5-14.3 10.8-1.2 2-3.4 5.7-4.6 5.8-.2.1-6.3.5-22.5-16.7a10 10 0 0 0-5.3-3 203 203 0 0 0-40.4-4" fill="#d6d6d6"/><path d="M1131.8 982.2c-10.3 19-44.6 91-48.4 87.2-10.2-10.3-62.3 5.4-73.3 15.3a3995.7 3995.7 0 0 0-131.3 123.4c-8.2 8.2-17.3 19.1-17.3 19.1s-52-32.8-60.2-42.6c-41.7-50-53-86.4-47.4-146 5.4-57.2 12-123 .7-179.7-8.7-43.2-9.6-88.4-21.4-131-19.6-70.4-87.6-145.6-70.9-222 49-35.2 67.1-45.9 140.3-45.9 50 0 102.4 8.6 151.5 16.8 13.7 70.4 3.7 169.8 37.1 235.4l12.4 23.4 12.3-31.6s66.7 54.4 101.2 63.9L1103 854c3.9 3.6 7.4 7 10.3 9.9 25.5 25.4 55 50.7 18.5 118.2" fill="#fbfbfb"/><path d="M1078 1061.5zM671.3 511.7c46.1-33 62.6-41.7 131.3-41.7 47.7 0 98 8 143 15.5 3.8 23 5.5 49 7.2 76.2 3.5 54.6 7.1 111.2 29.5 155 1.3 2.6 6 11.7 12.4 23.6 1.9 3.5 5.6 5.4 9.4 5.3a10 10 0 0 0 8.7-6.4l7.5-19c18.7 14.5 57.7 43.3 85.6 54.4l-12.8 77.9a10 10 0 0 0 3 9l10.2 9.5 2.8 2.9c24.4 24.2 45.4 45.1 13.8 103.5l-11.8 23.2c-8.4 16.7-23 45.5-30.1 56.8-23-5.7-68 11.1-77.7 20A4114.2 4114.2 0 0 0 871.7 1201c-4.3 4.3-8.8 9.3-12.2 13.1-22.9-14.7-46.5-31-50.6-36-39.5-47.4-50.5-81-45-138.5l.4-4.7c5.3-57 11.4-121.4 0-178-3.5-17.5-5.8-36-8-53.8-3.1-25.7-6.4-52.2-13.5-77.8-7.2-25.6-20.5-52-33.4-77.4-22.7-44.8-46.2-91.1-38.1-136.2zM802.6 450c-76 0-95.6 11.5-146.2 47.8a10 10 0 0 0-4 6c-11.6 53.1 14.2 104 39.1 153.1 13 25.8 25.4 50 32 73.7 6.7 24.2 9.9 50 13 75 2.2 18.1 4.5 37 8.2 55.3 10.8 53.6 4.9 116.6-.3 172.1l-.5 4.8c-6 62.9 6.6 101.5 49.7 153.2 8.7 10.5 53.6 39 62.5 44.7a10 10 0 0 0 13-2c0-.2 9-10.7 16.7-18.5 44.1-44.1 106.3-100.7 131-123 9.5-8.7 52.1-19.6 60-15.4a10 10 0 0 0 8.6 2.6c7.2-1.2 10.5-4.2 43.5-69.8l11.6-22.7c38.7-71.5 7.7-102.4-17.3-127.2l-2.8-2.8-6.7-6.5 13.3-81a10 10 0 0 0-7.3-11.2c-26.6-7.3-79.4-47.2-97.5-62a10 10 0 0 0-15.7 4.2l-4.4 11.2-1.8-3.5c-20.7-40.6-24.2-95-27.5-147.7-2-30.6-3.8-59.6-8.9-85.5-.8-4.1-4-7.3-8.2-8C908.2 459 854.4 450 802.6 450" fill="#d6d6d6"/><path d="M910.8 1121.5c-9.7 28.7-26 50.2-53.1 51.1-52.4 1.8-61.6-61-64-99-3.6-56.5-4-113.4-6.9-170-2.6-52.1-4.2-104.8-1.7-157 1.3-26.2 1.2-57.5 14.2-81.3l102.3 83.4c-3 8 2.7 29 3.7 37.2 3.4 29.3 14.6 166.4 14.5 206.4-.2 40.3 4 90.6-9 129.2" fill="#fbfbfb"/><path d="M855.6 1162.7c-31 0-48-29.4-52-89.7-2-32.3-3-65.3-4-97.3-.8-24.2-1.6-48.4-2.8-72.5-2.3-46.6-4.3-101.5-1.7-156l.4-8.7c.8-18.7 1.7-39.6 7.7-57l87.6 71.4a119 119 0 0 0 3 26c.7 3.4 1.3 6.2 1.5 8.2 3.2 27.4 14.6 165.2 14.5 205.2 0 8 0 16.2.2 24.7.6 33.7 1.2 72-8.7 101.4-9.8 29.1-24.2 43.6-44 44.3h-1.7zm-56.3-507.4c-.7 0-1.3 0-2 .2a10 10 0 0 0-6.8 5c-12.7 23.4-13.9 52-15 77.1l-.3 8.6c-2.7 55.3-.7 110.9 1.7 158 1.1 24 1.9 48 2.7 72 1 32.2 2 65.4 4.1 98 4.7 73.5 29.5 110.4 74.3 108.4 28.7-1 49.7-20.4 62.3-57.9 11-32.7 10.3-72.7 9.7-108-.1-8.4-.3-16.6-.2-24.4 0-41.5-11.3-179.1-14.6-207.5-.3-2.4-1-5.8-1.7-9.6-1-5.8-3.7-19.4-2.6-23 1.3-3.9.1-8.6-3-11.2l-102.3-83.4a10 10 0 0 0-6.3-2.3" fill="#d6d6d6"/><path d="M1344.7 623.8c-10.8 29.1-15.2 61-40.2 66.5a215 215 0 0 1-58.8 2.4c3.5 3.8 7.7 7.2 14.3 9.2 8 2.3 19.6 2.7 26.3 8.4 4.5 4 8.8 16.6 6.1 21.6 1.7-3-64.7-19.9-69-21.5-3.6-1.4-8.2-2.3-11.4-4.3-5.1-3.2-32.4-23.3-39.5-34.6-4.7-2.7-9.3-5.6-13.6-8.9-91 24.9-252.3 71.1-258.9 88.8l-107-70.8c2-3.9 3.8-13.4 6.3-15.3 48.4-36.7 293-58.3 337.8-62 14.2-3 33.9-5.5 38.5-5.5 16.3 0 49 9.7 61.8 13.3 10.2 2.9 24.4 12.8 31.6 3.5 8.2-10.5 41.9-37.5 52.8-39 27.8-3.5 28.4 34 22.9 48.2" fill="#fff"/><path d="M909.4 754.9zm373.1-24.7zm-477.2-56.9zm455.8-44.8a19 19 0 0 0 15.8-7.7c8.2-10.5 38.9-33.9 46.3-35.2 5.7-.8 8.1 1.2 9.7 3.3 5.7 7.2 5.4 23.7 2.5 31.3v.1c-2.3 6-4.3 12.1-6.2 18-7.8 24.3-13.5 39.3-26.9 42.2-16.6 3.2-36.4 4-55.7 2.2a10 10 0 0 0-8.3 16.7c2 2.2 4.5 4.7 7.9 7l-6-1.7c-6.9-1.9-12-3.2-13.4-3.7l-4.2-1.4c-1.9-.6-4.2-1.3-5.3-2-5.7-3.5-30.8-22.5-36.3-31.4a10 10 0 0 0-3.6-3.5c-4.2-2.3-8.4-5-12.4-8a10 10 0 0 0-8.7-1.7c-187 51-240.9 73.8-257.6 85.5l-93.6-62 1.4-4c38-26.7 201.7-48.6 331.4-59.3l1.2-.1c13.7-2.9 33-5.3 36.5-5.3 13.5 0 41.7 8 55.3 11.8l3.8 1.1c2.2.7 4.6 1.7 7.1 2.7 5.2 2.1 12.3 5 19.3 5zm64.3-63c-1.6 0-3.2 0-4.9.3-15.2 2-50.9 31.8-59.4 42.7-1.8.5-8.2-2.2-11.6-3.6a89 89 0 0 0-9.4-3.4l-3.7-1c-15.6-4.5-44.5-12.7-60.8-12.7-5.6 0-25.8 2.7-40 5.6-68.7 5.6-293.3 26.8-342.3 64-4 3-5.7 8.2-7.5 13.7-.6 1.9-1 3.7-1.7 4.8a10 10 0 0 0 3.4 13l107 70.8a10 10 0 0 0 14.5-4c3.7-3.7 31.8-23 248-82.2 2.8 2 5.7 3.8 8.6 5.5 10.4 14.2 38 33.7 41.1 35.6a41 41 0 0 0 10 4l3.1 1.1c1.5.6 5 1.5 15 4.3 13.2 3.6 43 11.7 50.6 15a10 10 0 0 0 15.8-2.3c5.4-10-1.1-27.6-8.3-33.9l-.7-.6c4.9-.5 9.6-1.2 14.2-2.1 25.8-5.7 34-31 41.9-55.6 1.8-5.7 3.6-11.5 5.8-17.2 4.6-11.9 6-36.2-5.4-50.8a28.7 28.7 0 0 0-23.3-11" fill="#d6d6d6"/><path d="M1177 1715.3c64.4-39.6 131-143.1 91.8-220.7-14.9-29.5-48.1-64.6-46.3-100 1.3-25 25.8-65.2 18-75.5-8.9-11.6-31.4-6.3-42.4-12-13.3-6.7-14.5-26.7-22.1-39-23.1-37.6-49.4-71.3-96.2-48.6-38.8 18.8-94 59-120.1 91.6-27.2 34.1-51.7 70-70.4 109.5-16 33.5-30.2 69.5-34.7 106.6-4.4 37.1 1.7 75.5 9.8 111.7 7.3 32.7 17.3 68.1 47.6 86.7 28.1 17.2 64.3 19.3 92 36.7 15 9.3 30.6 6 46.7 1.6A801.7 801.7 0 0 0 1157 1724c6.5-2.8 14-5 20.1-8.8" fill="#fff"/><path d="M1025.7 1758.2a30 30 0 0 1-16.4-4.4c-15-9.5-32-14.6-48.5-19.6-15.8-4.8-30.7-9.3-43.6-17.2-26.9-16.5-36-48.7-43-80.3-6.9-30.6-14.2-70.5-9.6-108.3 4.6-38.5 20.5-75.6 33.7-103.5a559.4 559.4 0 0 1 69.2-107.6c26-32.5 80.8-71.5 116.7-88.9 36.1-17.5 57.2 2.3 83.3 44.9 2.1 3.5 3.8 8.1 5.6 13.1 3.9 11 8.3 23.4 20.4 29.6 6.2 3.2 13.6 3.8 20.8 4.4 7 .6 14.7 1.2 17.7 4.2.4 4.6-4.6 18.2-8 27.4-5.3 14.3-10.8 29.2-11.5 42-1.4 28.3 16 55 31.4 78.7 6.1 9.4 11.9 18.2 16 26.4 36 71.5-28 170.8-88.1 207.7-3.4 2-7.8 3.7-12 5.4l-6.8 2.7a790.6 790.6 0 0 1-105 39.3c-7.8 2.2-15.3 4-22.3 4zm82.7-556c-10 0-20.9 2.4-32.9 8.2-38.7 18.8-95.5 59.2-123.6 94.5a579 579 0 0 0-71.6 111.4c-14 29.3-30.6 68.3-35.6 109.7-4.9 40.8 2.7 83 10 115 7.6 34.3 18.5 72.5 52 93 15.2 9.3 32 14.4 48.3 19.4 15.9 4.8 31 9.3 43.7 17.3 18.3 11.4 37 7.7 54.7 2.8 37.4-10.3 72.2-25 107.5-40.3l6-2.4c5.2-2 10.5-4 15.4-7 68-41.8 137.2-151 95.5-233.7-4.7-9.2-10.7-18.5-17.1-28.3-14.4-22.1-29.3-45-28.2-66.8.5-9.7 5.7-23.7 10.3-36 7.4-20.1 13.2-36 5.7-46-8-10.5-21.6-11.6-32.5-12.5-5.3-.5-10.7-1-13.3-2.3-5-2.6-7.9-10.3-10.8-18.5-2-5.7-4.1-11.7-7.4-17-13.8-22.5-37.2-60.6-76.1-60.6" fill="#d6d6d6"/><path d="M1272 1667.7c-30 56.9-93.6 106.3-154.2 125.7-118.6 37.8-230.5-30.5-280.3-138.2-34.8-75-25.3-188 37.2-246.2 17.4-16.2 30.9-37 51.5-50.3l.8-.6c.9 15.9 14.6 25.7 25.6 35.2 10.9 9.5 22.3 21.4 29 34.9a66.2 66.2 0 0 0-16.5 46.4c.3 31.2 18 56.3 39.7 56.1 17.6-.1 32.3-17 37-40 4-12.3 7-25.6 19.3-32.7-5.9 53.4 44.7 86.4 79 115.7 17.7 15 26 32.3 38.4 50 .3.3 50.4-73.3 54.3-82.4a181.9 181.9 0 0 0 13.4-48.5c1.8-14.3-3.1-27.7-1.6-41.3 17.1 2.6 28.5 20.3 38.4 33 45.8 58.2 19.6 125.2-11 183.2" fill="#fff"/><g fill="#d6d6d6"><path d="M1051.8 1793.8c-84.4 0-163.6-53-205.2-142.7-31.5-68-27.1-177 35-234.7 6.7-6.3 12.8-13.2 18.8-19.9a232 232 0 0 1 21.1-21.7c5.1 9.7 13.6 16.9 21 23.1l3.5 3c10.3 9 18.2 17.8 23.4 26.2a80 80 0 0 0-14.3 47.7c.3 37 22 66 49.4 66h.3c22-.2 40.7-19.2 46.8-47.4l1-3.5.7-2.3c9.3 35.5 40.7 61.2 67 82.7l13.4 11c12 10.3 19.5 22 27.4 34.2l9.2 14 3.4 4.8 5.9-.6c5.3-.6 5.3-.6 33.1-42.2 26.4-39.4 28.6-44.6 29.3-46.3 7.3-17 12-34.3 14.1-51 1.1-8.6.2-16.4-.7-24l-.4-2.9c6 5 11.5 12.1 16.6 18.7l3.6 4.7c41.5 52.8 18.7 114-12 172.4-28 52.9-87.5 101.4-148.4 120.8-21 6.7-42.2 9.9-63 9.9zm-115.7-452.7l-15.3 9.2c-14.2 9.2-25 21.3-35.3 32.9-6 6.6-11.5 12.9-17.6 18.5-68.6 63.8-73.9 183.5-39.5 257.8 56.3 121.4 176.5 180.4 292.5 143.4 65.5-20.8 129.8-73.3 160-130.5 32.2-61.2 58.7-132.1 10-194l-3.4-4.5c-10-13-22.2-29.3-41.3-32.3l-10.3-1.6-1.2 10.4c-.9 7.8 0 15.1.8 22.2.8 6.6 1.6 12.9.8 19a172 172 0 0 1-12.7 45.8c-2.5 5.8-30.6 47.8-44.8 68.6l-.9-1.3a161.8 161.8 0 0 0-45-49.9c-31-25.5-66.4-54.4-61.8-95.6l2.2-19.6-17.1 9.8c-14.5 8.3-19 23-22.7 34.6l-1.4 4.8c-4 18.7-15.2 31.9-27.4 32h-.2c-15.7 0-29.2-21.1-29.4-46.2-.1-15.8 5-30.5 13.6-39.4l5-5-3.2-6.4c-6.2-12.6-16.5-25-31.4-38l-3.7-3.1c-9.2-7.8-17.8-15.2-18.4-25l-.9-16.6M1124.4 1283a7.4 7.4 0 0 0 2.7 9.7c3.3 1.9 7.4.5 9.2-3 11.3-22.7 31-22.7 32.6-22.7h.1c3.7 0 6.8-3.1 6.9-7.1 0-4-3-7.3-6.6-7.3h-.3-.3c-4.5 0-29.8 1.5-44.3 30.4"/><path d="M1142.5 1486.4s1.6 1 4.7 2.3c3.2 1.3 7.8 2.9 13.1 3.8a46.8 46.8 0 0 0 37.4-8.8 63 63 0 0 0 10.2-10 7 7 0 0 1 10.8 8.9c-4 5-8.2 8.9-12.5 12.2-34.5 25.7-70.4 3.8-70.9 3.6a7 7 0 0 1-.6-11.6 7 7 0 0 1 7.8-.4"/></g><path d="M1167.6 1442.3c-1.3-1.7-4.1-1.8-6.3-.1-2.1 1.6-2.8 4.3-1.5 6 1.3 1.7 4.1 1.8 6.3.2 2.1-1.7 2.8-4.4 1.5-6.1M1322.3 359.5h-35.6V-898.4h67.7l35.6 27.5V359.6h-67.7" fill="#fff"/><path d="M1296.6-888.3h54.3l29 22.3V349.5h-83.3zm61.1-20h-81.1V369.6h123.3V-875.8l-42.2-32.5" fill="#d6d6d6"/><path d="M1931.6 359.5h-67.7V-870.9l35.6-27.4h67.7V359.5h-35.6" fill="#fff"/><path d="M1903-888.3h54.3V349.6H1874V-866zm74.3-20h-81.1l-42.2 32.5V369.6h123.3v-1278" fill="#d6d6d6"/><path d="M1240.3 349.6h773.3v112.8h-773.3z" fill="#fbfbfb"/><path d="M1250.3 359.6h753.3v92.8h-753.3zm763.3-20h-773.3a10 10 0 0 0-10 10v112.8a10 10 0 0 0 10 10h773.3a10 10 0 0 0 10-10V349.6a10 10 0 0 0-10-10" fill="#d6d6d6"/><path d="M1159 449.3h936V529h-936z" fill="#fff"/><path d="M1169 459.3h916V519h-916zm936-20h-956V539h956v-99.6" fill="#d6d6d6"/><path d="M1616.2 550.3c0 11.8-12.8 21.4-28.5 21.4h-365.8c-15.7 0-28.5-9.6-28.5-21.4 0-11.8 12.8-21.4 28.5-21.4h365.9c15.6 0 28.5 9.6 28.5 21.4" fill="#fff"/><path d="M1221.9 561.7c-10.6 0-18.5-6-18.5-11.4s8-11.4 18.5-11.4h365.9c10.5 0 18.5 6 18.5 11.4s-8 11.4-18.5 11.4zm365.9-42.8h-365.9c-21.2 0-38.5 14-38.5 31.4 0 17.3 17.3 31.4 38.5 31.4h365.9c21.2 0 38.5-14.1 38.5-31.4 0-17.3-17.3-31.4-38.5-31.4" fill="#d6d6d6"/><path d="M1865.9 893.9c-9.3 7.2-24.8 3-34.4-9.4l-224.4-289c-9.6-12.3-9.9-28.4-.6-35.6 9.3-7.2 24.8-3 34.4 9.4l224.5 289c9.6 12.3 9.8 28.4.6 35.6" fill="#fff"/><path d="M1855.1 887.4c-4.7 0-11-3-15.7-9l-224.4-289a24 24 0 0 1-5.3-13.8c0-2 .3-5.7 3-7.8 4.2-3.3 13.8-.7 20.3 7.7l224.4 288.9c6.5 8.3 6.7 18.3 2.4 21.6a7.5 7.5 0 0 1-4.7 1.4zm-237.9-341c-6.1 0-12 1.8-16.9 5.6a29.1 29.1 0 0 0-10.6 24c.1 8.9 3.5 18 9.5 25.7l224.4 288.9c13 16.8 34.7 21.8 48.4 11.2 13.7-10.7 14.2-33 1.2-49.7l-224.4-289a41.2 41.2 0 0 0-31.6-16.6M1168.3 1427.3c-7.5 0-13.6 6.1-13.6 13.6a13.7 13.7 0 0 0 27.2 0c0-7.5-6.1-13.6-13.6-13.6" fill="#d6d6d6"/></g></g><g fill="#e2e2e2"><path d="M324 149v7.3c-.5-.2-1-.8-1.2-1.7-.3.2-.8.2-1.2 0a5.4 5.4 0 0 1-5 3.7c-1.7 0-2.8-.8-3.5-2.5l.8-.8-.6-.6c-.5.6-1.7 1.5-2.6 1.5-1 0-2-1-2-2.6l.2-1.4h.3c1.2 0 2.3-.5 2.9-1.4l-.7-.5c-1.1 1.8-4.7 1.5-4.7-1.2 0-1.3 1-2.6 2-3.7l1.3.6.3-.8c-.5-.2-1-.4-1.3-.7a3.4 3.4 0 0 1-1.5-2.6c0-2 1.6-3.7 6.2-2.6l.2-.8c-.6-.2-1.5-.4-2.3-.4-1-1-1.5-2.3-1.5-3.6 0-2.2 1.5-4.3 3.8-5.1.7 1.3 1.7 2.8 1.9 4.6H318.2l.6.6c.7 1 1.5 2 2.8 2 1.3 0 2-1 2.5-2.2v10l-.2.1c0 .5-.5 1.4-1.1 1.4-.8 0-1.2-.6-1.7-1.6-.5-.9-1-1.9-2.3-1.9-.9 0-1.8.6-2.1 1.4-.1.2 0 .5.2.5.2.1.4 0 .5-.2.2-.5.8-.9 1.4-.9.7 0 1 .6 1.6 1.5.5 1 1 2 2.4 2 .5 0 1-.3 1.3-.6v2.4c-1.9-.2-3.8.2-5.4 2.5a.4.4 0 1 0 .7.5c1.3-2 3-2.3 4.7-2.2"/><path d="M324.2 154.7h-1.1v-1.2h1.1zm0 2.2h-1.1v-1.1h1.1zm0 2.3h-1.1V158h1.1zm0 2.3h-1.1v-1.2h1.1zm0 2.2h-1.1v-1.1h1.1zm0 2.3h-1.1v-1.1h1.1zm0 2.3h-1.1V167h1.1zm0 2.2h-1.1v-1h1.1zm0 2.3h-1.1v-1.1h1.1zm0 2.3h-1.1v-1.2h1.1zm0 2.2h-1.1v-1h1.1zm0 2.3h-1.1v-1.1h1.1v1.1M340.2 145.1c1 1.1 2 2.4 2 3.7 0 2.6-3.5 3-4.6 1.2l-.7.5c.5.9 1.6 1.5 2.8 1.5h.3l.2 1.3c0 1.6-1 2.6-2 2.6-.4 0-.9-.1-1.4-.4l.4-2h-.8c-.3 2.6-1.4 4.8-4.1 4.8a5.4 5.4 0 0 1-5-4c-.4.3-.8.4-1.2.2-.2 1-.7 1.5-1.2 1.8V149h.8c2 .4 4 .7 4.7-1.7 0-.2 0-.5-.3-.5-.2 0-.4 0-.5.3-.5 1.6-1.6 1.5-3.7 1.2l-1-.2V141c.9-.2 1.2-1.2 1.5-2.1.5-1.2.8-2 1.5-2 .3 0 1.2 0 1.2 1.7v.4c0 .2.1.4.4.4s.4-.1.4-.3v-.5c0-1.6-.7-2.4-2-2.4-1.4 0-1.9 1.3-2.2 2.4-.3.7-.5 1.3-.8 1.5v-11.7l.3-.8c.1-.6.2-.9 1-.9s1.4.4 1.7 1.1c0 .2.3.3.5.3.3-.1.4-.4.3-.6-.4-1-1.4-1.6-2.5-1.6-.7 0-1 .2-1.3.4v-1.1c.6-1.1 1.3-1.7 2-1.7.5 0 .8.4 1.2.8.4.5.9 1.1 1.6 1.1l1-.3c.5-.3 1.2-.7 2-.7 1.3 0 2.3 1.4 2.3 2.5 0 3-2.1 2.3-2.7 6.7l.9.1c.1-1.6 1-3 1.6-4.2l.2-.4c2.3.8 3.8 2.9 3.8 5.1 0 1.3-.5 2.6-1.4 3.6-1 0-1.8.2-2.3.4l.1.8c4.8-1.1 6.2.6 6.2 2.6 0 1-.5 2-1.4 2.6-.4.3-.9.6-1.3.7l.2.8 1.3-.6M324 128.5v3.6l-.3.8c-.5 1.2-1 2.5-2 2.5s-1.6-.8-2.3-1.6l-.6-.7-.6.5h-1.6c-.4-3-5.4-9.2-.3-9.2.7 0 1.5.4 2 .7l1 .3c.6 0 1.1-.6 1.5-1 .4-.5.8-.9 1.2-.9.7 0 1.4.6 2 1.7v3.3"/></g><g><path d="M1069.4 219.7v-2.6h2.7v2.6h-2.6zm8 .2l-2.7-.1V217l2.8.1zm-13.2 0l-.2-2.6 2.7-.2.1 2.7-2.6.1zm18.4.3l-2.6-.2.2-2.6c.9 0 1.8 0 2.7.2zm-23.7.2l-.3-2.7 2.7-.2.2 2.6-2.6.3zm29 .4l-2.7-.3.3-2.7 2.7.4zm-34.2.2l-.4-2.6 2.7-.4.3 2.7c-.9 0-1.7.2-2.6.3zm39.4.6l-2.4-.4h-.2l.4-2.6h.2l2.4.4zm-44.6.3l-.5-2.6 2.6-.5.5 2.7-2.6.4zm49.7.8l-2.5-.6.5-2.6 2.6.6zm-54.9.4l-.6-2.6 2.6-.6.6 2.6-2.6.6zm60 .8l-2.5-.6.6-2.6 2.7.6zm-65 .5l-.8-2.5 2.6-.8.7 2.6-2.5.7zm70.1 1l-2.5-.8.8-2.5 2.5.7zm-75.1.6l-1-2.5 2.6-.8.9 2.5-2.5.8zm80.2 1l-2.5-.8.8-2.5 2.6.9zm-85.2.8l-1-2.4 2.6-1 .9 2.5-2.5 1zm90 1.2l-2.4-1 1-2.5 2.5 1zm-94.8.9l-1.1-2.5 2.5-1 1 2.4-2.4 1zm99.7 1.2l-2.4-1 1-2.5 2.5 1.1zm-104.5 1l-1.2-2.3 2.4-1.2 1.2 2.4-2.4 1.1zm109.3 1.4l-2.4-1.2 1.2-2.4 2.4 1.2zm-113.9 1.1l-1.3-2.3 2.3-1.3 1.3 2.4-2.3 1.2zm118.5 1.4l-2.3-1.3 1.3-2.3 2.3 1.3zm-123 1.4l-1.4-2.3 2.3-1.4 1.3 2.3-2.2 1.4zm127.5 1.4l-2.2-1.4 1.3-2.3 2.3 1.4zm-131.9 1.5l-1.5-2.2 2.2-1.5 1.5 2.2-2.2 1.5zm136.3 1.4l-2.2-1.5 1.5-2.2 2.2 1.6zm-140.5 1.7l-1.6-2 2.1-1.7 1.6 2.1-2 1.6zm144.7 1.5l-2.1-1.6 1.6-2.2 2.1 1.7zM997 246.8l-1.8-2 2-1.8 1.8 2-2 1.8zm152.8 1.4l-2-1.7 1.6-2 2.1 1.7zM993 250.3l-1.8-1.9 2-1.8 1.7 2-1.9 1.7zm160.6 1.5l-2-1.8 1.8-2 2 1.8zM989.4 254l-2-1.8 2-2 1.9 1.9-1.9 1.9zm168 1.4l-1.8-2 1.9-1.8 1.9 2zM986 258l-2-1.7c.5-.7 1-1.4 1.7-2l2 1.7-1.7 2zm175 1.4l-1.7-2 2-1.8 1.7 2zM982.7 262l-2.1-1.5 1.6-2.2 2.1 1.7-1.6 2zm181.4.9l-1.4-1.6 2-1.7 1.4 1.6zm-184.4 3.4l-2.2-1.4 1.5-2.3 2.2 1.6-1.5 2.1zm-2.8 4.5l-2.3-1.3 1.4-2.4 2.3 1.5-1.4 2.2M1178.5 286.5a13.3 13.3 0 1 1 0-26.7 13.3 13.3 0 0 1 0 26.7" fill="#eee"/><path d="M1180.4 270c-.6-.5-1-.7-1.8-.7-.9 0-1.4.4-1.4 1.2 0 1.8 4.2 1.5 4.2 4.6 0 1.5-.8 2.5-2.4 2.8v1.6h-1.2V278c-1-.1-2-.6-2.7-1.2l.8-1.2c.8.6 1.5 1 2.3 1 1 0 1.5-.6 1.5-1.4 0-2-4.2-1.7-4.2-4.6 0-1.5 1-2.5 2.3-2.7v-1.6h1.2v1.5c1 .2 1.7.6 2.3 1.2l-1 1" fill="#fff"/></g><g><path d="M953.2 63.4a13.3 13.3 0 1 1 0-26.7 13.3 13.3 0 0 1 0 26.7" fill="#eee"/><path d="M955.2 47c-.6-.6-1-.9-1.8-.9s-1.4.4-1.4 1.2c0 1.9 4.2 1.5 4.2 4.7 0 1.4-.8 2.5-2.4 2.8v1.6h-1.2v-1.6c-1 0-2-.5-2.7-1.1l.8-1.3c.8.6 1.5 1 2.3 1 1 0 1.5-.5 1.5-1.3 0-2-4.2-1.8-4.2-4.7 0-1.4 1-2.4 2.3-2.7v-1.5h1.2v1.5c1 .1 1.7.6 2.3 1.2l-1 1" fill="#fff"/></g><path d="M557.9 237.3h-2.7v-1h2.7zm0 5.3h-2.7V240h2.7zm0 5.4h-2.7v-2.7h2.7zm0 5.3h-2.7v-2.7h2.7zm0 5.3h-2.7V256h2.7zm0 5.4h-2.7v-2.7h2.7zm0 5.3h-2.7v-2.7h2.7zm0 5.3h-2.7V272h2.7zm0 5.4h-2.7v-2.7h2.7zm0 5.3h-2.7v-2.7h2.7zm0 5.3h-2.7V288h2.7zm0 5.4h-2.7v-2.7h2.7v2.7" fill="#efefef"/><g fill="#eee"><path d="M556.5 198.6a25.4 25.4 0 1 0 0 50.7 25.4 25.4 0 0 0 0-50.7zm0 53.3a28 28 0 1 1 .1-56 28 28 0 0 1 0 56"/><path d="M560.2 214zm-8.2 3.2zm11.8 1.6l-.9 1.1 1-1.1zM553.6 208a4.8 4.8 0 0 0-4.3 2.7 12.7 12.7 0 0 0-.3 10.4l.1-.5.2-.3a7 7 0 0 0 .5-2c0-.7.4-1.1.7-1.3.6-.5 1.3-.2 1.7-.1l.7-.5c1.2-1 4.9-3.7 5.3-4.2.4-.4 1-.6 1.5-.4 1.2.3 3 3 3.9 5v-2.4c.1-3.7-1.8-4.4-3.1-5-.7-.3-1.3.2-1.4.2-.5.4-1.2.3-1.7 0a5.7 5.7 0 0 0-3.8-1.6zm-3.4 17.5c-.7 0-1.6-.3-2.6-1.5-1.8-2.3-3.7-8.3-.7-14.5 1.1-2.2 3-3.7 5.4-4a8 8 0 0 1 6.2 1.5 4 4 0 0 1 3 0c1.5.6 5 2 4.7 7.5l.1 2.5c.2.3.2.6.2 1 0 1.7-2 3.1-3.3 3.1-.5 0-.8-.2-1-.3-.6-.5-.6-1.2-.6-1.5v-.3a14 14 0 0 0-2.3-4.2l-4.8 3.7-.9.7c-.4.3-.9.4-1.3.4l-.6 1.7v.3 2.4c0 .6-.4 1.3-1 1.4h-.5"/><path d="M556.6 230c-1.6 0-3.2-.7-4.7-2l-.9-.8-1.8-2.3 2.3-1.4a11.6 11.6 0 0 0 2 2.5c1.2 1 2.4 1.4 3.5 1.3 1-.1 1.8-.7 2.6-1.8 1-1.3 1.7-3.3 2.1-5.9l1.3.2h1.3v.2c-.4 3-1.3 5.4-2.5 7.1a6.5 6.5 0 0 1-5.2 2.9"/><path d="M543.5 233.8zm28 3.2h-29.6a1.3 1.3 0 0 1-1.4-1.3c0-.4.1-2.5 1-3.7.7-.6 2.1-1.2 6.6-2.8l1.7-.6 1.5-.6v-.8l2.7-.1c0 .6 0 1.9-.5 2.6-.2.3-.5.5-.8.6l-2 .8-1.7.6-5.4 2-.2.7h26.5c0-.3 0-.5-.2-.6-.6-.4-3.6-1.5-5.4-2-3.7-1.4-4-1.6-4.4-2.1-.2-.2-.6-.9-.5-3.4l2.6.1v1.6l3.2 1.2c4.5 1.6 6 2.2 6.5 2.8 1 1.2 1 3.3 1 3.7a1.3 1.3 0 0 1-1.2 1.3"/><path d="M554.4 236.3l-3.4-6.6 2.3-1.2 3.5 6.6-2.4 1.2M560.3 236l-2.5-.6 1.9-6.8 2.5.7-1.9 6.8"/></g><g><path d="M199.4 206.6c0-2-.3-4-1-5.7l-5-.2 2-5a16.7 16.7 0 0 0-4.3-3.5l-4.4 3.4-1.6-5.5a16.8 16.8 0 0 0-5.4.2l-1.3 5.6-4.8-3.1c-1.5 1-2.9 2.3-4 3.7l2.6 5-5.4.7a16.5 16.5 0 0 0-.5 5.6l4.8 2-3.4 3.6c.9 1.9 2 3.5 3.4 4.9l4.5-1.4-.2 4.5c1.7.9 3.7 1.5 5.8 1.7l2.3-3.7 2.7 3.4c2-.4 4-1.2 5.6-2.3l-.5-4.3 4.3 1c1.3-1.5 2.3-3.3 3-5.2l-3.5-3.2 4.3-2.2" fill="#fff"/><path d="M176.8 220.6c1.2.5 2.5.9 3.8 1l2.9-4.5 3.2 4.3c1.3-.4 2.6-.9 3.7-1.5l-.7-5.4 5.4 1.2c.8-1 1.4-2.1 2-3.4l-4.2-3.8 5.2-2.7c0-1.2-.2-2.4-.6-3.6l-6-.3 2.4-5.9-2.6-2.2-5.2 4-2-6.4h-3.3l-1.5 6.7-5.6-3.7c-1 .7-1.7 1.5-2.4 2.3l3 6-6.3.7c-.3 1-.4 2.1-.4 3.2v.3l5.8 2.4-4 4.4c.6 1.1 1.3 2.1 2.1 3l5.6-1.7zm5.1 4l-.8-.2c-2.2-.2-4.3-.8-6.3-1.8l-.8-.4.2-3.5-3.4 1.1-.6-.6a17.9 17.9 0 0 1-3.6-5.2l-.4-.8 2.7-2.9-3.8-1.6v-.8a18.6 18.6 0 0 1 .5-6l.2-.9 4.4-.5-2.1-4 .5-.8a18 18 0 0 1 4.3-4l.7-.5 4 2.6 1-4.6.8-.2c2-.4 3.9-.5 5.9-.2l.8.1 1.4 4.5 3.6-2.8.8.5a18 18 0 0 1 4.6 3.8l.5.6-1.6 4 4 .1.3.9c.8 2 1.1 4 1.1 6v1l-.7.3-2.6 1.4 2.6 2.4-.2.8c-.8 2-1.8 4-3.2 5.7l-.6.6-3.2-.7.4 3.2-.7.5c-1.9 1.2-4 2-6.1 2.5l-.9.1-2-2.6-1.7 2.8" fill="#d6d6d6"/><path d="M178.2 206.5a4.6 4.6 0 1 1 9.2 0 4.6 4.6 0 0 1-9.2 0" fill="#fff"/><path d="M183 203.3a3.3 3.3 0 1 0 0 6.5 3.3 3.3 0 0 0 0-6.5zm0 9.2a6 6 0 1 1 0-11.9 6 6 0 0 1 0 11.9" fill="#d6d6d6"/></g><g><path d="M442.1 253.7h-21.6a1.3 1.3 0 1 1 0-2.6h21.6a1.3 1.3 0 1 1 0 2.6M442.1 260.7h-15a1.3 1.3 0 1 1 0-2.7h15a1.3 1.3 0 1 1 0 2.7" fill="#eee"/><path d="M471.2 258l-20.6-15.8h41.3l-20.7 15.7" fill="#fff"/><path d="M454.5 243.5l16.8 12.8 16.7-12.8zm16.8 15.8c-.3 0-.6-.1-.8-.3l-20.7-15.8a1.3 1.3 0 0 1 .8-2.4H492a1.3 1.3 0 0 1 .8 2.4L472.1 259l-.8.3" fill="#eee"/><path d="M471.2 258l20.7-15.8v25.7h-41.3v-25.7l20.6 15.7" fill="#fff"/><path d="M451.9 266.5h38.6V245L472 259c-.5.4-1.1.4-1.6 0L451.9 245zm40 2.7h-41.4c-.7 0-1.3-.6-1.3-1.3v-25.7a1.3 1.3 0 0 1 2.2-1l19.8 15 19.8-15c.5-.4 1-.4 1.4-.2.5.2.8.7.8 1.2v25.7c0 .7-.6 1.3-1.3 1.3" fill="#eee"/><path d="M471.2 252L450.6 268h41.3L471.2 252" fill="#fff"/><path d="M454.5 266.5H488l-16.7-12.7zm37.4 2.7h-41.3a1.3 1.3 0 0 1-.8-2.4l20.7-15.8c.4-.3 1-.3 1.6 0l20.6 15.8a1.3 1.3 0 0 1-.8 2.4" fill="#eee"/></g><path d="M1432.9 215.4a27.4 27.4 0 0 1-43-16l22.7-5c.2.5.5 1.2.9 1.7a4 4 0 0 0 5.5.6l13.9 18.7" fill="#fff"/><path d="M1404.8 232.5h-2.7v-2.7h2.7zm0 5.3h-2.7v-2.7h2.7zm0 5.3h-2.7v-2.6h2.7zm0 5.4h-2.7v-2.7h2.7zm0 5.3h-2.7v-2.7h2.7zm0 5.3h-2.7v-2.6h2.7zm0 5.4h-2.7v-2.7h2.7zm0 5.3h-2.7v-2.7h2.7zm0 5.3h-2.7v-2.6h2.7zm0 5.4h-2.7v-2.7h2.7zm0 5.3h-2.7V283h2.7zm0 5.3h-2.7v-2.6h2.7zm0 5.4h-2.7v-2.7h2.7zm0 5.3h-2.7V299h2.7zm0 4h-2.7v-1.3h2.7v1.3" fill="#efefef"/><g><path d="M1404.5 227a20.4 20.4 0 0 0-20.2 23.6l8-1.8a12.2 12.2 0 0 1 18.3-12l4.9-6.7c-3.3-2-7.1-3.2-11-3.2zm-22.3 26.8l-.3-1.3a23.1 23.1 0 0 1 36.3-23.8l1 .8-8 11-1-.8a9.6 9.6 0 0 0-14.7 4.5 9.6 9.6 0 0 0-.3 5.3l.3 1.3-13.3 3" fill="#e2e2e2"/><path d="M1426.4 246.5a21.8 21.8 0 0 1-9 18.6l-6.4-8.8a11 11 0 0 0 4.5-9.3l10.9-.5" fill="#fff"/><path d="M1412.8 256.5l4.8 6.7a20.4 20.4 0 0 0 7.4-15.3l-8.3.3a12.2 12.2 0 0 1-4 8.3zm4.3 10.4l-8-11 1-.7a9.6 9.6 0 0 0 4-8.2v-1.3l13.5-.6v1.3a23 23 0 0 1-9.5 19.8l-1 .7" fill="#e2e2e2"/><path d="M1420.9 225.5a27.4 27.4 0 0 1 11 20.4l-23.4 1.3a4 4 0 0 0-1.6-3l14-18.7" fill="#fff"/><path d="M1408.8 244l.9 1.8 20.8-1.1a26.2 26.2 0 0 0-9.3-17.3zm-1.4 4.6l-.1-1.3a2.7 2.7 0 0 0-1.1-2l-1-.8 15.5-20.9 1 .8a28.8 28.8 0 0 1 11.5 21.5l.1 1.3-26 1.4" fill="#e2e2e2"/><path d="M1421.6 231.4a23.4 23.4 0 0 1 5.7 10.7l-14.3.8 8.6-11.5" fill="#fff"/><path d="M1379.4 254.3a26.2 26.2 0 0 0 39.6 14.8l-12.4-16.7a5.4 5.4 0 0 1-6.1-1.5l-.8-1zm25.2 21.9a28.8 28.8 0 0 1-28.1-22.6l-.3-1.3 25.4-5.6.3 1.3a2.7 2.7 0 0 0 4.3 1.6l1-.8 15.5 21-1 .7a28.9 28.9 0 0 1-17.1 5.7" fill="#e2e2e2"/><path d="M1394.6 268.6a23.2 23.2 0 0 1-11.7-12.3l15.6-3.4a8 8 0 0 0 7 2.6l9.4 12.8a23.4 23.4 0 0 1-20.3.3" fill="#fff"/></g><path d="M1127.5 164.6h-2.6v-3.3h2.6zm0 6.7h-2.6V168h2.6zm0 6.6h-2.6v-3.3h2.6zm0 6.7h-2.6v-3.3h2.6zm0 6.7h-2.6v-3.4h2.6zm0 6.6h-2.6v-3.3h2.6zm0 6.7h-2.6v-3.4h2.6zm0 6.6h-2.6V208h2.6zm0 6.7h-2.6v-3.3h2.6zm0 6.6h-2.6v-3.3h2.6zm0 6.7h-2.6v-3.3h2.6zm0 6.7h-2.6v-3.4h2.6zm0 6.6h-2.6v-3.3h2.6zm0 6.7h-2.6v-3.4h2.6zm0 6.6h-2.6v-3.3h2.6zm0 6.7h-2.6v-3.3h2.6zm0 6.6h-2.6v-3.3h2.6zm0 6.7h-2.6v-3.3h2.6zm0 6.7h-2.6V281h2.6zm0 6.6h-2.6v-3.3h2.6zm0 6.7h-2.6v-3.4h2.6zm0 6.4h-2.6V301h2.6v3" fill="#ededed"/><g><path d="M1147.5 250.6c0 2.5-1.6 4.6-3.7 4.6h-33.5c-2 0-3.7-2-3.7-4.6V174c0-2.6 1.7-4.6 3.7-4.6h33.5c2 0 3.7 2 3.7 4.6v76.6" fill="#fff"/><path d="M1110.3 171c-1.3 0-2.4 1.4-2.4 3v76.6c0 1.6 1.1 3 2.4 3h33.5c1.3 0 2.4-1.4 2.4-3V174c0-1.6-1.1-3-2.4-3zm33.5 85.9h-33.5c-2.8 0-5-2.9-5-6.3V174c0-3.5 2.2-6.3 5-6.3h33.5c2.8 0 5 2.8 5 6.3v76.6c0 3.4-2.2 6.3-5 6.3" fill="#ededed"/><path d="M1111.3 242.5h31.8v-62h-31.8z" fill="#fff"/><path d="M1112.6 240.9h29.1v-58.7h-29.1zm31.8 3.3H1110V179h34.5v65.3M1120.7 250.5h12.8v-3.3h-12.8z" fill="#ededed"/></g><g><path d="M1618.8 218.6a13.3 13.3 0 1 1 0-26.7 13.3 13.3 0 0 1 0 26.7" fill="#fff"/><g fill="#e2e2e2"><path d="M1618.8 193.2a12 12 0 1 0 0 24 12 12 0 0 0 0-24zm0 26.7a14.7 14.7 0 1 1 0-29.4 14.7 14.7 0 0 1 0 29.4"/><path d="M1620.8 202.1c-.6-.5-1-.8-1.8-.8s-1.3.4-1.3 1.2c0 1.9 4.2 1.5 4.2 4.6 0 1.5-.9 2.6-2.4 2.9v1.6h-1.2V210c-1 0-2-.5-2.7-1.2l.8-1.2c.7.6 1.4 1 2.3 1 1 0 1.5-.5 1.5-1.3 0-2-4.2-1.8-4.2-4.7 0-1.4.9-2.4 2.3-2.7v-1.6h1.2v1.6c1 .1 1.7.6 2.2 1.2l-.9 1"/></g></g><g fill="#e2e2e2"><path d="M510.6 274.6a12 12 0 1 0 0 24 12 12 0 0 0 0-24zm0 26.7a14.7 14.7 0 1 1 0-29.4 14.7 14.7 0 0 1 0 29.4"/><path d="M512.6 283.5c-.5-.5-1-.8-1.8-.8s-1.3.4-1.3 1.2c0 1.9 4.2 1.5 4.2 4.6 0 1.5-.9 2.5-2.4 2.8v1.6h-1.2v-1.5c-1-.1-2-.6-2.7-1.2l.8-1.2c.7.6 1.4 1 2.3 1 1 0 1.5-.5 1.5-1.4 0-2-4.2-1.7-4.2-4.6 0-1.5.9-2.5 2.3-2.7v-1.6h1.2v1.5c1 .2 1.7.6 2.2 1.2l-.9 1"/></g><g><path d="M42.6 171a13.3 13.3 0 1 1 0-26.6 13.3 13.3 0 0 1 0 26.7" fill="#fff"/><g fill="#d6d6d6"><path d="M42.6 145.7a12 12 0 1 0 0 24 12 12 0 0 0 0-24zm0 26.7a14.7 14.7 0 1 1 0-29.4 14.7 14.7 0 0 1 0 29.4"/><path d="M44.6 154.6c-.6-.5-1-.8-1.8-.8s-1.3.4-1.3 1.2c0 1.9 4.2 1.5 4.2 4.6 0 1.5-1 2.6-2.4 2.9v1.6H42v-1.6c-1 0-2-.5-2.6-1.2l.8-1.2c.7.6 1.4 1 2.2 1 1 0 1.5-.5 1.5-1.3 0-2-4.2-1.8-4.2-4.7 0-1.4 1-2.4 2.3-2.7v-1.6h1.3v1.6c1 .1 1.6.6 2.2 1.2l-1 1"/></g></g><g><path d="M406.9 187.6c-1.5 0-2.9.6-4 1.4-3.3 2.7-4.5 8.6-.7 13.8 1.5 2 3.6 3.3 5.8 4.6 2.6 1.6 5.4 3.4 7.5 6.4 2.1-3 5-4.8 7.5-6.4 2.2-1.3 4.3-2.6 5.8-4.6 3.8-5.2 2.6-11.1-.8-13.8-2.4-2-6.5-2.4-10.7 2.4l-.7 1-1 1.5-1.2-1.6a11 11 0 0 0-.7-1c-2.4-2.7-4.7-3.7-6.8-3.7zm8.6 31.8l-1.2-2.4c-1.8-3.7-4.7-5.4-7.7-7.3-2.3-1.4-4.7-3-6.5-5.3-4.8-6.5-3.1-14 1.2-17.5 3.3-2.6 9-3.4 14.2 2.5 5.3-6 11-5 14.2-2.5 4.4 3.5 6 11 1.2 17.5-1.7 2.4-4.1 3.9-6.5 5.3a18 18 0 0 0-7.7 7.3l-1.2 2.4" fill="#cacaca"/><path d="M415.5 191.6c-.2-.4-.5-.8-.8-1-9.7-11.3-21.5 2-13.5 13 3.7 5 10.8 5.8 14.3 12.8 3.5-7 10.6-7.7 14.4-12.8 8-11-3.9-24.3-13.6-13-.3.2-.5.6-.8 1" fill="#fff"/><path d="M415.5 214.1c2.1-3.1 5-5 7.6-6.5 2.2-1.4 4.4-2.7 5.8-4.7 4-5.3 2.7-11.3-.7-14a6.4 6.4 0 0 0-5.7-1.2c4 2.8 5.9 9.7 1.4 15.9-2.7 3.6-7 5-10.5 8a16 16 0 0 1 2.1 2.5" fill="#efefef"/></g><g><path d="M131.4 252.6a21.7 21.7 0 1 1-43.3 0 21.7 21.7 0 0 1 43.3 0" fill="#eee"/><path d="M109.7 232.3a20.4 20.4 0 1 0 0 40.7 20.4 20.4 0 0 0 0-40.7zm0 43.3a23 23 0 1 1 0-46 23 23 0 0 1 0 46" fill="#e1e1e1"/><path d="M109.6 263.1l-9.7-8 2.5-3 6.2 5 8-13 3.5 2-10.5 17" fill="#fff"/></g><g><g fill="#e1e1e1"><path d="M208.7 280.6c.3.4 1 .6 1.4.3a1 1 0 1 0-1.4-.3M224.2 268v-.2c.5-.6 1.3-.8 2-.4l-.3-2h.3l.2 2.1 1.5 1.2.2.1h2v.2h-1.8a1.5 1.5 0 0 1-.2 1.9l-.2-.3c.5 1.3.4 2.7-.2 4a9.5 9.5 0 0 0-4.6-4.7l-2.3-1c1-.8 2.2-1.1 3.4-1"/><path d="M211 275.2c-1.5 2.3-2.2 5-2 7.2.1 1.7.7 3.9 3 5.3a8.4 8.4 0 0 0 6.7.6c2.5-.8 4.7-2.5 6-4.6 1.7-2.6 2.4-4.9 2.2-6.8-.1-2.2-1.5-4-4-5.6-5-3-8.4-2-12 3.9zm4.9 16.2c-2 0-3.8-.5-5.3-1.5a9.1 9.1 0 0 1-4.3-7.3c-.2-2.9.6-6 2.3-8.8 2.8-4.5 7.4-9.8 15.6-4.8 3.3 2 5.2 4.6 5.4 7.7a14 14 0 0 1-2.6 8.4 13.4 13.4 0 0 1-11.1 6.3"/><path d="M214.1 275.4a1.1 1.1 0 1 0 2 1.1 1.1 1.1 0 0 0-2-1.1M221.8 279.6a1.1 1.1 0 1 0 2 1.2 1.1 1.1 0 0 0-2-1.2M218.9 286.6a1.1 1.1 0 1 0 1.9 1.2 1.1 1.1 0 0 0-2-1.2M217.9 272.4a1 1 0 1 0 1.6-1 1 1 0 0 0-1.6 1M225.6 276.5a1 1 0 1 0 1.6-1 1 1 0 0 0-1.6 1M212 289.4l-2.1-1.6L223 270l2.1 1.6-13.2 17.7"/></g></g><g fill="#e1e1e1"><path d="M1552.6 267a1 1 0 1 1-1.6-1 1 1 0 0 1 1.6 1M1569.5 271.2a1 1 0 1 1-1.6-1 1 1 0 0 1 1.6 1M1559.4 277.1a1.1 1.1 0 0 1-2 1.2 1.1 1.1 0 0 1 2-1.2M1560.3 263a1 1 0 1 1-1.6-1 1 1 0 0 1 1.6 1M1554 258.5v-.1c-.4-.6-1.2-.8-1.9-.4l.2-2h-.2l-.2 2-1.6 1.2-.1.2h-2v.2h1.7a1.5 1.5 0 0 0 .3 1.9l.2-.3c-.5 1.3-.5 2.7.2 4a9.5 9.5 0 0 1 4.6-4.7c.8-.5 1.5-.8 2.2-1-1-.8-2.1-1.1-3.3-1"/><path d="M1560.3 260.2c-1.4 0-3 .6-4.8 1.7-2.6 1.6-3.9 3.4-4 5.6-.2 1.9.5 4.2 2.1 6.8 1.3 2.1 3.5 3.8 6 4.5 2.5.8 5 .5 6.8-.6 4-2.4 3.6-8.2 1-12.4-2.3-3.8-4.5-5.6-7-5.6zm2.2 21.7a13.4 13.4 0 0 1-11.2-6.3 14 14 0 0 1-2.5-8.3c.2-3 2-5.7 5.3-7.7 8.3-5 12.9.3 15.6 4.8 3.8 6 3 13.1-1.9 16.1-1.5 1-3.4 1.4-5.3 1.4"/><path d="M1564.2 266a1.1 1.1 0 1 1-2 1.1 1.1 1.1 0 0 1 2-1.2M1556.5 270.2a1.1 1.1 0 0 1-2 1.1 1.1 1.1 0 0 1 2-1.1M1566.3 280l-13.2-17.7 2.1-1.6 13.3 17.7-2.2 1.6"/></g><path d="M90.1 103.4h-2.6v-1.8H90zm0 3.5h-2.6V105H90zm0 3.5h-2.6v-1.8H90zm0 3.5h-2.6V112H90zm0 3.5h-2.6v-1.8H90zm0 3.5h-2.6V119H90zm0 3.5h-2.6v-1.8H90zm0 3.4h-2.6v-1.7H90zm0 3.5h-2.6v-1.7H90zm0 3.5h-2.6v-1.7H90zm0 3.5h-2.6v-1.7H90zm0 3.5h-2.6v-1.7H90zm0 3.5h-2.6v-1.7H90zm0 3.5h-2.6v-1.7H90zm0 3.5h-2.6v-1.7H90zm0 3.5h-2.6v-1.7H90zm0 3.5h-2.6v-1.7H90zm0 3.5h-2.6v-1.7H90zm0 3.5h-2.6v-1.8H90v1.8" fill="#cacaca"/></svg>