<svg xmlns="http://www.w3.org/2000/svg" width="44.5cm" height="9cm" viewBox="0 0 1681.89 340.16"><defs><clipPath id="a"><path d="M3273.87 227.08h1543.92v2027.45H3273.87z"/></clipPath><clipPath id="b"><path d="M366.96 227.08h1914.55V2262.6H366.96z"/></clipPath></defs><path d="M95.05 309.88a6.67 6.67 0 1 1 13.33 0 6.67 6.67 0 0 1-13.33 0M1537.35 309.88a6.67 6.67 0 1 1 13.33 0 6.67 6.67 0 0 1-13.33 0" fill="#fff"/><path d="M629.38 251.25a2.67 2.67 0 1 0 0 5.34 2.67 2.67 0 0 0 0-5.34zm0 8a5.34 5.34 0 1 1 .01-10.67 5.34 5.34 0 0 1-.01 10.67M889.09 287.62a2.67 2.67 0 1 0 0 5.34 2.67 2.67 0 0 0 0-5.34zm0 8a5.34 5.34 0 1 1 0-10.68 5.34 5.34 0 0 1 0 10.68M1042.27 197.13a4.67 4.67 0 1 0 .02 9.35 4.67 4.67 0 0 0-.02-9.35zm0 12a7.34 7.34 0 1 1 .02-14.68 7.34 7.34 0 0 1-.02 14.68M306.44 211.95a4.67 4.67 0 1 0 .01 9.35 4.67 4.67 0 0 0 0-9.35zm0 12a7.34 7.34 0 1 1 .02-14.68 7.34 7.34 0 0 1-.02 14.68M1358.86 103.83l3.45 3.45 3.45-3.45-3.45-3.45zm3.45 7.22l-7.22-7.22 7.22-7.22 7.22 7.22-7.22 7.22M688.4 293.62l3.44 3.45 3.45-3.45-3.45-3.45zm3.44 7.22l-7.22-7.22 7.22-7.22 7.22 7.22-7.22 7.22M787.75 287.95h2.67v-12h-2.67z" fill="#e4e4e4"/><path d="M783.09 283.29h12v-2.67h-12zM1512.85 192.87c-.62 0-1.21.21-1.75.64-1.63 1.3-2.19 4.18-.3 6.75.73 1 1.78 1.65 3 2.4 1.26.78 2.65 1.64 3.8 3.03 1.16-1.39 2.55-2.25 3.81-3.03 1.22-.75 2.27-1.4 3-2.4 1.89-2.57 1.33-5.45-.3-6.75-1.48-1.18-3.37-.72-5.05 1.23-.13.15-.25.3-.36.46l-1.09 1.59-1.1-1.58c-.1-.16-.23-.32-.36-.47-1.07-1.23-2.22-1.87-3.3-1.87zm4.76 18.24l-1.2-2.4c-.93-1.88-2.43-2.8-4.01-3.78-1.34-.82-2.71-1.67-3.75-3.1-2.84-3.86-1.83-8.32.79-10.4 2.03-1.63 5.28-1.9 8.17.97 2.88-2.86 6.12-2.6 8.17-.97 2.6 2.08 3.62 6.54.78 10.41-1.04 1.42-2.41 2.27-3.75 3.1-1.58.97-3.08 1.9-4.01 3.77l-1.2 2.4M1182.6 218.57c-.62 0-1.22.22-1.76.65-1.63 1.3-2.18 4.17-.3 6.75.74 1 1.79 1.65 3 2.4 1.27.78 2.66 1.64 3.81 3.02 1.15-1.38 2.54-2.24 3.8-3.02 1.23-.75 2.27-1.4 3-2.4 1.9-2.58 1.34-5.46-.29-6.75-1.48-1.18-3.37-.72-5.05 1.23-.13.15-.25.3-.36.46l-1.1 1.58-1.1-1.58c-.1-.15-.22-.3-.35-.46-1.07-1.24-2.22-1.88-3.3-1.88zm4.75 18.25l-1.2-2.4c-.93-1.88-2.42-2.8-4-3.78-1.34-.82-2.72-1.67-3.76-3.1-2.83-3.86-1.82-8.33.79-10.4 2.04-1.63 5.29-1.9 8.17.96 2.89-2.86 6.13-2.6 8.17-.97 2.62 2.08 3.62 6.55.79 10.41-1.04 1.43-2.42 2.28-3.75 3.1-1.58.98-3.08 1.9-4.02 3.78l-1.19 2.4M363.01 135.91c.2 0 .14 0 0 0M136.06 56.81h-.01c-2.12.07-.91 1.58.42 1.82 1.46.2 3.96 3.3 3.69-1.33-1.28-.96-2.72-.53-4.1-.49M141.7 57.94c0-.02-.02-.02-.03-.02l.03.02M159.9 119.34c-.98-.5.6.4 0 0" fill="#e4e4e4"/><g fill="#f0f0f0"><path d="M103.5 50.71c-2.91-2.19-7.63 1.32-1.78.92.44.08 3.01.3 1.78-.92zM108.33 56.5c-1.73 4.85 6.66-.55 0 0zM107.64 52.87c3.75 2.02 12.03 5.64 14.34 1.63-5.52 2.43-11.9-3.87-15.66-2.47z"/><path d="M163.16 147.57c-3.55-2.04-10.21-2.13-10.42-6.51-2.9-4.95-9.16-6.28-13.5-9.68-2.71-.61-6.68-.55-7.57.02-.42-5.73-14.1 8-11.54-3.56.82-4.65-7.62-.75-4.04-6.17.84-8.84-7.71 5.09-9.82-3.05-2.93-9.15 12.35-13.5 14.96-4.4 4.63-.89-1.84-8.6 4.27-10.52 2.25-3.68 3.01-8.55 7.69-8.9-.37-6.98 9.8 1.22 9.65-5.67-6.1 2.1-2.6-6.44 3.04-4.88-8 6.13 10.28 4.42 1.9.51-.51-1.08-.65-7.12-5.54-6.39-.74-7.9-7.83-1.88-11-7.4-5.4-4.7-8.25 3.08-4.8 6.28-3.4.45-1.31 9.24-4.72 2.81-2.24-3.72-15.38-3.19-8.93-10.08 3.72-3.94 5.77.63 9.72-1.72-4.94-.72 3.88-10.24 3.84-2.7-5.75 4.24 13.04 7.72 11.95 2.7 8.23-3.23-6.66-7.73-10.25-10.24-3.8-1.75-18.24-3.16-13.96 3.32 4.5 4.2-7.1-7.75-6.17.72-2.32-.46-5.29 1.69-9.44.65 6.15-.32 1.13-2.45.64-4.38-.83-4.48 11.04-3.3 3.47-5.16-4.9-2.2-2.52 6.76-5.66.95-4.53-3.24-15.98-2.82-15.54 1.05-7.82 2.75.95 5 2.8 4.99-7-.1-14.39 1.43-21.44.4-6.92-.4-14.37-2.91-20.92-.35-4.64-.34-5.36 2.78-1.63 4.33-3.87-2.04-5.76 3.97-1.76 3.57-5.67 4.66 10.2 5.86 2.06 9.14-3.67 4.35 6.63-1.68 9.27-.58 1.14-6.62 11.52-5.64 16.61-2.01 2.6 3.2 4.65 7.27 8.07 8.03 2.7 3.94 4.92 8.23 4.44 13.64 3.46 6.52 9.07 11.24 12.24 17.25 5.38-3.3 8.03 12.72 16.14 11.6 6.63.53 10.85 9.45 17.95 10.4.91 6.35-6.8 13.14-.22 19.55 2.3 7.47 11.4 10.92 7.8 20.06-1.53 7.27-3.24 13.84-3.93 20.93-3.36 5.33 2.97 16.22 8.6 11.43-7.7-1.97 1.36-6.76-.04-11.35.9-5.98 6.14-4.38 8.85-9.17-.84-4.46-2.2-4 1.76-2.46 6.44-4.08 7.4-13.23 14.96-16.49-.44-6.53 7.35-12.35 4.26-18.22-1.15-1.09-2.64-1.71-4.1-2.28M177.38 57.95c4.9.16 1.05-9.9 7.32-11.47.88-4.37-7.92.76-8.57-4.81-2.15-4.36-9.6 1.63-7.58-2.14-6.67-.02-14.68-.83-19.34 5.06-6.88-.83-14.6 4.43-17.94 8.9 5.1 2.84 13.24.85 16.15 7.12 2.27-1.16-4.35 2.58-.4 5.36 2.53 7.65 10.54 9.53 15 2.55 5.21-5.2 15.38-3.17 15.36-10.57z"/><path d="M127.73 119.12c-2.57-4.29-12.46-1.2-4.77-1.28 1-.24 5.08 3.73 4.77 1.28zM131.48 120.25c-5.9 3.43 8.16 2.75 1-.1l-.94.09z"/></g><path d="M353.54 135.52h.02-.02" fill="#e4e4e4"/><g fill="#f0f0f0"><path d="M1348.65 166.08c-1.9-3.61-2.9 1.97 0 0zM1317.67 133.49c-3.18-3.55-14.89.37-5.28 2.23 1.71.15 4.8-.24 5.28-2.23zM1388.68 127.11c1.61-2.18 4.59-7.51 10.18-5.38 6.87-4.7-7.47-1.06-10.64.16-3.63 1.66-4.35 4.7.46 5.22zM1462.65 207.38c-4.37.6.97 4.47 0 0zM1453.91 208.2c3.07 2.98 6.93-2.26 0 0zM1413.59 204.02c3.74-5.08-2.23-8.24 0 0zM1508.2 252.8c-3.37 6.37 7.43 2.63 0 0zM1480.66 257.87c-6.55.69 2.93 6.03 0 0zM1498.1 233.96c1.17 3.84 4.58.48 0 0zM1455.4 197.82c3.79 1.32.4-3.41 0 0zM1459.06 196.53c2.4-3.78-4.12-1.4 0 0zM1464.35 171.78c7.2-.63 10.82-7.08 11.3-12.4 9-1.67-4.7-5.6-2.78 2.4 2.06 7.21-14.61 4.32-8.52 10zM1447.93 218.93c-4.6-2.04-9.75-1.3-9.26-7.93-2.9-2.32-.62-11.46-7.46-12.44 1.5 5 4.01 9.09-1.53 4.59.68 2.58 3.91 12.3 9.64 13.7-.8 2.65 7.05 3.06 8.6 2.08z"/><path d="M1444.9 206.47c-7.48 4.68 7.05 11.93 6.5 2.04.96-5.58-1.76-8.53-5.17-3.22l-1.27 1.1zM1454.52 193.56c-4.4 4.76 6.23-.65.89-2.3 2.85-6.42-5.58-.16-.9 2.3zM1454.15 213.7c4.89 5.06 1.7-9.68-2.23-1.26-.08 1.23 1.48 1.1 2.23 1.27zM1458.06 219.17c-5.34 6.03 5.82-1.02 0 0zM1458.56 201.91c6.53-6.73-10.22-2.17 0 0zM1471.65 210.97c-6.01-2.16-10.05-.64-2.86 3.5 3.78 2.67 5 8.4 9.94 4.2 7.46 7.66-.15-8.07-5.34-7.32l-1.53-.34zM1382.95 224.8c-6.68.23-9.01 14.52-2.86 14.35 1.36-4.11 5.53-10.31 2.86-14.34zM1480.89 260.6c-.06-.03-.03.09 0 0zM1484.23 235.2c-3.96-1.7-7.65-13.62-9.17-11.62 3.25 7.33-6.68 7.18-5.52.6-4.69-1.33-12.43 2.83-14.85 6.02-1.22 4.34-12.32 3.84-7.47 11.28 2.8 4.86-.5 12.62 8.1 9.62 7.68-8.12 15.36 1.72 22.23 5.1 9.15-.92 13.81-13.1 7.07-19.86zM1505.98 257.55c-3.6 1.3-8.46 9.33-1.5 5.54 1.4-.27 4.82-6.77 1.5-5.54z"/><path d="M1509.95 126.7c-11.57 1.32-22.71-2.8-34.04-4.14 4.48-4.23-11.45-3.99-2.8-.95-4.23 6.5-10.21 1.8-14.3-.06-4.74 2.45-11.81 1.79-13.18-3.03-9.9-.09-20.66.34-29.96 3.9-1.52 3.66-9.93-1.3-8.26 5.3 5.1.2-4.3 4.92-.87.48 1.02-5.22-6.76-6.1-5.9-.6-7.7-.16-17.97.47-24.03 3.15-2.6 3.46-1.6-5.23-7.26-2.3-8.77-4.26-18.17-2.64-24.9 4.25-7.52-.3-7.37 9.76-3.32 10.85-3.22 8.86-9.58 3.58-10.18-2.49-3.8.5-7 4.51-8.47 7.74 3.43 5.34 8.65-7.94 5.51.27-1.22 2.25 12.3 1.47 3.08 2.3-5.94 2.55 5.26 5.8-3.58 7.05-10.22 2.23 1.22 15.94 6.35 6.58 3.92-8.62 12-5.77 16.81-.05-.11-8.57 5.05 8.76 6.65-.11.84-2.86 4.97 4.5 8.41 3.4 6.84 4.3-6.4 5.9-9.5 2.83-5.17 4.16-12.13-.31-12.55-4.73-6.6.66-16.39-.31-19.77 6.58-3.56 5.4-8.09 9.81-7.07 17.16-2.57 6.21 5.25 10.65 8.49 14.6 6.14-2.02 11.59-3.91 16.72.1.26 5.57 7.16 13.82 3.73 20.87-1.84 7.07 4.57 13.18 4.6 20.4 4.72 10.35 16.44-1.66 18.12-8.52-.37-7.24 10.2-12.51 3.73-20.45 1.1-8.27 12.1-11.77 12-20.38-5.01.45-8.41.5-10.3-5.8-3.2-2.56-6.45-15.79-2.35-6.36 3.97 6.1 4.8 14.28 13.47 7.68 5.24-1.83 12.48-12.46 2.5-10.94-1.39 3.81-6.08-8.45-1.97-3.2 4.6 4.48 12.51.5 16.6 4.7 4.89 3.62 5.92 15.23 9.52 17.09 2.38-5.77 5.18-18.8 14-15.07 3.13 2.9.23 11.46 4.88 5.38.83 3.72.87 7.54 5.66 7.68 4.34 8.65 11.85-8.12 3.74-10.92 1.9-6.75 1.96 6.33 4.02-.26 7.08-3.75 15.98-13.49 10.25-23.54 4.97-.69 4.44 10.17 9.01 4.09-2.06-8.77 11.35-11.05 11.77-17.55.56 9.43 3.6 1.2 2.54-3.84-1.75-6.18 2.9-7.43 8.28-5.82 3.28-.66 11.67-4.42 4.4-.17-3.21 2.3-1.36 13.99 1.93 7.08 4.75-3.36 4.13-11.52 11.91-9.17 5.47-.53 14.27-7.48 5.88-11.07z"/></g><path d="M316.15 272.84c-3.15 5.13-2.96 11.57 1.5 14.3 4.44 2.74 11.48.74 14.63-4.4 3.15-5.12 3.96-10.35-2.36-14.23-6.64-4.09-10.61-.8-13.77 4.33M317.32 286.93l13.24-17.66" fill="#fff"/><g fill="#efefef"><path d="M436.38 64.17h8.87l2.34 4.05 2.34-4.05h36.8v-20h-50.35zm11.2 9.39l-3.87-6.72h-10V41.5h55.69v25.34h-37.93l-3.88 6.72"/><path d="M436.38 50.26h6.1v-6.1h-6.1zm8.77 2.67H433.7V41.5h11.44v11.43M449.9 50.53h27.56v-2.67H449.9zM449.9 54.77h27.56V52.1H449.9zM449.9 59.01h27.56v-2.67H449.9z"/></g><path d="M-288-185.5a2.67 2.67 0 1 0 0 5.33 2.67 2.67 0 0 0 0-5.34zm0 8a5.34 5.34 0 1 1 .01-10.69 5.34 5.34 0 0 1-.01 10.68M41 276.5a2.67 2.67 0 1 0 0 5.33 2.67 2.67 0 0 0 0-5.34zm0 8a5.34 5.34 0 1 1 .01-10.69A5.34 5.34 0 0 1 41 284.5" fill="#e4e4e4"/><path d="M79.06 74.82h19.48a24.45 24.45 0 0 1 4.21-13.08 16.84 16.84 0 0 0-13.95-26.2 16.84 16.84 0 0 0-13.95 26.2 24.47 24.47 0 0 1 4.21 13.08zm22.14 2.67H76.4v-2c0-4.37-1.3-8.61-3.76-12.25a19.31 19.31 0 0 1-3.32-10.87A19.5 19.5 0 0 1 88.8 32.88a19.5 19.5 0 0 1 19.49 19.49c0 3.9-1.15 7.65-3.33 10.87a21.81 21.81 0 0 0-3.76 12.26v2" fill="#cacaca"/><path d="M77.74 87.36h21.93v-5.07H77.74z" fill="#fff"/><path d="M79.07 86.02h19.27v-2.4H79.07zM101 88.7H76.4v-7.74H101v7.74" fill="#cacaca"/><path d="M94.67 102.45H82.74a5 5 0 0 1-5-5v-3.6h21.93v3.6a5 5 0 0 1-5 5" fill="#fff"/><path d="M79.07 95.19v2.27a3.66 3.66 0 0 0 3.67 3.66h11.93a3.66 3.66 0 0 0 3.67-3.66v-2.27zm15.6 8.6H82.74a6.33 6.33 0 0 1-6.33-6.33v-4.94H101v4.94c0 3.49-2.85 6.32-6.34 6.32" fill="#cacaca"/><path d="M77.74 76.16h22.12v-.66c0-4.66 1.39-9.16 4-13.01a18.15 18.15 0 1 0-30.1 0c2.58 3.84 3.98 8.37 3.98 13v.67M88.8 93.86v-32.8" fill="#fff"/><path d="M87.47 93.86h2.67v-32.8h-2.67z" fill="#cacaca"/><path d="M85.54 52.19l3.26 6.06 3.26-6.06zm3.26 11.7l-7.72-14.37h15.44L88.8 63.88" fill="#cacaca"/><path d="M1445.41 100.53l2.86.24 4.12-9.04c.22-.47.69-.78 1.2-.78l2.86-.04c.1 0 .17-.05.2-.09.04-.03.09-.1.09-.2s-.05-.16-.09-.2c-.04-.04-.09-.1-.2-.08l-1.23.2a1.34 1.34 0 0 1-1.43-1.87l1.05-2.3c.21-.48.68-.78 1.2-.79l4.82-.06c.16 0 .29-.13.29-.29 0-.15-.12-.3-.3-.28l-3.34.56a1.33 1.33 0 0 1-1.43-1.87l3.95-8.67c.23-.5.7-.8 1.27-.78l21.27.9c1.97.06 5.4-1.1 7.07-2.7.3-.3.66-.72.78-1.16-.06-.15-.1-.31-.1-.48v-.05-.17c0-.14.04-.27.08-.39a2.86 2.86 0 0 0-.76-1.13c-1.66-1.6-5.04-2.78-7.08-2.7l-19.89.84a1.3 1.3 0 0 1-1.27-.77l-3.84-8.43a1.34 1.34 0 0 1 1.43-1.87l3.3.56c.14.02.21-.04.25-.08.04-.04.08-.1.09-.2 0-.1-.05-.17-.09-.2a.28.28 0 0 0-.2-.1l-4.82-.05c-.52 0-.99-.31-1.2-.78l-1.05-2.31a1.33 1.33 0 0 1 1.43-1.87l1.18.2c.14 0 .21-.04.25-.08.04-.04.09-.1.09-.2a.29.29 0 0 0-.29-.29l-2.86-.03c-.51-.01-.98-.31-1.2-.78l-4.12-9.05-2.86.24 3.84 25.13a1.33 1.33 0 0 1-1.26 1.53l-19.4.83c-.42 0-.78-.15-1.05-.45l-7.83-8.87 2.71 7.9a1.34 1.34 0 0 1-1.06 1.75c-.88.13-1.55.85-1.6 1.73l-1.33.25 1.34-.07c.03.69.44 1.3 1.08 1.59.62.29.93 1 .7 1.66l-2.87 8.04 7.96-8.83c.27-.29.63-.44 1.05-.43l18.85.8a1.33 1.33 0 0 1 1.26 1.53zm3.68 2.99l-.11-.01-5.21-.45a1.34 1.34 0 0 1-1.2-1.53l3.86-25.3-16.75-.72-8.13 9.02c-.3.33-.76.49-1.2.42l-2.24-.37a1.34 1.34 0 0 1-1.04-1.76l3.1-8.7a4.49 4.49 0 0 1-1.59-3.2V70.51c.08-1.63 1.01-3.04 2.37-3.77l-2.85-8.28a1.34 1.34 0 0 1 1.06-1.75l2.24-.34c.45-.07.9.1 1.2.43l8 9.05 17.27-.73-3.82-25.06a1.34 1.34 0 0 1 1.2-1.53l5.21-.45c.58-.05 1.1.26 1.33.77l4.16 9.14 2.02.02a2.96 2.96 0 0 1 1.69 5.36l2.72.03a2.93 2.93 0 0 1 2.92 3 2.95 2.95 0 0 1-3.44 2.87l-.83-.14 2.43 5.32 19-.8h.02c2.58-.08 6.73 1.23 9.02 3.45a4.8 4.8 0 0 1 1.63 3.38v.44c0 1.18-.57 2.35-1.63 3.38-2.3 2.22-6.47 3.55-9.02 3.46l-20.39-.87-2.54 5.57.82-.14a2.96 2.96 0 0 1 .52 5.87l-2.72.03a2.93 2.93 0 0 1 .4 4.46c-.55.57-1.3.89-2.08.9l-2.02.02-4.16 9.13c-.22.48-.7.79-1.21.79" fill="#d6d6d6"/><path d="M1042.65 278.76l-12.25-7.44 6.23-.7 2.48-5.75 3.54 13.9" fill="#efefef"/><path d="M216.76 124.48c9.22 75.29 20.19 103.68 15.14 156.74h29.03L225.87 123l-9.1 1.47" fill="#fff"/><path d="M233.37 279.89h25.9l-34.43-155.36-6.6 1.06c2.89 23.35 5.92 42.08 8.6 58.64 5.85 36.11 9.74 60.13 6.53 95.66zm27.56 2.66H231.9a1.33 1.33 0 0 1-1.32-1.46c3.42-36-.48-60.04-6.37-96.43a1468.62 1468.62 0 0 1-8.77-60.02c-.09-.71.4-1.36 1.1-1.48l9.12-1.47c.7-.1 1.36.34 1.52 1.03l35.05 158.2a1.33 1.33 0 0 1-1.3 1.63" fill="#e2e2e2"/><path d="M220.54 68.93l-1.26-4.2 5.14-6.07a46.25 46.25 0 0 0-4.92-11.34c-5.21 7.87-7.87 15.27-8.87 22l10.06 10.05-4.38 1.61-7.5-7.49c-1.22 20.56 14 33.66 14 33.66s7.72-22.04 3.01-43.5l-5.28 5.28" fill="#fff"/><path d="M210.09 76.65c.32 14.21 8.63 24.39 12.1 28.03 1.64-5.62 5.68-21.98 2.8-38.33l-3.5 3.52a1.33 1.33 0 0 1-2.23-.56l-1.26-4.2c-.13-.44-.03-.9.26-1.25l4.68-5.51a46.04 46.04 0 0 0-3.5-8.46c-3.86 6.26-6.34 12.63-7.39 18.96l9.58 9.58a1.33 1.33 0 0 1-.48 2.2l-4.38 1.6c-.5.18-1.04.06-1.4-.3zm12.73 31.84c-.32 0-.63-.11-.87-.32-.64-.56-15.71-13.78-14.46-34.76a1.33 1.33 0 0 1 2.27-.86l6.89 6.89 1.62-.6-8.58-8.58c-.3-.3-.44-.72-.38-1.14 1.13-7.56 4.18-15.14 9.08-22.53.25-.38.66-.62 1.14-.6.45 0 .87.25 1.11.63a47.67 47.67 0 0 1 5.06 11.67c.12.43.03.9-.26 1.23l-4.68 5.51.42 1.38 3.7-3.71a1.34 1.34 0 0 1 2.25.66c4.73 21.59-2.73 43.32-3.05 44.23a1.33 1.33 0 0 1-1.26.9" fill="#e2e2e2"/><path d="M190.32 124.93l6.17 8-3.64 2.25-6.64-8.45c-7.2 4.5-12.53 11.46-17.7 23.3a45.4 45.4 0 0 0 10.82-1.65v-8.17l4.4 5.82c22.14-6.84 36.81-25.74 36.81-25.74s-15.12-3.48-30.22 4.64" fill="#fff"/><path d="M185.92 128.52c-6.12 4.13-10.8 10.26-15.3 20.06 2.4-.19 4.87-.6 7.38-1.23v-7.14a1.33 1.33 0 0 1 2.4-.81l3.83 5.08c17.07-5.58 29.62-18.53 33.77-23.25-4.47-.55-15-1.06-25.64 4.16l5.19 6.72a1.33 1.33 0 0 1-.35 1.95l-3.65 2.25c-.58.36-1.33.23-1.75-.3zm-17.4 22.84a1.33 1.33 0 0 1-1.23-1.86c5.25-12.05 10.7-19.2 18.21-23.9a1.34 1.34 0 0 1 1.76.3l5.9 7.52 1.38-.85-5.27-6.82a1.33 1.33 0 0 1 .42-2c15.36-8.25 30.51-4.9 31.15-4.76a1.33 1.33 0 0 1 .75 2.12c-.6.78-15.18 19.31-37.46 26.2a1.34 1.34 0 0 1-1.46-.47l-2-2.66v4.2c0 .6-.41 1.13-1 1.29a46.93 46.93 0 0 1-11.12 1.7h-.03" fill="#e2e2e2"/><path d="M183.47 96.12l11.06 8.83-6.6.2-11.74-9.12c-7.95.03-15.59 1.5-25.86 5.73a53.3 53.3 0 0 0 15.49 9.64l12.64-4.5 3.07 2.86-10.74 3.6c23.45 8.22 49.75 4.42 49.75 4.42s-11.92-19.1-37.07-21.66" fill="#fff"/><path d="M175.06 113.33c17.92 5.25 36.74 4.02 43.07 3.38-3.34-4.3-13.22-15.18-29.95-18.54l7.18 5.73a1.34 1.34 0 0 1-.8 2.38l-6.6.2c-.3 0-.6-.1-.85-.28l-11.38-8.83c-7.48.08-14.46 1.55-22.88 4.82a53.22 53.22 0 0 0 13 7.78l12.17-4.32c.46-.17.99-.06 1.35.28l3.07 2.85a1.33 1.33 0 0 1-.49 2.24zm30.54 6.64c-9.78 0-22.95-1.04-35.25-5.35a1.33 1.33 0 0 1 .01-2.52l8.62-2.9-.83-.77-11.89 4.23c-.31.1-.66.1-.96-.03a54.69 54.69 0 0 1-15.87-9.88 1.33 1.33 0 0 1 .4-2.22c9.85-4.05 17.73-5.8 26.35-5.83.3 0 .59.1.82.28l11.37 8.82 2.49-.08-8.22-6.56a1.34 1.34 0 0 1 .97-2.37c25.5 2.6 37.56 21.48 38.06 22.28a1.33 1.33 0 0 1-.94 2.02c-.13.02-6.23.88-15.13.88" fill="#e2e2e2"/><path d="M206.56 86.63l-6 7.37 2.1-11.26c-5.5-4.14-12.68-7.56-22.08-9.47.93 3.9 2.44 7.6 4.32 11.09l12.29 2.27-2.66 3.82-6.75-1.32c11.99 17.85 32.76 28.79 32.76 28.79s.75-17.66-13.98-31.29" fill="#fff"/><path d="M190.8 91.08c9.51 12.67 23.2 21.48 28.33 24.5a43 43 0 0 0-12.45-26.98l-5.09 6.24a1.33 1.33 0 0 1-2.34-1.09l1.95-10.43c-5.24-3.8-11.54-6.57-18.77-8.28.8 2.7 1.93 5.41 3.35 8.12l11.65 2.16a1.33 1.33 0 0 1 .85 2.08l-2.66 3.82c-.3.43-.83.64-1.35.54zm29.74 28.17c-.21 0-.43-.05-.62-.15-.86-.45-21.21-11.3-33.25-29.23a1.33 1.33 0 0 1 1.37-2.05l5.9 1.16.97-1.41-10.25-1.9c-.4-.08-.74-.33-.93-.68a47.5 47.5 0 0 1-4.45-11.41 1.34 1.34 0 0 1 1.56-1.62c8.83 1.8 16.44 5.06 22.63 9.72.4.3.6.8.5 1.3l-1.14 6.11 2.7-3.3a1.33 1.33 0 0 1 1.93-.13c15.01 13.88 14.44 31.57 14.41 32.32a1.33 1.33 0 0 1-1.33 1.27" fill="#e2e2e2"/><path d="M246.42 88.9l1.48-3.49 7.93-.65a46.22 46.22 0 0 0 4.54-11.5c-9.26 1.89-15.5 4.3-20.97 8.36v14.22l-3.88-.25V85c-15.4 13.67-15.11 32.92-15.11 32.92s21.63-10.52 33.48-29.02h-7.47" fill="#fff"/><path d="M234.18 88.12c-9.79 10.08-11.88 22.5-12.32 27.52 5.35-2.96 20.02-11.88 29.53-25.41h-4.97a1.34 1.34 0 0 1-1.23-1.86l1.49-3.48c.2-.45.62-.76 1.12-.8l7.2-.6a46.05 46.05 0 0 0 3.52-8.46c-7.8 1.74-13.1 3.92-17.79 7.27v13.54a1.34 1.34 0 0 1-1.41 1.33l-3.89-.24a1.33 1.33 0 0 1-1.25-1.34zm-13.77 31.13a1.34 1.34 0 0 1-1.34-1.3c-.01-.82-.12-20.03 15.56-33.94a1.34 1.34 0 0 1 2.22 1v9.33l1.22.08v-12.8c0-.43.2-.82.54-1.07 5.5-4.08 11.93-6.65 21.5-8.59a1.33 1.33 0 0 1 1.56 1.62A47.66 47.66 0 0 1 257 85.4c-.22.39-.62.65-1.06.68l-7.12.59-.38.88h5.45a1.33 1.33 0 0 1 1.12 2.06c-11.91 18.6-33.13 29.06-34.02 29.5-.19.09-.39.13-.58.13" fill="#e2e2e2"/><path d="M270.37 96.77l-13.16 13.5-1.7-5.32 8.74-9.1c-29.79-.6-43.85 21.93-43.85 21.93s12.12 1.5 27.14.07l-7.15-7.27h8.81l2.19 6.85c13.49-1.71 28.6-5.94 39.23-15.67a64.08 64.08 0 0 0-20.25-5" fill="#fff"/><path d="M222.84 116.67c3.82.32 12.03.8 21.76.1l-5.16-5.26a1.33 1.33 0 0 1 .95-2.27h8.81c.58 0 1.1.38 1.28.93l1.84 5.79c15.23-2.07 27.24-6.7 35.77-13.77a61.52 61.52 0 0 0-17.22-4.03l-12.7 13.04a1.34 1.34 0 0 1-2.23-.53l-1.7-5.32c-.15-.46-.03-.98.3-1.33l6.56-6.81c-21.77.8-34.36 14.47-38.26 19.46zm11.46 3.13c-8.3 0-13.98-.7-14.06-.7a1.33 1.33 0 0 1-.97-2.03c.15-.23 14.82-23.17 45.01-22.56a1.33 1.33 0 0 1 .94 2.26l-8.2 8.53.78 2.45 11.61-11.91c.28-.29.68-.43 1.08-.4 6.6.62 12.36 1.69 20.63 5.09a1.33 1.33 0 0 1 .4 2.22c-9.2 8.42-22.65 13.8-39.96 16-.64.08-1.25-.3-1.44-.92l-1.89-5.92h-4.66l4.92 5a1.33 1.33 0 0 1-.83 2.27c-4.84.46-9.4.62-13.36.62" fill="#e2e2e2"/><path d="M232.62 125.47h9.3l-8.04 7.76c9.68 7.85 23.6 16.43 38.55 16.8a64.18 64.18 0 0 0-3.95-7.66h-12.97l-5.55-4.25h16.64c-17.82-25.75-46.2-17.83-46.2-17.83s3.98 4.76 10.54 10.47l1.68-5.3" fill="#fff"/><path d="M235.9 133.13c8.58 6.76 21.02 14.4 34.4 15.45a62.69 62.69 0 0 0-2.57-4.87H255.5c-.3 0-.58-.1-.81-.28l-5.55-4.25a1.33 1.33 0 0 1 .8-2.4h14.03c-14.4-18.67-34.49-16.88-41.07-15.67a110.6 110.6 0 0 0 7.38 7.3l1.06-3.35c.18-.55.7-.93 1.27-.93h9.3a1.33 1.33 0 0 1 .93 2.3zm36.53 18.23h-.03c-15.58-.38-30-9.5-39.36-17.1a1.34 1.34 0 0 1-.08-2l5.66-5.46h-5.02l-1.38 4.37a1.33 1.33 0 0 1-2.15.6 103.67 103.67 0 0 1-10.69-10.62 1.33 1.33 0 0 1 .67-2.14c.29-.09 29.5-7.88 47.65 18.35a1.33 1.33 0 0 1-1.1 2.1h-12.7l2.06 1.58h12.52c.47 0 .9.24 1.14.64a66.13 66.13 0 0 1 4.03 7.82 1.33 1.33 0 0 1-1.22 1.86" fill="#e2e2e2"/><path d="M232.63 90.45c0 5.6-3.58 10.14-7.98 10.14-4.41 0-7.98-4.54-7.98-10.14 0-5.6 3.57-10.13 7.98-10.13 4.4 0 7.98 4.54 7.98 10.13" fill="#fff"/><path d="M224.65 81.65c-3.67 0-6.65 3.95-6.65 8.8 0 4.86 2.98 8.8 6.65 8.8 3.66 0 6.64-3.94 6.64-8.8 0-4.85-2.98-8.8-6.64-8.8zm0 20.27c-5.14 0-9.32-5.14-9.32-11.47 0-6.32 4.18-11.46 9.32-11.46 5.13 0 9.3 5.14 9.3 11.46 0 6.33-4.17 11.47-9.3 11.47" fill="#e2e2e2"/><path d="M222.3 114.4c0 7.62-4.87 13.8-10.87 13.8-6 0-10.87-6.18-10.87-13.8 0-7.63 4.86-13.81 10.87-13.81 6 0 10.87 6.18 10.87 13.8" fill="#fff"/><path d="M211.43 101.92c-5.26 0-9.54 5.6-9.54 12.48 0 6.87 4.28 12.47 9.54 12.47 5.25 0 9.53-5.6 9.53-12.47 0-6.88-4.28-12.48-9.53-12.48zm0 27.62c-6.73 0-12.2-6.8-12.2-15.14 0-8.35 5.47-15.15 12.2-15.15 6.73 0 12.2 6.8 12.2 15.15 0 8.34-5.47 15.14-12.2 15.14" fill="#e2e2e2"/><path d="M235.52 110.58c0 7.62-4.87 13.8-10.87 13.8-6 0-10.87-6.18-10.87-13.8 0-7.63 4.86-13.81 10.87-13.81 6 0 10.87 6.18 10.87 13.8" fill="#fff"/><path d="M224.65 98.1c-5.26 0-9.54 5.6-9.54 12.48 0 6.87 4.28 12.47 9.54 12.47 5.25 0 9.53-5.6 9.53-12.47 0-6.88-4.28-12.48-9.53-12.48zm0 27.62c-6.73 0-12.2-6.8-12.2-15.14 0-8.35 5.47-15.14 12.2-15.14 6.73 0 12.2 6.79 12.2 15.14 0 8.35-5.47 15.14-12.2 15.14" fill="#e2e2e2"/><path d="M224.65 96.77c0 5.6-3.58 10.13-7.98 10.13s-7.98-4.53-7.98-10.13c0-5.6 3.57-10.14 7.98-10.14 4.4 0 7.98 4.54 7.98 10.14" fill="#fff"/><path d="M216.67 87.97c-3.67 0-6.65 3.95-6.65 8.8 0 4.85 2.98 8.8 6.65 8.8 3.66 0 6.64-3.95 6.64-8.8 0-4.85-2.98-8.8-6.64-8.8zm0 20.27c-5.14 0-9.31-5.15-9.31-11.47s4.17-11.47 9.3-11.47c5.14 0 9.32 5.15 9.32 11.47s-4.18 11.47-9.31 11.47" fill="#e2e2e2"/><path d="M228.52 126.73c0 5.6-3.57 10.14-7.98 10.14-4.4 0-7.98-4.54-7.98-10.14 0-5.6 3.57-10.13 7.98-10.13 4.4 0 7.98 4.54 7.98 10.13" fill="#fff"/><path d="M220.54 117.93c-3.66 0-6.64 3.95-6.64 8.8 0 4.86 2.98 8.8 6.64 8.8 3.66 0 6.64-3.94 6.64-8.8 0-4.85-2.98-8.8-6.64-8.8zm0 20.27c-5.13 0-9.31-5.14-9.31-11.47 0-6.32 4.18-11.46 9.31-11.46 5.14 0 9.31 5.14 9.31 11.46 0 6.33-4.17 11.47-9.3 11.47" fill="#e2e2e2"/><g><path d="M338.17 306.1c-4.34-40.06-43.46-67.62-91.1-67.62-47.62 0-86.75 27.56-91.08 67.62h182.18" fill="#fff"/><g fill="#e2e2e2"><path d="M161.49 304.77h179.18c-4.96-37.73-42.36-64.96-89.6-64.96-47.22 0-84.62 27.23-89.58 64.96zm182.17 2.66H158.5l.16-1.47c4.32-39.87 43.19-68.81 92.42-68.81 49.23 0 88.1 28.94 92.42 68.8l.16 1.48"/><path d="M312.52 264.35a.77.77 0 0 1-.49-.17c-3.76-3.01-7.85-5.73-12.17-8.08a.78.78 0 0 1 .75-1.38 84.8 84.8 0 0 1 12.4 8.24.78.78 0 0 1-.5 1.39M279.14 247.93a.8.8 0 0 1-.19-.02c-18.53-4.66-36.57-4.82-53.6-.47a.78.78 0 1 1-.39-1.52c17.3-4.4 35.59-4.25 54.37.47a.78.78 0 0 1-.19 1.54M189.64 264.35a.78.78 0 0 1-.49-1.4 86.6 86.6 0 0 1 23.2-13.14.78.78 0 1 1 .56 1.46 85.01 85.01 0 0 0-22.78 12.9.78.78 0 0 1-.5.18"/></g></g><g><path d="M1576.35 124.48c-9.22 75.29-20.2 103.68-15.15 156.74h-29.02L1567.23 123l9.12 1.47" fill="#fff"/><path d="M1533.84 279.89h25.9c-3.21-35.53.68-59.55 6.53-95.66 2.68-16.56 5.71-35.29 8.6-58.64l-6.6-1.06zm27.36 2.66h-29.02a1.34 1.34 0 0 1-1.3-1.62l35.05-158.21c.16-.69.82-1.14 1.52-1.03l9.1 1.47c.72.12 1.2.77 1.12 1.48-2.94 24-6.04 43.13-8.77 60.02-5.9 36.4-9.8 60.44-6.37 96.43a1.33 1.33 0 0 1-1.33 1.46" fill="#e2e2e2"/><path d="M1602.79 124.93l-6.18 8 3.65 2.25 6.64-8.45c7.2 4.5 12.53 11.46 17.7 23.3-3.7-.1-7.31-.7-10.82-1.65v-8.17l-4.4 5.82c-22.14-6.84-36.81-25.74-36.81-25.74s15.12-3.48 30.22 4.64" fill="#fff"/><path d="M1615.11 147.35c2.5.63 4.98 1.04 7.38 1.23-4.5-9.8-9.18-15.93-15.3-20.06l-5.88 7.49c-.42.53-1.17.66-1.75.3l-3.65-2.25a1.33 1.33 0 0 1-.35-1.95l5.2-6.72c-10.66-5.22-21.18-4.71-25.66-4.16 4.16 4.72 16.7 17.67 33.78 23.25l3.83-5.08c.35-.45.95-.64 1.5-.46.54.18.9.7.9 1.27zm9.48 4.01h-.03a46.93 46.93 0 0 1-11.13-1.69 1.34 1.34 0 0 1-.99-1.29v-4.2l-2 2.66c-.34.45-.93.63-1.46.47-22.28-6.89-36.86-25.42-37.47-26.2a1.34 1.34 0 0 1 .76-2.12c.64-.15 15.79-3.5 31.15 4.77a1.35 1.35 0 0 1 .42 1.99l-5.27 6.82 1.38.85 5.9-7.51a1.33 1.33 0 0 1 1.75-.3c7.52 4.69 12.96 11.84 18.22 23.89a1.34 1.34 0 0 1-1.22 1.87" fill="#e2e2e2"/><path d="M1609.63 96.12l-11.05 8.83 6.6.2 11.74-9.12c7.95.03 15.58 1.5 25.86 5.73a53.32 53.32 0 0 1-15.49 9.64l-12.65-4.5-3.06 2.86 10.74 3.6c-23.45 8.22-49.75 4.42-49.75 4.42s11.92-19.1 37.06-21.66" fill="#fff"/><path d="M1574.97 116.71c6.33.63 25.17 1.87 43.07-3.38l-6.88-2.31a1.34 1.34 0 0 1-.49-2.24l3.07-2.85c.36-.34.88-.45 1.35-.28l12.16 4.32a53.26 53.26 0 0 0 13-7.78c-8.42-3.27-15.4-4.74-22.88-4.82L1606 106.2c-.25.19-.54.29-.86.28l-6.6-.2a1.33 1.33 0 0 1-.8-2.38l7.18-5.73c-16.75 3.36-26.62 14.24-29.95 18.54zm12.53 3.26c-8.9 0-15-.86-15.12-.88a1.33 1.33 0 0 1-.94-2.02c.5-.8 12.55-19.68 38.06-22.28a1.33 1.33 0 0 1 .97 2.37l-8.22 6.56 2.5.08 11.35-8.82c.24-.18.53-.28.82-.28 8.62.03 16.5 1.78 26.36 5.83a1.33 1.33 0 0 1 .4 2.22 54.66 54.66 0 0 1-15.88 9.88c-.3.13-.65.14-.96.03l-11.89-4.23-.83.78 8.62 2.89a1.33 1.33 0 0 1 .02 2.52c-12.3 4.31-25.48 5.35-35.26 5.35" fill="#e2e2e2"/><path d="M1586.55 86.63l6 7.37-2.1-11.26c5.5-4.14 12.68-7.56 22.08-9.47-.93 3.9-2.44 7.6-4.32 11.09l-12.3 2.27 2.67 3.82 6.75-1.32c-12 17.85-32.76 28.79-32.76 28.79s-.75-17.66 13.98-31.29" fill="#fff"/><path d="M1586.43 88.6a43 43 0 0 0-12.45 26.98c5.12-3.02 18.81-11.83 28.32-24.5l-3.46.68c-.53.1-1.05-.11-1.35-.54l-2.67-3.82a1.33 1.33 0 0 1 .86-2.08l11.65-2.16a46 46 0 0 0 3.34-8.12c-7.22 1.71-13.52 4.49-18.76 8.28l1.95 10.43a1.33 1.33 0 0 1-2.34 1.09zm-13.86 30.65a1.34 1.34 0 0 1-1.33-1.27c-.04-.75-.6-18.44 14.4-32.32a1.33 1.33 0 0 1 1.94.14l2.7 3.3-1.15-6.11c-.1-.5.1-1.01.5-1.31 6.2-4.66 13.81-7.93 22.64-9.72a1.33 1.33 0 0 1 1.56 1.62 47.5 47.5 0 0 1-4.45 11.4c-.2.36-.53.61-.93.69l-10.25 1.9.98 1.4 5.89-1.15a1.34 1.34 0 0 1 1.37 2.05c-12.04 17.92-32.39 28.78-33.25 29.23-.2.1-.4.15-.62.15" fill="#e2e2e2"/><path d="M1572.57 68.93l1.26-4.2-5.14-6.07a46.24 46.24 0 0 1 4.91-11.34c5.22 7.87 7.88 15.27 8.88 22l-10.06 10.05 4.38 1.61 7.49-7.49c1.22 20.56-14 33.66-14 33.66s-7.71-22.04-3-43.5l5.28 5.28" fill="#fff"/><path d="M1568.1 66.35c-2.87 16.36 1.18 32.72 2.81 38.33 3.47-3.64 11.79-13.82 12.1-28.03l-5.27 5.27c-.36.37-.92.49-1.4.31l-4.38-1.6a1.33 1.33 0 0 1-.48-2.2l9.57-9.58c-1.04-6.33-3.52-12.7-7.39-18.96a46.03 46.03 0 0 0-3.49 8.46l4.68 5.51c.29.35.39.81.26 1.25l-1.27 4.2a1.33 1.33 0 0 1-2.22.56zm2.19 42.14a1.32 1.32 0 0 1-1.26-.9c-.32-.91-7.78-22.64-3.05-44.23a1.33 1.33 0 0 1 2.24-.66l3.71 3.7.41-1.37-4.67-5.5c-.29-.35-.39-.81-.26-1.24a47.72 47.72 0 0 1 5.06-11.67 1.33 1.33 0 0 1 2.25-.03c4.9 7.39 7.95 14.97 9.08 22.53.06.42-.08.84-.38 1.14l-8.58 8.58 1.62.6 6.89-6.89a1.33 1.33 0 0 1 2.27.86c1.25 20.98-13.82 34.2-14.46 34.76-.25.2-.56.32-.87.32" fill="#e2e2e2"/><path d="M1546.69 88.9l-1.49-3.49-7.92-.65a46.27 46.27 0 0 1-4.54-11.5c9.25 1.89 15.5 4.3 20.97 8.36v14.22l3.88-.25V85c15.4 13.67 15.11 32.92 15.11 32.92s-21.63-10.52-33.48-29.02h7.47" fill="#fff"/><path d="M1541.72 90.23c9.51 13.54 24.18 22.46 29.53 25.41-.45-5.02-2.54-17.44-12.33-27.52v7.47c0 .7-.54 1.3-1.25 1.34l-3.88.24a1.33 1.33 0 0 1-1.42-1.33V82.3c-4.69-3.35-10-5.53-17.78-7.27a46.1 46.1 0 0 0 3.52 8.46l7.2.6c.5.04.93.35 1.12.8l1.49 3.48a1.33 1.33 0 0 1-1.23 1.86zm30.98 29.02c-.2 0-.4-.04-.58-.13-.9-.44-22.1-10.9-34.02-29.5a1.33 1.33 0 0 1 1.12-2.06h5.45l-.38-.88-7.12-.59c-.45-.03-.84-.3-1.06-.68a47.74 47.74 0 0 1-4.67-11.83 1.34 1.34 0 0 1 1.56-1.62c9.57 1.94 16 4.51 21.5 8.59.34.25.54.64.54 1.07v12.8l1.22-.08V85a1.34 1.34 0 0 1 2.22-1c15.68 13.92 15.57 33.13 15.56 33.94a1.34 1.34 0 0 1-1.33 1.31" fill="#e2e2e2"/><path d="M1522.74 96.77l13.16 13.5 1.7-5.32-8.75-9.1c29.8-.6 43.85 21.93 43.85 21.93s-12.1 1.5-27.13.07l7.15-7.27h-8.82l-2.18 6.85c-13.49-1.71-28.6-5.94-39.23-15.67a64.09 64.09 0 0 1 20.25-5" fill="#fff"/><path d="M1548.51 116.76c9.72.72 17.94.24 21.75-.09-3.89-5-16.48-18.66-38.25-19.46l6.55 6.81c.34.35.46.87.3 1.33l-1.69 5.32a1.34 1.34 0 0 1-2.23.53l-12.7-13.04a61.54 61.54 0 0 0-17.22 4.03c8.52 7.07 20.54 11.7 35.77 13.77l1.84-5.79c.18-.55.7-.93 1.27-.93h8.82a1.33 1.33 0 0 1 .95 2.27zm10.3 3.04c-3.97 0-8.53-.16-13.37-.62a1.33 1.33 0 0 1-.82-2.26l4.92-5.01h-4.66l-1.9 5.92c-.19.62-.78 1-1.43.92-17.3-2.2-30.75-7.58-39.96-16a1.33 1.33 0 0 1 .4-2.22 65.32 65.32 0 0 1 20.63-5.09c.39-.03.8.1 1.08.4l11.6 11.9.79-2.44-8.2-8.53a1.33 1.33 0 0 1 .93-2.26c30.16-.58 44.87 22.33 45.01 22.56a1.33 1.33 0 0 1-.96 2.03c-.09 0-5.76.7-14.06.7" fill="#e2e2e2"/><path d="M1560.48 125.47h-9.3l8.04 7.76c-9.67 7.85-23.59 16.43-38.54 16.8a64.38 64.38 0 0 1 3.94-7.66h12.98l5.55-4.25h-16.65c17.82-25.75 46.2-17.83 46.2-17.83s-3.97 4.76-10.54 10.47l-1.68-5.3" fill="#fff"/><path d="M1525.38 143.7a62.88 62.88 0 0 0-2.58 4.88c13.39-1.05 25.83-8.69 34.4-15.45l-6.94-6.7a1.33 1.33 0 0 1 .92-2.3h9.3c.58 0 1.1.38 1.27.93l1.06 3.34c3.36-3.02 5.9-5.67 7.4-7.3-6.6-1.2-26.69-3-41.08 15.69h14.02a1.34 1.34 0 0 1 .81 2.39l-5.55 4.25c-.23.18-.52.28-.81.28zm-4.7 7.66a1.34 1.34 0 0 1-1.23-1.86 66.42 66.42 0 0 1 4.03-7.82c.25-.4.68-.64 1.14-.64h12.53l2.07-1.59h-12.72a1.33 1.33 0 0 1-1.1-2.09c18.16-26.23 47.37-18.44 47.66-18.35a1.33 1.33 0 0 1 .67 2.14c-.17.2-4.12 4.9-10.7 10.62a1.34 1.34 0 0 1-2.14-.6l-1.38-4.37h-5.02l5.66 5.47a1.33 1.33 0 0 1-.09 2c-9.35 7.58-23.77 16.71-39.35 17.1h-.03" fill="#e2e2e2"/><path d="M1560.48 90.45c0 5.6 3.57 10.14 7.98 10.14 4.4 0 7.98-4.54 7.98-10.14 0-5.6-3.57-10.13-7.98-10.13-4.4 0-7.98 4.54-7.98 10.13" fill="#fff"/><path d="M1568.46 81.65c-3.66 0-6.64 3.95-6.64 8.8 0 4.86 2.98 8.8 6.64 8.8 3.66 0 6.64-3.94 6.64-8.8 0-4.85-2.98-8.8-6.64-8.8zm0 20.27c-5.14 0-9.31-5.14-9.31-11.47 0-6.32 4.17-11.46 9.31-11.46 5.14 0 9.31 5.14 9.31 11.46 0 6.33-4.17 11.47-9.3 11.47" fill="#e2e2e2"/><path d="M1570.81 114.4c0 7.62 4.87 13.8 10.87 13.8 6 0 10.87-6.18 10.87-13.8 0-7.63-4.87-13.81-10.87-13.81-6 0-10.87 6.18-10.87 13.8" fill="#fff"/><path d="M1581.68 101.92c-5.26 0-9.54 5.6-9.54 12.48 0 6.87 4.28 12.47 9.54 12.47 5.26 0 9.54-5.6 9.54-12.47 0-6.88-4.28-12.48-9.54-12.48zm0 27.62c-6.73 0-12.2-6.8-12.2-15.14 0-8.35 5.47-15.15 12.2-15.15 6.73 0 12.2 6.8 12.2 15.15 0 8.34-5.47 15.14-12.2 15.14" fill="#e2e2e2"/><path d="M1557.6 110.58c0 7.62 4.86 13.8 10.86 13.8 6 0 10.87-6.18 10.87-13.8 0-7.63-4.87-13.81-10.87-13.81-6 0-10.87 6.18-10.87 13.8" fill="#fff"/><path d="M1568.46 98.1c-5.26 0-9.54 5.6-9.54 12.48 0 6.87 4.28 12.47 9.54 12.47 5.26 0 9.54-5.6 9.54-12.47 0-6.88-4.28-12.48-9.54-12.48zm0 27.62c-6.73 0-12.2-6.8-12.2-15.14 0-8.35 5.47-15.14 12.2-15.14 6.73 0 12.2 6.79 12.2 15.14 0 8.35-5.47 15.14-12.2 15.14" fill="#e2e2e2"/><path d="M1568.46 96.77c0 5.6 3.57 10.13 7.98 10.13 4.4 0 7.98-4.53 7.98-10.13 0-5.6-3.57-10.14-7.98-10.14-4.4 0-7.98 4.54-7.98 10.14" fill="#fff"/><path d="M1576.44 87.97c-3.67 0-6.65 3.95-6.65 8.8 0 4.85 2.98 8.8 6.65 8.8 3.66 0 6.64-3.95 6.64-8.8 0-4.85-2.98-8.8-6.64-8.8zm0 20.27c-5.14 0-9.31-5.15-9.31-11.47s4.17-11.47 9.3-11.47c5.14 0 9.32 5.15 9.32 11.47s-4.18 11.47-9.31 11.47" fill="#e2e2e2"/><path d="M1564.59 126.73c0 5.6 3.57 10.14 7.98 10.14 4.4 0 7.97-4.54 7.97-10.14 0-5.6-3.57-10.13-7.97-10.13s-7.98 4.54-7.98 10.13" fill="#fff"/><path d="M1572.57 117.93c-3.67 0-6.65 3.95-6.65 8.8 0 4.86 2.98 8.8 6.65 8.8 3.66 0 6.64-3.94 6.64-8.8 0-4.85-2.98-8.8-6.64-8.8zm0 20.27c-5.14 0-9.31-5.14-9.31-11.47 0-6.32 4.17-11.46 9.3-11.46 5.14 0 9.32 5.14 9.32 11.46 0 6.33-4.18 11.47-9.31 11.47" fill="#e2e2e2"/></g><g><path d="M1450.94 306.1c4.33-40.06 43.46-67.62 91.09-67.62s86.75 27.56 91.1 67.62h-182.2" fill="#fff"/><g fill="#e2e2e2"><path d="M1452.44 304.77h179.18c-4.96-37.73-42.36-64.96-89.6-64.96-47.22 0-84.62 27.23-89.58 64.96zm182.17 2.66h-185.16l.16-1.47c4.32-39.87 43.19-68.81 92.42-68.81 49.23 0 88.1 28.94 92.42 68.8l.16 1.48"/><path d="M1480.59 264.35c.17 0 .34-.06.49-.17 3.76-3.01 7.85-5.73 12.17-8.08a.78.78 0 1 0-.75-1.38 84.79 84.79 0 0 0-12.4 8.24.78.78 0 0 0 .49 1.39M1513.97 247.93c.06 0 .12 0 .19-.02 18.53-4.66 36.56-4.82 53.6-.47.43.1.85-.15.96-.57a.78.78 0 0 0-.57-.95c-17.3-4.4-35.59-4.25-54.37.47a.78.78 0 0 0 .19 1.54M1603.47 264.35c.23 0 .45-.1.6-.3a.78.78 0 0 0-.11-1.1 86.6 86.6 0 0 0-23.2-13.14.78.78 0 1 0-.56 1.46 85.03 85.03 0 0 1 22.78 12.9c.14.12.32.18.49.18"/></g></g><g><path d="M1219 306.64h67.53v-11.77H1219z" fill="#fff"/><path d="M1219 295.02h67.53v-8.94H1219z" fill="#fff"/><path d="M1219.8 305.85h65.94v-10.19h-65.94zm66.73 1.58H1219a.79.79 0 0 1-.8-.79v-11.77c0-.43.36-.79.8-.79h67.52c.43 0 .79.36.79.8v11.76c0 .44-.36.8-.8.8" fill="#d6d6d6"/><path d="M1219.8 294.23h65.94v-7.36h-65.94zm66.73 1.58H1219a.79.79 0 0 1-.8-.8v-8.93c0-.44.36-.79.8-.79h67.52c.43 0 .79.35.79.8v8.93c0 .44-.36.79-.8.79" fill="#d6d6d6"/><g clip-path="url(#a)" transform="matrix(.07905 0 0 -.07905 934.34 324.6)"><path d="M4100.21 1323.1l-193.73-18.72 4.71 210.27 188.19-4.19.83-187.36" fill="#fff"/><path d="M3920.96 1504.43l-4.23-189.02 173.44 16.76-.75 168.51zm-14.48-210.05a10 10 0 0 0-10 10.22l4.71 210.27c.13 5.52 4.37 9.71 10.22 9.78l188.19-4.19a10 10 0 0 0 9.78-9.95l.83-187.36a10 10 0 0 0-9.04-10l-193.73-18.72c-.32-.03-.64-.05-.96-.05" fill="#d6d6d6"/><path d="M4206.77 1714.08c-4.3.76-8.83-.8-13.36-4.17l-5.82 161-373.88 2.97 9.12-170.29c-7.46 9.94-15.55 15.32-22.9 14.03-16.55-2.93-23.1-38.42-14.65-79.27 8.45-40.85 28.71-71.62 45.26-68.71 2.16.38 4.13 1.34 5.94 2.76 10.28-45.87 29.62-98.14 66.03-131.11 24.44-22.11 68.01-41.39 109.53-42.38 13.93-.32 57.5 8.77 102.45 49.44 24.52 22.19 45.77 61.06 61.66 117.76l.03-.01c16.55-2.91 36.8 27.87 45.25 68.72 8.46 40.85 1.89 76.33-14.66 79.26" fill="#fff"/><path d="M3836.48 1582.4a10.01 10.01 0 0 0 9.75-7.81c12.68-56.52 34.46-100.05 62.99-125.89 20.41-18.46 61.37-38.8 103.07-39.79 10.98-.67 52.31 7.78 95.49 46.85 24.06 21.78 43.82 59.81 58.74 113.05a9.96 9.96 0 0 0 4.94 6.13 9.73 9.73 0 0 0 6.59.99c.15-.02.3-.03.47-.03 7.56 0 25.07 22.03 33.11 60.94 6.53 31.48 2.99 55.41-3.04 64.31-.71 1.05-2.1 2.83-3.56 3.09-1.33.15-3.36-.64-5.65-2.35a10 10 0 1 0-15.96 7.66l-5.48 151.44-353.68 2.81 8.56-159.68a10.01 10.01 0 0 0-17.99-6.54c-6.54 8.72-11.38 10.67-13.18 10.19-1.43-.26-2.83-2.04-3.53-3.07-6.04-8.9-9.56-32.83-3.05-64.33 8.28-40.01 26.73-62.38 33.74-60.88.16.02.65.11 1.48.77a9.96 9.96 0 0 0 6.19 2.14zm176.34-193.5l-1.01.01c-47.06 1.13-92.17 23.4-116.01 44.97-30.16 27.3-52.52 69.52-66.53 125.57l-1.08-.01c-24.17-.01-44.57 37.59-52.71 76.88-6.9 33.39-4.57 63.89 6.09 79.61 5.47 8.08 12.06 10.73 16.61 11.53 3.69.64 8.26.53 13.44-1.56l-7.91 147.45a9.98 9.98 0 0 0 2.77 7.44c1.9 2 4.89 3.01 7.3 3.09l373.89-2.97a9.98 9.98 0 0 0 9.91-9.63l5.32-147.08c2.13.14 4.02.01 5.6-.26l.01-.01c4.56-.8 11.15-3.47 16.63-11.55 10.66-15.73 12.99-46.23 6.08-79.6-7.52-36.4-25.59-71.36-47.44-76.29-15.75-53.36-36.78-92.21-62.58-115.55-45.64-41.3-90.2-52.04-108.38-52.04" fill="#d6d6d6"/><path d="M3641.37 785.2c52.2 110.47 118.7 330.36 118.7 330.36l-134.88 73.43s-146.53-347.4-146.53-444.24c0-41.64 362.52-285.56 362.52-285.56l14.91 42.22-214.72 283.78" fill="#fff"/><path d="M3630.15 1174.9c-24.02-57.95-141.49-345.58-141.49-430.15 3.92-24.82 177.83-155.4 347.39-270.04l8.82 24.96L3629.74 784l2.59 5.46c45.78 96.9 103.46 281.21 115.79 321.23zm216.15-731.22l-10.71 7.21c-86.07 57.92-366.93 250.28-366.93 293.86 0 97.74 141.3 433.86 147.31 448.12l4.3 10.18 151.73-82.6-2.36-7.78c-.65-2.18-65.14-214.72-116.66-326.25l214.33-283.27-21.01-59.47" fill="#d6d6d6"/><path d="M4365.1 785.2c-52.2 110.47-125.5 319.92-125.5 319.92l145.33 83.87s124.2-347.4 124.2-444.24c0-41.64-316.39-286.4-316.39-286.4l-62.91 62.93L4365.1 785.2" fill="#fff"/><path d="M4143.58 521.67l50-50.01c149.76 116.27 303.43 248.84 305.55 273.17 0 84.23-98.4 369.03-119.62 429.48l-127.71-73.7c13.82-39.01 76.64-214.42 122.34-311.16l2.83-5.97zm48.31-76.61l-75.81 75.83 237.17 266.03c-51.62 111.12-122.37 312.84-123.09 314.9l-2.73 7.82 162.88 93.99 4.03-11.28c5.1-14.25 124.79-350.14 124.79-447.6 0-43.2-245.14-236.18-320.27-294.3l-6.97-5.4" fill="#d6d6d6"/><path d="M4217.11 1784.01c6.46 62.15-7.26 117.96-56.63 156.29-9.32 7.24-97.64 60.31-170.94 61.81-18.54.39-38.16-1.75-56.4-4.8-82.69-13.85-135.65-72.64-150.28-146.22-24.13-121.31 47.05-203.74 55.17-220.98.73 18.87 6.22 37.56 4.32 56.51-2.47 24.52-1.24 51.18-.38 75.83 2.74 79.53 83.13 67.1 154.67 63.32 31.84-1.69 61.67 10.57 92.29 17.13 51.7 11.08 53.69 42.83 77.18-47.89 8.27-31.99-.4-68.32-2.03-100.66-.96-19.01-4.25-45.44 8.38-61.62 4.13 8.27 6.06 17.47 9.14 26.17 14.11 39.96 28.79 60.83 35.51 125.11" fill="#fff"/><path d="M3985.2 1992.15c-14.79 0-31.72-1.58-50.41-4.7-74.24-12.43-127.37-64.14-142.13-138.31-17.45-87.79 16.7-153.95 38.62-189.34 1.17 8.88 1.97 17.42 1.12 25.83-2.36 23.32-1.48 47.82-.63 71.51l.21 5.66c.81 23.65 8.21 41.99 22 54.5 28.17 25.57 77.32 22.52 124.89 19.54 6.12-.38 12.25-.76 18.3-1.09 21-1.14 41.24 4.35 62.66 10.14 8.79 2.37 17.87 4.83 27.01 6.79 11.38 2.43 20.39 6.04 27.64 8.93 11.31 4.52 21.11 8.45 30.97 3.45 11.61-5.87 18.13-20.4 30.34-67.54 6.36-24.61 3.53-50.58.8-75.69-1.07-9.78-2.07-19.02-2.52-27.99l-.38-6.58c-.44-7.1-.92-14.94-.61-22.48 3.21 8.91 6.45 16.92 9.61 24.74 10.49 25.98 19.55 48.41 24.47 95.53 6.89 66.21-10.39 114.41-52.81 147.35-7.6 5.9-94.25 58.27-165.01 59.71-1.36.03-2.73.04-4.14.04zm-138.76-403.32l-17.45 37.01c-.91 1.93-3.51 5.93-6.52 10.57-19.36 29.86-70.79 109.17-49.42 216.63 16.44 82.65 75.67 140.27 158.44 154.13 21.68 3.63 41.39 5.3 58.26 4.94 76.56-1.57 167.38-56.55 176.87-63.91 47.65-37 67.98-92.59 60.44-165.22l-.01-.01c-5.21-49.91-15.22-74.7-25.83-100.94-3.34-8.3-6.78-16.81-10.19-26.46a173 173 0 0 1-2.75-8.63c-1.87-6.15-3.78-12.49-6.88-18.69l-7.08-14.17-9.75 12.49c-13.57 17.4-12.07 42.07-10.85 61.91l.37 6.37c.48 9.55 1.57 19.51 2.61 29.15 2.54 23.33 5.17 47.44-.27 68.51-3.63 14.03-13.29 51.3-20.01 54.71-1.8.9-8.55-1.8-14.53-4.19-7.94-3.17-17.82-7.12-30.86-9.91-8.62-1.84-17.45-4.23-25.99-6.54-21.98-5.94-44.66-12.11-68.92-10.8-6.13.32-12.31.71-18.5 1.1-43.38 2.71-88.25 5.51-110.2-14.39-9.77-8.87-14.83-22.08-15.46-40.38l-.2-5.68c-.83-23.03-1.68-46.83.54-68.8 1.28-12.73-.41-24.95-2.04-36.78-1.02-7.32-1.97-14.24-2.24-21.13l-1.58-40.89" fill="#d6d6d6"/><path d="M4005.13 1566.53c11.47.85 38.08.46 45.79 16.47a16.83 16.83 0 0 1 1.25 7.37c-1.23 21.18-30.12 52.42-30.2 52.83a3.26 3.26 0 1 1-4.85-4.38c-.06-.03 28.35-32.48 28.52-48.7.1-1.81-.21-3.3-.73-4.58-3.28-9.99-28.58-12.43-40.02-12.49a3.26 3.26 0 0 1-3.15-3.38 3.3 3.3 0 0 1 2.01-2.88c.42-.19.87-.27 1.38-.26" fill="#d6d6d6"/><path d="M3799.45 593.74s165.6-42.46 406.06-1.35l56.53 427.14s65.1 22.73 87.78 25.67c22.88 2.96 92.25-2.48 92.25-2.48s-35.57 186.49-89.39 240.86c-35.49 35.84-227.19 100.55-227.19 100.55s-45.66-45.66-117.78-45.66c-77.85 0-113.15 44.42-113.15 44.42s-206.65-68.45-244.58-106.77c-53.27-53.78-91.87-208.57-91.87-208.57s51.59 1.69 87.59-9.93c48.97-15.82 84.06-38.25 84.06-38.25l69.69-425.63" fill="#fbfbfb"/><path d="M3808.23 601.99c31.97-6.91 182.56-34.9 388.34-.95l55.56 419.8c.5 3.74 3.06 6.89 6.62 8.14 2.7.93 66.35 23.09 89.78 26.13 17.6 2.28 59.52-.05 81.09-1.48-9.08 42.6-40.93 179.36-84.05 222.91-26.82 27.08-161.19 76.87-217.71 96.23-13.9-11.95-57.33-44.3-120.15-44.3-66.18 0-103.48 30.31-116.1 42.89-61.04-20.52-205.8-73.25-234.52-102.27-42.12-42.53-75.58-154.02-85.94-191.49 18.2-.26 51.45-2.02 77.62-10.47 49.63-16.03 84.9-38.4 86.38-39.34a10 10 0 0 0 4.48-6.81zm189.88-37.38c-123.21 0-200.02 19.15-201.14 19.44a10.02 10.02 0 0 0-7.4 8.08l-68.93 421.07c-10.14 5.99-39.91 22.59-78.02 34.91-33.87 10.93-83.71 9.46-84.19 9.45a9.6 9.6 0 0 0-8.1 3.71 10.02 10.02 0 0 0-1.93 8.7c1.61 6.43 39.9 158.09 94.48 213.2 39.16 39.56 240 106.39 248.54 109.21 3.96 1.3 8.37.02 10.98-3.27 1.31-1.63 33.7-40.64 105.31-40.64 67.2 0 110.28 42.3 110.71 42.73a10 10 0 0 0 10.28 2.4c7.91-2.67 194.35-65.89 231.09-102.98 55.32-55.9 90.63-238.29 92.11-246.03a10 10 0 0 0-2.37-8.54 10.24 10.24 0 0 0-8.24-3.3c-.68.04-68.57 5.35-90.19 2.52-17.56-2.27-63.65-17.63-79.95-23.18l-55.73-421a9.97 9.97 0 0 0-8.22-8.55 1242.7 1242.7 0 0 0-209.09-17.93M4068.54 1494.52a6.53 6.53 0 0 1-9.36 9.08c-28.91-29.48-56.39-24.54-76.32-15.94-13.82 6.23-22.54 14.43-22.52 14.46l-.05-.03a6.5 6.5 0 0 1-9.22-.24 6.53 6.53 0 0 1 .27-9.22c.33-.32 10.29-9.68 26.16-16.84.37-.16.73-.36 1.1-.52 22.32-10.04 57.89-14.25 89.94 19.25M3887.53 1724.95c1 .43 23.91 13.75 53.42 13.92 6.02 0 12.34-.58 18.82-2.09l-5.87-25.16c-4.25 1-8.6 1.41-12.95 1.41-15.93.08-31.49-6.08-37.77-9.09-2.11-1-2.95-1.49-2.95-1.49l-12.7 22.5M4131.1 1724.95c-1 .43-23.91 13.75-53.42 13.92-6.03 0-12.35-.58-18.82-2.09l5.86-25.16c4.25 1 8.61 1.41 12.96 1.41 15.93.08 31.49-6.08 37.77-9.09 2.11-1 2.94-1.49 2.94-1.49l12.71 22.5" fill="#d6d6d6"/><path d="M4221.09 496.45l-429.01-3.7c-136.78-28.55-118.35-166.9-118.35-166.9 8.57-206.95 140.37-748.92 140.37-748.92l157.19 27.93s-54.54 498.75-70.76 692.78l97.08 78.32h58.29l78.2-78.19c-13.55-194.79-68.71-697.58-68.71-697.58l165.19-22.1s124.8 544.26 130.51 751.54c0 151.01-140 166.82-140 166.82" fill="#fff"/><path d="M3793.17 482.75c-125.22-26.76-110.23-150.3-109.52-155.57 7.89-189.79 120.7-666.72 137.97-738.76l138.72 24.66c-7.55 69.32-54.95 506.37-69.77 683.73l-.45 5.28 103.96 83.87h65.96l84.35-84.35-.31-4.54c-12.38-177.82-59.95-617.3-67.69-688.27l146.46-19.6c16.11 71.36 123.02 551.22 128.24 740.7 0 136.48-119.99 155.16-130.58 156.54zm13.43-917.32l-2.22 9.13c-1.32 5.43-132.13 545.31-140.64 750.89-.11.57-17.92 147 126.3 177.07l1.96.22 429.61 3.7.6-.05c1.49-.18 148.88-18.64 148.88-176.76-5.68-206.17-129.51-748.34-130.76-753.79l-2.04-8.9-183.9 24.63 1.06 9.71c.55 4.98 54.45 497.1 68.35 692.64l-72.04 72.04h-50.61l-90.21-72.77c16.55-195.33 69.76-682.3 70.29-687.24l1.02-9.3-175.65-31.22" fill="#d6d6d6"/><path d="M3743.4 440.6h511.2v23.98h-511.2z" fill="#d1d1d1"/><path d="M3706.48 527.52v-35.71l22.86-60.78 21.23 15.25-44.09 81.24" fill="#fff"/><path d="M3723.21 475.72l10.9-28.96 3.46 2.5zm6.13-54.69a9.96 9.96 0 0 0-9.36 6.48l-22.86 60.78a9.89 9.89 0 0 0-.64 3.52v35.71a10 10 0 0 0 18.79 4.77l44.09-81.24a10.01 10.01 0 0 0-2.95-12.89l-21.24-15.26a10.04 10.04 0 0 0-5.83-1.87" fill="#d6d6d6"/><path d="M3740.31 440.48l-33.83 87.04h65.17l8.69-86.92-40.03-.12" fill="#fff"/><path d="M3721.1 517.52l26.04-67.02 22.15.07-6.69 66.95zm19.21-87.04a10 10 0 0 0-9.32 6.38l-33.83 87.04a9.98 9.98 0 0 0 9.32 13.62h65.17c5.14 0 9.45-3.9 9.96-9l8.68-86.93a9.99 9.99 0 0 0-9.92-10.99l-40.03-.12h-.03" fill="#d6d6d6"/><path d="M4291.54 520.38v-35.73l-22.87-60.77-21.23 15.26 44.1 81.24" fill="#fff"/><path d="M4260.43 442.12l3.47-2.5 10.93 29.02zm8.24-28.24c-2.07 0-4.13.64-5.84 1.88l-21.23 15.27a9.98 9.98 0 0 0-2.95 12.9l44.1 81.23a10.02 10.02 0 0 0 18.79-4.78v-35.73c0-1.2-.22-2.39-.65-3.53l-22.87-60.77a9.98 9.98 0 0 0-9.35-6.47" fill="#d6d6d6"/><path d="M4257.71 433.33l33.83 87.05h-65.18l-8.69-86.93 40.04-.12" fill="#fff"/><path d="M4228.71 443.42l22.16-.07 26.05 67.03h-41.51zm29-20.09h-.03l-40.04.12a10 10 0 0 0-9.92 11l8.69 86.93a10 10 0 0 0 9.95 9h65.18a10.01 10.01 0 0 0 9.31-13.62l-33.82-87.05a10 10 0 0 0-9.32-6.38" fill="#d6d6d6"/><path d="M4000.09 849.04h-302.94l46.99-390.68 255.95-1.11 255.94 1.1 46.99 390.69h-302.93" fill="#fff"/><path d="M3753.02 468.32l247.11-1.07 247.02 1.07 44.59 370.72h-583.31zm247.11-21.07l-264.86 1.15-49.4 410.64h628.43l-49.39-410.64-264.78-1.15" fill="#d6d6d6"/><path d="M4270.83 431.03c0-9.85-8.31-17.82-18.57-17.82h-504.35c-10.25 0-18.57 7.97-18.57 17.82 0 9.83 8.32 17.81 18.57 17.81h504.35c10.26 0 18.57-7.98 18.57-17.8" fill="#fff"/><path d="M3747.91 438.84c-4.72 0-8.57-3.51-8.57-7.8 0-4.32 3.85-7.83 8.57-7.83h504.35c4.73 0 8.57 3.5 8.57 7.82 0 4.3-3.84 7.81-8.57 7.81zm504.35-35.63h-504.35c-15.75 0-28.57 12.48-28.57 27.82 0 15.33 12.82 27.81 28.57 27.81h504.35c15.75 0 28.57-12.48 28.57-27.8 0-15.35-12.82-27.83-28.57-27.83M3954.2 1681.2c0-9.04-8.67-16.21-19.2-16.21-10.61 0-19.09 7.17-19.09 16.21 0 8.85 8.48 16.03 19.09 16.03 1.21 0 2.24-.1 3.45-.29 8.86-1.3 15.75-7.92 15.75-15.74M4097.15 1681.2c0-9.04-8.66-16.21-19.19-16.21-10.62 0-19.1 7.17-19.1 16.21 0 8.85 8.48 16.03 19.1 16.03 1.21 0 2.24-.1 3.45-.29 8.85-1.3 15.74-7.92 15.74-15.74" fill="#d6d6d6"/></g></g><g><g clip-path="url(#b)" transform="matrix(.08063 0 0 -.08063 233.85 324.41)"><path d="M936.72 438.63s360.57-223.82 369.52-314.75c8.14-82.84-355.49-667.36-355.49-667.36l-59.04 20S933.8-134.4 1154.38 86.17C981.48 169.43 756.6 313.86 756.6 313.86l180.12 124.77" fill="#fff"/><path d="M902.64-516.62l43.8-14.84C1049.9-364.72 1302.62 58.6 1296.3 122.9c-6.82 69.27-256.39 239.37-359.28 303.77L774.7 314.22c49.89-31.54 236.99-148.23 384.03-219.03l12.7-6.13-9.97-9.96c-198.37-198.37-251.29-539.48-258.8-595.72zm52.41-38.88l-74.15 25.13.87 7.97c.42 3.87 43.7 383.52 255.77 605.64-169.7 83.36-384.14 220.8-386.34 222.2l-12.6 8.11L936.41 450.6l5.58-3.46c37.33-23.17 365.03-229.12 374.19-322.28 8.24-83.8-319.55-613.5-356.95-673.62l-4.19-6.73" fill="#d6d6d6"/><path d="M1581.22 625.71c-7.17 18.17-35.28 44.38-54.05 49.81-22.56 6.53-92.8-15.23-92.8-15.23s-286.42 85.02-316.01 104.77c-4.6 7.38-4.54 28.39-5.67 36.35-4.19 29.18-28.43 164.55-38.79 203.22-10.45 38.98-19.35 88.65-41.76 122.6-16.69 25.3-37.9 41.86-64.42 35.82-51.06-11.68-43.89-74.65-36.48-112.08 10.97-55.53 25.07-110.65 36.84-166.06 10.85-51.07 22.74-102.39 38.55-152.2 7.76-24.4 15.54-53.76 33.25-73.51.37-.73.76-1.3 1.22-1.5 61.93-25.43 349.37-40.9 349.37-40.9 42.7-42.7 110.57 7.14 110.57 7.14l39.2-10.7 23.16-41.57h24.35s-1.53 41.39-6.53 54.04" fill="#fff"/><path d="M1569.28 581.67h7.96c-.93 15.12-2.77 33.93-5.32 40.37-6.14 15.57-31.91 39.36-47.53 43.87-14.37 4.17-61.01-7.09-87.06-15.17a9.96 9.96 0 0 0-5.81-.04c-29.46 8.75-288.73 86.04-318.71 106.04-1.18.8-2.19 1.83-2.94 3.04-4.31 6.93-5.4 18.13-6.38 32.07-.23 3.28-.42 6.16-.7 8.15-3.91 27.24-28.2 163.38-38.55 202.04-2.05 7.63-4.04 15.67-6.07 23.92-8.1 32.73-17.27 69.84-34.38 95.76-16.92 25.64-34.5 35.97-53.85 31.58-31.39-7.19-40.84-40.02-28.89-100.39 6.26-31.72 13.7-63.9 20.88-95.04 5.45-23.6 10.9-47.21 15.93-70.88 9.7-45.67 21.83-99.35 38.3-151.25l2.49-7.96c6.68-21.4 14.24-45.69 28.51-61.72 63.88-23.97 341.02-39.12 343.84-39.26a10.03 10.03 0 0 0 6.54-2.92c36.2-36.2 96.97 7.67 97.59 8.1a9.91 9.91 0 0 0 8.55 1.61l39.2-10.7a10.01 10.01 0 0 0 6.1-4.78zm18.47-20h-24.35a9.96 9.96 0 0 0-8.73 5.14l-21.12 37.89-30.67 8.37c-16.01-10.47-74.5-44.06-116.63-6.05-35.25 1.98-289.29 16.93-348.95 41.43a12.35 12.35 0 0 0-5.61 4.9c-16.78 19.22-24.93 45.37-32.13 68.49l-2.47 7.85c-16.73 52.72-29 107-38.79 153.14-5 23.55-10.43 47.04-15.85 70.54-7.23 31.28-14.7 63.63-21.02 95.66-14.28 72.17.54 113.81 44.06 123.76 28.01 6.39 53.24-7.08 75-40.05 19-28.79 28.61-67.68 37.09-101.99 2.01-8.11 3.96-16.02 5.97-23.53 10.77-40.17 34.97-176.07 39.04-204.4.33-2.35.58-5.73.85-9.58.36-5.12 1.14-16.27 2.69-21.18 28.65-15.64 196.94-68.25 308.2-101.33 17.05 5.16 72.93 20.93 95.63 14.4 21.56-6.24 52.12-34.38 60.56-55.74 5.36-13.57 6.95-50.15 7.22-57.35a10 10 0 0 0-9.99-10.37" fill="#d6d6d6"/><path d="M793.97 1699.21c-106.67 4.11-99.28-179.4-58.94-239.93 78.53-117.89 181.87 24.34 166.62 118.06-8.13 49.89-26.09 107.52-82.72 118.76a159.6 159.6 0 0 1-24.96 3.11" fill="#fff"/><path d="M790.53 1689.28c-24.2 0-42.83-11.39-55.43-33.89-28.7-51.22-19.3-149.23 8.25-190.56 16.05-24.1 42.38-49.96 76.66-36.5 44.58 17.53 80.8 91.92 71.77 147.39-11 67.49-34.76 102.63-74.79 110.57a151.27 151.27 0 0 1-23.41 2.93c-1.02.04-2.05.06-3.05.06zm10.6-284.64c-21.4 0-48.53 10.23-74.42 49.09-31.19 46.8-41.5 153.56-9.06 211.44 16.86 30.09 43.37 45.3 76.7 44.03a169.1 169.1 0 0 0 26.55-3.3c64.77-12.84 82.74-78.6 90.61-126.95 10.51-64.57-31.19-148.4-84.19-169.23a71.84 71.84 0 0 0-26.18-5.08" fill="#d6d6d6"/><path d="M793.5-879.8V224.14a17.82 17.82 0 0 0 35.64 0V-879.8a17.82 17.82 0 0 0-35.64 0" fill="#fff"/><path d="M811.3 231.94a7.8 7.8 0 0 1-7.8-7.8V-879.8c0-4.32 3.5-7.84 7.8-7.84a7.85 7.85 0 0 1 7.84 7.84V224.14c0 4.3-3.52 7.8-7.83 7.8zm0-1139.58a27.86 27.86 0 0 0-27.8 27.84V224.14a27.83 27.83 0 0 0 27.8 27.8 27.85 27.85 0 0 0 27.84-27.8V-879.8a27.87 27.87 0 0 0-27.83-27.84" fill="#d6d6d6"/><path d="M617-915.65a17.79 17.79 0 0 0-13.21 21.43c38.73 163.17 51.77 342.1 51.77 507.97 0 165.88-13.01 318.76-26.02 430.03-12.98 111.28-25.9 180.48-25.92 180.66a17.8 17.8 0 0 0 14.23 20.77 17.83 17.83 0 0 0 20.8-14.24c.09-.66 52.53-281.76 52.53-617.22 0-167.76-13.1-349.1-52.7-516.2a17.82 17.82 0 0 0-17.33-13.7c-1.36 0-2.75.16-4.15.5" fill="#fff"/><path d="M621.15 235.52a7.99 7.99 0 0 1-6.47-3.4 7.73 7.73 0 0 1-1.23-5.83c1.41-7.74 13.77-76.28 26.02-181.35 11.9-101.78 26.09-259.22 26.09-431.19 0-193.12-17.51-364.8-52.04-510.27a7.71 7.71 0 0 1 .95-5.91 7.67 7.67 0 0 1 4.82-3.5l.09-.01c.55-.13 1.44-.05 1.78-.2a7.79 7.79 0 0 1 7.59 6.01c34.79 146.76 52.43 319.66 52.43 513.88 0 317.98-46.93 585.52-52.28 614.98a8.05 8.05 0 0 1-3.35 5.41 7.7 7.7 0 0 1-4.4 1.38zm.03-1161.66h-.04c-2.2 0-4.39.25-6.48.76a27.58 27.58 0 0 0-17.21 12.44 27.62 27.62 0 0 0-3.39 21.04c34.17 143.95 51.5 314.08 51.5 505.65 0 171.02-14.11 327.6-25.95 428.87-12.18 104.45-24.43 172.4-25.79 179.79a27.7 27.7 0 0 0 4.36 21.02 27.6 27.6 0 0 0 17.86 11.6 27.64 27.64 0 0 0 20.81-4.38 27.66 27.66 0 0 0 11.63-17.84c5.47-30.14 52.7-299.32 52.7-619.06 0-195.77-17.82-370.22-52.97-518.49a27.72 27.72 0 0 0-27.03-21.4" fill="#d6d6d6"/><path d="M1068.54 306.77h-512v-68.3h1.8c14.8-18.18 122.38-32.28 252.98-32.28s238.18 14.1 252.98 32.27h4.24v68.31" fill="#fff"/><path d="M566.53 244.28c11.81-11.93 101.95-28.09 244.79-28.09 144.81 0 235.47 16.6 245.23 28.6.58.7 1.25 1.32 1.99 1.84v50.14h-492zm244.79-48.09c-82.46 0-225.36 6.97-257.28 32.58a10 10 0 0 0-7.5 9.7v68.3a10 10 0 0 0 10 10h512a10 10 0 0 0 10-10v-68.3a10 10 0 0 0-10-10h-.34c-32.7-25.36-174.76-32.28-256.88-32.28" fill="#d6d6d6"/><path d="M1066.1 306.77c0-20.2-114.06-36.54-254.78-36.54s-254.79 16.35-254.79 36.54c0 20.18 114.07 36.54 254.79 36.54 140.71 0 254.78-16.36 254.78-36.54" fill="#fff"/><path d="M568.3 306.77c17.1-11.5 106.97-26.54 243.02-26.54s225.93 15.03 243.02 26.54c-17.09 11.51-106.97 26.54-243.02 26.54s-225.93-15.03-243.02-26.54zm243.02-46.54c-44.22 0-264.79 2.24-264.79 46.54s220.58 46.54 264.79 46.54c44.22 0 264.78-2.24 264.78-46.54s-220.56-46.54-264.78-46.54" fill="#d6d6d6"/><path d="M980.44-902.45c-39.68 167.1-52.74 348.44-52.76 516.2.02 335.45 52.47 616.55 52.58 617.23v-.03a17.8 17.8 0 0 0 20.78 14.26 17.82 17.82 0 0 0 14.24-20.77c0-.18-12.94-69.4-25.96-180.66-12.98-111.3-26-264.12-26-430.03 0-165.88 13.02-344.8 51.8-507.97a17.8 17.8 0 0 0-13.23-21.45 17.82 17.82 0 0 0-21.45 13.22" fill="#fff"/><path d="M990.1 229.13c-2.68-14.6-52.4-290.75-52.42-615.38.03-194.45 17.7-367.35 52.5-513.9a7.93 7.93 0 0 1 9.43-5.8 7.78 7.78 0 0 1 5.78 9.42c-34.55 145.37-52.07 317.05-52.07 510.28 0 171.72 14.18 329.26 26.07 431.2 11.35 97.01 22.69 162.62 25.9 180.4.95 5.15-1.85 9.24-6.07 10.02a7.64 7.64 0 0 1-5.87-1.23 7.72 7.72 0 0 1-3.25-5.01zm7.67-1155.28a27.69 27.69 0 0 0-27.06 21.41c-35.16 148.03-53 322.49-53.03 518.49.02 328.09 50.56 607.14 52.72 618.86l1.62-.14-1.59.3a27.57 27.57 0 0 0 11.6 17.87 27.41 27.41 0 0 0 20.86 4.4 27.82 27.82 0 0 0 22.39-31.43l-.31-1.79c-3.18-17.66-14.43-82.75-25.71-179.2-11.83-101.4-25.94-258.12-25.94-428.87 0-191.67 17.33-361.8 51.52-505.65 1.73-7.24.53-14.7-3.38-21.04a27.58 27.58 0 0 0-17.26-12.46 28.1 28.1 0 0 0-6.43-.75" fill="#d6d6d6"/><path d="M949.68 384.37c3.08 72.64 10.75 143.63-23.87 184.08-26.26 30.68-82.96 8.95-129.63 7.94C691.8 574.12 605.9 454.86 622.54 357.3a112.1 112.1 0 0 1 24.93-54.06c24.98-29.77 64.92-47.84 108.85-57.9 3.96-3.48 187.06-164.13 349.19-262.82-105.22-141.97-98.19-624.75-98.19-624.75s4.65-10.68 36.58-22c17.07-6.05 38.78-4.67 38.78-4.67S1260.32-78.06 1260.32 5.2c0 87.03-283.76 354.07-310.64 379.17" fill="#fff"/><path d="M1017.29-639.02c2.28-2.23 9.97-8.7 29.95-15.78 8.97-3.19 20.3-4.1 27.96-4.23 19.97 66.8 175.12 588.2 175.12 664.22 0 66.97-193.27 265.26-307.47 371.86l-3.36 3.15.2 4.59c.31 7.5.68 14.96 1.04 22.38 3.07 62.48 5.96 121.5-22.52 154.77-15.19 17.74-46.21 13.4-79.05 8.79-14.17-1.98-28.82-4.04-42.76-4.34-43.34-.94-87-24.27-119.81-64.02-35.1-42.52-52.03-97.47-44.2-143.39a102.54 102.54 0 0 1 22.74-49.3c21.3-25.4 56.09-43.75 103.42-54.59l2.47-.57 1.9-1.67C770.5 246.2 950.6 88.52 1110.7-8.93l9.35-5.71-6.52-8.8c-97.72-131.85-96.58-574.28-96.25-615.58zm59.85-40.02c-8.29 0-23.47.73-36.58 5.4-33.43 11.83-40.91 23.98-42.41 27.42l-.8 1.85-.03 2c-.29 19.45-5.63 469.31 93.94 621.9-152.34 94.4-318.96 238.6-339.65 256.64-50.42 11.92-88.03 32.32-111.8 60.65a122.27 122.27 0 0 0-27.13 58.8c-8.92 52.27 9.21 111.9 48.49 159.48 36.51 44.24 85.64 70.2 134.8 71.3 12.76.26 26.82 2.23 40.41 4.14 36.74 5.16 74.72 10.48 97.03-15.6 33.65-39.3 30.56-102.18 27.3-168.76-.28-5.86-.58-11.74-.84-17.65 59.33-55.6 310.45-296.1 310.45-383.34 0-83.75-170.79-652.8-178.07-676.98l-2-6.66-6.94-.44c-.29 0-2.59-.15-6.17-.15" fill="#d6d6d6"/><path d="M1097.19 1044.42c-24.6 33.36-50.49 86.21-76.51 133.04l30.03 190.4-125.55 11.62-39.17-144.67a172.14 172.14 0 0 0-35.86-18.09c-23-8.29-36.25-65.74-60.32-87.7l-18.56-101.36 12.33-11.11s-26.78-13.47-9.63-31.57c112.65-6.38 165.43-85.43 275.49-63.2 49.19 52.2 38.44-18.6 56.07 10.4 13.72 22.6 6.83 91.67-8.32 112.24" fill="#fff"/><path d="M779.03 994.67c49.06-3.62 86.47-20.2 122.68-36.27 44.04-19.53 85.7-38 142.71-27.4 14.92 15.3 26.45 21.62 36.99 20.47 8.53-.94 13.64-6.42 16.99-11.32 9.76 22.18 2.92 81.8-9.27 98.34-18.43 25-36.88 59.4-56.41 95.82-6.9 12.87-13.83 25.8-20.78 38.3a10.07 10.07 0 0 0-1.14 6.41l28.37 179.87-106.56 9.86-36.96-136.56a10 10 0 0 0-4.2-5.76c-12.63-8.22-25.04-14.47-37.93-19.11-8.8-3.18-18.34-22.14-26.76-38.86-8.2-16.29-16.65-33.1-27.69-44.4l-16.98-92.71 8.18-7.36a10 10 0 0 0-2.2-16.37c-3.71-1.92-9.23-6.43-9.8-9.85-.16-.9.1-1.94.76-3.1zm231.98-86.86c-44.56 0-80.17 15.8-117.4 32.31-35.68 15.82-72.57 32.18-120.23 34.88a9.95 9.95 0 0 0-6.69 3.1c-8.5 8.96-9.1 17.53-8.13 23.13 1.17 6.7 5.1 12.1 9.21 16.11l-3.21 2.89a9.98 9.98 0 0 0-3.15 9.22l18.57 101.36a9.98 9.98 0 0 0 3.09 5.59c9.57 8.73 17.83 25.15 25.83 41.04 11.07 22.01 21.53 42.81 37.84 48.68a161 161 0 0 1 30.6 15.04l38.16 140.94a9.97 9.97 0 0 0 10.58 7.34l125.55-11.62a10.02 10.02 0 0 0 8.96-11.52l-29.49-187c6.43-11.64 12.85-23.61 19.25-35.54 18.34-34.2 37.3-69.55 54.88-93.41l.01-.01c17.02-23.09 24.82-96.99 8.82-123.36-3.64-5.97-8.36-12.07-15.9-12.07h-.06c-7.84.04-11.73 6.56-14.3 10.87-1.18 1.99-3.38 5.68-4.57 5.8-.25.15-6.31.54-22.51-16.65a10.06 10.06 0 0 0-5.3-2.95 202.93 202.93 0 0 0-40.41-4.17" fill="#d6d6d6"/><path d="M1131.75 982.17c-10.31 19.07-44.57 91.04-48.43 87.19-10.2-10.21-62.28 5.43-73.29 15.38-40.28 36.39-93.66 85.73-131.29 123.35-8.2 8.22-17.33 19.13-17.33 19.13s-51.98-32.85-60.15-42.66c-41.69-50-53-86.35-47.4-145.88 5.36-57.27 12.02-123.13.66-179.75-8.68-43.25-9.54-88.4-21.4-131-19.6-70.38-87.6-145.58-70.87-222.06 49.03-35.17 67.11-45.85 140.34-45.85 49.99 0 102.34 8.56 151.5 16.75 13.71 70.46 3.65 169.82 37.09 235.41.15.28 5.13 10.05 12.35 23.4l12.34-31.58s66.77 54.36 101.22 63.86l-14.13 86.25c3.89 3.59 7.46 6.96 10.36 9.85 25.44 25.45 54.92 50.74 18.43 118.21" fill="#fbfbfb"/><path d="M1078.03 1061.53zM671.28 511.7c46.13-32.96 62.59-41.68 131.31-41.68 47.72 0 97.94 7.98 142.92 15.46 3.9 23.04 5.55 48.93 7.3 76.2 3.49 54.66 7.1 111.2 29.46 155.04 1.32 2.57 6 11.67 12.47 23.6a10.22 10.22 0 0 0 9.41 5.24 10.03 10.03 0 0 0 8.7-6.34l7.42-19c18.69 14.45 57.71 43.25 85.59 54.35l-12.77 77.92a10 10 0 0 0 3.1 8.98c3.78 3.48 7.25 6.75 10.07 9.57l2.87 2.85c24.36 24.23 45.4 45.14 13.82 103.52-2.67 4.95-6.95 13.42-11.88 23.22-8.39 16.64-22.93 45.49-30.07 56.77-22.97-5.7-67.95 11.14-77.67 19.92-24.79 22.4-87.23 79.28-131.65 123.7-4.3 4.3-8.79 9.25-12.19 13.11-22.89-14.72-46.5-31.11-50.55-35.96-39.56-47.46-50.52-81.12-45.12-138.55l.44-4.74c5.34-56.91 11.4-121.41.06-177.92-3.53-17.6-5.8-36.02-8-53.83-3.16-25.7-6.43-52.27-13.57-77.88-7.12-25.59-20.46-51.9-33.36-77.35-22.73-44.82-46.2-91.13-38.1-136.2zm131.31-61.68c-76 0-95.62 11.47-146.17 47.73a9.97 9.97 0 0 0-3.94 5.98c-11.64 53.2 14.14 104.04 39.07 153.21 13.04 25.72 25.35 50 31.93 73.68 6.74 24.18 9.92 49.99 13 74.95 2.24 18.18 4.56 36.98 8.23 55.32 10.76 53.63 4.85 116.58-.36 172.13l-.44 4.74c-5.92 62.91 6.62 101.57 49.67 153.21 8.73 10.48 53.59 39.08 62.5 44.71 4.23 2.65 9.79 1.8 13-2.05.1-.1 8.95-10.67 16.74-18.47 44.1-44.09 106.25-100.71 130.92-123 9.58-8.65 52.18-19.61 59.97-15.35 2.28 2.26 5.52 3.05 8.67 2.56 7.25-1.17 10.51-4.17 43.55-69.74a1109 1109 0 0 1 11.61-22.7c38.7-71.54 7.64-102.42-17.32-127.22l-2.83-2.82a301.3 301.3 0 0 0-6.69-6.45l13.26-80.96c.82-5.04-2.29-9.9-7.21-11.26-26.6-7.33-79.45-47.22-97.57-61.98-2.48-2-5.77-2.72-8.86-1.9a9.98 9.98 0 0 0-6.77 6.01l-4.4 11.28-1.85-3.58c-20.7-40.59-24.17-95.01-27.54-147.65-1.95-30.64-3.8-59.6-8.85-85.55a9.99 9.99 0 0 0-8.18-7.94c-47.48-7.91-101.3-16.89-153.14-16.89" fill="#d6d6d6"/><path d="M910.77 1121.52c-9.65 28.73-25.93 50.17-53.1 51.1-52.35 1.79-61.53-60.92-63.95-99.01-3.61-56.47-4.09-113.37-6.88-169.95-2.6-52.14-4.22-104.8-1.7-156.99 1.3-26.22 1.18-57.5 14.14-81.34l102.28 83.42c-2.96 7.95 2.75 29.03 3.7 37.18 3.42 29.29 14.62 166.36 14.51 206.38-.12 40.36 3.98 90.66-9 129.21" fill="#fbfbfb"/><path d="M855.6 1162.66c-31.08 0-48.07-29.37-51.9-89.68-2.07-32.29-3.12-65.36-4.14-97.33-.77-24.18-1.54-48.36-2.73-72.47-2.32-46.6-4.33-101.56-1.69-156.02l.39-8.67c.79-18.78 1.67-39.6 7.64-57.08l87.6 71.44c-.35 7.06 1.17 15.87 3.13 26.1.63 3.26 1.2 6.13 1.43 8.15 3.19 27.34 14.55 165.16 14.44 205.18-.02 7.9.11 16.18.25 24.67.55 33.73 1.18 71.95-8.72 101.37v.01c-9.8 29.13-24.17 43.61-43.97 44.3-.58.02-1.15.03-1.73.03zm-56.32-507.33a10.02 10.02 0 0 0-8.78 5.23c-12.68 23.31-13.9 51.87-14.96 77.08l-.38 8.54c-2.68 55.34-.65 110.91 1.7 157.98 1.18 24 1.95 48.06 2.71 72.12 1.02 32.13 2.08 65.35 4.16 97.97 4.67 73.43 29.52 110.3 74.29 108.36 28.7-.98 49.64-20.46 62.23-57.9 11-32.7 10.35-72.75 9.77-108.09-.14-8.36-.27-16.51-.25-24.28.11-41.59-11.26-179.15-14.57-207.57-.28-2.38-.92-5.76-1.66-9.6-1.11-5.8-3.72-19.35-2.6-22.97 1.22-3.9.1-8.62-3.06-11.2L805.6 657.58a9.99 9.99 0 0 0-6.32-2.25" fill="#d6d6d6"/><path d="M1344.69 623.8c-10.83 29.12-15.23 60.97-40.22 66.47-17.18 3.3-37.74 4.35-58.82 2.42 3.54 3.85 7.72 7.26 14.36 9.18 8.04 2.31 19.62 2.68 26.27 8.47 4.51 3.95 8.83 16.6 6.11 21.55 1.67-3.04-64.65-19.86-69.04-21.51-3.52-1.34-8.18-2.28-11.37-4.28-5.1-3.19-32.43-23.26-39.5-34.63a124.34 124.34 0 0 1-13.55-8.83c-91 24.83-252.38 71.11-258.9 88.73L792.95 680.6c2.04-3.87 3.83-13.37 6.33-15.26 48.44-36.7 293.09-58.37 337.78-62.05 14.21-2.94 33.94-5.5 38.54-5.5 16.32 0 49.06 9.75 61.77 13.32 10.26 2.87 24.39 12.8 31.64 3.53 8.18-10.5 41.89-37.54 52.8-38.94 27.75-3.62 28.4 33.9 22.88 48.11" fill="#fff"/><path d="M909.4 754.85zm373.13-24.65a9.84 9.84 0 0 0 0 0zm-477.24-56.88l.03-.02-.03.02zm455.8-44.85c5.66 0 11.28-1.91 15.79-7.68 8.18-10.5 38.86-33.84 46.26-35.19 5.73-.78 8.16 1.22 9.76 3.26 5.68 7.24 5.41 23.73 2.47 31.32l-.06.13c-2.22 6-4.19 12.1-6.11 18.08-7.79 24.24-13.49 39.17-26.88 42.12-16.6 3.17-36.49 3.97-55.76 2.22a9.98 9.98 0 1 0-8.28 16.71 43.8 43.8 0 0 0 7.87 6.92c-1.94-.54-3.94-1.09-6.03-1.65-6.81-1.86-11.93-3.23-13.33-3.72a73.5 73.5 0 0 0-4.24-1.4c-1.88-.59-4.23-1.32-5.26-1.96-5.69-3.57-30.77-22.52-36.32-31.45a9.95 9.95 0 0 0-3.6-3.43c-4.24-2.38-8.43-5.1-12.45-8.12a9.97 9.97 0 0 0-8.62-1.64C969.36 704 915.4 726.79 898.71 738.5l-93.67-61.92c.43-1.34.99-3.06 1.43-4.12 38.01-26.68 201.68-48.53 331.41-59.22.41-.04.81-.09 1.21-.17 13.71-2.84 32.9-5.3 36.51-5.3 13.51 0 41.72 8.02 55.28 11.87l3.79 1.07c2.22.63 4.65 1.65 7.14 2.69 5.17 2.13 12.26 5.06 19.28 5.06zm64.25-63.02c-1.57 0-3.18.1-4.82.32-15.24 1.97-50.9 31.8-59.4 42.72-1.86.47-8.22-2.14-11.67-3.57a88.97 88.97 0 0 0-9.39-3.45l-3.72-1.06c-15.53-4.4-44.45-12.62-60.74-12.62-5.61 0-25.81 2.69-39.96 5.58-68.76 5.67-293.37 26.85-342.4 63.99-4.03 3.04-5.7 8.26-7.46 13.78-.58 1.83-1.07 3.64-1.67 4.77a10 10 0 0 0 3.33 13.02l107.08 70.78a10.01 10.01 0 0 0 14.49-3.95c3.63-3.8 31.76-23.06 247.95-82.2 2.81 1.93 5.68 3.76 8.57 5.45 10.41 14.18 38.12 33.67 41.14 35.56 3.24 2.03 6.81 3.14 9.96 4.11 1.11.35 2.2.68 3.17 1.05 1.51.56 4.92 1.5 15.06 4.28 13.14 3.58 42.91 11.68 50.47 14.96a10.02 10.02 0 0 0 15.82-2.26c5.47-9.92-1.1-27.6-8.28-33.89-.22-.2-.45-.39-.68-.57a193.8 193.8 0 0 0 14.16-2.15c25.85-5.69 34-31.07 41.89-55.59 1.82-5.67 3.68-11.47 5.8-17.16 4.59-11.9 6.05-36.23-5.4-50.83-5.67-7.23-13.82-11.07-23.3-11.07" fill="#d6d6d6"/><path d="M1177.04 1715.28c64.42-39.59 130.93-143.11 91.81-220.67-14.91-29.53-48.14-64.58-46.31-100.08 1.27-24.95 25.77-65.12 17.96-75.44-8.85-11.6-31.32-6.27-42.4-11.96-13.24-6.76-14.45-26.76-22.06-39.07-23.11-37.62-49.37-71.27-96.16-48.62-38.85 18.82-94.1 58.99-120.15 91.67-27.16 34.08-51.64 70.06-70.4 109.47-15.93 33.52-30.2 69.51-34.7 106.62-4.43 37.11 1.66 75.44 9.77 111.66 7.3 32.7 17.38 68.13 47.62 86.69 28.16 17.26 64.32 19.36 92.02 36.7 14.92 9.33 30.63 6.05 46.73 1.61 36.73-10.12 71.36-24.66 106.2-39.79 6.46-2.79 14.03-5.06 20.07-8.79" fill="#fff"/><path d="M1025.71 1758.21c-5.76 0-11.21-1.22-16.37-4.44-15.06-9.42-32.07-14.58-48.52-19.55-15.78-4.78-30.68-9.29-43.57-17.2-26.9-16.49-36.03-48.74-43.09-80.34-6.84-30.57-14.11-70.5-9.59-108.29 4.66-38.53 20.5-75.56 33.79-103.53 16.48-34.61 39.12-69.78 69.2-107.51 25.96-32.58 80.79-71.52 116.68-88.9 36.09-17.51 57.13 2.27 83.28 44.84 2.14 3.47 3.81 8.16 5.58 13.12 3.92 10.99 8.35 23.44 20.45 29.63 6.16 3.16 13.61 3.78 20.81 4.38 6.89.57 14.64 1.21 17.7 4.18.4 4.58-4.65 18.22-8.04 27.37-5.31 14.37-10.81 29.22-11.46 42.05-1.47 28.31 15.97 55.07 31.36 78.69 6.1 9.37 11.87 18.21 16.01 26.4 36.07 71.54-28.1 170.76-88.12 207.66h-.01c-3.34 2.06-7.76 3.76-12.03 5.41-2.31.89-4.6 1.78-6.77 2.71-34.64 15.04-68.71 29.37-104.89 39.33-7.93 2.19-15.39 3.99-22.4 3.99zm82.66-556.06c-9.91 0-20.82 2.47-32.85 8.29-38.69 18.75-95.51 59.2-123.6 94.44-31.04 38.94-54.47 75.38-71.62 111.4-13.94 29.34-30.57 68.31-35.59 109.72-4.88 40.82 2.74 82.93 9.93 115.05 7.64 34.21 18.6 72.44 52.15 93.02 15.1 9.26 31.94 14.36 48.23 19.29 15.9 4.81 30.91 9.36 43.71 17.36 18.3 11.44 37.07 7.65 54.7 2.78 37.42-10.31 72.21-24.92 107.52-40.26 1.92-.83 3.96-1.61 6.02-2.4 5.11-1.97 10.4-4.01 15.3-7.04 68.02-41.8 137.26-150.92 95.51-233.69-4.63-9.18-10.69-18.48-17.1-28.32-14.4-22.09-29.28-44.93-28.15-66.74.5-9.78 5.68-23.78 10.25-36.13 7.41-20.03 13.27-35.85 5.7-45.86-8.05-10.54-21.58-11.67-32.46-12.57-5.26-.44-10.7-.89-13.35-2.26-5.05-2.57-7.81-10.32-10.73-18.53-2.04-5.72-4.15-11.65-7.4-16.9-13.85-22.56-37.25-60.64-76.17-60.65" fill="#d6d6d6"/><path d="M1272.03 1667.71c-30 56.9-93.57 106.35-154.15 125.65-118.65 37.8-230.5-30.49-280.36-138.12-34.76-75.03-25.27-188.1 37.23-246.25 17.42-16.21 30.87-36.94 51.46-50.32l.86-.52c.86 15.83 14.54 25.64 25.52 35.19 10.93 9.49 22.33 21.39 29 34.85-10.08 10.29-16.61 27.27-16.45 46.44.29 31.18 18.05 56.28 39.65 56.11 17.6-.15 32.32-16.94 37.1-39.95 3.97-12.37 6.92-25.65 19.29-32.73-5.94 53.31 44.68 86.38 79.01 115.66 17.67 15.06 25.98 32.25 38.37 49.95.25.35 50.38-73.23 54.29-82.4 6.56-15.46 11.29-31.69 13.38-48.43 1.8-14.35-3.1-27.68-1.57-41.37 17.07 2.67 28.52 20.35 38.42 33.04 45.78 58.24 19.52 125.23-11.05 183.2" fill="#fff"/><path d="M1051.83 1793.75c-84.45 0-163.64-52.91-205.24-142.71-31.47-67.95-27.06-177.02 34.97-234.73 6.76-6.29 12.92-13.18 18.87-19.84 6.96-7.82 13.66-15.32 21.13-21.76 5.1 9.69 13.62 16.93 20.94 23.16l3.53 3.02c10.35 8.98 18.2 17.75 23.45 26.14-9.22 12.45-14.5 29.71-14.33 47.69.33 37.1 22.01 66.02 49.41 66.02h.31c21.97-.19 40.68-19.22 46.71-47.42l1.07-3.43.72-2.3c9.24 35.44 40.64 61.13 66.97 82.67 4.62 3.76 9.12 7.45 13.37 11.07 11.97 10.21 19.48 21.85 27.42 34.16 2.96 4.58 5.96 9.23 9.24 13.92l3.38 4.84 5.88-.64c5.27-.56 5.27-.56 33.12-42.16 26.39-39.44 28.58-44.57 29.3-46.26 7.26-17.1 12.01-34.3 14.11-51.11 1.07-8.57.15-16.35-.75-23.88l-.34-2.95c6.05 4.92 11.51 12.11 16.54 18.74l3.58 4.68c41.51 52.78 18.75 114.04-12.01 172.37v.01c-27.86 52.86-87.47 101.39-148.33 120.78-21 6.69-42.18 9.92-63.02 9.92zm-115.66-452.72l-15.3 9.19c-14.22 9.24-24.97 21.29-35.37 32.93-5.9 6.61-11.48 12.86-17.56 18.51-68.59 63.83-73.9 183.51-39.5 257.78 56.24 121.41 176.52 180.4 292.48 143.45 65.52-20.87 129.8-73.33 159.95-130.53 32.29-61.21 58.73-132.13 10.07-194.03l-3.4-4.44c-9.92-13.06-22.26-29.31-41.33-32.31l-10.33-1.61-1.15 10.38c-.88 7.82-.01 15.13.83 22.2.78 6.63 1.52 12.89.75 19.05-1.87 14.97-6.13 30.37-12.67 45.76-2.52 5.75-30.57 47.75-44.85 68.62l-.86-1.33c-8.37-12.99-17.03-26.42-31.25-38.54a861.56 861.56 0 0 0-13.67-11.33c-31.17-25.49-66.48-54.39-61.9-95.62l2.18-19.57-17.08 9.79c-14.5 8.31-19.03 22.88-22.66 34.59l-1.45 4.79c-3.89 18.72-15.15 31.88-27.4 31.98h-.14c-15.73 0-29.19-21.1-29.42-46.2-.13-15.81 4.95-30.52 13.59-39.35l4.96-5.07-3.14-6.36c-6.25-12.61-16.52-25.03-31.4-37.97l-3.7-3.16c-9.18-7.81-17.86-15.19-18.4-25.02l-.88-16.58M1124.44 1282.98a7.43 7.43 0 0 0 2.74 9.74c3.29 1.86 7.38.5 9.12-2.98 11.37-22.8 30.95-22.72 32.59-22.8l.19.03c3.7.05 6.76-3.12 6.83-7.13.07-3.95-2.91-7.21-6.61-7.28l-.22.02-.34-.01c-4.48-.08-29.8 1.52-44.3 30.41" fill="#d6d6d6"/><path d="M1142.53 1486.35c.03-.02 1.57.93 4.72 2.3a63.33 63.33 0 0 0 13.1 3.84c10.79 1.79 24.15 1.15 37.42-8.86a62.98 62.98 0 0 0 10.17-9.94 7 7 0 0 1 10.82 8.86 73.38 73.38 0 0 1-12.55 12.18c-34.47 25.73-70.34 3.84-70.88 3.59l-.03.01a6.98 6.98 0 0 1-2.34-9.6 6.96 6.96 0 0 1 9.57-2.38" fill="#d6d6d6"/><path d="M1167.62 1442.29c-1.28-1.7-4.1-1.78-6.25-.14-2.16 1.64-2.83 4.36-1.52 6.07 1.31 1.72 4.12 1.78 6.26.15 2.15-1.64 2.84-4.35 1.51-6.08M1322.29 359.54h-35.64V-898.33h67.71l35.63 27.42V359.54h-67.7" fill="#fff"/><path d="M1296.65-888.33h54.31l29.03 22.35V349.54h-83.34zm61.11-20h-81.11V369.54h123.34V-875.83l-42.23-32.5" fill="#d6d6d6"/><path d="M1931.63 359.54h-67.71V-870.91l35.64-27.42h67.7V359.54h-35.63" fill="#fff"/><path d="M1902.96-888.33h54.3V349.54h-83.34V-865.98zm74.3-20h-81.1l-42.24 32.5V369.54h123.34V-908.33" fill="#d6d6d6"/><path d="M1240.33 349.55h773.26V462.4h-773.26z" fill="#fbfbfb"/><path d="M1250.33 359.55h753.26v92.84h-753.26zm763.26-20h-773.26a10 10 0 0 0-10 10V462.4a10 10 0 0 0 10 10h773.26a10 10 0 0 0 10-10V349.55a10 10 0 0 0-10-10" fill="#d6d6d6"/><path d="M1158.97 449.33h935.98v79.58h-935.98z" fill="#fff"/><path d="M1168.97 459.33h915.98v59.58h-915.98zm935.98-20h-955.98v99.58h955.98v-99.58" fill="#d6d6d6"/><path d="M1616.25 550.29c0 11.76-12.83 21.38-28.5 21.38H1221.9c-15.67 0-28.5-9.62-28.5-21.38s12.83-21.38 28.5-21.38h365.85c15.67 0 28.5 9.62 28.5 21.38" fill="#fff"/><path d="M1221.9 561.67c-10.59 0-18.5-6-18.5-11.38 0-5.37 7.91-11.38 18.5-11.38h365.85c10.59 0 18.5 6.01 18.5 11.38 0 5.38-7.91 11.38-18.5 11.38zm365.85-42.76H1221.9c-21.23 0-38.5 14.08-38.5 31.38 0 17.31 17.27 31.38 38.5 31.38h365.85c21.23 0 38.5-14.07 38.5-31.38 0-17.3-17.27-31.38-38.5-31.38" fill="#d6d6d6"/><path d="M1865.89 893.87c-9.29 7.21-24.75 2.98-34.37-9.4l-224.45-288.91c-9.62-12.37-9.9-28.41-.6-35.64 9.29-7.2 24.76-2.98 34.38 9.41l224.44 288.9c9.62 12.38 9.88 28.42.6 35.64" fill="#fff"/><path d="M1855.09 887.35c-4.73 0-11-3.01-15.68-9.02l-224.45-288.9c-3.28-4.23-5.21-9.25-5.29-13.79-.03-2.04.3-5.78 2.94-7.83 4.24-3.27 13.86-.72 20.35 7.65l224.43 288.91c6.5 8.36 6.61 18.3 2.36 21.6a7.48 7.48 0 0 1-4.66 1.38zM1617.2 546.46a27.11 27.11 0 0 0-16.86 5.56c-6.95 5.4-10.83 14.13-10.66 23.96.15 8.9 3.52 18.04 9.49 25.71l224.45 288.91c13.02 16.76 34.73 21.78 48.4 11.17h.01c13.66-10.64 14.18-32.91 1.15-49.67l-224.43-288.9c-8.4-10.82-20.41-16.74-31.55-16.74M1168.3 1427.33a13.68 13.68 0 0 0-13.64 13.64c0 7.5 6.13 13.63 13.64 13.63 7.5 0 13.64-6.13 13.64-13.63 0-7.5-6.14-13.64-13.64-13.64" fill="#d6d6d6"/></g></g><g fill="#e2e2e2"><path d="M324.06 148.97v7.3c-.54-.22-.96-.8-1.21-1.65-.36.17-.86.17-1.23-.06a5.4 5.4 0 0 1-4.97 3.73c-1.72 0-2.88-.83-3.55-2.54.28-.23.57-.49.84-.77l-.61-.56c-.53.57-1.75 1.51-2.62 1.51-.94 0-1.96-1-1.96-2.6 0-.43.06-.89.18-1.39h.25c1.23 0 2.32-.55 2.9-1.5l-.7-.42c-1.08 1.74-4.71 1.44-4.71-1.27 0-1.28 1.02-2.55 2.1-3.66.4.25.82.45 1.28.57l.22-.79a3.78 3.78 0 0 1-1.3-.64 3.39 3.39 0 0 1-1.42-2.67c0-1.95 1.53-3.7 6.16-2.6l.18-.79c-.58-.14-1.45-.33-2.32-.4a5.13 5.13 0 0 1-1.46-3.54c0-2.27 1.51-4.3 3.8-5.13.73 1.33 1.66 2.81 1.88 4.63l.81-.09h1.61c.2.2.37.43.56.67.73.9 1.53 1.91 2.87 1.91 1.25 0 1.93-1 2.42-2.09v9.9a.4.4 0 0 0-.11.2c-.13.49-.51 1.32-1.16 1.32-.75 0-1.13-.58-1.67-1.54-.5-.9-1.08-1.92-2.32-1.92-.9 0-1.77.59-2.13 1.42a.4.4 0 0 0 .22.53c.21.1.45 0 .54-.21.22-.53.8-.92 1.37-.92.71 0 1.08.56 1.6 1.5.52.92 1.1 1.96 2.4 1.96.52 0 .94-.25 1.26-.61v2.39c-1.83-.12-3.78.24-5.33 2.55a.4.4 0 1 0 .68.46c1.34-2.01 2.98-2.31 4.65-2.2"/><path d="M324.23 154.65h-1.14v-1.13h1.14zm0 2.27h-1.14v-1.13h1.14zm0 2.27h-1.14v-1.13h1.14zm0 2.27h-1.14v-1.14h1.14zm0 2.27h-1.14v-1.14h1.14zm0 2.27h-1.14v-1.14h1.14zm0 2.27h-1.14v-1.14h1.14zm0 2.27h-1.14v-1.14h1.14zm0 2.27h-1.14v-1.14h1.14zm0 2.27h-1.14v-1.14h1.14zm0 2.26h-1.14v-1.13h1.14zm0 2.27h-1.14v-1.13h1.14v1.13M340.18 145.09c1.08 1.1 2.1 2.38 2.1 3.66 0 2.62-3.56 3.11-4.71 1.27l-.7.43c.59.94 1.66 1.5 2.89 1.5h.27c.11.5.17.96.17 1.38 0 1.6-1.02 2.6-1.97 2.6-.42 0-.9-.17-1.4-.48.17-.58.3-1.23.38-1.95l-.81-.09c-.32 2.72-1.38 4.88-4.1 4.88a5.42 5.42 0 0 1-5.05-3.96c-.3.22-.75.32-1.13.2-.24.9-.68 1.5-1.23 1.75v-7.23l.87.13c1.93.3 3.92.6 4.62-1.8a.41.41 0 0 0-.27-.5.41.41 0 0 0-.51.28c-.48 1.63-1.6 1.54-3.71 1.21l-1-.14v-7.25c.87-.23 1.23-1.23 1.55-2.13.42-1.17.73-1.89 1.5-1.89.3 0 1.17 0 1.17 1.64l-.02.4a.4.4 0 0 0 .38.44c.22.01.42-.16.44-.39l.01-.45c0-1.56-.72-2.45-1.97-2.45-1.41 0-1.9 1.34-2.28 2.42-.27.74-.48 1.28-.78 1.51v-11.72c.13-.27.2-.55.27-.8.16-.59.23-.86 1.01-.86.8 0 1.47.44 1.75 1.13.08.2.32.3.53.22a.4.4 0 0 0 .23-.53c-.4-1-1.36-1.64-2.51-1.64-.64 0-1.03.18-1.28.42v-1.11c.66-1.12 1.36-1.68 2.09-1.68.39 0 .74.4 1.1.83.44.5.93 1.06 1.64 1.06.25 0 .53-.14.92-.34a4.79 4.79 0 0 1 2.04-.64c1.34 0 2.35 1.32 2.35 2.5 0 3.03-2.15 2.28-2.69 6.72l.82.1c.2-1.65.98-3.03 1.66-4.25l.22-.4a5.56 5.56 0 0 1 3.8 5.14 5.2 5.2 0 0 1-1.46 3.55c-.88.06-1.74.25-2.32.39l.18.8c4.72-1.12 6.16.63 6.16 2.59 0 1-.53 2-1.42 2.67-.38.3-.82.51-1.3.64l.22.79c.46-.12.89-.32 1.28-.57M324.06 128.49v3.64l-.05-.02-.3.77c-.48 1.18-1 2.52-2.07 2.52-.94 0-1.57-.78-2.23-1.6l-.6-.72-.6.55-1.6.01c-.37-3.1-5.39-9.22-.34-9.22.76 0 1.5.37 2.04.64.4.2.67.34.92.34.71 0 1.2-.56 1.63-1.06.37-.43.71-.83 1.1-.83.73 0 1.44.56 2.1 1.68v2.95a.42.42 0 0 0 0 .35"/></g><g><path d="M1069.46 219.73l-.05-2.66c.7-.02 1.38-.02 2.08-.02h.62v2.66h-.62l-2.02.02zm7.91.13c-.88-.05-1.76-.08-2.64-.1l.07-2.67c.9.02 1.8.06 2.7.1zm-13.18.07l-.16-2.66c.9-.05 1.8-.1 2.7-.13l.1 2.66-2.64.13zm18.44.3c-.88-.09-1.75-.16-2.63-.22l.19-2.66c.9.06 1.79.14 2.68.22zm-23.7.14l-.27-2.65c.9-.1 1.79-.18 2.68-.26l.22 2.66c-.87.07-1.75.16-2.62.25zm28.95.45l-2.62-.33.3-2.65 2.67.33zm-34.17.21l-.4-2.63c.89-.14 1.78-.26 2.67-.37l.34 2.64c-.88.11-1.75.23-2.61.36zm39.38.6c-.8-.14-1.6-.28-2.41-.4l-.2-.04.41-2.63.22.03 2.44.41zm-44.58.3l-.51-2.61c.88-.18 1.76-.34 2.65-.5l.45 2.63-2.59.48zm49.75.73l-2.58-.54.52-2.62c.89.18 1.76.36 2.64.56zm-54.9.4l-.63-2.59c.87-.2 1.75-.41 2.63-.6l.57 2.6c-.86.19-1.72.39-2.57.6zm60.03.85l-2.56-.65.63-2.6 2.61.68zm-65.1.51l-.75-2.56c.85-.25 1.72-.49 2.59-.72l.68 2.58c-.84.22-1.69.46-2.53.7zm70.18.97l-2.54-.77.75-2.56c.87.25 1.73.51 2.59.78zm-75.2.62l-.86-2.52 2.55-.84.81 2.54c-.84.26-1.67.54-2.5.82zm80.2 1.07c-.82-.3-1.65-.59-2.49-.87l.85-2.53c.86.3 1.71.59 2.55.9zm-85.13.75l-.98-2.48c.84-.33 1.67-.65 2.52-.96l.92 2.5c-.83.3-1.64.62-2.46.94zm90.06 1.16l-2.45-.98.96-2.48c.85.32 1.68.66 2.51 1zm-94.9.88l-1.1-2.43 2.47-1.07 1.04 2.45-2.41 1.05zm99.74 1.25l-2.4-1.09 1.07-2.44 2.46 1.11zm-104.48 1.03l-1.21-2.38 2.42-1.2 1.15 2.41c-.8.38-1.58.77-2.36 1.17zm109.22 1.31l-2.36-1.2 1.18-2.39c.81.4 1.62.81 2.41 1.23zm-113.85 1.18l-1.32-2.32c.78-.44 1.57-.88 2.36-1.3l1.26 2.35c-.77.41-1.54.84-2.3 1.27zM1132.6 236c-.76-.44-1.52-.88-2.3-1.3l1.3-2.34c.78.44 1.57.88 2.34 1.33zm-122.97 1.34l-1.43-2.25c.75-.48 1.52-.95 2.29-1.42l1.38 2.29c-.76.45-1.5.91-2.24 1.38zm127.48 1.42c-.74-.48-1.48-.95-2.23-1.4l1.39-2.28c.77.47 1.53.95 2.28 1.43zm-131.84 1.51l-1.55-2.17 2.22-1.54 1.5 2.22c-.74.49-1.46.99-2.17 1.5zm136.22 1.44a121 121 0 0 0-2.17-1.5l1.49-2.21c.75.5 1.49 1.02 2.22 1.54zm-140.44 1.7l-1.64-2.1c.7-.55 1.42-1.1 2.14-1.63l1.6 2.14a99 99 0 0 0-2.1 1.6zm144.67 1.46c-.7-.55-1.4-1.08-2.1-1.6l1.6-2.14c.72.53 1.43 1.08 2.14 1.63zM997 246.78l-1.75-2.01c.68-.6 1.36-1.18 2.06-1.75l1.7 2.06c-.68.55-1.35 1.12-2 1.7zm152.8 1.44c-.66-.57-1.34-1.14-2.02-1.7l1.7-2.06c.69.57 1.38 1.15 2.06 1.74zm-156.67 2.11l-1.85-1.92 1.96-1.85 1.8 1.97c-.64.59-1.28 1.2-1.9 1.8zm160.6 1.43l-1.95-1.8 1.79-1.98c.67.6 1.33 1.22 1.99 1.84zm-164.28 2.32l-1.95-1.82c.61-.65 1.23-1.3 1.87-1.95l1.9 1.87c-.62.63-1.22 1.26-1.82 1.9zm168.02 1.39c-.6-.63-1.23-1.26-1.85-1.88l1.88-1.9 1.9 1.93zm-171.5 2.55l-2.04-1.7c.57-.7 1.16-1.38 1.76-2.06l2 1.77c-.59.66-1.15 1.32-1.72 2zm175.06 1.34a106.4 106.4 0 0 0-1.75-1.97l1.96-1.8c.61.67 1.21 1.34 1.8 2.02zm-178.32 2.79l-2.13-1.6c.53-.72 1.08-1.44 1.64-2.14l2.1 1.65c-.55.69-1.08 1.38-1.6 2.09zm181.35.83c-.43-.54-.87-1.08-1.32-1.61l2.06-1.7 1.34 1.65zm-184.38 3.46l-2.22-1.47c.5-.76 1.01-1.5 1.53-2.24l2.18 1.54-1.49 2.17zm-2.79 4.46l-2.3-1.35c.46-.78.93-1.55 1.4-2.31l2.27 1.41c-.47.74-.92 1.5-1.37 2.25M1178.46 286.5a13.35 13.35 0 0 1-13.33-13.33c0-7.35 5.98-13.33 13.33-13.33 7.36 0 13.34 5.98 13.34 13.33 0 7.36-5.98 13.34-13.34 13.34" fill="#eee"/><path d="M1180.43 270.07c-.57-.53-1.05-.82-1.79-.82-.83 0-1.34.43-1.34 1.23 0 1.86 4.2 1.49 4.2 4.6 0 1.47-.87 2.55-2.4 2.83v1.59h-1.23v-1.54a4.78 4.78 0 0 1-2.67-1.18l.8-1.2a3.7 3.7 0 0 0 2.29.95c1 0 1.5-.49 1.5-1.32 0-2.04-4.2-1.75-4.2-4.65 0-1.43.9-2.45 2.28-2.7v-1.57h1.23v1.54c1 .12 1.67.6 2.24 1.2l-.9 1.04" fill="#fff"/></g><g><path d="M953.23 63.37a13.35 13.35 0 0 1-13.34-13.33 13.35 13.35 0 0 1 26.67 0c0 7.35-5.98 13.33-13.33 13.33" fill="#eee"/><path d="M955.2 46.93c-.58-.53-1.06-.82-1.8-.82-.83 0-1.34.43-1.34 1.24 0 1.85 4.2 1.48 4.2 4.6 0 1.46-.87 2.54-2.4 2.82v1.6h-1.23v-1.55a4.78 4.78 0 0 1-2.67-1.17l.8-1.2a3.7 3.7 0 0 0 2.29.95c1 0 1.5-.5 1.5-1.33 0-2.04-4.2-1.74-4.2-4.65 0-1.43.9-2.45 2.28-2.7v-1.57h1.24v1.54c.98.12 1.66.6 2.23 1.2l-.9 1.04" fill="#fff"/></g><path d="M557.88 237.28h-2.67v-.97h2.67zm0 5.34h-2.67v-2.67h2.67zm0 5.33h-2.67v-2.67h2.67zm0 5.33h-2.67v-2.66h2.67zm0 5.34h-2.67v-2.67h2.67zm0 5.33h-2.67v-2.67h2.67zm0 5.33h-2.67v-2.66h2.67zm0 5.34h-2.67v-2.67h2.67zm0 5.33h-2.67v-2.67h2.67zm0 5.33h-2.67v-2.66h2.67zm0 5.34h-2.67v-2.67h2.67zm0 5.33h-2.67v-2.67h2.67v2.67" fill="#efefef"/><g fill="#eee"><path d="M556.55 198.57a25.36 25.36 0 0 0-25.34 25.34 25.36 25.36 0 0 0 25.34 25.33 25.36 25.36 0 0 0 25.33-25.33 25.36 25.36 0 0 0-25.33-25.34zm0 53.34c-15.44 0-28-12.56-28-28s12.56-28 28-28 28 12.56 28 28-12.56 28-28 28"/><path d="M560.24 214.04zm-8.22 3.1v.01zm11.83 1.63l-.9 1.16.91-1.14-.01-.02zm-10.21-10.7a4.8 4.8 0 0 0-4.33 2.7 12.73 12.73 0 0 0-.3 10.47c.03-.2.07-.39.13-.54l.12-.3c.22-.57.56-1.44.56-1.94 0-.77.36-1.18.66-1.39.67-.46 1.37-.2 1.67-.08l.06.02.67-.51c1.2-.91 4.87-3.68 5.35-4.2.36-.43.92-.6 1.48-.45 1.21.31 2.97 3.04 3.88 5.1a16.8 16.8 0 0 1-.03-2.46c.14-3.64-1.79-4.44-3.06-4.97-.69-.28-1.34.17-1.37.19-.5.36-1.22.33-1.68-.08a5.74 5.74 0 0 0-3.81-1.56zm-3.46 17.5c-.65 0-1.58-.29-2.54-1.48-1.86-2.3-3.7-8.29-.72-14.5a7.55 7.55 0 0 1 5.37-4.07c2.14-.39 4.36.17 6.22 1.53.8-.3 1.89-.45 3 0 1.48.62 4.93 2.04 4.71 7.55-.08 1.96.08 2.42.1 2.46.15.33.23.67.23 1 0 1.69-2.06 3.16-3.3 3.16-.5 0-.85-.2-1.05-.35-.58-.47-.62-1.13-.64-1.48 0-.1 0-.2-.03-.33-.23-1.1-1.44-3.13-2.23-4.16-.98.81-2.6 2.06-4.81 3.73l-.85.64c-.45.35-.93.44-1.33.45-.16.6-.39 1.18-.57 1.66l-.1.27c-.08.28-.05 1.4.07 2.4.08.67-.36 1.3-1.02 1.45-.14.04-.3.06-.5.06"/><path d="M556.63 229.98c-1.61 0-3.23-.66-4.74-1.95a14.27 14.27 0 0 1-2.64-3.12l2.27-1.41a11.6 11.6 0 0 0 2.09 2.49c1.15.98 2.3 1.43 3.37 1.3.98-.1 1.87-.7 2.64-1.74 1-1.34 1.72-3.39 2.1-5.92l1.3.2h1.34l-.01.19c-.44 3-1.3 5.4-2.58 7.12a6.5 6.5 0 0 1-5.14 2.84"/><path d="M543.56 233.83zm27.91 3.21h-29.6a1.34 1.34 0 0 1-1.33-1.35c0-.4.07-2.48 1.06-3.67.57-.67 2.04-1.27 6.49-2.83l1.74-.61c.77-.28 1.22-.46 1.48-.57.02-.2.04-.56.03-.84l2.67-.11c.03.66 0 1.89-.53 2.64-.2.3-.49.46-.74.59-.37.18-1.01.44-2.01.8l-1.76.62c-1.77.62-4.7 1.65-5.36 2.08-.09.13-.16.34-.22.58h26.57a2.16 2.16 0 0 0-.23-.58c-.66-.43-3.6-1.46-5.37-2.09-3.72-1.3-4.13-1.49-4.5-2-.14-.21-.6-.86-.5-3.4l2.67.1c-.02.57 0 1.24.05 1.63.65.27 2.02.75 3.16 1.16 4.46 1.56 5.94 2.16 6.5 2.83 1 1.2 1.06 3.27 1.07 3.67a1.33 1.33 0 0 1-1.34 1.35"/><path d="M554.4 236.32l-3.44-6.61 2.37-1.23 3.44 6.61-2.37 1.23M560.35 236.07l-2.57-.72 1.9-6.77 2.56.71-1.9 6.78"/></g><g><path d="M199.49 206.57c0-2-.35-3.9-1-5.67l-5.1-.22 2.08-4.93a16.67 16.67 0 0 0-4.28-3.55l-4.4 3.38-1.69-5.45a16.85 16.85 0 0 0-5.4.16l-1.25 5.63-4.83-3.12a16.71 16.71 0 0 0-3.95 3.74l2.6 5-5.4.67a16.53 16.53 0 0 0-.53 5.6l4.83 2-3.38 3.64c.82 1.8 1.96 3.44 3.34 4.83l4.5-1.42-.23 4.52c1.78.9 3.75 1.5 5.83 1.7l2.35-3.69 2.6 3.45a16.54 16.54 0 0 0 5.69-2.31l-.57-4.3 4.33.98a16.53 16.53 0 0 0 2.96-5.25l-3.42-3.13 4.32-2.2v-.06" fill="#fff"/><path d="M176.78 220.56c1.21.53 2.48.9 3.78 1.1l2.92-4.6 3.25 4.29c1.3-.34 2.53-.84 3.7-1.51l-.7-5.35 5.37 1.23a15.1 15.1 0 0 0 1.92-3.39l-4.16-3.81 5.28-2.7a15.15 15.15 0 0 0-.62-3.63l-6.1-.26 2.5-5.91a15.3 15.3 0 0 0-2.65-2.2l-5.2 3.99-1.98-6.45a15.1 15.1 0 0 0-3.29.1l-1.46 6.62-5.68-3.67c-.88.67-1.68 1.44-2.4 2.28l3.09 5.93-6.4.8a15.31 15.31 0 0 0-.32 3.15v.33l5.81 2.4-4.06 4.38c.59 1.11 1.3 2.15 2.14 3.08l5.53-1.75zm5.14 3.93l-.82-.08a17.8 17.8 0 0 1-6.3-1.84l-.77-.4.17-3.46-3.44 1.09-.57-.58a17.9 17.9 0 0 1-3.62-5.22l-.37-.81 2.68-2.88-3.8-1.58-.06-.82a17.87 17.87 0 0 1 .57-6.05l.23-.86 4.39-.55-2.11-4.05.51-.67a18.04 18.04 0 0 1 4.27-4.03l.73-.5 3.95 2.56 1.02-4.62.86-.16c1.91-.38 3.82-.45 5.84-.18l.85.12 1.36 4.43 3.6-2.75.76.45c1.75 1 3.3 2.3 4.63 3.83l.54.63-1.65 3.92 4.07.17.3.84a17.89 17.89 0 0 1 1.08 6.13l-.03.86-.7.38-2.6 1.33 2.64 2.42-.28.83c-.71 2.08-1.8 3.99-3.2 5.68l-.53.62-3.25-.74.43 3.24-.7.46a17.8 17.8 0 0 1-6.15 2.5l-.82.16-1.96-2.58-1.75 2.76" fill="#d6d6d6"/><path d="M178.3 206.53a4.59 4.59 0 1 1 9.18 0 4.59 4.59 0 0 1-9.18 0" fill="#fff"/><path d="M182.89 203.27a3.26 3.26 0 1 0 0 6.52 3.26 3.26 0 0 0 0-6.52zm0 9.18a5.93 5.93 0 1 1 .01-11.86 5.93 5.93 0 0 1-.01 11.86" fill="#d6d6d6"/></g><g><path d="M442.18 253.73h-21.65a1.33 1.33 0 1 1 0-2.67h21.65a1.33 1.33 0 1 1 0 2.67M442.18 260.69h-15.06a1.33 1.33 0 1 1 0-2.67h15.06a1.33 1.33 0 1 1 0 2.67" fill="#eee"/><path d="M471.25 257.95l-20.65-15.78h41.3l-20.65 15.78" fill="#fff"/><path d="M454.54 243.5l16.71 12.77 16.71-12.76zm16.71 15.78c-.28 0-.57-.09-.8-.27l-20.66-15.78a1.33 1.33 0 0 1 .8-2.39h41.32a1.34 1.34 0 0 1 .8 2.4L472.07 259c-.24.18-.52.27-.8.27" fill="#eee"/><path d="M471.25 257.95l20.66-15.78v25.68H450.6v-25.68l20.65 15.78" fill="#fff"/><path d="M451.93 266.52h38.64v-21.65l-18.5 14.14c-.49.36-1.15.36-1.63 0l-18.51-14.14zm39.98 2.67H450.6c-.74 0-1.34-.6-1.34-1.34v-25.68a1.33 1.33 0 0 1 2.15-1.06l19.84 15.16 19.85-15.16a1.33 1.33 0 1 1 2.14 1.06v25.68c0 .74-.6 1.34-1.33 1.34" fill="#eee"/><path d="M471.25 252.08l-20.65 15.77h41.3l-20.65-15.77" fill="#fff"/><path d="M454.54 266.52h33.42l-16.7-12.76zm37.37 2.67H450.6a1.33 1.33 0 0 1-.81-2.4l20.65-15.77a1.33 1.33 0 0 1 1.62 0l20.66 15.77a1.33 1.33 0 0 1-.81 2.4" fill="#eee"/></g><path d="M1432.87 215.44a27.39 27.39 0 0 1-43.07-16.13l22.8-5.01a4.05 4.05 0 0 0 6.38 2.39l13.89 18.75" fill="#fff"/><path d="M1404.86 232.46h-2.67v-2.67h2.67zm0 5.33h-2.67v-2.67h2.67zm0 5.33h-2.67v-2.66h2.67zm0 5.34h-2.67v-2.67h2.67zm0 5.33h-2.67v-2.67h2.67zm0 5.33h-2.67v-2.66h2.67zm0 5.34h-2.67v-2.67h2.67zm0 5.33h-2.67v-2.67h2.67zm0 5.33h-2.67v-2.66h2.67zm0 5.34h-2.67v-2.67h2.67zm0 5.33h-2.67v-2.67h2.67zm0 5.33h-2.67v-2.66h2.67zm0 5.34h-2.67v-2.67h2.67zm0 5.33h-2.67v-2.67h2.67zm0 4.05h-2.67v-1.38h2.67v1.38" fill="#efefef"/><g><path d="M1404.53 226.94a20.45 20.45 0 0 0-20.2 23.7l8.06-1.83a12.28 12.28 0 0 1 18.26-12l4.87-6.69a20.61 20.61 0 0 0-10.99-3.18zm-22.26 26.9l-.3-1.3a23.22 23.22 0 0 1 18.35-27.87 23.26 23.26 0 0 1 17.88 4.05l1.07.78-8 10.97-1.07-.78a9.6 9.6 0 0 0-14.98 9.85l.29 1.3-13.24 3" fill="#e2e2e2"/><path d="M1426.36 246.48a21.77 21.77 0 0 1-8.97 18.6l-6.42-8.83a10.91 10.91 0 0 0 4.49-9.3l10.9-.47" fill="#fff"/><path d="M1412.8 256.49l4.86 6.7a20.38 20.38 0 0 0 7.38-15.32l-8.26.36a12.17 12.17 0 0 1-3.99 8.26zm4.3 10.45l-7.99-10.98 1.08-.79a9.55 9.55 0 0 0 3.94-8.16l-.06-1.33 13.56-.6.06 1.34a23.04 23.04 0 0 1-9.52 19.74l-1.07.78" fill="#e2e2e2"/><path d="M1420.96 225.48a27.39 27.39 0 0 1 10.95 20.45l-23.3 1.28a4.06 4.06 0 0 0-1.62-3.03l13.97-18.7" fill="#fff"/><path d="M1408.75 244.04c.43.53.75 1.13.95 1.77l20.77-1.14a26.22 26.22 0 0 0-9.26-17.3zm-1.4 4.57l-.07-1.33a2.74 2.74 0 0 0-1.09-2.03l-1.07-.8 15.57-20.83 1.07.8a28.81 28.81 0 0 1 11.48 21.44l.08 1.33-25.97 1.42" fill="#e2e2e2"/><path d="M1421.57 231.45a23.4 23.4 0 0 1 5.7 10.67l-14.26.78 8.56-11.45" fill="#fff"/><path d="M1379.42 254.32a26.16 26.16 0 0 0 5.33 10.05 26.14 26.14 0 0 0 34.23 4.77l-12.38-16.72a5.36 5.36 0 0 1-6.14-1.49 5.3 5.3 0 0 1-.72-1.08zm25.17 21.84a28.82 28.82 0 0 1-21.87-10.06 28.82 28.82 0 0 1-6.22-12.5l-.29-1.3 25.4-5.59.29 1.3a2.72 2.72 0 0 0 4.28 1.6l1.07-.79 15.48 20.9-1.07.8a28.9 28.9 0 0 1-17.07 5.64" fill="#e2e2e2"/><path d="M1394.69 268.58a23.16 23.16 0 0 1-11.7-12.25l15.57-3.43a8.06 8.06 0 0 0 6.92 2.6l9.5 12.8a23.38 23.38 0 0 1-20.29.28" fill="#fff"/></g><path d="M1127.54 164.62h-2.66v-3.33h2.66zm0 6.66h-2.66v-3.33h2.66zm0 6.65h-2.66v-3.33h2.66zm0 6.66h-2.66v-3.33h2.66zm0 6.66h-2.66v-3.33h2.66zm0 6.65h-2.66v-3.33h2.66zm0 6.66h-2.66v-3.33h2.66zm0 6.66h-2.66v-3.33h2.66zm0 6.65h-2.66v-3.32h2.66zm0 6.66h-2.66v-3.33h2.66zm0 6.66h-2.66v-3.33h2.66zm0 6.66h-2.66v-3.33h2.66zm0 6.65h-2.66v-3.33h2.66zm0 6.66h-2.66v-3.33h2.66zm0 6.66h-2.66v-3.33h2.66zm0 6.65h-2.66v-3.32h2.66zm0 6.66h-2.66v-3.33h2.66zm0 6.66h-2.66v-3.33h2.66zm0 6.65h-2.66v-3.32h2.66zm0 6.66h-2.66v-3.33h2.66zm0 6.66h-2.66v-3.33h2.66zm0 6.39h-2.66v-3.06h2.66v3.06" fill="#ededed"/><g><path d="M1147.61 250.59c0 2.55-1.66 4.63-3.72 4.63h-33.46c-2.05 0-3.72-2.08-3.72-4.63V174c0-2.56 1.67-4.64 3.72-4.64h33.46c2.06 0 3.72 2.08 3.72 4.64v76.58" fill="#fff"/><path d="M1110.43 171.03c-1.31 0-2.38 1.34-2.38 2.98v76.58c0 1.63 1.07 2.97 2.38 2.97h33.46c1.32 0 2.39-1.34 2.39-2.97V174c0-1.64-1.07-2.98-2.39-2.98zm33.46 85.86h-33.46c-2.78 0-5.05-2.83-5.05-6.3V174c0-3.48 2.27-6.3 5.05-6.3h33.46c2.79 0 5.06 2.82 5.06 6.3v76.58c0 3.47-2.27 6.3-5.06 6.3" fill="#ededed"/><path d="M1111.26 242.56h31.81v-62.02h-31.81z" fill="#fff"/><path d="M1112.59 240.9h29.15v-58.7h-29.15zm31.81 3.32h-34.48v-65.35h34.48v65.35M1120.78 250.52h12.76v-3.33h-12.76z" fill="#ededed"/></g><g><path d="M1618.88 218.55a13.35 13.35 0 0 1-13.34-13.33 13.35 13.35 0 0 1 26.67 0c0 7.35-5.98 13.33-13.33 13.33" fill="#fff"/><g fill="#e2e2e2"><path d="M1618.88 193.22c-6.62 0-12 5.38-12 12 0 6.61 5.38 12 12 12 6.61 0 12-5.39 12-12 0-6.62-5.39-12-12-12zm0 26.67a14.68 14.68 0 0 1-14.67-14.67c0-8.09 6.58-14.67 14.67-14.67 8.08 0 14.66 6.58 14.66 14.67s-6.58 14.67-14.66 14.67"/><path d="M1620.84 202.11c-.57-.52-1.05-.82-1.79-.82-.83 0-1.34.44-1.34 1.24 0 1.85 4.2 1.48 4.2 4.6 0 1.46-.87 2.55-2.4 2.82v1.6h-1.23V210a4.78 4.78 0 0 1-2.67-1.17l.8-1.2a3.7 3.7 0 0 0 2.29.95c1 0 1.5-.5 1.5-1.33 0-2.04-4.2-1.74-4.2-4.64 0-1.44.9-2.46 2.28-2.7v-1.58h1.24v1.54c.98.13 1.66.6 2.23 1.2l-.9 1.04"/></g></g><g fill="#e2e2e2"><path d="M510.63 274.58c-6.62 0-12 5.38-12 12s5.38 12 12 12 12-5.38 12-12-5.38-12-12-12zm0 26.67a14.68 14.68 0 0 1-14.66-14.67c0-8.09 6.58-14.66 14.66-14.66 8.09 0 14.67 6.57 14.67 14.66s-6.58 14.67-14.67 14.67"/><path d="M512.6 283.47c-.57-.52-1.05-.81-1.8-.81-.82 0-1.33.43-1.33 1.23 0 1.85 4.2 1.48 4.2 4.6 0 1.47-.87 2.55-2.4 2.83v1.59h-1.23v-1.55a4.77 4.77 0 0 1-2.67-1.17l.8-1.2a3.7 3.7 0 0 0 2.28.95c1 0 1.5-.5 1.5-1.32 0-2.04-4.2-1.75-4.2-4.65 0-1.44.9-2.46 2.29-2.7v-1.58h1.23v1.55c1 .12 1.67.6 2.24 1.2l-.9 1.03"/></g><g><path d="M42.56 171.06a13.35 13.35 0 0 1-13.33-13.34c0-7.35 5.98-13.33 13.33-13.33s13.34 5.98 13.34 13.33c0 7.36-5.99 13.34-13.34 13.34" fill="#fff"/><g fill="#d6d6d6"><path d="M42.56 145.72c-6.62 0-12 5.39-12 12 0 6.62 5.38 12 12 12s12-5.38 12-12c0-6.61-5.38-12-12-12zm0 26.67a14.68 14.68 0 0 1-14.66-14.67c0-8.08 6.58-14.66 14.66-14.66 8.09 0 14.67 6.58 14.67 14.66 0 8.1-6.58 14.67-14.67 14.67"/><path d="M44.53 154.62c-.57-.53-1.05-.82-1.8-.82-.82 0-1.33.43-1.33 1.23 0 1.86 4.2 1.48 4.2 4.6 0 1.47-.87 2.55-2.4 2.83v1.59h-1.23v-1.54a4.76 4.76 0 0 1-2.67-1.18l.8-1.2a3.7 3.7 0 0 0 2.28.95c1 0 1.5-.49 1.5-1.32 0-2.04-4.2-1.75-4.2-4.65 0-1.44.9-2.46 2.29-2.7v-1.58h1.23v1.55c1 .12 1.67.6 2.24 1.2l-.91 1.04"/></g></g><g><path d="M406.9 187.6c-1.51 0-2.86.57-3.91 1.4-3.37 2.68-4.56 8.57-.74 13.8 1.46 1.99 3.55 3.28 5.77 4.65 2.54 1.57 5.37 3.31 7.5 6.38 2.14-3.07 4.96-4.81 7.51-6.38 2.21-1.37 4.3-2.66 5.77-4.66 3.82-5.22 2.62-11.1-.74-13.79-2.48-1.97-6.6-2.38-10.72 2.38-.26.3-.5.62-.72.94l-1.1 1.58-1.1-1.58a11.1 11.1 0 0 0-.72-.94c-2.37-2.74-4.74-3.77-6.8-3.77zm8.62 31.84l-1.2-2.4c-1.83-3.7-4.68-5.46-7.7-7.33-2.34-1.44-4.75-2.93-6.52-5.34-4.77-6.51-3.12-13.99 1.23-17.46 3.25-2.58 8.9-3.45 14.2 2.5 5.3-5.95 10.94-5.08 14.19-2.5 4.35 3.47 6 10.95 1.23 17.46-1.77 2.41-4.18 3.9-6.52 5.34-3.02 1.87-5.87 3.63-7.71 7.33l-1.2 2.4" fill="#cacaca"/><path d="M415.52 191.56c-.24-.36-.51-.7-.8-1.05-9.7-11.23-21.55 2.15-13.54 13.07 3.74 5.12 10.82 5.78 14.34 12.87 3.53-7.1 10.6-7.75 14.35-12.87 8-10.92-3.84-24.3-13.54-13.07-.29.34-.56.7-.8 1.05" fill="#fff"/><path d="M415.52 214.13c2.13-3.16 5.01-4.94 7.6-6.54 2.23-1.38 4.34-2.68 5.81-4.7 3.89-5.3 2.66-11.3-.77-14.02a6.4 6.4 0 0 0-5.7-1.21c4.14 2.89 5.92 9.78 1.42 15.92-2.65 3.61-6.94 5.03-10.48 8.03.76.74 1.48 1.56 2.12 2.52" fill="#efefef"/></g><path d="M131.4 252.6a21.66 21.66 0 1 1-43.32-.01 21.66 21.66 0 0 1 43.32 0" fill="#eee"/><path d="M109.74 232.26a20.35 20.35 0 0 0-20.33 20.33c0 11.2 9.12 20.33 20.33 20.33 11.2 0 20.33-9.12 20.33-20.33 0-11.2-9.12-20.33-20.33-20.33zm0 43.33c-12.68 0-23-10.32-23-23s10.32-23 23-23 23 10.32 23 23-10.32 23-23 23" fill="#e1e1e1"/><path d="M109.61 263.12l-9.76-7.98 2.54-3.1 6.2 5.09 8.07-13.12 3.4 2.1-10.45 17.01" fill="#fff"/><g><g fill="#e1e1e1"><path d="M208.75 280.59c.3.44.9.57 1.34.28a.97.97 0 1 0-1.34-.28M224.2 267.9l.08-.12a1.45 1.45 0 0 1 1.85-.4l-.18-1.94.25-.03.2 2.1 1.55 1.15.16.17 1.97-.1.02.26-1.77.09a1.47 1.47 0 0 1-.22 1.8c-.07-.1-.17-.16-.25-.25.53 1.25.5 2.7-.19 3.95-.69-1.75-2.14-3.35-4.61-4.7-.77-.43-1.5-.76-2.2-1a4.55 4.55 0 0 1 3.33-.97"/><path d="M210.9 275.18a12.38 12.38 0 0 0-1.9 7.25 6.5 6.5 0 0 0 2.96 5.22c1.81 1.12 4.26 1.34 6.73.61a10.74 10.74 0 0 0 6.07-4.57c1.6-2.6 2.33-4.88 2.18-6.78-.18-2.2-1.52-4.04-4.1-5.62-4.98-3.07-8.33-1.97-11.93 3.9zm4.97 16.17a10.1 10.1 0 0 1-5.3-1.42c-2.48-1.52-3.98-4.1-4.24-7.29-.23-2.91.59-6.05 2.3-8.85 2.76-4.47 7.36-9.84 15.6-4.78 3.32 2.04 5.12 4.62 5.37 7.69.2 2.5-.64 5.25-2.57 8.39a13.44 13.44 0 0 1-11.16 6.26"/><path d="M214.14 275.36a1.13 1.13 0 1 0 1.94 1.18 1.13 1.13 0 0 0-1.94-1.18M221.83 279.58a1.13 1.13 0 1 0 1.94 1.18 1.13 1.13 0 0 0-1.94-1.18M218.87 286.57a1.13 1.13 0 1 0 1.94 1.18 1.13 1.13 0 0 0-1.94-1.18M217.9 272.4a.97.97 0 1 0 1.62-1.05.97.97 0 0 0-1.63 1.05M225.63 276.47a.97.97 0 1 0 1.63-1.05.97.97 0 0 0-1.63 1.05M212 289.38l-2.13-1.6 13.24-17.67 2.13 1.6-13.23 17.67"/></g></g><g><path d="M1552.7 267.05a.97.97 0 1 1-1.62-1.05.97.97 0 0 1 1.63 1.05" fill="#e1e1e1"/><g fill="#e1e1e1"><path d="M1569.59 271.16a.97.97 0 1 1-1.63-1.05.97.97 0 0 1 1.63 1.05M1559.47 277.14a1.14 1.14 0 0 1-1.93 1.19 1.13 1.13 0 0 1 1.93-1.19M1560.45 262.98a.97.97 0 1 1-1.63-1.05.97.97 0 0 1 1.63 1.05M1554.15 258.49a1.45 1.45 0 0 0-1.93-.54l.17-1.94-.25-.02-.2 2.1-1.55 1.14c-.06.05-.1.12-.16.18l-1.98-.1v.26l1.76.08a1.47 1.47 0 0 0 .22 1.8c.07-.09.17-.16.25-.25-.54 1.25-.5 2.71.18 3.96.7-1.76 2.15-3.36 4.62-4.71.77-.42 1.5-.75 2.2-1a4.55 4.55 0 0 0-3.34-.96"/><path d="M1560.32 260.2c-1.45 0-3.03.56-4.82 1.66-2.58 1.59-3.92 3.43-4.1 5.62-.15 1.9.58 4.19 2.18 6.79a10.74 10.74 0 0 0 6.07 4.57c2.47.73 4.92.5 6.73-.61 3.96-2.43 3.65-8.25 1.05-12.47-2.3-3.76-4.51-5.56-7.1-5.56zm2.15 21.72a13.44 13.44 0 0 1-11.17-6.26c-1.92-3.13-2.76-5.87-2.56-8.39.25-3.06 2.05-5.65 5.36-7.68 8.25-5.06 12.86.3 15.6 4.77 3.74 6.1 2.9 13.18-1.92 16.14a10.1 10.1 0 0 1-5.3 1.42"/><path d="M1564.2 265.93a1.13 1.13 0 1 1-1.94 1.19 1.13 1.13 0 0 1 1.94-1.19M1556.5 270.15a1.14 1.14 0 0 1-1.92 1.2 1.13 1.13 0 0 1 1.93-1.2M1566.33 279.95l-13.23-17.66 2.13-1.6 13.24 17.66-2.14 1.6"/></g></g><path d="M90.14 103.37h-2.67v-1.75h2.67zm0 3.5h-2.67v-1.75h2.67zm0 3.5h-2.67v-1.76h2.67zm0 3.49h-2.67v-1.75h2.67zm0 3.5h-2.67v-1.76h2.67zm0 3.49h-2.67v-1.75h2.67zm0 3.5h-2.67v-1.75h2.67zm0 3.49h-2.67v-1.75h2.67zm0 3.5h-2.67v-1.75h2.67zm0 3.49h-2.67v-1.75h2.67zm0 3.5h-2.67v-1.75h2.67zm0 3.5h-2.67v-1.76h2.67zm0 3.49h-2.67v-1.75h2.67zm0 3.5h-2.67v-1.76h2.67zm0 3.49h-2.67v-1.75h2.67zm0 3.5h-2.67v-1.76h2.67zm0 3.49h-2.67v-1.75h2.67zm0 3.5h-2.67v-1.75h2.67zm0 3.49h-2.67v-1.75h2.67v1.75" fill="#cacaca"/></svg>