<?xml version="1.0" encoding="UTF-8" standalone="no"?>
<svg xmlns="http://www.w3.org/2000/svg" height="64.667" width="86.137" version="1.1" viewBox="0 0 22.790291 17.109799"><g transform="translate(53.351 -140.28)"><g transform="matrix(.35278 0 0 -.35278 -47.722 149.41)"><path stroke-linejoin="round" d="m0 0v16.377c0 2.884 2.36 5.244 5.244 5.244h33.909c2.884 0 5.244-2.363 5.244-5.244v-20.619c0-2.874-2.37-5.245-5.244-5.245h-6.537l-4.305-5.976-4.305 5.976h-5.679" stroke="#f93" stroke-linecap="round" stroke-miterlimit="22.926" fill="none"/></g><g transform="matrix(.35278 0 0 -.35278 -51.43 149.27)"><path stroke-linejoin="round" d="m0 0h4.995c0.659 0 1.196-0.537 1.196-1.196v-15.264c0-0.658-0.537-1.196-1.196-1.196h-4.995c-0.657 0-1.195 0.538-1.195 1.196v15.264c0 0.659 0.538 1.196 1.195 1.196z" stroke="#4f8bcc" stroke-linecap="round" stroke-miterlimit="22.926" fill="none"/></g><g transform="matrix(.35278 0 0 -.35278 -49.246 154.91)"><path stroke-linejoin="round" d="m0 0 6.543-2.015c1.304-0.4 2.424-0.764 3.788-0.764h6.673c1.601 0 2.957 0.98 3.473 2.497l3.558 10.486c0.328 0.967 0.183 1.944-0.411 2.774-0.597 0.83-1.474 1.283-2.496 1.283h-8.593c3.473 4.179 3.906 12.587-0.834 12.89-2.697-9.535-6.796-12.523-11.701-12.523" stroke="#4f8bcc" stroke-linecap="round" stroke-miterlimit="22.926" fill="none"/></g><g transform="matrix(.35278 0 0 -.35278 -37.79 146.18)"><path stroke-linejoin="round" d="m0 0h3.93m-17.213 0h9.895" stroke="#f93" stroke-linecap="round" stroke-miterlimit="22.926" fill="none"/></g><g transform="matrix(.35278 0 0 -.35278 -42.476 144.33)"><path stroke-linejoin="round" d="m0 0h22.306" stroke="#f93" stroke-linecap="round" stroke-miterlimit="22.926" fill="none"/></g><g transform="matrix(.35278 0 0 -.35278 -42.476 148.04)"><path stroke-linejoin="round" d="m0 0h17.213" stroke="#f93" stroke-linecap="round" stroke-miterlimit="22.926" fill="none"/></g></g></svg>
