<?xml version="1.0" encoding="UTF-8" standalone="no"?>
<svg xmlns="http://www.w3.org/2000/svg" height="64.667" width="64.667" version="1.1" viewBox="0 0 17.109721 17.109722"><g transform="translate(50.51 -140.28)"><g transform="matrix(.35278 0 0 -.35278 -41.955 141.6)"><path d="m0 0c-6.722 0-13.015-3.335-16.82-8.797v8.297c0 0.276-0.224 0.5-0.5 0.5-0.277 0-0.5-0.224-0.5-0.5v-10c0-0.276 0.223-0.5 0.5-0.5h9.999c0.277 0 0.5 0.224 0.5 0.5 0 0.277-0.223 0.5-0.5 0.5h-9.099c3.563 5.57 9.77 9 16.42 9 10.752 0 19.5-8.748 19.5-19.5s-8.748-19.5-19.5-19.5-19.5 8.748-19.5 19.5c0 0.276-0.224 0.5-0.5 0.5s-0.5-0.224-0.5-0.5c0-11.304 9.196-20.5 20.5-20.5s20.5 9.196 20.5 20.5-9.196 20.5-20.5 20.5" fill="#4f8bcc"/></g><g transform="matrix(.35278 0 0 -.35278 -37.951 151.3)"><path d="m0 0c-0.084 0-0.17 0.021-0.249 0.066l-11.293 6.482c-0.155 0.09-0.251 0.256-0.25 0.436l0.063 16.644c0.001 0.275 0.225 0.498 0.5 0.498h0.002c0.276-0.001 0.499-0.226 0.498-0.502l-0.063-16.353 11.042-6.337c0.239-0.138 0.322-0.443 0.184-0.683-0.092-0.161-0.261-0.251-0.434-0.251" fill="#f93"/></g></g></svg>
