<?xml version="1.0" encoding="UTF-8" standalone="no"?>
<svg xmlns="http://www.w3.org/2000/svg" height="64.69" width="82.23" version="1.1" viewBox="0 0 21.756712 17.115929"><g transform="translate(354.84 19.231)"><g transform="matrix(.35278 0 0 -.35278 -353.34 -12.472)"><path stroke-linejoin="round" d="m0 0 16.602 6.941c-1.991 2.864-14.417 3.109-16.602-6.941z" stroke="#4f8bcc" stroke-linecap="round" stroke-miterlimit="22.926" fill="none"/></g><g transform="matrix(.35278 0 0 -.35278 -342.1 -9.7164)"><path stroke-linejoin="round" d="m0 0-12.816 13.561c3.091 1.878 14.971-3.117 12.816-13.561z" stroke="#4f8bcc" stroke-linecap="round" stroke-miterlimit="22.926" fill="none"/></g><g transform="matrix(.35278 0 0 -.35278 -346.58 -14.407)"><path stroke-linejoin="round" d="m0 0c1.189 9.127-8.397 11.17-12.338 8.04z" stroke="#4f8bcc" stroke-linecap="round" stroke-miterlimit="22.926" fill="none"/></g><g transform="matrix(.35278 0 0 -.35278 -346.55 -14.573)"><path stroke-linejoin="round" d="m0 0 13.365 3.3c-1.619 2.649-10.73 4.435-13.365-3.3z" stroke="#4f8bcc" stroke-linecap="round" stroke-miterlimit="22.926" fill="none"/></g><g transform="matrix(.35278 0 0 -.35278 -349.2 -3.6163)"><path stroke-linejoin="round" d="m0 0c-3.609 10.97-1.964 24.608 5.222 32.032" stroke="#4f8bcc" stroke-linecap="round" stroke-miterlimit="22.926" fill="none"/></g><g transform="matrix(.35278 0 0 -.35278 -345.22 -3.6163)"><path stroke-linejoin="round" d="m0 0c-10.389 8.991-8.77 25.071-3.85 30.59" stroke="#4f8bcc" stroke-linecap="round" stroke-miterlimit="22.926" fill="none"/></g><g transform="matrix(.35278 0 0 -.35278 -340.71 -13.238)"><path stroke-linejoin="round" d="m0 0c2.559-1.478 3.436-4.749 1.958-7.309-0.469-0.813-1.145-1.488-1.958-1.957" stroke="#f93" stroke-linecap="round" stroke-miterlimit="22.926" fill="none"/></g><g transform="matrix(.35278 0 0 -.35278 -339.41 -15.483)"><path stroke-linejoin="round" d="m0 0c6.073-3.507 8.154-11.271 4.647-17.344-1.114-1.931-2.716-3.532-4.647-4.646" stroke="#f93" stroke-linecap="round" stroke-miterlimit="22.926" fill="none"/></g><g transform="matrix(.35278 0 0 -.35278 -338.12 -17.727)"><path stroke-linejoin="round" d="m0 0c9.587-5.535 12.872-17.793 7.336-27.38-1.759-3.048-4.288-5.576-7.335-7.334" stroke="#f93" stroke-linecap="round" stroke-miterlimit="22.926" fill="none"/></g></g></svg>
