<?xml version="1.0" encoding="UTF-8" standalone="no"?>
<svg xmlns="http://www.w3.org/2000/svg" height="64.667" width="72.365" version="1.1" viewBox="0 0 19.146667 17.109722"><g transform="translate(534.96 159.08)"><g transform="matrix(.35278 0 0 -.35278 -518.56 -157.76)"><path d="m0 0h-22.913c-2.23 0-4.044-1.814-4.044-4.043v-5.389c0-0.276 0.224-0.5 0.5-0.5 0.277 0 0.5 0.224 0.5 0.5v5.389c0 1.678 1.366 3.043 3.044 3.043h22.913c1.678 0 3.043-1.365 3.043-3.043v-13.934c0-1.678-1.365-3.043-3.043-3.043h-8.548c-0.16 0-0.311-0.077-0.406-0.208l-2.503-3.475-2.503 3.475c-0.094 0.131-0.245 0.208-0.406 0.208h-8.488c-0.276 0-0.5-0.224-0.5-0.5s0.224-0.5 0.5-0.5h8.232l2.76-3.831c0.094-0.13 0.245-0.207 0.405-0.207 0.161 0 0.312 0.077 0.406 0.208l2.759 3.83h8.292c2.229 0 4.043 1.814 4.043 4.043v13.934c0 2.229-1.814 4.043-4.043 4.043" fill="#f93"/></g><g transform="matrix(.35278 0 0 -.35278 -525.37 -155.55)"><path d="m0 0h10.195c0.276 0 0.5 0.224 0.5 0.5s-0.224 0.5-0.5 0.5h-10.195c-0.276 0-0.5-0.224-0.5-0.5s0.224-0.5 0.5-0.5" fill="#f93"/></g><g transform="matrix(.35278 0 0 -.35278 -519.12 -155.55)"><path d="m0 0c0.276 0 0.5 0.224 0.5 0.5s-0.224 0.5-0.5 0.5h-4.049c-0.277 0-0.5-0.224-0.5-0.5s0.223-0.5 0.5-0.5z" fill="#f93"/></g><g transform="matrix(.35278 0 0 -.35278 -525.37 -153.7)"><path d="m0 0h17.735c0.276 0 0.5 0.224 0.5 0.5s-0.224 0.5-0.5 0.5h-17.735c-0.276 0-0.5-0.224-0.5-0.5s0.224-0.5 0.5-0.5" fill="#f93"/></g><g transform="matrix(.35278 0 0 -.35278 -525.37 -151.84)"><path d="m0 0h11.563c0.277 0 0.5 0.224 0.5 0.5s-0.223 0.5-0.5 0.5h-11.563c-0.276 0-0.5-0.224-0.5-0.5s0.224-0.5 0.5-0.5" fill="#f93"/></g><g transform="matrix(.35278 0 0 -.35278 -525.67 -143.64)"><path d="m0 0-0.542 5.565c-0.026 0.275-0.278 0.472-0.546 0.449-0.275-0.027-0.476-0.271-0.449-0.546l0.533-5.468h-14.972l0.532 5.468c0.027 0.275-0.174 0.519-0.449 0.546-0.273 0.024-0.519-0.174-0.546-0.449l-0.542-5.565h-4.59c0.077 1.614 0.389 6.587 1.374 8.715 1.086 2.343 4.612 3.821 7.445 5.009l0.184 0.077c0.477-0.65 1-1.178 1.568-1.467 0.653-0.331 1.446-0.485 2.496-0.485 1.051 0 1.843 0.154 2.496 0.485 0.568 0.289 1.091 0.817 1.568 1.467l0.186-0.078c2.833-1.188 6.358-2.666 7.443-5.008 0.985-2.128 1.297-7.101 1.374-8.715zm-14.823 24.296c1.484-1.819 2.811-2.428 4.007-2.428 1.271 0 2.394 0.677 3.4 1.283 1.856 1.119 3.196 1.926 5.104-0.968-0.057-0.415-0.13-0.841-0.224-1.276-0.48-2.227-2.124-6.765-3.924-7.681-0.507-0.257-1.157-0.377-2.044-0.377s-1.536 0.12-2.043 0.377c-1.802 0.916-3.445 5.454-3.925 7.681-0.265 1.226-0.384 2.394-0.351 3.389m6.319 6.062c5.267 0 6.149-4.592 6.233-5.116 0.073-0.46 0.09-0.995 0.076-1.56-2.14 2.482-4.041 1.349-5.737 0.326-2.08-1.252-3.881-2.325-6.704 1.698 0.334 1.3 1.629 4.652 6.132 4.652m12.6-21.222c-1.248 2.694-4.971 4.255-7.963 5.509l-0.014 0.006c1.279 2.166 2.112 5.067 2.323 6.044 0.386 1.786 0.48 3.412 0.274 4.705-0.097 0.61-1.124 5.958-7.22 5.958-5.497 0-6.869-4.34-7.157-5.641-0.003-0.013-0.006-0.025-0.008-0.038-0.027-0.122-0.046-0.225-0.055-0.279-0.206-1.293-0.111-2.919 0.274-4.704 0.211-0.978 1.044-3.879 2.323-6.045l-0.012-0.005c-2.992-1.255-6.716-2.816-7.965-5.511-1.265-2.73-1.479-9.34-1.488-9.62-0.004-0.135 0.047-0.266 0.141-0.363s0.224-0.152 0.359-0.152h27.177c0.135 0 0.264 0.055 0.358 0.152 0.095 0.097 0.146 0.228 0.142 0.363-0.009 0.28-0.224 6.89-1.489 9.621" fill="#4f8bcc"/></g></g></svg>
