<?xml version="1.0" encoding="UTF-8" standalone="no"?>
<svg xmlns="http://www.w3.org/2000/svg" height="64.667" width="74.451" version="1.1" viewBox="0 0 19.698406 17.109722"><g transform="translate(51.805 -140.28)"><g transform="matrix(.35278 0 0 -.35278 -33.782 145.24)"><path d="m0 0c0-1.521-1.285-2.806-2.806-2.806h-31.825c-0.161 0-0.312-0.077-0.406-0.208l-2.308-3.205-2.307 3.205c-0.094 0.131-0.245 0.208-0.406 0.208h-3.475c-1.521 0-2.805 1.285-2.805 2.806v6.625c0 1.483 1.206 2.689 2.688 2.689h40.961c1.483 0 2.689-1.206 2.689-2.689zm-2.689 10.314h-40.961c-2.034 0-3.688-1.655-3.688-3.689v-6.625c0-2.099 1.707-3.806 3.805-3.806h3.219l2.563-3.56c0.094-0.131 0.246-0.208 0.406-0.208 0.161 0 0.312 0.077 0.406 0.208l2.563 3.56h31.57c2.063 0 3.806 1.743 3.806 3.806v6.625c0 2.034-1.655 3.689-3.689 3.689" fill="#f93"/></g><g transform="matrix(.35278 0 0 -.35278 -48.407 143.5)"><path d="m0 0h12.357c0.277 0 0.5 0.224 0.5 0.5s-0.223 0.5-0.5 0.5h-12.357c-0.276 0-0.5-0.224-0.5-0.5s0.224-0.5 0.5-0.5" fill="#f93"/></g><g transform="matrix(.35278 0 0 -.35278 -40.823 143.14)"><path d="m0 0h-4.908c-0.277 0-0.5-0.224-0.5-0.5s0.223-0.5 0.5-0.5h4.908c0.276 0 0.5 0.224 0.5 0.5s-0.224 0.5-0.5 0.5" fill="#f93"/></g><g transform="matrix(.35278 0 0 -.35278 -35.879 143.14)"><path d="m0 0h-9.181c-0.276 0-0.5-0.224-0.5-0.5s0.224-0.5 0.5-0.5h9.181c0.276 0 0.5 0.224 0.5 0.5s-0.224 0.5-0.5 0.5" fill="#f93"/></g><g transform="matrix(.35278 0 0 -.35278 -41.614 144.69)"><path d="m0 0h-19.256c-0.277 0-0.5-0.224-0.5-0.5s0.223-0.5 0.5-0.5h19.256c0.276 0 0.5 0.224 0.5 0.5s-0.224 0.5-0.5 0.5" fill="#f93"/></g><g transform="matrix(.35278 0 0 -.35278 -38.034 155.71)"><path d="m0 0c-0.066 1.368-0.32 5.28-1.156 7.083-0.054 0.117-0.135 0.222-0.201 0.334 0.613 0.3 1.243 0.578 1.822 0.82 0.293-0.375 0.613-0.681 0.959-0.857 0.436-0.221 0.96-0.324 1.649-0.324s1.213 0.103 1.65 0.324c0.346 0.176 0.666 0.482 0.959 0.857 1.743-0.73 3.904-1.64 4.553-3.038 0.568-1.229 0.773-4.039 0.834-5.199zm-4.359 0-0.414 4.254c-0.027 0.275-0.277 0.472-0.546 0.45-0.275-0.027-0.476-0.271-0.449-0.546l0.405-4.158h-11.471l0.405 4.158c0.026 0.275-0.175 0.519-0.45 0.546-0.279 0.023-0.519-0.175-0.546-0.45l-0.414-4.254h-3.377c0.068 1.362 0.318 5.062 1.059 6.663 0.832 1.793 3.566 2.94 5.764 3.861l0.072 0.031c0.369-0.491 0.773-0.891 1.21-1.113 0.527-0.267 1.162-0.391 2.001-0.391 0.84 0 1.476 0.124 2.003 0.391 0.437 0.222 0.841 0.622 1.21 1.112l0.071-0.03c2.197-0.921 4.932-2.068 5.763-3.861 0.741-1.601 0.992-5.301 1.061-6.663zm-28.093 5.198c0.648 1.399 2.809 2.309 4.552 3.04 0.293-0.376 0.613-0.682 0.96-0.858 0.436-0.221 0.959-0.324 1.649-0.324 0.689 0 1.213 0.103 1.65 0.324 0.346 0.176 0.666 0.482 0.959 0.857 0.578-0.242 1.208-0.519 1.82-0.82-0.066-0.112-0.147-0.217-0.202-0.334-0.835-1.803-1.089-5.715-1.154-7.083h-11.068c0.061 1.16 0.265 3.969 0.834 5.198m3.438 10.411c0.049 0.312 0.576 3.05 3.723 3.05s3.674-2.738 3.723-3.05c0.112-0.701 0.054-1.642-0.164-2.65-0.344-1.601-1.384-4.191-2.362-4.688-0.291-0.146-0.671-0.215-1.197-0.215s-0.906 0.068-1.196 0.215c-0.978 0.497-2.018 3.087-2.363 4.689-0.218 1.006-0.276 1.947-0.164 2.649m13.075 2.992c1.109-1.266 2.121-1.702 3.03-1.702 1.035 0 1.939 0.545 2.707 1.008 1.443 0.869 2.401 1.446 3.824-0.693-0.044-0.308-0.1-0.625-0.17-0.947-0.359-1.67-1.652-5.243-3.012-5.934-0.381-0.192-0.873-0.282-1.55-0.282-0.675 0-1.168 0.09-1.548 0.282-1.36 0.691-2.653 4.264-3.013 5.934-0.181 0.838-0.266 1.63-0.268 2.334m4.829 4.927c4.03 0 4.704-3.509 4.768-3.909 0.045-0.278 0.061-0.593 0.064-0.924-1.668 1.738-3.187 0.824-4.441 0.068-1.571-0.947-2.934-1.757-5.068 1.258 0.273 1.024 1.284 3.507 4.677 3.507m10.46-7.919c0.05 0.312 0.577 3.05 3.723 3.05 3.147 0 3.674-2.738 3.724-3.05 0.111-0.701 0.053-1.642-0.164-2.65-0.346-1.601-1.386-4.191-2.363-4.688-0.29-0.146-0.671-0.215-1.197-0.215s-0.906 0.069-1.196 0.215c-0.977 0.497-2.017 3.087-2.363 4.689-0.218 1.005-0.276 1.946-0.164 2.649m11.792-9.99c-0.788 1.699-3.031 2.682-4.901 3.468 0.733 1.308 1.214 2.942 1.369 3.662 0.247 1.141 0.307 2.185 0.174 3.018-0.23 1.445-1.482 3.892-4.711 3.892s-4.48-2.447-4.71-3.892c-0.133-0.835-0.073-1.878 0.173-3.018 0.156-0.72 0.637-2.355 1.37-3.663-0.598-0.252-1.238-0.534-1.867-0.852-1.31 1.433-3.505 2.384-5.38 3.171 0.976 1.699 1.609 3.898 1.771 4.651 0.305 1.41 0.379 2.697 0.216 3.72-0.281 1.766-1.81 4.752-5.756 4.752-3.768 0-5.328-2.721-5.706-4.504-0.002-0.009-0.004-0.017-0.005-0.027-0.016-0.074-0.032-0.15-0.044-0.221-0.163-1.023-0.088-2.31 0.216-3.72 0.163-0.753 0.795-2.952 1.771-4.651-1.875-0.787-4.069-1.737-5.38-3.17-0.628 0.317-1.268 0.599-1.865 0.85 0.733 1.309 1.214 2.944 1.369 3.664 0.246 1.141 0.306 2.185 0.174 3.018-0.23 1.445-1.482 3.892-4.711 3.892s-4.481-2.447-4.711-3.892c-0.133-0.834-0.072-1.877 0.175-3.018 0.155-0.72 0.635-2.354 1.368-3.662-1.87-0.786-4.113-1.769-4.901-3.468-0.808-1.746-0.944-5.927-0.949-6.104-0.004-0.135 0.047-0.266 0.141-0.363s0.223-0.152 0.359-0.152h45.401c0.135 0 0.265 0.055 0.359 0.152s0.145 0.228 0.141 0.363c-0.006 0.177-0.142 4.358-0.95 6.104" fill="#4f8bcc"/></g></g></svg>
