<?xml version="1.0" encoding="UTF-8" standalone="no"?>
<svg xmlns="http://www.w3.org/2000/svg" height="64.667" width="85.032" version="1.1" viewBox="0 0 22.498049 17.109722"><g transform="translate(53.204 -140.28)"><g transform="matrix(.35278 0 0 -.35278 -32.206 153.88)"><path stroke-linejoin="round" d="m0 0h-55.274v-2.848c0-1.568 1.282-2.85 2.849-2.85h49.576c1.568 0 2.849 1.282 2.849 2.85z" stroke="#4f8bcc" stroke-linecap="round" stroke-miterlimit="22.926" fill="none"/></g><g transform="matrix(.35278 0 0 -.35278 -50.572 153.88)"><path stroke-linejoin="round" d="m0 0v32.091c0 1.218 0.992 2.211 2.211 2.211h44.43c1.219 0 2.211-0.993 2.211-2.211v-32.091" stroke="#4f8bcc" stroke-linecap="round" stroke-miterlimit="22.926" fill="none"/></g><g transform="matrix(.35278 0 0 -.35278 -36.531 147.83)"><path stroke-linejoin="round" d="m0 0v0c-2.025-2.578-3.682-2.812-8.254-2.812l-5.771-9.267h-3.416l2.374 9.301-8.075 0.544-2.459-3.826h-3.787l2.48 6.061-2.48 6.06h3.787l2.459-3.826 8.075 0.542-2.374 9.303h3.416l5.771-9.266c4.572 0 6.229-0.234 8.254-2.813v0z" stroke="#f93" stroke-linecap="round" stroke-miterlimit="22.926" fill="none"/></g></g></svg>
