<?xml version="1.0" encoding="UTF-8" standalone="no"?>
<svg xmlns="http://www.w3.org/2000/svg" height="64.667" width="72.583" version="1.1" viewBox="0 0 19.204163 17.109722"><g transform="translate(19.429 -97.945)"><g transform="matrix(.35278 0 0 -.35278 -1.7246 113.73)"><path d="m0 0h-45.937c-0.276 0-0.5 0.224-0.5 0.5v40c0 0.276 0.224 0.5 0.5 0.5s0.5-0.224 0.5-0.5v-39.5h45.437c0.276 0 0.5-0.224 0.5-0.5s-0.224-0.5-0.5-0.5" fill="#4f8bcc"/></g><g fill="#f93"><path d="m-14.358 111.51h-1.5212v-10.088h1.5212zm0.17639-10.44h-1.8743c-0.09737 0-0.17639 0.079-0.17639 0.17639v10.44c0 0.0974 0.07902 0.17639 0.17639 0.17639h1.8743c0.09737 0 0.17639-0.079 0.17639-0.17639v-10.44c0-0.0974-0.07902-0.17639-0.17639-0.17639"/><path d="m-10.61 111.5h-1.5212v-3.4551h1.5212zm0.17639-3.8079h-1.8743c-0.09737 0-0.17639 0.079-0.17639 0.17639v3.8079c0 0.0974 0.07902 0.17639 0.17639 0.17639h1.8743c0.09737 0 0.17639-0.079 0.17639-0.17639v-3.8079c0-0.0974-0.07902-0.17639-0.17639-0.17639"/><path d="m-6.8616 111.5h-1.5212v-7.4037h1.5212zm0.17639-7.7565h-1.8743c-0.097367 0-0.17639 0.079-0.17639 0.17639v7.7565c0 0.0974 0.079022 0.17639 0.17639 0.17639h1.8743c0.09737 0 0.17639-0.079 0.17639-0.17639v-7.7565c0-0.0974-0.07902-0.17639-0.17639-0.17639"/><path d="m-3.1134 111.51h-1.5212v-4.801h1.5212zm0.17639-5.1537h-1.874c-0.09772 0-0.17639 0.0787-0.17639 0.17639v5.1537c0 0.0974 0.07867 0.17639 0.17639 0.17639h1.874c0.09772 0 0.17639-0.079 0.17639-0.17639v-5.1537c0-0.0977-0.07867-0.17639-0.17639-0.17639"/></g></g></svg>
