<?xml version="1.0" encoding="UTF-8" standalone="no"?>
<svg xmlns="http://www.w3.org/2000/svg" height="37.826" width="184" version="1.1" viewBox="0 0 48.683333 10.00804"><g fill-rule="evenodd" fill="#4f8acc" transform="matrix(1.0563 0 0 1.0563 -102.41 -205.95)"><path d="m109.02 200.78c0.0009-0.0499 0.0139-0.0947 0.0375-0.1349 0.0235-0.0406 0.0558-0.0726 0.0955-0.0967 0.04-0.0244 0.085-0.0371 0.1346-0.0385 0.0502 0.001 0.0961 0.0141 0.1364 0.0385 0.0405 0.0241 0.0731 0.0561 0.0969 0.0967 0.0238 0.0402 0.0363 0.085 0.0363 0.1349v0.5649c0.0009 0.0264 0.007 0.0497 0.0187 0.0701 0.0119 0.0207 0.0281 0.0368 0.0491 0.049 0.0201 0.0119 0.0436 0.0181 0.0697 0.0184 0.0266-0.0003 0.0496-0.007 0.07-0.0184 0.021-0.0122 0.0374-0.0283 0.0496-0.049 0.0119-0.0204 0.0176-0.0437 0.0182-0.0701v-0.56c-0.0006-0.0757-0.0148-0.1463-0.0426-0.212-0.0277-0.0661-0.0666-0.1242-0.1165-0.1744-0.0496-0.0507-0.1074-0.0895-0.1729-0.1179-0.0657-0.0283-0.1369-0.0428-0.2129-0.0434-0.049 0.0006-0.0955 0.007-0.1406 0.0207-0.0445 0.0125-0.087 0.0304-0.127 0.0519v-0.4351c-0.0002-0.0261-0.007-0.0493-0.0195-0.0697-0.0125-0.0213-0.0286-0.0372-0.0499-0.0494-0.021-0.0119-0.0445-0.0181-0.0706-0.0184-0.0255 0.0003-0.0482 0.006-0.0692 0.0184-0.0204 0.0122-0.0371 0.0281-0.049 0.0494-0.0125 0.0204-0.019 0.0436-0.0193 0.0697v1.4751c0 0.006 0.0003 0.0125 0.002 0.0185 0.0006 0.006 0.002 0.0113 0.003 0.0164 0.009 0.0298 0.0258 0.0539 0.0496 0.0731 0.023 0.019 0.0514 0.0287 0.0828 0.0295 0.0261-0.0003 0.0496-0.007 0.0706-0.0184 0.0213-0.0122 0.0374-0.0283 0.0499-0.049 0.013-0.0204 0.0193-0.0437 0.0195-0.0701zm1.5651-0.5477h-0.0627v-0.3625c-0.0003-0.0261-0.006-0.0493-0.0187-0.0697-0.0119-0.0213-0.0281-0.0372-0.0488-0.0494-0.0204-0.0119-0.0439-0.0181-0.07-0.0184-0.0266 0.0003-0.0496 0.006-0.0708 0.0184-0.021 0.0122-0.0375 0.0281-0.0502 0.0494-0.0125 0.0204-0.0184 0.0436-0.0193 0.0697v0.3625h-0.0723c-0.0261 0.0006-0.0493 0.007-0.07 0.0185-0.0207 0.0122-0.0368 0.0283-0.0493 0.049-0.0122 0.0207-0.0176 0.044-0.0182 0.0703 0.0006 0.0252 0.006 0.0482 0.0182 0.0686 0.0125 0.0207 0.0286 0.0374 0.0493 0.0496s0.0439 0.0187 0.07 0.019h0.0723v0.6976c0.001 0.0513 0.0136 0.0978 0.038 0.1392 0.0252 0.0419 0.0584 0.0751 0.1003 0.1003 0.0417 0.0247 0.0879 0.0372 0.1395 0.038 0.0261-0.0003 0.0496-0.007 0.07-0.0184 0.0207-0.0122 0.0372-0.0283 0.0491-0.049 0.0121-0.0204 0.0181-0.0437 0.0181-0.0701 0-0.0266-0.006-0.0496-0.0181-0.0711-0.0119-0.0207-0.0284-0.0371-0.0491-0.0499-0.0204-0.0122-0.0439-0.0187-0.07-0.019v-0.6976h0.0627c0.0249-0.0003 0.0487-0.007 0.0691-0.019 0.0216-0.0122 0.038-0.0289 0.051-0.0496 0.0125-0.0204 0.0193-0.0434 0.0193-0.0686 0-0.0263-0.007-0.0496-0.0193-0.0703-0.013-0.0207-0.0294-0.0368-0.051-0.049-0.0204-0.0119-0.0442-0.0179-0.0691-0.0185zm0.7296 0h-0.0624v-0.3625c-0.0003-0.0261-0.006-0.0493-0.0184-0.0697-0.0122-0.0213-0.0283-0.0372-0.0493-0.0494-0.0201-0.0119-0.0434-0.0181-0.0698-0.0184-0.0266 0.0003-0.0496 0.006-0.0711 0.0184-0.0207 0.0122-0.0374 0.0281-0.0499 0.0494-0.0122 0.0204-0.0187 0.0436-0.019 0.0697v0.3625h-0.0726c-0.0263 0.0006-0.0493 0.007-0.0697 0.0185-0.021 0.0122-0.0374 0.0283-0.0496 0.049-0.0119 0.0207-0.0176 0.044-0.0184 0.0703 0.0008 0.0252 0.007 0.0482 0.0184 0.0686 0.0122 0.0207 0.0286 0.0374 0.0496 0.0496 0.0204 0.0122 0.0434 0.0187 0.0697 0.019h0.0726v0.6976c0.0006 0.0513 0.0133 0.0978 0.0377 0.1392 0.0252 0.0419 0.0584 0.0751 0.1001 0.1003 0.0419 0.0247 0.0884 0.0372 0.1397 0.038 0.0261-0.0003 0.0496-0.007 0.07-0.0184 0.021-0.0122 0.0369-0.0283 0.0488-0.049 0.0122-0.0204 0.0184-0.0437 0.0187-0.0701-0.0003-0.0266-0.007-0.0496-0.0187-0.0711-0.0119-0.0207-0.0278-0.0371-0.0488-0.0499-0.0204-0.0122-0.0439-0.0187-0.07-0.019v-0.6976h0.0624c0.0255-0.0003 0.049-0.007 0.0697-0.019 0.021-0.0122 0.038-0.0289 0.0508-0.0496 0.0124-0.0204 0.0192-0.0434 0.0195-0.0686-0.0003-0.0263-0.007-0.0496-0.0195-0.0703-0.0128-0.0207-0.0298-0.0368-0.0508-0.049-0.0207-0.0119-0.0442-0.0179-0.0697-0.0185zm0.5978 1.7201c0.0269-0.0003 0.051-0.007 0.072-0.0193 0.0216-0.013 0.0388-0.0292 0.0513-0.0493 0.0122-0.0204 0.0187-0.0422 0.019-0.0655v-0.4385c0.0451 0.0326 0.0972 0.0581 0.1545 0.0754 0.057 0.0182 0.1176 0.0269 0.1803 0.0272 0.0836-0.0003 0.1624-0.0167 0.235-0.0487 0.0728-0.0321 0.1366-0.0763 0.1924-0.133 0.0553-0.0567 0.0984-0.1224 0.1296-0.1975 0.032-0.0749 0.0476-0.1554 0.0479-0.2421-0.0003-0.0865-0.0159-0.1673-0.0479-0.2432-0.0312-0.0754-0.0743-0.1421-0.1296-0.1999-0.0558-0.0575-0.1196-0.1029-0.1924-0.1355-0.0726-0.0329-0.1514-0.0496-0.235-0.0502-0.0638 0.0006-0.125 0.0103-0.1826 0.029-0.0581 0.0187-0.1108 0.0433-0.1573 0.0737-0.004-0.0187-0.0119-0.0355-0.0244-0.0508-0.0133-0.0159-0.0289-0.028-0.0487-0.0377-0.0193-0.009-0.0406-0.0136-0.0641-0.0142-0.0246 0.0006-0.0468 0.007-0.0669 0.0185-0.0201 0.0113-0.0357 0.0275-0.0476 0.0473-0.0122 0.0201-0.0176 0.0422-0.0181 0.0669v1.4531c0.0005 0.0233 0.006 0.0451 0.0181 0.0655 0.0119 0.0201 0.0275 0.0363 0.0476 0.0493 0.0201 0.0125 0.0423 0.019 0.0669 0.0193zm0.2398-1.3445c0.0315-0.0343 0.0672-0.0595 0.1075-0.0771 0.0402-0.017 0.0836-0.0258 0.1298-0.0258 0.0428 0 0.0847 0.009 0.125 0.0258 0.0408 0.0176 0.0771 0.0428 0.11 0.0771 0.0295 0.0329 0.053 0.0709 0.0706 0.1143 0.0175 0.0431 0.0266 0.0898 0.0269 0.1389 0 0.0331-0.004 0.0646-0.0122 0.0961-0.009 0.0303-0.0196 0.0592-0.0343 0.0861-0.0145 0.0261-0.0315 0.0488-0.051 0.0686-0.0329 0.0349-0.0692 0.0618-0.11 0.0794-0.0403 0.017-0.0822 0.0258-0.125 0.0258-0.0462 0-0.0896-0.009-0.1298-0.0258-0.0403-0.0176-0.076-0.0445-0.1075-0.0794-0.0218-0.0198-0.0394-0.0425-0.0544-0.0686-0.0142-0.0269-0.0255-0.0558-0.0326-0.0861-0.007-0.0315-0.0105-0.063-0.0105-0.0961 0-0.0491 0.008-0.0958 0.0241-0.1389 0.0164-0.0434 0.0411-0.0814 0.0734-0.1143zm1.1225 0.7016c0.0332 0.0275 0.0723 0.0542 0.1168 0.08 0.0442 0.0257 0.0939 0.0476 0.148 0.0651 0.055 0.0171 0.1151 0.0261 0.18 0.0278 0.0618-0.0003 0.1199-0.009 0.1746-0.0269 0.055-0.0173 0.1049-0.0414 0.1505-0.0731 0.0306-0.0216 0.057-0.0474 0.0811-0.0766 0.0235-0.0297 0.042-0.0621 0.0558-0.0983 0.0136-0.0358 0.0205-0.0746 0.0207-0.1154 0-0.0284-0.004-0.0573-0.0127-0.085-0.008-0.0284-0.0199-0.0548-0.0346-0.0797-0.0221-0.0349-0.0485-0.0646-0.0794-0.0887-0.0312-0.0244-0.0643-0.0437-0.0986-0.0587-0.036-0.0176-0.0737-0.032-0.112-0.0437-0.0391-0.0119-0.0788-0.0215-0.1202-0.0289h-0.003l-0.002-0.003c-0.0431-0.007-0.0796-0.0164-0.1111-0.0266-0.0312-0.0105-0.055-0.0219-0.0714-0.0329-0.009-0.005-0.0151-0.0102-0.0196-0.0148-0.004-0.005-0.007-0.008-0.008-0.0105-0.002-0.003-0.004-0.006-0.004-0.009-0.001-0.003-0.001-0.006-0.001-0.0108-0.0003-0.007 0.002-0.015 0.008-0.0249 0.005-0.0105 0.0165-0.0216 0.0323-0.0326 0.0168-0.0131 0.038-0.0233 0.0638-0.0321 0.0258-0.008 0.0547-0.0124 0.0859-0.0133 0.0397 0.0009 0.0782 0.01 0.1151 0.0269 0.0374 0.0173 0.0754 0.0394 0.1154 0.0658 0.0212 0.0145 0.0433 0.0218 0.0663 0.023 0.0235 0.002 0.0459-0.003 0.0666-0.0128 0.0213-0.0102 0.038-0.0249 0.0516-0.0451 0.0127-0.0212 0.0195-0.0436 0.0198-0.0669 0.0006-0.0235-0.004-0.0459-0.0141-0.0663-0.0102-0.021-0.0253-0.038-0.0454-0.0516-0.0266-0.0193-0.0581-0.0394-0.0944-0.0601-0.0363-0.0212-0.0777-0.0394-0.1241-0.0541-0.0471-0.015-0.099-0.023-0.1568-0.0236-0.057 0-0.112 0.008-0.1638 0.0239-0.0519 0.0158-0.0995 0.0385-0.1432 0.0688-0.0281 0.0207-0.0533 0.0451-0.0754 0.0732-0.0221 0.0283-0.0394 0.0592-0.0522 0.093-0.013 0.0343-0.0198 0.0705-0.0201 0.1088 0 0.0286 0.004 0.0564 0.0108 0.0833 0.008 0.0264 0.0181 0.0516 0.0317 0.074 0.0227 0.0335 0.0485 0.0621 0.0777 0.0856 0.0292 0.0238 0.0612 0.0434 0.0947 0.0596 0.0323 0.0147 0.0677 0.0275 0.1043 0.0379 0.0368 0.0108 0.0746 0.0196 0.1131 0.027h0.003c0.0451 0.009 0.0859 0.0195 0.1205 0.032 0.0346 0.0128 0.0615 0.0252 0.0791 0.0377 0.0102 0.006 0.0179 0.0125 0.0232 0.017 0.005 0.005 0.008 0.01 0.009 0.0133 0.003 0.004 0.005 0.007 0.006 0.0108 0.0009 0.003 0.001 0.008 0.001 0.0139 0.0006 0.0102-0.003 0.0215-0.009 0.034-0.006 0.0122-0.0187 0.0264-0.0357 0.0411-0.0202 0.0131-0.0451 0.0241-0.0743 0.0335-0.0298 0.009-0.0615 0.0139-0.0958 0.0141-0.0326 0.0006-0.066-0.004-0.0998-0.015-0.034-0.0108-0.0663-0.0244-0.0966-0.0417-0.0301-0.0164-0.0562-0.0345-0.0783-0.0532-0.0187-0.0159-0.0399-0.0253-0.0632-0.0292-0.023-0.004-0.0462-0.001-0.0683 0.007s-0.0408 0.0224-0.0558 0.0425c-0.0151 0.0184-0.0247 0.0397-0.0275 0.0623-0.004 0.023-0.002 0.0451 0.006 0.0669 0.008 0.0213 0.021 0.04 0.0391 0.0553zm1.145 0.005c0.0005 0.0346 0.009 0.0661 0.0252 0.0936 0.0164 0.028 0.0385 0.0501 0.0666 0.0669 0.0272 0.0161 0.0584 0.0243 0.093 0.0249 0.0348-0.0006 0.066-0.009 0.0941-0.0249 0.0286-0.0168 0.051-0.0389 0.0677-0.0669 0.0168-0.0275 0.0255-0.059 0.0258-0.0936-0.0003-0.0343-0.009-0.0655-0.0258-0.0941-0.0167-0.0281-0.0391-0.0505-0.0677-0.0672-0.0281-0.017-0.0593-0.0255-0.0941-0.0258-0.0346 0.0003-0.0658 0.009-0.093 0.0258-0.0281 0.0167-0.0502 0.0391-0.0666 0.0672-0.0165 0.0286-0.0247 0.0598-0.0252 0.0941zm0-0.9947c0.0005 0.0346 0.009 0.0658 0.0252 0.093 0.0164 0.0284 0.0385 0.0505 0.0666 0.0666 0.0272 0.0168 0.0584 0.025 0.093 0.0255 0.0348-0.0005 0.066-0.009 0.0941-0.0255 0.0286-0.0161 0.051-0.0382 0.0677-0.0666 0.0168-0.0272 0.0255-0.0584 0.0258-0.093-0.0003-0.0345-0.009-0.0657-0.0258-0.0941-0.0167-0.0286-0.0391-0.051-0.0677-0.0674-0.0281-0.0168-0.0593-0.0255-0.0941-0.0258-0.0346 0.0003-0.0658 0.009-0.093 0.0258-0.0281 0.0164-0.0502 0.0388-0.0666 0.0674-0.0165 0.0284-0.0247 0.0596-0.0252 0.0941zm0.5575 1.1526c0.008 0.003 0.0162 0.006 0.0247 0.008 0.01 0.001 0.0178 0.002 0.0255 0.002 0.0269 0 0.0516-0.007 0.0748-0.0218 0.023-0.0139 0.0409-0.0343 0.0522-0.0607l0.6128-1.4601c0.01-0.0227 0.0131-0.0462 0.01-0.07-0.003-0.0235-0.0108-0.0448-0.0247-0.0641-0.0142-0.019-0.0326-0.0337-0.055-0.0431-0.0249-0.0102-0.049-0.0136-0.0731-0.0102-0.0241 0.003-0.0459 0.0117-0.0649 0.0258-0.0196 0.0142-0.0343 0.0332-0.0448 0.0567l-0.6123 1.4576c-0.0102 0.0238-0.0133 0.0473-0.0102 0.0717 0.003 0.0241 0.0122 0.0457 0.0269 0.0649 0.0145 0.019 0.0343 0.0338 0.0584 0.0434zm0.5176 0c-0.0241-0.01-0.0439-0.0244-0.0584-0.0434-0.0147-0.0192-0.0232-0.0408-0.0266-0.0649-0.003-0.0244 0-0.0479 0.0102-0.0717l0.612-1.4576c0.0105-0.0235 0.0252-0.0425 0.0448-0.0567 0.019-0.0141 0.0408-0.0226 0.0649-0.0258 0.0241-0.003 0.0482 0 0.0731 0.0102 0.0224 0.009 0.0409 0.0241 0.055 0.0431 0.0139 0.0193 0.0221 0.0406 0.0247 0.0641 0.003 0.0238 0 0.0473-0.01 0.07l-0.6128 1.4601c-0.0116 0.0264-0.0292 0.0468-0.0522 0.0607-0.0232 0.0145-0.0479 0.0218-0.0748 0.0218-0.008 0-0.0159-0.0008-0.0255-0.002-0.008-0.002-0.017-0.005-0.0247-0.008zm1.785-0.5099v-0.5976c-0.0003-0.0241-0.007-0.0453-0.0196-0.0655-0.0127-0.0201-0.0286-0.0363-0.049-0.0482-0.0204-0.0121-0.0428-0.0184-0.0666-0.019-0.0247 0.0006-0.0476 0.007-0.0669 0.019-0.0196 0.0119-0.0346 0.0281-0.0459 0.0482-0.0111 0.0202-0.0165 0.0414-0.0173 0.0655v0.5976c-0.0009 0.0479-0.0136 0.0912-0.0366 0.1292-0.0232 0.0386-0.0544 0.0686-0.0938 0.091-0.0391 0.0224-0.0831 0.0343-0.1321 0.0343-0.0479 0-0.091-0.0119-0.1293-0.0343-0.0385-0.0224-0.0683-0.0524-0.0907-0.091-0.0226-0.038-0.0343-0.0813-0.0346-0.1292v-0.5976c-0.0008-0.0241-0.006-0.0453-0.0178-0.0655-0.0114-0.0201-0.0275-0.0363-0.0474-0.0482-0.0198-0.0121-0.0419-0.0184-0.0677-0.019-0.0241 0.0006-0.0462 0.007-0.0666 0.019-0.0196 0.0119-0.0357 0.0281-0.0471 0.0482-0.0122 0.0202-0.0184 0.0414-0.0184 0.0655v0.5976c0 0.0711 0.0139 0.1386 0.0411 0.2012 0.0272 0.0629 0.0641 0.1179 0.112 0.1653 0.0476 0.0479 0.1026 0.085 0.1652 0.1119 0.0627 0.0273 0.1301 0.0411 0.2013 0.0414 0.0728-0.0003 0.1406-0.0141 0.2041-0.0414 0.0632-0.0269 0.119-0.064 0.1678-0.1119 0.0482-0.0474 0.0862-0.1024 0.1137-0.1653 0.0277-0.0626 0.0419-0.1301 0.0422-0.2012zm1.0349-0.728c-0.0419 0-0.0816 0.004-0.119 0.0122-0.0372 0.008-0.0726 0.0201-0.1055 0.0352-0.0326 0.015-0.0629 0.0317-0.0904 0.0504-0.009 0.006-0.0179 0.0139-0.0272 0.023-0.009 0.009-0.0179 0.0178-0.0255 0.0269v-0.0173c-0.0003-0.0247-0.007-0.0462-0.019-0.0658-0.0122-0.0198-0.0289-0.0354-0.0491-0.0467-0.0212-0.0114-0.0439-0.017-0.0694-0.0179-0.0244 0.0009-0.0465 0.007-0.0669 0.0179-0.0196 0.0113-0.0357 0.0269-0.0471 0.0467-0.0124 0.0196-0.0178 0.0411-0.0184 0.0658v0.985c0.0006 0.0244 0.006 0.0465 0.0184 0.0667 0.0114 0.0198 0.0275 0.0354 0.0471 0.0473 0.0204 0.0119 0.0425 0.0181 0.0669 0.0184 0.0255-0.0003 0.0482-0.007 0.0694-0.0184 0.0202-0.0119 0.0369-0.0275 0.0491-0.0473 0.0122-0.0202 0.0187-0.0423 0.019-0.0667v-0.475c0.004-0.0122 0.0102-0.0298 0.0187-0.0522 0.009-0.023 0.0198-0.0482 0.0334-0.0757 0.0139-0.0275 0.0304-0.055 0.0505-0.0822 0.015-0.0238 0.032-0.0462 0.051-0.0666 0.019-0.0207 0.04-0.0383 0.0638-0.0533 0.0215-0.0161 0.0445-0.0283 0.0694-0.036 0.025-0.008 0.0522-0.0119 0.0808-0.0119 0.0255 0 0.0479-0.006 0.0675-0.0184 0.0201-0.0119 0.036-0.0284 0.0476-0.0485 0.0108-0.0198 0.017-0.0414 0.0173-0.0652-0.0003-0.0247-0.007-0.0462-0.0173-0.0658-0.0116-0.0198-0.0275-0.0354-0.0476-0.0467-0.0196-0.0114-0.042-0.017-0.0675-0.0179zm0.3651-0.3648v1.4751c0.0003 0.0256 0.006 0.0482 0.0193 0.0686 0.0119 0.021 0.0286 0.0377 0.0493 0.0497 0.0204 0.0124 0.0434 0.0189 0.0689 0.0192 0.0261-0.0003 0.0496-0.007 0.0706-0.0192 0.0207-0.012 0.0377-0.0287 0.0499-0.0497 0.0127-0.0204 0.0187-0.043 0.0195-0.0686v-1.4751c-0.0008-0.0252-0.007-0.0482-0.0195-0.0689-0.0122-0.0204-0.0292-0.0374-0.0499-0.0496-0.021-0.0122-0.0445-0.0187-0.0706-0.019-0.0255 0.0003-0.0485 0.007-0.0689 0.019-0.0207 0.0122-0.0374 0.0292-0.0493 0.0496-0.013 0.0207-0.019 0.0437-0.0193 0.0689zm0.5721 0.9952h0.4702c0.0272-0.0005 0.0519-0.007 0.074-0.0204 0.0218-0.0133 0.04-0.0314 0.0533-0.0533 0.0133-0.0221 0.0196-0.0467 0.0204-0.0739-0.0008-0.0278-0.007-0.0528-0.0204-0.0754-0.0133-0.0224-0.0315-0.0409-0.0533-0.0542-0.0221-0.0136-0.0468-0.0198-0.074-0.0204h-0.4702c-0.0267 0.0006-0.0516 0.007-0.0737 0.0204-0.0219 0.0133-0.04 0.0318-0.0533 0.0542-0.0131 0.0226-0.0196 0.0476-0.0204 0.0754 0.0008 0.0272 0.007 0.0518 0.0204 0.0739 0.0133 0.0219 0.0314 0.04 0.0533 0.0533 0.0221 0.0134 0.047 0.0199 0.0737 0.0204zm1.3722 0.6245c0.0836 0 0.1607-0.017 0.2319-0.0504 0.0717-0.0335 0.1335-0.08 0.1857-0.1392 0.0567-0.0556 0.0997-0.1208 0.1295-0.1953 0.03-0.0751 0.0448-0.1568 0.0456-0.2447-0.0008-0.0853-0.0156-0.1641-0.0456-0.2378-0.0298-0.0728-0.0728-0.1397-0.1295-0.1995-0.0522-0.0593-0.114-0.1061-0.1857-0.1392-0.0712-0.0335-0.1483-0.0505-0.2319-0.0511-0.0862 0.0006-0.1652 0.0176-0.237 0.0511-0.072 0.0331-0.1363 0.0799-0.1927 0.1392-0.0539 0.0598-0.0961 0.1267-0.1267 0.1995-0.0298 0.0737-0.0451 0.1525-0.0457 0.2378 0.0006 0.0879 0.0159 0.1696 0.0457 0.2447 0.0306 0.0745 0.0728 0.1397 0.1267 0.1953 0.0564 0.0592 0.1207 0.1057 0.1927 0.1392 0.0718 0.0334 0.1508 0.0504 0.237 0.0504zm-0.2395-0.8895c0.0309-0.0281 0.0669-0.0507 0.1077-0.0686 0.0403-0.0167 0.0842-0.0261 0.1318-0.0264 0.0445 0.0003 0.0856 0.01 0.1247 0.0264 0.0386 0.0179 0.0743 0.0405 0.1052 0.0686 0.0312 0.0337 0.0558 0.0729 0.072 0.1165 0.0173 0.0442 0.0258 0.0918 0.0258 0.1434 0 0.0536-0.008 0.1027-0.0258 0.1463-0.0162 0.0442-0.0408 0.0836-0.072 0.1188-0.0309 0.03-0.0666 0.0527-0.1052 0.0686-0.0391 0.0159-0.0802 0.0235-0.1247 0.0235-0.0476 0-0.0915-0.008-0.1318-0.0235-0.0408-0.0159-0.0768-0.0386-0.1077-0.0686-0.0289-0.0352-0.0516-0.0746-0.0669-0.1188-0.0153-0.0436-0.023-0.0927-0.023-0.1463 0-0.0516 0.008-0.0992 0.023-0.1434 0.0153-0.0436 0.038-0.0828 0.0669-0.1165zm1.4893-0.5766c0.001-0.001 0.003-0.003 0.005-0.004s0.005-0.003 0.0105-0.004c0.005-0.002 0.0125-0.004 0.0241-0.005 0.0105-0.0008 0.0244-0.002 0.0408-0.002 0.0255 0 0.0485-0.007 0.0689-0.0187 0.0207-0.0128 0.0374-0.0292 0.0493-0.0502 0.0125-0.0207 0.019-0.0445 0.0193-0.0703-0.0003-0.0252-0.007-0.0479-0.0193-0.0688-0.0119-0.0205-0.0286-0.0369-0.0493-0.0491-0.0204-0.0122-0.0434-0.0187-0.0689-0.019-0.0266 0-0.0513 0.001-0.0757 0.004-0.0249 0.003-0.0493 0.008-0.0745 0.0158-0.038 0.0111-0.0726 0.0307-0.1049 0.0573-0.0315 0.0269-0.0564 0.059-0.0751 0.0969-0.0181 0.0358-0.0309 0.0738-0.038 0.114-0.007 0.0405-0.01 0.0836-0.009 0.1293v0.0351h-0.065c-0.0266 0-0.0496 0.006-0.0711 0.0184-0.0207 0.0119-0.0371 0.0281-0.0499 0.0491-0.0122 0.0201-0.0187 0.0436-0.019 0.0697 0.0003 0.0258 0.007 0.0485 0.019 0.0692 0.0128 0.0207 0.0292 0.0371 0.0499 0.049 0.0215 0.0131 0.0445 0.019 0.0711 0.0196h0.065v0.8841c0.0005 0.0255 0.006 0.0488 0.0181 0.0694 0.0122 0.021 0.0286 0.0377 0.0496 0.0497 0.0204 0.0124 0.0437 0.0189 0.0697 0.0192 0.0261-0.0003 0.0496-0.007 0.0701-0.0192 0.0209-0.012 0.0368-0.0287 0.049-0.0497 0.0119-0.0206 0.0181-0.0439 0.0184-0.0694v-0.8841h0.0751c0.0255-0.0006 0.0485-0.006 0.0692-0.0196 0.0204-0.0119 0.0371-0.0283 0.049-0.049 0.0125-0.0207 0.019-0.0434 0.0193-0.0692-0.0003-0.0261-0.007-0.0496-0.0193-0.0697-0.0119-0.021-0.0286-0.0372-0.049-0.0491-0.0207-0.0122-0.0437-0.0184-0.0692-0.0184h-0.0751v-0.0351c0.0003-0.0304 0.002-0.055 0.005-0.0737 0.003-0.0182 0.007-0.0321 0.0102-0.0403 0.003-0.008 0.005-0.0125 0.007-0.0125zm0.4399 0.8416h0.47c0.0272-0.0005 0.0519-0.007 0.074-0.0204 0.0218-0.0133 0.0397-0.0314 0.0533-0.0533 0.0133-0.0221 0.0198-0.0467 0.0204-0.0739-0.0006-0.0278-0.007-0.0528-0.0204-0.0754-0.0136-0.0224-0.0315-0.0409-0.0533-0.0542-0.0221-0.0136-0.0468-0.0198-0.074-0.0204h-0.47c-0.0269 0.0006-0.0515 0.007-0.0737 0.0204-0.0221 0.0133-0.0402 0.0318-0.0532 0.0542-0.0134 0.0226-0.0199 0.0476-0.0205 0.0754 0.0006 0.0272 0.007 0.0518 0.0205 0.0739 0.013 0.0219 0.0311 0.04 0.0532 0.0533 0.0222 0.0134 0.0468 0.0199 0.0737 0.0204zm1.2501-0.6327h-0.0629v-0.3625c-0.0003-0.0261-0.006-0.0493-0.0181-0.0697-0.012-0.0213-0.0284-0.0372-0.0491-0.0494-0.0204-0.0119-0.0439-0.0181-0.07-0.0184-0.0264 0.0003-0.0499 0.006-0.0709 0.0184-0.0207 0.0122-0.0374 0.0281-0.0499 0.0494-0.0127 0.0204-0.0187 0.0436-0.0195 0.0697v0.3625h-0.0723c-0.0261 0.0006-0.0496 0.007-0.07 0.0185-0.021 0.0122-0.0369 0.0283-0.0491 0.049-0.0121 0.0207-0.0181 0.044-0.0184 0.0703 0.0003 0.0252 0.006 0.0482 0.0184 0.0686 0.0122 0.0207 0.0281 0.0374 0.0491 0.0496 0.0204 0.0122 0.0439 0.0187 0.07 0.019h0.0723v0.6976c0.001 0.0513 0.0133 0.0978 0.0382 0.1392 0.0247 0.0419 0.0584 0.0751 0.1001 0.1003 0.0414 0.0247 0.0879 0.0372 0.1392 0.038 0.0266-0.0003 0.0496-0.007 0.07-0.0184 0.021-0.0122 0.0374-0.0283 0.0493-0.049 0.0122-0.0204 0.0179-0.0437 0.0185-0.0701-0.0006-0.0266-0.006-0.0496-0.0185-0.0711-0.0119-0.0207-0.0283-0.0371-0.0493-0.0499-0.0204-0.0122-0.0434-0.0187-0.07-0.019v-0.6976h0.0629c0.0253-0.0003 0.0485-0.007 0.0692-0.019 0.0215-0.0122 0.0383-0.0289 0.051-0.0496 0.0122-0.0204 0.019-0.0434 0.0193-0.0686-0.0003-0.0263-0.007-0.0496-0.0193-0.0703-0.0127-0.0207-0.0295-0.0368-0.051-0.049-0.0207-0.0119-0.0439-0.0179-0.0692-0.0185zm0.6925 0.5477c0.0009-0.0499 0.0139-0.0947 0.0374-0.1349 0.0239-0.0406 0.0556-0.0726 0.0959-0.0967 0.0396-0.0244 0.0847-0.0371 0.1343-0.0385 0.0502 0.001 0.0961 0.0141 0.1366 0.0385 0.0403 0.0241 0.0729 0.0561 0.0967 0.0967 0.0238 0.0402 0.036 0.085 0.0363 0.1349v0.5649c0.0008 0.0264 0.007 0.0497 0.0187 0.0701 0.0119 0.0207 0.0283 0.0368 0.049 0.049 0.0204 0.0119 0.0437 0.0181 0.0701 0.0184 0.0263-0.0003 0.0493-0.007 0.0697-0.0184 0.0212-0.0122 0.0374-0.0283 0.0493-0.049 0.0122-0.0204 0.0181-0.0437 0.0184-0.0701v-0.5649c-0.0003-0.0757-0.0147-0.1463-0.0425-0.212-0.0278-0.0661-0.0666-0.1242-0.1165-0.1744-0.0496-0.0507-0.1074-0.0895-0.1729-0.1179-0.0658-0.0283-0.1369-0.0428-0.2129-0.0434-0.049 0.0006-0.0958 0.007-0.1406 0.0207-0.0445 0.0125-0.0873 0.0304-0.127 0.0519v-0.4351c-0.0003-0.0261-0.007-0.0493-0.0193-0.0697-0.0127-0.0213-0.0289-0.0372-0.0501-0.0494-0.021-0.0119-0.0442-0.0181-0.0709-0.0184-0.0252 0.0003-0.0479 0.006-0.0689 0.0184-0.0204 0.0122-0.0374 0.0281-0.0493 0.0494-0.0122 0.0204-0.0187 0.0436-0.019 0.0697v1.4751c0 0.006 0.0003 0.0125 0.002 0.0185 0.0006 0.006 0.002 0.0113 0.003 0.0164 0.009 0.0298 0.0258 0.0539 0.0496 0.0731 0.023 0.019 0.0513 0.0287 0.0825 0.0295 0.0267-0.0003 0.0499-0.007 0.0709-0.0184 0.0212-0.0122 0.0374-0.0283 0.0501-0.049 0.0128-0.0204 0.019-0.0437 0.0193-0.0701z"/><path d="m125.93 201.48c0.0887 0 0.1698-0.0133 0.2446-0.0408 0.0743-0.0266 0.1415-0.068 0.203-0.1241 0.0187-0.0182 0.0292-0.0372 0.0326-0.0579 0.003-0.0204 0.001-0.0399-0.006-0.0589-0.007-0.0182-0.0156-0.0338-0.0269-0.0457-0.008-0.0102-0.0207-0.0178-0.0357-0.0238-0.0153-0.005-0.0326-0.008-0.0505-0.008-0.0184 0-0.0371 0.003-0.0544 0.01-0.0179 0.006-0.0334 0.0162-0.0468 0.0298-0.0215 0.0162-0.0465 0.0292-0.0751 0.0391-0.0292 0.0105-0.0598 0.0176-0.0915 0.021-0.0318 0.004-0.063 0.005-0.0936 0.003-0.0295-0.003-0.059-0.01-0.0896-0.0192-0.0303-0.01-0.0578-0.0233-0.0842-0.0392-0.0263-0.0158-0.0484-0.0343-0.066-0.0541-0.0227-0.0224-0.0411-0.0479-0.055-0.0771s-0.0238-0.0587-0.0303-0.0879h0.7951c0.0354-0.0005 0.0649-0.01 0.0884-0.0275 0.023-0.0178 0.0375-0.0425 0.0417-0.0725 0.001-0.003 0.002-0.007 0.002-0.0114 0.0006-0.005 0.0006-0.008 0.0006-0.011v-0.012c-0.005-0.0845-0.0244-0.1627-0.0567-0.233-0.0326-0.0706-0.0757-0.1321-0.1298-0.1834-0.0545-0.0519-0.1166-0.0918-0.1877-0.1202-0.0703-0.0289-0.1466-0.0428-0.2282-0.0434-0.0862 0.0006-0.1661 0.0173-0.2398 0.0502-0.0734 0.0326-0.1375 0.0774-0.1925 0.135-0.055 0.0572-0.0986 0.1238-0.1295 0.1987-0.0312 0.0754-0.0468 0.155-0.0482 0.2409 0.001 0.0856 0.017 0.1661 0.0482 0.2412 0.0309 0.0749 0.0745 0.1409 0.1295 0.1982 0.055 0.0572 0.1191 0.1023 0.1925 0.1349 0.0737 0.0326 0.1536 0.0496 0.2398 0.051zm0-1.0128c0.0547 0.005 0.1029 0.0167 0.146 0.0349 0.0431 0.0181 0.0802 0.0405 0.1111 0.0672 0.0312 0.0263 0.0564 0.0538 0.0751 0.0822 0.019 0.0283 0.0315 0.0555 0.038 0.081h-0.7078c0.005-0.026 0.0156-0.0535 0.0312-0.0836 0.0161-0.0292 0.0383-0.0567 0.0657-0.0833 0.0275-0.0267 0.061-0.0488 0.1012-0.0666 0.04-0.0182 0.0865-0.0284 0.1395-0.0318zm0.9672 0.3954h0.47c0.0272-0.0005 0.0521-0.007 0.0742-0.0204 0.0216-0.0133 0.04-0.0314 0.0533-0.0533 0.0131-0.0221 0.0196-0.0467 0.0204-0.0739-0.0008-0.0278-0.007-0.0528-0.0204-0.0754-0.0133-0.0224-0.0317-0.0409-0.0533-0.0542-0.0221-0.0136-0.047-0.0198-0.0742-0.0204h-0.47c-0.0267 0.0006-0.0516 0.007-0.0737 0.0204-0.0221 0.0133-0.0397 0.0318-0.0533 0.0542-0.0133 0.0226-0.0196 0.0476-0.0204 0.0754 0.0008 0.0272 0.007 0.0518 0.0204 0.0739 0.0136 0.0219 0.0312 0.04 0.0533 0.0533 0.0221 0.0134 0.047 0.0199 0.0737 0.0204zm0.9601 1.0874c0.0272-0.0003 0.0513-0.007 0.0725-0.0193 0.0213-0.013 0.0386-0.0292 0.0508-0.0493 0.0127-0.0204 0.0187-0.0422 0.019-0.0655v-0.4385c0.0456 0.0326 0.0975 0.0581 0.155 0.0754 0.057 0.0182 0.1174 0.0269 0.1803 0.0272 0.0836-0.0003 0.1619-0.0167 0.235-0.0487 0.0723-0.0321 0.1366-0.0763 0.1922-0.133 0.055-0.0567 0.0986-0.1224 0.1298-0.1975 0.0315-0.0749 0.0476-0.1554 0.0479-0.2421-0.0003-0.0865-0.0164-0.1673-0.0479-0.2432-0.0312-0.0754-0.0748-0.1421-0.1298-0.1999-0.0556-0.0575-0.1199-0.1029-0.1922-0.1355-0.0731-0.0329-0.1514-0.0496-0.235-0.0502-0.0643 0.0006-0.125 0.0103-0.1831 0.029s-0.1103 0.0433-0.1568 0.0737c-0.004-0.0187-0.0119-0.0355-0.0249-0.0508-0.0128-0.0159-0.0289-0.028-0.0482-0.0377-0.0198-0.009-0.0408-0.0136-0.0646-0.0142-0.0244 0.0006-0.0465 0.007-0.0669 0.0185-0.0196 0.0113-0.0357 0.0275-0.0471 0.0473-0.0122 0.0201-0.0181 0.0422-0.0184 0.0669v1.4531c0.0003 0.0233 0.006 0.0451 0.0184 0.0655 0.0114 0.0201 0.0275 0.0363 0.0471 0.0493 0.0204 0.0125 0.0425 0.019 0.0669 0.0193zm0.2398-1.3445c0.032-0.0343 0.0677-0.0595 0.1077-0.0771 0.0405-0.017 0.0839-0.0258 0.1301-0.0258 0.0428 0 0.0845 0.009 0.125 0.0258 0.0403 0.0176 0.0771 0.0428 0.11 0.0771 0.0292 0.0329 0.053 0.0709 0.0703 0.1143 0.0173 0.0431 0.0264 0.0898 0.0272 0.1389 0 0.0331-0.005 0.0646-0.0127 0.0961-0.008 0.0303-0.0193 0.0592-0.0343 0.0861-0.0142 0.0261-0.0315 0.0488-0.0505 0.0686-0.0329 0.0349-0.0697 0.0618-0.11 0.0794-0.0405 0.017-0.0822 0.0258-0.125 0.0258-0.0462 0-0.0896-0.009-0.1301-0.0258-0.04-0.0176-0.0757-0.0445-0.1077-0.0794-0.0213-0.0198-0.0394-0.0425-0.0539-0.0686-0.0147-0.0269-0.0255-0.0558-0.0326-0.0861-0.007-0.0315-0.011-0.063-0.011-0.0961 0-0.0491 0.008-0.0958 0.0246-0.1389 0.0162-0.0434 0.0406-0.0814 0.0729-0.1143zm1.7104 0.8816c0.0831 0 0.1602-0.017 0.2319-0.0504 0.0717-0.0335 0.1335-0.08 0.1851-0.1392 0.0567-0.0556 0.0998-0.1208 0.1301-0.1953 0.0295-0.0751 0.0448-0.1568 0.0451-0.2447-0.0003-0.0853-0.0156-0.1641-0.0451-0.2378-0.0303-0.0728-0.0734-0.1397-0.1301-0.1995-0.0516-0.0593-0.1134-0.1061-0.1851-0.1392-0.0717-0.0335-0.1488-0.0505-0.2319-0.0511-0.0867 0.0006-0.1658 0.0176-0.2378 0.0511-0.072 0.0331-0.1361 0.0799-0.1922 0.1392-0.0544 0.0598-0.0964 0.1267-0.1267 0.1995-0.0301 0.0737-0.0454 0.1525-0.0462 0.2378 0.0008 0.0879 0.0161 0.1696 0.0462 0.2447 0.0303 0.0745 0.0723 0.1397 0.1267 0.1953 0.0561 0.0592 0.1202 0.1057 0.1922 0.1392 0.072 0.0334 0.1511 0.0504 0.2378 0.0504zm-0.2401-0.8895c0.0312-0.0281 0.0672-0.0507 0.108-0.0686 0.04-0.0167 0.0845-0.0261 0.1321-0.0264 0.0442 0.0003 0.0853 0.01 0.1242 0.0264 0.0391 0.0179 0.0745 0.0405 0.1057 0.0686 0.0312 0.0337 0.0553 0.0729 0.072 0.1165 0.0173 0.0442 0.0255 0.0918 0.0255 0.1434 0 0.0536-0.008 0.1027-0.0255 0.1463-0.0167 0.0442-0.0408 0.0836-0.072 0.1188-0.0312 0.03-0.0666 0.0527-0.1057 0.0686-0.0389 0.0159-0.08 0.0235-0.1242 0.0235-0.0476 0-0.0921-0.008-0.1321-0.0235-0.0408-0.0159-0.0768-0.0386-0.108-0.0686-0.0286-0.0352-0.0513-0.0746-0.0666-0.1188-0.0153-0.0436-0.0235-0.0927-0.0235-0.1463 0-0.0516 0.008-0.0992 0.0235-0.1434 0.0153-0.0436 0.038-0.0828 0.0666-0.1165zm1.1024 0.7095c0.0332 0.0275 0.0723 0.0542 0.1168 0.08 0.0442 0.0257 0.0938 0.0476 0.148 0.0651 0.0552 0.0171 0.1153 0.0261 0.18 0.0278 0.0618-0.0003 0.1196-0.009 0.1746-0.0269 0.055-0.0173 0.1049-0.0414 0.1505-0.0731 0.0306-0.0216 0.057-0.0474 0.0808-0.0766 0.0238-0.0297 0.0422-0.0621 0.0561-0.0983 0.0136-0.0358 0.0204-0.0746 0.0207-0.1154 0-0.0284-0.005-0.0573-0.0125-0.085-0.008-0.0284-0.0201-0.0548-0.0351-0.0797-0.0216-0.0349-0.0482-0.0646-0.0791-0.0887-0.0312-0.0244-0.0641-0.0437-0.0984-0.0587-0.036-0.0176-0.0737-0.032-0.1122-0.0437-0.0391-0.0119-0.0791-0.0215-0.1202-0.0289h-0.003l-0.002-0.003c-0.0428-0.007-0.0794-0.0164-0.1106-0.0266-0.0317-0.0105-0.0552-0.0219-0.0717-0.0329-0.009-0.005-0.015-0.0102-0.0195-0.0148-0.004-0.005-0.007-0.008-0.008-0.0105-0.003-0.003-0.004-0.006-0.004-0.009-0.0006-0.003-0.0006-0.006-0.0006-0.0108-0.0003-0.007 0.002-0.015 0.008-0.0249 0.005-0.0105 0.0164-0.0216 0.0323-0.0326 0.0167-0.0131 0.0377-0.0233 0.0635-0.0321 0.0258-0.008 0.055-0.0124 0.0862-0.0133 0.0399 0.0009 0.0782 0.01 0.1153 0.0269 0.0369 0.0173 0.0754 0.0394 0.1151 0.0658 0.021 0.0145 0.0434 0.0218 0.0666 0.023 0.023 0.002 0.0457-0.003 0.0664-0.0128 0.0212-0.0102 0.0382-0.0249 0.0518-0.0451 0.0125-0.0212 0.0193-0.0436 0.0196-0.0669 0.0006-0.0235-0.004-0.0459-0.0142-0.0663-0.0102-0.021-0.0252-0.038-0.0456-0.0516-0.0264-0.0193-0.0578-0.0394-0.0944-0.0601-0.036-0.0212-0.0774-0.0394-0.1239-0.0541-0.047-0.015-0.0989-0.023-0.1567-0.0236-0.057 0-0.112 0.008-0.1639 0.0239-0.0516 0.0158-0.0995 0.0385-0.1434 0.0688-0.0278 0.0207-0.053 0.0451-0.0751 0.0732-0.0221 0.0283-0.0397 0.0592-0.0522 0.093-0.0133 0.0343-0.0198 0.0705-0.0201 0.1088 0 0.0286 0.004 0.0564 0.011 0.0833 0.007 0.0264 0.0179 0.0516 0.0315 0.074 0.0227 0.0335 0.0485 0.0621 0.0777 0.0856 0.0292 0.0238 0.0612 0.0434 0.0949 0.0596 0.0321 0.0147 0.0675 0.0275 0.1038 0.0379 0.0371 0.0108 0.0748 0.0196 0.1134 0.027h0.003c0.0451 0.009 0.0859 0.0195 0.1205 0.032 0.0346 0.0128 0.0615 0.0252 0.0791 0.0377 0.0102 0.006 0.0178 0.0125 0.0232 0.017 0.005 0.005 0.008 0.01 0.009 0.0133 0.003 0.004 0.005 0.007 0.006 0.0108 0.001 0.003 0.001 0.008 0.001 0.0139 0.0006 0.0102-0.003 0.0215-0.009 0.034-0.006 0.0122-0.0185 0.0264-0.0355 0.0411-0.0204 0.0131-0.0456 0.0241-0.0748 0.0335-0.0295 0.009-0.0612 0.0139-0.0955 0.0141-0.0329 0.0006-0.0661-0.004-0.0998-0.015-0.0343-0.0108-0.0661-0.0244-0.0967-0.0417-0.0303-0.0164-0.0561-0.0345-0.0782-0.0532-0.019-0.0159-0.04-0.0253-0.0632-0.0292-0.023-0.004-0.0462-0.001-0.0683 0.007-0.0219 0.008-0.0406 0.0224-0.0559 0.0425-0.015 0.0184-0.0244 0.0397-0.0275 0.0623-0.004 0.023-0.002 0.0451 0.006 0.0669 0.008 0.0213 0.0207 0.04 0.0391 0.0553zm1.62-1.0772h-0.0629v-0.3625c-0.0003-0.0261-0.006-0.0493-0.0182-0.0697-0.0119-0.0213-0.0283-0.0372-0.049-0.0494-0.0204-0.0119-0.0439-0.0181-0.07-0.0184-0.0264 0.0003-0.0499 0.006-0.0709 0.0184-0.0207 0.0122-0.0374 0.0281-0.0499 0.0494-0.0127 0.0204-0.0187 0.0436-0.0195 0.0697v0.3625h-0.0723c-0.0261 0.0006-0.0496 0.007-0.07 0.0185-0.021 0.0122-0.0369 0.0283-0.0491 0.049s-0.0181 0.044-0.0184 0.0703c0.0003 0.0252 0.006 0.0482 0.0184 0.0686 0.0122 0.0207 0.0281 0.0374 0.0491 0.0496 0.0204 0.0122 0.0439 0.0187 0.07 0.019h0.0723v0.6976c0.001 0.0513 0.0133 0.0978 0.0382 0.1392 0.025 0.0419 0.0584 0.0751 0.1001 0.1003 0.0414 0.0247 0.0879 0.0372 0.1392 0.038 0.0266-0.0003 0.0496-0.007 0.07-0.0184 0.021-0.0122 0.0374-0.0283 0.0493-0.049 0.0122-0.0204 0.0179-0.0437 0.0182-0.0701-0.0003-0.0266-0.006-0.0496-0.0182-0.0711-0.0119-0.0207-0.0283-0.0371-0.0493-0.0499-0.0204-0.0122-0.0434-0.0187-0.07-0.019v-0.6976h0.0629c0.0252-0.0003 0.0485-0.007 0.0692-0.019 0.0215-0.0122 0.038-0.0289 0.051-0.0496 0.0122-0.0204 0.019-0.0434 0.0193-0.0686-0.0003-0.0263-0.007-0.0496-0.0193-0.0703-0.013-0.0207-0.0295-0.0368-0.051-0.049-0.0207-0.0119-0.044-0.0179-0.0692-0.0185z"/></g><g fill-rule="evenodd" fill="#4f8acc" transform="matrix(1.0563 0 0 1.0563 -102.41 -205.95)"><path d="m101.86 202.59c-0.0664 0-0.1199-0.0539-0.1199-0.1202v-4.0499c0-0.0663 0.0535-0.1202 0.1199-0.1202h3.0203c0.0663 0 0.1199 0.0539 0.1199 0.1202 0 0.0664-0.0536 0.1202-0.1199 0.1202h-2.9002v3.9297c0 0.0663-0.0535 0.1202-0.1201 0.1202z"/><path d="m105.48 203.19h-3.02c-0.0663 0-0.1202-0.0538-0.1202-0.1202v-4.05c0-0.0663 0.0539-0.1202 0.1202-0.1202h3.02c0.0664 0 0.1202 0.0539 0.1202 0.1202v4.0498c0 0.0664-0.0538 0.1202-0.1202 0.1202zm-2.8998-0.2403h2.7797v-3.8095h-2.78z"/><path d="m104.76 202.47h-1.5202c-0.0663 0-0.1199-0.0539-0.1199-0.1202s0.0536-0.1202 0.1199-0.1202h1.4v-1.4003c0-0.0663 0.0536-0.1202 0.1202-0.1202 0.0663 0 0.1202 0.0539 0.1202 0.1202v1.5205c0 0.0663-0.0539 0.1202-0.1202 0.1202z"/><path d="m104.76 202.47c-0.0309 0-0.0615-0.0116-0.085-0.0352l-1.618-1.6183c-0.0471-0.0467-0.0471-0.123 0-0.1698 0.0467-0.0467 0.123-0.0467 0.1698 0l1.6183 1.6183c0.0467 0.0468 0.0467 0.1231 0 0.1698-0.0236 0.0236-0.0545 0.0352-0.0851 0.0352z"/><path d="m102.63 195.43c-0.0003-0.0601-0.0116-0.1156-0.0337-0.1678-0.0218-0.0516-0.0527-0.0972-0.0918-0.1366-0.0394-0.0394-0.0851-0.07-0.137-0.0919-0.0518-0.0221-0.1074-0.0334-0.1675-0.0337h-0.3578c-0.0204 0.0003-0.0388 0.005-0.055 0.0147-0.0167 0.01-0.03 0.0227-0.0397 0.0392-0.01 0.0164-0.015 0.0351-0.0153 0.0561v1.18c0.0003 0.0205 0.005 0.0386 0.0153 0.055 0.01 0.0168 0.023 0.0301 0.0397 0.0397 0.0162 0.01 0.0346 0.015 0.055 0.0153 0.021-0.0003 0.0397-0.005 0.0567-0.0153 0.0167-0.01 0.03-0.0229 0.04-0.0397 0.01-0.0164 0.015-0.0345 0.0153-0.055v-0.4339h0.246c0.0601-0.0003 0.1157-0.0117 0.1675-0.0338 0.0519-0.0221 0.0976-0.0527 0.137-0.0915 0.0391-0.0391 0.07-0.0842 0.0918-0.1355 0.0221-0.0513 0.0334-0.1063 0.0337-0.1653zm-0.676-0.208h0.246c0.0391 0.0002 0.074 0.01 0.1049 0.028 0.0312 0.0182 0.0558 0.0434 0.074 0.0743 0.0184 0.0315 0.028 0.0666 0.0292 0.1057-0.001 0.0377-0.0108 0.072-0.0292 0.1026-0.0182 0.0306-0.0428 0.055-0.074 0.0735-0.0309 0.0181-0.0658 0.0274-0.1049 0.028h-0.246zm2.0925 1.108c0.008 0.0221 0.0218 0.0394 0.0405 0.0513 0.0185 0.0125 0.0392 0.0184 0.0613 0.0187 0.007 0 0.0141-0.0005 0.0207-0.002 0.007-0.0008 0.0124-0.002 0.0172-0.004 0.0196-0.008 0.0355-0.019 0.0474-0.0343 0.0122-0.015 0.0201-0.0323 0.0235-0.0513 0.003-0.0196 0.002-0.0389-0.005-0.0584l-0.4419-1.1781c-0.009-0.0224-0.0238-0.0397-0.0423-0.0524-0.019-0.0122-0.0405-0.0182-0.0637-0.0176-0.0227-0.0006-0.0434 0.005-0.0627 0.0176-0.0193 0.0127-0.0337 0.03-0.0434 0.0524l-0.4419 1.1781c-0.007 0.0195-0.008 0.0388-0.005 0.0584 0.003 0.019 0.0113 0.0363 0.0232 0.0513 0.0122 0.0153 0.0281 0.0266 0.0474 0.0343 0.006 0.002 0.0122 0.003 0.0184 0.004 0.006 0.001 0.0128 0.002 0.0199 0.002 0.0221-0.0003 0.0428-0.006 0.0615-0.0187 0.0187-0.0119 0.0331-0.0292 0.0422-0.0513l0.0981-0.2599h0.4861zm-0.5043-0.4799 0.1622-0.43 0.1621 0.43zm1.2583 0.3498c0.0286 0.0227 0.061 0.0459 0.0978 0.0692 0.0366 0.0229 0.0765 0.0442 0.1199 0.064 0.0437 0.0196 0.0899 0.0352 0.1395 0.0477 0.0493 0.0119 0.1009 0.0181 0.1547 0.0192 0.0715-0.0003 0.1389-0.0102 0.2019-0.03 0.0626-0.0196 0.119-0.0476 0.1684-0.0839 0.0337-0.0241 0.0632-0.0522 0.089-0.0842 0.0255-0.0318 0.0459-0.0666 0.0606-0.1049 0.0148-0.038 0.0218-0.0788 0.0224-0.1213 0-0.0315-0.004-0.0618-0.0127-0.0907-0.008-0.0289-0.0205-0.0556-0.0355-0.0797-0.0232-0.0371-0.0518-0.0689-0.0861-0.0961-0.0346-0.0269-0.0726-0.0504-0.1137-0.0703-0.0403-0.019-0.0834-0.0351-0.1298-0.049-0.0462-0.0136-0.0953-0.0252-0.1463-0.0352h-0.004c-0.0544-0.0102-0.1032-0.0226-0.146-0.0379-0.043-0.0153-0.0776-0.0321-0.104-0.0502-0.013-0.009-0.0241-0.0179-0.0332-0.0269-0.009-0.009-0.0158-0.0171-0.0209-0.0253-0.005-0.008-0.008-0.0161-0.0105-0.0252-0.003-0.008-0.003-0.019-0.003-0.0309-0.0003-0.021 0.006-0.0422 0.0175-0.0641 0.0122-0.0212 0.0318-0.0419 0.0584-0.0623 0.0273-0.0201 0.0604-0.0366 0.0987-0.0491 0.0383-0.0122 0.0799-0.0184 0.1253-0.019 0.0405 0.0006 0.0791 0.007 0.1151 0.0182 0.0362 0.0116 0.0714 0.0272 0.1054 0.0468 0.034 0.0192 0.068 0.0405 0.1015 0.0635 0.0164 0.0104 0.0334 0.0164 0.0513 0.017 0.0181 0.0005 0.0354-0.003 0.0513-0.0111 0.0162-0.008 0.0292-0.0198 0.0394-0.0363 0.0108-0.0156 0.0165-0.0323 0.0173-0.0499 0.0009-0.0181-0.003-0.0351-0.0105-0.0513-0.008-0.0161-0.0193-0.0297-0.0349-0.0408-0.0252-0.017-0.0535-0.0343-0.0839-0.053-0.0306-0.0184-0.064-0.0357-0.1003-0.0516-0.036-0.0164-0.0748-0.0295-0.1171-0.0397-0.0416-0.01-0.0864-0.0153-0.1346-0.0156-0.0652 0-0.1276 0.009-0.1863 0.0272-0.0589 0.0185-0.1122 0.0446-0.1595 0.0789-0.0312 0.0226-0.0584 0.0493-0.0825 0.0793-0.0241 0.0298-0.0431 0.063-0.0567 0.099-0.0136 0.0357-0.0207 0.0737-0.021 0.1139 0 0.03 0.004 0.059 0.0116 0.0867 0.008 0.0275 0.0193 0.0536 0.0343 0.0777 0.0224 0.0349 0.0493 0.0652 0.0811 0.091 0.0317 0.0255 0.0666 0.0473 0.1052 0.0652 0.0379 0.0181 0.0788 0.0334 0.1221 0.0456 0.0434 0.0128 0.0888 0.0238 0.1358 0.0324h0.004c0.0592 0.0113 0.1125 0.0252 0.1596 0.0413 0.0467 0.0162 0.085 0.0338 0.1145 0.053 0.015 0.0103 0.0269 0.0202 0.0366 0.0301 0.01 0.01 0.0172 0.0201 0.0232 0.03 0.006 0.01 0.0108 0.0202 0.0136 0.0301 0.003 0.01 0.004 0.0212 0.004 0.0343 0.0003 0.0249-0.007 0.0499-0.0204 0.0743-0.0139 0.0243-0.0357 0.0476-0.0657 0.07-0.0304 0.0224-0.0669 0.0399-0.11 0.0533-0.0428 0.0139-0.0896 0.0204-0.1401 0.0207-0.0354 0.0002-0.0711-0.004-0.1071-0.0131-0.0357-0.009-0.0703-0.0212-0.104-0.0363-0.0335-0.015-0.0647-0.032-0.0939-0.0499-0.0292-0.0184-0.0547-0.0368-0.0768-0.0549-0.015-0.0122-0.0314-0.0193-0.0493-0.0222-0.0181-0.003-0.0357-0.001-0.0527 0.005s-0.0318 0.0164-0.044 0.0311c-0.0113 0.0151-0.0184 0.0318-0.0207 0.0496-0.003 0.0182-0.0008 0.0355 0.005 0.0528 0.007 0.017 0.0168 0.0317 0.0315 0.0439zm2.6342-1.0899c-0.0002-0.021-0.005-0.0397-0.0153-0.0561-0.01-0.0165-0.0229-0.0295-0.0394-0.0392-0.0167-0.01-0.0348-0.0144-0.0552-0.0147h-0.8541c-0.021 0.0003-0.0397 0.005-0.0561 0.0147-0.0165 0.01-0.0295 0.0227-0.0392 0.0392-0.01 0.0164-0.0144 0.0351-0.0147 0.0561 0.0003 0.0204 0.005 0.0385 0.0147 0.0555 0.01 0.0171 0.0227 0.0304 0.0392 0.0409 0.0164 0.01 0.0351 0.0153 0.0561 0.0156h0.316v1.068c0.0003 0.021 0.005 0.0397 0.0154 0.0559 0.01 0.0167 0.0229 0.0298 0.0396 0.0394 0.0162 0.01 0.0346 0.0144 0.055 0.0147 0.021-0.0003 0.0397-0.005 0.0559-0.0147 0.0167-0.01 0.0297-0.0227 0.0394-0.0394 0.01-0.0162 0.0144-0.0349 0.0147-0.0559v-1.068h0.3181c0.0204-0.0003 0.0385-0.006 0.0552-0.0156 0.0165-0.0105 0.0298-0.0238 0.0394-0.0409 0.01-0.017 0.0151-0.0351 0.0153-0.0555zm0.7762 1.29s0.0003-0.0003 0.0008-0.001c0.0009-0.0006 0.001-0.0009 0.001-0.0009l0.0005 0.0009c0.0003 0.0008 0.001 0.001 0.003 0.001h0.648c0.0199-0.0003 0.0377-0.005 0.0544-0.0153 0.0168-0.01 0.0301-0.0229 0.04-0.0394 0.01-0.0167 0.0153-0.0348 0.0156-0.0553-0.0003-0.0209-0.006-0.0396-0.0156-0.0566-0.01-0.0168-0.0232-0.0301-0.04-0.04-0.0167-0.01-0.0345-0.015-0.0544-0.0153h-0.542v-0.3682h0.4661c0.0204-0.0003 0.0388-0.005 0.0552-0.0153 0.0165-0.01 0.0298-0.0233 0.0394-0.04 0.01-0.017 0.0151-0.0357 0.0153-0.0567-0.0002-0.0196-0.005-0.0377-0.0153-0.0541-0.01-0.0168-0.0229-0.0301-0.0394-0.04-0.0164-0.0105-0.0348-0.0156-0.0552-0.0159h-0.4661v-0.3659h0.542c0.0199-0.0003 0.0377-0.005 0.0544-0.0154 0.0168-0.01 0.0301-0.0232 0.04-0.0399 0.01-0.017 0.0153-0.0357 0.0156-0.0567-0.0003-0.021-0.006-0.0397-0.0156-0.0561-0.01-0.0165-0.0232-0.0295-0.04-0.0392-0.0167-0.01-0.0345-0.0144-0.0544-0.0147h-0.6536c-0.021 0.0003-0.0397 0.005-0.0562 0.0147-0.0164 0.01-0.0294 0.0227-0.0391 0.0392-0.01 0.0164-0.0144 0.0351-0.0147 0.0561v1.18c0.0003 0.0205 0.005 0.0386 0.0147 0.0553 0.01 0.0165 0.0227 0.0298 0.0391 0.0394 0.0165 0.01 0.0352 0.015 0.0562 0.0153z"/><path d="m142.92 204.44h-44.157c-0.0663 0-0.1199-0.0539-0.1199-0.1202v-7.13c0-0.0663 0.0536-0.1199 0.1199-0.1199h44.16c0.0663 0 0.1202 0.0536 0.1202 0.1199v7.1252c0 0.0663-0.0539 0.1202-0.1202 0.1202zm-44.036-0.24h43.919v-6.8848h-43.913z"/></g></svg>
