<?xml version="1.0" encoding="UTF-8" standalone="no"?>
<svg xmlns="http://www.w3.org/2000/svg" xml:space="preserve" style="image-rendering:optimizeQuality;text-rendering:geometricPrecision;shape-rendering:geometricPrecision"  height="39.261" width="184" version="1.1" viewBox="0 0 48.683332 10.387729"><g transform="translate(-34.821 -274.57)"><g transform="matrix(1.0965 0 0 -1.0965 62.91 280.94)"><path d="m0 0c0.001 0.05 0.014 0.095 0.037 0.135 0.024 0.04 0.056 0.073 0.096 0.097s0.085 0.037 0.135 0.038c0.05-0.001 0.096-0.014 0.136-0.038 0.041-0.024 0.073-0.057 0.097-0.097s0.036-0.085 0.036-0.135v-0.565c0.001-0.026 0.007-0.05 0.019-0.07 0.012-0.021 0.028-0.037 0.049-0.049 0.02-0.012 0.044-0.018 0.07-0.018s0.05 0.006 0.07 0.018c0.021 0.012 0.037 0.028 0.049 0.049 0.012 0.02 0.018 0.044 0.018 0.07v0.565c0 0.076-0.014 0.146-0.042 0.212s-0.067 0.124-0.117 0.174c-0.049 0.051-0.107 0.09-0.173 0.118-0.065 0.029-0.136 0.043-0.212 0.044-0.049-0.001-0.096-0.007-0.141-0.021-0.044-0.013-0.087-0.03-0.127-0.052v0.435c0 0.026-0.007 0.05-0.019 0.07-0.013 0.021-0.029 0.037-0.05 0.049s-0.045 0.018-0.071 0.019c-0.025-0.001-0.048-0.007-0.069-0.019s-0.037-0.028-0.049-0.049c-0.013-0.02-0.019-0.044-0.019-0.07v-1.475c0-0.006 0-0.012 0.001-0.018 0.001-0.007 0.002-0.012 0.004-0.017 0.009-0.03 0.025-0.054 0.049-0.073 0.023-0.019 0.052-0.029 0.083-0.029 0.026 0 0.05 0.006 0.071 0.018s0.037 0.028 0.05 0.049c0.012 0.02 0.019 0.044 0.019 0.07zm-0.693 0.548h-0.062v0.362c0 0.026-0.006 0.05-0.019 0.07-0.012 0.021-0.028 0.037-0.049 0.049-0.02 0.012-0.043 0.018-0.07 0.019-0.026-0.001-0.049-0.007-0.071-0.019-0.02-0.012-0.037-0.028-0.049-0.049-0.013-0.02-0.019-0.044-0.02-0.07v-0.362h-0.072c-0.026-0.001-0.05-0.007-0.07-0.019-0.021-0.012-0.037-0.028-0.049-0.049-0.012-0.02-0.018-0.044-0.019-0.07 0.001-0.025 0.007-0.048 0.019-0.069s0.028-0.037 0.049-0.049c0.02-0.013 0.044-0.019 0.07-0.02h0.072v-0.697c0.001-0.051 0.014-0.098 0.038-0.139 0.025-0.042 0.059-0.075 0.1-0.1 0.042-0.025 0.088-0.038 0.14-0.038 0.026 0 0.049 0.006 0.07 0.018s0.037 0.028 0.049 0.049c0.012 0.02 0.018 0.044 0.018 0.07 0 0.027-0.006 0.05-0.018 0.071s-0.028 0.037-0.049 0.05c-0.021 0.012-0.044 0.019-0.07 0.019v0.697h0.062c0.026 0.001 0.049 0.007 0.07 0.02 0.021 0.012 0.038 0.028 0.051 0.049 0.012 0.021 0.019 0.044 0.019 0.069 0 0.026-0.007 0.05-0.019 0.07-0.013 0.021-0.03 0.037-0.051 0.049s-0.044 0.018-0.07 0.019m-1.25-0.633h0.47c0.028 0.001 0.052 0.007 0.074 0.02 0.022 0.014 0.04 0.032 0.054 0.054 0.013 0.022 0.019 0.046 0.02 0.074-0.001 0.027-0.007 0.052-0.02 0.075-0.014 0.022-0.032 0.041-0.054 0.054-0.022 0.014-0.046 0.02-0.074 0.021h-0.47c-0.026-0.001-0.051-0.007-0.073-0.021-0.022-0.013-0.04-0.032-0.054-0.054-0.013-0.023-0.019-0.048-0.02-0.075 0.001-0.028 0.007-0.052 0.02-0.074 0.014-0.022 0.032-0.04 0.054-0.054 0.022-0.013 0.047-0.019 0.073-0.02m-0.439 0.842l0.004 0.004c0.002 0.001 0.006 0.002 0.011 0.003 0.005 0.003 0.012 0.004 0.024 0.006 0.011 0.001 0.025 0.002 0.041 0.002 0.025 0 0.048 0.006 0.069 0.018 0.02 0.013 0.037 0.03 0.049 0.05 0.013 0.021 0.019 0.045 0.019 0.071 0 0.025-0.006 0.048-0.019 0.069-0.012 0.02-0.029 0.036-0.049 0.049-0.021 0.012-0.044 0.018-0.069 0.019-0.027 0-0.052-0.002-0.076-0.004-0.025-0.004-0.049-0.009-0.074-0.016-0.038-0.012-0.073-0.031-0.105-0.058s-0.057-0.059-0.075-0.097c-0.019-0.035-0.031-0.073-0.038-0.114-0.007-0.04-0.01-0.083-0.01-0.129v-0.035h-0.065c-0.026 0-0.049-0.006-0.071-0.018-0.02-0.012-0.037-0.029-0.05-0.049-0.012-0.021-0.018-0.044-0.019-0.07 0.001-0.026 0.007-0.049 0.019-0.069 0.013-0.021 0.03-0.038 0.05-0.05 0.022-0.012 0.045-0.019 0.071-0.019h0.065v-0.884c0.001-0.026 0.006-0.049 0.019-0.069 0.012-0.021 0.028-0.038 0.049-0.05 0.02-0.013 0.044-0.019 0.07-0.019s0.049 0.006 0.07 0.019c0.021 0.012 0.037 0.029 0.049 0.05 0.012 0.02 0.018 0.043 0.018 0.069v0.884h0.075c0.026 0 0.049 0.007 0.069 0.019 0.021 0.012 0.038 0.029 0.049 0.05 0.013 0.02 0.019 0.043 0.02 0.069-0.001 0.026-0.007 0.049-0.02 0.07-0.011 0.02-0.028 0.037-0.049 0.049-0.02 0.012-0.043 0.018-0.069 0.018h-0.075v0.035c0.001 0.03 0.002 0.055 0.006 0.074 0.003 0.018 0.006 0.032 0.01 0.04 0.003 0.009 0.005 0.013 0.007 0.013m-1.49-0.577c0.031 0.028 0.067 0.051 0.108 0.068 0.04 0.017 0.084 0.027 0.132 0.027 0.044 0 0.085-0.01 0.124-0.027s0.075-0.04 0.106-0.068c0.031-0.034 0.055-0.073 0.072-0.117s0.025-0.091 0.025-0.143c0-0.054-0.008-0.102-0.025-0.146s-0.041-0.084-0.072-0.119c-0.031-0.03-0.067-0.053-0.106-0.068-0.039-0.016-0.08-0.024-0.124-0.024-0.048 0-0.092 0.008-0.132 0.024-0.041 0.015-0.077 0.038-0.108 0.068-0.029 0.035-0.052 0.075-0.067 0.119s-0.023 0.092-0.023 0.146c0 0.052 0.008 0.099 0.023 0.143s0.038 0.083 0.067 0.117m0.24-0.89c0.083 0 0.16 0.017 0.232 0.051 0.071 0.033 0.133 0.08 0.185 0.139 0.057 0.055 0.1 0.121 0.13 0.195 0.03 0.076 0.045 0.157 0.045 0.245 0 0.085-0.015 0.164-0.045 0.238-0.03 0.073-0.073 0.14-0.13 0.199-0.052 0.06-0.114 0.107-0.185 0.14-0.072 0.033-0.149 0.05-0.232 0.051-0.087-0.001-0.166-0.018-0.238-0.051s-0.136-0.08-0.192-0.14c-0.054-0.059-0.096-0.126-0.127-0.199-0.03-0.074-0.045-0.153-0.046-0.238 0.001-0.088 0.016-0.169 0.046-0.245 0.031-0.074 0.073-0.14 0.127-0.195 0.056-0.059 0.12-0.106 0.192-0.139 0.072-0.034 0.151-0.051 0.238-0.051m-1.373 0.625h0.47c0.028 0.001 0.052 0.007 0.074 0.02 0.022 0.014 0.04 0.032 0.054 0.054 0.013 0.022 0.02 0.046 0.02 0.074 0 0.027-0.007 0.052-0.02 0.075-0.014 0.022-0.032 0.041-0.054 0.054-0.022 0.014-0.046 0.02-0.074 0.021h-0.47c-0.026-0.001-0.051-0.007-0.073-0.021-0.022-0.013-0.04-0.032-0.054-0.054-0.013-0.023-0.019-0.048-0.02-0.075 0.001-0.028 0.007-0.052 0.02-0.074 0.014-0.022 0.032-0.04 0.054-0.054 0.022-0.013 0.047-0.019 0.073-0.02m-0.572 0.995v-1.475c0-0.025 0.007-0.048 0.019-0.068 0.012-0.021 0.029-0.038 0.05-0.05 0.02-0.013 0.043-0.019 0.069-0.019s0.049 0.006 0.07 0.019c0.021 0.012 0.038 0.029 0.05 0.05 0.013 0.02 0.019 0.043 0.02 0.068v1.475c-0.001 0.026-0.007 0.048-0.02 0.069-0.012 0.02-0.029 0.037-0.05 0.05-0.021 0.012-0.044 0.018-0.07 0.019-0.026-0.001-0.049-0.007-0.069-0.019-0.021-0.013-0.038-0.03-0.05-0.05-0.012-0.021-0.019-0.043-0.019-0.069m-0.365-0.365c-0.042 0-0.081-0.003-0.119-0.012-0.037-0.008-0.073-0.02-0.106-0.035-0.032-0.015-0.062-0.032-0.09-0.05-0.009-0.007-0.018-0.014-0.027-0.023s-0.018-0.018-0.025-0.028v0.018c-0.001 0.025-0.007 0.046-0.02 0.066-0.012 0.019-0.028 0.035-0.049 0.047-0.021 0.011-0.044 0.017-0.069 0.017-0.024 0-0.047-0.006-0.067-0.017-0.02-0.012-0.035-0.028-0.047-0.047-0.012-0.02-0.018-0.041-0.018-0.066v-0.985c0-0.024 0.006-0.047 0.018-0.067s0.027-0.035 0.047-0.047 0.043-0.018 0.067-0.018c0.025 0 0.048 0.006 0.069 0.018s0.037 0.027 0.049 0.047c0.013 0.02 0.019 0.043 0.02 0.067v0.475c0.004 0.012 0.01 0.03 0.018 0.052 0.009 0.023 0.02 0.048 0.033 0.076 0.014 0.027 0.031 0.055 0.051 0.082 0.015 0.024 0.032 0.046 0.051 0.067 0.019 0.02 0.04 0.038 0.064 0.053 0.021 0.016 0.044 0.028 0.069 0.036s0.052 0.012 0.081 0.012c0.025 0 0.048 0.006 0.068 0.018s0.035 0.029 0.047 0.049c0.011 0.02 0.017 0.041 0.017 0.065 0 0.025-0.006 0.046-0.017 0.066-0.012 0.019-0.027 0.035-0.047 0.047-0.02 0.011-0.043 0.017-0.068 0.017m-1.035-0.727v0.597c0 0.024-0.007 0.045-0.02 0.065-0.012 0.02-0.028 0.037-0.049 0.049-0.02 0.012-0.042 0.018-0.066 0.019-0.025-0.001-0.048-0.007-0.067-0.019-0.02-0.012-0.035-0.029-0.046-0.049s-0.016-0.041-0.017-0.065v-0.597c-0.001-0.048-0.014-0.092-0.037-0.13s-0.054-0.068-0.093-0.091c-0.039-0.022-0.084-0.034-0.133-0.034-0.047 0-0.091 0.012-0.129 0.034-0.038 0.023-0.068 0.053-0.091 0.091-0.022 0.038-0.034 0.082-0.034 0.13v0.597c-0.001 0.024-0.007 0.045-0.018 0.065s-0.027 0.037-0.047 0.049-0.042 0.018-0.068 0.019c-0.024-0.001-0.046-0.007-0.067-0.019-0.019-0.012-0.035-0.029-0.047-0.049s-0.018-0.041-0.018-0.065v-0.597c0-0.072 0.014-0.139 0.041-0.202s0.064-0.118 0.112-0.165c0.047-0.048 0.102-0.085 0.165-0.112s0.13-0.041 0.201-0.041c0.073 0 0.141 0.014 0.204 0.041 0.064 0.027 0.119 0.064 0.168 0.112 0.049 0.047 0.087 0.102 0.114 0.165 0.028 0.063 0.042 0.13 0.042 0.202m-1.785-0.511c-0.024 0.01-0.044 0.025-0.058 0.044-0.015 0.019-0.024 0.041-0.027 0.065s0 0.048 0.01 0.072l0.612 1.457c0.011 0.023 0.026 0.043 0.045 0.057s0.041 0.023 0.065 0.026 0.048 0 0.073-0.011c0.022-0.009 0.041-0.024 0.055-0.043s0.022-0.04 0.025-0.064 0-0.047-0.01-0.07l-0.613-1.46c-0.011-0.026-0.029-0.047-0.052-0.061s-0.048-0.021-0.075-0.021c-0.007 0-0.016 0-0.025 0.002-0.008 0.001-0.017 0.004-0.025 0.007m-0.517 0c0.007-0.003 0.016-0.006 0.024-0.007 0.01-0.002 0.018-0.002 0.026-0.002 0.027 0 0.051 0.007 0.075 0.021 0.023 0.014 0.04 0.035 0.052 0.061l0.612 1.46c0.01 0.023 0.014 0.046 0.01 0.07-0.002 0.024-0.011 0.045-0.025 0.064s-0.032 0.034-0.054 0.043c-0.025 0.011-0.049 0.014-0.073 0.011s-0.046-0.012-0.065-0.026c-0.02-0.014-0.035-0.034-0.045-0.057l-0.612-1.457c-0.011-0.024-0.014-0.048-0.011-0.072 0.004-0.024 0.013-0.046 0.027-0.065 0.015-0.019 0.034-0.034 0.059-0.044m-0.558 1.153c0-0.035 0.009-0.066 0.025-0.093 0.017-0.028 0.039-0.05 0.067-0.067 0.027-0.016 0.058-0.024 0.093-0.025 0.035 0.001 0.066 0.009 0.094 0.025 0.029 0.017 0.051 0.039 0.068 0.067 0.016 0.027 0.025 0.058 0.025 0.093s-0.009 0.066-0.025 0.094c-0.017 0.029-0.039 0.051-0.068 0.068-0.028 0.016-0.059 0.025-0.094 0.025s-0.066-0.009-0.093-0.025c-0.028-0.017-0.05-0.039-0.067-0.068-0.016-0.028-0.025-0.059-0.025-0.094m0-0.995c0-0.034 0.009-0.066 0.025-0.093 0.017-0.028 0.039-0.05 0.067-0.067 0.027-0.016 0.058-0.024 0.093-0.025 0.035 0.001 0.066 0.009 0.094 0.025 0.029 0.017 0.051 0.039 0.068 0.067 0.016 0.027 0.025 0.059 0.025 0.093 0 0.035-0.009 0.066-0.025 0.094-0.017 0.029-0.039 0.051-0.068 0.068-0.028 0.016-0.059 0.025-0.094 0.025s-0.066-0.009-0.093-0.025c-0.028-0.017-0.05-0.039-0.067-0.068-0.016-0.028-0.025-0.059-0.025-0.094m-1.145 0.005c0.033-0.027 0.072-0.054 0.117-0.079 0.044-0.026 0.094-0.048 0.148-0.066 0.055-0.017 0.115-0.026 0.18-0.027 0.062 0 0.12 0.009 0.175 0.026 0.055 0.018 0.104 0.042 0.15 0.074 0.03 0.021 0.057 0.047 0.081 0.076 0.024 0.03 0.042 0.062 0.056 0.099 0.013 0.035 0.02 0.074 0.02 0.115 0 0.028-0.004 0.057-0.012 0.085s-0.02 0.055-0.035 0.08c-0.022 0.034-0.048 0.064-0.079 0.088s-0.064 0.044-0.099 0.059c-0.036 0.018-0.073 0.032-0.112 0.044s-0.079 0.021-0.12 0.029h-0.003l-0.002 0.002c-0.043 0.008-0.079 0.017-0.111 0.027-0.031 0.011-0.055 0.022-0.071 0.033-0.009 0.005-0.015 0.01-0.02 0.015-0.004 0.004-0.007 0.008-0.008 0.01-0.002 0.003-0.004 0.007-0.004 0.009-0.001 0.003-0.001 0.006-0.001 0.011 0 0.007 0.002 0.015 0.008 0.025 0.005 0.01 0.016 0.021 0.032 0.033 0.017 0.013 0.038 0.023 0.064 0.032 0.026 0.008 0.054 0.012 0.086 0.013 0.04-0.001 0.078-0.01 0.115-0.027s0.075-0.039 0.115-0.066c0.021-0.014 0.044-0.022 0.067-0.023s0.046 0.003 0.066 0.013c0.021 0.01 0.038 0.025 0.052 0.045 0.012 0.021 0.019 0.044 0.02 0.067 0 0.023-0.004 0.046-0.015 0.066-0.01 0.021-0.025 0.038-0.045 0.052-0.027 0.019-0.058 0.039-0.094 0.06-0.037 0.021-0.078 0.039-0.125 0.054-0.046 0.015-0.098 0.023-0.156 0.024-0.057 0-0.112-0.008-0.164-0.024s-0.1-0.039-0.143-0.069c-0.028-0.021-0.053-0.045-0.075-0.073-0.023-0.028-0.04-0.059-0.053-0.093s-0.02-0.071-0.02-0.109c0-0.029 0.004-0.057 0.011-0.083 0.007-0.027 0.018-0.052 0.032-0.074 0.022-0.034 0.048-0.062 0.077-0.086 0.03-0.024 0.061-0.043 0.095-0.059 0.032-0.015 0.068-0.028 0.104-0.038 0.037-0.011 0.075-0.02 0.114-0.027h0.002c0.045-0.01 0.086-0.02 0.121-0.032 0.034-0.013 0.061-0.026 0.079-0.038 0.01-0.007 0.018-0.013 0.023-0.017 0.005-0.005 0.008-0.01 0.01-0.013 0.002-0.004 0.004-0.007 0.005-0.011 0.002-0.004 0.002-0.009 0.002-0.014 0-0.01-0.003-0.022-0.009-0.034-0.007-0.013-0.019-0.026-0.036-0.041-0.02-0.013-0.045-0.024-0.074-0.034-0.03-0.009-0.062-0.014-0.096-0.014-0.033 0-0.066 0.005-0.1 0.015-0.034 0.011-0.066 0.025-0.097 0.042-0.03 0.016-0.056 0.034-0.078 0.053-0.019 0.016-0.04 0.025-0.063 0.029s-0.046 0.002-0.068-0.006c-0.022-0.009-0.041-0.023-0.056-0.043-0.015-0.019-0.025-0.04-0.028-0.062-0.004-0.023-0.002-0.045 0.006-0.067s0.021-0.04 0.039-0.056m-1.123 0.702c0.032 0.034 0.068 0.06 0.108 0.077s0.084 0.026 0.13 0.026c0.043 0 0.084-0.009 0.125-0.026s0.077-0.043 0.11-0.077c0.029-0.033 0.053-0.071 0.07-0.114 0.018-0.043 0.027-0.09 0.027-0.139 0-0.033-0.004-0.065-0.012-0.096s-0.019-0.06-0.034-0.086-0.032-0.049-0.051-0.069c-0.033-0.035-0.069-0.062-0.11-0.079s-0.082-0.026-0.125-0.026c-0.046 0-0.09 0.009-0.13 0.026s-0.076 0.044-0.108 0.079c-0.021 0.02-0.039 0.043-0.054 0.069-0.014 0.026-0.025 0.055-0.032 0.086s-0.011 0.063-0.011 0.096c0 0.049 0.008 0.096 0.024 0.139 0.017 0.043 0.041 0.081 0.073 0.114m-0.239-1.344c0.027 0 0.051 0.006 0.072 0.019s0.038 0.029 0.051 0.049c0.012 0.02 0.019 0.042 0.019 0.066v0.438c0.045-0.032 0.097-0.058 0.155-0.075 0.057-0.018 0.117-0.027 0.18-0.027 0.084 0 0.162 0.016 0.235 0.048s0.137 0.077 0.192 0.133c0.055 0.057 0.099 0.123 0.13 0.198 0.032 0.075 0.048 0.155 0.048 0.242 0 0.086-0.016 0.167-0.048 0.243-0.031 0.076-0.075 0.142-0.13 0.2s-0.119 0.103-0.192 0.135c-0.073 0.033-0.151 0.05-0.235 0.051-0.064-0.001-0.125-0.011-0.183-0.029-0.058-0.019-0.11-0.044-0.157-0.074-0.004 0.019-0.012 0.035-0.025 0.051s-0.028 0.028-0.048 0.037c-0.019 0.01-0.041 0.014-0.064 0.015-0.025-0.001-0.047-0.007-0.067-0.019-0.02-0.011-0.036-0.027-0.048-0.047s-0.017-0.042-0.018-0.067v-1.453c0.001-0.024 0.006-0.046 0.018-0.066s0.028-0.036 0.048-0.049 0.042-0.019 0.067-0.019m-0.598 1.72h-0.063v0.362c0 0.026-0.006 0.05-0.018 0.07-0.012 0.021-0.028 0.037-0.049 0.049-0.02 0.012-0.044 0.018-0.07 0.019-0.026-0.001-0.05-0.007-0.071-0.019s-0.037-0.028-0.05-0.049c-0.012-0.02-0.018-0.044-0.019-0.07v-0.362h-0.073c-0.026-0.001-0.049-0.007-0.069-0.019-0.021-0.012-0.038-0.028-0.05-0.049-0.012-0.02-0.018-0.044-0.018-0.07 0-0.025 0.006-0.048 0.018-0.069s0.029-0.037 0.05-0.049c0.02-0.013 0.043-0.019 0.069-0.02h0.073v-0.697c0.001-0.051 0.013-0.098 0.038-0.139 0.025-0.042 0.058-0.075 0.1-0.1s0.088-0.038 0.139-0.038c0.027 0 0.05 0.006 0.071 0.018s0.037 0.028 0.049 0.049c0.012 0.02 0.018 0.044 0.018 0.07 0 0.027-0.006 0.05-0.018 0.071s-0.028 0.037-0.049 0.05c-0.021 0.012-0.044 0.019-0.071 0.019v0.697h0.063c0.025 0.001 0.049 0.007 0.07 0.02 0.021 0.012 0.038 0.028 0.05 0.049 0.013 0.021 0.02 0.044 0.02 0.069 0 0.026-0.007 0.05-0.02 0.07-0.012 0.021-0.029 0.037-0.05 0.049s-0.045 0.018-0.07 0.019m-0.73 0h-0.062v0.362c-0.001 0.026-0.007 0.05-0.019 0.07-0.012 0.021-0.028 0.037-0.049 0.049-0.02 0.012-0.044 0.018-0.07 0.019-0.026-0.001-0.049-0.007-0.071-0.019-0.021-0.012-0.037-0.028-0.05-0.049-0.012-0.02-0.018-0.044-0.019-0.07v-0.362h-0.073c-0.026-0.001-0.049-0.007-0.069-0.019-0.021-0.012-0.037-0.028-0.05-0.049-0.012-0.02-0.017-0.044-0.018-0.07 0.001-0.025 0.006-0.048 0.018-0.069 0.013-0.021 0.029-0.037 0.05-0.049 0.02-0.013 0.043-0.019 0.069-0.02h0.073v-0.697c0.001-0.051 0.013-0.098 0.038-0.139 0.025-0.042 0.058-0.075 0.1-0.1s0.088-0.038 0.14-0.038c0.026 0 0.049 0.006 0.07 0.018s0.037 0.028 0.049 0.049c0.012 0.02 0.018 0.044 0.018 0.07 0 0.027-0.006 0.05-0.018 0.071s-0.028 0.037-0.049 0.05c-0.021 0.012-0.044 0.019-0.07 0.019v0.697h0.062c0.025 0.001 0.049 0.007 0.07 0.02 0.021 0.012 0.038 0.028 0.05 0.049 0.013 0.021 0.02 0.044 0.02 0.069 0 0.026-0.007 0.05-0.02 0.07-0.012 0.021-0.029 0.037-0.05 0.049s-0.045 0.018-0.07 0.019m-1.565-0.548c0.001 0.05 0.014 0.095 0.038 0.135 0.023 0.04 0.056 0.073 0.095 0.097 0.04 0.024 0.085 0.037 0.135 0.038 0.05-0.001 0.096-0.014 0.136-0.038 0.041-0.024 0.073-0.057 0.097-0.097s0.036-0.085 0.037-0.135v-0.565c0-0.026 0.006-0.05 0.018-0.07 0.012-0.021 0.028-0.037 0.049-0.049s0.044-0.018 0.07-0.018 0.05 0.006 0.07 0.018c0.021 0.012 0.037 0.028 0.049 0.049 0.012 0.02 0.018 0.044 0.019 0.07v0.565c-0.001 0.076-0.015 0.146-0.043 0.212s-0.066 0.124-0.116 0.174c-0.05 0.051-0.108 0.09-0.173 0.118-0.066 0.029-0.137 0.043-0.213 0.044-0.049-0.001-0.096-0.007-0.141-0.021-0.044-0.013-0.087-0.03-0.127-0.052v0.435c0 0.026-0.006 0.05-0.019 0.07-0.013 0.021-0.029 0.037-0.05 0.049s-0.044 0.018-0.071 0.019c-0.025-0.001-0.048-0.007-0.069-0.019-0.02-0.012-0.037-0.028-0.049-0.049-0.013-0.02-0.019-0.044-0.019-0.07v-1.475c0-0.006 0-0.012 0.001-0.018 0.001-0.007 0.002-0.012 0.004-0.017 0.009-0.03 0.026-0.054 0.049-0.073 0.024-0.019 0.052-0.029 0.083-0.029 0.027 0 0.05 0.006 0.071 0.018s0.037 0.028 0.05 0.049c0.013 0.02 0.019 0.044 0.019 0.07z" fill="#4f8bcc"/></g><g transform="matrix(1.0965 0 0 -1.0965 71.708 280.34)"><path d="m0 0h-0.063v0.362c0 0.027-0.006 0.05-0.018 0.07-0.012 0.021-0.028 0.037-0.049 0.05-0.02 0.011-0.044 0.017-0.07 0.018-0.027-0.001-0.05-0.007-0.071-0.018-0.021-0.013-0.037-0.029-0.05-0.05-0.012-0.02-0.019-0.043-0.019-0.07v-0.362h-0.073c-0.026-0.001-0.049-0.007-0.069-0.018-0.021-0.013-0.038-0.029-0.05-0.05-0.012-0.02-0.018-0.043-0.018-0.07 0-0.025 0.006-0.048 0.018-0.068 0.012-0.021 0.029-0.038 0.05-0.05 0.02-0.012 0.043-0.019 0.069-0.019h0.073v-0.698c0.001-0.051 0.013-0.098 0.038-0.139 0.025-0.042 0.058-0.075 0.1-0.1 0.041-0.025 0.088-0.037 0.139-0.038 0.027 0 0.05 0.006 0.07 0.018 0.021 0.012 0.037 0.029 0.049 0.049 0.013 0.021 0.018 0.044 0.019 0.07-0.001 0.027-0.006 0.05-0.019 0.071-0.012 0.021-0.028 0.038-0.049 0.05-0.02 0.013-0.043 0.019-0.07 0.019v0.698h0.063c0.025 0 0.049 0.007 0.069 0.019 0.022 0.012 0.038 0.029 0.051 0.05 0.013 0.02 0.019 0.043 0.02 0.068-0.001 0.027-0.007 0.05-0.02 0.07-0.013 0.021-0.029 0.037-0.051 0.05-0.02 0.011-0.044 0.017-0.069 0.018m-1.62-1.077c0.033-0.028 0.072-0.054 0.117-0.08 0.044-0.026 0.094-0.048 0.148-0.065 0.055-0.017 0.115-0.026 0.18-0.028 0.062 0 0.12 0.009 0.175 0.027 0.055 0.017 0.104 0.041 0.15 0.073 0.03 0.022 0.057 0.047 0.081 0.076 0.024 0.03 0.042 0.063 0.056 0.099 0.013 0.036 0.02 0.074 0.02 0.115 0 0.029-0.004 0.057-0.012 0.085s-0.02 0.055-0.035 0.08c-0.022 0.035-0.048 0.065-0.079 0.089s-0.064 0.043-0.099 0.058c-0.036 0.018-0.073 0.032-0.112 0.044s-0.079 0.021-0.12 0.029h-0.003l-0.002 0.002c-0.043 0.008-0.079 0.017-0.111 0.027-0.031 0.011-0.055 0.022-0.071 0.033-0.009 0.005-0.015 0.011-0.02 0.015-0.004 0.004-0.007 0.008-0.008 0.011-0.003 0.003-0.004 0.006-0.004 0.009-0.001 0.002-0.001 0.006-0.001 0.01 0 0.007 0.002 0.015 0.008 0.025 0.005 0.011 0.016 0.022 0.032 0.033 0.017 0.013 0.038 0.023 0.064 0.032 0.025 0.008 0.054 0.012 0.086 0.013 0.04-0.001 0.078-0.009 0.115-0.027 0.037-0.017 0.075-0.039 0.115-0.066 0.021-0.014 0.044-0.021 0.067-0.022 0.023-0.002 0.046 0.002 0.066 0.012 0.021 0.01 0.038 0.025 0.052 0.045 0.012 0.022 0.019 0.044 0.02 0.067 0 0.024-0.004 0.046-0.015 0.067-0.01 0.021-0.025 0.038-0.045 0.051-0.027 0.02-0.058 0.04-0.095 0.06-0.036 0.022-0.077 0.04-0.124 0.055-0.046 0.015-0.098 0.022-0.156 0.023-0.057 0-0.112-0.008-0.164-0.024s-0.1-0.039-0.143-0.069c-0.028-0.02-0.053-0.045-0.075-0.073-0.023-0.028-0.04-0.059-0.053-0.093s-0.02-0.07-0.02-0.109c0-0.028 0.004-0.056 0.011-0.083s0.018-0.052 0.032-0.074c0.022-0.033 0.048-0.062 0.077-0.086 0.03-0.023 0.061-0.043 0.095-0.059 0.032-0.015 0.068-0.028 0.104-0.038 0.037-0.011 0.075-0.02 0.114-0.027h0.002c0.045-0.009 0.086-0.02 0.121-0.032 0.034-0.013 0.061-0.025 0.079-0.038 0.01-0.006 0.018-0.012 0.023-0.017s0.008-0.009 0.01-0.013 0.004-0.007 0.005-0.011c0.002-0.003 0.002-0.008 0.002-0.014 0-0.01-0.003-0.021-0.009-0.034-0.007-0.012-0.019-0.026-0.036-0.041-0.02-0.013-0.045-0.024-0.074-0.033-0.03-0.01-0.062-0.014-0.096-0.014-0.033-0.001-0.066 0.004-0.1 0.015-0.034 0.01-0.066 0.024-0.097 0.041-0.03 0.017-0.056 0.035-0.078 0.054-0.019 0.015-0.04 0.025-0.063 0.029-0.023 0.003-0.046 0.001-0.068-0.007s-0.041-0.022-0.056-0.043c-0.015-0.018-0.025-0.039-0.028-0.062-0.004-0.023-0.002-0.045 0.006-0.067 0.008-0.021 0.021-0.04 0.039-0.055m-1.102 0.709c0.031 0.028 0.067 0.051 0.108 0.069 0.04 0.017 0.084 0.026 0.132 0.026 0.044 0 0.085-0.009 0.124-0.026 0.039-0.018 0.074-0.041 0.106-0.069 0.031-0.033 0.055-0.073 0.072-0.116 0.017-0.044 0.025-0.092 0.025-0.144 0-0.053-0.008-0.102-0.025-0.146s-0.041-0.083-0.072-0.119c-0.032-0.03-0.067-0.053-0.106-0.068-0.039-0.016-0.08-0.024-0.124-0.024-0.048 0-0.092 0.008-0.132 0.024-0.041 0.015-0.077 0.038-0.108 0.068-0.029 0.036-0.052 0.075-0.067 0.119s-0.023 0.093-0.023 0.146c0 0.052 0.008 0.1 0.023 0.144 0.015 0.043 0.038 0.083 0.067 0.116m0.24-0.889c0.083 0 0.16 0.017 0.232 0.05 0.071 0.033 0.133 0.08 0.185 0.139 0.057 0.056 0.1 0.121 0.13 0.196 0.029 0.075 0.045 0.157 0.045 0.244 0 0.086-0.016 0.164-0.045 0.238-0.03 0.073-0.073 0.14-0.13 0.2-0.052 0.059-0.114 0.106-0.185 0.139-0.072 0.033-0.149 0.05-0.232 0.051-0.087-0.001-0.166-0.018-0.238-0.051s-0.136-0.08-0.192-0.139c-0.055-0.06-0.097-0.127-0.127-0.2-0.03-0.074-0.045-0.152-0.046-0.238 0.001-0.087 0.016-0.169 0.046-0.244s0.072-0.14 0.127-0.196c0.056-0.059 0.12-0.106 0.192-0.139s0.151-0.05 0.238-0.05m-1.711 0.881c0.032 0.035 0.068 0.06 0.108 0.077 0.041 0.018 0.084 0.026 0.13 0.026 0.043 0 0.085-0.008 0.125-0.026 0.041-0.017 0.077-0.042 0.11-0.077 0.029-0.033 0.053-0.071 0.07-0.114 0.018-0.043 0.027-0.09 0.028-0.139 0-0.033-0.005-0.064-0.013-0.096-0.008-0.03-0.019-0.059-0.034-0.086-0.015-0.026-0.032-0.049-0.051-0.069-0.033-0.035-0.069-0.061-0.11-0.079-0.04-0.017-0.082-0.026-0.125-0.026-0.046 0-0.089 0.009-0.13 0.026-0.04 0.018-0.076 0.044-0.108 0.079-0.021 0.02-0.039 0.043-0.054 0.069-0.014 0.027-0.025 0.056-0.032 0.086-0.007 0.032-0.011 0.063-0.011 0.096 0 0.049 0.008 0.096 0.024 0.139 0.017 0.043 0.041 0.081 0.073 0.114m-0.239-1.344c0.027 0 0.051 0.007 0.072 0.019 0.021 0.013 0.039 0.029 0.051 0.049 0.012 0.021 0.019 0.043 0.019 0.066v0.438c0.045-0.032 0.097-0.058 0.155-0.075 0.057-0.018 0.117-0.027 0.18-0.027 0.084 0 0.162 0.017 0.235 0.049s0.137 0.076 0.192 0.133c0.055 0.056 0.099 0.122 0.13 0.197 0.032 0.075 0.048 0.156 0.048 0.242 0 0.087-0.016 0.167-0.048 0.244-0.031 0.075-0.075 0.142-0.13 0.199-0.055 0.058-0.119 0.103-0.192 0.136s-0.151 0.049-0.235 0.05c-0.064-0.001-0.125-0.01-0.183-0.029s-0.11-0.043-0.157-0.074c-0.004 0.019-0.012 0.036-0.025 0.051-0.013 0.016-0.028 0.028-0.048 0.038-0.019 0.009-0.041 0.013-0.064 0.014-0.025-0.001-0.047-0.007-0.067-0.018-0.02-0.012-0.036-0.028-0.047-0.048-0.013-0.02-0.018-0.042-0.019-0.067v-1.453c0.001-0.023 0.006-0.045 0.019-0.066 0.011-0.02 0.027-0.036 0.047-0.049 0.02-0.012 0.042-0.019 0.067-0.019m-0.96 1.087h0.47c0.027 0.001 0.052 0.007 0.074 0.021 0.021 0.013 0.04 0.031 0.053 0.053s0.02 0.047 0.02 0.074c0 0.028-0.007 0.053-0.02 0.075-0.013 0.023-0.032 0.041-0.053 0.055-0.022 0.013-0.047 0.019-0.074 0.02h-0.47c-0.027-0.001-0.052-0.007-0.074-0.02-0.022-0.014-0.04-0.032-0.053-0.055-0.014-0.022-0.02-0.047-0.021-0.075 0.001-0.027 0.007-0.052 0.021-0.074 0.013-0.022 0.031-0.04 0.053-0.053 0.022-0.014 0.047-0.02 0.074-0.021m-0.968 0.395c0.055-0.004 0.103-0.016 0.146-0.034s0.08-0.041 0.111-0.067c0.031-0.027 0.057-0.054 0.075-0.082 0.019-0.029 0.032-0.056 0.038-0.082h-0.707c0.005 0.026 0.015 0.054 0.031 0.084 0.016 0.029 0.038 0.057 0.066 0.083 0.027 0.027 0.061 0.049 0.101 0.067s0.086 0.028 0.139 0.031m0-1.012c0.089 0 0.17 0.013 0.245 0.04 0.074 0.027 0.142 0.069 0.203 0.125 0.019 0.018 0.029 0.037 0.033 0.058 0.003 0.02 0.001 0.04-0.006 0.059-0.007 0.018-0.016 0.033-0.027 0.045-0.009 0.01-0.021 0.018-0.036 0.024s-0.032 0.008-0.05 0.008c-0.019 0-0.037-0.003-0.055-0.009s-0.033-0.016-0.047-0.03c-0.021-0.016-0.046-0.029-0.075-0.039s-0.059-0.017-0.091-0.021-0.063-0.005-0.094-0.003c-0.029 0.003-0.059 0.01-0.089 0.02-0.03 0.009-0.058 0.023-0.085 0.039-0.026 0.016-0.048 0.034-0.066 0.054-0.022 0.022-0.041 0.047-0.054 0.077-0.015 0.029-0.024 0.059-0.031 0.088h0.795c0.036 0 0.065 0.009 0.089 0.027 0.023 0.018 0.037 0.043 0.041 0.073 0.001 0.003 0.002 0.007 0.002 0.011 0.001 0.005 0.001 0.008 0.001 0.011v0.013c-0.006 0.085-0.025 0.163-0.057 0.233-0.032 0.071-0.076 0.132-0.13 0.183-0.054 0.052-0.117 0.092-0.187 0.121-0.071 0.028-0.147 0.042-0.229 0.043-0.086-0.001-0.166-0.017-0.239-0.05-0.074-0.033-0.138-0.078-0.193-0.135-0.055-0.058-0.099-0.124-0.129-0.199-0.032-0.075-0.047-0.155-0.049-0.241 0.002-0.086 0.017-0.166 0.049-0.241 0.03-0.075 0.074-0.141 0.129-0.198s0.119-0.103 0.193-0.135c0.073-0.033 0.153-0.05 0.239-0.051" fill="#4f8bcc"/></g><g transform="matrix(1.0965 0 0 -1.0965 38.346 282.93)"><path d="m0 0c-0.066 0-0.12 0.054-0.12 0.12v4.05c0 0.066 0.054 0.12 0.12 0.12h3.02c0.066 0 0.12-0.054 0.12-0.12s-0.054-0.12-0.12-0.12h-2.9v-3.93c0-0.066-0.054-0.12-0.12-0.12" fill="#4f8bcc"/></g><path d="m39.136 283.33h3.0482v-4.1776h-3.0482zm3.1798 0.26326h-3.3113c-0.07236 0-0.13157-0.0581-0.13157-0.13148v-4.4407c0-0.0724 0.05921-0.13147 0.13157-0.13147h3.3113c0.07236 0 0.13157 0.0591 0.13157 0.13147v4.4407c0 0.0734-0.05921 0.13148-0.13157 0.13148" fill="#4f8bcc"/><g transform="matrix(1.0965 0 0 -1.0965 41.525 282.8)"><path d="m0 0h-1.52c-0.066 0-0.12 0.054-0.12 0.12 0 0.067 0.054 0.12 0.12 0.12h1.4v1.401c0 0.066 0.054 0.12 0.12 0.12s0.12-0.054 0.12-0.12v-1.521c0-0.066-0.054-0.12-0.12-0.12" fill="#4f8bcc"/></g><g transform="matrix(1.0965 0 0 -1.0965 41.525 282.8)"><path d="m0 0c-0.031 0-0.062 0.012-0.085 0.035l-1.618 1.618c-0.047 0.047-0.047 0.123 0 0.17s0.123 0.047 0.17 0l1.618-1.618c0.047-0.047 0.047-0.123 0-0.17-0.023-0.023-0.054-0.035-0.085-0.035" fill="#4f8bcc"/></g><g transform="matrix(1.0965 0 0 -1.0965 45.306 276.15)"><path d="m0 0l0.001 0.001 0.001 0.001 0.001-0.001c0-0.001 0.001-0.001 0.003-0.001h0.648c0.02 0 0.038 0.005 0.054 0.015 0.017 0.01 0.03 0.023 0.04 0.04 0.01 0.016 0.016 0.035 0.016 0.055 0 0.021-0.006 0.04-0.016 0.057-0.01 0.016-0.023 0.03-0.04 0.04-0.016 0.01-0.034 0.015-0.054 0.015h-0.542v0.368h0.466c0.02 0 0.039 0.005 0.055 0.015 0.017 0.01 0.03 0.024 0.04 0.04 0.01 0.017 0.015 0.036 0.015 0.057 0 0.02-0.005 0.038-0.015 0.054-0.01 0.017-0.023 0.03-0.04 0.04-0.016 0.011-0.035 0.016-0.055 0.016h-0.466v0.366h0.542c0.02 0 0.038 0.005 0.054 0.015 0.017 0.01 0.03 0.024 0.04 0.04 0.01 0.017 0.016 0.036 0.016 0.057s-0.006 0.04-0.016 0.056c-0.01 0.017-0.023 0.03-0.04 0.039-0.016 0.01-0.034 0.015-0.054 0.015h-0.654c-0.021 0-0.04-0.005-0.056-0.015-0.017-0.009-0.03-0.022-0.039-0.039-0.01-0.016-0.015-0.035-0.015-0.056v-1.18c0-0.02 0.005-0.039 0.015-0.055 0.009-0.017 0.022-0.03 0.039-0.04 0.016-0.01 0.035-0.015 0.056-0.015m-0.776 1.29c0 0.021-0.005 0.04-0.016 0.056-0.009 0.017-0.022 0.03-0.039 0.039-0.017 0.01-0.035 0.015-0.055 0.015h-0.854c-0.021 0-0.04-0.005-0.056-0.015-0.017-0.009-0.03-0.022-0.039-0.039-0.01-0.016-0.015-0.035-0.015-0.056 0-0.02 0.005-0.038 0.015-0.056 0.009-0.017 0.022-0.03 0.039-0.04 0.016-0.01 0.035-0.016 0.056-0.016h0.316v-1.068c0-0.021 0.005-0.04 0.015-0.056 0.01-0.017 0.023-0.03 0.04-0.039 0.016-0.01 0.034-0.015 0.055-0.015s0.039 0.005 0.056 0.015c0.016 0.009 0.029 0.022 0.039 0.039 0.01 0.016 0.015 0.035 0.015 0.056v1.068h0.318c0.02 0 0.038 0.006 0.055 0.016s0.03 0.023 0.039 0.04c0.011 0.018 0.016 0.036 0.016 0.056m-2.634-1.09c0.028-0.023 0.061-0.046 0.097-0.069 0.037-0.023 0.077-0.044 0.12-0.064 0.044-0.02 0.09-0.035 0.14-0.048 0.049-0.012 0.101-0.018 0.155-0.019 0.071 0 0.138 0.01 0.201 0.03s0.119 0.048 0.169 0.084c0.033 0.024 0.063 0.052 0.089 0.084 0.025 0.032 0.046 0.067 0.06 0.105 0.015 0.038 0.022 0.079 0.023 0.121 0 0.032-0.005 0.062-0.013 0.091s-0.02 0.056-0.035 0.08c-0.024 0.037-0.052 0.069-0.086 0.096-0.035 0.027-0.073 0.05-0.114 0.07-0.041 0.019-0.084 0.035-0.13 0.049s-0.095 0.025-0.146 0.035h-0.004c-0.055 0.01-0.104 0.023-0.146 0.038-0.043 0.015-0.078 0.032-0.104 0.05-0.013 0.01-0.024 0.018-0.033 0.027s-0.016 0.017-0.021 0.026c-0.005 0.007-0.009 0.016-0.011 0.025-0.002 0.008-0.003 0.019-0.003 0.031-0.001 0.021 0.005 0.042 0.017 0.064 0.012 0.021 0.032 0.042 0.059 0.062s0.06 0.037 0.098 0.049c0.039 0.012 0.08 0.019 0.126 0.019 0.04 0 0.079-0.006 0.115-0.018s0.071-0.027 0.105-0.047c0.034-0.019 0.068-0.04 0.102-0.063 0.016-0.011 0.033-0.017 0.051-0.017 0.018-0.001 0.035 0.002 0.051 0.011 0.016 0.008 0.029 0.02 0.04 0.036 0.01 0.016 0.016 0.032 0.017 0.05s-0.003 0.035-0.011 0.051c-0.007 0.016-0.019 0.03-0.034 0.041-0.026 0.017-0.054 0.034-0.084 0.053-0.031 0.019-0.064 0.036-0.101 0.052-0.036 0.016-0.074 0.029-0.117 0.039-0.041 0.01-0.086 0.016-0.134 0.016-0.066 0-0.128-0.009-0.187-0.027-0.059-0.019-0.112-0.045-0.159-0.079-0.031-0.023-0.059-0.049-0.083-0.079s-0.043-0.063-0.056-0.099c-0.014-0.036-0.021-0.074-0.021-0.114 0-0.03 0.004-0.059 0.011-0.087 0.008-0.027 0.019-0.054 0.034-0.078 0.023-0.035 0.05-0.065 0.082-0.091 0.031-0.025 0.066-0.047 0.105-0.065 0.038-0.018 0.079-0.033 0.122-0.045 0.043-0.013 0.089-0.024 0.136-0.033h0.004c0.059-0.011 0.112-0.025 0.159-0.041s0.085-0.034 0.115-0.053c0.015-0.011 0.027-0.02 0.036-0.03 0.01-0.01 0.018-0.02 0.024-0.03s0.01-0.02 0.013-0.03 0.005-0.022 0.005-0.035c0-0.025-0.007-0.05-0.021-0.074s-0.035-0.048-0.065-0.07c-0.031-0.022-0.067-0.04-0.11-0.053-0.043-0.014-0.09-0.021-0.14-0.021-0.036 0-0.072 0.004-0.108 0.013-0.035 0.009-0.07 0.021-0.104 0.036-0.033 0.015-0.064 0.032-0.094 0.05-0.029 0.019-0.054 0.037-0.076 0.055-0.015 0.012-0.032 0.02-0.05 0.022-0.018 0.003-0.035 0.002-0.052-0.004-0.017-0.007-0.032-0.017-0.044-0.032s-0.019-0.031-0.021-0.049c-0.003-0.018-0.001-0.036 0.005-0.053 0.007-0.017 0.017-0.032 0.032-0.044m-1.259 0.35 0.162 0.43 0.163-0.43zm0.505-0.48c0.008-0.022 0.021-0.039 0.04-0.051 0.019-0.013 0.039-0.019 0.061-0.019 0.007 0 0.015 0.001 0.021 0.002 0.007 0.001 0.013 0.002 0.017 0.004 0.02 0.008 0.036 0.019 0.048 0.034s0.02 0.033 0.023 0.052c0.004 0.019 0.002 0.038-0.005 0.058l-0.441 1.178c-0.01 0.022-0.024 0.04-0.043 0.052-0.019 0.013-0.04 0.019-0.064 0.018-0.022 0.001-0.043-0.005-0.062-0.018-0.02-0.012-0.034-0.03-0.044-0.052l-0.442-1.178c-0.006-0.02-0.008-0.039-0.004-0.058 0.003-0.019 0.011-0.037 0.023-0.052s0.028-0.026 0.047-0.034c0.007-0.002 0.012-0.003 0.019-0.004 0.006-0.001 0.012-0.002 0.02-0.002 0.022 0 0.042 0.006 0.061 0.019 0.019 0.012 0.033 0.029 0.042 0.051l0.098 0.26h0.487zm-2.093 1.108h0.246c0.039 0 0.074-0.01 0.105-0.028s0.056-0.043 0.074-0.074c0.018-0.032 0.028-0.067 0.029-0.106-0.001-0.038-0.011-0.072-0.029-0.103-0.018-0.03-0.043-0.055-0.074-0.073s-0.066-0.027-0.105-0.028h-0.246zm0.676-0.208c0 0.06-0.011 0.116-0.034 0.168-0.021 0.051-0.052 0.097-0.091 0.136-0.04 0.04-0.086 0.07-0.137 0.092-0.052 0.022-0.108 0.034-0.168 0.034h-0.358c-0.02 0-0.039-0.005-0.055-0.015-0.017-0.009-0.03-0.022-0.04-0.039-0.009-0.016-0.015-0.035-0.015-0.056v-1.18c0-0.02 0.006-0.039 0.015-0.055 0.01-0.017 0.023-0.03 0.04-0.04 0.016-0.01 0.035-0.015 0.055-0.015 0.021 0 0.04 0.005 0.057 0.015 0.016 0.01 0.03 0.023 0.04 0.04 0.01 0.016 0.015 0.035 0.015 0.055v0.434h0.246c0.06 0 0.116 0.012 0.168 0.034 0.051 0.022 0.097 0.052 0.137 0.091 0.039 0.039 0.07 0.084 0.091 0.136 0.023 0.051 0.034 0.106 0.034 0.165" fill="#4f8bcc"/></g><path d="m35.084 284.69h48.156v-7.5492h-48.156zm48.288 0.26326h-48.42c-0.07347 0-0.13157-0.0581-0.13157-0.13147v-7.8124c0-0.0724 0.05812-0.13147 0.13157-0.13147h48.419c0.07348 0 0.13268 0.0591 0.13268 0.13147v7.8124c0 0.0734-0.05921 0.13147-0.13268 0.13147" fill="#4f8bcc"/></g></svg>
