<?xml version="1.0" encoding="UTF-8" standalone="no"?>
<svg
   xmlns:dc="http://purl.org/dc/elements/1.1/"
   xmlns:cc="http://creativecommons.org/ns#"
   xmlns:rdf="http://www.w3.org/1999/02/22-rdf-syntax-ns#"
   xmlns:svg="http://www.w3.org/2000/svg"
   xmlns="http://www.w3.org/2000/svg"
   xmlns:sodipodi="http://sodipodi.sourceforge.net/DTD/sodipodi-0.dtd"
   xmlns:inkscape="http://www.inkscape.org/namespaces/inkscape"
   height="90.922"
   width="184"
   version="1.1"
   id="svg66"
   sodipodi:docname="email-daily-1-half.plain.svg"
   inkscape:version="0.92.3 (unknown)">
  <metadata
     id="metadata72">
    <rdf:RDF>
      <cc:Work
         rdf:about="">
        <dc:format>image/svg+xml</dc:format>
        <dc:type
           rdf:resource="http://purl.org/dc/dcmitype/StillImage" />
      </cc:Work>
    </rdf:RDF>
  </metadata>
  <defs
     id="defs70" />
  <sodipodi:namedview
     pagecolor="#ffffff"
     bordercolor="#666666"
     borderopacity="1"
     objecttolerance="10"
     gridtolerance="10"
     guidetolerance="10"
     inkscape:pageopacity="0"
     inkscape:pageshadow="2"
     inkscape:window-width="1855"
     inkscape:window-height="1056"
     id="namedview68"
     showgrid="false"
     inkscape:zoom="1.951087"
     inkscape:cx="174.26184"
     inkscape:cy="45.460999"
     inkscape:window-x="65"
     inkscape:window-y="24"
     inkscape:window-maximized="1"
     inkscape:current-layer="svg66" />
  <g
     fill-rule="evenodd"
     fill="#4f8acc"
     id="g12">
    <path
       d="m183.49 90.922h-182.99c-0.27659 0-0.5-0.14-0.5-0.313v-89.047c0-0.86202 1.1175-1.562 2.4898-1.562h179.02c1.3724 0 2.4861 0.69998 2.4861 1.5622v89.047c0 0.17265-0.22341 0.313-0.49822 0.313zm-182.5-0.625h182v-88.734c0-0.51691-0.66733-0.93617-1.4897-0.93617h-179.01c-0.82401 0-1.4934 0.41926-1.4934 0.93617z"
       stroke-width="3.2854"
       id="path2" />
    <g
       stroke-width="4.1449"
       id="g10">
      <path
         d="m183.49 14.901h-182.99c-0.27659 0-0.5-0.222-0.5-0.497 0-0.276 0.22341-0.498 0.49822-0.498h183c0.27481 0 0.49822 0.22217 0.49822 0.49822 0 0.27481-0.22341 0.49698-0.49822 0.49698z"
         id="path4" />
      <path
         d="m40.119 59.915h-26.143c-2.4791 0-4.4964-2.0161-4.4964-4.4976v-25.857c0-2.4816 2.0173-4.4976 4.4964-4.4976h26.144c2.4778 0 4.4964 2.0161 4.4964 4.4976v25.857c0 2.4816-2.0186 4.4976-4.4964 4.4976zm-26.143-33.856c-1.9303 0-3.5012 1.5709-3.5012 3.5012v25.857c0 1.9315 1.5709 3.5012 3.5012 3.5012h26.144c1.9303 0 3.5-1.5697 3.5-3.5012v-25.857c0-1.9303-1.5697-3.5012-3.5-3.5012z"
         id="path6" />
      <path
         d="m164.38 80.598h-101.98c-3.3072 0-5.9969-2.6871-5.9969-5.9944v-28.068l-7.9483-4.5942c-0.15253-0.08787-0.24911-0.24994-0.24911-0.42858 0-0.1774 0.09658-0.34444 0.24911-0.429l7.9483-4.5905v-5.407c0-3.3072 2.6896-5.9956 5.9969-5.9956h101.98c3.3064 0 5.9948 2.6884 5.9948 5.9956v43.517c0 3.3072-2.6884 5.9944-5.9948 5.9944zm-114.68-39.085l7.4488 4.3074c0.15419 0.08912 0.24911 0.24994 0.24911 0.42858v28.355c0 2.7564 2.2432 4.9992 5.0017 4.9992h101.98c2.7564 0 4.9984-2.2428 4.9984-4.9992v-43.518c0-2.7564-2.242-4.9992-4.9984-4.9992h-101.98c-2.7584 0-5.0017 2.2428-5.0017 4.9992v5.6951c0 0.17865-0.09492 0.34071-0.24911 0.42858zm7.201-4.7314h0.01244z"
         id="path8" />
    </g>
  </g>
  <g
     fill-rule="evenodd"
     stroke-width="4.1449"
     fill="#4f8acc"
     id="g64">
    <path
       d="m105.19 33.139h-41.033c-0.27481 0-0.49822-0.22341-0.49822-0.49822 0-0.27522 0.22341-0.49822 0.49822-0.49822h41.033c0.27481 0 0.49822 0.223 0.49822 0.49822 0 0.27481-0.22341 0.49822-0.49822 0.49822z"
       id="path18" />
    <path
       d="m95.62 38.652h-3.7976c-0.27481 0-0.49822-0.22175-0.49822-0.49698 0-0.27605 0.22341-0.49822 0.49822-0.49822h3.7976c0.27481 0 0.4978 0.22217 0.4978 0.49822 0 0.27522-0.223 0.49698-0.4978 0.49698zm-6.5917 0h-24.877c-0.27481 0-0.49822-0.22175-0.49822-0.49698 0-0.27605 0.22341-0.49822 0.49822-0.49822h24.877c0.27605 0 0.49822 0.22217 0.49822 0.49822 0 0.27522-0.22217 0.49698-0.49822 0.49698z"
       id="path20" />
    <path
       d="m105.19 44.164h-41.033c-0.27481 0-0.49822-0.22217-0.49822-0.49822 0-0.27481 0.22341-0.49697 0.49822-0.49697h41.033c0.27481 0 0.49822 0.22217 0.49822 0.49697 0 0.27605-0.22341 0.49822-0.49822 0.49822z"
       id="path22" />
    <path
       d="m105.19 49.677h-8.0059c-0.27646 0-0.49822-0.22341-0.49822-0.49822 0-0.27522 0.22175-0.49698 0.49822-0.49698h8.0059c0.27481 0 0.49822 0.22175 0.49822 0.49698 0 0.27481-0.22341 0.49822-0.49822 0.49822zm-11.654 0h-29.379c-0.27481 0-0.49822-0.22341-0.49822-0.49822 0-0.27522 0.22341-0.49698 0.49822-0.49698h29.383c0.27605 0 0.49822 0.22175 0.49822 0.49698 0 0.27481-0.22217 0.49822-0.49822 0.49822z"
       id="path24" />
    <path
       d="m155.47 33.139h-9.3712c-0.27522 0-0.49822-0.22341-0.49822-0.49822 0-0.27522 0.223-0.49822 0.49822-0.49822h9.3712c0.2748 0 0.49697 0.223 0.49697 0.49822 0 0.27481-0.22217 0.49822-0.49697 0.49822zm-13.018 0h-28.022c-0.27522 0-0.49822-0.22341-0.49822-0.49822 0-0.27522 0.223-0.49822 0.49822-0.49822h28.022c0.27481 0 0.49822 0.223 0.49822 0.49822 0 0.27481-0.22341 0.49822-0.49822 0.49822z"
       id="path26" />
    <path
       d="m155.47 38.652h-41.04c-0.27522 0-0.49822-0.22175-0.49822-0.49698 0-0.27605 0.223-0.49822 0.49822-0.49822h41.04c0.2748 0 0.49697 0.22217 0.49697 0.49822 0 0.27522-0.22217 0.49698-0.49697 0.49698z"
       id="path28" />
    <path
       d="m146.52 44.164h-32.094c-0.27523 0-0.49822-0.22217-0.49822-0.49822 0-0.27481 0.22299-0.49697 0.49822-0.49697h32.082c0.27481 0 0.49822 0.22217 0.49822 0.49697 0 0.27605-0.22341 0.49822-0.49822 0.49822z"
       id="path30" />
    <path
       d="m146.52 49.677h-7.3141c-0.27605 0-0.49822-0.22341-0.49822-0.49822 0-0.27522 0.22217-0.49698 0.49822-0.49698h7.295c0.27481 0 0.49822 0.22175 0.49822 0.49698 0 0.27481-0.22341 0.49822-0.49822 0.49822zm-12.277 0h-19.818c-0.27523 0-0.49822-0.22341-0.49822-0.49822 0-0.27522 0.22299-0.49698 0.49822-0.49698h19.818c0.27481 0 0.49822 0.22175 0.49822 0.49698 0 0.27481-0.22341 0.49822-0.49822 0.49822z"
       id="path32" />
    <path
       d="m37.674 52.04h-21.271c-0.27481 0-0.49822-0.22217-0.49822-0.49739 0-4.675 2.9537-8.8846 7.3469-10.475 0.25491-0.09409 0.54506 0.04145 0.6379 0.29968 0.09285 0.25823-0.04145 0.54132-0.29719 0.63914-3.8456 1.3885-6.4785 4.9826-6.6795 9.0388h20.251c-0.19978-4.0562-2.8339-7.6503-6.6783-9.0388-0.2574-0.09782-0.39128-0.38092-0.29843-0.63914 0.09409-0.25989 0.37967-0.39377 0.6379-0.29968 4.3944 1.5908 7.3469 5.8004 7.3469 10.475 0 0.27522-0.22175 0.49739-0.49822 0.49739z"
       id="path34" />
    <path
       d="m27.063 43.377c-3.3006 0-5.9865-2.688-5.9865-5.9861 0-3.2993 2.6859-5.9877 5.9865-5.9877 3.2993 0 5.9853 2.6884 5.9853 5.9877 0 3.2981-2.6859 5.9861-5.9853 5.9861zm0-10.977c-2.753 0-4.9913 2.2383-4.9913 4.9913 0 2.7514 2.2383 4.9896 4.9913 4.9896 2.7506 0 4.9888-2.2383 4.9888-4.9896 0-2.753-2.2383-4.9913-4.9888-4.9913z"
       id="path36" />
    <path
       d="m105.19 55.19h-41.033c-0.27481 0-0.49822-0.223-0.49822-0.49822 0-0.27481 0.22341-0.49822 0.49822-0.49822h41.033c0.27481 0 0.49822 0.22341 0.49822 0.49822 0 0.27522-0.22341 0.49822-0.49822 0.49822z"
       id="path38" />
    <path
       d="m7.499 9.8446c-1.3276 0-2.4065-1.081-2.4065-2.4086 0-1.3231 1.0789-2.4036 2.4065-2.4036 1.3264 0 2.4061 1.0806 2.4061 2.4036 0 1.3276-1.0797 2.4086-2.4061 2.4086zm0-3.817c-0.778 0-1.4113 0.6321-1.4113 1.4084 0 0.778 0.63334 1.4134 1.4113 1.4134 0.77634 0 1.4097-0.63541 1.4097-1.4134 0-0.77634-0.63334-1.4084-1.4097-1.4084z"
       id="path40" />
    <path
       d="m14.67 9.8446c-1.3276 0-2.4065-1.081-2.4065-2.4086 0-1.3231 1.0789-2.4036 2.4065-2.4036s2.4061 1.0806 2.4061 2.4036c0 1.3276-1.0785 2.4086-2.4061 2.4086zm0-3.817c-0.778 0-1.4113 0.6321-1.4113 1.4084 0 0.778 0.63334 1.4134 1.4113 1.4134 0.77634 0 1.4097-0.63541 1.4097-1.4134 0-0.77634-0.63334-1.4084-1.4097-1.4084z"
       id="path42" />
    <path
       d="m21.84 9.8446c-1.3276 0-2.4065-1.081-2.4065-2.4086 0-1.3231 1.0789-2.4036 2.4065-2.4036s2.4061 1.0806 2.4061 2.4036c0 1.3276-1.0785 2.4086-2.4061 2.4086zm0-3.817c-0.778 0-1.4113 0.6321-1.4113 1.4084 0 0.778 0.63334 1.4134 1.4113 1.4134 0.77634 0 1.4097-0.63541 1.4097-1.4134 0-0.77634-0.63334-1.4084-1.4097-1.4084z"
       id="path44" />
    <path
       d="m169.9 9.8446h-140.6c-0.27481 0-0.4978-0.22175-0.4978-0.49822v-3.8163c0-0.27605 0.223-0.4978 0.4978-0.4978h140.58c0.27606 0 0.49822 0.22175 0.49822 0.4978v3.8162c0 0.27647-0.22216 0.49822-0.49822 0.49822zm-140.08-0.9952h139.58v-2.8219h-139.58z"
       id="path46" />
    <path
       d="m14.462 73.635c-0.12808 0-0.25616-0.04932-0.35232-0.14549l-3.271-3.267c-0.01243-0.01243-0.02487-0.02902-0.0373-0.04435-1.0553-1.0976-1.0437-2.8492 0.0373-3.9352 0.98939-0.97986 2.5284-1.0843 3.6235-0.29926 1.1009-0.78505 2.6366-0.68059 3.6227 0.29926 1.0926 1.0976 1.0926 2.8824 0 3.975l-3.2712 3.2712c-0.09658 0.09616-0.22465 0.14549-0.35149 0.14549zm-2.8844-4.0807 2.8844 2.8786 2.9188-2.9184c0.70588-0.70505 0.70588-1.8577 0-2.5661-0.71085-0.70837-1.8611-0.70837-2.5674 0-0.19398 0.19398-0.50982 0.19398-0.7038 0-0.68018-0.68018-1.8868-0.68018-2.5661 0-0.70629 0.70836-0.70629 1.8611 0 2.5661 0.01243 0.01243 0.02487 0.02487 0.03316 0.04145z"
       id="path48" />
    <path
       d="m31.83 73.635h-6.5386c-2.2631 0-4.1051-1.8424-4.1051-4.1051 0-2.2619 1.842-4.1043 4.1051-4.1043h6.5386c2.2627 0 4.1051 1.8424 4.1051 4.1043 0 2.2627-1.8424 4.1051-4.1051 4.1051zm-6.5386-7.213c-1.7143 0-3.1091 1.3923-3.1091 3.1079 0 1.7164 1.3948 3.1087 3.1091 3.1087h6.5386c1.7139 0 3.1087-1.3923 3.1087-3.1087 0-1.7156-1.3948-3.1079-3.1087-3.1079z"
       id="path50" />
    <path
       d="m134.25 55.19h-19.821c-0.27522 0-0.49821-0.223-0.49821-0.49822 0-0.27481 0.22299-0.49822 0.49821-0.49822h19.821c0.27605 0 0.49821 0.22341 0.49821 0.49822 0 0.27522-0.22216 0.49822-0.49821 0.49822z"
       id="path52" />
    <path
       d="m41.512 85.768h-28.328c-1.8764 0-3.4038-1.5262-3.4038-3.4038s1.5274-3.4038 3.4038-3.4038h28.328c1.8764 0 3.405 1.5262 3.405 3.4038s-1.5286 3.4038-3.405 3.4038zm-28.328-5.812c-1.3276 0-2.4086 1.081-2.4086 2.4086s1.081 2.4086 2.4086 2.4086h28.328c1.3289 0 2.4086-1.081 2.4086-2.4086s-1.0797-2.4086-2.4086-2.4086z"
       id="path54" />
    <path
       d="m155.47 85.261h-41.04c-0.27481 0-0.49822-0.22341-0.49822-0.49822s0.22341-0.49822 0.49822-0.49822h41.04c0.27522 0 0.49821 0.22341 0.49821 0.49822s-0.22299 0.49822-0.49821 0.49822z"
       id="path56" />
    <path
       d="m105.19 85.261h-41.036c-0.27481 0-0.49822-0.22341-0.49822-0.49822s0.22341-0.49822 0.49822-0.49822h41.036c0.27606 0 0.49822 0.22341 0.49822 0.49822s-0.22216 0.49822-0.49822 0.49822z"
       id="path58" />
    <path
       d="m67.144 65.179c-0.20683-0.0033-0.40413 0.01658-0.59106 0.0601-0.18776 0.04228-0.36185 0.09989-0.52723 0.17367-0.15999 0.07544-0.31253 0.15751-0.45014 0.2516-0.04228 0.02901-0.08704 0.07046-0.13388 0.11398-0.04476 0.04601-0.08829 0.08911-0.12683 0.13388v-0.08704c-0.0012-0.12186-0.03316-0.23004-0.09409-0.32662-0.0601-0.09741-0.14341-0.17492-0.24455-0.23253-0.10321-0.05513-0.21719-0.08456-0.34527-0.08704-0.12103 0.0025-0.23046 0.03316-0.33035 0.08704-0.09948 0.05761-0.17947 0.13512-0.23709 0.23253-0.05886 0.09658-0.08829 0.20476-0.0916 0.32662v4.8997c0.0033 0.12103 0.03316 0.23253 0.0916 0.33118 0.05761 0.09989 0.13761 0.17865 0.23709 0.23626 0.09989 0.06093 0.20932 0.08912 0.33035 0.0916 0.12808-0.0025 0.24206-0.02902 0.34527-0.0916 0.10114-0.05761 0.18445-0.13637 0.24455-0.23626 0.06217-0.09865 0.09285-0.21015 0.09409-0.33118v-2.363c0.02073-0.06093 0.05264-0.14673 0.09492-0.25947 0.04145-0.11398 0.09533-0.2375 0.1658-0.37594 0.06798-0.13761 0.14922-0.27398 0.24911-0.4091 0.07627-0.1173 0.16082-0.23004 0.25367-0.33118 0.09409-0.10114 0.20103-0.1915 0.31957-0.26569 0.1057-0.08083 0.21968-0.14093 0.3432-0.1774 0.12559-0.04145 0.25947-0.05844 0.40288-0.05844 0.12476-0.0025 0.2375-0.03316 0.33615-0.09409 0.09865-0.05886 0.1774-0.13968 0.23502-0.23958 0.05637-0.09865 0.08456-0.20807 0.08704-0.32579-0.0025-0.12186-0.02902-0.23004-0.08704-0.32662-0.05762-0.09741-0.13637-0.17492-0.23502-0.23253-0.09865-0.05513-0.21139-0.08456-0.33615-0.08704zm3.7047 6.2049c0.44185 0 0.84598-0.06591 1.2161-0.20103 0.3689-0.13512 0.70588-0.33947 1.0093-0.61884 0.09492-0.08953 0.14797-0.18486 0.16538-0.28931 0.01243-0.10114 0.0041-0.19854-0.02901-0.29139-0.03316-0.0916-0.07875-0.16787-0.13512-0.22797-0.04145-0.05057-0.10114-0.08912-0.17533-0.1173-0.07627-0.02901-0.16082-0.04145-0.25242-0.04352-0.0916 0-0.1832 0.01658-0.27025 0.04808-0.08829 0.02901-0.16704 0.08-0.23377 0.14922-0.1057 0.07875-0.22921 0.14341-0.37263 0.19274-0.14549 0.05306-0.29595 0.0858-0.45594 0.1057-0.15834 0.02072-0.31253 0.02487-0.46506 0.01243-0.1459-0.01243-0.29263-0.04684-0.44433-0.09616-0.14922-0.05057-0.28766-0.11523-0.41822-0.19398-0.13264-0.07875-0.24082-0.17036-0.33118-0.269-0.11067-0.11025-0.20227-0.23626-0.27025-0.38423-0.07171-0.14466-0.12103-0.29139-0.1517-0.43687h3.9538c0.1774-0.0025 0.32413-0.04725 0.43936-0.13761 0.11523-0.08829 0.18569-0.20808 0.20683-0.35936 0.0083-0.01243 0.01243-0.03316 0.01243-0.05637 0.0025-0.02487 0.0025-0.04145 0.0025-0.05554v-0.06217c-0.02901-0.42071-0.12228-0.8095-0.2831-1.1585-0.16124-0.35356-0.37719-0.65655-0.64744-0.9152-0.27025-0.25616-0.57946-0.4547-0.93178-0.59687-0.349-0.14217-0.7295-0.21388-1.1361-0.21512-0.42776 0.0012-0.82484 0.0858-1.1904 0.24911-0.36641 0.16207-0.68598 0.38548-0.96079 0.6723-0.27274 0.28517-0.48786 0.61552-0.64163 0.98773-0.15626 0.37387-0.23502 0.7722-0.24082 1.2 0.0041 0.42402 0.08456 0.82484 0.24082 1.1983 0.15378 0.37263 0.3689 0.70008 0.64163 0.98566 0.27481 0.28434 0.59438 0.50651 0.96079 0.67106 0.36558 0.16207 0.76266 0.24786 1.1904 0.25367zm0-5.0369c0.27149 0.02072 0.51231 0.08207 0.72826 0.1716 0.21388 0.0916 0.39832 0.20434 0.55003 0.33366 0.15626 0.13139 0.28102 0.269 0.3747 0.40993 0.09409 0.14217 0.15751 0.27729 0.18694 0.40413h-3.5178c0.02487-0.13139 0.07751-0.26776 0.15626-0.41574 0.07875-0.14466 0.18694-0.28434 0.32538-0.41615 0.13637-0.13139 0.30424-0.24206 0.50319-0.33118 0.19937-0.08912 0.42983-0.14217 0.69303-0.15626zm10.907 0.14922c0.23129 0.0037 0.4406 0.06093 0.62961 0.17492 0.18694 0.11398 0.33864 0.26693 0.45014 0.46091 0.11398 0.19232 0.17367 0.40744 0.17492 0.64619v2.9466c0.0025 0.12103 0.03316 0.23253 0.09533 0.33118 0.06093 0.09989 0.14217 0.17865 0.24206 0.23626 0.10196 0.06093 0.21263 0.08912 0.33366 0.0916 0.12228-0.0025 0.23253-0.02902 0.33242-0.0916 0.09989-0.05761 0.17865-0.13637 0.23502-0.23626 0.06093-0.09865 0.09036-0.21015 0.09285-0.33118v-2.9466c-0.0025-0.36434-0.07046-0.70298-0.20434-1.0188-0.13181-0.31253-0.31626-0.58982-0.55252-0.82815-0.23709-0.2375-0.50982-0.42444-0.82235-0.55956-0.31128-0.13512-0.64744-0.20434-1.0068-0.20559-0.2632 0-0.51231 0.03316-0.75313 0.10445-0.23875 0.06839-0.4605 0.1658-0.66277 0.29387-0.20434 0.12932-0.38175 0.28185-0.53801 0.4605-0.2375-0.27025-0.5264-0.4804-0.86007-0.62961-0.33366-0.14922-0.69676-0.22797-1.0926-0.22921-0.23626 0-0.46672 0.03316-0.69096 0.09741-0.22673 0.06466-0.4406 0.15751-0.63914 0.27647-0.05057-0.11896-0.12932-0.2118-0.2375-0.27647-0.1057-0.06342-0.22548-0.09741-0.35936-0.09741-0.12103 0.0012-0.23046 0.02901-0.33035 0.08953-0.09989 0.05844-0.17948 0.1372-0.23709 0.23584-0.05886 0.10238-0.08829 0.21636-0.0916 0.34693v4.8881c0.0033 0.1115 0.02487 0.21263 0.07378 0.30299 0.04808 0.09036 0.10818 0.1658 0.19025 0.22548 0.08124 0.06135 0.17284 0.10611 0.27149 0.13056 0.01658-0.0041 0.0373-0.0041 0.05886-0.0041 0.01658 0.0033 0.04145 0.0041 0.06466 0.0041 0.13388-0.0025 0.25491-0.04145 0.36765-0.11647 0.11274-0.07378 0.1973-0.16787 0.25491-0.28185v-0.06217c0.01243-0.01243 0.01658-0.02487 0.02487-0.0373 0.0033-0.01243 0.0083-0.02487 0.01243-0.0373v-0.03731c0-0.01243 0.0012-0.02901 0.0041-0.04476 0.0041-0.01658 0.0083-0.02901 0.0083-0.04228v-2.9466c0.0012-0.23875 0.05886-0.45387 0.17284-0.64619 0.11274-0.19398 0.2632-0.34693 0.45221-0.46091 0.18818-0.11398 0.39957-0.17118 0.62878-0.17492 0.23584 0.0037 0.44765 0.06093 0.63914 0.17036 0.19357 0.11274 0.34527 0.25947 0.4605 0.44765 0.11398 0.18569 0.17616 0.39584 0.1832 0.6263v2.9839c0.0012 0.12103 0.03316 0.23253 0.09533 0.33118 0.06217 0.09989 0.14673 0.17865 0.24662 0.23626 0.09989 0.06093 0.21015 0.08912 0.32786 0.0916 0.12228-0.0025 0.23377-0.02902 0.33242-0.0916 0.09989-0.05761 0.17864-0.13637 0.23502-0.23626 0.06093-0.09865 0.09036-0.21015 0.09285-0.33118v-2.9839c0.0083-0.23046 0.07295-0.4406 0.18694-0.6263 0.1173-0.18818 0.27108-0.33491 0.4605-0.44765 0.1915-0.10943 0.40744-0.16663 0.64619-0.17036zm7.4832 4.9242c0.41573-0.0012 0.79872-0.0858 1.1548-0.2516 0.35605-0.16787 0.66153-0.39833 0.92224-0.69303 0.28102-0.27481 0.49366-0.6006 0.64288-0.97281 0.14922-0.37138 0.22548-0.778 0.22673-1.2161-0.0012-0.42195-0.07751-0.81655-0.22673-1.1809-0.14922-0.36434-0.36185-0.69552-0.64288-0.99395-0.26072-0.2947-0.56619-0.5264-0.92224-0.6922-0.35605-0.16662-0.73904-0.25242-1.1548-0.25367-0.42776 0.0012-0.82152 0.08704-1.1809 0.25367-0.35729 0.1658-0.67686 0.3975-0.95747 0.6922-0.26818 0.29843-0.47832 0.62961-0.62878 0.99395-0.14922 0.36434-0.22548 0.75893-0.22797 1.1809 0.0025 0.43812 0.07875 0.84473 0.22797 1.2161 0.15046 0.37221 0.36061 0.698 0.62878 0.97281 0.28061 0.2947 0.60018 0.52516 0.95747 0.69303 0.35936 0.1658 0.75313 0.25035 1.1809 0.2516zm-1.194-4.425c0.15626-0.13886 0.33698-0.25284 0.53801-0.34071 0.19978-0.08331 0.41946-0.12932 0.65572-0.13181 0.21968 0.0025 0.42527 0.0485 0.62132 0.13181 0.19274 0.08787 0.3689 0.20186 0.52184 0.34071 0.15502 0.16787 0.27605 0.36185 0.35936 0.58029 0.08456 0.21968 0.12683 0.45594 0.12683 0.7121 0 0.26776-0.04228 0.51107-0.12683 0.73075-0.08331 0.21761-0.20434 0.41366-0.35936 0.58858-0.15295 0.14922-0.32911 0.2632-0.52184 0.34196-0.19605 0.07875-0.40164 0.11772-0.62132 0.11772-0.23626 0-0.45594-0.0373-0.65572-0.11772-0.20103-0.07875-0.38175-0.19274-0.53801-0.34196-0.14217-0.17492-0.25491-0.37097-0.33035-0.58858-0.07627-0.21968-0.1173-0.46299-0.1173-0.73075 0-0.25616 0.04145-0.49242 0.1173-0.7121 0.07544-0.21844 0.18818-0.41242 0.33035-0.58029zm7.5595-1.8283h-0.31045v-1.8035c-0.0033-0.12932-0.03316-0.24538-0.09036-0.34776-0.06217-0.10321-0.14093-0.18445-0.24662-0.24331-0.09989-0.06217-0.21636-0.09036-0.34776-0.0916-0.12932 0.0012-0.24579 0.02902-0.35149 0.0916-0.10445 0.05886-0.18569 0.1401-0.24787 0.24331-0.06342 0.10238-0.09409 0.21844-0.0974 0.34776v1.8035h-0.37304c-0.13264 0.0012-0.24662 0.02901-0.349 0.0916-0.10321 0.05886-0.18445 0.14093-0.24538 0.24455-0.05886 0.10238-0.08829 0.21719-0.0916 0.34776 0.0033 0.12683 0.03316 0.24082 0.0916 0.34196 0.06093 0.10445 0.14217 0.18694 0.24538 0.24662 0.10238 0.06217 0.21636 0.09409 0.349 0.09658h0.35853v3.468c0.0041 0.25533 0.06798 0.48661 0.19025 0.69344 0.12352 0.2089 0.29014 0.3747 0.49698 0.49698 0.20683 0.12435 0.43936 0.18445 0.69427 0.19025 0.13056-0.0025 0.24579-0.02902 0.34817-0.0916 0.10321-0.0601 0.18445-0.14217 0.24414-0.24455 0.06134-0.10072 0.08953-0.21719 0.0916-0.34776-0.0021-0.13139-0.02901-0.24662-0.0916-0.35232-0.05969-0.10321-0.14093-0.18694-0.24414-0.24911-0.10238-0.06093-0.21761-0.09285-0.34817-0.09533v-3.468h0.31045c0.12559-0.0025 0.24206-0.03316 0.34651-0.09658 0.1057-0.05969 0.18901-0.14217 0.25242-0.24662 0.06135-0.10114 0.09533-0.21512 0.09658-0.34196-0.0012-0.13056-0.03316-0.24538-0.09658-0.34776-0.06342-0.10362-0.14673-0.18569-0.25242-0.24455-0.10445-0.06093-0.22092-0.09036-0.34651-0.0916zm4.416 6.217c0.44185 0 0.84597-0.06591 1.2161-0.20103 0.36889-0.13512 0.70504-0.33947 1.0093-0.61884 0.0941-0.08953 0.14797-0.18486 0.16455-0.28931 0.0124-0.10114 0.004-0.19854-0.029-0.29139-0.0332-0.0916-0.0787-0.16787-0.13512-0.22797-0.0415-0.05057-0.10114-0.08912-0.17616-0.1173-0.0775-0.02901-0.16207-0.04145-0.25367-0.04352-0.0895 0-0.18113 0.01658-0.26818 0.04808-0.0891 0.02901-0.16787 0.08-0.23377 0.14922-0.1057 0.07875-0.23129 0.14341-0.3747 0.19274-0.14341 0.05306-0.29595 0.0858-0.4547 0.1057-0.1575 0.02072-0.31252 0.02487-0.46423 0.01243-0.14672-0.01243-0.2947-0.04684-0.44516-0.09616-0.14922-0.05057-0.2889-0.11523-0.41946-0.19398s-0.24082-0.17036-0.32911-0.269c-0.1115-0.11025-0.2031-0.23626-0.27232-0.38423-0.06922-0.14466-0.11896-0.29139-0.1517-0.43687h3.9559c0.17657-0.0025 0.32206-0.04725 0.43977-0.13761 0.11482-0.08829 0.18528-0.20808 0.20642-0.35936 0.004-0.01243 0.008-0.03316 0.008-0.05637 0.002-0.02487 0.002-0.04145 0.002-0.05554v-0.06217c-0.0249-0.42071-0.12228-0.8095-0.28103-1.1585-0.16207-0.35356-0.37719-0.65655-0.64743-0.9152-0.27233-0.25616-0.58029-0.4547-0.93137-0.59687-0.35148-0.14217-0.72991-0.21388-1.1365-0.21512-0.42982 0.0012-0.82484 0.0858-1.1912 0.24911-0.36517 0.16207-0.68723 0.38548-0.95996 0.6723-0.27481 0.28517-0.48993 0.61552-0.6437 0.98773-0.15419 0.37387-0.23253 0.7722-0.23875 1.2 0.0041 0.42402 0.08456 0.82484 0.23875 1.1983 0.15378 0.37263 0.3689 0.70008 0.6437 0.98566 0.27274 0.28434 0.5948 0.50651 0.95996 0.67106 0.36641 0.16207 0.76142 0.24786 1.1912 0.25367zm0-5.0369c0.27149 0.02072 0.51231 0.08207 0.72743 0.1716 0.21263 0.0916 0.39833 0.20434 0.55127 0.33366 0.15627 0.13139 0.27937 0.269 0.37222 0.40993 0.0966 0.14217 0.1575 0.27729 0.189 0.40413h-3.5199c0.02902-0.13139 0.07751-0.26776 0.15626-0.41574 0.07875-0.14466 0.18901-0.28434 0.32538-0.41615 0.13637-0.13139 0.30548-0.24206 0.50402-0.33118 0.19978-0.08912 0.43107-0.14217 0.69427-0.15626zm10.021 2.0397h-0.12352v-5.0709c0-0.01244-0.002-0.02487-0.004-0.02902-0.004-0.01243-0.004-0.02072-0.004-0.03316 0-0.02073 0-0.03316-0.002-0.04311 0-0.01243-0.004-0.02072-0.0124-0.03316 0-0.0041-0.001-0.01243-0.004-0.02487-0.004-0.0083-0.004-0.01658-0.004-0.02487-0.008-0.01658-0.008-0.03316-0.0124-0.04228-0.003-0.0083-0.004-0.02072-0.0124-0.03316-0.004-0.0041-0.0124-0.01243-0.0166-0.02487-0.004-0.0083-0.008-0.01658-0.008-0.02487-0.0124-0.01658-0.0207-0.02901-0.029-0.0373-0.008-0.0083-0.0166-0.01658-0.0207-0.02487-0.004-0.0041-0.0124-0.01244-0.0166-0.02487-0.004-0.0083-0.0124-0.01658-0.0207-0.02487l-0.0207-0.02072c-0.008-0.0041-0.0166-0.01658-0.029-0.02901 0-0.0041-0.004-0.01243-0.0124-0.01658-0.008-0.0041-0.0166-0.0083-0.0207-0.0083 0-0.0083-0.002-0.01243-0.004-0.01243-0.004-0.000829-0.008-0.000829-0.008-0.000829-0.0124-0.0083-0.0207-0.01244-0.029-0.02073-0.008-0.0041-0.0207-0.01243-0.0332-0.02072-0.008-0.0041-0.0166-0.01244-0.0249-0.02073-0.0124-0.0041-0.0249-0.01658-0.0332-0.02901-0.008 0-0.0166-0.0012-0.0249-0.0083-0.008-0.0025-0.0166-0.0041-0.0249-0.0041-0.0124-0.0041-0.029-0.01244-0.0414-0.01244-0.0124-0.000829-0.0249-0.0041-0.0332-0.01243-0.0124 0.0041-0.0207 0.0083-0.029 0.0083-0.008 0-0.0207-0.0025-0.0332-0.0083h-0.26196c-0.0166 0.0041-0.0332 0.01243-0.0468 0.01243-0.0124 0.0025-0.0207 0.0083-0.029 0.01244-0.0124 0-0.0207 0.0021-0.029 0.0083-0.008 0.0041-0.0124 0.01658-0.0207 0.02901-0.0166 0-0.029 0.0025-0.0415 0.0083-0.008 0.0037-0.0207 0.0083-0.0332 0.01658-0.004 0.0083-0.0124 0.01243-0.0249 0.02072-0.008 0.0041-0.0166 0.01244-0.0249 0.02073l-0.0207 0.02072c-0.008 0.0041-0.0207 0.01244-0.0414 0.01658-0.004 0.01243-0.0124 0.02487-0.0207 0.02901-0.004 0.0083-0.0124 0.01658-0.0166 0.02072-0.004 0.01244-0.008 0.02072-0.0124 0.02901-0.002 0.0041-0.008 0.0083-0.0124 0.0083l-4.6 5.7196c-0.0783 0.09989-0.12559 0.21139-0.14548 0.32662-0.0166 0.11854-0.004 0.23253 0.0373 0.34444 0.0435 0.11025 0.11647 0.20434 0.21885 0.28641 0.0622 0.05554 0.1314 0.09285 0.20435 0.11523 0.0705 0.02072 0.14341 0.03316 0.21968 0.03316h3.912v0.94462c0.002 0.13056 0.0332 0.24704 0.0928 0.34776 0.0589 0.10238 0.14093 0.18445 0.24331 0.24455 0.10196 0.06093 0.21843 0.08912 0.34775 0.0916 0.1314-0.0025 0.24787-0.02901 0.34901-0.0916 0.10445-0.0601 0.18444-0.14217 0.24538-0.24455 0.0588-0.10072 0.0883-0.21719 0.0904-0.34776v-0.94462h0.12352c0.13057-0.0021 0.24787-0.03316 0.35356-0.0916 0.10238-0.05969 0.18694-0.14093 0.24911-0.24414 0.0622-0.10238 0.0928-0.21761 0.0941-0.34776-0.001-0.12725-0.0332-0.24123-0.0941-0.34444-0.0622-0.10238-0.14673-0.18445-0.24911-0.24455-0.10569-0.06217-0.22299-0.09368-0.35356-0.09616zm-1.4922 0h-2.4733l2.4733-3.0714zm10.074-1.8905c0.23046 0.0037 0.4406 0.06093 0.62878 0.17492 0.18901 0.11398 0.33947 0.26693 0.45221 0.46091 0.11399 0.19232 0.1716 0.40744 0.17285 0.64619v2.9466c0.003 0.12103 0.0332 0.23253 0.0974 0.33118 0.0589 0.09989 0.14093 0.17865 0.24206 0.23626 0.0999 0.06093 0.21139 0.08912 0.33367 0.0916 0.12227-0.0025 0.23046-0.02902 0.33118-0.0916 0.0999-0.05761 0.17864-0.13637 0.23626-0.23626 0.0589-0.09865 0.0883-0.21015 0.0916-0.33118v-2.9466c-0.003-0.36434-0.0705-0.70298-0.2031-1.0188-0.13388-0.31253-0.31833-0.58982-0.55459-0.82815-0.23502-0.2375-0.50982-0.42444-0.82235-0.55956-0.31045-0.13512-0.64743-0.20434-1.006-0.20559-0.26196 0-0.51231 0.03316-0.75313 0.10445-0.23958 0.06839-0.45926 0.1658-0.6636 0.29387-0.20227 0.12932-0.38092 0.28185-0.53594 0.4605-0.23957-0.27025-0.5264-0.4804-0.86007-0.62961-0.33366-0.14922-0.698-0.22797-1.0926-0.22921-0.23626 0-0.46879 0.03316-0.6922 0.09741-0.22549 0.06466-0.43936 0.15751-0.63791 0.27647-0.0518-0.11896-0.13056-0.2118-0.23957-0.27647-0.1057-0.06342-0.22466-0.09741-0.35729-0.09741-0.12228 0.0012-0.23253 0.02901-0.33242 0.08953-0.0999 0.05844-0.17865 0.1372-0.23502 0.23584-0.0601 0.10238-0.0904 0.21636-0.0928 0.34693v4.8881c0.002 0.1115 0.0249 0.21263 0.0729 0.30299 0.0481 0.09036 0.11026 0.1658 0.19025 0.22548 0.0821 0.06135 0.17285 0.10611 0.2715 0.13056 0.0207-0.0041 0.0373-0.0041 0.0597-0.0041 0.0166 0.0033 0.0414 0.0041 0.0659 0.0041 0.13263-0.0025 0.25491-0.04145 0.36558-0.11647 0.11274-0.07378 0.1973-0.16787 0.25491-0.28185v-0.06217c0.0124-0.01243 0.0207-0.02487 0.0249-0.0373 0.002-0.01243 0.008-0.02487 0.0124-0.0373v-0.03731c0-0.01243 0.002-0.02901 0.004-0.04476 0.004-0.01658 0.008-0.02901 0.008-0.04228v-2.9466c0.002-0.23875 0.0609-0.45387 0.17491-0.64619 0.1115-0.19398 0.26321-0.34693 0.45014-0.46091 0.19025-0.11398 0.40164-0.17118 0.63086-0.17492 0.23377 0.0037 0.44765 0.06093 0.63914 0.17036 0.1915 0.11274 0.3432 0.25947 0.45926 0.44765 0.11398 0.18569 0.17533 0.39584 0.18237 0.6263v2.9839c0.002 0.12103 0.0332 0.23253 0.0974 0.33118 0.0622 0.09989 0.14549 0.17865 0.24538 0.23626 0.10113 0.06093 0.20932 0.08912 0.3291 0.0916 0.12228-0.0025 0.23253-0.02902 0.33118-0.0916 0.0999-0.05761 0.17865-0.13637 0.23626-0.23626 0.0589-0.09865 0.0883-0.21015 0.0916-0.33118v-2.9839c0.008-0.23046 0.0742-0.4406 0.18694-0.6263 0.11647-0.18818 0.27025-0.33491 0.46174-0.44765 0.19025-0.10943 0.40538-0.16663 0.64495-0.17036zm7.3717 4.8877c0.44185 0 0.84598-0.06591 1.2161-0.20103 0.3689-0.13512 0.70588-0.33947 1.0101-0.61884 0.0941-0.08953 0.14715-0.18486 0.16456-0.28931 0.0124-0.10114 0.004-0.19854-0.029-0.29139-0.0332-0.0916-0.0796-0.16787-0.13512-0.22797-0.0414-0.05057-0.10197-0.08912-0.17616-0.1173-0.0763-0.02901-0.16082-0.04145-0.25367-0.04352-0.0904 0-0.18113 0.01658-0.269 0.04808-0.0883 0.02901-0.16704 0.08-0.23378 0.14922-0.10569 0.07875-0.22921 0.14341-0.37262 0.19274-0.14549 0.05306-0.29719 0.0858-0.45594 0.1057-0.15834 0.02072-0.31253 0.02487-0.46506 0.01243-0.1459-0.01243-0.29263-0.04684-0.44434-0.09616-0.14921-0.05057-0.2889-0.11523-0.41822-0.19398-0.13264-0.07875-0.24082-0.17036-0.33118-0.269-0.11067-0.11025-0.20227-0.23626-0.27149-0.38423-0.0705-0.14466-0.11979-0.29139-0.15046-0.43687h3.9538c0.17616-0.0025 0.32413-0.04725 0.43936-0.13761 0.11523-0.08829 0.18569-0.20808 0.20683-0.35936 0.004-0.01243 0.0124-0.03316 0.0124-0.05637 0.001-0.02487 0.001-0.04145 0.001-0.05554v-0.06217c-0.0249-0.42071-0.12103-0.8095-0.28185-1.1585-0.16124-0.35356-0.37719-0.65655-0.64744-0.9152-0.27149-0.25616-0.57946-0.4547-0.93177-0.59687-0.349-0.14217-0.72868-0.21388-1.1361-0.21512-0.42776 0.0012-0.82484 0.0858-1.1904 0.24911-0.36641 0.16207-0.68598 0.38548-0.95996 0.6723-0.27357 0.28517-0.48869 0.61552-0.64246 0.98773-0.15627 0.37387-0.23502 0.7722-0.24082 1.2 0.004 0.42402 0.0846 0.82484 0.24082 1.1983 0.15377 0.37263 0.36889 0.70008 0.64246 0.98566 0.27398 0.28434 0.59355 0.50651 0.95996 0.67106 0.36558 0.16207 0.76266 0.24786 1.1904 0.25367zm0-5.0369c0.27232 0.02072 0.51231 0.08207 0.72826 0.1716 0.21388 0.0916 0.39833 0.20434 0.55003 0.33366 0.15627 0.13139 0.28061 0.269 0.3747 0.40993 0.0941 0.14217 0.15751 0.27729 0.18694 0.40413h-3.5178c0.0249-0.13139 0.0775-0.26776 0.15627-0.41574 0.0787-0.14466 0.18693-0.28434 0.32537-0.41615 0.13637-0.13139 0.30424-0.24206 0.50278-0.33118 0.19978-0.08912 0.43024-0.14217 0.69344-0.15626zm4.278 4.2038c0.003 0.1716 0.0435 0.32786 0.12683 0.46423 0.08 0.13885 0.19149 0.24911 0.32993 0.33118 0.13637 0.08124 0.29264 0.12228 0.46423 0.12476 0.1716-0.0025 0.32787-0.04352 0.46879-0.12476 0.14093-0.08207 0.2516-0.19232 0.33491-0.33118 0.0833-0.13637 0.12684-0.29263 0.12808-0.46423-0.001-0.1716-0.0448-0.32786-0.12808-0.46879-0.0833-0.14093-0.19398-0.25242-0.33491-0.33491-0.14092-0.08331-0.29719-0.12683-0.46879-0.12891-0.17159 0.0021-0.32786 0.04559-0.46423 0.12891-0.13844 0.08248-0.24993 0.19398-0.32993 0.33491-0.0833 0.14093-0.12352 0.29719-0.12683 0.46879zm4.9121 0.83313c-0.43356-0.0025-0.83769-0.08456-1.217-0.24455-0.38091-0.15958-0.71458-0.38175-1.0047-0.66484-0.29263-0.2831-0.5206-0.6122-0.68391-0.98566-0.16663-0.37263-0.24911-0.7722-0.25243-1.202 0.003-0.4348 0.0858-0.83893 0.25243-1.2149 0.16331-0.37346 0.39128-0.70505 0.68391-0.98939 0.29014-0.28434 0.62381-0.50526 1.0047-0.66609 0.37926-0.16082 0.78339-0.24331 1.217-0.25035 0.37387 0.0012 0.73199 0.0659 1.0669 0.18942 0.33739 0.12186 0.64039 0.28766 0.91064 0.49449 0.0941 0.07751 0.1633 0.17036 0.20683 0.27729 0.0414 0.10943 0.0576 0.21844 0.0448 0.33242-0.008 0.11398-0.0506 0.21761-0.11523 0.31128-0.0858 0.09865-0.17989 0.16911-0.28807 0.21263-0.10901 0.04352-0.21968 0.05886-0.33118 0.04352-0.11274-0.01243-0.21719-0.05761-0.31377-0.13264-0.16082-0.12103-0.34195-0.21512-0.53801-0.28807-0.19978-0.07129-0.41241-0.10652-0.64287-0.11026-0.25243 0.0037-0.492 0.05057-0.71417 0.14549-0.22092 0.09533-0.41491 0.22714-0.58277 0.39252-0.17036 0.1658-0.30424 0.35356-0.39833 0.56992-0.0953 0.21388-0.14341 0.44185-0.14466 0.68267 0.001 0.24082 0.0493 0.46879 0.14466 0.68267 0.0941 0.21263 0.22797 0.40164 0.39833 0.5662 0.16786 0.1658 0.36185 0.29387 0.58277 0.38548 0.22217 0.09533 0.46174 0.14217 0.71417 0.14466 0.22341-0.0025 0.43729-0.0373 0.63583-0.10943 0.19978-0.07295 0.38174-0.16911 0.54505-0.28766 0.0941-0.07088 0.19399-0.11316 0.30797-0.12476 0.11274-0.01243 0.22217 0.0012 0.33242 0.04601 0.10943 0.04311 0.20683 0.11481 0.29263 0.21471 0.0647 0.09285 0.1057 0.19522 0.11523 0.30465 0.0124 0.11025-0.004 0.21968-0.0448 0.32745-0.0435 0.10818-0.11275 0.20227-0.20683 0.28807-0.27025 0.1973-0.57325 0.3548-0.91064 0.47459-0.33491 0.11979-0.69303 0.17865-1.0669 0.18445z"
       id="path60" />
    <path
       d="m141.5 71.438c0.41366-0.0012 0.79665-0.0858 1.1548-0.2516 0.35605-0.16787 0.66277-0.39833 0.92141-0.69303 0.2831-0.27481 0.49574-0.6006 0.64495-0.97281 0.14922-0.37138 0.22424-0.778 0.22549-1.2161-0.001-0.42195-0.0763-0.81655-0.22549-1.1809-0.14921-0.36434-0.36185-0.69552-0.64495-0.99395-0.25864-0.2947-0.56536-0.5264-0.92141-0.6922-0.35812-0.16663-0.74111-0.25242-1.1548-0.25367-0.429 0.0012-0.82359 0.08704-1.1809 0.25367-0.35936 0.1658-0.67893 0.3975-0.95747 0.6922-0.27025 0.29843-0.47832 0.62961-0.63086 0.99395-0.14921 0.36434-0.22465 0.75893-0.22797 1.1809 0.003 0.43812 0.0788 0.84473 0.22797 1.2161 0.15254 0.37221 0.36061 0.698 0.63086 0.97281 0.27854 0.2947 0.59811 0.52516 0.95747 0.69303 0.3573 0.1658 0.75189 0.25035 1.1809 0.2516zm-1.1937-4.4259c0.15627-0.13885 0.33491-0.25284 0.53677-0.34071 0.20103-0.08331 0.42071-0.12932 0.65697-0.13181 0.21968 0.0025 0.42527 0.0485 0.61925 0.13181 0.19274 0.08787 0.3689 0.20186 0.52516 0.34071 0.15502 0.16787 0.27605 0.36185 0.35729 0.58029 0.0846 0.21968 0.12683 0.45594 0.12683 0.7121 0 0.26776-0.0423 0.51107-0.12683 0.73075-0.0812 0.21761-0.20227 0.41366-0.35729 0.58858-0.15626 0.14922-0.33242 0.2632-0.52516 0.34196-0.19398 0.07875-0.39957 0.11772-0.61925 0.11772-0.23626 0-0.45594-0.0373-0.65697-0.11772-0.20186-0.07875-0.3805-0.19274-0.53677-0.34196-0.14217-0.17492-0.25491-0.37097-0.33242-0.58858-0.0754-0.21968-0.11523-0.46299-0.11523-0.73075 0-0.25616 0.0414-0.49242 0.11523-0.7121 0.0775-0.21844 0.19025-0.41242 0.33242-0.58029zm12.186-0.49822c0.23128 0.0037 0.4406 0.06093 0.62961 0.17492 0.18693 0.11398 0.33864 0.26693 0.45013 0.46091 0.11399 0.19232 0.17285 0.40744 0.17492 0.64619v2.9466c0.002 0.12103 0.0332 0.23253 0.0953 0.33118 0.0609 0.09989 0.14217 0.17864 0.24207 0.23626 0.10113 0.06093 0.21263 0.08912 0.33366 0.0916 0.12228-0.0025 0.23253-0.02901 0.33242-0.0916 0.0999-0.05761 0.17865-0.13637 0.23626-0.23626 0.0597-0.09865 0.0891-0.21015 0.0916-0.33118v-2.9466c-0.002-0.36434-0.0705-0.70298-0.20434-1.0188-0.13181-0.31253-0.31626-0.58982-0.55334-0.82815-0.23626-0.2375-0.509-0.42444-0.82153-0.55956-0.31128-0.13512-0.64743-0.20434-1.0068-0.20559-0.26321 0-0.51232 0.03316-0.75313 0.10445-0.23958 0.06839-0.4605 0.1658-0.66278 0.29387-0.20434 0.12932-0.38174 0.28185-0.53801 0.4605-0.2375-0.27025-0.5264-0.4804-0.86006-0.62961-0.33367-0.14922-0.69676-0.22797-1.0926-0.22921-0.23626 0-0.46672 0.03316-0.69096 0.09741-0.22673 0.06466-0.4406 0.15751-0.63914 0.27646-0.0506-0.11896-0.12933-0.2118-0.23751-0.27646-0.10569-0.06342-0.22548-0.09741-0.35936-0.09741-0.12103 0.0012-0.23046 0.02902-0.33035 0.08953-0.0999 0.05844-0.17948 0.1372-0.23709 0.23585-0.0589 0.10238-0.0883 0.21636-0.0916 0.34693v4.8881c0.003 0.1115 0.0249 0.21263 0.0738 0.30299 0.0473 0.09036 0.10942 0.1658 0.18942 0.22548 0.0821 0.06135 0.17367 0.10611 0.27232 0.13056 0.0166-0.0041 0.0373-0.0041 0.0589-0.0041 0.0207 0.0033 0.0414 0.0041 0.0647 0.0041 0.13388-0.0025 0.25615-0.04145 0.36765-0.11647 0.11274-0.07378 0.1973-0.16787 0.25491-0.28185v-0.06217c0.0124-0.01243 0.0166-0.02487 0.0249-0.0373 0.002-0.01243 0.008-0.02487 0.0124-0.0373v-0.0373c0-0.01243 0.001-0.02901 0.004-0.04476 0.004-0.01658 0.008-0.02901 0.008-0.04228v-2.9466c0.001-0.23875 0.0589-0.45387 0.17285-0.64619 0.11274-0.19398 0.2632-0.34693 0.45221-0.46091 0.18817-0.11398 0.39956-0.17118 0.62878-0.17492 0.23501 0.0037 0.44765 0.06093 0.63914 0.17036 0.19274 0.11274 0.34527 0.25947 0.4605 0.44765 0.11399 0.18569 0.17616 0.39584 0.18321 0.6263v2.9839c0.001 0.12103 0.0332 0.23253 0.0953 0.33118 0.0622 0.09989 0.14673 0.17864 0.24662 0.23626 0.0999 0.06093 0.21015 0.08911 0.32787 0.0916 0.12227-0.0025 0.23377-0.02901 0.33242-0.0916 0.0999-0.05761 0.17864-0.13637 0.23626-0.23626 0.0597-0.09865 0.0891-0.21015 0.0916-0.33118v-2.9839c0.008-0.23046 0.0729-0.4406 0.18694-0.6263 0.1173-0.18818 0.27024-0.33491 0.46049-0.44765 0.1915-0.10942 0.40662-0.16662 0.6462-0.17036z"
       id="path62" />
  </g>
</svg>
