<?xml version="1.0" encoding="UTF-8" standalone="no"?>
<svg xmlns="http://www.w3.org/2000/svg" height="88.954" width="184" version="1.1" viewBox="0 0 48.682762 23.536383"><g fill-rule="evenodd" fill="#4f8acc"><g transform="matrix(1.0933 0 0 1.0933 -104.81 -107.29)"><path d="m138.11 119.66h-5.4989c-0.2931 0-0.5324-0.2384-0.5324-0.5313v-3.0906c0-0.2934 0.2393-0.532 0.5324-0.532h5.4989c0.2931 0 0.5321 0.2386 0.5321 0.532v3.0906c0 0.2929-0.239 0.5313-0.5321 0.5313zm-5.4989-3.9138c-0.1613 0-0.292 0.1309-0.292 0.2919v3.0906c0 0.1602 0.1307 0.2909 0.292 0.2909h5.4989c0.1613 0 0.292-0.1307 0.292-0.2909v-3.0906c0-0.161-0.1307-0.2919-0.292-0.2919z"/><path d="m135.36 118c-0.0224 0-0.044-0.007-0.0635-0.0181l-3.1366-1.9571c-0.0567-0.0351-0.0734-0.1094-0.0382-0.1655 0.0343-0.0567 0.1085-0.0743 0.1652-0.0386l3.0731 1.9177 3.0724-1.9177c0.0545-0.0357 0.1296-0.0181 0.165 0.0386 0.0352 0.0561 0.0184 0.1304-0.0383 0.1655l-3.1356 1.9571c-0.03 0.01-0.05 0.02-0.07 0.02z"/></g><g transform="matrix(1.0933 0 0 1.0933 -90.247 -107.29)"><path d="m106.9 119.66h-5.0196c-0.3192 0-0.5791-0.2597-0.5791-0.578v-2.9676c0-0.3189 0.2599-0.5786 0.5791-0.5786h5.02c0.3194 0 0.5791 0.2597 0.5791 0.5786v2.9676c0 0.3183-0.2597 0.578-0.5791 0.578zm-5.0196-3.8841c-0.1871 0-0.3387 0.152-0.3387 0.3385v2.9676c0 0.1865 0.1516 0.3376 0.3387 0.3376h5.02c0.1871 0 0.3387-0.1511 0.3387-0.3376v-2.9676c0-0.1865-0.1516-0.3385-0.3387-0.3385z"/><path d="m105.41 115.78c-0.0581 0-0.1089-0.0419-0.1185-0.1006-0.007-0.0462-0.0136-0.0986-0.0207-0.1536-0.0238-0.2007-0.057-0.4757-0.1874-0.5386-0.0502-0.0241-0.3027-0.0493-0.6735-0.0493-0.0184 0.0002-0.0366-0.0006-0.0536 0-0.3716 0-0.6236 0.0249-0.6738 0.0493-0.1304 0.0629-0.1635 0.3367-0.1879 0.5369-0.006 0.0558-0.0133 0.1085-0.0207 0.1553-0.0108 0.0652-0.0669 0.1105-0.138 0.0992-0.0655-0.0113-0.11-0.0728-0.0993-0.138 0.007-0.0443 0.0134-0.0933 0.0196-0.1452 0.0326-0.2695 0.0737-0.6049 0.3217-0.7245 0.1364-0.0655 0.5602-0.0777 0.8054-0.0734 0.2341-0.003 0.6678 0.008 0.8044 0.0734 0.2486 0.1199 0.2892 0.4561 0.322 0.7259 0.006 0.0519 0.0117 0.1007 0.019 0.1438 0.0108 0.0652-0.0337 0.1272-0.0992 0.138-0.007 0.0009-0.013 0.001-0.0195 0.001z"/><path d="m102.72 115.2h-0.6214c-0.0663 0-0.1199-0.0535-0.1199-0.1199 0-0.0666 0.0536-0.1201 0.1199-0.1201h0.6214c0.0663 0 0.1199 0.0535 0.1199 0.1201 0 0.0664-0.0536 0.1199-0.1199 0.1199z"/><path d="m106.68 115.2h-0.6211c-0.0663 0-0.1199-0.0535-0.1199-0.1199 0-0.0666 0.0536-0.1201 0.1199-0.1201h0.6211c0.0666 0 0.1205 0.0535 0.1205 0.1201 0 0.0664-0.0539 0.1199-0.1205 0.1199z"/><path d="m101.42 119.09h-0.2515c-0.3194 0-0.5791-0.2588-0.5791-0.5783v-2.9667c0-0.3192 0.2597-0.5791 0.5791-0.5791h0.3901c0.0663 0 0.1202 0.0535 0.1202 0.1201 0 0.0664-0.0539 0.1199-0.1202 0.1199h-0.3901c-0.187 0-0.339 0.152-0.339 0.3391v2.9667c0 0.1871 0.152 0.339 0.339 0.339h0.2515c0.0663 0 0.1202 0.0536 0.1202 0.1199 0 0.0666-0.0539 0.1194-0.1202 0.1194z"/><path d="m102.72 115.2c-0.006 0-0.0124-0.0002-0.0195-0.001-0.0655-0.0107-0.1097-0.0725-0.099-0.138 0.007-0.0437 0.0131-0.0924 0.0196-0.144 0.032-0.2696 0.0726-0.6055 0.3212-0.7257 0.138-0.066 0.5575-0.0745 0.805-0.0731 0.0816 0 0.2605 0.0008 0.4275 0.011 0.0657 0.004 0.1162 0.0607 0.1122 0.127-0.004 0.0661-0.0655 0.1182-0.127 0.1123-0.161-0.009-0.3339-0.0102-0.413-0.0102-0.3472-0.0102-0.6392 0.0201-0.7013 0.0493-0.1292 0.0626-0.1624 0.3376-0.1865 0.5383-0.007 0.055-0.013 0.1071-0.0204 0.1542-0.01 0.0584-0.0607 0.1003-0.1188 0.1003z"/></g><path d="m31.857 21.351h-3.3567c-0.05404 0-0.09792-0.05868-0.09792-0.1314 0-0.07273 0.04384-0.1314 0.09792-0.1314h3.3567c0.05438 0 0.09798 0.05868 0.09798 0.1314 0 0.07273-0.04363 0.1314-0.09798 0.1314z" stroke-width=".94407"/><path d="m30.821 22.354c-0.03388 0-0.06723-0.0124-0.09306-0.03719-0.05107-0.05124-0.05107-0.13471 0-0.18553l0.91083-0.91085-0.91083-0.91081c-0.05107-0.05124-0.05107-0.13471 0-0.18553 0.05149-0.05124 0.13458-0.05124 0.18599 0l1.0035 1.0035c0.05136 0.05165 0.05136 0.13471 0 0.18595l-1.0035 1.0035c-0.02562 0.02479-0.05946 0.03719-0.09293 0.03719z" stroke-width="1.0933"/></g><g fill-rule="evenodd" stroke-width="1.0933" fill="#4f8acc" transform="translate(14.817 -5.8163)"><path d="m18.472 29.195c-0.01694 0-0.0343-0.0033-0.04996-0.0083-0.04921-0.02066-0.08111-0.06859-0.08111-0.1219v-3.568l-2.501-3.7769c-0.02686-0.04132-0.02893-0.09215-0.0066-0.1343 0.02273-0.04297 0.06723-0.06942 0.11591-0.06942h6.13c0.04863 0 0.09293 0.02479 0.11591 0.06942 0.02231 0.04256 0.02025 0.0938-0.0066 0.1343l-2.501 3.7769v2.4842c0 0.03719-0.01405 0.06859-0.03843 0.09297l-1.0844 1.0837c-0.02521 0.02479-0.05859 0.03719-0.09293 0.03719zm-2.2782-7.4175 2.3879 3.6061c0.01446 0.02066 0.0219 0.04669 0.0219 0.07273v3.2903l0.8215-0.82094v-2.4693c0-0.02479 0.0079-0.05082 0.0219-0.07273l2.3878-3.6061zm3.3626 6.2023h0.0033z"/><path d="m18.394 24.506c-0.04219 0-0.0843-0.02066-0.10942-0.05868l-1.0512-1.5874c-0.04008-0.06033-0.02355-0.14215 0.03678-0.18223 0.06078-0.04132 0.14202-0.02479 0.18194 0.03719l1.0513 1.5877c0.04008 0.06033 0.02355 0.14173-0.03678 0.18182-0.02231 0.01653-0.04735 0.02066-0.07248 0.02066z"/></g><g fill-rule="evenodd" fill="#4f8acc"><g stroke-width="1.0933"><path d="m3.403 9.1338c-1.7941 0-3.2538-1.4594-3.2538-3.2538 0-1.7938 1.4597-3.2531 3.2538-3.2531 1.7938 0 3.2534 1.4593 3.2534 3.2531 0 1.7944-1.4597 3.2538-3.2534 3.2538zm0-6.2444c-1.6494 0-2.9909 1.3416-2.9909 2.9906 0 1.6497 1.3416 2.9909 2.9909 2.9909 1.649 0 2.9906-1.3413 2.9906-2.9909 0-1.649-1.3416-2.9906-2.9906-2.9906z"/><path d="m5.949 6.0117h-0.5765c-0.072478 0-0.1314-0.058677-0.1314-0.13099 0-0.072726 0.058925-0.1314 0.1314-0.1314h0.5765c0.072478 0 0.1314 0.058677 0.1314 0.1314 0 0.072313-0.058925 0.13099-0.1314 0.13099z"/><path d="m3.403 8.5577c-0.072478 0-0.13107-0.058677-0.13107-0.1314v-0.5765c0-0.072313 0.058594-0.1314 0.13107-0.1314 0.072809 0 0.1314 0.05909 0.1314 0.1314v0.57652c0 0.072726-0.058594 0.1314-0.1314 0.1314z"/><path d="m3.4037 7.4416c-0.072478 0-0.1314-0.058677-0.1314-0.1314v-3.9755c0-0.072313 0.058925-0.1314 0.1314-0.1314 0.072478 0 0.1314 0.058677 0.1314 0.1314v3.9756c0 0.072726-0.058925 0.1314-0.1314 0.1314z"/><path d="m23.573 9.1344c-1.7941 0-3.2538-1.4597-3.2538-3.2538 0-1.7944 1.4597-3.2544 3.2538-3.2544s3.2534 1.46 3.2534 3.2544c0 1.7941-1.4593 3.2538-3.2534 3.2538zm0-6.2454c-1.6497 0-2.9909 1.3419-2.9909 2.9916 0 1.6494 1.3413 2.9909 2.9909 2.9909 1.6487 0 2.9909-1.3416 2.9909-2.9909 0-1.6497-1.3422-2.9916-2.9909-2.9916z"/><path d="m21.604 6.0117h-0.576c-0.07248 0-0.13107-0.058677-0.13107-0.13099 0-0.072726 0.0586-0.1314 0.13107-0.1314h0.57617c0.07248 0 0.1314 0.058677 0.1314 0.1314 0 0.072313-0.05892 0.13099-0.1314 0.13099z"/><path d="m23.573 8.5577c-0.07248 0-0.13107-0.058677-0.13107-0.1314v-0.5765c0-0.072313 0.05859-0.1314 0.13107-0.1314 0.07281 0 0.1314 0.05909 0.1314 0.1314v0.57652c0 0.072726-0.05859 0.1314-0.1314 0.1314z"/><path d="m26.118 6.0117h-0.57672c-0.0726 0-0.1314-0.058677-0.1314-0.13099 0-0.072726 0.0588-0.1314 0.1314-0.1314h0.57672c0.07248 0 0.13107 0.058677 0.13107 0.1314 0 0.072313-0.05859 0.13099-0.13107 0.13099z"/><path d="m23.573 6.0124c-0.07248 0-0.13107-0.058677-0.13107-0.1314v-2.5463c0-0.072313 0.05859-0.1314 0.13107-0.1314 0.07281 0 0.1314 0.058677 0.1314 0.1314v2.5463c0 0.072726-0.05859 0.1314-0.1314 0.1314z"/><path d="m23.572 6.0117c-0.02231 0-0.04471-0.00413-0.0657-0.016529-0.06297-0.03719-0.0843-0.11611-0.0481-0.17934l0.71557-1.2384c0.03554-0.063222 0.11653-0.083883 0.17822-0.048346 0.0633 0.037189 0.08463 0.11653 0.04843 0.17934l-0.715 1.2388c-0.02438 0.042148-0.06822 0.065288-0.11372 0.065288z"/><path d="m43.74 9.1338c-1.7938 0-3.2532-1.4594-3.2532-3.2538 0-1.7943 1.4594-3.2537 3.2532-3.2537 1.7947 0 3.2543 1.4594 3.2543 3.2537 0 1.7944-1.4597 3.2538-3.2543 3.2538zm0-6.2447c-1.6497 0-2.9907 1.3414-2.9907 2.9909 0 1.6497 1.341 2.9909 2.9907 2.9909 1.6492 0 2.9915-1.3413 2.9915-2.9909s-1.3422-2.9909-2.9915-2.9909z"/><path d="m46.285 6.0117h-0.5754c-0.0726 0-0.1314-0.058677-0.1314-0.13099 0-0.072726 0.0588-0.1314 0.1314-0.1314h0.5754c0.0726 0 0.1314 0.058677 0.1314 0.1314 0 0.072313-0.0588 0.13099-0.1314 0.13099z"/><path d="m41.771 6.0117h-0.57552c-0.07248 0-0.13107-0.058677-0.13107-0.13099 0-0.072726 0.05859-0.1314 0.13107-0.1314h0.57552c0.07281 0 0.1314 0.058677 0.1314 0.1314 0 0.072313-0.0586 0.13099-0.1314 0.13099z"/><path d="m43.74 6.0114c-0.0726 0-0.1314-0.058677-0.1314-0.1314v-2.5458c0-0.072726 0.0588-0.1314 0.1314-0.1314 0.07248 0 0.13107 0.058677 0.13107 0.1314v2.5458c0 0.072726-0.05859 0.1314-0.13107 0.1314z"/><path d="m43.026 7.2504c-0.02231 0-0.04492-0.00413-0.06516-0.016529-0.06285-0.03719-0.0843-0.11653-0.04797-0.17975l0.71524-1.2384c0.0343-0.063635 0.11653-0.084296 0.17855-0.047933 0.06297 0.037189 0.0843 0.11611 0.04777 0.17934l-0.71535 1.2384c-0.02355 0.042148-0.0681 0.065701-0.11306 0.065701z"/></g><path d="m38.522 21.351h-2.806c-0.04517 0-0.08189-0.05868-0.08189-0.1314 0-0.07273 0.03673-0.1314 0.08189-0.1314h2.806c0.04517 0 0.08189 0.05868 0.08189 0.1314 0 0.07273-0.03672 0.1314-0.08189 0.1314z" stroke-width=".86310"/><path d="m37.468 22.354c-0.03306 0-0.06723-0.0124-0.09293-0.03719-0.05116-0.05124-0.05116-0.13471 0-0.18553l0.9105-0.91085-0.9105-0.91081c-0.05116-0.05124-0.05116-0.13471 0-0.18553 0.05116-0.05124 0.13446-0.05124 0.18566 0l1.0038 1.0035c0.05116 0.05165 0.05116 0.13471 0 0.18595l-1.0038 1.0035c-0.02562 0.02479-0.05979 0.03719-0.09273 0.03719z" stroke-width="1.0933"/><g transform="translate(0.00027 .0047250)" stroke-width="1.0933"><path d="m1.4336 6.007h-0.57617c-0.072478 0-0.13107-0.058677-0.13107-0.13099 0-0.072726 0.058594-0.1314 0.13107-0.1314h0.57617c0.072478 0 0.1314 0.058677 0.1314 0.1314 0 0.072313-0.058925 0.13099-0.1314 0.13099z"/><path d="m43.74 8.5527c-0.0726 0-0.1314-0.05909-0.1314-0.1314v-0.5768c0-0.072726 0.0588-0.13099 0.1314-0.13099 0.07248 0 0.13107 0.058677 0.13107 0.13099v0.57673c0 0.072313-0.05859 0.1314-0.13107 0.1314z"/><path d="m47.485 3.0759c-0.21996 0-0.43448-0.059916-0.62132-0.17314-0.039-0.0248-0.063-0.0662-0.063-0.1124 0-0.045867 0.02438-0.088428 0.06298-0.11198 0.28293-0.17107 0.45153-0.47078 0.45153-0.80106 0-0.33016-0.16859-0.62887-0.45153-0.80032-0.039-0.0248-0.063-0.0661-0.063-0.11197 0-0.045867 0.02355-0.088015 0.06298-0.11198 0.18586-0.11363 0.40136-0.17355 0.62132-0.17355 0.66101 0 1.1981 0.53768 1.1981 1.1982 0 0.66069-0.53714 1.1984-1.1981 1.1984zm-0.298-0.3112c0.09599 0.033057 0.19644 0.04876 0.29867 0.04876 0.51571 0 0.93532-0.41962 0.93532-0.93585 0-0.51574-0.41961-0.93531-0.93532-0.93531-0.10223 0-0.20388 0.016529-0.29867 0.04876 0.24851 0.22479 0.39173 0.54226 0.39173 0.88668 0 0.34421-0.14322 0.66255-0.39173 0.88722z"/></g><g transform="matrix(1.0933 0 0 1.0933 -107.71 -103.2)"><path d="m105.62 96.939c-0.4595 0-0.8331-0.3734-0.8331-0.8328 0-0.4595 0.3736-0.8332 0.8331-0.8332 0.4589 0 0.8325 0.3737 0.8325 0.8332 0 0.4594-0.3736 0.8328-0.8325 0.8328zm0-1.4256c-0.3268 0-0.5927 0.2659-0.5927 0.5928 0 0.3265 0.2659 0.5927 0.5927 0.5927 0.3265 0 0.5921-0.2662 0.5921-0.5927 0-0.3269-0.2656-0.5928-0.5921-0.5928z"/><path d="m105.62 95.017c-0.0663 0-0.1202-0.0536-0.1202-0.1199v-0.3884c0-0.0663 0.0539-0.1199 0.1202-0.1199s0.1199 0.0536 0.1199 0.1199v0.3884c0 0.0663-0.0536 0.1199-0.1199 0.1199z"/><path d="m106.47 95.371c-0.0309 0-0.0615-0.0116-0.085-0.0351-0.0468-0.0468-0.0468-0.123 0-0.1698l0.2744-0.2744c0.047-0.0468 0.123-0.0468 0.1701 0 0.0467 0.0468 0.0467 0.123 0 0.1698l-0.2744 0.2744c-0.0236 0.0235-0.0545 0.0351-0.0851 0.0351z"/><path d="m107.22 96.226h-0.3886c-0.0664 0-0.1202-0.0536-0.1202-0.1199 0-0.0664 0.0538-0.1202 0.1202-0.1202h0.3886c0.0663 0 0.1202 0.0538 0.1202 0.1202 0 0.0663-0.0539 0.1199-0.1202 0.1199z"/><path d="m106.75 97.356c-0.0309 0-0.0615-0.0119-0.085-0.0354l-0.2744-0.2744c-0.0468-0.0468-0.0468-0.123 0-0.1698 0.047-0.0468 0.123-0.0468 0.1701 0l0.2744 0.2744c0.0467 0.0468 0.0467 0.123 0 0.1698-0.0236 0.0235-0.0545 0.0354-0.0851 0.0354z"/><path d="m105.62 97.824c-0.0663 0-0.1202-0.0538-0.1202-0.1201v-0.3881c0-0.0666 0.0539-0.1202 0.1202-0.1202s0.1199 0.0536 0.1199 0.1202v0.3881c0 0.0663-0.0536 0.1201-0.1199 0.1201z"/><path d="m104.49 97.356c-0.0309 0-0.0615-0.0119-0.085-0.0354-0.0468-0.0468-0.0468-0.123 0-0.1698l0.2744-0.2744c0.0467-0.0468 0.123-0.0468 0.17 0 0.0468 0.0468 0.0468 0.123 0 0.1698l-0.2744 0.2744c-0.0235 0.0235-0.0544 0.0354-0.085 0.0354z"/><path d="m104.41 96.226h-0.3884c-0.0663 0-0.1199-0.0536-0.1199-0.1199 0-0.0664 0.0536-0.1202 0.1199-0.1202h0.3884c0.0663 0 0.1201 0.0538 0.1201 0.1202 0 0.0663-0.0538 0.1199-0.1201 0.1199z"/><path d="m104.76 95.371c-0.0309 0-0.0615-0.0116-0.085-0.0351l-0.2744-0.2744c-0.0468-0.0468-0.0468-0.123 0-0.1698 0.0467-0.0468 0.123-0.0468 0.17 0l0.2744 0.2744c0.0468 0.0468 0.0468 0.123 0 0.1698-0.0235 0.0235-0.0544 0.0351-0.085 0.0351z"/></g><g transform="matrix(1.0933 0 0 1.0933 -107.71 -103.2)"><path d="m106.35 99.97c0.1134 0 0.2058-0.0924 0.2058-0.2061 0-0.1139-0.0924-0.2066-0.2058-0.2066-0.1137 0-0.2063 0.0927-0.2063 0.2066 0 0.1137 0.0926 0.2061 0.2063 0.2061z"/><path d="m108.15 99.97c0.1136 0 0.206-0.0924 0.206-0.2061 0-0.1139-0.0924-0.2066-0.206-0.2066-0.114 0-0.2067 0.0927-0.2067 0.2066 0 0.1137 0.0927 0.2061 0.2067 0.2061z"/><path d="m109.95 99.97c0.1134 0 0.2058-0.0924 0.2058-0.2061 0-0.1139-0.0924-0.2066-0.2058-0.2066-0.1137 0-0.2064 0.0927-0.2064 0.2066 0 0.1137 0.0927 0.2061 0.2064 0.2061z"/><path d="m111.75 99.97c0.1136 0 0.206-0.0924 0.206-0.2061 0-0.1139-0.0924-0.2066-0.206-0.2066-0.114 0-0.2067 0.0927-0.2067 0.2066 0 0.1137 0.0927 0.2061 0.2067 0.2061z"/><path d="m113.55 99.97c0.1134 0 0.2058-0.0924 0.2058-0.2061 0-0.1139-0.0924-0.2066-0.2058-0.2066-0.1137 0-0.2064 0.0927-0.2064 0.2066 0 0.1137 0.0927 0.2061 0.2064 0.2061z"/><path d="m115.35 99.97c0.1137 0 0.2061-0.0924 0.2061-0.2061 0-0.1139-0.0924-0.2066-0.2061-0.2066-0.1139 0-0.2066 0.0927-0.2066 0.2066 0 0.1137 0.0927 0.2061 0.2066 0.2061z"/></g><g transform="matrix(1.0933 0 0 1.0933 -107.71 -103.2)"><path d="m124.8 99.97c0.1134 0 0.2061-0.0924 0.2061-0.2061 0-0.1139-0.0927-0.2066-0.2061-0.2066-0.1136 0-0.2066 0.0927-0.2066 0.2066 0 0.1137 0.093 0.2061 0.2066 0.2061z"/><path d="m126.6 99.97c0.1139 0 0.2063-0.0924 0.2063-0.2061 0-0.1139-0.0924-0.2066-0.2063-0.2066-0.1134 0-0.2061 0.0927-0.2061 0.2066 0 0.1137 0.0927 0.2061 0.2061 0.2061z"/><path d="m128.4 99.97c0.1134 0 0.2061-0.0924 0.2061-0.2061 0-0.1139-0.0927-0.2066-0.2061-0.2066-0.1137 0-0.2066 0.0927-0.2066 0.2066 0 0.1137 0.0929 0.2061 0.2066 0.2061z"/><path d="m130.2 99.97c0.1139 0 0.2063-0.0924 0.2063-0.2061 0-0.1139-0.0924-0.2066-0.2063-0.2066-0.1134 0-0.2061 0.0927-0.2061 0.2066 0 0.1137 0.0927 0.2061 0.2061 0.2061z"/><path d="m132 99.97c0.1134 0 0.2061-0.0924 0.2061-0.2061 0-0.1139-0.0927-0.2066-0.2061-0.2066-0.1137 0-0.2066 0.0927-0.2066 0.2066 0 0.1137 0.0929 0.2061 0.2066 0.2061z"/><path d="m133.8 99.97c0.1139 0 0.2063-0.0924 0.2063-0.2061 0-0.1139-0.0924-0.2066-0.2063-0.2066-0.1134 0-0.2061 0.0927-0.2061 0.2066 0 0.1137 0.0927 0.2061 0.2061 0.2061z"/></g><g transform="matrix(4.7776 0 0 4.1322 224.84 -597.35)" stroke-width=".26458"><path d="m-42.126 148.01c-0.01762 0-0.0318-0.0142-0.0318-0.0318 0-0.34687-0.28215-0.62918-0.62902-0.62918h-3.8107c-0.25575 0-0.46395-0.20813-0.46395-0.46387 0-0.0176 0.01423-0.0318 0.0318-0.0318 0.01754 0 0.0318 0.0142 0.0318 0.0318 0 0.22079 0.17955 0.40034 0.40034 0.40034h3.8107c0.3819 0 0.69263 0.31073 0.69263 0.69271 0 0.0176-0.01426 0.0318-0.0318 0.0318z"/><path d="m-42.126 148.01c-0.01762 0-0.0318-0.0142-0.0318-0.0318 0-0.38198 0.31073-0.69271 0.69271-0.69271h3.8107c0.22095 0 0.4005-0.17955 0.4005-0.40034 0-0.0176 0.01426-0.0318 0.0318-0.0318s0.0318 0.0142 0.0318 0.0318c0 0.25574-0.20828 0.46387-0.46411 0.46387h-3.8107c-0.34687 0-0.6291 0.28231-0.6291 0.62918 0 0.0176-0.01426 0.0318-0.0318 0.0318z"/></g></g></svg>
