<?xml version="1.0" encoding="UTF-8" standalone="no"?>
<svg xmlns="http://www.w3.org/2000/svg" height="164.83" width="155" version="1.1" viewBox="0 0 41.010416 43.611388"><g transform="translate(-100.9 -110.1)"><g fill-rule="evenodd" fill="#4f8acc" transform="matrix(4.1535 0 0 4.1535 -318.18 -484.72)"><g transform="matrix(.26458 0 0 .26458 74.773 133.05)"><path d="m120.16 78.081h-5.5001c-0.2928 0-0.5315-0.2386-0.5315-0.5323v-3.0903c0-0.2934 0.2387-0.5321 0.5315-0.5321h5.5001c0.2933 0 0.5314 0.2387 0.5314 0.5321v3.0903c0 0.2937-0.2381 0.5323-0.5314 0.5323zm-5.5001-3.9146c-0.1604 0-0.2914 0.131-0.2914 0.292v3.0903c0 0.1613 0.131 0.2922 0.2914 0.2922h5.5001c0.1607 0 0.2914-0.1309 0.2914-0.2922v-3.0903c0-0.161-0.1307-0.292-0.2914-0.292z"/><path d="m117.41 76.418c-0.0221 0-0.044-0.0063-0.0635-0.0182l-3.1363-1.957c-0.0561-0.0352-0.0731-0.1094-0.0385-0.1656 0.0351-0.0569 0.1097-0.0731 0.1655-0.0385l3.0728 1.9176 3.0724-1.9176c0.0556-0.0355 0.1299-0.0182 0.165 0.0385 0.0352 0.0562 0.0187 0.1304-0.038 0.1656l-3.1359 1.957c-0.0196 0.0119-0.0417 0.0182-0.0635 0.0182z"/></g><g transform="matrix(.26458 0 0 .26458 74.773 133.8)"><path d="m120.2 52.022h-5.0202c-0.3186 0-0.5785-0.2596-0.5785-0.5788v-2.9673c0-0.3189 0.2599-0.5788 0.5785-0.5788h5.0202c0.3186 0 0.5782 0.2599 0.5782 0.5788v2.9673c0 0.3192-0.2596 0.5788-0.5782 0.5788zm-5.0202-3.8846c-0.1865 0-0.3382 0.152-0.3382 0.3385v2.9673c0 0.1868 0.1517 0.3387 0.3382 0.3387h5.0202c0.1865 0 0.3381-0.1519 0.3381-0.3387v-2.9673c0-0.1865-0.1516-0.3385-0.3381-0.3385z"/><path d="m118.71 48.137c-0.0575 0-0.1088-0.0419-0.1184-0.1006-0.007-0.0468-0.0142-0.0995-0.0207-0.1553-0.0244-0.2002-0.0576-0.474-0.188-0.5366-0.0501-0.0244-0.3027-0.0496-0.6729-0.0496h-0.0536c-0.3716 0-0.6236 0.0252-0.6743 0.0496-0.1304 0.0626-0.1636 0.3364-0.188 0.5366-0.006 0.0558-0.0133 0.1085-0.0204 0.1553-0.0108 0.0649-0.066 0.1094-0.1383 0.0992-0.0655-0.0113-0.1097-0.0728-0.099-0.1383 0.007-0.0439 0.0131-0.093 0.0193-0.1449 0.0329-0.2695 0.074-0.6052 0.322-0.7245 0.1361-0.0655 0.5545-0.0774 0.8056-0.0734 0.2396-0.0054 0.6676 0.0079 0.8042 0.0734 0.2481 0.1193 0.2889 0.455 0.3218 0.7245 0.006 0.0519 0.0122 0.101 0.0195 0.1449 0.0108 0.0655-0.0337 0.127-0.0992 0.1383-0.007 0.0009-0.013 0.0014-0.0196 0.0014z"/><path d="m116.02 47.561h-0.6211c-0.0666 0-0.1202-0.0536-0.1202-0.1199 0-0.0667 0.0536-0.1202 0.1202-0.1202h0.6211c0.0663 0 0.1199 0.0535 0.1199 0.1202 0 0.0663-0.0536 0.1199-0.1199 0.1199z"/><path d="m119.97 47.561h-0.6211c-0.0663 0-0.1202-0.0536-0.1202-0.1199 0-0.0667 0.0539-0.1202 0.1202-0.1202h0.6211c0.0663 0 0.1202 0.0535 0.1202 0.1202 0 0.0663-0.0539 0.1199-0.1202 0.1199z"/><path d="m114.72 51.445h-0.252c-0.3195 0-0.5792-0.2597-0.5792-0.5786v-2.9667c0-0.3195 0.2597-0.5791 0.5792-0.5791h0.39c0.0666 0 0.1202 0.0535 0.1202 0.1202 0 0.0663-0.0536 0.1199-0.1202 0.1199h-0.39c-0.1868 0-0.3388 0.1519-0.3388 0.339v2.9667c0 0.1865 0.152 0.3385 0.3388 0.3385h0.252c0.0663 0 0.1201 0.0535 0.1201 0.1202 0 0.0663-0.0538 0.1199-0.1201 0.1199z"/><path d="m116.02 47.561c-0.007 0-0.0127-0.0003-0.0195-0.0015-0.0655-0.011-0.11-0.0725-0.0992-0.138 0.007-0.0439 0.013-0.0933 0.0195-0.1457 0.0326-0.269 0.0737-0.6044 0.3218-0.724 0.1377-0.0655 0.5629-0.0765 0.805-0.0731 0.0774 0.0014 0.2594 0.0008 0.4275 0.011 0.0657 0.004 0.1162 0.0607 0.1122 0.127-0.003 0.0655-0.0694 0.1211-0.127 0.1123-0.161-0.0096-0.3353-0.0122-0.4127-0.0102h-0.0247c-0.3282 0-0.6162 0.021-0.6769 0.0493-0.1292 0.0624-0.1624 0.3368-0.1868 0.5372-0.006 0.0555-0.0133 0.1083-0.0207 0.1553-0.01 0.0584-0.0609 0.1004-0.1185 0.1004z"/></g><path d="m105.68 151.18c-0.004 0-0.008-0.00075-0.0122-0.002-0.0119-0.005-0.0196-0.0166-0.0196-0.0293v-0.9834l-0.68895-1.0405c-0.006-0.01-0.007-0.0224-0.002-0.0326 0.006-0.0103 0.0163-0.0168 0.0281-0.0168h1.6869c0.0116 0 0.0225 0.006 0.0279 0.0168 0.006 0.0102 0.005 0.0227-0.002 0.0326l-0.68887 1.0405v0.6849c0 0.008-0.003 0.0166-0.009 0.0225l-0.29826 0.29843c-0.006 0.006-0.0143 0.009-0.0225 0.009zm-0.63511-2.0414l0.66157 0.99914c0.004 0.005 0.005 0.0113 0.005 0.0176v0.9162l0.23474-0.23484v-0.68136c0-0.006 0.002-0.0123 0.005-0.0176l0.66172-0.99914zm0.93337 1.7112h0.0008z" stroke-width=".26458"/><g transform="matrix(.26458 0 0 .26458 74.773 133.8)"><path d="m117.39 56.663c-0.0666 0-0.1202-0.0536-0.1202-0.1199v-3.3545c0-0.0666 0.0536-0.1202 0.1202-0.1202 0.0663 0 0.1199 0.0536 0.1199 0.1202v3.3545c0 0.0663-0.0536 0.1199-0.1199 0.1199z"/><path d="m117.39 56.663c-0.0309 0-0.0615-0.0116-0.085-0.0352l-0.9179-0.9173c-0.0471-0.047-0.0471-0.123 0-0.17 0.0468-0.0468 0.123-0.0468 0.1698 0l0.8331 0.8325 0.8328-0.8325c0.0471-0.0468 0.1233-0.0468 0.1701 0 0.0468 0.047 0.0468 0.123 0 0.17l-0.9179 0.9173c-0.0235 0.0236-0.0544 0.0352-0.085 0.0352z"/></g><path d="m105.68 149.8c-0.0102 0-0.0204-0.005-0.0265-0.0143l-0.28935-0.43688c-0.01-0.0146-0.006-0.0344 0.009-0.0441 0.0148-0.01 0.0344-0.006 0.0441 0.009l0.28935 0.43696c0.01 0.0146 0.006 0.0344-0.009 0.044-0.005 0.004-0.0114 0.005-0.0175 0.005z" stroke-width=".26458"/><g transform="matrix(.26458 0 0 .26458 74.773 133.8)"><path d="m98.816 37.064c0.0343 0.0278 0.0725 0.0556 0.1156 0.0837 0.0442 0.0278 0.091 0.0535 0.1426 0.0771 0.0522 0.0241 0.1072 0.0433 0.1658 0.0581 0.0584 0.0142 0.1194 0.0221 0.1834 0.0232 0.0845-0.0003 0.1647-0.013 0.2398-0.0363 0.074-0.0241 0.1406-0.0578 0.1993-0.1014 0.0406-0.0295 0.0754-0.0635 0.106-0.1021 0.0298-0.0385 0.0545-0.0802 0.072-0.1264 0.0173-0.0465 0.0255-0.0955 0.0258-0.1471 0-0.0377-0.005-0.0749-0.0144-0.1097-0.01-0.0352-0.0241-0.0672-0.042-0.0964-0.0278-0.0445-0.0618-0.0833-0.1026-0.1159-0.0414-0.0329-0.0862-0.0616-0.1349-0.0854-0.0471-0.0226-0.0987-0.0425-0.1537-0.0589-0.055-0.0167-0.1131-0.0309-0.1743-0.0431h-0.004c-0.064-0.011-0.122-0.027-0.173-0.045s-0.092-0.039-0.123-0.06c-0.015-0.011-0.029-0.022-0.039-0.033-0.011-0.011-0.02-0.021-0.025-0.031-0.006-0.009-0.011-0.019-0.013-0.03-0.0031-0.0102-0.0036-0.0226-0.0036-0.0374-0.0009-0.0255 0.0065-0.0516 0.0204-0.0774 0.0141-0.026 0.0382-0.0504 0.0694-0.0754 0.0323-0.0252 0.0717-0.0445 0.1176-0.0592 0.0448-0.015 0.0944-0.0227 0.1483-0.023 0.0476 0.0003 0.0938 0.0077 0.1366 0.0216s0.0845 0.0329 0.1253 0.0561c0.0397 0.0235 0.0805 0.0499 0.1202 0.0774 0.019 0.0125 0.0394 0.0198 0.061 0.0207 0.0209 0.0006 0.0416-0.0037 0.0606-0.0133 0.019-0.0097 0.0343-0.0238 0.0465-0.044 0.013-0.019 0.0198-0.0391 0.0204-0.0606 0.0014-0.0219-0.0028-0.0426-0.0122-0.0621-0.0088-0.0193-0.0229-0.0357-0.0411-0.0491-0.03-0.0204-0.0638-0.0416-0.0995-0.064-0.0363-0.0221-0.0757-0.0434-0.1196-0.0624-0.042-0.0201-0.0882-0.0357-0.1383-0.0485-0.0494-0.0119-0.1026-0.0181-0.1599-0.0187-0.078 0-0.1514 0.0114-0.2214 0.0329-0.0694 0.0221-0.1329 0.0536-0.1891 0.0953-0.0371 0.0272-0.07 0.0598-0.0975 0.0958-0.0289 0.0365-0.0516 0.0762-0.0672 0.1199-0.0167 0.0436-0.0252 0.0893-0.0255 0.138 0 0.036 0.0046 0.0715 0.0139 0.1046 0.0099 0.0338 0.0236 0.0652 0.0411 0.0939 0.0267 0.043 0.0584 0.079 0.0961 0.1102 0.0374 0.0309 0.0788 0.0573 0.1247 0.0794 0.0448 0.0213 0.0933 0.0402 0.1449 0.0547 0.0513 0.0156 0.1054 0.0286 0.1607 0.0394h0.0048c0.0706 0.0139 0.1341 0.03 0.19 0.0502 0.0555 0.0193 0.1003 0.0408 0.1352 0.0638 0.0178 0.0121 0.032 0.024 0.0436 0.0365 0.0119 0.0122 0.0207 0.0241 0.0278 0.0363 0.0068 0.0119 0.0128 0.0241 0.0164 0.036 0.0035 0.0122 0.0052 0.0255 0.0052 0.0417 0.0002 0.0303-0.0083 0.0604-0.0241 0.0898-0.0165 0.0298-0.0423 0.0581-0.0783 0.0848-0.036 0.0269-0.0791 0.0487-0.1307 0.0643-0.051 0.0165-0.1063 0.0244-0.1661 0.0253-0.0422 0.0002-0.0842-0.0051-0.1272-0.0159-0.0423-0.0108-0.0834-0.0255-0.1231-0.0437-0.0397-0.0184-0.0774-0.0388-0.1114-0.0606-0.0345-0.0224-0.0646-0.0445-0.0912-0.0664-0.0182-0.0147-0.0377-0.0235-0.0584-0.0266-0.0216-0.0037-0.0423-0.002-0.0627 0.0051-0.0207 0.0079-0.038 0.0204-0.0519 0.038-0.0138 0.0184-0.0221 0.0385-0.0252 0.0606-0.0025 0.0216-0.0003 0.0423 0.0065 0.0635 0.0074 0.0205 0.0204 0.0383 0.0372 0.053zm2.4539-0.2613v-0.578c0-0.0229-0.006-0.0439-0.0178-0.0632-0.0128-0.0196-0.0273-0.0354-0.0474-0.0471-0.0195-0.0119-0.0408-0.0175-0.0626-0.0178-0.0238 0.0003-0.0454 0.0059-0.0641 0.0178-0.0181 0.0117-0.0329 0.0275-0.0431 0.0471-0.0105 0.0193-0.0161 0.0403-0.0161 0.0632v0.578c-0.001 0.0462-0.0134 0.0884-0.0357 0.125-0.021 0.0377-0.0511 0.0666-0.0885 0.0884-0.0374 0.0216-0.0791 0.0332-0.1253 0.0338-0.0453-0.0006-0.0862-0.0122-0.1236-0.0338-0.036-0.0218-0.0646-0.0507-0.0856-0.0884-0.0218-0.0366-0.0326-0.0788-0.0329-0.125v-0.578c-0.0002-0.0229-0.006-0.0439-0.0167-0.0632-0.0108-0.0196-0.0258-0.0354-0.0448-0.0471-0.0187-0.0119-0.0399-0.0175-0.0646-0.0178-0.0227 0.0003-0.0434 0.0059-0.0626 0.0178-0.019 0.0117-0.0343 0.0275-0.0454 0.0471-0.0111 0.0193-0.0176 0.0403-0.0176 0.0632v0.578c0 0.0697 0.0136 0.1344 0.0394 0.1956 0.0258 0.0601 0.061 0.1134 0.1063 0.1596 0.0451 0.0465 0.0975 0.0822 0.1562 0.1083 0.0601 0.026 0.1242 0.0396 0.1919 0.0399 0.0689-0.0003 0.1332-0.0139 0.1936-0.0399 0.0596-0.0261 0.1131-0.0618 0.1593-0.1083 0.0457-0.0462 0.082-0.0995 0.108-0.1596 0.0258-0.0612 0.0397-0.1259 0.0397-0.1956zm0.8144-0.7061c-0.0468 0.0003-0.091 0.0071-0.1338 0.0198-0.0431 0.0134-0.0813 0.0312-0.1179 0.0553-0.0113-0.0241-0.0267-0.0419-0.0476-0.0553-0.0202-0.0127-0.0434-0.0195-0.0686-0.0198-0.0244 0.0003-0.0457 0.0059-0.0638 0.0176-0.0193 0.011-0.0343 0.0263-0.0448 0.0459-0.0113 0.0198-0.0164 0.0408-0.0173 0.0646v0.953c0.0009 0.0238 0.006 0.0454 0.0173 0.0649 0.0105 0.0193 0.0255 0.0343 0.0448 0.046 0.0181 0.0113 0.0394 0.0172 0.0638 0.0175 0.0207-0.0003 0.0402-0.0051 0.0575-0.0141 0.0173-0.0091 0.0323-0.021 0.044-0.0369 0.0121-0.0162 0.0192-0.0337 0.024-0.053 0.002-0.0048 0.004-0.0094 0.004-0.0133 0.002-0.004 0.002-0.0074 0.002-0.0111v-0.578c0.0002-0.0453 0.0107-0.0873 0.0317-0.1238 0.0213-0.0369 0.049-0.0661 0.085-0.0873 0.0358-0.0213 0.0754-0.0326 0.1205-0.0329 0.0456 0.0003 0.087 0.0116 0.1242 0.0329 0.0368 0.0212 0.0669 0.0504 0.0884 0.0873 0.0221 0.0365 0.034 0.0785 0.034 0.1238v0.578c0 0.0238 0.006 0.0454 0.0176 0.0649 0.0116 0.0193 0.0272 0.0343 0.0459 0.046 0.0193 0.0113 0.0394 0.0172 0.0621 0.0175 0.0232-0.0003 0.0442-0.0062 0.0629-0.0175 0.0185-0.0117 0.0326-0.0267 0.0445-0.046 0.0105-0.0195 0.0159-0.0411 0.0165-0.0649v-0.578c-0.0006-0.0691-0.0136-0.1335-0.0389-0.1941-0.0255-0.0607-0.0615-0.1137-0.1063-0.1602-0.0447-0.0462-0.0978-0.0822-0.157-0.1088-0.0607-0.0261-0.1244-0.0397-0.1939-0.04zm3.7066-0.4845h-0.002c-0.0212 0-0.0411 0.0051-0.0598 0.0148-0.0178 0.0096-0.0334 0.0229-0.0468 0.0414l-0.4728 0.6675-0.4719-0.6675c-0.012-0.0185-0.0284-0.0318-0.0463-0.0414-0.0198-0.0097-0.0385-0.0148-0.0583-0.0148h-0.004-0.003c-0.0241 0.0009-0.046 0.0066-0.0652 0.019-0.0202 0.0119-0.0358 0.0284-0.0474 0.0479-0.0119 0.0196-0.0178 0.0417-0.0178 0.0667v1.4272c0 0.0247 0.006 0.0473 0.0178 0.0666 0.0116 0.0201 0.0272 0.0363 0.0474 0.0476 0.0192 0.0125 0.0411 0.0187 0.0652 0.019 0.0249-0.0003 0.0467-0.0065 0.0671-0.019 0.0193-0.0113 0.0357-0.0275 0.0477-0.0476 0.0119-0.0193 0.0172-0.0419 0.0178-0.0666v-1.0182l0.3393 0.4833c0.0133 0.0187 0.0292 0.032 0.0485 0.042 0.0187 0.009 0.0388 0.0138 0.0607 0.0138h0.001 0.0008 0.001 0.001c0.0212 0 0.0413-0.0048 0.06-0.0138 0.0176-0.01 0.0341-0.0233 0.0465-0.042l0.3419-0.4833v1.0182c0.0006 0.0247 0.006 0.0473 0.0176 0.0666 0.011 0.0201 0.0269 0.0363 0.0465 0.0476 0.0192 0.0125 0.0413 0.0187 0.0663 0.019 0.0244-0.0003 0.0462-0.0065 0.0663-0.019 0.0193-0.0113 0.036-0.0275 0.0479-0.0476 0.0122-0.0193 0.0184-0.0419 0.019-0.0666v-1.4272c-0.0006-0.025-0.007-0.046-0.019-0.0661-0.0119-0.0195-0.0286-0.0354-0.0479-0.0473-0.0201-0.0122-0.0419-0.0185-0.0663-0.0202zm1.0916 1.7011c0.0797-0.0003 0.1525-0.017 0.2205-0.0496 0.0678-0.0315 0.1262-0.0771 0.1764-0.1338 0.0535-0.0541 0.0949-0.1173 0.1227-0.1891 0.0286-0.0728 0.0425-0.1522 0.0428-0.2372-0.0003-0.0825-0.0142-0.1588-0.0428-0.2293-0.0278-0.0715-0.0692-0.1358-0.1227-0.1936-0.0502-0.0576-0.1086-0.1024-0.1764-0.135-0.068-0.0326-0.1408-0.0487-0.2205-0.049-0.0813 0.0003-0.1565 0.0164-0.2251 0.049-0.0683 0.0326-0.1298 0.0774-0.1828 0.135-0.0516 0.0578-0.0913 0.1221-0.1202 0.1936-0.028 0.0705-0.0428 0.1468-0.0434 0.2293 0.0006 0.085 0.0154 0.1644 0.0434 0.2372 0.0289 0.0718 0.0686 0.135 0.1202 0.1891 0.053 0.0567 0.1145 0.1023 0.1828 0.1338 0.0686 0.0326 0.1438 0.0493 0.2251 0.0496zm-0.2268-0.8612c0.0292-0.0266 0.0635-0.0493 0.1015-0.0663 0.0386-0.0161 0.0805-0.0249 0.1253-0.0255 0.0422 0.0006 0.0819 0.0094 0.1185 0.0255 0.0368 0.017 0.0703 0.0397 0.1003 0.0663 0.0295 0.0329 0.0522 0.0706 0.0689 0.1129 0.0156 0.0431 0.023 0.0887 0.023 0.1386 0 0.0521-0.007 0.0992-0.023 0.1423-0.0167 0.0422-0.0394 0.0802-0.0689 0.1145-0.03 0.0289-0.0635 0.051-0.1003 0.0663-0.0366 0.0151-0.0763 0.0233-0.1185 0.0233-0.0448 0-0.0867-0.0082-0.1253-0.0233-0.038-0.0153-0.0723-0.0374-0.1015-0.0663-0.0277-0.0343-0.0493-0.0723-0.0637-0.1145-0.0148-0.0431-0.0224-0.0902-0.0224-0.1423 0-0.0499 0.008-0.0955 0.0224-0.1386 0.0144-0.0423 0.036-0.08 0.0637-0.1129zm1.5801-0.3554c-0.0468 0.0003-0.0913 0.0071-0.1341 0.0198-0.0428 0.0134-0.0811 0.0312-0.1177 0.0553-0.0113-0.0241-0.0269-0.0419-0.0473-0.0553-0.0207-0.0127-0.0436-0.0195-0.0686-0.0198-0.0244 0.0003-0.0459 0.0059-0.0643 0.0176-0.0185 0.011-0.034 0.0263-0.0451 0.0459-0.0105 0.0198-0.0162 0.0408-0.017 0.0646v0.953c0.0008 0.0238 0.007 0.0454 0.017 0.0649 0.0111 0.0193 0.0266 0.0343 0.0451 0.046 0.0184 0.0113 0.0399 0.0172 0.0643 0.0175 0.0201-0.0003 0.0394-0.0051 0.057-0.0141 0.0178-0.0091 0.0323-0.021 0.0442-0.0369 0.0116-0.0162 0.0199-0.0337 0.0244-0.053 0.002-0.0048 0.003-0.0094 0.004-0.0133 0.0005-0.004 0.0005-0.0074 0.0005-0.0111v-0.578c0.0003-0.0453 0.0108-0.0873 0.0323-0.1238 0.021-0.0369 0.0494-0.0661 0.0845-0.0873 0.0357-0.0213 0.0757-0.0326 0.1208-0.0329 0.0453 0.0003 0.0867 0.0116 0.1241 0.0329 0.0372 0.0212 0.0669 0.0504 0.0893 0.0873 0.021 0.0365 0.0326 0.0785 0.0326 0.1238v0.578c0.001 0.0238 0.007 0.0454 0.0187 0.0649 0.0114 0.0193 0.0264 0.0343 0.0459 0.046 0.0188 0.0113 0.0392 0.0172 0.0621 0.0175 0.0233-0.0003 0.044-0.0062 0.0629-0.0175 0.0179-0.0117 0.0326-0.0267 0.0437-0.046 0.0105-0.0195 0.0156-0.0411 0.0162-0.0649v-0.578c-0.0006-0.0691-0.0131-0.1335-0.0386-0.1941-0.0249-0.0607-0.0607-0.1137-0.106-0.1602-0.0448-0.0462-0.0978-0.0822-0.157-0.1088-0.0601-0.0261-0.1248-0.0397-0.1939-0.04zm3.5574-0.3509c-0.0002-0.0256-0.007-0.0482-0.0184-0.0678-0.0119-0.0204-0.0272-0.036-0.0468-0.0473-0.0198-0.0125-0.0413-0.0176-0.0652-0.0185h-1.0136c-0.025 0.0009-0.0471 0.006-0.0669 0.0185-0.0193 0.0113-0.0349 0.0269-0.0465 0.0473-0.0111 0.0196-0.017 0.0422-0.0173 0.0678 0.0003 0.0249 0.006 0.0464 0.0173 0.0677 0.0116 0.0198 0.0272 0.0363 0.0465 0.0488 0.0198 0.0116 0.0419 0.0184 0.0669 0.019h0.375v1.2917c0.0003 0.0258 0.006 0.0482 0.0179 0.068 0.0116 0.0202 0.0269 0.0357 0.047 0.0477 0.0199 0.0113 0.0411 0.0172 0.0658 0.0175 0.0246-0.0003 0.0462-0.0062 0.066-0.0175 0.0202-0.012 0.0355-0.0275 0.0471-0.0477 0.0113-0.0198 0.017-0.0422 0.0176-0.068v-1.2917h0.3772c0.0239-0.0006 0.0454-0.0074 0.0652-0.019 0.0196-0.0125 0.0349-0.029 0.0468-0.0488 0.0119-0.0213 0.0182-0.0428 0.0184-0.0677zm0.9916 1.057c-0.0003 0.0697-0.0136 0.1344-0.0397 0.1956-0.0258 0.0601-0.0621 0.1134-0.108 0.1596-0.0462 0.0465-0.0992 0.0822-0.1593 0.1083-0.0607 0.026-0.1247 0.0396-0.1936 0.0399-0.0677-0.0003-0.1321-0.0139-0.1919-0.0399-0.059-0.0261-0.1114-0.0618-0.1562-0.1083-0.0453-0.0462-0.0805-0.0995-0.1066-0.1596-0.0252-0.0612-0.0388-0.1259-0.0391-0.1956v-0.578c0.0003-0.0229 0.006-0.0439 0.0173-0.0632 0.0113-0.0196 0.0258-0.0354 0.0454-0.0471 0.0192-0.0119 0.0399-0.0175 0.0637-0.0178 0.0236 0.0003 0.0451 0.0059 0.0638 0.0178 0.0187 0.0117 0.0337 0.0275 0.0448 0.0471 0.0111 0.0193 0.0162 0.0403 0.0167 0.0632v0.578c0.0003 0.0462 0.0119 0.0884 0.0326 0.125 0.0221 0.0377 0.0499 0.0666 0.0859 0.0884 0.0371 0.0216 0.0777 0.0332 0.1236 0.0338 0.0462-0.0006 0.0884-0.0122 0.125-0.0338 0.0377-0.0218 0.0669-0.0507 0.089-0.0884 0.0221-0.0366 0.0343-0.0788 0.0349-0.125v-0.578c0.0005-0.0229 0.006-0.0439 0.0167-0.0632 0.0102-0.0196 0.025-0.0354 0.0431-0.0471 0.0196-0.0119 0.0402-0.0175 0.0643-0.0178 0.0216 0.0003 0.0428 0.0059 0.0624 0.0178 0.0198 0.0117 0.0354 0.0275 0.0465 0.0471 0.0122 0.0193 0.0184 0.0403 0.0187 0.0632zm0.8728 0.5034c0.085 0 0.1621-0.013 0.233-0.0391 0.0703-0.0261 0.1349-0.066 0.1927-0.1207 0.0173-0.0168 0.0281-0.0358 0.0309-0.0559 0.003-0.0195 0.0009-0.0388-0.005-0.057-0.007-0.0173-0.015-0.0328-0.0258-0.0442-0.008-0.0096-0.0198-0.0173-0.0337-0.0229-0.0142-0.0051-0.0306-0.0077-0.0482-0.008-0.0175 0-0.0346 0.0031-0.0516 0.0091-0.0167 0.0059-0.032 0.0156-0.0442 0.0289-0.0207 0.0159-0.0445 0.0278-0.0717 0.0374-0.0281 0.0102-0.0567 0.0173-0.0873 0.0207-0.0295 0.004-0.0598 0.0045-0.089 0.0026-0.0278-0.0026-0.0559-0.0091-0.0845-0.0187-0.0286-0.0097-0.0547-0.0222-0.0794-0.038-0.0252-0.0153-0.0462-0.0329-0.0632-0.0522-0.0218-0.0215-0.0385-0.0459-0.0518-0.0748-0.0134-0.0281-0.0233-0.0564-0.0295-0.0851h0.7554c0.0337-0.0002 0.0618-0.0093 0.0836-0.0263 0.0219-0.0176 0.0357-0.0408 0.04-0.07 0.001-0.0032 0.002-0.0066 0.002-0.0108 0.0003-0.0054 0.0003-0.0091 0.0003-0.0116v-0.0063-0.0056c-0.005-0.082-0.0233-0.1574-0.0542-0.2251-0.0303-0.0689-0.0714-0.1279-0.1227-0.1783-0.0519-0.0499-0.1114-0.0879-0.1786-0.1157-0.0666-0.0277-0.1392-0.0416-0.2171-0.0419-0.0811 0.0003-0.1565 0.0161-0.2268 0.0482-0.0692 0.0317-0.1309 0.0751-0.1831 0.1304-0.0519 0.0564-0.0933 0.1199-0.1222 0.193-0.0295 0.0723-0.0456 0.1502-0.0462 0.2333 0.0006 0.0819 0.0167 0.1602 0.0462 0.2324 0.0289 0.0729 0.0703 0.137 0.1222 0.1925 0.0522 0.055 0.1139 0.0984 0.1831 0.1304 0.0703 0.0318 0.1457 0.0482 0.2268 0.0493zm0-0.9796c0.0524 0.0039 0.0989 0.0156 0.1397 0.0334 0.0403 0.0176 0.0757 0.0394 0.1052 0.0652 0.0295 0.025 0.0533 0.0516 0.0711 0.0791 0.0179 0.0275 0.0298 0.0539 0.036 0.0785h-0.6718c0.005-0.0255 0.0145-0.0521 0.0298-0.0805 0.0153-0.028 0.036-0.0553 0.0615-0.0813 0.0269-0.0258 0.0584-0.0471 0.0964-0.0641 0.0383-0.0176 0.0825-0.0275 0.1321-0.0303zm4.5212-0.6823c-0.0232-0.0097-0.0459-0.0128-0.0691-0.0097-0.023 0.0029-0.0434 0.0111-0.0621 0.0253-0.0184 0.0133-0.0318 0.0314-0.0417 0.0544l-0.4626 1.1202-0.3067-0.7429c-0.0119-0.0264-0.0292-0.0474-0.0513-0.061-0.0224-0.0141-0.0465-0.0215-0.072-0.0215-0.0267 0-0.051 0.0074-0.0734 0.0215-0.0224 0.0136-0.0389 0.0346-0.0502 0.061l-0.3056 0.7429-0.4657-1.1202c-0.009-0.023-0.0224-0.0411-0.0411-0.0544-0.0176-0.0142-0.0377-0.0224-0.0604-0.0253-0.0227-0.0031-0.0451 0-0.0666 0.0097-0.0235 0.0093-0.0411 0.0232-0.0547 0.0416-0.0139 0.0185-0.0221 0.0392-0.0249 0.0621-0.004 0.0233-0.0006 0.0457 0.009 0.0678l0.5834 1.4108c0.003 0.0037 0.005 0.0076 0.006 0.0116 0.002 0.0037 0.003 0.0074 0.006 0.0102v0.0009 0.0014c0.002 0.0022 0.004 0.0048 0.006 0.0071 0.001 0.0022 0.003 0.0045 0.006 0.0076 0.0006 0.0023 0.002 0.0034 0.002 0.0034 0.0003 0.0011 0.001 0.0026 0.003 0.0037 0.004 0.0011 0.007 0.0025 0.008 0.0051 0.002 0.002 0.005 0.0042 0.008 0.0068h0.0008 0.002c0.002 0.0023 0.006 0.0051 0.009 0.0079 0.005 0.0032 0.009 0.0051 0.0122 0.0066 0.001 0 0.002 0 0.003 0.0005 0 0 0.0006 0.0006 0.002 0.0017 0.002 0 0.004 0.0006 0.008 0.002 0.002 0.0006 0.005 0.002 0.008 0.0031h0.007 0.0127 0.0116c0.007 0.002 0.0136 0.002 0.021 0h0.007c0.002-0.0011 0.005-0.0025 0.008-0.0031 0.003-0.0014 0.006-0.002 0.0105-0.002 0-0.0011 0.0003-0.0017 0.001-0.0017 0.0006-0.0005 0.0009-0.0005 0.0009-0.0005h0.0005 0.002c0.003-0.0015 0.005-0.0034 0.009-0.0066 0.003-0.0028 0.007-0.0056 0.0102-0.0079h0.0008 0.004c0.002-0.0026 0.005-0.0048 0.007-0.0068 0.002-0.0026 0.005-0.004 0.008-0.0051 0-0.0011 0.0003-0.0026 0.0006-0.0031 0.001-0.0006 0.001-0.0017 0.001-0.004 0.005-0.0054 0.009-0.0099 0.0139-0.0147 0 0 0-0.0003 0.0003-0.0014 0 0 0.001-0.0009 0.002-0.0009 0.002-0.0028 0.003-0.0065 0.005-0.0102 0.002-0.004 0.003-0.0079 0.005-0.0116l0.3104-0.7504 0.3112 0.7504c0.0009 0.0037 0.002 0.0076 0.004 0.0116 0.001 0.0037 0.003 0.0074 0.006 0.0102 0 0 0 0.0003 0.001 0.0009 0.0006 0.0011 0.002 0.0014 0.004 0.0014 0.0003 0.0022 0.002 0.0048 0.004 0.0071 0.002 0.0022 0.004 0.0045 0.005 0.0076 0.0009 0.0023 0.002 0.0034 0.002 0.004 0 0 0.001 0.002 0.002 0.0031 0.002 0.0011 0.005 0.0025 0.007 0.0051 0.002 0.002 0.006 0.0042 0.01 0.0068h0.0003 0.002c0.003 0.0023 0.006 0.0051 0.009 0.0079 0.003 0.0032 0.007 0.0051 0.0125 0.0066 0 0 0.002 0 0.002 0.0005 0 0 0.001 0.0006 0.002 0.0017 0.003 0 0.005 0.0006 0.008 0.002 0.002 0.0006 0.005 0.002 0.009 0.0031h0.007 0.0218c0.005 0.0012 0.009 0.0017 0.0125 0.0017 0.004 0 0.007-0.0005 0.0113-0.0017h0.001 0.003c0.004-0.0011 0.008-0.0025 0.0105-0.0031 0.004-0.0014 0.006-0.002 0.009-0.002 0-0.0011 0.0003-0.0017 0.0009-0.0017 0.0008-0.0005 0.001-0.0005 0.001-0.0005h0.002 0.0009c0.005-0.0015 0.008-0.0034 0.0116-0.0066 0.003-0.0028 0.006-0.0056 0.01-0.0079h0.0009 0.001c0.002-0.0026 0.005-0.0048 0.008-0.0068 0.003-0.0026 0.005-0.004 0.009-0.0051 0-0.0011 0.0003-0.0026 0.0006-0.0031 0.001-0.0006 0.001-0.0017 0.001-0.004 0.003-0.0031 0.005-0.0054 0.007-0.0076 0.002-0.0023 0.004-0.0049 0.005-0.0071 0 0 0.0003-0.0003 0.001-0.0014 0.0009-0.0006 0.001-0.0009 0.001-0.0009 0.002-0.0028 0.005-0.0065 0.007-0.0102 0.002-0.004 0.004-0.0079 0.005-0.0116l0.5814-1.4108c0.01-0.0221 0.013-0.0445 0.01-0.0678-0.003-0.0229-0.0102-0.0436-0.0238-0.0621-0.0133-0.0184-0.0306-0.0323-0.0522-0.0416zm0.7027 1.6619c0.0842 0 0.1613-0.013 0.2325-0.0391 0.07-0.0261 0.1346-0.066 0.1927-0.1207 0.0176-0.0168 0.0281-0.0358 0.0312-0.0559 0.002-0.0195 0.0009-0.0388-0.006-0.057-0.006-0.0173-0.0145-0.0328-0.0253-0.0442-0.008-0.0096-0.0198-0.0173-0.0337-0.0229-0.0147-0.0051-0.0309-0.0077-0.0482-0.008-0.0176 0-0.0351 0.0031-0.0516 0.0091-0.0167 0.0059-0.032 0.0156-0.0442 0.0289-0.021 0.0159-0.0442 0.0278-0.072 0.0374-0.0275 0.0102-0.0564 0.0173-0.087 0.0207-0.0301 0.004-0.0593 0.0045-0.0885 0.0026-0.028-0.0026-0.0561-0.0091-0.0847-0.0187-0.0284-0.0097-0.055-0.0222-0.0797-0.038-0.0252-0.0153-0.0459-0.0329-0.0629-0.0522-0.0221-0.0215-0.0391-0.0459-0.0519-0.0748-0.0139-0.0281-0.0235-0.0564-0.0297-0.0851h0.7554c0.0332-0.0002 0.0618-0.0093 0.0839-0.0263 0.0218-0.0176 0.0354-0.0408 0.0397-0.07 0.001-0.0032 0.002-0.0066 0.002-0.0108 0.0003-0.0054 0.0003-0.0091 0.0003-0.0116v-0.0063-0.0056c-0.005-0.082-0.0233-0.1574-0.0536-0.2251-0.0309-0.0689-0.072-0.1279-0.1233-0.1783-0.0519-0.0499-0.1111-0.0879-0.1783-0.1157-0.0669-0.0277-0.1395-0.0416-0.2169-0.0419-0.0816 0.0003-0.157 0.0161-0.227 0.0482-0.0695 0.0317-0.131 0.0751-0.1831 0.1304-0.0522 0.0564-0.0936 0.1199-0.1225 0.193-0.03 0.0723-0.0456 0.1502-0.0462 0.2333 0.0006 0.0819 0.0162 0.1602 0.0462 0.2324 0.0289 0.0729 0.0703 0.137 0.1225 0.1925 0.0521 0.055 0.1136 0.0984 0.1831 0.1304 0.07 0.0318 0.1454 0.0482 0.227 0.0493zm0-0.9796c0.0522 0.0039 0.0981 0.0156 0.1392 0.0334 0.04 0.0176 0.0757 0.0394 0.1052 0.0652 0.03 0.025 0.0533 0.0516 0.0711 0.0791 0.0179 0.0275 0.0298 0.0539 0.036 0.0785h-0.6718c0.005-0.0255 0.0145-0.0521 0.0298-0.0805 0.0153-0.028 0.036-0.0553 0.0618-0.0813 0.0266-0.0258 0.0581-0.0471 0.0961-0.0641 0.038-0.0176 0.0825-0.0275 0.1326-0.0303z"/><path d="m120.8 36.704v-0.0017-0.9587c-0.0003-0.0238-0.006-0.0456-0.0176-0.0649-0.0113-0.0196-0.0258-0.0352-0.0459-0.0471-0.0187-0.0124-0.0405-0.0181-0.064-0.019-0.0253 0.0009-0.0474 0.0066-0.0669 0.019-0.0193 0.0119-0.0352 0.0275-0.0463 0.0471-0.0113 0.0193-0.017 0.0411-0.0178 0.0649v0.455c-0.0445-0.0318-0.093-0.0564-0.1474-0.0749-0.055-0.0175-0.1117-0.0263-0.1698-0.0266-0.0811 0.0003-0.1559 0.0161-0.2259 0.0482-0.0692 0.0317-0.1307 0.0751-0.1834 0.1307-0.0525 0.0564-0.093 0.1204-0.1225 0.1936-0.0295 0.0731-0.0448 0.151-0.0451 0.2344 0.0003 0.0819 0.0156 0.1601 0.0451 0.2319 0.0295 0.0722 0.07 0.1366 0.1225 0.1919 0.0527 0.0552 0.1142 0.0992 0.1834 0.1304 0.07 0.0317 0.1448 0.0479 0.2259 0.0484 0.0592-0.0003 0.1168-0.0102 0.1718-0.0286 0.0544-0.0187 0.1049-0.0434 0.1502-0.0754 0.004 0.0193 0.0122 0.0368 0.0241 0.053 0.0113 0.0159 0.0255 0.0278 0.0439 0.0369 0.017 0.009 0.0363 0.0138 0.0582 0.0141 0.0235-0.0003 0.0453-0.0065 0.064-0.0184 0.0201-0.0119 0.0346-0.0278 0.0459-0.0471 0.0117-0.0195 0.0173-0.0411 0.0176-0.0651zm-0.3535-0.2441c0.0306 0.0301 0.0536 0.0669 0.0695 0.1083 0.0164 0.042 0.0255 0.087 0.0255 0.1358 0 0.0465-0.009 0.0907-0.0255 0.1318-0.0159 0.0411-0.0389 0.0774-0.0695 0.108-0.0292 0.032-0.0629 0.0561-0.1003 0.0734-0.038 0.0167-0.0788 0.0252-0.1219 0.0252s-0.0842-0.0085-0.1216-0.0252c-0.0383-0.0173-0.0717-0.0414-0.1018-0.0734-0.0303-0.0306-0.053-0.0669-0.0697-0.108s-0.0247-0.0853-0.0252-0.1318c0.0005-0.0488 0.009-0.0938 0.0252-0.1358 0.0167-0.0414 0.0394-0.0782 0.0697-0.1083 0.0301-0.032 0.0635-0.0564 0.1018-0.0737 0.0374-0.0167 0.0785-0.0255 0.1216-0.0255s0.0839 0.0088 0.1219 0.0255c0.0374 0.0173 0.0711 0.0417 0.1003 0.0737zm3.441-0.7137c0-0.0256-0.007-0.0482-0.0179-0.0678-0.0113-0.0204-0.0269-0.036-0.047-0.0473-0.019-0.0125-0.0414-0.0176-0.0652-0.0185h-1.0134c-0.0252 0.0009-0.0465 0.006-0.0666 0.0185-0.0196 0.0113-0.0349 0.0269-0.0465 0.0473-0.0119 0.0196-0.0173 0.0422-0.0176 0.0678 0.0003 0.0249 0.006 0.0464 0.0176 0.0677 0.0116 0.0198 0.0269 0.0363 0.0465 0.0488 0.0201 0.0116 0.0414 0.0184 0.0666 0.019h0.375v1.2917c0.0003 0.0258 0.007 0.0482 0.0179 0.068 0.0116 0.0202 0.0272 0.0357 0.0476 0.0477 0.019 0.0113 0.0411 0.0172 0.0652 0.0175 0.025-0.0003 0.0465-0.0062 0.0663-0.0175 0.0196-0.012 0.0349-0.0275 0.0465-0.0477 0.0116-0.0198 0.017-0.0422 0.0173-0.068v-1.2917h0.3776c0.0238-0.0006 0.0462-0.0074 0.0652-0.019 0.0201-0.0125 0.0357-0.029 0.047-0.0488 0.0114-0.0213 0.0179-0.0428 0.0179-0.0677zm0.4748 0.8804c0.002-0.0476 0.013-0.0916 0.0354-0.1307 0.023-0.0388 0.0536-0.0697 0.0913-0.0935 0.038-0.0236 0.0805-0.0355 0.1273-0.0372 0.0476 0.0017 0.0918 0.0136 0.1301 0.0372 0.038 0.0238 0.0694 0.0547 0.0918 0.0935 0.0222 0.0391 0.0338 0.0831 0.0346 0.1307v0.5468c0.0003 0.0258 0.006 0.0482 0.0176 0.068 0.0116 0.0202 0.0261 0.0357 0.0465 0.0477 0.0187 0.0113 0.0411 0.0172 0.0663 0.0175 0.0247-0.0003 0.0471-0.0062 0.0663-0.0175 0.0196-0.012 0.0349-0.0275 0.0468-0.0477 0.0111-0.0198 0.0173-0.0422 0.0173-0.068v-0.5468c0-0.0726-0.0136-0.1412-0.0408-0.2052-0.0258-0.0635-0.0627-0.1199-0.11-0.1684-0.0468-0.0488-0.1015-0.0862-0.1644-0.114-0.0621-0.0275-0.1295-0.0416-0.2021-0.0419-0.0465 0.0003-0.0902 0.0071-0.133 0.0195-0.0425 0.0125-0.083 0.0295-0.121 0.0505v-0.4209c-0.0003-0.0256-0.006-0.0482-0.0184-0.0678-0.0114-0.0204-0.0278-0.036-0.0471-0.0473-0.0201-0.0125-0.0425-0.0176-0.0669-0.0185-0.0249 0.0009-0.0462 0.006-0.0663 0.0185-0.019 0.0113-0.0346 0.0269-0.0465 0.0473-0.0119 0.0196-0.0173 0.0422-0.0179 0.0678v1.4272c0 0.006 0.0006 0.0119 0.002 0.0173 0.0009 0.0065 0.002 0.0119 0.003 0.0167 0.008 0.0286 0.0249 0.0519 0.0465 0.0706 0.0229 0.0184 0.049 0.0281 0.0796 0.0286 0.0244-0.0003 0.0468-0.0062 0.0669-0.0175 0.0193-0.012 0.0357-0.0275 0.0471-0.0477 0.0125-0.0198 0.0181-0.0422 0.0184-0.068zm2.0551 0.1766v-0.578c-0.0003-0.0229-0.006-0.0439-0.0184-0.0632-0.0116-0.0196-0.0275-0.0354-0.0465-0.0471-0.0193-0.0119-0.0408-0.0175-0.0632-0.0178-0.0233 0.0003-0.0445 0.0059-0.0635 0.0178-0.0184 0.0117-0.0332 0.0275-0.0434 0.0471-0.011 0.0193-0.0164 0.0403-0.0167 0.0632v0.578c-0.001 0.0462-0.0133 0.0884-0.0343 0.125-0.0224 0.0377-0.0519 0.0666-0.089 0.0884-0.0377 0.0216-0.0791 0.0332-0.1253 0.0338-0.0462-0.0006-0.0873-0.0122-0.1233-0.0338-0.0366-0.0218-0.0649-0.0507-0.0862-0.0884-0.0215-0.0366-0.032-0.0788-0.0329-0.125v-0.578c-0.0005-0.0229-0.006-0.0439-0.0161-0.0632-0.0119-0.0196-0.0264-0.0354-0.0451-0.0471-0.0193-0.0119-0.04-0.0175-0.0646-0.0178-0.023 0.0003-0.0445 0.0059-0.0632 0.0178-0.0193 0.0117-0.0343 0.0275-0.0448 0.0471-0.0122 0.0193-0.0173 0.0403-0.0173 0.0632v0.578c0 0.0697 0.0136 0.1344 0.0385 0.1956 0.0258 0.0601 0.0613 0.1134 0.1072 0.1596 0.0445 0.0465 0.0969 0.0822 0.1559 0.1083 0.0601 0.026 0.1236 0.0396 0.1919 0.0399 0.0689-0.0003 0.1329-0.0139 0.1936-0.0399 0.0595-0.0261 0.1128-0.0618 0.159-0.1083 0.0462-0.0462 0.0825-0.0995 0.108-0.1596 0.0258-0.0612 0.0394-0.1259 0.0397-0.1956zm2.0645 0.5034c0.0252-0.0003 0.0476-0.0065 0.0677-0.019 0.0196-0.0113 0.0355-0.0275 0.0471-0.0476 0.0119-0.0193 0.0176-0.0419 0.0187-0.0666v-0.5808h0.5525c0.0246 0 0.0459-0.0063 0.0657-0.0182 0.0193-0.0121 0.0349-0.028 0.0471-0.0484 0.0116-0.0204 0.017-0.0431 0.0173-0.0683-0.0003-0.0241-0.006-0.0457-0.0173-0.0661-0.0122-0.0198-0.0278-0.0363-0.0471-0.0482-0.0198-0.0127-0.0411-0.0187-0.0657-0.0193h-0.5525v-0.4424h0.6429c0.0235-0.0006 0.0445-0.0071 0.0646-0.0188 0.0193-0.0119 0.0352-0.0283 0.0468-0.0479 0.0119-0.0209 0.0187-0.0433 0.019-0.0688-0.0003-0.025-0.007-0.0471-0.019-0.0667-0.0116-0.0195-0.0275-0.036-0.0468-0.0479-0.0201-0.0124-0.0411-0.0181-0.0646-0.019h-0.7693-0.003-0.0009-0.001-0.001c-0.0244 0.0009-0.0468 0.0066-0.0661 0.019-0.0201 0.0119-0.0351 0.0284-0.0467 0.0479-0.0117 0.0196-0.0173 0.0417-0.0176 0.0667v1.4272c0.0003 0.0247 0.006 0.0473 0.0176 0.0666 0.0116 0.0201 0.0266 0.0363 0.0467 0.0476 0.0193 0.0125 0.0417 0.0187 0.0661 0.019zm1.7779-1.2072c-0.0397-0.0003-0.0774 0.0031-0.1126 0.0119-0.0354 0.0076-0.0694 0.019-0.1003 0.034-0.0309 0.0141-0.0598 0.0303-0.0862 0.0482-0.008 0.0062-0.017 0.0144-0.0252 0.0224-0.009 0.009-0.0173 0.0172-0.0244 0.0263v-0.017c-0.0003-0.0238-0.006-0.0445-0.0184-0.0635-0.0111-0.0193-0.0275-0.0343-0.0465-0.0456-0.0196-0.0105-0.0414-0.0165-0.0652-0.0167-0.0238 0.0002-0.0445 0.0062-0.0632 0.0167-0.0196 0.0113-0.0346 0.0263-0.0462 0.0456-0.0108 0.019-0.0165 0.0397-0.0173 0.0635v0.953c0.0008 0.0238 0.007 0.0454 0.0173 0.0649 0.0116 0.0193 0.0266 0.0343 0.0462 0.046 0.0187 0.0113 0.0394 0.0172 0.0632 0.0175 0.0238-0.0003 0.0456-0.0062 0.0652-0.0175 0.019-0.0117 0.0354-0.0267 0.0465-0.046 0.0119-0.0195 0.0181-0.0411 0.0184-0.0649v-0.4598c0.004-0.0116 0.01-0.0283 0.0176-0.0501 0.008-0.0219 0.0187-0.0468 0.0312-0.0735 0.0136-0.0266 0.0292-0.0532 0.0484-0.0793 0.0142-0.0233 0.0304-0.0445 0.0485-0.0647 0.0176-0.0195 0.038-0.0371 0.0612-0.0515 0.0196-0.0156 0.0417-0.0273 0.0647-0.0346 0.0238-0.0074 0.0504-0.0114 0.0771-0.0114 0.0241-0.0002 0.0459-0.0065 0.0643-0.0184 0.019-0.011 0.0335-0.0275 0.0451-0.0462 0.0105-0.0196 0.0164-0.0405 0.0164-0.0635 0-0.0238-0.006-0.0445-0.0164-0.0635-0.0116-0.0193-0.0261-0.0343-0.0451-0.0456-0.0184-0.0105-0.0402-0.0165-0.0643-0.0167zm0.4609 0c-0.0247 0-0.0454 0.0062-0.0652 0.0172-0.019 0.0111-0.0349 0.0267-0.0462 0.0471-0.0111 0.0193-0.017 0.0428-0.0173 0.0686v0.9437c0.0003 0.0246 0.006 0.0464 0.0173 0.066 0.0113 0.0198 0.0272 0.0351 0.0462 0.0471 0.0198 0.0113 0.0405 0.0172 0.0652 0.0175 0.0244-0.0003 0.0462-0.0062 0.0655-0.0175 0.0192-0.012 0.034-0.0273 0.0453-0.0471 0.0108-0.0196 0.0165-0.0414 0.017-0.066v-0.9437c-0.0005-0.0258-0.006-0.0493-0.017-0.0686-0.0113-0.0204-0.0261-0.036-0.0453-0.0471-0.0193-0.011-0.0411-0.0172-0.0655-0.0172zm0.1278-0.3558c-0.0005-0.0247-0.006-0.0462-0.017-0.066-0.0113-0.0196-0.0261-0.0352-0.0453-0.0465-0.0193-0.0125-0.0411-0.0176-0.0655-0.0185-0.0247 0.0009-0.0454 0.006-0.0652 0.0185-0.019 0.0113-0.0349 0.0269-0.0462 0.0465-0.0111 0.0198-0.017 0.0413-0.0173 0.066v0.051c0.0003 0.0247 0.006 0.0468 0.0173 0.0664 0.0113 0.0201 0.0272 0.0365 0.0462 0.0479 0.0198 0.0124 0.0405 0.0184 0.0652 0.019 0.0244-0.0006 0.0462-0.0066 0.0655-0.019 0.0192-0.0114 0.034-0.0278 0.0453-0.0479 0.0108-0.0196 0.0165-0.0417 0.017-0.0664zm1.825 1.3209c0.0337 0.0278 0.0717 0.0556 0.1159 0.0837 0.0431 0.0278 0.091 0.0535 0.1426 0.0771 0.0516 0.0241 0.1066 0.0433 0.1647 0.0581 0.0587 0.0142 0.1199 0.0221 0.1842 0.0232 0.0845-0.0003 0.1647-0.013 0.239-0.0363 0.0743-0.0241 0.1417-0.0578 0.1998-0.1014 0.04-0.0295 0.0754-0.0635 0.1063-0.1021 0.0301-0.0385 0.0539-0.0802 0.0723-0.1264 0.017-0.0465 0.0255-0.0955 0.0258-0.1471 0-0.0377-0.005-0.0749-0.015-0.1097-0.01-0.0352-0.0241-0.0672-0.042-0.0964-0.028-0.0445-0.062-0.0833-0.1023-0.1159-0.0411-0.0329-0.0859-0.0616-0.1352-0.0854-0.0476-0.0226-0.0989-0.0425-0.1539-0.0589-0.0547-0.0167-0.1134-0.0309-0.1735-0.0431h-0.005c-0.0644-0.0122-0.1219-0.0275-0.1729-0.0462-0.0516-0.0182-0.0927-0.0386-0.1236-0.0601-0.0153-0.0108-0.0284-0.0213-0.0397-0.0323-0.0102-0.0108-0.0187-0.0213-0.0241-0.0315-0.006-0.0085-0.0108-0.019-0.0128-0.0298-0.003-0.0102-0.004-0.0226-0.004-0.0374-0.0003-0.0255 0.007-0.0516 0.021-0.0774 0.0141-0.026 0.0374-0.0504 0.0697-0.0754 0.0323-0.0252 0.0706-0.0445 0.1168-0.0592 0.0453-0.015 0.0947-0.0227 0.1488-0.023 0.0479 0.0003 0.0938 0.0077 0.1361 0.0216 0.0436 0.0139 0.0847 0.0329 0.1247 0.0561 0.0405 0.0235 0.0808 0.0499 0.121 0.0774 0.0196 0.0125 0.0397 0.0198 0.0607 0.0207 0.0215 0.0006 0.0422-0.0037 0.0618-0.0133 0.0184-0.0097 0.034-0.0238 0.0462-0.044 0.0122-0.019 0.019-0.0391 0.0207-0.0606 0.0003-0.0219-0.004-0.0426-0.0133-0.0621-0.008-0.0193-0.0227-0.0357-0.0409-0.0491-0.03-0.0204-0.0637-0.0416-0.0992-0.064-0.0371-0.0221-0.0765-0.0434-0.1193-0.0624-0.0428-0.0201-0.089-0.0357-0.1389-0.0485-0.0496-0.0119-0.1029-0.0181-0.1596-0.0187-0.0777 0-0.1514 0.0114-0.2211 0.0329-0.0703 0.0221-0.1338 0.0536-0.1896 0.0953-0.0369 0.0272-0.0692 0.0598-0.0973 0.0958-0.0292 0.0365-0.0516 0.0762-0.068 0.1199-0.0164 0.0436-0.0241 0.0893-0.0244 0.138 0 0.036 0.004 0.0715 0.0136 0.1046 0.009 0.0338 0.023 0.0652 0.0406 0.0939 0.0266 0.043 0.0589 0.079 0.0966 0.1102 0.0372 0.0309 0.0783 0.0573 0.1242 0.0794 0.0453 0.0213 0.0941 0.0402 0.1451 0.0547 0.0519 0.0156 0.1052 0.0286 0.161 0.0394h0.005c0.0703 0.0139 0.1335 0.03 0.1891 0.0502 0.0553 0.0193 0.1012 0.0408 0.1358 0.0638 0.0178 0.0121 0.032 0.024 0.0436 0.0365 0.0114 0.0122 0.0199 0.0241 0.0275 0.0363 0.007 0.0119 0.0128 0.0241 0.0162 0.036 0.004 0.0122 0.005 0.0255 0.005 0.0417 0.0008 0.0303-0.008 0.0604-0.0241 0.0898-0.0162 0.0298-0.0425 0.0581-0.078 0.0848-0.0357 0.0269-0.0796 0.0487-0.1309 0.0643-0.0505 0.0165-0.106 0.0244-0.1656 0.0253-0.0422 0.0002-0.0847-0.0051-0.1275-0.0159-0.042-0.0108-0.0834-0.0255-0.1233-0.0437-0.0397-0.0184-0.0771-0.0388-0.1114-0.0606-0.0346-0.0224-0.0641-0.0445-0.0913-0.0664-0.0176-0.0147-0.0371-0.0235-0.0584-0.0266-0.0207-0.0037-0.0422-0.002-0.0624 0.0051-0.0201 0.0079-0.0377 0.0204-0.0524 0.038-0.0133 0.0184-0.0221 0.0385-0.0241 0.0606-0.003 0.0216-0.001 0.0423 0.006 0.0635 0.008 0.0205 0.0201 0.0383 0.0377 0.053zm2.4871-0.8373c-0.0003-0.0244-0.007-0.0459-0.0176-0.0655-0.011-0.0204-0.0255-0.0351-0.0448-0.047-0.019-0.0117-0.0402-0.0173-0.0635-0.0176-0.0309 0.0006-0.0575 0.0108-0.0793 0.0303-0.0227 0.0199-0.0366 0.0454-0.0437 0.0757-0.0451-0.0326-0.0941-0.0587-0.1471-0.0777-0.0536-0.0184-0.1094-0.028-0.1687-0.0283-0.0813 0.0003-0.1556 0.0164-0.2239 0.0485-0.0686 0.0326-0.1284 0.0762-0.1797 0.1323-0.0516 0.0553-0.091 0.1191-0.1191 0.1917-0.0278 0.0725-0.0419 0.1505-0.0422 0.2344 0.0003 0.0825 0.0144 0.161 0.0422 0.2333 0.0281 0.0723 0.0675 0.1366 0.1191 0.193 0.0513 0.0539 0.1111 0.0975 0.1797 0.1284 0.0683 0.0312 0.1426 0.0476 0.2239 0.0479 0.0593-0.0003 0.1151-0.0093 0.1687-0.0275 0.053-0.0184 0.102-0.0436 0.1471-0.0765 0.004 0.0193 0.0125 0.0368 0.0241 0.053 0.0122 0.0159 0.0255 0.0278 0.0431 0.0369 0.0164 0.009 0.0357 0.0138 0.0558 0.0141 0.0233-0.0003 0.0445-0.0062 0.0635-0.0175 0.0193-0.0117 0.0338-0.0267 0.0448-0.046 0.0111-0.0195 0.0173-0.0411 0.0176-0.0649v-0.474zm-0.3441 0.7262c-0.0292 0.0301-0.0621 0.0533-0.1007 0.0698-0.0385 0.0158-0.0785 0.0246-0.1199 0.0246-0.0428 0-0.0842-0.0088-0.1219-0.0246-0.0385-0.0165-0.0714-0.0397-0.0992-0.0698-0.0289-0.032-0.0507-0.0686-0.066-0.1111-0.0159-0.0422-0.0241-0.0879-0.0241-0.1383 0-0.0508 0.008-0.0975 0.0241-0.1398 0.0153-0.0422 0.0371-0.0785 0.066-0.1094 0.0278-0.0323 0.0607-0.0578 0.0992-0.0743 0.0377-0.0164 0.0791-0.0243 0.1219-0.0243 0.0414 0 0.0814 0.0079 0.1199 0.0243 0.0386 0.0165 0.0715 0.042 0.1007 0.0743 0.0286 0.0309 0.0518 0.0672 0.068 0.1094 0.0156 0.0423 0.0241 0.089 0.0244 0.1398-0.0003 0.0504-0.009 0.0961-0.0244 0.1383-0.0162 0.0425-0.0394 0.0791-0.068 0.1111zm1.1035-0.8563h-0.059v-0.3509c-0.0005-0.0256-0.006-0.0482-0.0181-0.0678-0.0116-0.0204-0.0264-0.036-0.0462-0.0473-0.0193-0.0125-0.0414-0.0176-0.0666-0.0185-0.0247 0.0009-0.0471 0.006-0.0669 0.0185-0.0199 0.0113-0.0363 0.0269-0.0479 0.0473-0.0114 0.0196-0.0173 0.0422-0.0176 0.0678v0.3509h-0.0689c-0.0249 0.0003-0.0476 0.0059-0.0672 0.0176-0.0195 0.0119-0.0351 0.0275-0.0459 0.0476-0.0119 0.0198-0.0173 0.0422-0.0176 0.0677 0.0003 0.0244 0.006 0.0468 0.0176 0.0664 0.0108 0.0204 0.0264 0.0365 0.0459 0.0481 0.0196 0.0122 0.0423 0.0185 0.0672 0.0188h0.0689v0.6746c0.0006 0.0499 0.0122 0.0947 0.036 0.1349 0.0232 0.0409 0.055 0.0729 0.0947 0.097 0.0394 0.0238 0.0836 0.0363 0.1326 0.0368 0.0247-0.0003 0.0465-0.0062 0.0661-0.0175 0.0198-0.012 0.0351-0.0275 0.047-0.0477 0.0111-0.0198 0.0165-0.0422 0.0173-0.068-0.0008-0.0252-0.006-0.0476-0.0173-0.0686-0.0119-0.0196-0.0272-0.0363-0.047-0.0485-0.0196-0.0119-0.0414-0.0181-0.0661-0.0184v-0.6746h0.059c0.0241-0.0003 0.0462-0.0066 0.066-0.0188 0.0202-0.0116 0.0363-0.0277 0.0482-0.0481 0.0125-0.0196 0.0179-0.042 0.0187-0.0664-0.0008-0.0255-0.006-0.0479-0.0187-0.0677-0.0119-0.0201-0.028-0.0357-0.0482-0.0476-0.0198-0.0117-0.0419-0.0173-0.066-0.0176z"/><path d="m103.57 36.966c0.1108 0 0.2004-0.0902 0.2004-0.2007 0-0.1106-0.0896-0.2007-0.2004-0.2007-0.1103 0-0.2007 0.0901-0.2007 0.2007 0 0.1105 0.0904 0.2007 0.2007 0.2007z"/><path d="m109.86 36.966c0.1108 0 0.2004-0.0902 0.2004-0.2007 0-0.1106-0.0896-0.2007-0.2004-0.2007-0.1103 0-0.2007 0.0901-0.2007 0.2007 0 0.1105 0.0904 0.2007 0.2007 0.2007z"/><path d="m115.29 36.966c0.1103 0 0.2007-0.0902 0.2007-0.2007 0-0.1106-0.0904-0.2007-0.2007-0.2007-0.1108 0-0.2007 0.0901-0.2007 0.2007 0 0.1105 0.0899 0.2007 0.2007 0.2007z"/><path d="m121.97 36.966c0.1108 0 0.2007-0.0902 0.2007-0.2007 0-0.1106-0.0899-0.2007-0.2007-0.2007-0.1103 0-0.2007 0.0901-0.2007 0.2007 0 0.1105 0.0904 0.2007 0.2007 0.2007z"/><path d="m127.36 36.966c0.1103 0 0.2007-0.0902 0.2007-0.2007 0-0.1106-0.0904-0.2007-0.2007-0.2007-0.1108 0-0.2007 0.0901-0.2007 0.2007 0 0.1105 0.0899 0.2007 0.2007 0.2007z"/><path d="m131.75 36.966c0.1103 0 0.2007-0.0902 0.2007-0.2007 0-0.1106-0.0904-0.2007-0.2007-0.2007-0.1108 0-0.2007 0.0901-0.2007 0.2007 0 0.1105 0.0899 0.2007 0.2007 0.2007z"/></g><g transform="matrix(.26458 0 0 .26458 74.773 133.05)"><path d="m117.39 72.863c-0.0664 0-0.1202-0.0535-0.1202-0.1201v-3.3546c0-0.0663 0.0538-0.1199 0.1202-0.1199 0.0663 0 0.1199 0.0536 0.1199 0.1199v3.3546c0 0.0666-0.0536 0.1201-0.1199 0.1201z"/><path d="m117.39 72.863c-0.0309 0-0.0618-0.0116-0.0851-0.0351l-0.9181-0.9176c-0.0468-0.0467-0.0468-0.123 0-0.1698 0.047-0.0467 0.1233-0.0467 0.1701 0l0.8331 0.8326 0.8328-0.8326c0.047-0.0467 0.123-0.0467 0.1701 0 0.0467 0.0468 0.0467 0.1231 0 0.1698l-0.9182 0.9176c-0.0232 0.0235-0.0541 0.0351-0.0847 0.0351z"/></g><path d="m105.83 145.83c-0.0176 0-0.0318-0.0119-0.0318-0.0258v-0.6955c0-0.0143 0.0142-0.0258 0.0318-0.0258 0.0175 0 0.0318 0.0119 0.0318 0.0258v0.6955c0 0.0143-0.0143 0.0258-0.0318 0.0258z" stroke-width=".23849"/><g stroke-width=".26458"><path d="m105.83 145.83c-0.008 0-0.0163-0.003-0.0225-0.009l-0.24286-0.24294c-0.0125-0.0123-0.0125-0.0325 0-0.0449 0.0124-0.0124 0.0326-0.0124 0.0449 0l0.22042 0.22037 0.22035-0.22037c0.0125-0.0124 0.0326-0.0124 0.045 0s0.0124 0.0326 0 0.0449l-0.24286 0.24294c-0.006 0.006-0.0144 0.009-0.0225 0.009z"/><path d="m105.83 144.97c-0.0176 0-0.0318-0.0142-0.0318-0.0318 0-0.34687-0.28215-0.62918-0.62902-0.62918h-3.8107c-0.25575 0-0.46395-0.20813-0.46395-0.46387 0-0.0176 0.0142-0.0318 0.0318-0.0318 0.0175 0 0.0318 0.0142 0.0318 0.0318 0 0.22079 0.17955 0.40034 0.40034 0.40034h3.8107c0.3819 0 0.69263 0.31073 0.69263 0.69271 0 0.0176-0.0143 0.0318-0.0318 0.0318z"/><path d="m105.83 144.97c-0.0176 0-0.0318-0.0142-0.0318-0.0318 0-0.38198 0.31073-0.69271 0.69271-0.69271h3.8107c0.22095 0 0.4005-0.17955 0.4005-0.40034 0-0.0176 0.0143-0.0318 0.0318-0.0318s0.0318 0.0142 0.0318 0.0318c0 0.25574-0.20828 0.46387-0.4641 0.46387h-3.8107c-0.34687 0-0.6291 0.28231-0.6291 0.62918 0 0.0176-0.0143 0.0318-0.0318 0.0318z"/></g></g></g></svg>
