<?xml version="1.0" encoding="UTF-8" standalone="no"?>
<svg xmlns="http://www.w3.org/2000/svg" height="144.72" width="184" version="1.1"><g transform="matrix(15.666 0 0 15.666 .0000052637 .000049473)"><g transform="translate(83.739 -243.24)"><g fill-rule="evenodd" transform="matrix(.26458 0 0 .26458 -109.84 207.95)"><g fill="#4f8acc"><path d="m142.92 168.3h-44.149c-0.0663 0-0.1202-0.0539-0.1202-0.1202v-34.195c0-0.3311 0.2696-0.5999 0.6007-0.5999h43.191c0.3311 0 0.5998 0.2688 0.5998 0.5999v34.195c0 0.0663-0.0539 0.1202-0.1202 0.1202zm-44.031-0.24h43.911v-34.075c0-0.1985-0.161-0.3595-0.3594-0.3595h-43.188c-0.1988 0-0.3603 0.161-0.3603 0.3595z"/><path d="m142.92 136.98h-44.149c-0.0663 0-0.1202-0.0536-0.1202-0.1199 0-0.0666 0.0539-0.1202 0.1202-0.1202h44.152c0.0663 0 0.1202 0.0536 0.1202 0.1202 0 0.0663-0.0539 0.1199-0.1202 0.1199z"/><path d="m108.33 147.84h-6.3074c-0.5981 0-1.0848-0.4864-1.0848-1.0851v-6.2382c0-0.5987 0.4867-1.0851 1.0848-1.0851h6.3074c0.5978 0 1.0848 0.4864 1.0848 1.0851v6.2382c0 0.5987-0.487 1.0851-1.0848 1.0851zm-6.3074-8.168c-0.4657 0-0.8447 0.379-0.8447 0.8447v6.2382c0 0.466 0.379 0.8447 0.8447 0.8447h6.3074c0.4657 0 0.8444-0.3787 0.8444-0.8447v-6.2382c0-0.4657-0.3787-0.8447-0.8444-0.8447z"/><path d="m138.31 152.83h-24.605c-0.7979 0-1.4468-0.6483-1.4468-1.4462v-6.7717l-1.9176-1.1084c-0.0368-0.0212-0.0601-0.0603-0.0601-0.1034 0-0.0428 0.0233-0.0831 0.0601-0.1035l1.9176-1.1075v-1.3045c0-0.7979 0.6489-1.4465 1.4468-1.4465h24.605c0.7977 0 1.4463 0.6486 1.4463 1.4465v10.499c0 0.7979-0.6486 1.4462-1.4463 1.4462zm-27.669-9.4297 1.7971 1.0392c0.0372 0.0215 0.0601 0.0603 0.0601 0.1034v6.8409c0 0.665 0.5412 1.2061 1.2067 1.2061h24.605c0.665 0 1.2059-0.5411 1.2059-1.2061v-10.499c0-0.665-0.5409-1.2061-1.2059-1.2061h-24.605c-0.6655 0-1.2067 0.5411-1.2067 1.2061v1.374c0 0.0431-0.0229 0.0822-0.0601 0.1034zm1.7373-1.1415h0.003z"/></g><path d="m139.64 141.44c1.038 0 1.8839-0.8464 1.8839-1.8842 0-1.0377-0.8459-1.8839-1.8839-1.8839-1.0375 0-1.8842 0.8462-1.8842 1.8839 0 1.0378 0.8467 1.8842 1.8842 1.8842z" fill="#999"/><path d="m139.85 138.77c-0.002-0.003-0.004-0.005-0.005-0.008-0.0005-0.003-0.0005-0.007-0.0005-0.0105 0-0.001-0.0003-0.003-0.001-0.005-0.0008-0.003-0.001-0.005-0.001-0.008-0.001-0.001-0.002-0.003-0.003-0.006 0-0.002-0.0009-0.005-0.002-0.007 0-0.003-0.0008-0.005-0.002-0.006-0.001-0.002-0.002-0.004-0.004-0.007 0-0.001-0.0005-0.003-0.001-0.004-0.001-0.001-0.001-0.003-0.001-0.004 0 0-0.0003-0.0005-0.001-0.002-0.0009-0.002-0.001-0.002-0.001-0.002-0.001-0.002-0.003-0.003-0.006-0.006l-0.005-0.005c-0.001-0.003-0.002-0.005-0.004-0.006-0.001-0.002-0.002-0.003-0.004-0.004l-0.005-0.005c-0.001-0.002-0.004-0.004-0.006-0.005-0.001-0.001-0.003-0.003-0.005-0.004s-0.004-0.003-0.005-0.004c-0.003-0.001-0.005-0.002-0.006-0.004-0.002-0.001-0.003-0.002-0.005-0.004-0.002 0-0.005-0.0009-0.006-0.002-0.002-0.001-0.005-0.003-0.009-0.006-0.001-0.002-0.003-0.002-0.005-0.002-0.002-0.0005-0.004-0.0005-0.005-0.0005-0.002-0.001-0.005-0.003-0.007-0.003-0.002-0.001-0.005-0.002-0.008-0.002-0.001 0.0008-0.003 0.002-0.005 0.002s-0.004-0.0009-0.005-0.002h-0.0282c-0.003-0.001-0.005-0.003-0.009-0.003-0.003 0-0.006 0.001-0.009 0.003-0.001 0-0.003 0-0.005 0.0003-0.002 0-0.004 0.0005-0.005 0.002-0.002 0-0.005 0.0003-0.008 0.001-0.003 0.0006-0.005 0.001-0.008 0.001-0.003 0.001-0.005 0.003-0.007 0.005s-0.004 0.003-0.007 0.003c-0.0008 0.001-0.003 0.002-0.005 0.003-0.002 0.0005-0.004 0.001-0.005 0.002l-0.3223 0.1919c-0.0227 0.0136-0.04 0.0315-0.0522 0.0539-0.0122 0.0218-0.0181 0.0462-0.0176 0.0714 0.0006 0.0255 0.008 0.049 0.023 0.0712 0.0133 0.0241 0.0309 0.0419 0.0527 0.0547 0.0213 0.0127 0.0451 0.0187 0.0703 0.0187 0.0119 0.0005 0.0241-0.001 0.0366-0.004s0.0249-0.009 0.0365-0.017l0.1052-0.0598v1.2909c0.0003 0.0278 0.006 0.0522 0.0193 0.0737 0.0122 0.0221 0.0295 0.0394 0.0513 0.0519 0.0213 0.0127 0.0459 0.0184 0.0734 0.0193 0.0264-0.0009 0.0513-0.007 0.0729-0.0193 0.0221-0.0125 0.0396-0.0298 0.0533-0.0519 0.0133-0.0215 0.0201-0.0459 0.0204-0.0737v-1.5563z" fill="#fff"/><g fill="#4f8acc"><path d="m124.03 141.38h-9.9006c-0.0663 0-0.1202-0.0539-0.1202-0.1202 0-0.0664 0.0539-0.1202 0.1202-0.1202h9.9006c0.0663 0 0.1202 0.0538 0.1202 0.1202 0 0.0663-0.0539 0.1202-0.1202 0.1202z"/><path d="m121.72 142.71h-0.9162c-0.0663 0-0.1202-0.0535-0.1202-0.1199 0-0.0666 0.0539-0.1202 0.1202-0.1202h0.9162c0.0663 0 0.1201 0.0536 0.1201 0.1202 0 0.0664-0.0538 0.1199-0.1201 0.1199zm-1.5903 0h-6.0018c-0.0663 0-0.1202-0.0535-0.1202-0.1199 0-0.0666 0.0539-0.1202 0.1202-0.1202h6.0018c0.0666 0 0.1202 0.0536 0.1202 0.1202 0 0.0664-0.0536 0.1199-0.1202 0.1199z"/><path d="m124.03 144.04h-9.9006c-0.0663 0-0.1202-0.0536-0.1202-0.1202 0-0.0663 0.0539-0.1199 0.1202-0.1199h9.9006c0.0663 0 0.1202 0.0536 0.1202 0.1199 0 0.0666-0.0539 0.1202-0.1202 0.1202z"/><path d="m124.03 145.37h-1.9315c-0.0667 0-0.1202-0.0539-0.1202-0.1202 0-0.0664 0.0535-0.1199 0.1202-0.1199h1.9315c0.0663 0 0.1202 0.0535 0.1202 0.1199 0 0.0663-0.0539 0.1202-0.1202 0.1202zm-2.8117 0h-7.0889c-0.0663 0-0.1202-0.0539-0.1202-0.1202 0-0.0664 0.0539-0.1199 0.1202-0.1199h7.0889c0.0666 0 0.1202 0.0535 0.1202 0.1199 0 0.0663-0.0536 0.1202-0.1202 0.1202z"/><path d="m136.16 141.38h-2.2609c-0.0664 0-0.1202-0.0539-0.1202-0.1202 0-0.0664 0.0538-0.1202 0.1202-0.1202h2.2609c0.0663 0 0.1199 0.0538 0.1199 0.1202 0 0.0663-0.0536 0.1202-0.1199 0.1202zm-3.1408 0h-6.7606c-0.0664 0-0.1202-0.0539-0.1202-0.1202 0-0.0664 0.0538-0.1202 0.1202-0.1202h6.7606c0.0663 0 0.1202 0.0538 0.1202 0.1202 0 0.0663-0.0539 0.1202-0.1202 0.1202z"/><path d="m136.16 142.71h-9.9014c-0.0664 0-0.1202-0.0535-0.1202-0.1199 0-0.0666 0.0538-0.1202 0.1202-0.1202h9.9014c0.0663 0 0.1199 0.0536 0.1199 0.1202 0 0.0664-0.0536 0.1199-0.1199 0.1199z"/><path d="m134 144.04h-7.7431c-0.0664 0-0.1202-0.0536-0.1202-0.1202 0-0.0663 0.0538-0.1199 0.1202-0.1199h7.74c0.0663 0 0.1202 0.0536 0.1202 0.1199 0 0.0666-0.0539 0.1202-0.1202 0.1202z"/><path d="m134 145.37h-1.7646c-0.0666 0-0.1202-0.0539-0.1202-0.1202 0-0.0664 0.0536-0.1199 0.1202-0.1199h1.76c0.0663 0 0.1202 0.0535 0.1202 0.1199 0 0.0663-0.0539 0.1202-0.1202 0.1202zm-2.9619 0h-4.7812c-0.0664 0-0.1202-0.0539-0.1202-0.1202 0-0.0664 0.0538-0.1199 0.1202-0.1199h4.7812c0.0663 0 0.1202 0.0535 0.1202 0.1199 0 0.0663-0.0539 0.1202-0.1202 0.1202z"/><path d="m107.74 145.94h-5.1318c-0.0663 0-0.1202-0.0536-0.1202-0.12 0-1.1279 0.7126-2.1435 1.7725-2.5273 0.0615-0.0227 0.1315 0.01 0.1539 0.0723s-0.01 0.1306-0.0717 0.1542c-0.9278 0.335-1.563 1.2021-1.6115 2.1807h4.8858c-0.0482-0.9786-0.6837-1.8457-1.6112-2.1807-0.0621-0.0236-0.0944-0.0919-0.072-0.1542 0.0227-0.0627 0.0916-0.095 0.1539-0.0723 1.0602 0.3838 1.7725 1.3994 1.7725 2.5273 0 0.0664-0.0535 0.12-0.1202 0.12z"/><path d="m105.18 143.85c-0.7963 0-1.4443-0.6485-1.4443-1.4442 0-0.796 0.648-1.4446 1.4443-1.4446 0.796 0 1.444 0.6486 1.444 1.4446 0 0.7957-0.648 1.4442-1.444 1.4442zm0-2.6484c-0.6642 0-1.2042 0.54-1.2042 1.2042 0 0.6638 0.54 1.2038 1.2042 1.2038 0.6636 0 1.2036-0.54 1.2036-1.2038 0-0.6642-0.54-1.2042-1.2036-1.2042z"/><path d="m124.03 146.7h-9.9006c-0.0663 0-0.1202-0.0538-0.1202-0.1202 0-0.0663 0.0539-0.1202 0.1202-0.1202h9.9006c0.0663 0 0.1202 0.0539 0.1202 0.1202 0 0.0664-0.0539 0.1202-0.1202 0.1202z"/><path d="m100.46 135.76c-0.3203 0-0.5806-0.2608-0.5806-0.5811 0-0.3192 0.2603-0.5799 0.5806-0.5799 0.32 0 0.5805 0.2607 0.5805 0.5799 0 0.3203-0.2605 0.5811-0.5805 0.5811zm0-0.9209c-0.1877 0-0.3405 0.1525-0.3405 0.3398 0 0.1877 0.1528 0.341 0.3405 0.341 0.1873 0 0.3401-0.1533 0.3401-0.341 0-0.1873-0.1528-0.3398-0.3401-0.3398z"/><path d="m102.19 135.76c-0.3203 0-0.5806-0.2608-0.5806-0.5811 0-0.3192 0.2603-0.5799 0.5806-0.5799s0.5805 0.2607 0.5805 0.5799c0 0.3203-0.2602 0.5811-0.5805 0.5811zm0-0.9209c-0.1877 0-0.3405 0.1525-0.3405 0.3398 0 0.1877 0.1528 0.341 0.3405 0.341 0.1873 0 0.3401-0.1533 0.3401-0.341 0-0.1873-0.1528-0.3398-0.3401-0.3398z"/><path d="m103.92 135.76c-0.3203 0-0.5806-0.2608-0.5806-0.5811 0-0.3192 0.2603-0.5799 0.5806-0.5799s0.5805 0.2607 0.5805 0.5799c0 0.3203-0.2602 0.5811-0.5805 0.5811zm0-0.9209c-0.1877 0-0.3405 0.1525-0.3405 0.3398 0 0.1877 0.1528 0.341 0.3405 0.341 0.1873 0 0.3401-0.1533 0.3401-0.341 0-0.1873-0.1528-0.3398-0.3401-0.3398z"/><path d="m139.64 168.3c-0.0664 0-0.1202-0.0539-0.1202-0.1202v-11.826c0-0.665-0.5409-1.2062-1.2059-1.2062h-24.605c-0.6655 0-1.2067 0.5412-1.2067 1.2062v11.826c0 0.0663-0.0535 0.1202-0.1199 0.1202-0.0666 0-0.1202-0.0539-0.1202-0.1202v-11.826c0-0.798 0.6489-1.4463 1.4468-1.4463h24.605c0.7977 0 1.4463 0.6483 1.4463 1.4463v11.826c0 0.0663-0.0539 0.1202-0.1202 0.1202z"/><path d="m139.64 135.76h-33.92c-0.0663 0-0.1201-0.0535-0.1201-0.1202v-0.9207c0-0.0666 0.0538-0.1201 0.1201-0.1201h33.916c0.0666 0 0.1202 0.0535 0.1202 0.1201v0.9207c0 0.0667-0.0536 0.1202-0.1202 0.1202zm-33.796-0.2401h33.676v-0.6808h-33.676z"/><path d="m102.14 151.15c-0.0309 0-0.0618-0.0119-0.085-0.0351l-0.7892-0.7881c-0.003-0.003-0.006-0.007-0.009-0.0107-0.2546-0.2648-0.2518-0.6874 0.009-0.9494 0.2387-0.2364 0.61-0.2616 0.8742-0.0722 0.2656-0.1894 0.6361-0.1642 0.874 0.0722 0.2636 0.2648 0.2636 0.6954 0 0.959l-0.7892 0.7892c-0.0233 0.0232-0.0542 0.0351-0.0848 0.0351zm-0.6959-0.9845 0.6959 0.6945 0.7042-0.7041c0.1703-0.1701 0.1703-0.4482 0-0.6191-0.1715-0.1709-0.449-0.1709-0.6194 0-0.0468 0.0468-0.123 0.0468-0.1698 0-0.1641-0.1641-0.4552-0.1641-0.6191 0-0.1704 0.1709-0.1704 0.449 0 0.6191 0.003 0.003 0.006 0.006 0.008 0.01z"/><path d="m106.33 151.15h-1.5775c-0.546 0-0.9904-0.4445-0.9904-0.9904 0-0.5457 0.4444-0.9902 0.9904-0.9902h1.5775c0.5459 0 0.9904 0.4445 0.9904 0.9902 0 0.5459-0.4445 0.9904-0.9904 0.9904zm-1.5775-1.7402c-0.4136 0-0.7501 0.3359-0.7501 0.7498 0 0.4141 0.3365 0.75 0.7501 0.75h1.5775c0.4135 0 0.75-0.3359 0.75-0.75 0-0.4139-0.3365-0.7498-0.75-0.7498z"/><path d="m131.04 146.7h-4.782c-0.0664 0-0.1202-0.0538-0.1202-0.1202 0-0.0663 0.0538-0.1202 0.1202-0.1202h4.782c0.0666 0 0.1202 0.0539 0.1202 0.1202 0 0.0664-0.0536 0.1202-0.1202 0.1202z"/><path d="m108.59 155.14h-6.8343c-0.4527 0-0.8212-0.3682-0.8212-0.8212s0.3685-0.8212 0.8212-0.8212h6.8343c0.4527 0 0.8215 0.3682 0.8215 0.8212s-0.3688 0.8212-0.8215 0.8212zm-6.8343-1.4023c-0.3203 0-0.5811 0.2608-0.5811 0.5811s0.2608 0.5811 0.5811 0.5811h6.8343c0.3206 0 0.5811-0.2608 0.5811-0.5811s-0.2605-0.5811-0.5811-0.5811z"/><path d="m108.59 158.12h-6.8343c-0.4527 0-0.8212-0.3682-0.8212-0.8212 0-0.4533 0.3685-0.8215 0.8212-0.8215h6.8343c0.4527 0 0.8215 0.3682 0.8215 0.8215 0 0.453-0.3688 0.8212-0.8215 0.8212zm-6.8343-1.4023c-0.3203 0-0.5811 0.2608-0.5811 0.5811s0.2608 0.5808 0.5811 0.5808h6.8343c0.3206 0 0.5811-0.2605 0.5811-0.5808s-0.2605-0.5811-0.5811-0.5811z"/><path d="m105.24 161.1h-3.4829c-0.4527 0-0.8212-0.3682-0.8212-0.8214 0-0.453 0.3685-0.8212 0.8212-0.8212h3.4829c0.4527 0 0.8212 0.3682 0.8212 0.8212 0 0.4532-0.3685 0.8214-0.8212 0.8214zm-3.4829-1.4023c-0.3203 0-0.5811 0.2605-0.5811 0.5809 0 0.3203 0.2608 0.5811 0.5811 0.5811h3.4829c0.3203 0 0.5811-0.2608 0.5811-0.5811 0-0.3204-0.2608-0.5809-0.5811-0.5809z"/><path d="m136.16 156.85h-9.9014c-0.0663 0-0.1202-0.0539-0.1202-0.1202s0.0539-0.1202 0.1202-0.1202h9.9014c0.0664 0 0.1202 0.0539 0.1202 0.1202s-0.0538 0.1202-0.1202 0.1202z"/><path d="m134.7 158.18h-1.7597c-0.0666 0-0.1202-0.0539-0.1202-0.1202 0-0.0664 0.0536-0.1202 0.1202-0.1202h1.76c0.0664 0 0.1202 0.0538 0.1202 0.1202 0 0.0663-0.0538 0.1202-0.1202 0.1202zm-2.4346 0h-6.001c-0.0663 0-0.1202-0.0539-0.1202-0.1202 0-0.0664 0.0539-0.1202 0.1202-0.1202h6.001c0.0663 0 0.1202 0.0538 0.1202 0.1202 0 0.0663-0.0539 0.1202-0.1202 0.1202z"/><path d="m136.16 159.51h-9.9014c-0.0663 0-0.1202-0.0539-0.1202-0.1202 0-0.0664 0.0539-0.1202 0.1202-0.1202h9.9014c0.0664 0 0.1202 0.0538 0.1202 0.1202 0 0.0663-0.0538 0.1202-0.1202 0.1202z"/><path d="m136.16 160.84h-1.9326c-0.0664 0-0.1202-0.0538-0.1202-0.1202 0-0.0663 0.0538-0.1201 0.1202-0.1201h1.9326c0.0664 0 0.1202 0.0538 0.1202 0.1201 0 0.0664-0.0538 0.1202-0.1202 0.1202zm-2.8125 0h-7.0889c-0.0663 0-0.1202-0.0538-0.1202-0.1202 0-0.0663 0.0539-0.1201 0.1202-0.1201h7.0889c0.0663 0 0.1202 0.0538 0.1202 0.1201 0 0.0664-0.0539 0.1202-0.1202 0.1202z"/><path d="m124.03 158.18h-2.2606c-0.0663 0-0.1202-0.0539-0.1202-0.1202 0-0.0664 0.0539-0.1202 0.1202-0.1202h2.2606c0.0666 0 0.1202 0.0538 0.1202 0.1202 0 0.0663-0.0536 0.1202-0.1202 0.1202zm-3.1416 0h-6.7598c-0.0663 0-0.1202-0.0539-0.1202-0.1202 0-0.0664 0.0539-0.1202 0.1202-0.1202h6.7598c0.0666 0 0.1202 0.0538 0.1202 0.1202 0 0.0663-0.0536 0.1202-0.1202 0.1202z"/><path d="m124.03 156.85h-9.9014c-0.0663 0-0.1202-0.0539-0.1202-0.1202s0.0539-0.1202 0.1202-0.1202h9.9014c0.0666 0 0.1202 0.0539 0.1202 0.1202s-0.0536 0.1202-0.1202 0.1202z"/><path d="m121.87 159.51h-7.7434c-0.0663 0-0.1202-0.0539-0.1202-0.1202 0-0.0664 0.0539-0.1202 0.1202-0.1202h7.7434c0.0664 0 0.1199 0.0538 0.1199 0.1202 0 0.0663-0.0535 0.1202-0.1199 0.1202z"/><path d="m121.87 160.84h-1.7648c-0.0664 0-0.1202-0.0538-0.1202-0.1202 0-0.0663 0.0538-0.1201 0.1202-0.1201h1.7648c0.0664 0 0.1199 0.0538 0.1199 0.1201 0 0.0664-0.0535 0.1202-0.1199 0.1202zm-2.9616 0h-4.7818c-0.0663 0-0.1202-0.0538-0.1202-0.1202 0-0.0663 0.0539-0.1201 0.1202-0.1201h4.7818c0.0663 0 0.1199 0.0538 0.1199 0.1201 0 0.0664-0.0536 0.1202-0.1199 0.1202z"/><path d="m136.16 162.17h-9.9014c-0.0663 0-0.1202-0.0536-0.1202-0.1199 0-0.0666 0.0539-0.1202 0.1202-0.1202h9.9014c0.0664 0 0.1202 0.0536 0.1202 0.1202 0 0.0663-0.0538 0.1199-0.1202 0.1199z"/><path d="m132.62 163.5h-6.3604c-0.0663 0-0.1202-0.0536-0.1202-0.1202 0-0.0663 0.0539-0.1199 0.1202-0.1199h6.3604c0.0663 0 0.1202 0.0536 0.1202 0.1199 0 0.0666-0.0539 0.1202-0.1202 0.1202z"/><path d="m124.03 162.17h-9.9014c-0.0663 0-0.1202-0.0536-0.1202-0.1199 0-0.0666 0.0539-0.1202 0.1202-0.1202h9.9014c0.0666 0 0.1202 0.0536 0.1202 0.1202 0 0.0663-0.0536 0.1199-0.1202 0.1199z"/><path d="m119.08 163.5h-1.1282c-0.0666 0-0.1202-0.0536-0.1202-0.1202 0-0.0663 0.0536-0.1199 0.1202-0.1199h1.1282c0.0666 0 0.1202 0.0536 0.1202 0.1199 0 0.0666-0.0536 0.1202-0.1202 0.1202zm-1.8938 0h-3.0572c-0.0663 0-0.1202-0.0536-0.1202-0.1202 0-0.0663 0.0539-0.1199 0.1202-0.1199h3.0572c0.0663 0 0.1199 0.0536 0.1199 0.1199 0 0.0666-0.0536 0.1202-0.1199 0.1202z"/><path d="m114.85 149.11c-0.0499-0.0008-0.0975 0.004-0.1426 0.0145-0.0453 0.0102-0.0873 0.0241-0.1272 0.0419-0.0386 0.0182-0.0754 0.038-0.1086 0.0607-0.0102 0.007-0.021 0.017-0.0323 0.0275-0.0108 0.0111-0.0213 0.0215-0.0306 0.0323v-0.021c-0.0003-0.0294-0.008-0.0555-0.0227-0.0788-0.0145-0.0235-0.0346-0.0422-0.059-0.0561-0.0249-0.0133-0.0524-0.0204-0.0833-0.021-0.0292 0.0006-0.0556 0.008-0.0797 0.021-0.024 0.0139-0.0433 0.0326-0.0572 0.0561-0.0142 0.0233-0.0213 0.0494-0.0221 0.0788v1.1821c0.0008 0.0292 0.008 0.0561 0.0221 0.0799 0.0139 0.0241 0.0332 0.0431 0.0572 0.057 0.0241 0.0147 0.0505 0.0215 0.0797 0.0221 0.0309-0.0006 0.0584-0.007 0.0833-0.0221 0.0244-0.0139 0.0445-0.0329 0.059-0.057 0.015-0.0238 0.0224-0.0507 0.0227-0.0799v-0.5701c0.005-0.0147 0.0127-0.0354 0.0229-0.0626 0.01-0.0275 0.023-0.0573 0.04-0.0907 0.0164-0.0332 0.036-0.0661 0.0601-0.0987 0.0184-0.0283 0.0388-0.0555 0.0612-0.0799 0.0227-0.0244 0.0485-0.0462 0.0771-0.0641 0.0255-0.0195 0.053-0.034 0.0828-0.0428 0.0303-0.01 0.0626-0.0141 0.0972-0.0141 0.0301-0.0006 0.0573-0.008 0.0811-0.0227 0.0238-0.0142 0.0428-0.0337 0.0567-0.0578 0.0136-0.0238 0.0204-0.0502 0.021-0.0786-0.0006-0.0294-0.007-0.0555-0.021-0.0788-0.0139-0.0235-0.0329-0.0422-0.0567-0.0561-0.0238-0.0133-0.051-0.0204-0.0811-0.021zm0.8938 1.497c0.1066 0 0.2041-0.0159 0.2934-0.0485 0.089-0.0326 0.1703-0.0819 0.2435-0.1493 0.0229-0.0216 0.0357-0.0446 0.0399-0.0698 0.003-0.0244 0.001-0.0479-0.007-0.0703-0.008-0.0221-0.019-0.0405-0.0326-0.055-0.01-0.0122-0.0244-0.0215-0.0423-0.0283-0.0184-0.007-0.0388-0.01-0.0609-0.0105-0.0221 0-0.0442 0.004-0.0652 0.0116-0.0213 0.007-0.0403 0.0193-0.0564 0.036-0.0255 0.019-0.0553 0.0346-0.0899 0.0465-0.0351 0.0128-0.0714 0.0207-0.11 0.0255-0.0382 0.005-0.0754 0.006-0.1122 0.003-0.0352-0.003-0.0706-0.0113-0.1072-0.0232-0.036-0.0122-0.0694-0.0278-0.1009-0.0468-0.032-0.019-0.0581-0.0411-0.0799-0.0649-0.0267-0.0266-0.0488-0.057-0.0652-0.0927-0.0173-0.0349-0.0292-0.0703-0.0366-0.1054h0.9539c0.0428-0.0006 0.0782-0.0114 0.106-0.0332 0.0278-0.0213 0.0448-0.0502 0.0499-0.0867 0.002-0.003 0.003-0.008 0.003-0.0136 0.0006-0.006 0.0006-0.01 0.0006-0.0134v-0.015c-0.007-0.1015-0.0295-0.1953-0.0683-0.2795-0.0389-0.0853-0.091-0.1584-0.1562-0.2208-0.0652-0.0618-0.1398-0.1097-0.2248-0.144-0.0842-0.0343-0.176-0.0516-0.2741-0.0519-0.1032 0.0003-0.199 0.0207-0.2872 0.0601-0.0884 0.0391-0.1655 0.093-0.2318 0.1622-0.0658 0.0688-0.1177 0.1485-0.1548 0.2383-0.0377 0.0902-0.0567 0.1863-0.0581 0.2895 0.001 0.1023 0.0204 0.199 0.0581 0.2891 0.0371 0.0899 0.089 0.1689 0.1548 0.2378 0.0663 0.0686 0.1434 0.1222 0.2318 0.1619 0.0882 0.0391 0.184 0.0598 0.2872 0.0612zm0-1.2152c0.0655 0.005 0.1236 0.0198 0.1757 0.0414 0.0516 0.0221 0.0961 0.0493 0.1327 0.0805 0.0377 0.0317 0.0678 0.0649 0.0904 0.0989 0.0227 0.0343 0.038 0.0669 0.0451 0.0975h-0.8487c0.006-0.0317 0.0187-0.0646 0.0377-0.1003 0.019-0.0349 0.0451-0.0686 0.0785-0.1004 0.0329-0.0317 0.0734-0.0584 0.1214-0.0799 0.0481-0.0215 0.1037-0.0343 0.1672-0.0377zm2.6314 0.036c0.0558 0.0009 0.1063 0.0147 0.1519 0.0422 0.0451 0.0275 0.0817 0.0644 0.1086 0.1112 0.0275 0.0464 0.0419 0.0983 0.0422 0.1559v0.7109c0.0006 0.0292 0.008 0.0561 0.023 0.0799 0.0147 0.0241 0.0343 0.0431 0.0584 0.057 0.0246 0.0147 0.0513 0.0215 0.0805 0.0221 0.0295-0.0006 0.0561-0.007 0.0802-0.0221 0.0241-0.0139 0.0431-0.0329 0.0567-0.057 0.0147-0.0238 0.0218-0.0507 0.0224-0.0799v-0.7109c-0.0006-0.0879-0.017-0.1696-0.0493-0.2458-0.0318-0.0754-0.0763-0.1423-0.1333-0.1998-0.0572-0.0573-0.123-0.1024-0.1984-0.135-0.0751-0.0326-0.1562-0.0493-0.2429-0.0496-0.0635 0-0.1236 0.008-0.1817 0.0252-0.0576 0.0165-0.1111 0.04-0.1599 0.0709-0.0493 0.0312-0.0921 0.068-0.1298 0.1111-0.0573-0.0652-0.127-0.1159-0.2075-0.1519s-0.1681-0.055-0.2636-0.0553c-0.057 0-0.1126 0.008-0.1667 0.0235-0.0547 0.0156-0.1063 0.038-0.1542 0.0667-0.0122-0.0287-0.0312-0.0511-0.0573-0.0667-0.0255-0.0153-0.0544-0.0235-0.0867-0.0235-0.0292 0.0003-0.0556 0.007-0.0797 0.0216-0.0241 0.0141-0.0433 0.0331-0.0572 0.0569-0.0142 0.0247-0.0213 0.0522-0.0221 0.0837v1.1793c0.0008 0.0269 0.006 0.0513 0.0178 0.0731 0.0116 0.0218 0.0261 0.04 0.0459 0.0544 0.0196 0.0148 0.0417 0.0256 0.0655 0.0315 0.004-0.001 0.009-0.001 0.0142-0.001 0.004 0.0008 0.01 0.001 0.0156 0.001 0.0323-0.0006 0.0615-0.01 0.0887-0.0281 0.0272-0.0178 0.0476-0.0405 0.0615-0.068v-0.015c0.003-0.003 0.004-0.006 0.006-0.009 0.0008-0.003 0.002-0.006 0.003-0.009v-0.009c0-0.003 0.0003-0.007 0.001-0.0108 0.001-0.004 0.002-0.007 0.002-0.0102v-0.7109c0.0003-0.0576 0.0142-0.1095 0.0417-0.1559 0.0272-0.0468 0.0635-0.0837 0.1091-0.1112 0.0454-0.0275 0.0964-0.0413 0.1517-0.0422 0.0569 0.0009 0.108 0.0147 0.1542 0.0411 0.0467 0.0272 0.0833 0.0626 0.1111 0.108 0.0275 0.0448 0.0425 0.0955 0.0442 0.1511v0.7199c0.0003 0.0292 0.008 0.0561 0.023 0.0799 0.015 0.0241 0.0354 0.0431 0.0595 0.057 0.0241 0.0147 0.0507 0.0215 0.0791 0.0221 0.0295-0.0006 0.0564-0.007 0.0802-0.0221 0.0241-0.0139 0.0431-0.0329 0.0567-0.057 0.0147-0.0238 0.0218-0.0507 0.0224-0.0799v-0.7199c0.002-0.0556 0.0176-0.1063 0.0451-0.1511 0.0283-0.0454 0.0654-0.0808 0.1111-0.108 0.0462-0.0264 0.0983-0.0402 0.1559-0.0411zm1.8054 1.188c0.1003-0.0003 0.1927-0.0207 0.2786-0.0607 0.0859-0.0405 0.1596-0.0961 0.2225-0.1672 0.0678-0.0663 0.1191-0.1449 0.1551-0.2347 0.036-0.0896 0.0544-0.1877 0.0547-0.2934-0.0003-0.1018-0.0187-0.197-0.0547-0.2849s-0.0873-0.1678-0.1551-0.2398c-0.0629-0.0711-0.1366-0.127-0.2225-0.167-0.0859-0.0402-0.1783-0.0609-0.2786-0.0612-0.1032 0.0003-0.1982 0.021-0.2849 0.0612-0.0862 0.04-0.1633 0.0959-0.231 0.167-0.0647 0.072-0.1154 0.1519-0.1517 0.2398-0.036 0.0879-0.0544 0.1831-0.055 0.2849 0.0006 0.1057 0.019 0.2038 0.055 0.2934 0.0363 0.0898 0.087 0.1684 0.1517 0.2347 0.0677 0.0711 0.1448 0.1267 0.231 0.1672 0.0867 0.04 0.1817 0.0604 0.2849 0.0607zm-0.288-1.0678c0.0377-0.0335 0.0813-0.061 0.1298-0.0822 0.0482-0.0201 0.1012-0.0312 0.1582-0.0318 0.053 0.0006 0.1026 0.0117 0.1499 0.0318 0.0465 0.0212 0.089 0.0487 0.1259 0.0822 0.0374 0.0405 0.0666 0.0873 0.0867 0.14 0.0204 0.053 0.0306 0.11 0.0306 0.1718 0 0.0646-0.0102 0.1233-0.0306 0.1763-0.0201 0.0525-0.0493 0.0998-0.0867 0.142-0.0369 0.036-0.0794 0.0635-0.1259 0.0825-0.0473 0.019-0.0969 0.0284-0.1499 0.0284-0.057 0-0.11-0.009-0.1582-0.0284-0.0485-0.019-0.0921-0.0465-0.1298-0.0825-0.0343-0.0422-0.0615-0.0895-0.0797-0.142-0.0184-0.053-0.0283-0.1117-0.0283-0.1763 0-0.0618 0.01-0.1188 0.0283-0.1718 0.0182-0.0527 0.0454-0.0995 0.0797-0.14zm1.8238-0.4411h-0.0749v-0.4351c-0.0008-0.0312-0.008-0.0592-0.0218-0.0839-0.015-0.0249-0.034-0.0445-0.0595-0.0587-0.0241-0.015-0.0522-0.0218-0.0839-0.0221-0.0312 0.0003-0.0593 0.007-0.0848 0.0221-0.0252 0.0142-0.0448 0.0338-0.0598 0.0587-0.0153 0.0247-0.0227 0.0527-0.0235 0.0839v0.4351h-0.09c-0.032 0.0003-0.0595 0.007-0.0842 0.0221-0.0249 0.0142-0.0445 0.034-0.0592 0.059-0.0142 0.0247-0.0213 0.0524-0.0221 0.0839 0.0008 0.0306 0.008 0.0581 0.0221 0.0825 0.0147 0.0252 0.0343 0.0451 0.0592 0.0595 0.0247 0.015 0.0522 0.0227 0.0842 0.0233h0.0865v0.8367c0.001 0.0616 0.0164 0.1174 0.0459 0.1673 0.0298 0.0504 0.07 0.0904 0.1199 0.1199 0.0499 0.03 0.106 0.0445 0.1675 0.0459 0.0315-0.0006 0.0593-0.007 0.084-0.0221 0.0249-0.0145 0.0445-0.0343 0.0589-0.059 0.0148-0.0243 0.0216-0.0524 0.0221-0.0839-0.0005-0.0317-0.007-0.0595-0.0221-0.085-0.0144-0.0249-0.034-0.0451-0.0589-0.0601-0.0247-0.0147-0.0525-0.0224-0.084-0.023v-0.8367h0.0749c0.0303-0.0006 0.0584-0.008 0.0836-0.0233 0.0255-0.0144 0.0456-0.0343 0.0609-0.0595 0.0148-0.0244 0.023-0.0519 0.0233-0.0825-0.0003-0.0315-0.008-0.0592-0.0233-0.0839-0.0153-0.025-0.0354-0.0448-0.0609-0.059-0.0252-0.0147-0.0533-0.0218-0.0836-0.0221zm1.0652 1.5001c0.1066 0 0.2041-0.0159 0.2934-0.0485 0.089-0.0326 0.1701-0.0819 0.2435-0.1493 0.0227-0.0216 0.0357-0.0446 0.0397-0.0698 0.003-0.0244 0.001-0.0479-0.007-0.0703-0.008-0.0221-0.019-0.0405-0.0326-0.055-0.01-0.0122-0.0244-0.0215-0.0425-0.0283-0.0187-0.007-0.0391-0.01-0.0612-0.0105-0.0216 0-0.0437 0.004-0.0647 0.0116-0.0215 0.007-0.0405 0.0193-0.0564 0.036-0.0255 0.019-0.0558 0.0346-0.0904 0.0465-0.0346 0.0128-0.0714 0.0207-0.1097 0.0255-0.038 0.005-0.0754 0.006-0.112 0.003-0.0354-0.003-0.0711-0.0113-0.1074-0.0232-0.036-0.0122-0.0697-0.0278-0.1012-0.0468s-0.0581-0.0411-0.0794-0.0649c-0.0269-0.0266-0.049-0.057-0.0657-0.0927-0.0167-0.0349-0.0287-0.0703-0.0366-0.1054h0.9544c0.0426-0.0006 0.0777-0.0114 0.1061-0.0332 0.0277-0.0213 0.0447-0.0502 0.0498-0.0867 0.001-0.003 0.002-0.008 0.002-0.0136 0.0006-0.006 0.0006-0.01 0.0006-0.0134v-0.015c-0.006-0.1015-0.0295-0.1953-0.0678-0.2795-0.0391-0.0853-0.091-0.1584-0.1562-0.2208-0.0657-0.0618-0.14-0.1097-0.2247-0.144-0.0848-0.0343-0.1761-0.0516-0.2742-0.0519-0.1037 0.0003-0.199 0.0207-0.2874 0.0601-0.0881 0.0391-0.1658 0.093-0.2316 0.1622-0.0663 0.0688-0.1182 0.1485-0.1553 0.2383-0.0372 0.0902-0.0561 0.1863-0.0576 0.2895 0.001 0.1023 0.0204 0.199 0.0576 0.2891 0.0371 0.0899 0.089 0.1689 0.1553 0.2378 0.0658 0.0686 0.1435 0.1222 0.2316 0.1619 0.0884 0.0391 0.1837 0.0598 0.2874 0.0612zm0-1.2152c0.0655 0.005 0.1236 0.0198 0.1755 0.0414 0.0513 0.0221 0.0961 0.0493 0.133 0.0805 0.0377 0.0317 0.0674 0.0649 0.0898 0.0989 0.0233 0.0343 0.038 0.0669 0.0456 0.0975h-0.8492c0.007-0.0317 0.0187-0.0646 0.0377-0.1003 0.019-0.0349 0.0456-0.0686 0.0785-0.1004 0.0329-0.0317 0.0737-0.0584 0.1216-0.0799 0.0482-0.0215 0.104-0.0343 0.1675-0.0377zm2.4177 0.4921h-0.0298v-1.2234c0-0.003-0.0005-0.006-0.001-0.007-0.001-0.003-0.001-0.005-0.001-0.008 0-0.005 0-0.008-0.0006-0.0104 0-0.003-0.001-0.005-0.003-0.008 0-0.001-0.0003-0.003-0.001-0.006-0.0009-0.002-0.001-0.004-0.001-0.006-0.002-0.004-0.002-0.008-0.003-0.0102-0.0008-0.002-0.001-0.005-0.003-0.008-0.001-0.001-0.003-0.003-0.004-0.006-0.001-0.002-0.002-0.004-0.002-0.006-0.003-0.004-0.005-0.007-0.007-0.009s-0.004-0.004-0.005-0.006c-0.001-0.001-0.003-0.003-0.004-0.006-0.001-0.002-0.003-0.004-0.005-0.006l-0.005-0.005c-0.002-0.001-0.004-0.004-0.007-0.007 0-0.001-0.001-0.003-0.003-0.004s-0.004-0.002-0.005-0.002c0-0.002-0.0006-0.003-0.001-0.003-0.001-0.0002-0.002-0.0002-0.002-0.0002-0.003-0.002-0.005-0.003-0.007-0.005-0.002-0.001-0.005-0.003-0.008-0.005-0.002-0.001-0.004-0.003-0.006-0.005-0.003-0.001-0.006-0.004-0.008-0.007-0.002 0-0.004-0.0003-0.006-0.002-0.002-0.0006-0.004-0.001-0.006-0.001-0.003-0.001-0.007-0.003-0.01-0.003-0.003-0.0002-0.006-0.001-0.008-0.003-0.003 0.001-0.005 0.002-0.007 0.002s-0.005-0.0006-0.008-0.002h-0.0632c-0.004 0.001-0.008 0.003-0.0113 0.003-0.003 0.0006-0.005 0.002-0.007 0.003-0.003 0-0.005 0.0005-0.007 0.002-0.002 0.001-0.003 0.004-0.005 0.007-0.004 0-0.007 0.0006-0.01 0.002-0.002 0.0009-0.005 0.002-0.008 0.004-0.001 0.002-0.003 0.003-0.006 0.005-0.002 0.001-0.004 0.003-0.006 0.005l-0.005 0.005c-0.002 0.001-0.005 0.003-0.01 0.004-0.001 0.003-0.003 0.006-0.005 0.007-0.001 0.002-0.003 0.004-0.004 0.005-0.001 0.003-0.002 0.005-0.003 0.007-0.0006 0.001-0.002 0.002-0.003 0.002l-1.1098 1.3799c-0.0189 0.0241-0.0303 0.051-0.0351 0.0788-0.004 0.0286-0.001 0.0561 0.009 0.0831 0.0105 0.0266 0.0281 0.0493 0.0528 0.0691 0.015 0.0134 0.0317 0.0224 0.0493 0.0278 0.017 0.005 0.0346 0.008 0.053 0.008h0.9438v0.2279c0.0006 0.0315 0.008 0.0596 0.0224 0.0839 0.0142 0.0247 0.034 0.0445 0.0587 0.059 0.0246 0.0147 0.0527 0.0215 0.0839 0.0221 0.0317-0.0006 0.0598-0.007 0.0842-0.0221 0.0252-0.0145 0.0445-0.0343 0.0592-0.059 0.0142-0.0243 0.0213-0.0524 0.0218-0.0839v-0.2279h0.0298c0.0315-0.0005 0.0598-0.008 0.0853-0.0221 0.0247-0.0144 0.0451-0.034 0.0601-0.0589 0.015-0.0247 0.0224-0.0525 0.0227-0.0839-0.0003-0.0307-0.008-0.0582-0.0227-0.0831-0.015-0.0247-0.0354-0.0445-0.0601-0.059-0.0255-0.015-0.0538-0.0226-0.0853-0.0232zm-0.36 0h-0.5967l0.5967-0.741zm2.4304-0.4561c0.0556 0.0009 0.1063 0.0147 0.1517 0.0422 0.0456 0.0275 0.0819 0.0644 0.1091 0.1112 0.0275 0.0464 0.0414 0.0983 0.0417 0.1559v0.7109c0.0008 0.0292 0.008 0.0561 0.0235 0.0799 0.0142 0.0241 0.034 0.0431 0.0584 0.057 0.0241 0.0147 0.051 0.0215 0.0805 0.0221 0.0295-0.0006 0.0556-0.007 0.0799-0.0221 0.0241-0.0139 0.0431-0.0329 0.057-0.057 0.0142-0.0238 0.0213-0.0507 0.0221-0.0799v-0.7109c-0.0008-0.0879-0.017-0.1696-0.049-0.2458-0.0323-0.0754-0.0768-0.1423-0.1338-0.1998-0.0567-0.0573-0.123-0.1024-0.1984-0.135-0.0749-0.0326-0.1562-0.0493-0.2427-0.0496-0.0632 0-0.1236 0.008-0.1817 0.0252-0.0578 0.0165-0.1108 0.04-0.1601 0.0709-0.0488 0.0312-0.0919 0.068-0.1293 0.1111-0.0578-0.0652-0.127-0.1159-0.2075-0.1519s-0.1684-0.055-0.2636-0.0553c-0.057 0-0.1131 0.008-0.167 0.0235-0.0544 0.0156-0.106 0.038-0.1539 0.0667-0.0125-0.0287-0.0315-0.0511-0.0578-0.0667-0.0255-0.0153-0.0542-0.0235-0.0862-0.0235-0.0295 0.0003-0.0561 0.007-0.0802 0.0216-0.0241 0.0141-0.0431 0.0331-0.0567 0.0569-0.0145 0.0247-0.0218 0.0522-0.0224 0.0837v1.1793c0.0006 0.0269 0.006 0.0513 0.0176 0.0731s0.0266 0.04 0.0459 0.0544c0.0198 0.0148 0.0417 0.0256 0.0655 0.0315 0.005-0.001 0.009-0.001 0.0144-0.001 0.004 0.0008 0.01 0.001 0.0159 0.001 0.032-0.0006 0.0615-0.01 0.0882-0.0281 0.0272-0.0178 0.0476-0.0405 0.0615-0.068v-0.015c0.003-0.003 0.005-0.006 0.006-0.009 0.0006-0.003 0.002-0.006 0.003-0.009v-0.009c0-0.003 0.0006-0.007 0.001-0.0108 0.001-0.004 0.002-0.007 0.002-0.0102v-0.7109c0.0005-0.0576 0.0147-0.1095 0.0422-0.1559 0.0269-0.0468 0.0635-0.0837 0.1086-0.1112 0.0459-0.0275 0.0969-0.0413 0.1522-0.0422 0.0564 0.0009 0.108 0.0147 0.1542 0.0411 0.0462 0.0272 0.0828 0.0626 0.1108 0.108 0.0275 0.0448 0.0423 0.0955 0.044 0.1511v0.7199c0.0005 0.0292 0.008 0.0561 0.0235 0.0799 0.015 0.0241 0.0351 0.0431 0.0592 0.057 0.0244 0.0147 0.0505 0.0215 0.0794 0.0221 0.0295-0.0006 0.0561-0.007 0.0799-0.0221 0.0241-0.0139 0.0431-0.0329 0.057-0.057 0.0142-0.0238 0.0213-0.0507 0.0221-0.0799v-0.7199c0.002-0.0556 0.0179-0.1063 0.0451-0.1511 0.0281-0.0454 0.0652-0.0808 0.1114-0.108 0.0459-0.0264 0.0978-0.0402 0.1556-0.0411zm1.7785 1.1792c0.1066 0 0.2041-0.0159 0.2934-0.0485 0.089-0.0326 0.1703-0.0819 0.2437-0.1493 0.0227-0.0216 0.0355-0.0446 0.0397-0.0698 0.003-0.0244 0.001-0.0479-0.007-0.0703-0.008-0.0221-0.0192-0.0405-0.0326-0.055-0.01-0.0122-0.0246-0.0215-0.0425-0.0283-0.0184-0.007-0.0388-0.01-0.0612-0.0105-0.0218 0-0.0437 0.004-0.0649 0.0116-0.0213 0.007-0.0403 0.0193-0.0564 0.036-0.0255 0.019-0.0553 0.0346-0.0899 0.0465-0.0351 0.0128-0.0717 0.0207-0.11 0.0255-0.0382 0.005-0.0754 0.006-0.1122 0.003-0.0352-0.003-0.0706-0.0113-0.1072-0.0232-0.036-0.0122-0.0697-0.0278-0.1009-0.0468-0.032-0.019-0.0581-0.0411-0.0799-0.0649-0.0267-0.0266-0.0488-0.057-0.0655-0.0927-0.017-0.0349-0.0289-0.0703-0.0363-0.1054h0.9539c0.0425-0.0006 0.0782-0.0114 0.106-0.0332 0.0278-0.0213 0.0448-0.0502 0.0499-0.0867 0.001-0.003 0.003-0.008 0.003-0.0136 0.0003-0.006 0.0003-0.01 0.0003-0.0134v-0.015c-0.006-0.1015-0.0292-0.1953-0.068-0.2795-0.0389-0.0853-0.091-0.1584-0.1562-0.2208-0.0655-0.0618-0.1398-0.1097-0.2248-0.144-0.0842-0.0343-0.1758-0.0516-0.2741-0.0519-0.1032 0.0003-0.199 0.0207-0.2872 0.0601-0.0884 0.0391-0.1655 0.093-0.2316 0.1622-0.066 0.0688-0.1179 0.1485-0.155 0.2383-0.0377 0.0902-0.0567 0.1863-0.0581 0.2895 0.001 0.1023 0.0204 0.199 0.0581 0.2891 0.0371 0.0899 0.089 0.1689 0.155 0.2378 0.0661 0.0686 0.1432 0.1222 0.2316 0.1619 0.0882 0.0391 0.184 0.0598 0.2872 0.0612zm0-1.2152c0.0657 0.005 0.1236 0.0198 0.1757 0.0414 0.0516 0.0221 0.0961 0.0493 0.1327 0.0805 0.0377 0.0317 0.0677 0.0649 0.0904 0.0989 0.0227 0.0343 0.038 0.0669 0.0451 0.0975h-0.8487c0.006-0.0317 0.0187-0.0646 0.0377-0.1003 0.019-0.0349 0.0451-0.0686 0.0785-0.1004 0.0329-0.0317 0.0734-0.0584 0.1213-0.0799 0.0482-0.0215 0.1038-0.0343 0.1673-0.0377zm1.0321 1.0142c0.0008 0.0414 0.0105 0.0791 0.0306 0.112 0.0193 0.0335 0.0462 0.0601 0.0796 0.0799 0.0329 0.0196 0.0706 0.0295 0.112 0.0301 0.0414-0.0006 0.0791-0.0105 0.1131-0.0301 0.034-0.0198 0.0607-0.0464 0.0808-0.0799 0.0201-0.0329 0.0306-0.0706 0.0309-0.112-0.0003-0.0414-0.0108-0.0791-0.0309-0.1131s-0.0468-0.0609-0.0808-0.0808c-0.034-0.0201-0.0717-0.0306-0.1131-0.0311-0.0414 0.0005-0.0791 0.011-0.112 0.0311-0.0334 0.0199-0.0603 0.0468-0.0796 0.0808-0.0201 0.034-0.0298 0.0717-0.0306 0.1131zm1.1851 0.201c-0.1046-0.0006-0.2021-0.0204-0.2936-0.059-0.0919-0.0385-0.1724-0.0921-0.2424-0.1604-0.0706-0.0683-0.1256-0.1477-0.165-0.2378-0.0402-0.0899-0.0601-0.1863-0.0609-0.29 0.0008-0.1049 0.0207-0.2024 0.0609-0.2931 0.0394-0.0901 0.0944-0.1701 0.165-0.2387 0.07-0.0686 0.1505-0.1219 0.2424-0.1607 0.0915-0.0388 0.189-0.0587 0.2936-0.0604 0.0902 0.0003 0.1766 0.0159 0.2574 0.0457 0.0814 0.0294 0.1545 0.0694 0.2197 0.1193 0.0227 0.0187 0.0394 0.0411 0.0499 0.0669 0.01 0.0264 0.0139 0.0527 0.0108 0.0802-0.002 0.0275-0.0122 0.0525-0.0278 0.0751-0.0207 0.0238-0.0434 0.0408-0.0695 0.0513-0.0263 0.0105-0.053 0.0142-0.0799 0.0105-0.0272-0.003-0.0524-0.0139-0.0757-0.032-0.0388-0.0292-0.0825-0.0519-0.1298-0.0695-0.0482-0.0172-0.0995-0.0257-0.1551-0.0266-0.0609 0.0009-0.1187 0.0122-0.1723 0.0351-0.0533 0.023-0.1001 0.0548-0.1406 0.0947-0.0411 0.04-0.0734 0.0853-0.0961 0.1375-0.023 0.0516-0.0346 0.1066-0.0349 0.1647 0.0003 0.0581 0.0119 0.1131 0.0349 0.1647 0.0227 0.0513 0.055 0.0969 0.0961 0.1366 0.0405 0.04 0.0873 0.0709 0.1406 0.093 0.0536 0.023 0.1114 0.0343 0.1723 0.0349 0.0539-0.0006 0.1055-0.009 0.1534-0.0264 0.0482-0.0176 0.0921-0.0408 0.1315-0.0694 0.0227-0.0171 0.0468-0.0273 0.0743-0.0301 0.0272-0.003 0.0536 0.0003 0.0802 0.0111 0.0264 0.0104 0.0499 0.0277 0.0706 0.0518 0.0156 0.0224 0.0255 0.0471 0.0278 0.0735 0.003 0.0266-0.0009 0.053-0.0108 0.079-0.0105 0.0261-0.0272 0.0488-0.0499 0.0695-0.0652 0.0476-0.1383 0.0856-0.2197 0.1145-0.0808 0.0289-0.1672 0.0431-0.2574 0.0445z"/><path d="m132.79 150.62c0.0998-0.0003 0.1922-0.0207 0.2786-0.0607 0.0859-0.0405 0.1599-0.0961 0.2223-0.1672 0.0683-0.0663 0.1196-0.1449 0.1556-0.2347 0.036-0.0896 0.0541-0.1877 0.0544-0.2934-0.0003-0.1018-0.0184-0.197-0.0544-0.2849s-0.0873-0.1678-0.1556-0.2398c-0.0624-0.0711-0.1364-0.127-0.2223-0.167-0.0864-0.0402-0.1788-0.0609-0.2786-0.0612-0.1035 0.0003-0.1987 0.021-0.2849 0.0612-0.0867 0.04-0.1638 0.0959-0.231 0.167-0.0652 0.072-0.1154 0.1519-0.1522 0.2398-0.036 0.0879-0.0542 0.1831-0.055 0.2849 0.0008 0.1057 0.019 0.2038 0.055 0.2934 0.0368 0.0898 0.087 0.1684 0.1522 0.2347 0.0672 0.0711 0.1443 0.1267 0.231 0.1672 0.0862 0.04 0.1814 0.0604 0.2849 0.0607zm-0.288-1.0678c0.0377-0.0335 0.0808-0.061 0.1295-0.0822 0.0485-0.0201 0.1015-0.0312 0.1585-0.0318 0.053 0.0006 0.1026 0.0117 0.1494 0.0318 0.0465 0.0212 0.089 0.0487 0.1267 0.0822 0.0374 0.0405 0.0666 0.0873 0.0862 0.14 0.0204 0.053 0.0306 0.11 0.0306 0.1718 0 0.0646-0.0102 0.1233-0.0306 0.1763-0.0196 0.0525-0.0488 0.0998-0.0862 0.142-0.0377 0.036-0.0802 0.0635-0.1267 0.0825-0.0468 0.019-0.0964 0.0284-0.1494 0.0284-0.057 0-0.11-0.009-0.1585-0.0284-0.0487-0.019-0.0918-0.0465-0.1295-0.0825-0.0343-0.0422-0.0615-0.0895-0.0802-0.142-0.0182-0.053-0.0278-0.1117-0.0278-0.1763 0-0.0618 0.01-0.1188 0.0278-0.1718 0.0187-0.0527 0.0459-0.0995 0.0802-0.14zm2.9401-0.1202c0.0558 0.0009 0.1063 0.0147 0.1519 0.0422 0.0451 0.0275 0.0817 0.0644 0.1086 0.1112 0.0275 0.0464 0.0417 0.0983 0.0422 0.1559v0.7109c0.0006 0.0292 0.008 0.0561 0.023 0.0799 0.0147 0.0241 0.0343 0.0431 0.0584 0.057 0.0244 0.0147 0.0513 0.0215 0.0805 0.0221 0.0295-0.0006 0.0561-0.007 0.0802-0.0221 0.0241-0.0139 0.0431-0.0329 0.057-0.057 0.0144-0.0238 0.0215-0.0507 0.0221-0.0799v-0.7109c-0.0006-0.0879-0.017-0.1696-0.0493-0.2458-0.0318-0.0754-0.0763-0.1423-0.1335-0.1998-0.057-0.0573-0.1228-0.1024-0.1982-0.135-0.0751-0.0326-0.1562-0.0493-0.2429-0.0496-0.0635 0-0.1236 0.008-0.1817 0.0252-0.0578 0.0165-0.1111 0.04-0.1599 0.0709-0.0493 0.0312-0.0921 0.068-0.1298 0.1111-0.0573-0.0652-0.127-0.1159-0.2075-0.1519s-0.1681-0.055-0.2636-0.0553c-0.057 0-0.1126 0.008-0.1667 0.0235-0.0547 0.0156-0.1063 0.038-0.1542 0.0667-0.0122-0.0287-0.0312-0.0511-0.0573-0.0667-0.0255-0.0153-0.0544-0.0235-0.0867-0.0235-0.0292 0.0003-0.0556 0.007-0.0797 0.0216-0.0241 0.0141-0.0433 0.0331-0.0572 0.0569-0.0142 0.0247-0.0213 0.0522-0.0221 0.0837v1.1793c0.0008 0.0269 0.006 0.0513 0.0178 0.0731 0.0114 0.0218 0.0264 0.04 0.0457 0.0544 0.0198 0.0148 0.0419 0.0256 0.0657 0.0315 0.004-0.001 0.009-0.001 0.0142-0.001 0.005 0.0008 0.01 0.001 0.0156 0.001 0.0323-0.0006 0.0618-0.01 0.0887-0.0281 0.0272-0.0178 0.0476-0.0405 0.0615-0.068v-0.015c0.003-0.003 0.004-0.006 0.006-0.009 0.0006-0.003 0.002-0.006 0.003-0.009v-0.009c0-0.003 0.0003-0.007 0.001-0.0108 0.0009-0.004 0.002-0.007 0.002-0.0102v-0.7109c0.0003-0.0576 0.0142-0.1095 0.0417-0.1559 0.0272-0.0468 0.0635-0.0837 0.1091-0.1112 0.0454-0.0275 0.0964-0.0413 0.1517-0.0422 0.0567 0.0009 0.108 0.0147 0.1542 0.0411 0.0465 0.0272 0.0833 0.0626 0.1111 0.108 0.0275 0.0448 0.0425 0.0955 0.0442 0.1511v0.7199c0.0003 0.0292 0.008 0.0561 0.023 0.0799 0.015 0.0241 0.0354 0.0431 0.0595 0.057 0.0241 0.0147 0.0507 0.0215 0.0791 0.0221 0.0295-0.0006 0.0564-0.007 0.0802-0.0221 0.0241-0.0139 0.0431-0.0329 0.057-0.057 0.0144-0.0238 0.0215-0.0507 0.0221-0.0799v-0.7199c0.002-0.0556 0.0176-0.1063 0.0451-0.1511 0.0283-0.0454 0.0652-0.0808 0.1111-0.108 0.0462-0.0264 0.0981-0.0402 0.1559-0.0411z"/></g></g></g></g></svg>
