<?xml version="1.0" encoding="UTF-8" standalone="no"?>
<svg style="image-rendering:optimizeQuality;text-rendering:geometricPrecision;shape-rendering:geometricPrecision" xmlns="http://www.w3.org/2000/svg" fill-rule="evenodd" xml:space="preserve" height="67.825" width="184" version="1.1" clip-rule="evenodd" viewBox="0 0 22.873989 8.4557324">
 <defs>
  <style type="text/css">
   <![CDATA[
    .fil0 {fill:#4F8ACC;fill-rule:nonzero}
    .fil1 {fill:#4F8BCC;fill-rule:nonzero}
   ]]>
  </style>
 </defs>
 <g fill-rule="nonzero" transform="matrix(.99743 0 0 .99743 -.032718 3.7902e-7)"><g fill="#4f8acc">
  <path d="m22.936 8.4775h-22.874c-0.034164 0-0.062067-0.0279-0.062067-0.0622v-7.1364c0-0.17153 0.13966-0.31075 0.31119-0.31075h22.377c0.17153 0 0.31075 0.13922 0.31075 0.31075v7.1364c0 0.034364-0.0279 0.062267-0.06227 0.062267zm-22.812-0.1245h22.749v-7.0742c0-0.1028-0.08341-0.18621-0.18621-0.18621h-22.376c-0.10295 0-0.18665 0.083414-0.18665 0.18621v7.0742z" class="fil0"/>
  <path d="m22.936 2.8309h-22.874c-0.034164 0-0.062067-0.0277-0.062067-0.0621 3e-7 -0.0345 0.027903-0.0623 0.062267-0.0623h22.874c0.03436 0 0.06227 0.027756 0.06227 0.062267 0 0.034364-0.0279 0.06212-0.06227 0.06212z" class="fil0"/>
  <path d="m5.0136 7.6936h-3.2676c-0.30986 0-0.56202-0.252-0.56202-0.56216v-3.2318c0-0.31016 0.25215-0.56216 0.56202-0.56216h3.2677c0.30972 0 0.56202 0.252 0.56202 0.56216v3.2318c0 0.31016-0.2523 0.56216-0.56202 0.56216zm-3.2676-4.2316c-0.24128 0-0.43763 0.19635-0.43763 0.43763v3.2318c0 0.24143 0.19635 0.43763 0.43763 0.43763h3.2677c0.24128 0 0.43748-0.1962 0.43748-0.43763v-3.2318c-0.0001-0.2413-0.1963-0.4376-0.4376-0.4376z" class="fil0"/>
  <path d="m20.549 6.9483h-12.748c-0.4134 0-0.74955-0.33586-0.74955-0.74926v-0.6912l-0.9929-0.5742c-0.0191-0.011-0.0312-0.0313-0.0312-0.0536 0-0.022175 0.012042-0.043029 0.031133-0.053602l0.9936-0.5738v-0.1658c0-0.4134 0.33615-0.7494 0.74955-0.7494h12.747c0.41325 0 0.74926 0.336 0.74926 0.7494v2.1122c0 0.4134-0.336 0.74926-0.74926 0.74926zm-14.335-2.0683l0.93106 0.53837c0.019238 0.011161 0.031133 0.03128 0.031133 0.053602v0.72708c0 0.34452 0.28035 0.62487 0.62516 0.62487h12.747c0.34452 0 0.62472-0.28035 0.62472-0.62487v-2.1122c0-0.34452-0.2802-0.62487-0.62472-0.62487h-12.747c-0.34482 0-0.62516 0.28035-0.62516 0.62487v0.20178c0 0.022322-0.011895 0.042588-0.031133 0.053602l-0.9315 0.5377z" class="fil0"/>
  <path d="m13.146 4.3459h-5.1294c-0.034364 0-0.062267-0.027902-0.062267-0.062267 0-0.034364 0.027902-0.062267 0.062267-0.062267h5.1292c0.03436 0 0.06227 0.027902 0.06227 0.062267 0 0.034364-0.0279 0.062267-0.06227 0.062267z" class="fil0"/>
  <path d="m19.324 4.3459h-1.1713c-0.03436 0-0.06227-0.027902-0.06227-0.062267 0-0.034364 0.0279-0.062267 0.06227-0.062267h1.1713c0.03436 0 0.06212 0.027902 0.06212 0.062267 0 0.034364-0.02776 0.062267-0.06212 0.062267zm-1.6272 0h-3.5025c-0.03436 0-0.06227-0.027902-0.06227-0.062267 0-0.034364 0.0279-0.062267 0.06227-0.062267h3.5025c0.03436 0 0.06227 0.027902 0.06227 0.062267 0 0.034364-0.0279 0.062267-0.06227 0.062267z" class="fil0"/>
  </g><g fill="#4f8acc">
   <path d="m4.7092 6.7064h-2.6587c-0.034364 0-0.062267-0.027756-0.062267-0.06212 0-0.58434 0.3692-1.1105 0.91829-1.3094 0.0319-0.0117 0.0682 0.0051 0.0798 0.0375 0.0116 0.0323-0.0051 0.0677-0.0372 0.0799-0.4806 0.1736-0.8097 0.6228-0.8348 1.1298h2.5312c-0.025-0.507-0.3542-0.9562-0.8348-1.1298-0.0321-0.0122-0.0489-0.0476-0.0373-0.0799 0.0118-0.0324 0.0475-0.0492 0.0798-0.0374 0.5492 0.1988 0.9183 0.725 0.9183 1.3093 0 0.034364-0.027756 0.06212-0.062268 0.06212z" class="fil0"/>
   <path d="m3.3802 5.6259c-0.41252 0-0.74823-0.336-0.74823-0.74823 0-0.41237 0.33571-0.74838 0.74823-0.74838 0.41237 0 0.74808 0.336 0.74808 0.74838 0 0.41222-0.33571 0.74823-0.74808 0.74823zm0-1.3721c-0.34408 0-0.62384 0.27976-0.62384 0.62384 0 0.34394 0.27976 0.6237 0.62384 0.6237 0.34379 0 0.62355-0.27976 0.62355-0.6237 0-0.34408-0.27976-0.62384-0.62355-0.62384z" class="fil0"/>
  </g><g fill="#4f8acc">
  <path d="m0.93708 2.2c-0.16595 0-0.30076-0.13511-0.30076-0.30105 0-0.16536 0.13481-0.30047 0.30076-0.30047 0.1658 0 0.30076 0.13511 0.30076 0.30047 0 0.16595-0.13496 0.30105-0.30076 0.30105zm0-0.47713c-0.097218 0-0.17637 0.079008-0.17637 0.17608 0 0.097218 0.079155 0.17667 0.17637 0.17667 0.097072 0 0.17623-0.079449 0.17623-0.17667 0-0.097071-0.079155-0.17608-0.17623-0.17608z" class="fil0"/>
  <path d="m1.8341 2.2c-0.16595 0-0.30076-0.13511-0.30076-0.30105 0-0.16536 0.13481-0.30047 0.30076-0.30047s0.30076 0.13511 0.30076 0.30047c0 0.16595-0.13481 0.30105-0.30076 0.30105zm0-0.47713c-0.097218 0-0.17637 0.079008-0.17637 0.17608 0 0.097218 0.079155 0.17667 0.17637 0.17667 0.097071 0 0.17623-0.079449 0.17623-0.17667 0-0.097071-0.079155-0.17608-0.17623-0.17608z" class="fil0"/>
  <path d="m2.7311 2.2c-0.16595 0-0.30076-0.13511-0.30076-0.30105 0-0.16536 0.13481-0.30047 0.30076-0.30047s0.30076 0.13511 0.30076 0.30047c0 0.16595-0.13481 0.30105-0.30076 0.30105zm0-0.47713c-0.097218 0-0.17637 0.079008-0.17637 0.17608 0 0.097218 0.079155 0.17667 0.17637 0.17667 0.097072 0 0.17623-0.079449 0.17623-0.17667 0-0.097071-0.079155-0.17608-0.17623-0.17608z" class="fil0"/>
  <path d="m21.236 2.2h-17.571c-0.034364 0-0.062267-0.027756-0.062267-0.062267v-0.4769c0-0.034511 0.027903-0.062267 0.062267-0.062267h17.571c0.03451 0 0.06227 0.027756 0.06227 0.062267v0.47699c0 0.034511-0.02776 0.062267-0.06227 0.062267zm-17.509-0.1243h17.447v-0.3528h-17.447z" class="fil0"/>
  </g><g fill="#4f8acc">
   <path d="m8.3913 5.2438c-0.0258-0.0005-0.0505 0.002-0.0738 0.0075-0.0235 0.0053-0.0453 0.0124-0.066 0.0217-0.02 0.0094-0.0391 0.0197-0.0562 0.0314-0.0053 0.0037-0.0109 0.0088-0.0168 0.0143-0.0056 0.0057-0.011 0.0111-0.0158 0.0167v-0.0109c-0.0002-0.0152-0.004-0.0287-0.0118-0.0408-0.0075-0.0122-0.0179-0.0219-0.0305-0.0291-0.013-0.0069-0.0272-0.0105-0.0432-0.0108-0.0151 0.0003-0.0288 0.0039-0.0413 0.0108-0.0125 0.0072-0.0224 0.0169-0.0296 0.0291-0.0074 0.0121-0.011 0.0256-0.0115 0.0408v0.61239c0.0004406 0.015126 0.00411 0.029077 0.011455 0.041413 0.0072 0.012483 0.017182 0.022322 0.029665 0.029518 0.012483 0.00764 0.02614 0.011161 0.041266 0.011455 0.016-0.0003 0.0302-0.0038 0.0432-0.0114 0.0126-0.0072 0.023-0.0171 0.0305-0.0296 0.0078-0.0123 0.0116-0.0262 0.0118-0.0414v-0.2953c0.0026-0.0076 0.0066-0.0184 0.0119-0.0325 0.005-0.0142 0.0119-0.0296 0.0207-0.0469 0.0085-0.0172 0.0186-0.0343 0.0311-0.0512 0.0096-0.0146 0.0201-0.0287 0.0317-0.0414 0.0118-0.0126 0.0251-0.0239 0.04-0.0332 0.0132-0.0101 0.0274-0.0176 0.0428-0.0221 0.0158-0.005 0.0325-0.0074 0.0504-0.0074 0.0156-0.0003 0.0297-0.0041 0.042-0.0117 0.0124-0.0074 0.0222-0.0175 0.0294-0.03 0.007-0.0123 0.0106-0.026 0.0109-0.0407-0.0003-0.0152-0.0039-0.0287-0.0109-0.0408-0.0072-0.0122-0.017-0.0219-0.0294-0.0291-0.0123-0.0069-0.0264-0.0105-0.042-0.0108zm0.46304 0.77554c0.055218 0 0.10574-0.00822 0.152-0.025112 0.0462-0.0169 0.0883-0.0424 0.1262-0.0774 0.0119-0.0112 0.0185-0.023 0.0207-0.0361 0.0018-0.0126 0.0006-0.0248-0.0038-0.0364-0.004-0.0115-0.0099-0.021-0.0169-0.0285-0.005-0.0063-0.0126-0.0112-0.0219-0.0147-0.0095-0.0037-0.0201-0.005-0.0316-0.0054-0.011455 0-0.02291 0.0022-0.033777 0.00602-0.0109 0.0038-0.0208 0.01-0.0292 0.0186-0.0132 0.0099-0.0286 0.0179-0.0465 0.0241-0.0182 0.0066-0.037 0.0107-0.057 0.0132-0.0198 0.0027-0.0391 0.0033-0.0581 0.0016-0.0183-0.0016-0.0366-0.0058-0.0556-0.012-0.0186-0.0063-0.0359-0.0144-0.0522-0.0242-0.0166-0.0099-0.0301-0.0213-0.0415-0.0337-0.0138-0.0138-0.0252-0.0295-0.0337-0.048-0.009-0.018-0.0152-0.0364-0.019-0.0546h0.4942c0.0222-0.0003 0.0405-0.0059 0.0549-0.0172 0.0144-0.011 0.0232-0.026 0.0259-0.0449 0.0008811-0.00176 0.00147-0.00411 0.00147-0.00705 0.0002937-0.00294 0.0002937-0.00514 0.0002937-0.0069v-0.00441-0.00338c-0.0036-0.0526-0.0153-0.1012-0.0355-0.1449-0.0201-0.0442-0.0471-0.0821-0.0809-0.1144-0.0338-0.032-0.0724-0.0568-0.1164-0.0746-0.0436-0.0177-0.0912-0.0267-0.142-0.0268-0.053455 0.0001469-0.10309 0.01072-0.14876 0.031133-0.045819 0.020266-0.085764 0.048169-0.12013 0.084001-0.034071 0.035686-0.060945 0.076952-0.080183 0.1235-0.019532 0.0467-0.029371 0.096484-0.030105 0.14994 0.0007343 0.053015 0.010574 0.10309 0.030105 0.14979 0.019238 0.046553 0.046113 0.087526 0.080183 0.12321 0.034364 0.035539 0.074309 0.063295 0.12013 0.083855 0.045672 0.020266 0.095309 0.030987 0.14876 0.03172zm0-0.62957c0.033924 0.00279 0.064029 0.01028 0.09105 0.021441 0.026728 0.011455 0.049784 0.025553 0.068728 0.041707 0.019532 0.016448 0.035099 0.03363 0.046847 0.051253 0.011748 0.017769 0.019679 0.034658 0.02335 0.050518h-0.4397c0.0033-0.0164 0.0097-0.0334 0.0196-0.0519 0.0098-0.0181 0.0233-0.0356 0.0407-0.052 0.017-0.0165 0.038-0.0303 0.0628-0.0414 0.025-0.0112 0.0538-0.0178 0.0867-0.0196zm1.3633 0.018651c0.02893 0.0004406 0.05507 0.00764 0.07871 0.021881 0.02335 0.014245 0.04229 0.033336 0.05625 0.057567 0.01425 0.024084 0.02173 0.050959 0.02188 0.08077v0.36831c0.000293 0.015126 0.0041 0.029077 0.0119 0.041413 0.0076 0.012483 0.01777 0.022322 0.03025 0.029518 0.01278 0.00764 0.02658 0.011161 0.04171 0.011455 0.01527-0.0002937 0.02908-0.00382 0.04156-0.011455 0.01248-0.0072 0.02232-0.017035 0.02937-0.029518 0.0076-0.012336 0.01131-0.026287 0.0116-0.041413v-0.3683c-0.000294-0.045525-0.0088-0.08782-0.02555-0.12732-0.01645-0.039064-0.0395-0.073721-0.06902-0.10353-0.02966-0.029665-0.06373-0.053015-0.1028-0.069903-0.03892-0.016888-0.08092-0.025553-0.12586-0.0257-0.0329 0-0.06403 0.00441-0.09413 0.01307-0.02981 0.00852-0.05757 0.020707-0.08283 0.036714-0.026 0.0162-0.0481 0.0353-0.0676 0.0576-0.0297-0.0338-0.0658-0.0601-0.1075-0.0787-0.0417-0.0187-0.0871-0.0285-0.1366-0.0286-0.029518 0-0.058302 0.00426-0.086351 0.012189-0.0283 0.008-0.055 0.0196-0.0798 0.0345-0.0063-0.0149-0.0162-0.0265-0.0297-0.0346-0.0132-0.0079-0.0282-0.0121-0.0449-0.0121-0.015126 0.0001469-0.028784 0.00382-0.041266 0.011161-0.012483 0.00734-0.022469 0.017182-0.029665 0.029518-0.00734 0.012776-0.011014 0.027021-0.011455 0.043322v0.24113 0.00132 0.36831c0.0004406 0.013951 0.00323 0.026581 0.00925 0.037889s0.013511 0.020707 0.023791 0.028196c0.010133 0.00764 0.021588 0.013217 0.033924 0.016301 0.0022-0.0007343 0.0047-0.0007343 0.00734-0.0007343 0.00235 0.0004406 0.00514 0.0007343 0.00808 0.0007343 0.016742-0.0002937 0.031868-0.00514 0.045966-0.014539 0.014098-0.00925 0.024672-0.021 0.031868-0.035245v-0.00441-0.00338c0.00162-0.00147 0.0022-0.00308 0.00294-0.00455 0.0004406-0.00162 0.0008812-0.00308 0.00176-0.0047v-0.00176-0.00294c0-0.00147 0.0001468-0.00338 0.0007343-0.00558 0.0005874-0.00191 0.0008811-0.00367 0.0008811-0.00529v-0.36831c0.0001469-0.029812 0.00734-0.056686 0.021588-0.080771 0.014098-0.024231 0.032896-0.043322 0.056539-0.057567 0.023497-0.014245 0.049931-0.021441 0.078568-0.021882 0.029518 0.0004406 0.055952 0.00764 0.079889 0.021294 0.024231 0.014098 0.043176 0.032455 0.057567 0.055952 0.014245 0.023203 0.022028 0.04949 0.022909 0.078274v0.0047 0.36831c0.0001469 0.015126 0.00441 0.029077 0.011895 0.041413 0.00778 0.012483 0.018357 0.022322 0.03084 0.029518 0.012483 0.00764 0.026287 0.011161 0.040973 0.011455 0.015273-0.0002937 0.029224-0.00382 0.04156-0.011455 0.01248-0.0072 0.02232-0.017035 0.02937-0.029518 0.0076-0.012336 0.01131-0.026287 0.0116-0.041413v-0.36831-0.0047c0.0013-0.028784 0.0091-0.055071 0.02335-0.078274 0.01469-0.023497 0.03392-0.041854 0.05757-0.055952 0.02394-0.013658 0.05096-0.020854 0.08077-0.021294zm0.93532 0.61547c0.05199-0.0001469 0.09986-0.01072 0.14436-0.031427 0.0445-0.021 0.08268-0.049784 0.11528-0.086645 0.0351-0.034364 0.06168-0.075043 0.08033-0.1216 0.01865-0.046406 0.0282-0.097218 0.02834-0.152-0.000147-0.052721-0.0097-0.10206-0.02834-0.14759-0.01865-0.045525-0.04523-0.086938-0.08033-0.12424-0.0326-0.036861-0.07078-0.065791-0.11528-0.086498-0.0445-0.020854-0.09237-0.031574-0.14436-0.031721-0.05345 0.0001469-0.10265 0.010867-0.14759 0.031721-0.04464 0.020707-0.08459 0.049637-0.11969 0.086498-0.03348 0.037301-0.05977 0.078715-0.07857 0.12424-0.01865 0.045525-0.0282 0.094869-0.02849 0.14759 0.000294 0.054777 0.0098 0.10559 0.02849 0.152 0.0188 0.046553 0.04508 0.087232 0.07857 0.1216 0.0351 0.036861 0.07504 0.065644 0.11969 0.086645 0.04494 0.020707 0.09413 0.03128 0.14759 0.031427zm-0.149-0.5532c0.01953-0.017329 0.04215-0.031574 0.06726-0.042588 0.02496-0.010427 0.05243-0.016154 0.08194-0.016448 0.02746 0.0002937 0.05316 0.00602 0.07769 0.016448 0.02408 0.011014 0.04611 0.025259 0.0652 0.042588 0.01938 0.021 0.03451 0.045232 0.04494 0.072547 0.01057 0.027462 0.01586 0.05698 0.01586 0.088994 0 0.033483-0.0053 0.063882-0.01586 0.091344-0.01043 0.027168-0.02555 0.051693-0.04494 0.073575-0.01909 0.018651-0.04112 0.032896-0.0652 0.042735-0.02453 0.00984-0.05023 0.014686-0.07769 0.014686-0.02952 0-0.05698-0.00485-0.08194-0.014686-0.02511-0.00984-0.04773-0.024084-0.06726-0.042735-0.01777-0.021882-0.03187-0.046406-0.04127-0.073575-0.0095-0.027462-0.01469-0.057861-0.01469-0.091344 0-0.032015 0.0051-0.061532 0.01469-0.088994 0.0094-0.027315 0.0235-0.051546 0.04127-0.072547zm0.945-0.2285h-0.03877v-0.22542c-0.00044-0.016154-0.004-0.030693-0.01131-0.043469-0.0078-0.012923-0.01762-0.023056-0.03084-0.030399-0.01248-0.00778-0.02702-0.011308-0.04347-0.011455-0.01615 0.0001469-0.03069 0.00367-0.04391 0.011455-0.01307 0.00734-0.0232 0.017476-0.03099 0.030399-0.0079 0.012776-0.01175 0.027315-0.01219 0.043469v0.22542h-0.04479c-0.01659 0.0001469-0.03084 0.00382-0.04362 0.011455-0.01292 0.00734-0.02306 0.017623-0.03069 0.030546-0.0073 0.012776-0.01101 0.027168-0.01145 0.043469 0.00044 0.01586 0.0041 0.030105 0.01145 0.042735 0.0076 0.01307 0.01777 0.02335 0.03069 0.03084 0.01278 0.00778 0.02702 0.011748 0.04362 0.012042h0.04479v0.43352c0.000734 0.031868 0.0085 0.060798 0.02379 0.086645 0.01542 0.02614 0.03627 0.046847 0.06212 0.06212 0.02585 0.015567 0.05492 0.023056 0.08679 0.023791 0.0163-0.0002937 0.03069-0.00382 0.04347-0.011455 0.01292-0.00749 0.02306-0.017769 0.03055-0.030546 0.0076-0.01263 0.01116-0.027168 0.01145-0.043469-0.000294-0.016448-0.0038-0.03084-0.01145-0.044057-0.0075-0.012923-0.01762-0.02335-0.03055-0.031133-0.01278-0.00764-0.02717-0.011602-0.04347-0.011895v-0.43352h0.03877c0.01571-0.0002937 0.03025-0.00426 0.04332-0.012042 0.01322-0.00749 0.02364-0.017769 0.03157-0.03084 0.0076-0.01263 0.0119-0.026875 0.01204-0.042735-0.000146-0.016301-0.0044-0.030693-0.01204-0.043469-0.0079-0.012923-0.01836-0.023203-0.03157-0.030546-0.01307-0.00764-0.02761-0.011308-0.04332-0.011455zm0.55188 0.77716c0.05522 0 0.10574-0.00822 0.152-0.025112 0.04611-0.016888 0.08811-0.042441 0.12615-0.077393 0.01175-0.011161 0.0185-0.023056 0.02056-0.036126 0.0018-0.01263 0.000734-0.024819-0.0037-0.03642-0.0043-0.011455-0.0098-0.021-0.01689-0.02849-0.0051-0.00631-0.01263-0.011161-0.02203-0.014685-0.0097-0.00367-0.02027-0.00499-0.03172-0.00543-0.01116 0-0.02262 0.0022-0.03348 0.00602-0.01116 0.00382-0.021 0.00999-0.02922 0.018651-0.01322 0.00984-0.02893 0.017916-0.04685 0.024084-0.01792 0.00661-0.03701 0.01072-0.05683 0.013217-0.01968 0.00264-0.03906 0.00323-0.05801 0.00162-0.01836-0.00162-0.03686-0.00587-0.05566-0.012042-0.01865-0.00631-0.03613-0.014392-0.05243-0.024231-0.0163-0.00984-0.03011-0.021294-0.04112-0.03363-0.01395-0.013804-0.02541-0.029518-0.03407-0.048022-0.0087-0.018063-0.01483-0.03642-0.01894-0.05463h0.49446c0.02203-0.0002937 0.04024-0.00587 0.05492-0.017182 0.01439-0.011014 0.0232-0.025993 0.02585-0.044938 0.000588-0.00176 0.0012-0.00411 0.0012-0.00705 0.000294-0.00294 0.000294-0.00514 0.000294-0.0069v-0.00441-0.00338c-0.0032-0.052574-0.01527-0.10118-0.0351-0.1448-0.02027-0.044204-0.04714-0.082092-0.08092-0.1144-0.03407-0.032014-0.07255-0.056833-0.11646-0.074603-0.04391-0.017769-0.0912-0.026728-0.14201-0.026875-0.05375 0.0001469-0.10309 0.01072-0.14891 0.031133-0.04567 0.020266-0.08591 0.048169-0.11998 0.084001-0.03436 0.035686-0.06124 0.076952-0.08048 0.1235-0.01924 0.0467-0.02908 0.096484-0.02981 0.14994 0.000735 0.053015 0.01057 0.10309 0.02981 0.14979 0.01924 0.046553 0.04611 0.087526 0.08048 0.12321 0.03407 0.035539 0.07431 0.063295 0.11998 0.083855 0.04582 0.020266 0.09516 0.030987 0.14891 0.03172zm0-0.62957c0.03392 0.00279 0.06403 0.01028 0.0909 0.021441 0.02658 0.011455 0.04978 0.025553 0.06888 0.041707 0.01953 0.016448 0.03495 0.03363 0.04655 0.051253 0.01204 0.017769 0.01968 0.034658 0.02364 0.050518h-0.441c0.0034-0.016448 0.0097-0.033483 0.01953-0.051987 0.0098-0.018063 0.02364-0.035539 0.04068-0.051987s0.03818-0.030252 0.063-0.041413c0.02497-0.011161 0.0539-0.017769 0.08679-0.019532zm1.2525 0.25494h-0.01542v-0.62913-0.0047c0-0.00147-0.000294-0.00294-0.000734-0.00382-0.000587-0.00132-0.000734-0.00264-0.000734-0.00397 0-0.00235 0-0.00411-0.000294-0.00543 0-0.00132-0.000587-0.0025-0.0015-0.00411 0-0.0007343-0.000146-0.00176-0.000734-0.00308-0.00044-0.00117-0.000734-0.00206-0.000734-0.00308-0.000881-0.00206-0.0012-0.00397-0.0015-0.00529-0.00044-0.00117-0.000734-0.00264-0.0016-0.00411-0.000734-0.0007343-0.0016-0.00176-0.0021-0.00308-0.000734-0.00103-0.0012-0.00206-0.0012-0.00308-0.0013-0.00206-0.0028-0.00382-0.0035-0.00485-0.001-0.00132-0.0019-0.0022-0.0026-0.00294-0.000587-0.0007343-0.0015-0.00176-0.0022-0.00323-0.000734-0.00117-0.0016-0.0022-0.0025-0.00294-0.000735-0.0007342-0.0015-0.00162-0.0025-0.00264-0.000881-0.0007342-0.0021-0.00206-0.0037-0.00367 0-0.0007342-0.000734-0.00147-0.0018-0.0022-0.001-0.0005874-0.0021-0.0008811-0.0028-0.0008811 0-0.0008812-0.000293-0.00132-0.000734-0.00132-0.000734-0.0001469-0.000881-0.0001469-0.000881-0.0001469-0.0016-0.0008811-0.0028-0.00162-0.0038-0.00235-0.001-0.0007342-0.0025-0.00162-0.004-0.0025-0.000882-0.0007343-0.0019-0.00147-0.0032-0.00264-0.0015-0.0005874-0.0031-0.00191-0.0044-0.00352-0.000881 0-0.0019-0.0001469-0.0032-0.0008812-0.0012-0.0002937-0.0022-0.0005874-0.0031-0.0005874-0.0015-0.0007343-0.0034-0.00132-0.0051-0.00162-0.0018-0.0001469-0.0034-0.0007343-0.0043-0.00147-0.0016 0.0007343-0.0028 0.00103-0.0038 0.00103s-0.0023-0.0002937-0.004-0.00103h-0.004-0.0053-0.0016-0.0016-0.0019-0.001-0.0054-0.0054-0.0032-0.0029c-0.0023 0.0007343-0.0043 0.00132-0.0059 0.00147-0.0016 0.0002937-0.0028 0.0008811-0.0037 0.00162-0.0015 0-0.0026 0.0002937-0.0035 0.00103-0.001 0.0007343-0.0018 0.00206-0.0026 0.00367-0.0022 0-0.0038 0.0002937-0.0051 0.00103-0.0012 0.0004405-0.0026 0.00117-0.0041 0.00191-0.000735 0.0008811-0.0018 0.00176-0.0032 0.0025-0.0012 0.0007343-0.0024 0.00147-0.0029 0.00235-0.000734 0.0005874-0.0016 0.00147-0.0026 0.00235-0.0013 0.0007343-0.0028 0.00147-0.0051 0.0022-0.000734 0.00162-0.0016 0.00294-0.0025 0.00367-0.000734 0.00103-0.0013 0.00191-0.0022 0.00264-0.000734 0.00147-0.0013 0.0025-0.0015 0.00338-0.000294 0.0005874-0.000882 0.00132-0.0018 0.00132l-0.57494 0.71489c-0.0098 0.012483-0.01571 0.026434-0.01821 0.040826-0.0022 0.014832-0.000734 0.029077 0.0048 0.043029 0.0054 0.013804 0.01454 0.025553 0.02731 0.035833 0.0078 0.0069 0.01645 0.011602 0.02555 0.014392 0.0088 0.00279 0.01792 0.00426 0.02746 0.00426h0.000735 0.000734 0.000587 0.000881 0.48638v0.11807c0.000294 0.016301 0.0043 0.03084 0.0116 0.043469 0.0073 0.012776 0.01762 0.023056 0.0304 0.030546 0.01278 0.00764 0.02731 0.011161 0.04347 0.011455 0.01645-0.0002937 0.03099-0.00382 0.04362-0.011455 0.01307-0.00749 0.02306-0.017769 0.03069-0.030546 0.0073-0.01263 0.01101-0.027168 0.01131-0.043469v-0.1181h0.01542c0.0163-0.0002937 0.03099-0.00411 0.0442-0.011455 0.01278-0.00749 0.02335-0.017623 0.03113-0.030546 0.0078-0.012776 0.0116-0.027168 0.01175-0.043469-0.000147-0.01586-0.004-0.030105-0.01175-0.043029-0.0078-0.012776-0.01836-0.023056-0.03113-0.030546-0.01322-0.00778-0.0279-0.011748-0.0442-0.012042zm-0.18651 0h-0.30913l0.30913-0.38388zm1.2591-0.23629c0.02878 0.0004406 0.05507 0.00764 0.07857 0.021881 0.02364 0.014245 0.04244 0.033336 0.05654 0.057567 0.01425 0.024084 0.02144 0.050959 0.02159 0.08077v0.36831c0.00044 0.015126 0.0043 0.029077 0.01219 0.041413 0.0073 0.012483 0.01762 0.022322 0.03025 0.029518 0.01248 0.00764 0.02643 0.011161 0.04171 0.011455 0.01527-0.0002937 0.02878-0.00382 0.04141-0.011455 0.01248-0.0072 0.02232-0.017035 0.02952-0.029518 0.0073-0.012336 0.01101-0.026287 0.01145-0.041413v-0.36831c-0.000441-0.045525-0.0088-0.08782-0.02541-0.12732-0.01674-0.039064-0.0398-0.073721-0.06932-0.10353-0.02937-0.029665-0.06374-0.053015-0.1028-0.069903-0.03877-0.016888-0.08092-0.025553-0.12571-0.0257-0.03275 0-0.06403 0.00441-0.09413 0.01307-0.02996 0.00852-0.05742 0.020707-0.08297 0.036714-0.02526 0.016154-0.04758 0.035245-0.06697 0.057567-0.02996-0.033777-0.06579-0.060064-0.1075-0.078715s-0.08723-0.02849-0.13658-0.028637c-0.02952 0-0.05859 0.00426-0.0865 0.012189-0.0282 0.00808-0.05492 0.019679-0.07974 0.034511-0.0065-0.014832-0.0163-0.026434-0.02996-0.034511-0.01322-0.00793-0.02805-0.012189-0.04464-0.012189-0.01527 0.0001469-0.02908 0.00382-0.04156 0.011161-0.01248 0.00734-0.02232 0.017182-0.02937 0.029518-0.0075 0.012776-0.01131 0.027021-0.0116 0.043322v0.24113 0.00132 0.36831c0.000293 0.013951 0.0032 0.026581 0.0091 0.037889 0.006 0.011308 0.0138 0.020707 0.02379 0.028196 0.01028 0.00764 0.02159 0.013217 0.03392 0.016301 0.0025-0.0007343 0.0048-0.0007343 0.0075-0.0007343 0.0022 0.0004406 0.005 0.0007343 0.0082 0.0007343 0.0166-0.0002937 0.03187-0.00514 0.04567-0.014539 0.0141-0.00925 0.02467-0.021 0.03187-0.035245v-0.00441-0.00338c0.0016-0.00147 0.0025-0.00308 0.0031-0.00455 0.000294-0.00162 0.001-0.00308 0.0018-0.0047v-0.00176-0.00294c0-0.00147 0.000294-0.00338 0.000588-0.00558 0.000587-0.00191 0.000881-0.00367 0.000881-0.00529v-0.36831c0.000293-0.029812 0.0076-0.056686 0.02188-0.080771 0.01395-0.024231 0.0329-0.043322 0.05625-0.057567 0.02379-0.014245 0.05022-0.021441 0.07886-0.021882 0.02922 0.0004406 0.05595 0.00764 0.07989 0.021294 0.02394 0.014098 0.04288 0.032455 0.05742 0.055952 0.01424 0.023203 0.02188 0.04949 0.02276 0.078274v0.0047 0.36831c0.000293 0.015126 0.0044 0.029077 0.01219 0.041413 0.0078 0.012483 0.01821 0.022322 0.03069 0.029518 0.01263 0.00764 0.02614 0.011161 0.04112 0.011455 0.01527-0.0002937 0.02908-0.00382 0.04141-0.011455 0.01248-0.0072 0.02232-0.017035 0.02952-0.029518 0.0073-0.012336 0.01101-0.026287 0.01145-0.041413v-0.36831-0.0047c0.0012-0.028784 0.0093-0.055071 0.02335-0.078274 0.01454-0.023497 0.03378-0.041854 0.05771-0.055952 0.02379-0.013658 0.05067-0.020854 0.08062-0.021294zm0.92137 0.61092c0.05522 0 0.10574-0.00822 0.152-0.025112 0.04611-0.016888 0.08826-0.042441 0.1263-0.077393 0.01175-0.011161 0.01836-0.023056 0.02056-0.036126 0.0018-0.01263 0.000587-0.024819-0.0037-0.03642-0.0041-0.011455-0.01-0.021-0.01689-0.02849-0.0051-0.00631-0.01278-0.011161-0.02203-0.014685-0.0095-0.00367-0.02012-0.00499-0.03172-0.00543-0.01131 0-0.02262 0.0022-0.03363 0.00602s-0.02085 0.00999-0.02922 0.018651c-0.01322 0.00984-0.02864 0.017916-0.04655 0.024084-0.01821 0.00661-0.03715 0.01072-0.05698 0.013217-0.01983 0.00264-0.03906 0.00323-0.05815 0.00162-0.01821-0.00162-0.03657-0.00587-0.05551-0.012042-0.01865-0.00631-0.03613-0.014392-0.05228-0.024231-0.0166-0.00984-0.03011-0.021294-0.04141-0.03363-0.0138-0.013804-0.02526-0.029518-0.03392-0.048022-0.0088-0.018063-0.01498-0.03642-0.0188-0.05463h0.49417c0.02203-0.0002937 0.04053-0.00587 0.05492-0.017182 0.01439-0.011014 0.0232-0.025993 0.02585-0.044938 0.000734-0.00176 0.0015-0.00411 0.0015-0.00705 0.000147-0.00294 0.000147-0.00514 0.000147-0.0069v-0.00441-0.00338c-0.0034-0.052574-0.01513-0.10118-0.03525-0.1448-0.02012-0.044204-0.04714-0.082092-0.08092-0.1144-0.03392-0.032014-0.0724-0.056833-0.11646-0.074603-0.04362-0.017769-0.09105-0.026728-0.14201-0.026875-0.05345 0.0001469-0.10309 0.01072-0.14876 0.031133-0.04582 0.020266-0.08576 0.048169-0.11998 0.084001-0.03422 0.035686-0.06109 0.076952-0.08033 0.1235-0.01953 0.0467-0.02937 0.096484-0.0301 0.14994 0.000734 0.053015 0.01057 0.10309 0.0301 0.14979 0.01924 0.046553 0.04611 0.087526 0.08033 0.12321 0.03422 0.035539 0.07416 0.063295 0.11998 0.083855 0.04567 0.020266 0.09531 0.030987 0.14876 0.031721zm0-0.62957c0.03407 0.00279 0.06403 0.01028 0.09105 0.021441 0.02673 0.011455 0.04978 0.025553 0.06873 0.041707 0.01953 0.016448 0.0351 0.03363 0.04685 0.051253 0.01175 0.017769 0.01968 0.034658 0.02335 0.050518h-0.43968c0.0032-0.016448 0.0097-0.033483 0.01953-0.051987 0.0098-0.018063 0.02335-0.035539 0.04068-0.051987 0.01703-0.016448 0.03804-0.030252 0.06285-0.041413 0.02497-0.011161 0.05375-0.017769 0.08664-0.019532zm0.45437 0.52545c0.000441 0.021441 0.0054 0.040973 0.01586 0.058008 0.01 0.017329 0.02394 0.031133 0.04127 0.041413 0.01703 0.010133 0.03657 0.015273 0.05801 0.015567 0.02144-0.0002937 0.04097-0.00543 0.0586-0.015567 0.01762-0.01028 0.03143-0.024084 0.04185-0.041413 0.01043-0.017035 0.01586-0.036567 0.01601-0.058008-0.000147-0.021441-0.0056-0.040973-0.01601-0.058595-0.01043-0.017623-0.02423-0.031574-0.04185-0.041854-0.01762-0.010427-0.03715-0.01586-0.0586-0.016154-0.02144 0.0002937-0.04097 0.00573-0.05801 0.016154-0.01733 0.01028-0.03128 0.024231-0.04127 0.041854-0.01043 0.017623-0.01542 0.037154-0.01586 0.058595zm0.69433 0.10412c-0.05419-0.0002937-0.10471-0.010574-0.15214-0.030546-0.04758-0.019972-0.08929-0.047728-0.12556-0.08312-0.03657-0.035392-0.06506-0.076512-0.08547-0.12321-0.02085-0.046553-0.03113-0.096484-0.03157-0.15023 0.000441-0.054337 0.01072-0.10486 0.03157-0.15185 0.02041-0.0467 0.0489-0.088113 0.08547-0.12365 0.03627-0.035539 0.07798-0.063148 0.12556-0.083267 0.04743-0.020119 0.09795-0.030399 0.15214-0.03128 0.0467 0.0001469 0.09149 0.00822 0.13334 0.023644 0.04215 0.015273 0.08004 0.03598 0.11381 0.061826 0.01175 0.00969 0.02041 0.021294 0.02585 0.034658 0.0051 0.013658 0.0072 0.027315 0.0056 0.04156-0.0012 0.014245-0.0063 0.027168-0.01439 0.038917-0.01072 0.012336-0.02247 0.021147-0.03598 0.026581-0.01366 0.00543-0.02746 0.00734-0.04141 0.00543-0.0141-0.00176-0.02717-0.0072-0.03921-0.016595-0.02012-0.015126-0.04274-0.026875-0.06726-0.03598-0.02496-0.00896-0.05155-0.013364-0.08033-0.013804-0.03157 0.0004406-0.06153 0.00631-0.08929 0.01821-0.02761 0.011895-0.05184 0.028343-0.07284 0.04905-0.02129 0.020707-0.03804 0.044204-0.04978 0.071225-0.0119 0.026728-0.01792 0.055218-0.01806 0.085323 0.000147 0.030105 0.0062 0.058595 0.01806 0.085323 0.01175 0.026581 0.02849 0.050225 0.04978 0.070784 0.021 0.020707 0.04523 0.036714 0.07284 0.048169 0.02776 0.011895 0.05772 0.017769 0.08929 0.018063 0.0279-0.0002937 0.05463-0.00485 0.07945-0.013658 0.02497-0.0091 0.04773-0.021147 0.06814-0.03598 0.01175-0.00881 0.02423-0.014098 0.03848-0.015567 0.0141-0.00162 0.02776 0.0001469 0.04156 0.00573 0.01366 0.00543 0.02585 0.014392 0.03657 0.026875 0.0081 0.011602 0.01322 0.024378 0.01439 0.038036 0.0016 0.013804-0.00044 0.027462-0.0056 0.040973-0.0054 0.013511-0.0141 0.025259-0.02585 0.03598-0.03378 0.024672-0.07167 0.04435-0.11381 0.05933-0.04185 0.014979-0.08665 0.022322-0.13334 0.023057z" class="fil0"/>
   <path d="m17.688 6.0239c0.05169-0.0001469 0.09957-0.01072 0.14436-0.031427 0.0445-0.021 0.08283-0.049784 0.11514-0.086645 0.03539-0.034364 0.06197-0.075043 0.08062-0.1216 0.01865-0.046406 0.02805-0.097218 0.0282-0.152-0.000147-0.052721-0.0095-0.10206-0.0282-0.14759-0.01865-0.045525-0.04523-0.086938-0.08062-0.12424-0.03231-0.036861-0.07064-0.065791-0.11514-0.086498-0.04479-0.020854-0.09267-0.031574-0.14436-0.031721-0.0536 0.0001469-0.10295 0.010867-0.14759 0.031721-0.04494 0.020707-0.08488 0.049637-0.11969 0.086498-0.03378 0.037301-0.05977 0.078715-0.07886 0.12424-0.01865 0.045525-0.02805 0.094869-0.02849 0.14759 0.00044 0.054777 0.0098 0.10559 0.02849 0.152 0.01909 0.046553 0.04508 0.087232 0.07886 0.1216 0.0348 0.036861 0.07475 0.065644 0.11969 0.086645 0.04464 0.020707 0.09399 0.03128 0.14759 0.031427zm-0.149-0.5532c0.01953-0.017329 0.04185-0.031574 0.06711-0.042588 0.02511-0.010427 0.05257-0.016154 0.08209-0.016448 0.02746 0.0002937 0.05316 0.00602 0.07739 0.016448 0.02408 0.011014 0.04611 0.025259 0.06564 0.042588 0.01938 0.021 0.03451 0.045231 0.04464 0.072547 0.01057 0.027462 0.01586 0.05698 0.01586 0.088994 0 0.033483-0.0053 0.063882-0.01586 0.091344-0.01013 0.027168-0.02526 0.051693-0.04464 0.073575-0.01953 0.018651-0.04156 0.032896-0.06564 0.042735-0.02423 0.00984-0.04993 0.014685-0.07739 0.014685-0.02952 0-0.05698-0.00485-0.08209-0.014685-0.02526-0.00984-0.04758-0.024084-0.06711-0.042735-0.01777-0.021882-0.03187-0.046406-0.04156-0.073575-0.0094-0.027462-0.01439-0.057861-0.01439-0.091344 0-0.032015 0.005-0.061532 0.01439-0.088994 0.0097-0.027315 0.02379-0.051546 0.04156-0.072547zm1.5232-0.062267c0.02893 0.0004406 0.05507 0.00764 0.07871 0.021881 0.02335 0.014245 0.04229 0.033336 0.05625 0.057567 0.01425 0.024084 0.02159 0.050959 0.02188 0.08077v0.3683c0.000293 0.015126 0.0041 0.029077 0.01189 0.041413 0.0076 0.012483 0.01777 0.022322 0.03025 0.029518 0.01263 0.00764 0.02658 0.011161 0.04171 0.011455 0.01527-0.0002937 0.02908-0.00382 0.04156-0.011455 0.01248-0.0072 0.02232-0.017035 0.02952-0.029518 0.0075-0.012336 0.01116-0.026287 0.01146-0.041413v-0.3683c-0.000294-0.045525-0.0088-0.08782-0.02555-0.12732-0.01645-0.039064-0.0395-0.073721-0.06917-0.10353-0.02952-0.029665-0.06359-0.053015-0.10265-0.069903-0.03892-0.016888-0.08092-0.025553-0.12586-0.0257-0.0329 0-0.06403 0.00441-0.09413 0.01307-0.02996 0.00852-0.05757 0.020707-0.08283 0.036714-0.02555 0.016154-0.04773 0.035245-0.06726 0.057567-0.03-0.0338-0.066-0.0601-0.107-0.0787-0.042-0.0187-0.088-0.0285-0.137-0.0287-0.02952 0-0.0583 0.00426-0.08635 0.012189-0.02834 0.00808-0.05507 0.019679-0.07989 0.034511-0.0063-0.014832-0.01615-0.026434-0.02967-0.034511-0.01322-0.00793-0.0282-0.012189-0.04494-0.012189-0.01513 0.0001469-0.02878 0.00382-0.04127 0.011161-0.01248 0.00734-0.02247 0.017182-0.02967 0.029518-0.0073 0.012776-0.01101 0.027021-0.01145 0.043322v0.24113 0.00132 0.36831c0.000441 0.013951 0.0032 0.026581 0.0093 0.037889 0.0059 0.011308 0.01366 0.020707 0.02364 0.028196 0.01028 0.00764 0.02174 0.013217 0.03407 0.016301 0.0022-0.0007343 0.0047-0.0007343 0.0073-0.0007343 0.0023 0.0004406 0.0051 0.0007343 0.0081 0.0007343 0.01674-0.0002937 0.03201-0.00514 0.04597-0.014539 0.0141-0.00925 0.02467-0.021 0.03187-0.035245v-0.00441-0.00338c0.0016-0.00147 0.0022-0.00308 0.0029-0.00455 0.000294-0.00162 0.000881-0.00308 0.0018-0.0047v-0.00176-0.00294c0-0.00147 0.000147-0.00338 0.000734-0.00558 0.000441-0.00191 0.000882-0.00367 0.000882-0.00529v-0.36831c0.000146-0.029812 0.0073-0.056686 0.02159-0.080771 0.0141-0.024231 0.0329-0.043322 0.05654-0.057567 0.0235-0.014245 0.04993-0.021441 0.07857-0.021882 0.02937 0.0004406 0.05595 0.00764 0.07989 0.021294 0.02408 0.014098 0.04317 0.032455 0.05757 0.055952 0.01424 0.023203 0.02203 0.04949 0.02291 0.078274v0.0047 0.36831c0.000146 0.015126 0.0044 0.029077 0.01189 0.041413 0.0078 0.012483 0.01836 0.022322 0.03084 0.029518 0.01248 0.00764 0.02629 0.011161 0.04097 0.011455 0.01527-0.0002937 0.02922-0.00382 0.04156-0.011455 0.01248-0.0072 0.02232-0.017035 0.02952-0.029518 0.0075-0.012336 0.01116-0.026287 0.01146-0.041413v-0.36831-0.0047c0.0012-0.028784 0.0091-0.055071 0.02335-0.078274 0.01469-0.023497 0.03378-0.041854 0.05757-0.055952 0.02394-0.013658 0.05081-0.020854 0.08077-0.021294z" class="fil0"/>
  </g>
  <path d="m2.0592 0.24349c-0.0001-0.03114-0.006-0.05992-0.0175-0.08694-0.0113-0.02673-0.0273-0.05037-0.0475-0.070787-0.0205-0.020413-0.0441-0.036273-0.071-0.047581-0.0269-0.011455-0.0556-0.017329-0.0868-0.017476h-0.18445-0.0005874-0.0004406c-0.010574 0.00014686-0.020119 0.0024965-0.02849 0.0076365-0.00866 0.0049931-0.015567 0.011748-0.02056 0.020266-0.00514 0.0085176-0.00778 0.01821-0.00793 0.029077v0.61136c0.0001469 0.010574 0.00279 0.019972 0.00793 0.02849 0.00499 0.008664 0.011895 0.015567 0.02056 0.02056 0.00837 0.00514 0.017916 0.007783 0.02849 0.00793 0.010867-0.00014686 0.02056-0.00279 0.029371-0.00793 0.00866-0.004993 0.015567-0.011895 0.020707-0.02056 0.00514-0.008518 0.00778-0.017916 0.00793-0.02849v-0.22484h0.12747c0.031133-0.00014686 0.059917-0.006021 0.086792-0.017476s0.050518-0.027315 0.070931-0.047434c0.020266-0.020266 0.036273-0.043616 0.047581-0.070197 0.011455-0.026581 0.017329-0.055071 0.017476-0.085617zm-0.3502-0.1078h0.12747c0.020266 0.00014686 0.038329 0.004993 0.054337 0.014539 0.016154 0.009399 0.02893 0.022469 0.038329 0.038476 0.00955 0.016301 0.014539 0.034511 0.015126 0.054777-0.0005874 0.019532-0.00558 0.037301-0.015126 0.053162-0.0094 0.01586-0.022175 0.02849-0.038329 0.038036-0.016007 0.009399-0.03407 0.014245-0.054337 0.014539h-0.1275zm0.9876-0.13569c-0.0334 0.00014686-0.0652 0.0045525-0.0961 0.013364-0.0307 0.009105-0.0593 0.021881-0.0859 0.038182-0.0267 0.016595-0.0507 0.036274-0.0718 0.059334-0.0323 0.03436-0.0576 0.07372-0.0753 0.11821-0.018 0.04436-0.0271 0.09238-0.0274 0.14392 0.0001469 0.034217 0.00411 0.067113 0.012336 0.09854 0.00822 0.031427 0.019826 0.060945 0.035098 0.088407 0.015273 0.027756 0.033777 0.052721 0.055218 0.07519 0.021147 0.022616 0.045085 0.042148 0.071812 0.058742 0.026581 0.016595 0.055218 0.029371 0.08591 0.038329 0.03084 0.009105 0.062707 0.013658 0.096043 0.013804 0.0321-0.00014 0.0632-0.00469 0.0932-0.0138 0.0301-0.00896 0.0583-0.02173 0.0844-0.03833 0.0263-0.01659 0.0496-0.03612 0.0702-0.05874 0.0216-0.02247 0.0401-0.04743 0.0558-0.07519 0.0154-0.02746 0.0276-0.05698 0.036-0.08841 0.0085-0.03142 0.0126-0.06432 0.0128-0.09854-0.0002-0.03421-0.0043-0.06696-0.0128-0.09839-0.0084-0.03128-0.0206-0.06065-0.036-0.08826-0.0157-0.02746-0.0342-0.05272-0.0558-0.07548-0.0206-0.02306-0.0439-0.042739-0.0702-0.059334-0.0261-0.016301-0.0543-0.029077-0.0844-0.038182-0.03-0.0088115-0.0611-0.013217-0.0931-0.013364zm0.1637 0.55335c-0.0219 0.0235-0.047 0.04171-0.0747 0.05463-0.0281 0.01322-0.0578 0.01968-0.089 0.01997-0.0334-0.00029-0.0641-0.00675-0.0924-0.01997-0.0285-0.01292-0.0535-0.03113-0.0755-0.05463-0.0145-0.01513-0.027-0.03201-0.0376-0.05096-0.0106-0.01909-0.0185-0.03936-0.0242-0.06124s-0.0087-0.04464-0.0087-0.06814c0-0.023644 0.00294-0.04626 0.00866-0.068288 0.00573-0.021882 0.013658-0.042294 0.024231-0.061386 0.010578-0.019238 0.023061-0.03642 0.0376-0.051693 0.022028-0.023497 0.046994-0.04156 0.075484-0.05419 0.028343-0.012776 0.059036-0.019238 0.092372-0.019385 0.03128 0.00014686 0.060945 0.006609 0.088994 0.019385 0.027756 0.01263 0.052868 0.030693 0.074749 0.05419 0.014392 0.015273 0.026581 0.032455 0.037154 0.051693 0.010574 0.019091 0.018651 0.039504 0.024525 0.061386 0.00587 0.022028 0.00881 0.044644 0.00881 0.068288 0 0.023497-0.00294 0.04626-0.00881 0.068141-0.0059 0.0219-0.014 0.04216-0.0245 0.06125-0.0106 0.01895-0.0228 0.03583-0.0372 0.05096zm0.54733 0.088994c0.014832 0.011748 0.031574 0.023791 0.050665 0.035833 0.018944 0.011895 0.039651 0.02291 0.06212 0.033189 0.022616 0.010133 0.046553 0.01821 0.072253 0.024672 0.025553 0.006168 0.052281 0.009399 0.080183 0.009986 0.0371-0.00014 0.072-0.00528 0.1046-0.01556 0.0325-0.01013 0.0617-0.02467 0.0873-0.04347 0.0174-0.01248 0.0327-0.02702 0.0461-0.04362 0.0132-0.01644 0.0238-0.03451 0.0314-0.05433 0.0076-0.01968 0.0113-0.04083 0.0116-0.06286 0-0.016301-0.00235-0.032014-0.00661-0.046994-0.0044-0.01498-0.0106-0.02878-0.0184-0.04127-0.012-0.01924-0.0268-0.03568-0.0446-0.04978-0.0179-0.01395-0.0376-0.02614-0.0589-0.03642-0.0209-0.00984-0.0432-0.01821-0.0673-0.02541-0.0239-0.00705-0.0493-0.01307-0.0757-0.01821h-0.00206c-0.0282-0.00528-0.0535-0.01175-0.0756-0.01968-0.0224-0.00793-0.0403-0.01659-0.0539-0.02599-0.0068-0.00485-0.0125-0.00925-0.0172-0.01395-0.0046-0.00455-0.0082-0.00881-0.0109-0.01307-0.0025-0.00397-0.0044-0.00837-0.0054-0.01307-0.0013-0.00441-0.0018-0.00984-0.0018-0.01601-0.0001-0.01087 0.003-0.02188 0.0091-0.03319 0.0063-0.01101 0.0165-0.02173 0.0303-0.03231 0.0141-0.01042 0.0313-0.01894 0.0511-0.0254 0.0198-0.00632 0.0414-0.00955 0.0649-0.00984 0.021 0.00029371 0.040973 0.003378 0.059623 0.009399 0.018797 0.006021 0.037008 0.014098 0.05463 0.024231 0.017623 0.009986 0.035245 0.021 0.052574 0.032896 0.00852 0.005434 0.017329 0.008518 0.026581 0.008811 0.0094 0.00029371 0.018357-0.001322 0.026581-0.005727 0.0084-0.00411 0.0151-0.01028 0.0204-0.0188 0.0056-0.00808 0.0085-0.01674 0.009-0.02585 0.0004-0.00939-0.0014-0.01821-0.0055-0.02658-0.0039-0.008367-0.01-0.015416-0.018-0.021143-0.0131-0.008812-0.0278-0.01777-0.0435-0.027462-0.0159-0.009546-0.0332-0.018504-0.052-0.026728-0.0186-0.008518-0.0388-0.015273-0.0606-0.02056-0.0216-0.0051403-0.0448-0.0079305-0.0698-0.0080774-0.033777 0-0.066085 0.0048462-0.096484 0.014098-0.030546 0.0095456-0.058155 0.023056-0.08268 0.040826-0.016154 0.011748-0.030252 0.025553-0.042735 0.04112-0.012483 0.01542-0.022322 0.032602-0.029371 0.051253-0.00705 0.018504-0.01072 0.038182-0.010867 0.059036 0 0.015567 0.00206 0.030546 0.00602 0.044938 0.00411 0.014245 0.00999 0.027756 0.017769 0.040238 0.011602 0.018063 0.025553 0.033777 0.042001 0.047141 0.016448 0.013217 0.034511 0.024525 0.054483 0.033777 0.019679 0.009399 0.040826 0.017329 0.063295 0.023644 0.022469 0.006609 0.045966 0.012336 0.070344 0.016742h0.00206c0.030693 0.005874 0.058302 0.01307 0.08268 0.021441 0.024231 0.008371 0.044057 0.017476 0.05933 0.027462 0.00778 0.005287 0.013951 0.010427 0.018944 0.015567 0.00499 0.00514 0.00896 0.010427 0.012042 0.015567 0.00308 0.00514 0.00558 0.010427 0.00705 0.015567 0.00162 0.00514 0.00235 0.011014 0.00235 0.01777 0.0001468 0.012923-0.00352 0.025847-0.010574 0.038476-0.0072 0.01263-0.018504 0.024672-0.03407 0.036273-0.015713 0.011602-0.034658 0.020707-0.05698 0.027609-0.022175 0.007196-0.046406 0.010574-0.072547 0.01072-0.018357 0.00014685-0.036861-0.002056-0.055511-0.006755-0.018504-0.004553-0.03642-0.011014-0.053896-0.018798-0.017329-0.007783-0.033483-0.016595-0.048609-0.025847-0.015126-0.009546-0.028343-0.019091-0.039798-0.02849-0.00778-0.006315-0.016301-0.009986-0.025553-0.011455-0.0094-0.001469-0.018504-0.00073428-0.027315 0.002497-0.00881 0.003231-0.016448 0.008518-0.022763 0.016154-0.00587 0.007783-0.00955 0.016448-0.01072 0.0257-0.00147 0.009399-0.0004406 0.018357 0.00264 0.027315 0.00338 0.008811 0.00866 0.016448 0.016301 0.022763zm1.3647-0.56466c-0.0001-0.010861-0.0027-0.020553-0.0079-0.029071-0.005-0.008518-0.0119-0.015273-0.0204-0.020266-0.0086-0.00514-0.018-0.00749-0.0286-0.007637h-0.44248c-0.010867 0.00014686-0.02056 0.0024965-0.029077 0.0076365-0.00852 0.0049931-0.015273 0.011748-0.020266 0.020266-0.00514 0.0085176-0.00749 0.01821-0.00764 0.029077 0.0001469 0.010574 0.0025 0.019972 0.00764 0.028784 0.00499 0.008811 0.011748 0.015714 0.020266 0.021147 0.00852 0.00514 0.01821 0.00793 0.029077 0.008077h0.16374v0.55335c0.0001469 0.010867 0.00279 0.02056 0.00793 0.02893 0.00499 0.008664 0.011895 0.01542 0.02056 0.020413 0.00837 0.004993 0.017916 0.00749 0.02849 0.007636 0.010867-0.00014686 0.02056-0.002643 0.028931-0.007636 0.00866-0.004993 0.01542-0.011748 0.020413-0.020413 0.00499-0.008371 0.00749-0.018063 0.00764-0.02893v-0.55335h0.16477c0.010574-0.00014685 0.019972-0.002937 0.028637-0.008077 0.00852-0.005434 0.01542-0.012336 0.020413-0.021147 0.00514-0.0088113 0.00778-0.01821 0.00793-0.028784z" class="fil1" fill="#4f8bcc"/>
  <path d="m7.052 8.3824v-0.0639c0-0.4134 0.33615-0.7494 0.74955-0.7494h12.747c0.41325 0 0.74926 0.336 0.74926 0.7494v0.0639h-0.125v-0.0639c0-0.34452-0.2802-0.62487-0.62472-0.62487h-12.747c-0.34482 0-0.62516 0.28035-0.62516 0.62487v0.0639z" class="fil0" fill="#4f8acc"/>
 </g>
</svg>
