<?xml version="1.0" encoding="UTF-8" standalone="no"?>
<svg xmlns="http://www.w3.org/2000/svg" height="66.165" width="184" version="1.1"><g transform="scale(1.0395)"><path fill-rule="evenodd" fill="#4f8acc" d="m176.52 63.651h-176.04c-0.26507 0-0.48-0.086-0.48-0.192v-54.711c0-0.5293 1.0751-0.9594 2.3953-0.9594h172.22c1.3203 0 2.3917 0.43007 2.3917 0.95981v54.711c0 0.10608-0.21492 0.19231-0.47929 0.19231zm-175.57-0.384h175.09v-54.518c0-0.31759-0.64199-0.57518-1.4331-0.57518h-172.21c-0.79272 0-1.4367 0.25759-1.4367 0.57518z"/><path d="m176.52 22.124h-176.04c-0.26507 0-0.48-0.214-0.48-0.478 0-0.266 0.21493-0.479 0.4793-0.479h176.05c0.26436 0 0.47929 0.21373 0.47929 0.4793 0 0.26438-0.21493 0.47811-0.47929 0.47811z" fill-rule="evenodd" stroke-width="3.9875" fill="#4f8acc"/><g fill-rule="evenodd" stroke-width="4.1449" transform="matrix(.96203 0 0 .96203 0 2.0164)" fill="#4f8acc"><path d="m40.119 59.915h-26.143c-2.4791 0-4.4964-2.0161-4.4964-4.4976v-25.857c0-2.4816 2.0173-4.4976 4.4964-4.4976h26.144c2.4778 0 4.4964 2.0161 4.4964 4.4976v25.857c0 2.4816-2.0186 4.4976-4.4964 4.4976zm-26.143-33.856c-1.9303 0-3.5012 1.5709-3.5012 3.5012v25.857c0 1.9315 1.5709 3.5012 3.5012 3.5012h26.144c1.9303 0 3.5-1.5697 3.5-3.5012v-25.857c0-1.9303-1.5697-3.5012-3.5-3.5012z"/><path d="m37.674 52.04h-21.271c-0.27481 0-0.49822-0.22217-0.49822-0.49739 0-4.675 2.9537-8.8846 7.3469-10.475 0.25491-0.09409 0.54506 0.04145 0.6379 0.29968 0.09285 0.25823-0.04145 0.54132-0.29719 0.63914-3.8456 1.3885-6.4785 4.9826-6.6795 9.0388h20.251c-0.19978-4.0562-2.8339-7.6503-6.6783-9.0388-0.2574-0.09782-0.39128-0.38092-0.29843-0.63914 0.09409-0.25989 0.37967-0.39377 0.6379-0.29968 4.3944 1.5908 7.3469 5.8004 7.3469 10.475 0 0.27522-0.22175 0.49739-0.49822 0.49739z"/><path d="m27.063 43.377c-3.3006 0-5.9865-2.688-5.9865-5.9861 0-3.2993 2.6859-5.9877 5.9865-5.9877 3.2993 0 5.9853 2.6884 5.9853 5.9877 0 3.2981-2.6859 5.9861-5.9853 5.9861zm0-10.977c-2.753 0-4.9913 2.2383-4.9913 4.9913 0 2.7514 2.2383 4.9896 4.9913 4.9896 2.7506 0 4.9888-2.2383 4.9888-4.9896 0-2.753-2.2383-4.9913-4.9888-4.9913z"/></g><g fill-rule="evenodd" stroke-width="3.9875" fill="#4f8acc"><path d="m7.2142 17.259c-1.2772 0-2.3151-1.04-2.3151-2.3171 0-1.2729 1.0379-2.3123 2.3151-2.3123 1.276 0 2.3147 1.0396 2.3147 2.3123 0 1.2772-1.0387 2.3171-2.3147 2.3171zm0-3.6721c-0.74846 0-1.3577 0.6081-1.3577 1.3549 0 0.74846 0.60929 1.3597 1.3577 1.3597 0.74686 0 1.3562-0.61128 1.3562-1.3597 0-0.74686-0.60929-1.3549-1.3562-1.3549z"/><path d="m14.113 17.259c-1.2772 0-2.3151-1.04-2.3151-2.3171 0-1.2729 1.0379-2.3123 2.3151-2.3123s2.3147 1.0396 2.3147 2.3123c0 1.2772-1.0375 2.3171-2.3147 2.3171zm0-3.6721c-0.74846 0-1.3577 0.6081-1.3577 1.3549 0 0.74846 0.60929 1.3597 1.3577 1.3597 0.74686 0 1.3562-0.61128 1.3562-1.3597 0-0.74686-0.60929-1.3549-1.3562-1.3549z"/><path d="m21.011 17.259c-1.2772 0-2.3151-1.04-2.3151-2.3171 0-1.2729 1.0379-2.3123 2.3151-2.3123s2.3147 1.0396 2.3147 2.3123c0 1.2772-1.0375 2.3171-2.3147 2.3171zm0-3.6721c-0.74846 0-1.3577 0.6081-1.3577 1.3549 0 0.74846 0.60929 1.3597 1.3577 1.3597 0.74686 0 1.3562-0.61128 1.3562-1.3597 0-0.74686-0.60929-1.3549-1.3562-1.3549z"/><path d="m163.45 17.259h-135.26c-0.26437 0-0.4789-0.21333-0.4789-0.4793v-3.6714c0-0.26557 0.21453-0.4789 0.4789-0.4789h135.24c0.26557 0 0.47929 0.21333 0.47929 0.4789v3.6713c0 0.26597-0.21372 0.4793-0.47929 0.4793zm-134.76-0.957h134.28v-2.715h-134.28z"/></g><g fill-rule="evenodd" stroke-width="4.1449" transform="matrix(.96203 0 0 .96203 0 -9.9836)" fill="#4f8acc"><path d="m155.47 71.261h-41.04c-0.27481 0-0.49822-0.22341-0.49822-0.49822s0.22341-0.49822 0.49822-0.49822h41.04c0.27522 0 0.49821 0.22341 0.49821 0.49822s-0.22299 0.49822-0.49821 0.49822z"/><path d="m105.19 71.261h-41.036c-0.27481 0-0.49822-0.22341-0.49822-0.49822s0.22341-0.49822 0.49822-0.49822h41.036c0.27606 0 0.49822 0.22341 0.49822 0.49822s-0.22216 0.49822-0.49822 0.49822z"/></g><g fill-rule="evenodd" fill="#4f8acc"><path d="m158.14 52.212h-98.11c-3.1816 0-5.7692-1.2614-5.7692-2.814v-13.177l-7.6465-2.1567c-0.14674-0.04125-0.23965-0.11733-0.23965-0.20119 0-0.08328 0.09291-0.16169 0.23965-0.20139l7.6465-2.155v-2.5383c0-1.5525 2.5875-2.8146 5.7692-2.8146h98.107c3.1808 0 5.7672 1.262 5.7672 2.8146v20.429c0 1.5525-2.5863 2.814-5.7672 2.814zm-110.33-18.348 7.166 2.022c0.14834 0.04184 0.23965 0.11733 0.23965 0.20119v13.311c0 1.294 2.158 2.3468 4.8118 2.3468h98.107c2.6517 0 4.8086-1.0529 4.8086-2.3468v-20.429c0-1.294-2.1569-2.3468-4.8086-2.3468h-98.11c-2.6537 0-4.8118 1.0529-4.8118 2.3468v2.6735c0 0.08387-0.09132 0.15994-0.23965 0.20119zm6.9276-2.2211h0.01197z"/><path d="m101.2 33.897h-39.479c-0.26437 0-0.4793-0.21493-0.4793-0.4793 0-0.26477 0.21493-0.4793 0.4793-0.4793h39.475c0.26437 0 0.4793 0.21453 0.4793 0.4793 0 0.26438-0.21493 0.4793-0.4793 0.4793z" stroke-width="3.9875"/><path d="m149.57 33.897h-9.0153c-0.26477 0-0.4793-0.21493-0.4793-0.4793 0-0.26477 0.21453-0.4793 0.4793-0.4793h9.0153c0.26437 0 0.4781 0.21453 0.4781 0.4793 0 0.26438-0.21373 0.4793-0.4781 0.4793zm-12.524 0h-26.958c-0.26477 0-0.4793-0.21493-0.4793-0.4793 0-0.26477 0.21453-0.4793 0.4793-0.4793h26.958c0.26438 0 0.47931 0.21453 0.47931 0.4793 0 0.26438-0.21493 0.4793-0.47931 0.4793z" stroke-width="3.9875"/></g><g fill-rule="evenodd" stroke-width="4.1449" transform="matrix(.96203 0 0 .96203 0 -23.452)" fill="#4f8acc"><path d="m67.144 65.179c-0.20683-0.0033-0.40413 0.01658-0.59106 0.0601-0.18776 0.04228-0.36185 0.09989-0.52723 0.17367-0.15999 0.07544-0.31253 0.15751-0.45014 0.2516-0.04228 0.02901-0.08704 0.07046-0.13388 0.11398-0.04476 0.04601-0.08829 0.08911-0.12683 0.13388v-0.08704c-0.0012-0.12186-0.03316-0.23004-0.09409-0.32662-0.0601-0.09741-0.14341-0.17492-0.24455-0.23253-0.10321-0.05513-0.21719-0.08456-0.34527-0.08704-0.12103 0.0025-0.23046 0.03316-0.33035 0.08704-0.09948 0.05761-0.17947 0.13512-0.23709 0.23253-0.05886 0.09658-0.08829 0.20476-0.0916 0.32662v4.8997c0.0033 0.12103 0.03316 0.23253 0.0916 0.33118 0.05761 0.09989 0.13761 0.17865 0.23709 0.23626 0.09989 0.06093 0.20932 0.08912 0.33035 0.0916 0.12808-0.0025 0.24206-0.02902 0.34527-0.0916 0.10114-0.05761 0.18445-0.13637 0.24455-0.23626 0.06217-0.09865 0.09285-0.21015 0.09409-0.33118v-2.363c0.02073-0.06093 0.05264-0.14673 0.09492-0.25947 0.04145-0.11398 0.09533-0.2375 0.1658-0.37594 0.06798-0.13761 0.14922-0.27398 0.24911-0.4091 0.07627-0.1173 0.16082-0.23004 0.25367-0.33118 0.09409-0.10114 0.20103-0.1915 0.31957-0.26569 0.1057-0.08083 0.21968-0.14093 0.3432-0.1774 0.12559-0.04145 0.25947-0.05844 0.40288-0.05844 0.12476-0.0025 0.2375-0.03316 0.33615-0.09409 0.09865-0.05886 0.1774-0.13968 0.23502-0.23958 0.05637-0.09865 0.08456-0.20807 0.08704-0.32579-0.0025-0.12186-0.02902-0.23004-0.08704-0.32662-0.05762-0.09741-0.13637-0.17492-0.23502-0.23253-0.09865-0.05513-0.21139-0.08456-0.33615-0.08704zm3.7047 6.2049c0.44185 0 0.84598-0.06591 1.2161-0.20103 0.3689-0.13512 0.70588-0.33947 1.0093-0.61884 0.09492-0.08953 0.14797-0.18486 0.16538-0.28931 0.01243-0.10114 0.0041-0.19854-0.02901-0.29139-0.03316-0.0916-0.07875-0.16787-0.13512-0.22797-0.04145-0.05057-0.10114-0.08912-0.17533-0.1173-0.07627-0.02901-0.16082-0.04145-0.25242-0.04352-0.0916 0-0.1832 0.01658-0.27025 0.04808-0.08829 0.02901-0.16704 0.08-0.23377 0.14922-0.1057 0.07875-0.22921 0.14341-0.37263 0.19274-0.14549 0.05306-0.29595 0.0858-0.45594 0.1057-0.15834 0.02072-0.31253 0.02487-0.46506 0.01243-0.1459-0.01243-0.29263-0.04684-0.44433-0.09616-0.14922-0.05057-0.28766-0.11523-0.41822-0.19398-0.13264-0.07875-0.24082-0.17036-0.33118-0.269-0.11067-0.11025-0.20227-0.23626-0.27025-0.38423-0.07171-0.14466-0.12103-0.29139-0.1517-0.43687h3.9538c0.1774-0.0025 0.32413-0.04725 0.43936-0.13761 0.11523-0.08829 0.18569-0.20808 0.20683-0.35936 0.0083-0.01243 0.01243-0.03316 0.01243-0.05637 0.0025-0.02487 0.0025-0.04145 0.0025-0.05554v-0.06217c-0.02901-0.42071-0.12228-0.8095-0.2831-1.1585-0.16124-0.35356-0.37719-0.65655-0.64744-0.9152-0.27025-0.25616-0.57946-0.4547-0.93178-0.59687-0.349-0.14217-0.7295-0.21388-1.1361-0.21512-0.42776 0.0012-0.82484 0.0858-1.1904 0.24911-0.36641 0.16207-0.68598 0.38548-0.96079 0.6723-0.27274 0.28517-0.48786 0.61552-0.64163 0.98773-0.15626 0.37387-0.23502 0.7722-0.24082 1.2 0.0041 0.42402 0.08456 0.82484 0.24082 1.1983 0.15378 0.37263 0.3689 0.70008 0.64163 0.98566 0.27481 0.28434 0.59438 0.50651 0.96079 0.67106 0.36558 0.16207 0.76266 0.24786 1.1904 0.25367zm0-5.0369c0.27149 0.02072 0.51231 0.08207 0.72826 0.1716 0.21388 0.0916 0.39832 0.20434 0.55003 0.33366 0.15626 0.13139 0.28102 0.269 0.3747 0.40993 0.09409 0.14217 0.15751 0.27729 0.18694 0.40413h-3.5178c0.02487-0.13139 0.07751-0.26776 0.15626-0.41574 0.07875-0.14466 0.18694-0.28434 0.32538-0.41615 0.13637-0.13139 0.30424-0.24206 0.50319-0.33118 0.19937-0.08912 0.42983-0.14217 0.69303-0.15626zm10.907 0.14922c0.23129 0.0037 0.4406 0.06093 0.62961 0.17492 0.18694 0.11398 0.33864 0.26693 0.45014 0.46091 0.11398 0.19232 0.17367 0.40744 0.17492 0.64619v2.9466c0.0025 0.12103 0.03316 0.23253 0.09533 0.33118 0.06093 0.09989 0.14217 0.17865 0.24206 0.23626 0.10196 0.06093 0.21263 0.08912 0.33366 0.0916 0.12228-0.0025 0.23253-0.02902 0.33242-0.0916 0.09989-0.05761 0.17865-0.13637 0.23502-0.23626 0.06093-0.09865 0.09036-0.21015 0.09285-0.33118v-2.9466c-0.0025-0.36434-0.07046-0.70298-0.20434-1.0188-0.13181-0.31253-0.31626-0.58982-0.55252-0.82815-0.23709-0.2375-0.50982-0.42444-0.82235-0.55956-0.31128-0.13512-0.64744-0.20434-1.0068-0.20559-0.2632 0-0.51231 0.03316-0.75313 0.10445-0.23875 0.06839-0.4605 0.1658-0.66277 0.29387-0.20434 0.12932-0.38175 0.28185-0.53801 0.4605-0.2375-0.27025-0.5264-0.4804-0.86007-0.62961-0.33366-0.14922-0.69676-0.22797-1.0926-0.22921-0.23626 0-0.46672 0.03316-0.69096 0.09741-0.22673 0.06466-0.4406 0.15751-0.63914 0.27647-0.05057-0.11896-0.12932-0.2118-0.2375-0.27647-0.1057-0.06342-0.22548-0.09741-0.35936-0.09741-0.12103 0.0012-0.23046 0.02901-0.33035 0.08953-0.09989 0.05844-0.17948 0.1372-0.23709 0.23584-0.05886 0.10238-0.08829 0.21636-0.0916 0.34693v4.8881c0.0033 0.1115 0.02487 0.21263 0.07378 0.30299 0.04808 0.09036 0.10818 0.1658 0.19025 0.22548 0.08124 0.06135 0.17284 0.10611 0.27149 0.13056 0.01658-0.0041 0.0373-0.0041 0.05886-0.0041 0.01658 0.0033 0.04145 0.0041 0.06466 0.0041 0.13388-0.0025 0.25491-0.04145 0.36765-0.11647 0.11274-0.07378 0.1973-0.16787 0.25491-0.28185v-0.06217c0.01243-0.01243 0.01658-0.02487 0.02487-0.0373 0.0033-0.01243 0.0083-0.02487 0.01243-0.0373v-0.03731c0-0.01243 0.0012-0.02901 0.0041-0.04476 0.0041-0.01658 0.0083-0.02901 0.0083-0.04228v-2.9466c0.0012-0.23875 0.05886-0.45387 0.17284-0.64619 0.11274-0.19398 0.2632-0.34693 0.45221-0.46091 0.18818-0.11398 0.39957-0.17118 0.62878-0.17492 0.23584 0.0037 0.44765 0.06093 0.63914 0.17036 0.19357 0.11274 0.34527 0.25947 0.4605 0.44765 0.11398 0.18569 0.17616 0.39584 0.1832 0.6263v2.9839c0.0012 0.12103 0.03316 0.23253 0.09533 0.33118 0.06217 0.09989 0.14673 0.17865 0.24662 0.23626 0.09989 0.06093 0.21015 0.08912 0.32786 0.0916 0.12228-0.0025 0.23377-0.02902 0.33242-0.0916 0.09989-0.05761 0.17864-0.13637 0.23502-0.23626 0.06093-0.09865 0.09036-0.21015 0.09285-0.33118v-2.9839c0.0083-0.23046 0.07295-0.4406 0.18694-0.6263 0.1173-0.18818 0.27108-0.33491 0.4605-0.44765 0.1915-0.10943 0.40744-0.16663 0.64619-0.17036zm7.4832 4.9242c0.41573-0.0012 0.79872-0.0858 1.1548-0.2516 0.35605-0.16787 0.66153-0.39833 0.92224-0.69303 0.28102-0.27481 0.49366-0.6006 0.64288-0.97281 0.14922-0.37138 0.22548-0.778 0.22673-1.2161-0.0012-0.42195-0.07751-0.81655-0.22673-1.1809-0.14922-0.36434-0.36185-0.69552-0.64288-0.99395-0.26072-0.2947-0.56619-0.5264-0.92224-0.6922-0.35605-0.16662-0.73904-0.25242-1.1548-0.25367-0.42776 0.0012-0.82152 0.08704-1.1809 0.25367-0.35729 0.1658-0.67686 0.3975-0.95747 0.6922-0.26818 0.29843-0.47832 0.62961-0.62878 0.99395-0.14922 0.36434-0.22548 0.75893-0.22797 1.1809 0.0025 0.43812 0.07875 0.84473 0.22797 1.2161 0.15046 0.37221 0.36061 0.698 0.62878 0.97281 0.28061 0.2947 0.60018 0.52516 0.95747 0.69303 0.35936 0.1658 0.75313 0.25035 1.1809 0.2516zm-1.194-4.425c0.15626-0.13886 0.33698-0.25284 0.53801-0.34071 0.19978-0.08331 0.41946-0.12932 0.65572-0.13181 0.21968 0.0025 0.42527 0.0485 0.62132 0.13181 0.19274 0.08787 0.3689 0.20186 0.52184 0.34071 0.15502 0.16787 0.27605 0.36185 0.35936 0.58029 0.08456 0.21968 0.12683 0.45594 0.12683 0.7121 0 0.26776-0.04228 0.51107-0.12683 0.73075-0.08331 0.21761-0.20434 0.41366-0.35936 0.58858-0.15295 0.14922-0.32911 0.2632-0.52184 0.34196-0.19605 0.07875-0.40164 0.11772-0.62132 0.11772-0.23626 0-0.45594-0.0373-0.65572-0.11772-0.20103-0.07875-0.38175-0.19274-0.53801-0.34196-0.14217-0.17492-0.25491-0.37097-0.33035-0.58858-0.07627-0.21968-0.1173-0.46299-0.1173-0.73075 0-0.25616 0.04145-0.49242 0.1173-0.7121 0.07544-0.21844 0.18818-0.41242 0.33035-0.58029zm7.5595-1.8283h-0.31045v-1.8035c-0.0033-0.12932-0.03316-0.24538-0.09036-0.34776-0.06217-0.10321-0.14093-0.18445-0.24662-0.24331-0.09989-0.06217-0.21636-0.09036-0.34776-0.0916-0.12932 0.0012-0.24579 0.02902-0.35149 0.0916-0.10445 0.05886-0.18569 0.1401-0.24787 0.24331-0.06342 0.10238-0.09409 0.21844-0.0974 0.34776v1.8035h-0.37304c-0.13264 0.0012-0.24662 0.02901-0.349 0.0916-0.10321 0.05886-0.18445 0.14093-0.24538 0.24455-0.05886 0.10238-0.08829 0.21719-0.0916 0.34776 0.0033 0.12683 0.03316 0.24082 0.0916 0.34196 0.06093 0.10445 0.14217 0.18694 0.24538 0.24662 0.10238 0.06217 0.21636 0.09409 0.349 0.09658h0.35853v3.468c0.0041 0.25533 0.06798 0.48661 0.19025 0.69344 0.12352 0.2089 0.29014 0.3747 0.49698 0.49698 0.20683 0.12435 0.43936 0.18445 0.69427 0.19025 0.13056-0.0025 0.24579-0.02902 0.34817-0.0916 0.10321-0.0601 0.18445-0.14217 0.24414-0.24455 0.06134-0.10072 0.08953-0.21719 0.0916-0.34776-0.0021-0.13139-0.02901-0.24662-0.0916-0.35232-0.06-0.104-0.141-0.187-0.244-0.249-0.103-0.061-0.218-0.093-0.349-0.096v-3.468h0.31045c0.12559-0.0025 0.24206-0.03316 0.34651-0.09658 0.1057-0.05969 0.18901-0.14217 0.25242-0.24662 0.06135-0.10114 0.09533-0.21512 0.09658-0.34196-0.0012-0.13056-0.03316-0.24538-0.09658-0.34776-0.06342-0.10362-0.14673-0.18569-0.25242-0.24455-0.10445-0.06093-0.22092-0.09036-0.34651-0.0916zm4.416 6.217c0.44185 0 0.84597-0.06591 1.2161-0.20103 0.36889-0.13512 0.70504-0.33947 1.0093-0.61884 0.0941-0.08953 0.14797-0.18486 0.16455-0.28931 0.0124-0.10114 0.004-0.19854-0.029-0.29139-0.0332-0.0916-0.0787-0.16787-0.13512-0.22797-0.0415-0.05057-0.10114-0.08912-0.17616-0.1173-0.0775-0.02901-0.16207-0.04145-0.25367-0.04352-0.0895 0-0.18113 0.01658-0.26818 0.04808-0.0891 0.02901-0.16787 0.08-0.23377 0.14922-0.1057 0.07875-0.23129 0.14341-0.3747 0.19274-0.14341 0.05306-0.29595 0.0858-0.4547 0.1057-0.1575 0.02072-0.31252 0.02487-0.46423 0.01243-0.14672-0.01243-0.2947-0.04684-0.44516-0.09616-0.14922-0.05057-0.2889-0.11523-0.41946-0.19398s-0.24082-0.17036-0.32911-0.269c-0.1115-0.11025-0.2031-0.23626-0.27232-0.38423-0.06922-0.14466-0.11896-0.29139-0.1517-0.43687h3.9559c0.17657-0.0025 0.32206-0.04725 0.43977-0.13761 0.11482-0.08829 0.18528-0.20808 0.20642-0.35936 0.004-0.01243 0.008-0.03316 0.008-0.05637 0.002-0.02487 0.002-0.04145 0.002-0.05554v-0.06217c-0.0249-0.42071-0.12228-0.8095-0.28103-1.1585-0.16207-0.35356-0.37719-0.65655-0.64743-0.9152-0.27233-0.25616-0.58029-0.4547-0.93137-0.59687-0.35148-0.14217-0.72991-0.21388-1.1365-0.21512-0.42982 0.0012-0.82484 0.0858-1.1912 0.24911-0.36517 0.16207-0.68723 0.38548-0.95996 0.6723-0.27481 0.28517-0.48993 0.61552-0.6437 0.98773-0.15419 0.37387-0.23253 0.7722-0.23875 1.2 0.0041 0.42402 0.08456 0.82484 0.23875 1.1983 0.15378 0.37263 0.3689 0.70008 0.6437 0.98566 0.27274 0.28434 0.5948 0.50651 0.95996 0.67106 0.36641 0.16207 0.76142 0.24786 1.1912 0.25367zm0-5.0369c0.27149 0.02072 0.51231 0.08207 0.72743 0.1716 0.21263 0.0916 0.39833 0.20434 0.55127 0.33366 0.15627 0.13139 0.27937 0.269 0.37222 0.40993 0.0966 0.14217 0.1575 0.27729 0.189 0.40413h-3.5199c0.02902-0.13139 0.07751-0.26776 0.15626-0.41574 0.07875-0.14466 0.18901-0.28434 0.32538-0.41615 0.13637-0.13139 0.30548-0.24206 0.50402-0.33118 0.19978-0.08912 0.43107-0.14217 0.69427-0.15626zm10.021 2.0397h-0.12352v-5.0709c0-0.01244-0.002-0.02487-0.004-0.02902-0.004-0.01243-0.004-0.02072-0.004-0.03316 0-0.02073 0-0.03316-0.002-0.04311 0-0.01243-0.004-0.02072-0.0124-0.03316 0-0.0041-0.001-0.01243-0.004-0.02487-0.004-0.0083-0.004-0.01658-0.004-0.02487-0.008-0.01658-0.008-0.03316-0.0124-0.04228-0.003-0.0083-0.004-0.02072-0.0124-0.03316-0.004-0.0041-0.0124-0.01243-0.0166-0.02487-0.004-0.0083-0.008-0.01658-0.008-0.02487-0.0124-0.01658-0.0207-0.02901-0.029-0.0373-0.008-0.0083-0.0166-0.01658-0.0207-0.02487-0.004-0.0041-0.0124-0.01244-0.0166-0.02487-0.004-0.0083-0.0124-0.01658-0.0207-0.02487l-0.0207-0.02072c-0.008-0.0041-0.0166-0.01658-0.029-0.02901 0-0.0041-0.004-0.01243-0.0124-0.01658-0.008-0.0041-0.0166-0.0083-0.0207-0.0083 0-0.0083-0.002-0.01243-0.004-0.01243-0.004-0.000829-0.008-0.000829-0.008-0.000829-0.0124-0.0083-0.0207-0.01244-0.029-0.02073-0.008-0.0041-0.0207-0.01243-0.0332-0.02072-0.008-0.0041-0.0166-0.01244-0.0249-0.02073-0.0124-0.0041-0.0249-0.01658-0.0332-0.02901-0.008 0-0.0166-0.0012-0.0249-0.0083-0.008-0.0025-0.0166-0.0041-0.0249-0.0041-0.0124-0.0041-0.029-0.01244-0.0414-0.01244-0.0124-0.000829-0.0249-0.0041-0.0332-0.01243-0.0124 0.0041-0.0207 0.0083-0.029 0.0083-0.008 0-0.0207-0.0025-0.0332-0.0083h-0.26196c-0.0166 0.0041-0.0332 0.01243-0.0468 0.01243-0.0124 0.0025-0.0207 0.0083-0.029 0.01244-0.0124 0-0.0207 0.0021-0.029 0.0083-0.008 0.0041-0.0124 0.01658-0.0207 0.02901-0.0166 0-0.029 0.0025-0.0415 0.0083-0.008 0.0037-0.0207 0.0083-0.0332 0.01658-0.004 0.0083-0.0124 0.01243-0.0249 0.02072-0.008 0.0041-0.0166 0.01244-0.0249 0.02073l-0.0207 0.02072c-0.008 0.0041-0.0207 0.01244-0.0414 0.01658-0.004 0.01243-0.0124 0.02487-0.0207 0.02901-0.004 0.0083-0.0124 0.01658-0.0166 0.02072-0.004 0.01244-0.008 0.02072-0.0124 0.02901-0.002 0.0041-0.008 0.0083-0.0124 0.0083l-4.6 5.7196c-0.0783 0.09989-0.12559 0.21139-0.14548 0.32662-0.0166 0.11854-0.004 0.23253 0.0373 0.34444 0.0435 0.11025 0.11647 0.20434 0.21885 0.28641 0.0622 0.05554 0.1314 0.09285 0.20435 0.11523 0.0705 0.02072 0.14341 0.03316 0.21968 0.03316h3.912v0.94462c0.002 0.13056 0.0332 0.24704 0.0928 0.34776 0.0589 0.10238 0.14093 0.18445 0.24331 0.24455 0.10196 0.06093 0.21843 0.08912 0.34775 0.0916 0.1314-0.0025 0.24787-0.02901 0.34901-0.0916 0.10445-0.0601 0.18444-0.14217 0.24538-0.24455 0.0588-0.10072 0.0883-0.21719 0.0904-0.34776v-0.94462h0.12352c0.13057-0.0021 0.24787-0.03316 0.35356-0.0916 0.10238-0.05969 0.18694-0.14093 0.24911-0.24414 0.0622-0.10238 0.0928-0.21761 0.0941-0.34776-0.001-0.12725-0.0332-0.24123-0.0941-0.34444-0.0622-0.10238-0.14673-0.18445-0.24911-0.24455-0.10569-0.06217-0.22299-0.09368-0.35356-0.09616zm-1.4922 0h-2.4733l2.4733-3.0714zm10.074-1.8905c0.23046 0.0037 0.4406 0.06093 0.62878 0.17492 0.18901 0.11398 0.33947 0.26693 0.45221 0.46091 0.11399 0.19232 0.1716 0.40744 0.17285 0.64619v2.9466c0.003 0.12103 0.0332 0.23253 0.0974 0.33118 0.0589 0.09989 0.14093 0.17865 0.24206 0.23626 0.0999 0.06093 0.21139 0.08912 0.33367 0.0916 0.12227-0.0025 0.23046-0.02902 0.33118-0.0916 0.0999-0.05761 0.17864-0.13637 0.23626-0.23626 0.0589-0.09865 0.0883-0.21015 0.0916-0.33118v-2.9466c-0.003-0.36434-0.0705-0.70298-0.2031-1.0188-0.13388-0.31253-0.31833-0.58982-0.55459-0.82815-0.23502-0.2375-0.50982-0.42444-0.82235-0.55956-0.31045-0.13512-0.64743-0.20434-1.006-0.20559-0.26196 0-0.51231 0.03316-0.75313 0.10445-0.23958 0.06839-0.45926 0.1658-0.6636 0.29387-0.20227 0.12932-0.38092 0.28185-0.53594 0.4605-0.23957-0.27025-0.5264-0.4804-0.86007-0.62961-0.33366-0.14922-0.698-0.22797-1.0926-0.22921-0.23626 0-0.46879 0.03316-0.6922 0.09741-0.22549 0.06466-0.43936 0.15751-0.63791 0.27647-0.0518-0.11896-0.13056-0.2118-0.23957-0.27647-0.1057-0.06342-0.22466-0.09741-0.35729-0.09741-0.12228 0.0012-0.23253 0.02901-0.33242 0.08953-0.0999 0.05844-0.17865 0.1372-0.23502 0.23584-0.0601 0.10238-0.0904 0.21636-0.0928 0.34693v4.8881c0.002 0.1115 0.0249 0.21263 0.0729 0.30299 0.0481 0.09036 0.11026 0.1658 0.19025 0.22548 0.0821 0.06135 0.17285 0.10611 0.2715 0.13056 0.0207-0.0041 0.0373-0.0041 0.0597-0.0041 0.0166 0.0033 0.0414 0.0041 0.0659 0.0041 0.13263-0.0025 0.25491-0.04145 0.36558-0.11647 0.11274-0.07378 0.1973-0.16787 0.25491-0.28185v-0.06217c0.0124-0.01243 0.0207-0.02487 0.0249-0.0373 0.002-0.01243 0.008-0.02487 0.0124-0.0373v-0.03731c0-0.01243 0.002-0.02901 0.004-0.04476 0.004-0.01658 0.008-0.02901 0.008-0.04228v-2.9466c0.002-0.23875 0.0609-0.45387 0.17491-0.64619 0.1115-0.19398 0.26321-0.34693 0.45014-0.46091 0.19025-0.11398 0.40164-0.17118 0.63086-0.17492 0.23377 0.0037 0.44765 0.06093 0.63914 0.17036 0.1915 0.11274 0.3432 0.25947 0.45926 0.44765 0.11398 0.18569 0.17533 0.39584 0.18237 0.6263v2.9839c0.002 0.12103 0.0332 0.23253 0.0974 0.33118 0.0622 0.09989 0.14549 0.17865 0.24538 0.23626 0.10113 0.06093 0.20932 0.08912 0.3291 0.0916 0.12228-0.0025 0.23253-0.02902 0.33118-0.0916 0.0999-0.05761 0.17865-0.13637 0.23626-0.23626 0.0589-0.09865 0.0883-0.21015 0.0916-0.33118v-2.9839c0.008-0.23046 0.0742-0.4406 0.18694-0.6263 0.11647-0.18818 0.27025-0.33491 0.46174-0.44765 0.19025-0.10943 0.40538-0.16663 0.64495-0.17036zm7.3717 4.8877c0.44185 0 0.84598-0.06591 1.2161-0.20103 0.3689-0.13512 0.70588-0.33947 1.0101-0.61884 0.0941-0.08953 0.14715-0.18486 0.16456-0.28931 0.0124-0.10114 0.004-0.19854-0.029-0.29139-0.0332-0.0916-0.0796-0.16787-0.13512-0.22797-0.0414-0.05057-0.10197-0.08912-0.17616-0.1173-0.0763-0.02901-0.16082-0.04145-0.25367-0.04352-0.0904 0-0.18113 0.01658-0.269 0.04808-0.0883 0.02901-0.16704 0.08-0.23378 0.14922-0.10569 0.07875-0.22921 0.14341-0.37262 0.19274-0.14549 0.05306-0.29719 0.0858-0.45594 0.1057-0.15834 0.02072-0.31253 0.02487-0.46506 0.01243-0.1459-0.01243-0.29263-0.04684-0.44434-0.09616-0.14921-0.05057-0.2889-0.11523-0.41822-0.19398-0.13264-0.07875-0.24082-0.17036-0.33118-0.269-0.11067-0.11025-0.20227-0.23626-0.27149-0.38423-0.0705-0.14466-0.11979-0.29139-0.15046-0.43687h3.9538c0.17616-0.0025 0.32413-0.04725 0.43936-0.13761 0.11523-0.08829 0.18569-0.20808 0.20683-0.35936 0.004-0.01243 0.0124-0.03316 0.0124-0.05637 0.001-0.02487 0.001-0.04145 0.001-0.05554v-0.06217c-0.0249-0.42071-0.12103-0.8095-0.28185-1.1585-0.16124-0.35356-0.37719-0.65655-0.64744-0.9152-0.27149-0.25616-0.57946-0.4547-0.93177-0.59687-0.349-0.14217-0.72868-0.21388-1.1361-0.21512-0.42776 0.0012-0.82484 0.0858-1.1904 0.24911-0.36641 0.16207-0.68598 0.38548-0.95996 0.6723-0.27357 0.28517-0.48869 0.61552-0.64246 0.98773-0.15627 0.37387-0.23502 0.7722-0.24082 1.2 0.004 0.42402 0.0846 0.82484 0.24082 1.1983 0.15377 0.37263 0.36889 0.70008 0.64246 0.98566 0.27398 0.28434 0.59355 0.50651 0.95996 0.67106 0.36558 0.16207 0.76266 0.24786 1.1904 0.25367zm0-5.0369c0.27232 0.02072 0.51231 0.08207 0.72826 0.1716 0.21388 0.0916 0.39833 0.20434 0.55003 0.33366 0.15627 0.13139 0.28061 0.269 0.3747 0.40993 0.0941 0.14217 0.15751 0.27729 0.18694 0.40413h-3.5178c0.0249-0.13139 0.0775-0.26776 0.15627-0.41574 0.0787-0.14466 0.18693-0.28434 0.32537-0.41615 0.13637-0.13139 0.30424-0.24206 0.50278-0.33118 0.19978-0.08912 0.43024-0.14217 0.69344-0.15626zm4.278 4.2038c0.003 0.1716 0.0435 0.32786 0.12683 0.46423 0.08 0.13885 0.19149 0.24911 0.32993 0.33118 0.13637 0.08124 0.29264 0.12228 0.46423 0.12476 0.1716-0.0025 0.32787-0.04352 0.46879-0.12476 0.14093-0.08207 0.2516-0.19232 0.33491-0.33118 0.0833-0.13637 0.12684-0.29263 0.12808-0.46423-0.001-0.1716-0.0448-0.32786-0.12808-0.46879-0.0833-0.14093-0.19398-0.25242-0.33491-0.33491-0.14092-0.08331-0.29719-0.12683-0.46879-0.12891-0.17159 0.0021-0.32786 0.04559-0.46423 0.12891-0.13844 0.08248-0.24993 0.19398-0.32993 0.33491-0.0833 0.14093-0.12352 0.29719-0.12683 0.46879zm4.9121 0.83313c-0.43356-0.0025-0.83769-0.08456-1.217-0.24455-0.38091-0.15958-0.71458-0.38175-1.0047-0.66484-0.29263-0.2831-0.5206-0.6122-0.68391-0.98566-0.16663-0.37263-0.24911-0.7722-0.25243-1.202 0.003-0.4348 0.0858-0.83893 0.25243-1.2149 0.16331-0.37346 0.39128-0.70505 0.68391-0.98939 0.29014-0.28434 0.62381-0.50526 1.0047-0.66609 0.37926-0.16082 0.78339-0.24331 1.217-0.25035 0.37387 0.0012 0.73199 0.0659 1.0669 0.18942 0.33739 0.12186 0.64039 0.28766 0.91064 0.49449 0.0941 0.07751 0.1633 0.17036 0.20683 0.27729 0.0414 0.10943 0.0576 0.21844 0.0448 0.33242-0.008 0.11398-0.0506 0.21761-0.11523 0.31128-0.0858 0.09865-0.17989 0.16911-0.28807 0.21263-0.10901 0.04352-0.21968 0.05886-0.33118 0.04352-0.11274-0.01243-0.21719-0.05761-0.31377-0.13264-0.16082-0.12103-0.34195-0.21512-0.53801-0.28807-0.19978-0.07129-0.41241-0.10652-0.64287-0.11026-0.25243 0.0037-0.492 0.05057-0.71417 0.14549-0.22092 0.09533-0.41491 0.22714-0.58277 0.39252-0.17036 0.1658-0.30424 0.35356-0.39833 0.56992-0.0953 0.21388-0.14341 0.44185-0.14466 0.68267 0.001 0.24082 0.0493 0.46879 0.14466 0.68267 0.0941 0.21263 0.22797 0.40164 0.39833 0.5662 0.16786 0.1658 0.36185 0.29387 0.58277 0.38548 0.22217 0.09533 0.46174 0.14217 0.71417 0.14466 0.22341-0.0025 0.43729-0.0373 0.63583-0.10943 0.19978-0.07295 0.38174-0.16911 0.54505-0.28766 0.0941-0.07088 0.19399-0.11316 0.30797-0.12476 0.11274-0.01243 0.22217 0.0012 0.33242 0.04601 0.10943 0.04311 0.20683 0.11481 0.29263 0.21471 0.0647 0.09285 0.1057 0.19522 0.11523 0.30465 0.0124 0.11025-0.004 0.21968-0.0448 0.32745-0.0435 0.10818-0.11275 0.20227-0.20683 0.28807-0.27025 0.1973-0.57325 0.3548-0.91064 0.47459-0.33491 0.11979-0.69303 0.17865-1.0669 0.18445z"/><path d="m141.5 71.438c0.41366-0.0012 0.79665-0.0858 1.1548-0.2516 0.35605-0.16787 0.66277-0.39833 0.92141-0.69303 0.2831-0.27481 0.49574-0.6006 0.64495-0.97281 0.14922-0.37138 0.22424-0.778 0.22549-1.2161-0.001-0.42195-0.0763-0.81655-0.22549-1.1809-0.14921-0.36434-0.36185-0.69552-0.64495-0.99395-0.25864-0.2947-0.56536-0.5264-0.92141-0.6922-0.35812-0.16663-0.74111-0.25242-1.1548-0.25367-0.429 0.0012-0.82359 0.08704-1.1809 0.25367-0.35936 0.1658-0.67893 0.3975-0.95747 0.6922-0.27025 0.29843-0.47832 0.62961-0.63086 0.99395-0.14921 0.36434-0.22465 0.75893-0.22797 1.1809 0.003 0.43812 0.0788 0.84473 0.22797 1.2161 0.15254 0.37221 0.36061 0.698 0.63086 0.97281 0.27854 0.2947 0.59811 0.52516 0.95747 0.69303 0.3573 0.1658 0.75189 0.25035 1.1809 0.2516zm-1.1937-4.4259c0.15627-0.13885 0.33491-0.25284 0.53677-0.34071 0.20103-0.08331 0.42071-0.12932 0.65697-0.13181 0.21968 0.0025 0.42527 0.0485 0.61925 0.13181 0.19274 0.08787 0.3689 0.20186 0.52516 0.34071 0.15502 0.16787 0.27605 0.36185 0.35729 0.58029 0.0846 0.21968 0.12683 0.45594 0.12683 0.7121 0 0.26776-0.0423 0.51107-0.12683 0.73075-0.0812 0.21761-0.20227 0.41366-0.35729 0.58858-0.15626 0.14922-0.33242 0.2632-0.52516 0.34196-0.19398 0.07875-0.39957 0.11772-0.61925 0.11772-0.23626 0-0.45594-0.0373-0.65697-0.11772-0.20186-0.07875-0.3805-0.19274-0.53677-0.34196-0.14217-0.17492-0.25491-0.37097-0.33242-0.58858-0.0754-0.21968-0.11523-0.46299-0.11523-0.73075 0-0.25616 0.0414-0.49242 0.11523-0.7121 0.0775-0.21844 0.19025-0.41242 0.33242-0.58029zm12.186-0.49822c0.23128 0.0037 0.4406 0.06093 0.62961 0.17492 0.18693 0.11398 0.33864 0.26693 0.45013 0.46091 0.11399 0.19232 0.17285 0.40744 0.17492 0.64619v2.9466c0.002 0.12103 0.0332 0.23253 0.0953 0.33118 0.0609 0.09989 0.14217 0.17864 0.24207 0.23626 0.10113 0.06093 0.21263 0.08912 0.33366 0.0916 0.12228-0.0025 0.23253-0.02901 0.33242-0.0916 0.0999-0.05761 0.17865-0.13637 0.23626-0.23626 0.0597-0.09865 0.0891-0.21015 0.0916-0.33118v-2.9466c-0.002-0.36434-0.0705-0.70298-0.20434-1.0188-0.13181-0.31253-0.31626-0.58982-0.55334-0.82815-0.23626-0.2375-0.509-0.42444-0.82153-0.55956-0.31128-0.13512-0.64743-0.20434-1.0068-0.20559-0.26321 0-0.51232 0.03316-0.75313 0.10445-0.23958 0.06839-0.4605 0.1658-0.66278 0.29387-0.20434 0.12932-0.38174 0.28185-0.53801 0.4605-0.2375-0.27025-0.5264-0.4804-0.86006-0.62961-0.33367-0.14922-0.69676-0.22797-1.0926-0.22921-0.23626 0-0.46672 0.03316-0.69096 0.09741-0.22673 0.06466-0.4406 0.15751-0.63914 0.27646-0.0506-0.11896-0.12933-0.2118-0.23751-0.27646-0.10569-0.06342-0.22548-0.09741-0.35936-0.09741-0.12103 0.0012-0.23046 0.02902-0.33035 0.08953-0.0999 0.05844-0.17948 0.1372-0.23709 0.23585-0.0589 0.10238-0.0883 0.21636-0.0916 0.34693v4.8881c0.003 0.1115 0.0249 0.21263 0.0738 0.30299 0.0473 0.09036 0.10942 0.1658 0.18942 0.22548 0.0821 0.06135 0.17367 0.10611 0.27232 0.13056 0.0166-0.0041 0.0373-0.0041 0.0589-0.0041 0.0207 0.0033 0.0414 0.0041 0.0647 0.0041 0.13388-0.0025 0.25615-0.04145 0.36765-0.11647 0.11274-0.07378 0.1973-0.16787 0.25491-0.28185v-0.06217c0.0124-0.01243 0.0166-0.02487 0.0249-0.0373 0.002-0.01243 0.008-0.02487 0.0124-0.0373v-0.0373c0-0.01243 0.001-0.02901 0.004-0.04476 0.004-0.01658 0.008-0.02901 0.008-0.04228v-2.9466c0.001-0.23875 0.0589-0.45387 0.17285-0.64619 0.11274-0.19398 0.2632-0.34693 0.45221-0.46091 0.18817-0.11398 0.39956-0.17118 0.62878-0.17492 0.23501 0.0037 0.44765 0.06093 0.63914 0.17036 0.19274 0.11274 0.34527 0.25947 0.4605 0.44765 0.11399 0.18569 0.17616 0.39584 0.18321 0.6263v2.9839c0.001 0.12103 0.0332 0.23253 0.0953 0.33118 0.0622 0.09989 0.14673 0.17864 0.24662 0.23626 0.0999 0.06093 0.21015 0.08911 0.32787 0.0916 0.12227-0.0025 0.23377-0.02901 0.33242-0.0916 0.0999-0.05761 0.17864-0.13637 0.23626-0.23626 0.0597-0.09865 0.0891-0.21015 0.0916-0.33118v-2.9839c0.008-0.23046 0.0729-0.4406 0.18694-0.6263 0.1173-0.18818 0.27024-0.33491 0.46049-0.44765 0.1915-0.10942 0.40662-0.16662 0.6462-0.17036z"/></g><g transform="matrix(.23030 0 0 .23436 -14.12 5.3753)"><text style="font-variant-ligatures:no-common-ligatures discretionary-ligatures;letter-spacing:0px;font-variant-numeric:normal;word-spacing:0px;font-variant-caps:normal;font-feature-settings:normal" font-weight="600" xml:space="preserve" transform="scale(1.0487 .95357)" line-height="1.25" font-size="112.23px" y="1.3773504" x="108.6086" font-family="&apos;Open Sans&apos;" fill="#4f8acc"><tspan style="font-variant-numeric:normal;font-variant-ligatures:no-common-ligatures discretionary-ligatures;font-variant-caps:normal;font-feature-settings:normal" font-family="&apos;Open Sans&apos;" font-weight="600" font-size="35.071px" y="1.3773504" x="108.6086" stroke-width="1.0487">POST</tspan></text></g></g></svg>
