<?xml version="1.0" encoding="UTF-8" standalone="no"?>
<svg xmlns="http://www.w3.org/2000/svg" xml:space="preserve" style="image-rendering:optimizeQuality;text-rendering:geometricPrecision;shape-rendering:geometricPrecision"  height="49.04" width="184" version="1.1" viewBox="0 0 48.683332 12.975295"><g transform="translate(-34.821 -263.88)"><g transform="matrix(1.0965 0 0 -1.0965 39.222 269.5)"><path d="m0 0c-0.375 0-0.679-0.305-0.679-0.679s0.304-0.678 0.679-0.678 0.679 0.304 0.679 0.678-0.304 0.679-0.679 0.679m0-1.598c-0.507 0-0.919 0.412-0.919 0.919s0.412 0.919 0.919 0.919 0.919-0.412 0.919-0.919-0.412-0.919-0.919-0.919" fill="#4f8bcc"/></g><g transform="matrix(1.0965 0 0 -1.0965 42.515 269.5)"><path d="m0 0c-0.375 0-0.679-0.305-0.679-0.679s0.304-0.678 0.679-0.678c0.374 0 0.678 0.304 0.678 0.678s-0.304 0.679-0.678 0.679m0-1.598c-0.507 0-0.919 0.412-0.919 0.919s0.412 0.919 0.919 0.919c0.506 0 0.918-0.412 0.918-0.919s-0.412-0.919-0.918-0.919" fill="#4f8bcc"/></g><g transform="matrix(1.0965 0 0 -1.0965 45.808 269.5)"><path d="m0 0c-0.374 0-0.678-0.305-0.678-0.679s0.304-0.678 0.678-0.678c0.375 0 0.679 0.304 0.679 0.678s-0.304 0.679-0.679 0.679m0-1.598c-0.506 0-0.918 0.412-0.918 0.919s0.412 0.919 0.918 0.919c0.507 0 0.919-0.412 0.919-0.919s-0.412-0.919-0.919-0.919" fill="#4f8bcc"/></g><g transform="matrix(1.0965 0 0 -1.0965 68.457 270.44)"><path d="m0 0c0.001 0.05 0.014 0.095 0.038 0.135 0.023 0.04 0.055 0.072 0.095 0.097 0.04 0.024 0.085 0.037 0.135 0.038 0.05-0.001 0.096-0.014 0.136-0.038 0.041-0.025 0.073-0.057 0.097-0.097s0.036-0.085 0.037-0.135v-0.565c0-0.026 0.006-0.05 0.018-0.07 0.012-0.021 0.028-0.037 0.049-0.049 0.02-0.012 0.044-0.018 0.07-0.018s0.05 0.006 0.07 0.018c0.021 0.012 0.037 0.028 0.049 0.049 0.012 0.02 0.018 0.044 0.018 0.07v0.565c0 0.075-0.014 0.146-0.042 0.212s-0.067 0.124-0.117 0.174c-0.049 0.051-0.107 0.09-0.173 0.118-0.065 0.029-0.136 0.043-0.212 0.044-0.049-0.001-0.096-0.007-0.141-0.021-0.044-0.013-0.087-0.03-0.127-0.052v0.435c0 0.026-0.007 0.05-0.019 0.07-0.013 0.021-0.029 0.037-0.05 0.049s-0.045 0.018-0.071 0.018c-0.025 0-0.048-0.006-0.069-0.018s-0.037-0.028-0.049-0.049c-0.013-0.02-0.019-0.044-0.019-0.07v-1.475c0-0.006 0-0.012 0.001-0.018 0.001-0.007 0.002-0.012 0.004-0.017 0.009-0.03 0.025-0.054 0.049-0.073s0.052-0.029 0.083-0.029c0.026 0 0.05 0.006 0.071 0.018s0.037 0.028 0.05 0.049c0.012 0.02 0.019 0.044 0.019 0.07zm-0.693 0.548h-0.062v0.362c0 0.026-0.006 0.05-0.018 0.07-0.012 0.021-0.029 0.037-0.05 0.049-0.02 0.012-0.043 0.018-0.07 0.018-0.026 0-0.049-0.006-0.071-0.018-0.02-0.012-0.037-0.028-0.049-0.049-0.013-0.02-0.019-0.044-0.02-0.07v-0.362h-0.072c-0.026-0.001-0.049-0.007-0.07-0.019s-0.037-0.028-0.049-0.049-0.018-0.044-0.019-0.07c0.001-0.025 0.007-0.048 0.019-0.069s0.028-0.037 0.049-0.049c0.021-0.013 0.044-0.019 0.07-0.02h0.072v-0.697c0.001-0.051 0.014-0.098 0.038-0.139 0.025-0.042 0.059-0.076 0.1-0.1 0.042-0.025 0.089-0.038 0.14-0.038 0.026 0 0.049 0.006 0.07 0.018s0.037 0.028 0.049 0.049c0.012 0.02 0.018 0.044 0.018 0.07s-0.006 0.05-0.018 0.071-0.028 0.037-0.049 0.05c-0.021 0.012-0.044 0.018-0.07 0.019v0.697h0.062c0.026 0.001 0.049 0.007 0.07 0.02 0.021 0.012 0.038 0.028 0.051 0.049 0.012 0.021 0.019 0.044 0.019 0.069 0 0.026-0.007 0.049-0.019 0.07-0.013 0.021-0.03 0.037-0.051 0.049s-0.044 0.018-0.07 0.019m-1.249-0.633h0.469c0.028 0.001 0.052 0.007 0.074 0.02 0.022 0.014 0.04 0.032 0.054 0.054 0.013 0.022 0.02 0.046 0.02 0.074 0 0.027-0.007 0.052-0.02 0.075-0.014 0.022-0.032 0.041-0.054 0.054s-0.046 0.02-0.074 0.021h-0.469c-0.027-0.001-0.052-0.008-0.074-0.021s-0.04-0.032-0.053-0.054c-0.014-0.023-0.02-0.048-0.021-0.075 0.001-0.028 0.007-0.052 0.021-0.074 0.013-0.022 0.031-0.04 0.053-0.054 0.022-0.013 0.047-0.019 0.074-0.02m-0.44 0.842l0.004 0.004c0.002 0.001 0.006 0.002 0.011 0.003 0.005 0.003 0.013 0.004 0.024 0.006 0.011 0.001 0.025 0.002 0.041 0.002 0.025 0 0.048 0.006 0.069 0.018 0.02 0.013 0.037 0.029 0.049 0.05 0.013 0.021 0.019 0.045 0.019 0.071 0 0.025-0.006 0.048-0.019 0.069-0.012 0.02-0.029 0.036-0.049 0.049-0.021 0.012-0.044 0.018-0.069 0.018-0.027 0-0.052-0.001-0.076-0.004-0.025-0.003-0.049-0.008-0.074-0.015-0.038-0.012-0.073-0.031-0.105-0.058s-0.057-0.059-0.075-0.097c-0.019-0.035-0.031-0.073-0.038-0.114-0.007-0.04-0.01-0.083-0.01-0.129v-0.035h-0.065c-0.026 0-0.049-0.006-0.071-0.018-0.02-0.012-0.037-0.029-0.049-0.049-0.013-0.021-0.019-0.044-0.02-0.071 0.001-0.025 0.007-0.048 0.02-0.068 0.012-0.021 0.029-0.038 0.049-0.05 0.022-0.012 0.045-0.019 0.071-0.019h0.065v-0.884c0.001-0.026 0.006-0.049 0.019-0.07 0.012-0.021 0.028-0.037 0.049-0.049 0.02-0.013 0.044-0.019 0.07-0.019s0.049 0.006 0.07 0.019c0.021 0.012 0.037 0.028 0.049 0.049s0.018 0.044 0.018 0.07v0.884h0.075c0.026 0 0.049 0.007 0.069 0.019 0.021 0.012 0.038 0.029 0.049 0.05 0.013 0.02 0.019 0.043 0.02 0.068-0.001 0.027-0.007 0.05-0.02 0.071-0.011 0.02-0.028 0.037-0.049 0.049-0.02 0.012-0.043 0.018-0.069 0.018h-0.075v0.035c0.001 0.03 0.002 0.055 0.006 0.074 0.003 0.018 0.006 0.032 0.01 0.04 0.003 0.009 0.005 0.013 0.007 0.013m-1.49-0.577c0.031 0.028 0.067 0.051 0.108 0.068 0.04 0.017 0.084 0.027 0.132 0.027 0.044 0 0.085-0.01 0.124-0.027s0.075-0.04 0.106-0.068c0.031-0.034 0.056-0.073 0.072-0.117 0.017-0.044 0.025-0.091 0.025-0.143 0-0.054-0.008-0.103-0.025-0.147-0.016-0.043-0.041-0.083-0.072-0.118-0.031-0.03-0.067-0.053-0.106-0.069-0.039-0.015-0.08-0.023-0.124-0.023-0.048 0-0.092 0.008-0.132 0.023-0.041 0.016-0.077 0.039-0.108 0.069-0.029 0.035-0.051 0.075-0.067 0.118-0.015 0.044-0.023 0.093-0.023 0.147 0 0.052 0.008 0.099 0.023 0.143 0.016 0.044 0.038 0.083 0.067 0.117m0.24-0.89c0.083 0 0.16 0.017 0.232 0.051 0.072 0.033 0.133 0.08 0.185 0.139 0.057 0.055 0.1 0.121 0.13 0.195 0.03 0.076 0.045 0.157 0.045 0.245 0 0.085-0.015 0.164-0.045 0.238-0.03 0.073-0.073 0.14-0.13 0.199-0.052 0.06-0.113 0.106-0.185 0.14-0.072 0.033-0.149 0.05-0.232 0.051-0.086-0.001-0.166-0.018-0.237-0.051-0.072-0.034-0.137-0.08-0.193-0.14-0.054-0.059-0.096-0.126-0.127-0.199-0.03-0.074-0.045-0.153-0.046-0.238 0.001-0.088 0.016-0.169 0.046-0.245 0.031-0.074 0.073-0.14 0.127-0.195 0.056-0.059 0.121-0.106 0.193-0.139 0.071-0.034 0.151-0.051 0.237-0.051m-1.373 0.625h0.47c0.028 0.001 0.052 0.007 0.074 0.02 0.022 0.014 0.04 0.032 0.054 0.054 0.013 0.022 0.02 0.046 0.02 0.074 0 0.027-0.007 0.052-0.02 0.075-0.014 0.022-0.032 0.041-0.054 0.054s-0.046 0.02-0.074 0.021h-0.47c-0.026-0.001-0.051-0.008-0.073-0.021s-0.04-0.032-0.054-0.054c-0.013-0.023-0.019-0.048-0.02-0.075 0.001-0.028 0.007-0.052 0.02-0.074 0.014-0.022 0.032-0.04 0.054-0.054 0.022-0.013 0.047-0.019 0.073-0.02m-0.572 0.995v-1.475c0-0.025 0.007-0.048 0.019-0.069s0.029-0.037 0.05-0.049c0.02-0.013 0.043-0.019 0.069-0.019s0.049 0.006 0.071 0.019c0.02 0.012 0.037 0.028 0.049 0.049 0.013 0.021 0.019 0.044 0.02 0.069v1.475c-0.001 0.025-0.007 0.048-0.02 0.069-0.012 0.02-0.029 0.037-0.049 0.05-0.022 0.012-0.045 0.018-0.071 0.018s-0.049-0.006-0.069-0.018c-0.021-0.013-0.038-0.03-0.05-0.05-0.012-0.021-0.019-0.044-0.019-0.069m-0.365-0.365c-0.042 0-0.081-0.003-0.119-0.012-0.037-0.008-0.073-0.02-0.105-0.035-0.033-0.015-0.063-0.032-0.091-0.05-0.009-0.007-0.018-0.015-0.027-0.023-0.009-0.009-0.018-0.018-0.025-0.028v0.018c-0.001 0.025-0.007 0.046-0.02 0.066-0.012 0.019-0.028 0.035-0.049 0.047-0.021 0.011-0.044 0.017-0.069 0.017-0.024 0-0.047-0.006-0.067-0.017-0.019-0.012-0.035-0.028-0.047-0.047-0.012-0.02-0.018-0.041-0.018-0.066v-0.985c0-0.024 0.006-0.047 0.018-0.067s0.028-0.035 0.047-0.047c0.02-0.012 0.043-0.018 0.067-0.018 0.025 0 0.048 0.006 0.069 0.018s0.037 0.027 0.049 0.047c0.013 0.02 0.019 0.043 0.02 0.067v0.475c0.004 0.012 0.01 0.029 0.018 0.052 0.009 0.023 0.02 0.048 0.034 0.076 0.013 0.027 0.03 0.055 0.05 0.082 0.015 0.024 0.032 0.046 0.051 0.067 0.019 0.02 0.04 0.038 0.064 0.053 0.021 0.016 0.044 0.028 0.069 0.036s0.052 0.012 0.081 0.012c0.026 0 0.048 0.006 0.068 0.018s0.035 0.029 0.047 0.048c0.011 0.021 0.017 0.042 0.017 0.066 0 0.025-0.006 0.046-0.017 0.066-0.012 0.019-0.027 0.035-0.047 0.047-0.02 0.011-0.042 0.017-0.068 0.017m-1.035-0.728v0.598c0 0.024-0.006 0.045-0.019 0.065s-0.029 0.037-0.05 0.049c-0.02 0.012-0.042 0.018-0.066 0.019-0.025-0.001-0.047-0.007-0.067-0.019s-0.035-0.029-0.046-0.049-0.016-0.041-0.017-0.065v-0.598c-0.001-0.047-0.013-0.091-0.037-0.129-0.023-0.038-0.054-0.068-0.093-0.091s-0.084-0.034-0.132-0.034-0.092 0.011-0.13 0.034-0.068 0.053-0.091 0.091c-0.022 0.038-0.034 0.082-0.034 0.129v0.598c-0.001 0.024-0.006 0.045-0.018 0.065-0.011 0.02-0.027 0.037-0.047 0.049s-0.042 0.018-0.068 0.019c-0.024-0.001-0.046-0.007-0.066-0.019s-0.036-0.029-0.048-0.049-0.018-0.041-0.018-0.065v-0.598c0-0.071 0.014-0.138 0.041-0.201s0.064-0.118 0.112-0.165c0.047-0.048 0.102-0.085 0.165-0.112s0.13-0.041 0.202-0.041 0.14 0.014 0.203 0.041c0.064 0.027 0.12 0.064 0.168 0.112 0.049 0.047 0.087 0.102 0.114 0.165 0.028 0.063 0.042 0.13 0.042 0.201m-1.785-0.51c-0.024 0.01-0.043 0.025-0.058 0.044s-0.023 0.041-0.027 0.065c-0.003 0.024 0 0.048 0.01 0.071l0.613 1.458c0.01 0.023 0.025 0.043 0.044 0.057s0.041 0.022 0.065 0.026c0.024 0.003 0.049 0 0.073-0.011 0.022-0.009 0.041-0.024 0.055-0.043s0.022-0.04 0.025-0.064c0.004-0.024 0-0.047-0.01-0.07l-0.612-1.46c-0.012-0.026-0.03-0.047-0.053-0.061s-0.048-0.021-0.075-0.021c-0.007 0-0.016 0-0.025 0.002-0.008 0.001-0.017 0.004-0.025 0.007m-0.517 0c0.008-0.003 0.016-0.006 0.024-0.007 0.01-0.002 0.018-0.002 0.026-0.002 0.027 0 0.052 0.007 0.075 0.021s0.04 0.035 0.052 0.061l0.613 1.46c0.01 0.023 0.013 0.046 0.01 0.07s-0.012 0.045-0.026 0.064-0.032 0.034-0.054 0.043c-0.025 0.011-0.049 0.014-0.073 0.011-0.024-0.004-0.046-0.012-0.065-0.026-0.02-0.014-0.034-0.034-0.045-0.057l-0.612-1.458c-0.01-0.023-0.014-0.047-0.01-0.071 0.003-0.024 0.012-0.046 0.026-0.065 0.015-0.019 0.034-0.034 0.059-0.044m-0.558 1.153c0.001-0.035 0.009-0.066 0.026-0.093 0.016-0.028 0.038-0.05 0.066-0.067 0.027-0.016 0.059-0.024 0.093-0.025 0.035 0.001 0.066 0.009 0.094 0.025 0.029 0.017 0.051 0.039 0.068 0.067 0.016 0.027 0.025 0.058 0.025 0.093s-0.009 0.066-0.025 0.094c-0.017 0.028-0.039 0.051-0.068 0.068-0.028 0.016-0.059 0.025-0.094 0.025-0.034 0-0.066-0.009-0.093-0.025-0.028-0.017-0.05-0.04-0.066-0.068-0.017-0.028-0.025-0.059-0.026-0.094m0-0.995c0.001-0.035 0.009-0.066 0.026-0.093 0.016-0.028 0.038-0.05 0.066-0.067 0.027-0.016 0.059-0.024 0.093-0.025 0.035 0.001 0.066 0.009 0.094 0.025 0.029 0.017 0.051 0.039 0.068 0.067 0.016 0.027 0.025 0.058 0.025 0.093s-0.009 0.066-0.025 0.094c-0.017 0.029-0.039 0.051-0.068 0.068-0.028 0.016-0.059 0.025-0.094 0.025-0.034 0-0.066-0.009-0.093-0.025-0.028-0.017-0.05-0.039-0.066-0.068-0.017-0.028-0.025-0.059-0.026-0.094m-1.145 0.005c0.033-0.027 0.072-0.054 0.117-0.079 0.044-0.026 0.094-0.048 0.148-0.066 0.055-0.017 0.115-0.026 0.18-0.027 0.062 0 0.12 0.009 0.175 0.026 0.055 0.018 0.105 0.042 0.15 0.074 0.031 0.021 0.057 0.047 0.081 0.076 0.024 0.03 0.042 0.062 0.056 0.099 0.014 0.035 0.02 0.074 0.021 0.115 0 0.028-0.005 0.057-0.013 0.085s-0.02 0.055-0.035 0.08c-0.022 0.034-0.048 0.064-0.079 0.088s-0.064 0.044-0.098 0.059c-0.036 0.018-0.074 0.032-0.113 0.044s-0.079 0.021-0.12 0.029h-0.002l-0.003 0.002c-0.043 0.007-0.079 0.017-0.111 0.027-0.031 0.011-0.055 0.022-0.071 0.033-0.009 0.005-0.015 0.01-0.02 0.015-0.004 0.004-0.007 0.008-0.008 0.01-0.002 0.003-0.003 0.007-0.004 0.009-0.001 0.003-0.001 0.006-0.001 0.011 0 0.007 0.002 0.015 0.008 0.025 0.005 0.01 0.016 0.021 0.032 0.033 0.017 0.013 0.038 0.023 0.064 0.032 0.026 0.008 0.054 0.012 0.086 0.013 0.04-0.001 0.078-0.01 0.115-0.027s0.075-0.039 0.115-0.066c0.021-0.014 0.044-0.022 0.067-0.023s0.046 0.003 0.066 0.013c0.021 0.01 0.038 0.025 0.052 0.045 0.013 0.021 0.019 0.044 0.02 0.067 0 0.023-0.004 0.046-0.015 0.066-0.01 0.021-0.025 0.038-0.045 0.052-0.027 0.019-0.058 0.039-0.094 0.06-0.037 0.021-0.078 0.039-0.124 0.054-0.047 0.015-0.099 0.023-0.157 0.024-0.057 0-0.112-0.008-0.164-0.024s-0.1-0.039-0.143-0.069c-0.028-0.021-0.053-0.045-0.075-0.073-0.022-0.029-0.04-0.059-0.053-0.093s-0.019-0.071-0.02-0.109c0-0.029 0.004-0.057 0.011-0.083 0.007-0.027 0.018-0.052 0.032-0.074 0.022-0.034 0.048-0.062 0.078-0.086 0.029-0.024 0.06-0.043 0.094-0.059 0.033-0.016 0.068-0.028 0.104-0.038 0.037-0.011 0.075-0.02 0.114-0.027h0.002c0.046-0.01 0.086-0.02 0.121-0.032 0.035-0.013 0.061-0.026 0.079-0.038 0.01-0.007 0.018-0.013 0.023-0.017 0.005-0.006 0.009-0.01 0.01-0.013 0.002-0.004 0.004-0.008 0.005-0.011 0.002-0.004 0.002-0.009 0.002-0.014 0.001-0.011-0.003-0.022-0.009-0.034-0.007-0.013-0.019-0.026-0.036-0.042-0.02-0.012-0.045-0.024-0.074-0.033-0.03-0.009-0.062-0.014-0.096-0.014-0.033 0-0.066 0.005-0.1 0.015-0.034 0.011-0.066 0.025-0.097 0.042-0.03 0.016-0.056 0.034-0.078 0.053-0.019 0.016-0.04 0.025-0.063 0.029s-0.046 0.002-0.068-0.006c-0.022-0.009-0.041-0.023-0.056-0.043-0.015-0.019-0.025-0.04-0.028-0.062-0.004-0.023-0.001-0.045 0.006-0.067 0.008-0.022 0.021-0.041 0.039-0.056m-1.122 0.702c0.031 0.034 0.067 0.06 0.107 0.077 0.041 0.017 0.084 0.026 0.13 0.026 0.043 0 0.085-0.009 0.125-0.026 0.041-0.017 0.077-0.043 0.11-0.077 0.029-0.033 0.053-0.071 0.07-0.114 0.018-0.043 0.027-0.09 0.028-0.139 0-0.033-0.005-0.065-0.013-0.096s-0.019-0.06-0.034-0.086-0.032-0.049-0.051-0.069c-0.033-0.035-0.069-0.062-0.11-0.079-0.04-0.018-0.082-0.026-0.125-0.026-0.046 0-0.089 0.008-0.13 0.026-0.04 0.017-0.076 0.044-0.107 0.079-0.022 0.02-0.04 0.043-0.055 0.069-0.014 0.026-0.025 0.055-0.032 0.086s-0.011 0.063-0.011 0.096c0 0.049 0.008 0.096 0.024 0.139 0.017 0.043 0.041 0.081 0.074 0.114m-0.24-1.344c0.027 0 0.051 0.006 0.072 0.019s0.039 0.029 0.051 0.049c0.013 0.02 0.019 0.042 0.019 0.066v0.438c0.045-0.032 0.097-0.058 0.155-0.075 0.057-0.018 0.117-0.027 0.18-0.027 0.084 0 0.162 0.016 0.235 0.048s0.137 0.077 0.192 0.133c0.056 0.057 0.099 0.123 0.13 0.198 0.032 0.075 0.048 0.155 0.048 0.242 0 0.086-0.016 0.167-0.048 0.243-0.031 0.076-0.074 0.142-0.13 0.2-0.055 0.058-0.119 0.103-0.192 0.135-0.073 0.033-0.151 0.05-0.235 0.051-0.064-0.001-0.125-0.011-0.183-0.029-0.058-0.019-0.11-0.044-0.157-0.074-0.004 0.019-0.012 0.035-0.024 0.051-0.013 0.016-0.029 0.028-0.049 0.037-0.019 0.01-0.041 0.014-0.064 0.015-0.025-0.001-0.047-0.007-0.067-0.019-0.02-0.011-0.036-0.027-0.047-0.047-0.013-0.02-0.018-0.042-0.019-0.067v-1.453c0.001-0.024 0.006-0.046 0.019-0.066 0.011-0.02 0.027-0.036 0.047-0.049s0.042-0.019 0.067-0.019m-0.598 1.72h-0.063v0.362c0 0.026-0.006 0.05-0.018 0.07-0.012 0.021-0.028 0.037-0.049 0.049-0.02 0.012-0.044 0.018-0.07 0.018s-0.05-0.006-0.071-0.018c-0.02-0.012-0.037-0.028-0.05-0.049-0.012-0.02-0.018-0.044-0.019-0.07v-0.362h-0.072c-0.027-0.001-0.05-0.007-0.07-0.019-0.021-0.012-0.037-0.028-0.05-0.049-0.012-0.021-0.018-0.044-0.018-0.07 0-0.025 0.006-0.048 0.018-0.069 0.013-0.021 0.029-0.037 0.05-0.049 0.02-0.013 0.043-0.019 0.07-0.02h0.072v-0.697c0.001-0.051 0.013-0.098 0.038-0.139 0.025-0.042 0.058-0.076 0.1-0.1 0.042-0.025 0.088-0.038 0.139-0.038 0.027 0 0.05 0.006 0.071 0.018s0.037 0.028 0.049 0.049c0.012 0.02 0.018 0.044 0.018 0.07s-0.006 0.05-0.018 0.071-0.028 0.037-0.049 0.05c-0.021 0.012-0.044 0.018-0.071 0.019v0.697h0.063c0.025 0.001 0.049 0.007 0.07 0.02 0.021 0.012 0.038 0.028 0.05 0.049 0.013 0.021 0.02 0.044 0.02 0.069 0 0.026-0.007 0.049-0.02 0.07-0.012 0.021-0.029 0.037-0.05 0.049s-0.045 0.018-0.07 0.019m-0.73 0h-0.062v0.362c-0.001 0.026-0.007 0.05-0.019 0.07-0.012 0.021-0.028 0.037-0.049 0.049-0.02 0.012-0.043 0.018-0.07 0.018-0.026 0-0.049-0.006-0.071-0.018-0.02-0.012-0.037-0.028-0.05-0.049-0.012-0.02-0.018-0.044-0.019-0.07v-0.362h-0.072c-0.026-0.001-0.05-0.007-0.07-0.019-0.021-0.012-0.037-0.028-0.049-0.049-0.013-0.021-0.018-0.044-0.019-0.07 0.001-0.025 0.006-0.048 0.019-0.069 0.012-0.021 0.028-0.037 0.049-0.049 0.02-0.013 0.044-0.019 0.07-0.02h0.072v-0.697c0.001-0.051 0.013-0.098 0.038-0.139 0.025-0.042 0.059-0.076 0.1-0.1 0.042-0.025 0.088-0.038 0.14-0.038 0.026 0 0.049 0.006 0.07 0.018s0.037 0.028 0.049 0.049c0.012 0.02 0.018 0.044 0.018 0.07s-0.006 0.05-0.018 0.071-0.028 0.037-0.049 0.05c-0.021 0.012-0.044 0.018-0.07 0.019v0.697h0.062c0.026 0.001 0.049 0.007 0.07 0.02 0.021 0.012 0.038 0.028 0.05 0.049 0.013 0.021 0.02 0.044 0.02 0.069 0 0.026-0.007 0.049-0.02 0.07-0.012 0.021-0.029 0.037-0.05 0.049s-0.044 0.018-0.07 0.019m-1.565-0.548c0.001 0.05 0.014 0.095 0.038 0.135s0.056 0.072 0.095 0.097c0.04 0.024 0.085 0.037 0.135 0.038 0.05-0.001 0.096-0.014 0.137-0.038 0.04-0.025 0.072-0.057 0.096-0.097s0.036-0.085 0.037-0.135v-0.565c0-0.026 0.007-0.05 0.018-0.07 0.012-0.021 0.029-0.037 0.049-0.049 0.021-0.012 0.044-0.018 0.07-0.018 0.027 0 0.05 0.006 0.07 0.018 0.021 0.012 0.037 0.028 0.05 0.049 0.011 0.02 0.017 0.044 0.018 0.07v0.565c-0.001 0.075-0.015 0.146-0.043 0.212s-0.066 0.124-0.116 0.174c-0.05 0.051-0.107 0.09-0.173 0.118-0.066 0.029-0.137 0.043-0.213 0.044-0.049-0.001-0.096-0.007-0.141-0.021-0.044-0.013-0.087-0.03-0.127-0.052v0.435c0 0.026-0.006 0.05-0.019 0.07-0.012 0.021-0.029 0.037-0.05 0.049s-0.044 0.018-0.071 0.018c-0.025 0-0.048-0.006-0.069-0.018-0.02-0.012-0.037-0.028-0.049-0.049-0.012-0.02-0.019-0.044-0.019-0.07v-1.475c0-0.006 0-0.012 0.001-0.018 0.001-0.007 0.002-0.012 0.004-0.017 0.009-0.03 0.026-0.054 0.049-0.073 0.024-0.019 0.052-0.029 0.083-0.029 0.027 0 0.05 0.006 0.071 0.018s0.038 0.028 0.05 0.049c0.013 0.02 0.019 0.044 0.019 0.07z" fill="#4f8bcc"/></g><g transform="matrix(1.0965 0 0 -1.0965 77.256 269.84)"><path d="m0 0h-0.063v0.362c0 0.027-0.006 0.05-0.018 0.07-0.012 0.021-0.028 0.037-0.049 0.05-0.02 0.011-0.044 0.017-0.07 0.018-0.027-0.001-0.05-0.007-0.071-0.018-0.021-0.013-0.037-0.029-0.05-0.05-0.012-0.02-0.019-0.043-0.019-0.07v-0.362h-0.073c-0.026-0.001-0.049-0.007-0.069-0.018-0.021-0.013-0.038-0.029-0.05-0.05-0.012-0.02-0.018-0.043-0.018-0.07 0-0.025 0.006-0.048 0.018-0.068 0.012-0.021 0.029-0.038 0.05-0.05 0.02-0.013 0.043-0.019 0.069-0.019h0.073v-0.698c0.001-0.051 0.013-0.098 0.038-0.139 0.025-0.042 0.058-0.075 0.1-0.1s0.088-0.037 0.139-0.038c0.027 0 0.05 0.006 0.07 0.018 0.021 0.012 0.038 0.029 0.049 0.049 0.013 0.021 0.019 0.044 0.019 0.07 0 0.027-0.006 0.05-0.019 0.071-0.011 0.021-0.028 0.038-0.049 0.05-0.02 0.013-0.043 0.019-0.07 0.019v0.698h0.063c0.025 0 0.049 0.006 0.07 0.019 0.021 0.012 0.037 0.029 0.05 0.05 0.013 0.02 0.02 0.043 0.02 0.068 0 0.027-0.007 0.05-0.02 0.07-0.013 0.021-0.029 0.037-0.05 0.05-0.021 0.011-0.045 0.017-0.07 0.018m-1.62-1.077c0.033-0.028 0.072-0.054 0.117-0.08 0.044-0.026 0.094-0.048 0.148-0.065 0.055-0.017 0.115-0.026 0.18-0.028 0.062 0 0.12 0.009 0.175 0.026 0.055 0.018 0.105 0.042 0.15 0.074 0.031 0.021 0.057 0.047 0.081 0.076 0.024 0.03 0.042 0.063 0.056 0.099 0.013 0.036 0.02 0.074 0.021 0.115 0 0.029-0.005 0.057-0.013 0.085s-0.02 0.055-0.035 0.08c-0.022 0.035-0.048 0.065-0.079 0.089s-0.064 0.043-0.098 0.058c-0.036 0.018-0.074 0.032-0.113 0.044s-0.079 0.021-0.12 0.029h-0.002l-0.003 0.002c-0.043 0.008-0.079 0.017-0.111 0.027-0.031 0.011-0.055 0.022-0.071 0.033-0.009 0.005-0.015 0.01-0.02 0.015-0.004 0.004-0.007 0.008-0.008 0.01-0.002 0.004-0.003 0.007-0.004 0.01-0.001 0.002-0.001 0.006-0.001 0.01 0 0.007 0.002 0.015 0.008 0.025 0.005 0.011 0.016 0.021 0.032 0.033 0.017 0.013 0.038 0.023 0.064 0.032 0.026 0.008 0.054 0.012 0.086 0.013 0.04-0.001 0.078-0.009 0.115-0.027 0.037-0.017 0.075-0.039 0.115-0.066 0.021-0.014 0.044-0.021 0.067-0.022 0.023-0.002 0.046 0.002 0.066 0.012 0.021 0.01 0.038 0.025 0.052 0.045 0.012 0.022 0.019 0.044 0.02 0.067 0 0.024-0.004 0.046-0.015 0.067-0.01 0.021-0.025 0.038-0.045 0.051-0.027 0.02-0.058 0.04-0.094 0.06-0.037 0.022-0.078 0.039-0.125 0.054-0.046 0.016-0.098 0.023-0.156 0.024-0.057 0-0.112-0.008-0.164-0.024s-0.1-0.039-0.143-0.069c-0.028-0.02-0.053-0.045-0.075-0.073-0.023-0.028-0.04-0.059-0.053-0.093s-0.019-0.07-0.02-0.109c0-0.028 0.004-0.056 0.011-0.083s0.018-0.052 0.032-0.074c0.022-0.033 0.048-0.062 0.078-0.086 0.029-0.023 0.06-0.043 0.094-0.059 0.033-0.015 0.068-0.028 0.104-0.038 0.037-0.011 0.075-0.02 0.114-0.027h0.002c0.046-0.009 0.086-0.02 0.121-0.032 0.035-0.013 0.061-0.025 0.079-0.038 0.01-0.006 0.018-0.012 0.023-0.017s0.008-0.009 0.01-0.013 0.004-0.007 0.005-0.011c0.002-0.003 0.002-0.008 0.002-0.014 0-0.01-0.003-0.021-0.009-0.034-0.007-0.012-0.019-0.026-0.036-0.041-0.02-0.013-0.045-0.024-0.074-0.033-0.03-0.01-0.062-0.014-0.096-0.015-0.033 0-0.066 0.005-0.1 0.016-0.034 0.01-0.066 0.024-0.097 0.041-0.03 0.017-0.056 0.035-0.078 0.053-0.019 0.016-0.04 0.026-0.063 0.03-0.023 0.003-0.046 0.001-0.068-0.007s-0.041-0.023-0.056-0.043c-0.015-0.018-0.025-0.039-0.028-0.062-0.004-0.023-0.001-0.045 0.006-0.067 0.008-0.022 0.021-0.04 0.039-0.055m-1.102 0.709c0.031 0.028 0.067 0.051 0.108 0.069 0.04 0.017 0.084 0.026 0.132 0.026 0.044 0 0.085-0.009 0.124-0.026 0.039-0.018 0.074-0.041 0.106-0.069 0.031-0.033 0.055-0.073 0.072-0.116 0.017-0.044 0.025-0.092 0.025-0.144 0-0.054-0.008-0.102-0.025-0.146s-0.041-0.084-0.072-0.119c-0.032-0.03-0.067-0.053-0.106-0.068-0.039-0.016-0.08-0.024-0.124-0.024-0.048 0-0.092 0.008-0.132 0.024-0.041 0.015-0.077 0.038-0.108 0.068-0.029 0.035-0.052 0.075-0.067 0.119s-0.023 0.092-0.023 0.146c0 0.052 0.008 0.1 0.023 0.144 0.015 0.043 0.038 0.083 0.067 0.116m0.24-0.89c0.083 0.001 0.16 0.018 0.232 0.051 0.071 0.033 0.133 0.08 0.185 0.139 0.057 0.056 0.1 0.121 0.13 0.196s0.045 0.157 0.045 0.244c0 0.085-0.015 0.164-0.045 0.238-0.03 0.073-0.073 0.14-0.13 0.2-0.052 0.059-0.114 0.106-0.185 0.139-0.072 0.033-0.149 0.05-0.232 0.051-0.087-0.001-0.166-0.018-0.238-0.051s-0.136-0.08-0.192-0.139c-0.054-0.06-0.097-0.127-0.127-0.2-0.03-0.074-0.045-0.153-0.046-0.238 0.001-0.087 0.016-0.169 0.046-0.244s0.073-0.14 0.127-0.196c0.056-0.059 0.12-0.106 0.192-0.139s0.151-0.05 0.238-0.051m-1.71 0.882c0.031 0.035 0.067 0.06 0.107 0.077 0.041 0.017 0.084 0.026 0.13 0.026 0.043 0 0.085-0.009 0.125-0.026 0.041-0.017 0.077-0.042 0.11-0.077 0.029-0.033 0.053-0.071 0.07-0.114 0.018-0.043 0.027-0.09 0.028-0.139 0-0.033-0.005-0.064-0.013-0.096-0.008-0.031-0.019-0.059-0.034-0.086-0.015-0.026-0.032-0.049-0.051-0.069-0.033-0.035-0.069-0.061-0.11-0.079-0.04-0.017-0.082-0.026-0.125-0.026-0.046 0-0.089 0.009-0.13 0.026-0.04 0.018-0.076 0.044-0.107 0.079-0.022 0.02-0.04 0.043-0.054 0.069-0.015 0.027-0.026 0.055-0.033 0.086-0.007 0.032-0.011 0.063-0.011 0.096 0 0.049 0.008 0.096 0.024 0.139 0.017 0.043 0.041 0.081 0.074 0.114m-0.24-1.344c0.027 0 0.051 0.007 0.072 0.019 0.021 0.013 0.039 0.029 0.051 0.049 0.013 0.021 0.019 0.043 0.019 0.066v0.438c0.045-0.032 0.097-0.058 0.155-0.075 0.057-0.018 0.117-0.027 0.18-0.027 0.084 0 0.162 0.017 0.235 0.049s0.137 0.076 0.192 0.133c0.056 0.056 0.099 0.122 0.13 0.197 0.032 0.075 0.048 0.156 0.048 0.242 0 0.087-0.016 0.167-0.048 0.243-0.031 0.076-0.074 0.143-0.13 0.2-0.055 0.058-0.119 0.103-0.192 0.136s-0.151 0.049-0.235 0.05c-0.064-0.001-0.125-0.01-0.183-0.029s-0.11-0.043-0.157-0.074c-0.004 0.019-0.012 0.036-0.024 0.051-0.013 0.016-0.029 0.028-0.049 0.038-0.019 0.009-0.041 0.013-0.064 0.014-0.025-0.001-0.047-0.007-0.067-0.018-0.02-0.012-0.036-0.028-0.047-0.048-0.013-0.02-0.018-0.042-0.019-0.067v-1.453c0.001-0.023 0.006-0.045 0.019-0.066 0.011-0.02 0.027-0.036 0.047-0.049 0.02-0.012 0.042-0.019 0.067-0.019m-0.96 1.087h0.47c0.027 0.001 0.052 0.007 0.074 0.021 0.022 0.013 0.04 0.031 0.053 0.053s0.02 0.047 0.02 0.074c0 0.028-0.007 0.053-0.02 0.075-0.013 0.023-0.031 0.041-0.053 0.055-0.022 0.013-0.047 0.019-0.074 0.02h-0.47c-0.027-0.001-0.052-0.007-0.074-0.02-0.022-0.014-0.04-0.032-0.053-0.055-0.014-0.022-0.02-0.047-0.021-0.075 0.001-0.027 0.007-0.052 0.021-0.074 0.013-0.022 0.031-0.04 0.053-0.053 0.022-0.014 0.047-0.02 0.074-0.021m-0.968 0.395c0.055-0.004 0.103-0.016 0.146-0.034 0.044-0.019 0.08-0.041 0.111-0.067 0.031-0.027 0.057-0.054 0.075-0.083 0.019-0.028 0.032-0.055 0.038-0.081h-0.707c0.005 0.026 0.015 0.054 0.031 0.084 0.016 0.029 0.038 0.057 0.066 0.083 0.027 0.027 0.061 0.049 0.101 0.067s0.087 0.028 0.139 0.031m0-1.012c0.089 0 0.17 0.013 0.245 0.04 0.074 0.027 0.142 0.069 0.203 0.125 0.019 0.018 0.029 0.037 0.033 0.058 0.003 0.02 0.001 0.04-0.006 0.059-0.007 0.018-0.016 0.033-0.027 0.045-0.008 0.01-0.021 0.018-0.036 0.024-0.015 0.005-0.032 0.008-0.05 0.008-0.019 0-0.037-0.003-0.054-0.009-0.019-0.006-0.034-0.017-0.048-0.03-0.021-0.016-0.046-0.029-0.075-0.039s-0.059-0.018-0.091-0.021c-0.032-0.004-0.063-0.005-0.094-0.003-0.029 0.003-0.059 0.01-0.089 0.02-0.03 0.009-0.058 0.023-0.084 0.039-0.027 0.016-0.049 0.034-0.067 0.054-0.022 0.022-0.04 0.047-0.054 0.077-0.015 0.029-0.024 0.059-0.031 0.088h0.795c0.036 0 0.065 0.009 0.089 0.027 0.023 0.018 0.037 0.042 0.041 0.073 0.002 0.003 0.002 0.007 0.002 0.011 0.001 0.005 0.001 0.008 0.001 0.011v0.013c-0.005 0.085-0.025 0.162-0.057 0.233s-0.076 0.132-0.13 0.183c-0.054 0.052-0.116 0.092-0.187 0.121-0.071 0.028-0.147 0.042-0.229 0.043-0.086-0.001-0.166-0.017-0.239-0.05-0.074-0.033-0.138-0.078-0.193-0.135-0.055-0.058-0.098-0.124-0.129-0.199s-0.047-0.155-0.048-0.241c0.001-0.086 0.017-0.166 0.048-0.241s0.074-0.141 0.129-0.198 0.119-0.103 0.193-0.135c0.073-0.033 0.153-0.05 0.239-0.051" fill="#4f8bcc"/></g><g transform="matrix(1.0965 0 0 -.83089 78.751 274.92)"><path d="m0 0c-0.066 0-0.12 0.054-0.12 0.12v7.772c0 0.066 0.054 0.12 0.12 0.12s0.12-0.054 0.12-0.12v-7.772c0-0.066-0.054-0.12-0.12-0.12" fill="#4f8bcc"/></g><g transform="matrix(1.0965 0 0 -1.0965 77.867 276.59)"><path d="m0 0h1.614l-0.807 1.397zm1.822-0.24h-2.03c-0.043 0-0.083 0.023-0.104 0.06s-0.021 0.082 0 0.119l1.015 1.758c0.041 0.074 0.164 0.076 0.207 0l1.016-1.758c0.021-0.037 0.021-0.082 0-0.119s-0.061-0.06-0.104-0.06" fill="#4f8bcc"/></g><g transform="matrix(1.0965 0 0 -.83089 49.93 274.92)"><path d="m0 0c-0.066 0-0.12 0.054-0.12 0.12v7.772c0 0.066 0.054 0.12 0.12 0.12s0.12-0.054 0.12-0.12v-7.772c0-0.066-0.054-0.12-0.12-0.12" fill="#4f8bcc"/></g><g transform="matrix(1.0965 0 0 -1.0965 49.045 276.59)"><path d="m0 0h1.614l-0.807 1.397zm1.822-0.24h-2.03c-0.043 0-0.083 0.023-0.104 0.06s-0.021 0.082 0 0.119l1.015 1.758c0.043 0.074 0.165 0.074 0.208 0l1.015-1.758c0.022-0.037 0.022-0.082 0-0.119-0.021-0.037-0.061-0.06-0.104-0.06" fill="#4f8bcc"/></g><g transform="matrix(1.0965 0 0 -1.0965 45.185 263.96)"><path d="m0 0c-0.016 0.012-0.034 0.019-0.052 0.021-0.019 0.002-0.038-0.001-0.056-0.009-0.018-0.007-0.033-0.019-0.046-0.036l-0.342-0.468-0.342 0.468c-0.012 0.017-0.026 0.029-0.043 0.036-0.018 0.008-0.036 0.011-0.055 0.009s-0.037-0.009-0.054-0.021-0.029-0.027-0.036-0.044c-0.008-0.018-0.011-0.036-0.008-0.055 0.002-0.019 0.009-0.036 0.022-0.053l0.406-0.562v-0.54c0.001-0.021 0.006-0.04 0.016-0.056 0.01-0.017 0.023-0.03 0.04-0.039 0.016-0.01 0.034-0.015 0.054-0.015 0.021 0 0.04 0.005 0.056 0.015 0.017 0.009 0.03 0.022 0.04 0.039 0.009 0.016 0.014 0.035 0.014 0.056v0.54l0.41 0.562c0.011 0.017 0.018 0.034 0.02 0.053 0.001 0.019-0.002 0.037-0.009 0.055-0.007 0.017-0.019 0.032-0.035 0.044m-2.21-0.186h0.246c0.039 0 0.074-0.01 0.105-0.028s0.056-0.043 0.074-0.074c0.018-0.032 0.028-0.067 0.029-0.106-0.001-0.038-0.011-0.072-0.029-0.103-0.018-0.03-0.043-0.055-0.074-0.073s-0.066-0.027-0.105-0.028h-0.246zm0.676-0.208c0 0.06-0.012 0.116-0.034 0.168-0.022 0.051-0.053 0.097-0.092 0.136-0.039 0.04-0.085 0.07-0.137 0.092-0.051 0.022-0.107 0.034-0.167 0.034h-0.358c-0.021 0-0.039-0.005-0.055-0.015-0.017-0.009-0.03-0.022-0.04-0.039-0.01-0.016-0.015-0.035-0.015-0.056v-1.18c0-0.02 0.005-0.039 0.015-0.055 0.01-0.017 0.023-0.03 0.04-0.04 0.016-0.01 0.034-0.015 0.055-0.015s0.039 0.005 0.056 0.015 0.031 0.023 0.041 0.04c0.009 0.016 0.015 0.035 0.015 0.055v0.434h0.246c0.06 0 0.116 0.012 0.167 0.034 0.052 0.022 0.098 0.052 0.137 0.091s0.07 0.084 0.092 0.136c0.022 0.051 0.034 0.106 0.034 0.165m-1.993-0.598c-0.042-0.045-0.09-0.081-0.144-0.106s-0.111-0.037-0.172-0.038c-0.064 0.001-0.123 0.013-0.178 0.038s-0.103 0.061-0.146 0.106c-0.028 0.029-0.052 0.062-0.072 0.098-0.021 0.037-0.036 0.076-0.047 0.119-0.011 0.042-0.017 0.086-0.017 0.131 0 0.046 0.006 0.089 0.017 0.132 0.011 0.042 0.026 0.081 0.047 0.118 0.02 0.037 0.044 0.071 0.072 0.1 0.043 0.045 0.091 0.08 0.146 0.105 0.055 0.024 0.114 0.037 0.178 0.037 0.061 0 0.118-0.013 0.172-0.037 0.054-0.025 0.102-0.06 0.144-0.105 0.028-0.029 0.052-0.063 0.072-0.1 0.021-0.037 0.036-0.076 0.047-0.118 0.012-0.043 0.017-0.086 0.017-0.132 0-0.045-0.005-0.089-0.017-0.131-0.011-0.043-0.026-0.082-0.047-0.119-0.02-0.036-0.044-0.069-0.072-0.098m-0.316 1.068c-0.064 0-0.126-0.009-0.185-0.026s-0.115-0.042-0.166-0.073c-0.051-0.032-0.098-0.07-0.139-0.115-0.062-0.066-0.111-0.142-0.145-0.228s-0.052-0.178-0.053-0.278c0.001-0.066 0.008-0.13 0.024-0.19 0.016-0.061 0.038-0.118 0.068-0.171 0.029-0.053 0.065-0.102 0.106-0.145 0.041-0.044 0.088-0.081 0.139-0.113s0.107-0.057 0.166-0.074c0.059-0.018 0.121-0.027 0.185-0.027 0.062 0 0.122 0.009 0.18 0.027 0.058 0.017 0.113 0.042 0.163 0.074 0.051 0.032 0.096 0.069 0.136 0.113 0.041 0.043 0.077 0.092 0.107 0.145s0.054 0.11 0.07 0.171c0.016 0.06 0.024 0.124 0.024 0.19s-0.008 0.129-0.024 0.19c-0.016 0.06-0.04 0.117-0.07 0.17s-0.066 0.102-0.107 0.146c-0.04 0.045-0.085 0.083-0.136 0.115-0.05 0.031-0.105 0.056-0.163 0.073s-0.118 0.026-0.18 0.026m-1.792-1.44c0.088 0 0.172 0.014 0.25 0.041s0.149 0.066 0.212 0.115c0.016 0.013 0.028 0.029 0.035 0.047 0.006 0.019 0.009 0.038 0.006 0.058-0.002 0.02-0.009 0.038-0.021 0.055-0.013 0.016-0.03 0.028-0.049 0.035s-0.038 0.009-0.058 0.007c-0.019-0.002-0.037-0.009-0.053-0.02-0.045-0.036-0.094-0.063-0.148-0.082s-0.112-0.028-0.174-0.028c-0.069 0.001-0.135 0.013-0.196 0.039-0.062 0.025-0.116 0.06-0.164 0.105-0.045 0.045-0.081 0.097-0.107 0.156-0.025 0.06-0.038 0.124-0.039 0.192 0.001 0.068 0.014 0.132 0.039 0.191 0.026 0.058 0.062 0.111 0.107 0.157 0.048 0.045 0.102 0.08 0.164 0.105 0.061 0.026 0.127 0.039 0.196 0.039 0.062 0 0.121-0.009 0.175-0.028s0.103-0.046 0.147-0.082c0.016-0.012 0.034-0.019 0.053-0.021 0.02-0.003 0.039 0 0.058 0.007s0.036 0.019 0.049 0.036c0.012 0.017 0.019 0.035 0.021 0.055 0.003 0.02 0 0.039-0.006 0.057-0.007 0.018-0.019 0.035-0.035 0.048-0.063 0.049-0.134 0.088-0.212 0.115s-0.162 0.041-0.25 0.041c-0.08-0.001-0.157-0.013-0.23-0.038-0.072-0.024-0.14-0.058-0.201-0.102-0.06-0.044-0.114-0.096-0.159-0.156s-0.08-0.125-0.105-0.197-0.038-0.147-0.039-0.227c0.001-0.08 0.014-0.156 0.039-0.228s0.06-0.137 0.105-0.197 0.099-0.113 0.159-0.156c0.061-0.044 0.129-0.078 0.201-0.102 0.073-0.024 0.15-0.037 0.23-0.037" fill="#4f8bcc"/></g><path d="m35.084 274h48.157v-7.5492h-48.157zm48.289 0.26419h-48.421c-0.07236 0-0.13157-0.0591-0.13157-0.13272v-7.8124c0-0.0724 0.05921-0.13147 0.13157-0.13147h48.42c0.07344 0 0.13157 0.0591 0.13157 0.13147v7.8124c0 0.0734-0.05812 0.13272-0.13157 0.13272" fill="#4f8bcc"/><g transform="matrix(1.0965 0 0 -1.0965 83.372 272.2)"><path d="m0 0h-30.499c-0.066 0-0.12 0.054-0.12 0.12 0 0.067 0.054 0.12 0.12 0.12h30.499c0.066 0 0.12-0.053 0.12-0.12 0-0.066-0.054-0.12-0.12-0.12" fill="#4f8bcc"/></g><g transform="matrix(1.0965 0 0 -1.0965 83.372 268.52)"><path d="m0 0h-30.499c-0.066 0-0.12 0.054-0.12 0.12 0 0.067 0.054 0.12 0.12 0.12h30.499c0.066 0 0.12-0.053 0.12-0.12 0-0.066-0.054-0.12-0.12-0.12" fill="#4f8bcc"/></g></g></svg>
