<?xml version="1.0" encoding="UTF-8" standalone="no"?>
<svg
   xmlns:dc="http://purl.org/dc/elements/1.1/"
   xmlns:cc="http://creativecommons.org/ns#"
   xmlns:rdf="http://www.w3.org/1999/02/22-rdf-syntax-ns#"
   xmlns:svg="http://www.w3.org/2000/svg"
   xmlns="http://www.w3.org/2000/svg"
   xmlns:sodipodi="http://sodipodi.sourceforge.net/DTD/sodipodi-0.dtd"
   xmlns:inkscape="http://www.inkscape.org/namespaces/inkscape"
   viewBox="0 0 48.683332 14.539455"
   height="54.952"
   width="184"
   version="1.1"
   id="svg6759"
   sodipodi:docname="email-daily-2.plain.svg"
   inkscape:version="0.92.3 (unknown)">
  <metadata
     id="metadata6765">
    <rdf:RDF>
      <cc:Work
         rdf:about="">
        <dc:format>image/svg+xml</dc:format>
        <dc:type
           rdf:resource="http://purl.org/dc/dcmitype/StillImage" />
      </cc:Work>
    </rdf:RDF>
  </metadata>
  <defs
     id="defs6763" />
  <sodipodi:namedview
     pagecolor="#ffffff"
     bordercolor="#666666"
     borderopacity="1"
     objecttolerance="10"
     gridtolerance="10"
     guidetolerance="10"
     inkscape:pageopacity="0"
     inkscape:pageshadow="2"
     inkscape:window-width="1156"
     inkscape:window-height="729"
     id="namedview6761"
     showgrid="false"
     inkscape:zoom="1.951087"
     inkscape:cx="92"
     inkscape:cy="27.476"
     inkscape:window-x="65"
     inkscape:window-y="24"
     inkscape:window-maximized="0"
     inkscape:current-layer="svg6759" />
  <g
     style="fill:#4f8acc;fill-rule:evenodd"
     id="g6723"
     transform="matrix(1.0563092,0,0,1.0563092,-102.38818,-183.51377)">
    <path
       inkscape:connector-curvature="0"
       id="path6717"
       d="m 102.66,180.44 c -0.5071,0 -0.9189,-0.4122 -0.9189,-0.919 0,-0.5068 0.4118,-0.919 0.9189,-0.919 0.5066,0 0.9187,0.4122 0.9187,0.919 0,0.5068 -0.4121,0.919 -0.9187,0.919 z m 0,-1.5976 c -0.3747,0 -0.6789,0.3044 -0.6789,0.6786 0,0.3742 0.3042,0.6789 0.6789,0.6789 0.3745,0 0.6787,-0.3047 0.6787,-0.6789 0,-0.3742 -0.3042,-0.6786 -0.6787,-0.6786 z" />
    <path
       inkscape:connector-curvature="0"
       id="path6719"
       d="m 105.66,180.44 c -0.5068,0 -0.9189,-0.4122 -0.9189,-0.919 0,-0.5068 0.4121,-0.919 0.9189,-0.919 0.5063,0 0.9185,0.4122 0.9185,0.919 0,0.5068 -0.4122,0.919 -0.9185,0.919 z m 0,-1.5976 c -0.3744,0 -0.6786,0.3044 -0.6786,0.6786 0,0.3742 0.3042,0.6789 0.6786,0.6789 0.3739,0 0.6781,-0.3047 0.6781,-0.6789 0,-0.3742 -0.3042,-0.6786 -0.6781,-0.6786 z" />
    <path
       inkscape:connector-curvature="0"
       id="path6721"
       d="m 108.66,180.44 c -0.5066,0 -0.9185,-0.4122 -0.9185,-0.919 0,-0.5068 0.4119,-0.919 0.9185,-0.919 0.5065,0 0.919,0.4122 0.919,0.919 0,0.5068 -0.4125,0.919 -0.919,0.919 z m 0,-1.5976 c -0.3742,0 -0.6784,0.3044 -0.6784,0.6786 0,0.3742 0.3042,0.6789 0.6784,0.6789 0.3744,0 0.6786,-0.3047 0.6786,-0.6789 0,-0.3742 -0.3042,-0.6786 -0.6786,-0.6786 z" />
  </g>
  <g
     style="fill:#4f8acc;fill-rule:evenodd"
     id="g6729"
     transform="matrix(1.0563092,0,0,1.0563092,-102.38818,-183.51377)">
    <path
       inkscape:connector-curvature="0"
       id="path6725"
       d="m 114.08,179.69 c 0.001,-0.0496 0.0136,-0.0947 0.0374,-0.1353 0.0238,-0.0402 0.0556,-0.0722 0.0958,-0.0963 0.0397,-0.0244 0.0845,-0.0374 0.1341,-0.0389 0.0507,0.001 0.0961,0.0145 0.1369,0.0389 0.04,0.0241 0.0726,0.0561 0.0964,0.0963 0.0238,0.0406 0.0363,0.0857 0.0368,0.1353 v 0.5649 c 6e-4,0.0264 0.007,0.0496 0.0182,0.0697 0.0119,0.021 0.0286,0.0375 0.0493,0.0494 0.0204,0.0121 0.0439,0.0181 0.07,0.0184 0.0261,-3e-4 0.0496,-0.006 0.07,-0.0184 0.021,-0.0119 0.0369,-0.0284 0.0491,-0.0494 0.0119,-0.0201 0.0181,-0.0433 0.0184,-0.0697 V 179.69 c -3e-4,-0.0754 -0.0145,-0.1463 -0.0428,-0.2124 -0.0275,-0.0657 -0.0666,-0.1238 -0.1165,-0.174 -0.0496,-0.0505 -0.1069,-0.0899 -0.1729,-0.1179 -0.0655,-0.0287 -0.1364,-0.0428 -0.2129,-0.0434 -0.0485,6e-4 -0.0955,0.007 -0.1406,0.0207 -0.0445,0.0128 -0.087,0.03 -0.1267,0.0519 V 178.78 c -3e-4,-0.0263 -0.007,-0.0499 -0.0193,-0.0703 -0.0125,-0.0207 -0.0289,-0.0368 -0.0499,-0.049 -0.0215,-0.0119 -0.0445,-0.0179 -0.0711,-0.0181 -0.025,2e-4 -0.0482,0.006 -0.0689,0.0181 -0.0207,0.0122 -0.0374,0.0283 -0.0493,0.049 -0.0125,0.0204 -0.0184,0.044 -0.0193,0.0703 v 1.4749 c 0,0.006 9e-4,0.0125 0.002,0.0181 0.001,0.007 0.002,0.0119 0.003,0.0168 0.009,0.0294 0.0258,0.0535 0.0496,0.0731 0.0235,0.019 0.0516,0.0283 0.0828,0.0295 0.0266,-3e-4 0.0496,-0.006 0.0711,-0.0184 0.021,-0.0119 0.0374,-0.0284 0.0499,-0.0494 0.0125,-0.0201 0.019,-0.0433 0.0193,-0.0697 z m 1.565,-0.5477 h -0.0629 V 178.78 c -3e-4,-0.0263 -0.006,-0.0499 -0.0182,-0.0703 -0.0119,-0.0207 -0.0286,-0.0368 -0.0493,-0.049 -0.0204,-0.0119 -0.0434,-0.0179 -0.07,-0.0181 -0.0261,2e-4 -0.0496,0.006 -0.0706,0.0181 -0.0207,0.0122 -0.0374,0.0283 -0.0499,0.049 -0.0125,0.0204 -0.0187,0.044 -0.0193,0.0703 v 0.3623 h -0.0728 c -0.0258,6e-4 -0.0493,0.006 -0.0695,0.0181 -0.0212,0.0122 -0.0371,0.0287 -0.0493,0.0497 -0.0122,0.0204 -0.0181,0.0436 -0.0184,0.07 3e-4,0.0252 0.006,0.0482 0.0184,0.0686 0.0122,0.0209 0.0281,0.0374 0.0493,0.0496 0.0202,0.0124 0.0437,0.0187 0.0695,0.0192 h 0.0728 v 0.6974 c 9e-4,0.0513 0.0131,0.098 0.038,0.1394 0.0247,0.0417 0.0584,0.0752 0.0998,0.1001 0.0417,0.0247 0.0884,0.0368 0.1395,0.038 0.0266,-3e-4 0.0496,-0.006 0.07,-0.0184 0.0212,-0.0119 0.0374,-0.0284 0.0493,-0.0494 0.0122,-0.0201 0.0182,-0.0433 0.0184,-0.0697 -2e-4,-0.0264 -0.006,-0.0496 -0.0184,-0.0709 -0.0119,-0.0207 -0.0281,-0.0377 -0.0493,-0.0499 -0.0204,-0.0124 -0.0434,-0.0187 -0.07,-0.0192 v -0.6974 h 0.0629 c 0.0252,-5e-4 0.0485,-0.007 0.0695,-0.0192 0.0212,-0.0122 0.0379,-0.0287 0.0504,-0.0496 0.0125,-0.0204 0.0193,-0.0434 0.0198,-0.0686 -5e-4,-0.0264 -0.007,-0.0496 -0.0198,-0.07 -0.0125,-0.021 -0.0292,-0.0375 -0.0504,-0.0497 -0.021,-0.0119 -0.0443,-0.0175 -0.0695,-0.0181 z m 0.7299,0 H 116.312 V 178.78 c 0,-0.0263 -0.006,-0.0499 -0.0181,-0.0703 -0.012,-0.0207 -0.0284,-0.0368 -0.0491,-0.049 -0.0204,-0.0119 -0.0439,-0.0179 -0.07,-0.0181 -0.0264,2e-4 -0.0499,0.006 -0.0709,0.0181 -0.0207,0.0122 -0.0374,0.0283 -0.0499,0.049 -0.0127,0.0204 -0.0187,0.044 -0.0195,0.0703 v 0.3623 h -0.0723 c -0.0261,6e-4 -0.0496,0.006 -0.07,0.0181 -0.021,0.0122 -0.0369,0.0287 -0.0491,0.0497 -0.0124,0.0204 -0.0181,0.0436 -0.0184,0.07 3e-4,0.0252 0.006,0.0482 0.0184,0.0686 0.0122,0.0209 0.0281,0.0374 0.0491,0.0496 0.0204,0.0124 0.0439,0.0187 0.07,0.0192 h 0.0723 v 0.6974 c 0.001,0.0513 0.0133,0.098 0.0382,0.1394 0.025,0.0417 0.0584,0.0752 0.1001,0.1001 0.0414,0.0247 0.0879,0.0368 0.1392,0.038 0.0266,-3e-4 0.0496,-0.006 0.0703,-0.0184 0.0207,-0.0119 0.0371,-0.0284 0.049,-0.0494 0.0122,-0.0201 0.0179,-0.0433 0.0182,-0.0697 -3e-4,-0.0264 -0.006,-0.0496 -0.0182,-0.0709 -0.0119,-0.0207 -0.0283,-0.0377 -0.049,-0.0499 -0.0207,-0.0124 -0.0437,-0.0187 -0.0703,-0.0192 v -0.6974 h 0.0629 c 0.0253,-5e-4 0.0485,-0.007 0.0692,-0.0192 0.0215,-0.0122 0.038,-0.0287 0.051,-0.0496 0.0122,-0.0204 0.019,-0.0434 0.0193,-0.0686 -3e-4,-0.0264 -0.007,-0.0496 -0.0193,-0.07 -0.013,-0.021 -0.0295,-0.0375 -0.051,-0.0497 -0.0207,-0.0119 -0.0439,-0.0175 -0.0692,-0.0181 z m 0.5973,1.7201 c 0.0272,-3e-4 0.051,-0.007 0.0725,-0.0193 0.0213,-0.0128 0.0386,-0.0292 0.0508,-0.049 0.0127,-0.0205 0.0187,-0.0429 0.019,-0.0658 v -0.4385 c 0.0456,0.0326 0.0975,0.0581 0.155,0.0754 0.057,0.0181 0.1171,0.0269 0.1803,0.0272 0.0836,-3e-4 0.1619,-0.0167 0.235,-0.0491 0.0723,-0.0317 0.1366,-0.0759 0.1922,-0.1326 0.055,-0.0567 0.0986,-0.1228 0.1298,-0.1976 0.0315,-0.0748 0.0476,-0.1553 0.0479,-0.2424 -3e-4,-0.0861 -0.0164,-0.1669 -0.0479,-0.2432 -0.0312,-0.0754 -0.0748,-0.1417 -0.1298,-0.1995 -0.0556,-0.0579 -0.1199,-0.1029 -0.1922,-0.1355 -0.0731,-0.0329 -0.1514,-0.0496 -0.235,-0.0502 -0.0643,6e-4 -0.125,0.0102 -0.1831,0.0286 -0.0581,0.0187 -0.1103,0.0437 -0.1568,0.0737 -0.004,-0.0184 -0.0119,-0.0351 -0.0249,-0.0504 -0.0128,-0.0159 -0.0289,-0.0284 -0.0482,-0.0377 -0.0198,-0.009 -0.0408,-0.0136 -0.0646,-0.0142 -0.0244,6e-4 -0.0465,0.006 -0.0669,0.0181 -0.0196,0.012 -0.0354,0.0275 -0.0471,0.048 -0.0122,0.0198 -0.0181,0.0419 -0.0184,0.0666 v 0.4957 0.003 0.955 c 3e-4,0.0229 0.006,0.0453 0.0184,0.0658 0.0117,0.0198 0.0275,0.0362 0.0471,0.049 0.0204,0.0125 0.0425,0.019 0.0669,0.0193 z m 0.2398,-1.3445 c 0.032,-0.0343 0.0677,-0.0595 0.1077,-0.0771 0.0405,-0.017 0.0839,-0.0258 0.1301,-0.0258 0.0428,0 0.0845,0.009 0.125,0.0258 0.0403,0.0176 0.0771,0.0428 0.11,0.0771 0.0292,0.0329 0.053,0.0709 0.0703,0.1139 0.0173,0.0431 0.0264,0.0902 0.0272,0.1389 0,0.0335 -0.004,0.065 -0.0125,0.0961 -0.008,0.0309 -0.0195,0.0599 -0.0343,0.0865 -0.0144,0.0261 -0.0317,0.049 -0.0507,0.0686 -0.0329,0.0351 -0.0697,0.0618 -0.11,0.0794 -0.0405,0.0173 -0.0822,0.026 -0.125,0.026 -0.0462,0 -0.0896,-0.009 -0.1301,-0.026 -0.04,-0.0176 -0.0757,-0.0443 -0.1077,-0.0794 -0.0213,-0.0196 -0.0394,-0.0425 -0.0539,-0.0686 -0.0147,-0.0266 -0.0255,-0.0556 -0.0326,-0.0865 -0.007,-0.0311 -0.011,-0.0626 -0.011,-0.0961 0,-0.0487 0.008,-0.0958 0.0246,-0.1389 0.0162,-0.043 0.0406,-0.081 0.0729,-0.1139 z m 1.1228,0.7019 c 0.0334,0.0272 0.072,0.0538 0.1165,0.0796 0.0445,0.0258 0.0941,0.0473 0.1485,0.0652 0.055,0.017 0.1151,0.0261 0.18,0.0278 0.0618,-3e-4 0.1194,-0.009 0.1746,-0.0267 0.055,-0.0175 0.1049,-0.0416 0.15,-0.0737 0.0309,-0.0212 0.0575,-0.047 0.0811,-0.0762 0.0235,-0.0301 0.0422,-0.0621 0.0561,-0.0987 0.0136,-0.0354 0.0204,-0.0739 0.0207,-0.1148 0,-0.0286 -0.004,-0.0575 -0.0125,-0.0853 -0.008,-0.028 -0.0201,-0.0547 -0.0351,-0.0796 -0.0216,-0.0349 -0.0485,-0.065 -0.0794,-0.089 -0.0309,-0.0239 -0.0638,-0.0434 -0.0981,-0.0584 -0.036,-0.0176 -0.0737,-0.0324 -0.1125,-0.0437 -0.0386,-0.0119 -0.0788,-0.0213 -0.1202,-0.0289 h -0.002 l -0.002,-0.003 c -0.0431,-0.007 -0.0794,-0.017 -0.1106,-0.0269 -0.0317,-0.0108 -0.055,-0.0218 -0.0717,-0.0332 -0.009,-0.005 -0.0153,-0.0102 -0.0193,-0.0144 -0.005,-0.004 -0.007,-0.008 -0.008,-0.0105 -0.003,-0.003 -0.004,-0.007 -0.005,-0.009 -6e-4,-0.002 -6e-4,-0.006 -6e-4,-0.0104 -3e-4,-0.007 0.002,-0.0153 0.008,-0.025 0.005,-0.0108 0.0162,-0.0212 0.0318,-0.0329 0.017,-0.0127 0.038,-0.0229 0.0638,-0.0317 0.0258,-0.009 0.0547,-0.0125 0.0864,-0.0131 0.0397,6e-4 0.0777,0.009 0.1151,0.0267 0.0369,0.0173 0.0754,0.0394 0.1151,0.066 0.021,0.0142 0.0431,0.0216 0.0666,0.0227 0.023,0.001 0.0459,-0.003 0.0666,-0.0127 0.021,-0.01 0.038,-0.025 0.0516,-0.0451 0.0125,-0.0216 0.0193,-0.0439 0.0193,-0.0669 0.001,-0.0235 -0.004,-0.0456 -0.0139,-0.0663 -0.0102,-0.021 -0.0255,-0.038 -0.0456,-0.0516 -0.0264,-0.0193 -0.0576,-0.0394 -0.0944,-0.0601 -0.0363,-0.0213 -0.0774,-0.0391 -0.1239,-0.0544 -0.0468,-0.0148 -0.0992,-0.0224 -0.1565,-0.0233 -0.0575,0 -0.1125,0.008 -0.1641,0.0235 -0.0516,0.0162 -0.0995,0.0392 -0.1434,0.0692 -0.0278,0.0207 -0.0528,0.0454 -0.0749,0.0728 -0.0221,0.0287 -0.0399,0.0596 -0.0524,0.0933 -0.0133,0.0343 -0.0196,0.0706 -0.0204,0.1089 0,0.0286 0.004,0.0567 0.0113,0.0833 0.007,0.0266 0.0176,0.0516 0.0315,0.074 0.0224,0.0331 0.0487,0.0621 0.0779,0.0856 0.0292,0.0238 0.0607,0.0434 0.0947,0.0592 0.0323,0.0153 0.0672,0.0278 0.1038,0.0383 0.0371,0.0108 0.0748,0.0196 0.1136,0.0266 h 0.002 c 0.0456,0.01 0.0859,0.0199 0.121,0.0324 0.0346,0.0124 0.061,0.0252 0.0791,0.0379 0.0102,0.006 0.0176,0.0119 0.023,0.0171 0.005,0.005 0.008,0.009 0.01,0.013 0.002,0.004 0.004,0.007 0.006,0.0108 0.001,0.003 0.002,0.008 0.002,0.0141 3e-4,0.0102 -0.003,0.0213 -0.009,0.0338 -0.006,0.0124 -0.0187,0.026 -0.0357,0.0414 -0.0204,0.0127 -0.0456,0.024 -0.0748,0.0328 -0.0295,0.01 -0.061,0.0142 -0.0953,0.0145 -0.0331,6e-4 -0.0663,-0.005 -0.1003,-0.015 -0.034,-0.0108 -0.0658,-0.0244 -0.0964,-0.0417 -0.0303,-0.0164 -0.0564,-0.0349 -0.0785,-0.0533 -0.0187,-0.0161 -0.0397,-0.0252 -0.0627,-0.0292 -0.0232,-0.004 -0.0462,-0.001 -0.0683,0.007 -0.0221,0.008 -0.0408,0.0227 -0.0561,0.0426 -0.0153,0.0189 -0.0244,0.0396 -0.0275,0.0626 -0.004,0.023 -0.002,0.0451 0.005,0.0669 0.008,0.0215 0.021,0.0402 0.0394,0.0556 z m 1.1449,0.005 c 3e-4,0.0345 0.009,0.0654 0.0255,0.0929 0.0159,0.0284 0.038,0.0505 0.0663,0.0672 0.0275,0.0162 0.0587,0.0244 0.0933,0.025 0.0346,-6e-4 0.0655,-0.009 0.0941,-0.025 0.0281,-0.0167 0.0505,-0.0388 0.0672,-0.0672 0.017,-0.0275 0.0258,-0.0584 0.0258,-0.0929 0,-0.0346 -0.009,-0.0658 -0.0258,-0.0942 -0.0167,-0.0283 -0.0391,-0.0507 -0.0672,-0.0674 -0.0286,-0.0167 -0.0595,-0.0255 -0.0941,-0.0258 -0.0346,3e-4 -0.0658,0.009 -0.0933,0.0258 -0.0283,0.0167 -0.0504,0.0391 -0.0663,0.0674 -0.0167,0.0284 -0.0252,0.0596 -0.0255,0.0942 z m 0,-0.995 c 3e-4,0.0346 0.009,0.0658 0.0255,0.0933 0.0159,0.0277 0.038,0.0498 0.0663,0.0663 0.0275,0.0167 0.0587,0.0246 0.0933,0.0255 0.0346,-9e-4 0.0655,-0.009 0.0941,-0.0255 0.0281,-0.0165 0.0505,-0.0386 0.0672,-0.0663 0.017,-0.0275 0.0258,-0.0587 0.0258,-0.0933 0,-0.0346 -0.009,-0.0661 -0.0258,-0.0941 -0.0167,-0.0284 -0.0391,-0.0508 -0.0672,-0.0678 -0.0286,-0.0164 -0.0595,-0.0252 -0.0941,-0.0258 -0.0346,6e-4 -0.0658,0.009 -0.0933,0.0258 -0.0283,0.017 -0.0504,0.0394 -0.0663,0.0678 -0.0167,0.028 -0.0252,0.0595 -0.0255,0.0941 z m 0.5573,1.1526 c 0.008,0.004 0.0167,0.006 0.0252,0.008 0.009,8e-4 0.0176,0.002 0.025,0.002 0.0269,0 0.0521,-0.007 0.0751,-0.0216 0.0232,-0.0141 0.0408,-0.0345 0.0524,-0.0609 l 0.6123,-1.4598 c 0.01,-0.023 0.0133,-0.0463 0.01,-0.0701 -0.003,-0.0241 -0.0113,-0.045 -0.0252,-0.0643 -0.0139,-0.019 -0.0326,-0.0337 -0.055,-0.0431 -0.0244,-0.0102 -0.0485,-0.0136 -0.0726,-0.0102 -0.0241,0.003 -0.0459,0.0113 -0.0649,0.0258 -0.0201,0.0142 -0.0343,0.0334 -0.0448,0.0567 l -0.612,1.4576 c -0.0102,0.0238 -0.0133,0.0473 -0.0102,0.0717 0.003,0.0241 0.0122,0.0453 0.0264,0.0649 0.015,0.019 0.0343,0.0334 0.0584,0.0434 z m 0.5173,0 c -0.0238,-0.01 -0.0434,-0.0244 -0.0581,-0.0434 -0.0145,-0.0196 -0.0235,-0.0408 -0.0266,-0.0649 -0.003,-0.0244 0,-0.0479 0.01,-0.0717 l 0.6125,-1.4576 c 0.0105,-0.0233 0.0247,-0.0425 0.0448,-0.0567 0.019,-0.0145 0.0409,-0.023 0.0649,-0.0258 0.0241,-0.003 0.0482,0 0.0726,0.0102 0.0224,0.009 0.0411,0.0241 0.055,0.0431 0.0139,0.0193 0.0224,0.0402 0.0252,0.0643 0.003,0.0238 0,0.0471 -0.01,0.0701 l -0.6126,1.4598 c -0.0116,0.0264 -0.0291,0.0468 -0.0524,0.0609 -0.023,0.0142 -0.0479,0.0216 -0.0751,0.0216 -0.007,0 -0.0159,-0.001 -0.025,-0.002 -0.008,-0.002 -0.017,-0.004 -0.0252,-0.008 z m 1.785,-0.51 v -0.5975 c -3e-4,-0.0238 -0.006,-0.0454 -0.0193,-0.0655 -0.0125,-0.0199 -0.0289,-0.0363 -0.0493,-0.0482 -0.0204,-0.0122 -0.0422,-0.0184 -0.0661,-0.019 -0.0249,6e-4 -0.0476,0.007 -0.0674,0.019 -0.0193,0.0119 -0.0346,0.0283 -0.0454,0.0482 -0.0116,0.0201 -0.0167,0.0417 -0.0173,0.0655 v 0.5975 c -0.001,0.0476 -0.0136,0.0913 -0.0371,0.1296 -0.0227,0.0379 -0.0541,0.0683 -0.0933,0.0907 -0.0391,0.0226 -0.0833,0.0343 -0.1321,0.0345 -0.0479,-2e-4 -0.0915,-0.0119 -0.1295,-0.0345 -0.0383,-0.0224 -0.0686,-0.0528 -0.091,-0.0907 -0.0224,-0.0383 -0.0343,-0.082 -0.0343,-0.1296 v -0.5975 c -6e-4,-0.0238 -0.007,-0.0454 -0.0176,-0.0655 -0.0116,-0.0199 -0.0275,-0.0363 -0.0476,-0.0482 -0.0195,-0.0122 -0.0422,-0.0184 -0.0674,-0.019 -0.0247,6e-4 -0.0468,0.007 -0.0667,0.019 -0.0201,0.0119 -0.0357,0.0283 -0.0476,0.0482 -0.0119,0.0201 -0.0178,0.0417 -0.0184,0.0655 v 0.5975 c 6e-4,0.0714 0.0144,0.1383 0.0411,0.2016 0.0272,0.0626 0.0646,0.1176 0.1125,0.1646 0.0471,0.048 0.1024,0.0854 0.165,0.1123 0.0629,0.0272 0.1301,0.0411 0.2015,0.0414 0.0726,-3e-4 0.1406,-0.0142 0.2039,-0.0414 0.0629,-0.0269 0.119,-0.0643 0.1675,-0.1123 0.0487,-0.047 0.0867,-0.102 0.1142,-0.1646 0.0275,-0.0633 0.0414,-0.1302 0.0417,-0.2016 z m 1.0352,-0.7276 c -0.0417,-3e-4 -0.0814,0.003 -0.1188,0.0121 -0.0374,0.008 -0.0731,0.0199 -0.1057,0.0349 -0.0326,0.0148 -0.0632,0.0318 -0.0907,0.0505 -0.009,0.006 -0.0176,0.0141 -0.0272,0.0226 -0.009,0.009 -0.0176,0.0182 -0.025,0.0275 v -0.0175 c -8e-4,-0.0247 -0.007,-0.0462 -0.0192,-0.0658 -0.0125,-0.0196 -0.0287,-0.0351 -0.0491,-0.0471 -0.021,-0.011 -0.0442,-0.017 -0.0691,-0.0172 -0.025,2e-4 -0.0471,0.006 -0.0669,0.0172 -0.0199,0.012 -0.0358,0.0275 -0.0474,0.0471 -0.0122,0.0196 -0.0178,0.0411 -0.0187,0.0658 v 0.985 c 9e-4,0.0244 0.007,0.0465 0.0187,0.0663 0.0116,0.0202 0.0275,0.036 0.0474,0.0477 0.0198,0.0121 0.0419,0.0181 0.0669,0.0184 0.0249,-3e-4 0.0481,-0.006 0.0691,-0.0184 0.0204,-0.0117 0.0366,-0.0275 0.0491,-0.0477 0.0124,-0.0198 0.0184,-0.0419 0.0192,-0.0663 v -0.4754 c 0.004,-0.0122 0.0102,-0.0292 0.0187,-0.0518 0.008,-0.023 0.0196,-0.0479 0.0332,-0.0757 0.0136,-0.0275 0.0306,-0.055 0.0502,-0.0822 0.015,-0.0238 0.032,-0.0462 0.051,-0.0666 0.019,-0.0205 0.0405,-0.0383 0.0643,-0.0533 0.0213,-0.0162 0.044,-0.0287 0.0692,-0.036 0.0247,-0.008 0.0519,-0.0117 0.0808,-0.0117 0.0255,-2e-4 0.0479,-0.007 0.0672,-0.0189 0.0201,-0.012 0.036,-0.0281 0.0476,-0.048 0.0113,-0.0204 0.017,-0.0416 0.0173,-0.0654 -3e-4,-0.0247 -0.006,-0.0462 -0.0173,-0.0658 -0.0116,-0.0196 -0.0275,-0.0351 -0.0476,-0.0471 -0.0193,-0.011 -0.0417,-0.017 -0.0672,-0.0172 z m 0.3651,-0.3649 v 1.4749 c 0,0.0252 0.007,0.0482 0.019,0.0686 0.0119,0.021 0.0289,0.0377 0.0496,0.0496 0.0204,0.0125 0.0431,0.019 0.0686,0.0193 0.0266,-3e-4 0.0496,-0.007 0.0711,-0.0193 0.0207,-0.0119 0.0372,-0.0286 0.0499,-0.0496 0.0125,-0.0204 0.0187,-0.0434 0.0193,-0.0686 v -1.4749 c -6e-4,-0.0258 -0.007,-0.0484 -0.0193,-0.0691 -0.0127,-0.0204 -0.0292,-0.0372 -0.0499,-0.0496 -0.0215,-0.0122 -0.0445,-0.0185 -0.0711,-0.0187 -0.0255,2e-4 -0.0482,0.006 -0.0686,0.0187 -0.0207,0.0124 -0.0377,0.0292 -0.0496,0.0496 -0.0125,0.0207 -0.019,0.0433 -0.019,0.0691 z m 0.5723,0.995 h 0.47 c 0.0272,-9e-4 0.0516,-0.007 0.0737,-0.0204 0.0221,-0.0133 0.0403,-0.0318 0.0533,-0.0533 0.0136,-0.0221 0.0201,-0.0471 0.0204,-0.074 -3e-4,-0.028 -0.007,-0.0527 -0.0204,-0.0754 -0.013,-0.0227 -0.0312,-0.0408 -0.0533,-0.0541 -0.0221,-0.0134 -0.0465,-0.0202 -0.0737,-0.0204 h -0.47 c -0.0272,2e-4 -0.0516,0.007 -0.0737,0.0204 -0.0221,0.0133 -0.04,0.0314 -0.0533,0.0541 -0.0133,0.0227 -0.0201,0.0474 -0.0204,0.0754 3e-4,0.0269 0.007,0.0519 0.0204,0.074 0.0133,0.0215 0.0312,0.04 0.0533,0.0533 0.0221,0.0133 0.0465,0.0195 0.0737,0.0204 z m 1.3725,0.6248 c 0.0831,-3e-4 0.1602,-0.0173 0.2319,-0.0508 0.0717,-0.0332 0.1335,-0.0799 0.1854,-0.1395 0.0567,-0.0549 0.0995,-0.1204 0.1298,-0.1953 0.0298,-0.0748 0.0448,-0.1564 0.0451,-0.2443 -3e-4,-0.085 -0.0153,-0.1641 -0.0451,-0.2375 -0.0303,-0.0735 -0.0731,-0.1404 -0.1298,-0.1999 -0.0519,-0.0592 -0.1137,-0.106 -0.1854,-0.1395 -0.0717,-0.0331 -0.1488,-0.0501 -0.2319,-0.0507 -0.0864,6e-4 -0.1655,0.0176 -0.2375,0.0507 -0.072,0.0335 -0.1366,0.0803 -0.1925,0.1395 -0.0541,0.0595 -0.0966,0.1264 -0.1267,0.1999 -0.0303,0.0734 -0.0456,0.1525 -0.0459,0.2375 3e-4,0.0879 0.0156,0.1695 0.0459,0.2443 0.0301,0.0749 0.0726,0.1404 0.1267,0.1953 0.0559,0.0596 0.1205,0.1063 0.1925,0.1395 0.072,0.0335 0.1511,0.0505 0.2375,0.0508 z m -0.2403,-0.8898 c 0.0314,-0.0281 0.0677,-0.0511 0.108,-0.0684 0.0405,-0.0172 0.0847,-0.0263 0.1323,-0.0266 0.044,3e-4 0.0851,0.009 0.1242,0.0266 0.0391,0.0173 0.0743,0.0403 0.1057,0.0684 0.0312,0.0337 0.0556,0.0728 0.072,0.1165 0.0173,0.0442 0.0256,0.0918 0.0256,0.1434 0,0.0539 -0.008,0.1026 -0.0256,0.1465 -0.0164,0.044 -0.0408,0.0834 -0.072,0.1183 -0.0314,0.0303 -0.0666,0.0532 -0.1057,0.0685 -0.0391,0.0162 -0.0802,0.0241 -0.1242,0.0241 -0.0476,0 -0.0918,-0.008 -0.1323,-0.0241 -0.0403,-0.0153 -0.0766,-0.0382 -0.108,-0.0685 -0.0284,-0.0349 -0.0511,-0.0743 -0.0664,-0.1183 -0.0153,-0.0439 -0.0232,-0.0926 -0.0232,-0.1465 0,-0.0516 0.008,-0.0992 0.0232,-0.1434 0.0153,-0.0437 0.038,-0.0828 0.0664,-0.1165 z m 1.4901,-0.5766 c 9e-4,-0.001 0.003,-0.003 0.004,-0.004 0.002,-8e-4 0.005,-0.002 0.0105,-0.003 0.005,-0.002 0.013,-0.004 0.0241,-0.005 0.011,-0.002 0.0249,-0.002 0.0408,-0.002 0.0258,0 0.0485,-0.007 0.0694,-0.0187 0.0202,-0.0128 0.0369,-0.0292 0.0488,-0.0502 0.013,-0.0207 0.019,-0.0445 0.0193,-0.0703 -3e-4,-0.025 -0.006,-0.0479 -0.0193,-0.0689 -0.0119,-0.0204 -0.0286,-0.0366 -0.0488,-0.049 -0.0209,-0.0122 -0.0436,-0.0185 -0.0694,-0.0187 -0.0261,0 -0.0513,0.001 -0.0754,0.004 -0.0247,0.003 -0.0496,0.008 -0.0743,0.0162 -0.038,0.0113 -0.0731,0.0306 -0.1049,0.0575 -0.0317,0.0267 -0.0569,0.0584 -0.0751,0.0967 -0.0184,0.0354 -0.0309,0.0737 -0.038,0.1142 -0.007,0.0403 -0.01,0.0834 -0.01,0.1287 v 0.0355 h -0.0649 c -0.0264,3e-4 -0.0499,0.006 -0.0709,0.0184 -0.0207,0.0119 -0.0374,0.0283 -0.0499,0.0487 -0.0127,0.0207 -0.0187,0.044 -0.0195,0.0703 8e-4,0.0256 0.007,0.048 0.0195,0.0686 0.0125,0.0207 0.0292,0.0377 0.0499,0.0497 0.021,0.0127 0.0445,0.0189 0.0709,0.0189 h 0.0649 v 0.8847 c 3e-4,0.0255 0.006,0.0485 0.0184,0.0692 0.0122,0.021 0.0281,0.0377 0.0491,0.0496 0.0204,0.0125 0.0439,0.019 0.0697,0.0193 0.0266,-3e-4 0.0499,-0.007 0.0703,-0.0193 0.0207,-0.0119 0.0371,-0.0286 0.0493,-0.0496 0.0119,-0.0207 0.0176,-0.0437 0.0179,-0.0692 v -0.8847 h 0.0751 c 0.0258,0 0.0485,-0.006 0.0694,-0.0189 0.0202,-0.012 0.0369,-0.029 0.0488,-0.0497 0.013,-0.0206 0.019,-0.043 0.0193,-0.0686 -3e-4,-0.0263 -0.006,-0.0496 -0.0193,-0.0703 -0.0119,-0.0204 -0.0286,-0.0368 -0.0488,-0.0487 -0.0209,-0.0122 -0.0436,-0.0181 -0.0694,-0.0184 h -0.0751 v -0.0355 c 8e-4,-0.03 0.002,-0.055 0.006,-0.0737 0.003,-0.0178 0.006,-0.0317 0.01,-0.0399 0.004,-0.008 0.006,-0.0125 0.007,-0.0125 z m 0.4397,0.8416 h 0.4697 c 0.0275,-9e-4 0.0519,-0.007 0.074,-0.0204 0.0221,-0.0133 0.0402,-0.0318 0.0533,-0.0533 0.0133,-0.0221 0.0201,-0.0471 0.0204,-0.074 -3e-4,-0.028 -0.007,-0.0527 -0.0204,-0.0754 -0.0131,-0.0227 -0.0312,-0.0408 -0.0533,-0.0541 -0.0221,-0.0134 -0.0465,-0.0202 -0.074,-0.0204 h -0.4697 c -0.0272,2e-4 -0.0516,0.007 -0.0737,0.0204 -0.0224,0.0133 -0.04,0.0314 -0.0533,0.0541 -0.0136,0.0227 -0.0201,0.0474 -0.0204,0.0754 3e-4,0.0269 0.007,0.0519 0.0204,0.074 0.0133,0.0215 0.0309,0.04 0.0533,0.0533 0.0221,0.0133 0.0465,0.0195 0.0737,0.0204 z m 1.2498,-0.6327 h -0.0624 v -0.3623 c -3e-4,-0.0263 -0.006,-0.0499 -0.0184,-0.0703 -0.0119,-0.0207 -0.0286,-0.0368 -0.0493,-0.049 -0.0204,-0.0119 -0.0434,-0.0179 -0.0698,-0.0181 -0.0266,2e-4 -0.0496,0.006 -0.0711,0.0181 -0.0204,0.0122 -0.0374,0.0283 -0.0496,0.049 -0.0125,0.0204 -0.019,0.044 -0.0193,0.0703 v 0.3623 h -0.0726 c -0.0263,6e-4 -0.0493,0.006 -0.0697,0.0181 -0.021,0.0122 -0.0374,0.0287 -0.0493,0.0497 -0.0122,0.0204 -0.0179,0.0436 -0.0187,0.07 8e-4,0.0252 0.006,0.0482 0.0187,0.0686 0.0119,0.0209 0.0283,0.0374 0.0493,0.0496 0.0204,0.0124 0.0434,0.0187 0.0697,0.0192 h 0.0726 v 0.6974 c 6e-4,0.0513 0.0133,0.098 0.038,0.1394 0.0249,0.0417 0.0584,0.0752 0.0998,0.1001 0.0419,0.0247 0.0884,0.0368 0.1397,0.038 0.0264,-3e-4 0.0496,-0.006 0.07,-0.0184 0.021,-0.0119 0.0369,-0.0284 0.0488,-0.0494 0.0122,-0.0201 0.0184,-0.0433 0.0187,-0.0697 -3e-4,-0.0264 -0.007,-0.0496 -0.0187,-0.0709 -0.0119,-0.0207 -0.0278,-0.0377 -0.0488,-0.0499 -0.0204,-0.0124 -0.0436,-0.0187 -0.07,-0.0192 v -0.6974 h 0.0624 c 0.0255,-5e-4 0.049,-0.007 0.0697,-0.0192 0.021,-0.0122 0.038,-0.0287 0.0505,-0.0496 0.0127,-0.0204 0.0195,-0.0434 0.0198,-0.0686 -3e-4,-0.0264 -0.007,-0.0496 -0.0198,-0.07 -0.0125,-0.021 -0.0295,-0.0375 -0.0505,-0.0497 -0.0207,-0.0119 -0.0442,-0.0175 -0.0697,-0.0181 z m 0.6925,0.5477 c 0.001,-0.0496 0.0139,-0.0947 0.0377,-0.1353 0.0238,-0.0402 0.0558,-0.0722 0.0958,-0.0963 0.0397,-0.0244 0.0845,-0.0374 0.1341,-0.0389 0.0507,0.001 0.0961,0.0145 0.1369,0.0389 0.04,0.0241 0.0728,0.0561 0.0964,0.0963 0.0238,0.0406 0.0365,0.0857 0.0368,0.1353 v 0.5649 c 6e-4,0.0264 0.007,0.0496 0.0182,0.0697 0.0119,0.021 0.0286,0.0375 0.0493,0.0494 0.0204,0.0121 0.0439,0.0181 0.07,0.0184 0.0261,-3e-4 0.0496,-0.006 0.07,-0.0184 0.021,-0.0119 0.0369,-0.0284 0.0493,-0.0494 0.0117,-0.0201 0.0179,-0.0433 0.0179,-0.0697 v -0.5649 c 0,-0.0754 -0.0142,-0.1463 -0.0425,-0.2124 -0.0278,-0.0657 -0.0666,-0.1238 -0.1165,-0.174 -0.0496,-0.0505 -0.1069,-0.0899 -0.1729,-0.1179 -0.0658,-0.0287 -0.1364,-0.0428 -0.2129,-0.0434 -0.0485,6e-4 -0.0953,0.007 -0.1406,0.0207 -0.0445,0.0128 -0.0868,0.03 -0.127,0.0519 v -0.4349 c 0,-0.0263 -0.007,-0.0499 -0.019,-0.0703 -0.0125,-0.0207 -0.0289,-0.0368 -0.0499,-0.049 -0.0215,-0.0119 -0.0445,-0.0179 -0.0709,-0.0181 -0.0252,2e-4 -0.0484,0.006 -0.0694,0.0181 -0.0204,0.0122 -0.0369,0.0283 -0.0488,0.049 -0.0127,0.0204 -0.0187,0.044 -0.0195,0.0703 v 1.4749 c 0,0.006 8e-4,0.0125 0.002,0.0181 0.001,0.007 0.002,0.0119 0.003,0.0168 0.009,0.0294 0.0258,0.0535 0.0496,0.0731 0.0235,0.019 0.0513,0.0283 0.083,0.0295 0.0264,-3e-4 0.0494,-0.006 0.0709,-0.0184 0.021,-0.0119 0.0374,-0.0284 0.0499,-0.0494 0.0125,-0.0201 0.019,-0.0433 0.019,-0.0697 z" />
    <path
       inkscape:connector-curvature="0"
       id="path6727"
       d="m 130.99,180.39 c 0.089,0 0.1703,-0.0133 0.2449,-0.0406 0.074,-0.0272 0.1417,-0.0686 0.2027,-0.1244 0.0187,-0.0179 0.0297,-0.0371 0.0331,-0.0578 0.003,-0.0204 9e-4,-0.04 -0.006,-0.0593 -0.007,-0.0178 -0.0153,-0.0334 -0.0269,-0.0453 -0.008,-0.0102 -0.0202,-0.0182 -0.0352,-0.0235 -0.0153,-0.006 -0.0326,-0.008 -0.051,-0.008 -0.0184,0 -0.0366,0.003 -0.0539,0.009 -0.0181,0.006 -0.0337,0.0164 -0.0473,0.0301 -0.021,0.0155 -0.0462,0.0289 -0.0751,0.0388 -0.0292,0.0105 -0.0593,0.0176 -0.0913,0.0212 -0.032,0.004 -0.0632,0.005 -0.0938,0.003 -0.0295,-0.003 -0.0587,-0.009 -0.0893,-0.0196 -0.0301,-0.01 -0.0581,-0.0229 -0.0842,-0.0388 -0.0261,-0.0162 -0.0482,-0.0343 -0.0663,-0.0541 -0.0227,-0.0221 -0.0406,-0.0477 -0.0545,-0.0771 -0.0144,-0.0292 -0.0243,-0.0587 -0.0303,-0.0879 h 0.7948 c 0.0352,-9e-4 0.0652,-0.01 0.0885,-0.0275 0.0232,-0.0182 0.0374,-0.0422 0.0414,-0.0729 10e-4,-0.002 0.002,-0.007 0.002,-0.011 6e-4,-0.005 6e-4,-0.008 6e-4,-0.0114 v -0.007 -0.005 c -0.005,-0.0848 -0.0247,-0.1628 -0.0567,-0.2331 -0.0326,-0.0708 -0.076,-0.132 -0.1301,-0.1836 -0.0547,-0.0519 -0.1165,-0.0922 -0.1874,-0.1202 -0.0708,-0.0287 -0.1468,-0.0428 -0.2287,-0.0434 -0.0859,6e-4 -0.1656,0.0173 -0.2393,0.0502 -0.0734,0.0326 -0.138,0.0774 -0.193,0.1349 -0.0547,0.0576 -0.0981,0.1239 -0.129,0.1984 -0.0312,0.0754 -0.0473,0.1557 -0.0482,0.2415 9e-4,0.0857 0.017,0.1659 0.0482,0.241 0.0309,0.0745 0.0743,0.1409 0.129,0.1978 0.055,0.0576 0.1196,0.1027 0.193,0.1355 0.0737,0.0324 0.1534,0.0496 0.2393,0.0508 z m 0,-1.0126 c 0.0547,0.005 0.1029,0.0165 0.1465,0.0343 0.0431,0.0188 0.0797,0.0412 0.1106,0.0675 0.0314,0.0264 0.0564,0.0539 0.0751,0.0819 0.019,0.0289 0.032,0.0559 0.038,0.0814 h -0.7073 c 0.005,-0.0261 0.0153,-0.0536 0.0312,-0.0834 0.0159,-0.0291 0.038,-0.0569 0.0655,-0.0839 0.0275,-0.0263 0.0612,-0.0484 0.1012,-0.0663 0.0397,-0.0181 0.0867,-0.0283 0.1392,-0.0315 z m 0.9677,0.3952 h 0.47 c 0.0272,-9e-4 0.0516,-0.007 0.074,-0.0204 0.0218,-0.0133 0.0397,-0.0318 0.0533,-0.0533 0.0133,-0.0221 0.0198,-0.0471 0.0204,-0.074 -6e-4,-0.028 -0.007,-0.0527 -0.0204,-0.0754 -0.0136,-0.0227 -0.0315,-0.0408 -0.0533,-0.0541 -0.0224,-0.0134 -0.0468,-0.0202 -0.074,-0.0204 h -0.47 c -0.0269,2e-4 -0.0516,0.007 -0.0737,0.0204 -0.0221,0.0133 -0.0402,0.0314 -0.0533,0.0541 -0.0133,0.0227 -0.0198,0.0474 -0.0204,0.0754 6e-4,0.0269 0.007,0.0519 0.0204,0.074 0.0131,0.0215 0.0312,0.04 0.0533,0.0533 0.0221,0.0133 0.0468,0.0195 0.0737,0.0204 z m 0.9601,1.0874 c 0.0267,-3e-4 0.051,-0.007 0.0723,-0.0193 0.021,-0.0128 0.0383,-0.0292 0.051,-0.049 0.0125,-0.0205 0.0187,-0.0429 0.019,-0.0658 v -0.4385 c 0.0451,0.0326 0.097,0.0581 0.1548,0.0754 0.0567,0.0181 0.1173,0.0269 0.18,0.0272 0.0839,-3e-4 0.1624,-0.0167 0.235,-0.0491 0.0728,-0.0317 0.1369,-0.0759 0.1922,-0.1326 0.0555,-0.0567 0.0989,-0.1228 0.1298,-0.1976 0.032,-0.0748 0.0479,-0.1553 0.0482,-0.2424 -3e-4,-0.0861 -0.0162,-0.1669 -0.0482,-0.2432 -0.0309,-0.0754 -0.0743,-0.1417 -0.1298,-0.1995 -0.0553,-0.0579 -0.1194,-0.1029 -0.1922,-0.1355 -0.0726,-0.0329 -0.1511,-0.0496 -0.235,-0.0502 -0.0638,6e-4 -0.125,0.0102 -0.1826,0.0286 -0.0581,0.0187 -0.1105,0.0437 -0.157,0.0737 -0.004,-0.0184 -0.0119,-0.0351 -0.0247,-0.0504 -0.013,-0.0159 -0.0289,-0.0284 -0.0487,-0.0377 -0.0193,-0.009 -0.0408,-0.0136 -0.0641,-0.0142 -0.0249,6e-4 -0.047,0.006 -0.0669,0.0181 -0.0201,0.012 -0.0357,0.0275 -0.0476,0.048 -0.0119,0.0198 -0.0176,0.0419 -0.0184,0.0666 v 0.4957 0.003 0.955 c 8e-4,0.0229 0.006,0.0453 0.0184,0.0658 0.0119,0.0198 0.0275,0.0362 0.0476,0.049 0.0199,0.0125 0.042,0.019 0.0669,0.0193 z m 0.2398,-1.3445 c 0.0315,-0.0343 0.0675,-0.0595 0.1072,-0.0771 0.0408,-0.017 0.0839,-0.0258 0.1301,-0.0258 0.0428,0 0.0845,0.009 0.125,0.0258 0.0408,0.0176 0.0774,0.0428 0.11,0.0771 0.0292,0.0329 0.053,0.0709 0.0703,0.1139 0.0178,0.0431 0.0269,0.0902 0.0272,0.1389 0,0.0335 -0.004,0.065 -0.0122,0.0961 -0.008,0.0309 -0.0198,0.0599 -0.0343,0.0865 -0.0147,0.0261 -0.0315,0.049 -0.051,0.0686 -0.0326,0.0351 -0.0692,0.0618 -0.11,0.0794 -0.0405,0.0173 -0.0822,0.026 -0.125,0.026 -0.0462,0 -0.0893,-0.009 -0.1301,-0.026 -0.0397,-0.0176 -0.0757,-0.0443 -0.1072,-0.0794 -0.0215,-0.0196 -0.0394,-0.0425 -0.0541,-0.0686 -0.0145,-0.0266 -0.0258,-0.0556 -0.0326,-0.0865 -0.007,-0.0311 -0.0108,-0.0626 -0.0108,-0.0961 0,-0.0487 0.008,-0.0958 0.0244,-0.1389 0.0159,-0.043 0.0408,-0.081 0.0731,-0.1139 z m 1.7099,0.8819 c 0.0836,-3e-4 0.1607,-0.0173 0.2319,-0.0508 0.0717,-0.0332 0.1335,-0.0799 0.1856,-0.1395 0.0567,-0.0549 0.0998,-0.1204 0.1296,-0.1953 0.03,-0.0748 0.0448,-0.1564 0.0456,-0.2443 -8e-4,-0.085 -0.0156,-0.1641 -0.0456,-0.2375 -0.0298,-0.0735 -0.0729,-0.1404 -0.1296,-0.1999 -0.0521,-0.0592 -0.1139,-0.106 -0.1856,-0.1395 -0.0712,-0.0331 -0.1483,-0.0501 -0.2319,-0.0507 -0.0862,6e-4 -0.1653,0.0176 -0.2373,0.0507 -0.072,0.0335 -0.1366,0.0803 -0.1927,0.1395 -0.0539,0.0595 -0.0964,0.1264 -0.1267,0.1999 -0.0298,0.0734 -0.0451,0.1525 -0.0457,0.2375 6e-4,0.0879 0.0159,0.1695 0.0457,0.2443 0.0303,0.0749 0.0728,0.1404 0.1267,0.1953 0.0561,0.0596 0.1207,0.1063 0.1927,0.1395 0.072,0.0335 0.1511,0.0505 0.2373,0.0508 z m -0.2401,-0.8898 c 0.0312,-0.0281 0.0677,-0.0511 0.108,-0.0684 0.0405,-0.0172 0.0845,-0.0263 0.1321,-0.0266 0.0445,3e-4 0.0856,0.009 0.1247,0.0266 0.0386,0.0173 0.074,0.0403 0.1052,0.0684 0.0314,0.0337 0.0558,0.0728 0.072,0.1165 0.0173,0.0442 0.0255,0.0918 0.0255,0.1434 0,0.0539 -0.008,0.1026 -0.0255,0.1465 -0.0162,0.044 -0.0406,0.0834 -0.072,0.1183 -0.0312,0.0303 -0.0666,0.0532 -0.1052,0.0685 -0.0391,0.0162 -0.0802,0.0241 -0.1247,0.0241 -0.0476,0 -0.0916,-0.008 -0.1321,-0.0241 -0.0403,-0.0153 -0.0768,-0.0382 -0.108,-0.0685 -0.0286,-0.0349 -0.0513,-0.0743 -0.0666,-0.1183 -0.0153,-0.0439 -0.023,-0.0926 -0.023,-0.1465 0,-0.0516 0.008,-0.0992 0.023,-0.1434 0.0153,-0.0437 0.038,-0.0828 0.0666,-0.1165 z m 1.1024,0.7098 c 0.0337,0.0272 0.0723,0.0538 0.1168,0.0796 0.0442,0.0258 0.0941,0.0473 0.1485,0.0652 0.055,0.017 0.1151,0.0261 0.18,0.0278 0.0618,-3e-4 0.1196,-0.009 0.1746,-0.0267 0.055,-0.0175 0.1049,-0.0416 0.15,-0.0737 0.0306,-0.0212 0.0575,-0.047 0.0813,-0.0762 0.0233,-0.0301 0.042,-0.0621 0.0556,-0.0987 0.0136,-0.0354 0.0207,-0.0739 0.0207,-0.1148 0,-0.0286 -0.004,-0.0575 -0.0122,-0.0853 -0.008,-0.028 -0.0204,-0.0547 -0.0349,-0.0796 -0.0218,-0.0349 -0.0487,-0.065 -0.0796,-0.089 -0.0312,-0.0239 -0.0638,-0.0434 -0.0981,-0.0584 -0.036,-0.0176 -0.0737,-0.0324 -0.1123,-0.0437 -0.0388,-0.0119 -0.0788,-0.0213 -0.1204,-0.0289 h -0.002 l -0.002,-0.003 c -0.0433,-0.007 -0.0799,-0.017 -0.1108,-0.0269 -0.0315,-0.0108 -0.055,-0.0218 -0.0717,-0.0332 -0.009,-0.005 -0.0153,-0.0102 -0.0193,-0.0144 -0.005,-0.004 -0.007,-0.008 -0.008,-0.0105 -0.003,-0.003 -0.004,-0.007 -0.004,-0.009 -8e-4,-0.002 -8e-4,-0.006 -8e-4,-0.0104 -3e-4,-0.007 0.002,-0.0153 0.008,-0.025 0.005,-0.0108 0.0159,-0.0212 0.0318,-0.0329 0.0167,-0.0127 0.0382,-0.0229 0.064,-0.0317 0.0258,-0.009 0.0547,-0.0125 0.0862,-0.0131 0.0397,6e-4 0.0777,0.009 0.1151,0.0267 0.0371,0.0173 0.0754,0.0394 0.1148,0.066 0.0215,0.0142 0.0434,0.0216 0.0669,0.0227 0.0232,0.001 0.0459,-0.003 0.0666,-0.0127 0.021,-0.01 0.038,-0.025 0.0516,-0.0451 0.0122,-0.0216 0.019,-0.0439 0.0193,-0.0669 0.001,-0.0235 -0.004,-0.0456 -0.0139,-0.0663 -0.0105,-0.021 -0.0255,-0.038 -0.0454,-0.0516 -0.0266,-0.0193 -0.0578,-0.0394 -0.0944,-0.0601 -0.0365,-0.0213 -0.0779,-0.0391 -0.1244,-0.0544 -0.0465,-0.0148 -0.0989,-0.0224 -0.1562,-0.0233 -0.0575,0 -0.1125,0.008 -0.1644,0.0235 -0.0513,0.0162 -0.0992,0.0392 -0.1429,0.0692 -0.0283,0.0207 -0.053,0.0454 -0.0751,0.0728 -0.0221,0.0287 -0.0397,0.0596 -0.0527,0.0933 -0.0128,0.0343 -0.0193,0.0706 -0.0201,0.1089 0,0.0286 0.004,0.0567 0.0113,0.0833 0.007,0.0266 0.0176,0.0516 0.0312,0.074 0.0229,0.0331 0.049,0.0621 0.0782,0.0856 0.0292,0.0238 0.0607,0.0434 0.0947,0.0592 0.0323,0.0153 0.0672,0.0278 0.104,0.0383 0.0366,0.0108 0.0743,0.0196 0.1134,0.0266 h 0.002 c 0.0456,0.01 0.0859,0.0199 0.121,0.0324 0.0346,0.0124 0.061,0.0252 0.0791,0.0379 0.0102,0.006 0.0173,0.0119 0.0227,0.0171 0.005,0.005 0.008,0.009 0.01,0.013 0.002,0.004 0.005,0.007 0.006,0.0108 0.001,0.003 0.001,0.008 0.001,0.0141 8e-4,0.0102 -0.003,0.0213 -0.009,0.0338 -0.006,0.0124 -0.0187,0.026 -0.0357,0.0414 -0.0207,0.0127 -0.0454,0.024 -0.0746,0.0328 -0.03,0.01 -0.0612,0.0142 -0.0955,0.0145 -0.0329,6e-4 -0.0666,-0.005 -0.1003,-0.015 -0.0338,-0.0108 -0.0658,-0.0244 -0.0964,-0.0417 -0.0301,-0.0164 -0.0564,-0.0349 -0.0785,-0.0533 -0.0185,-0.0161 -0.04,-0.0252 -0.0627,-0.0292 -0.0235,-0.004 -0.0462,-0.001 -0.0683,0.007 -0.0221,0.008 -0.0408,0.0227 -0.0564,0.0426 -0.015,0.0189 -0.0241,0.0396 -0.0272,0.0626 -0.004,0.023 -0.002,0.0451 0.005,0.0669 0.008,0.0215 0.0212,0.0402 0.0391,0.0556 z m 1.62,-1.0775 h -0.0624 v -0.3623 c -3e-4,-0.0263 -0.006,-0.0499 -0.0184,-0.0703 -0.0119,-0.0207 -0.0286,-0.0368 -0.0493,-0.049 -0.0204,-0.0119 -0.0434,-0.0179 -0.07,-0.0181 -0.0264,2e-4 -0.0494,0.006 -0.0709,0.0181 -0.0204,0.0122 -0.0374,0.0283 -0.0496,0.049 -0.0125,0.0204 -0.019,0.044 -0.0193,0.0703 v 0.3623 h -0.0728 c -0.0261,6e-4 -0.0491,0.006 -0.0695,0.0181 -0.021,0.0122 -0.0374,0.0287 -0.0493,0.0497 -0.0122,0.0204 -0.0179,0.0436 -0.0187,0.07 8e-4,0.0252 0.007,0.0482 0.0187,0.0686 0.0119,0.0209 0.0283,0.0374 0.0493,0.0496 0.0204,0.0124 0.0434,0.0187 0.0695,0.0192 h 0.0728 v 0.6974 c 6e-4,0.0513 0.0133,0.098 0.038,0.1394 0.0249,0.0417 0.0584,0.0752 0.0998,0.1001 0.0419,0.0247 0.0884,0.0368 0.1397,0.038 0.0264,-3e-4 0.0496,-0.006 0.07,-0.0184 0.021,-0.0119 0.0369,-0.0284 0.0488,-0.0494 0.0122,-0.0201 0.0184,-0.0433 0.0187,-0.0697 -3e-4,-0.0264 -0.006,-0.0496 -0.0187,-0.0709 -0.0119,-0.0207 -0.0278,-0.0377 -0.0488,-0.0499 -0.0204,-0.0124 -0.0436,-0.0187 -0.07,-0.0192 v -0.6974 h 0.0624 c 0.0255,-5e-4 0.049,-0.007 0.0697,-0.0192 0.021,-0.0122 0.038,-0.0287 0.0505,-0.0496 0.0127,-0.0204 0.0195,-0.0434 0.0198,-0.0686 -3e-4,-0.0264 -0.007,-0.0496 -0.0198,-0.07 -0.0125,-0.021 -0.0295,-0.0375 -0.0505,-0.0497 -0.0207,-0.0119 -0.0442,-0.0175 -0.0697,-0.0181 z" />
  </g>
  <g
     style="fill:#4f8acc;fill-rule:evenodd"
     id="g6747"
     transform="matrix(1.0563092,0,0,1.0563092,-102.38818,-183.51377)">
    <path
       inkscape:connector-curvature="0"
       id="path6731"
       d="m 138.71,185.72 c -0.0663,0 -0.1199,-0.0538 -0.1199,-0.1202 v -7.7714 c 0,-0.0663 0.0536,-0.1202 0.1199,-0.1202 0.0664,0 0.1202,0.0539 0.1202,0.1202 v 7.7714 c 0,0.0664 -0.0538,0.1202 -0.1202,0.1202 z" />
    <path
       inkscape:connector-curvature="0"
       id="path6733"
       d="m 139.72,187.47 h -2.0302 c -0.0431,0 -0.0831,-0.0235 -0.1035,-0.0607 -0.0215,-0.0368 -0.0215,-0.0819 0,-0.119 l 1.0146,-1.7578 c 0.0411,-0.0743 0.1641,-0.0762 0.2069,0 l 1.0159,1.7578 c 0.0213,0.0371 0.0213,0.0822 0,0.119 -0.0207,0.0372 -0.0606,0.0607 -0.1037,0.0607 z m -1.8221,-0.2401 h 1.614 l -0.8076,-1.3975 z" />
    <path
       inkscape:connector-curvature="0"
       id="path6735"
       d="m 112.42,185.72 c -0.0663,0 -0.1199,-0.0538 -0.1199,-0.1202 v -7.7714 c 0,-0.0663 0.0536,-0.1202 0.1199,-0.1202 0.0664,0 0.1202,0.0539 0.1202,0.1202 v 7.7714 c 0,0.0664 -0.0538,0.1202 -0.1202,0.1202 z" />
    <path
       inkscape:connector-curvature="0"
       id="path6737"
       d="m 113.44,187.47 h -2.0301 c -0.0428,0 -0.0825,-0.0235 -0.1041,-0.0607 -0.0215,-0.0368 -0.0215,-0.0819 0,-0.119 l 1.0151,-1.7578 c 0.0431,-0.0743 0.165,-0.0743 0.2081,0 l 1.0151,1.7578 c 0.0215,0.0371 0.0215,0.0822 0,0.119 -0.0216,0.0372 -0.061,0.0607 -0.1041,0.0607 z m -1.8221,-0.2401 h 1.6144 l -0.8074,-1.3975 z" />
    <path
       inkscape:connector-curvature="0"
       id="path6739"
       d="m 102.46,175.15 c 0.0881,-6e-4 0.1715,-0.0142 0.2494,-0.0417 0.0786,-0.0266 0.1491,-0.0652 0.2126,-0.1142 0.0159,-0.013 0.0275,-0.0289 0.0346,-0.0473 0.007,-0.0185 0.009,-0.0377 0.007,-0.0579 -0.002,-0.0195 -0.009,-0.0379 -0.0212,-0.0549 -0.0136,-0.0159 -0.0301,-0.0275 -0.0491,-0.0346 -0.019,-0.007 -0.0382,-0.009 -0.0578,-0.007 -0.0198,0.002 -0.0374,0.009 -0.053,0.0198 -0.0451,0.036 -0.0944,0.0633 -0.1485,0.0822 -0.0536,0.0188 -0.1117,0.0281 -0.1735,0.0281 -0.0697,-8e-4 -0.1352,-0.0133 -0.1967,-0.0391 -0.0616,-0.0252 -0.116,-0.0604 -0.1633,-0.1049 -0.0454,-0.0448 -0.0811,-0.0967 -0.1069,-0.1562 -0.0255,-0.0595 -0.0388,-0.1239 -0.0394,-0.1919 6e-4,-0.0683 0.0139,-0.1318 0.0394,-0.191 0.0258,-0.0584 0.0615,-0.1106 0.1069,-0.1571 0.0473,-0.0445 0.1017,-0.0796 0.1633,-0.1051 0.0615,-0.0258 0.127,-0.0386 0.1967,-0.0389 0.0618,0 0.1202,0.009 0.1743,0.0281 0.0542,0.0187 0.1032,0.0459 0.1477,0.0819 0.0156,0.0119 0.0332,0.019 0.053,0.0213 0.0196,0.002 0.0388,-3e-4 0.0578,-0.007 0.019,-0.007 0.0355,-0.0196 0.0491,-0.036 0.0119,-0.017 0.019,-0.0357 0.0212,-0.0553 0.003,-0.0196 0,-0.0385 -0.007,-0.0573 -0.007,-0.0178 -0.0187,-0.0343 -0.0346,-0.0476 -0.0635,-0.0493 -0.134,-0.0879 -0.2126,-0.1145 -0.0779,-0.0275 -0.1613,-0.0411 -0.2494,-0.0414 -0.0805,6e-4 -0.1571,0.0131 -0.2299,0.0377 -0.0729,0.0241 -0.14,0.0587 -0.201,0.1023 -0.0609,0.0443 -0.1139,0.0959 -0.1593,0.156 -0.0451,0.06 -0.0802,0.1252 -0.1052,0.197 -0.0252,0.072 -0.0382,0.1474 -0.0388,0.227 6e-4,0.08 0.0136,0.1554 0.0388,0.2274 0.025,0.072 0.0601,0.138 0.1052,0.1978 0.0454,0.0601 0.0984,0.1123 0.1593,0.1562 0.061,0.0437 0.1281,0.078 0.201,0.102 0.0728,0.0239 0.1494,0.036 0.2299,0.0366 z m 1.792,-1.44 c -0.0643,3e-4 -0.1258,0.009 -0.1853,0.0258 -0.0593,0.0176 -0.1146,0.0422 -0.1659,0.0737 -0.0516,0.0318 -0.0978,0.0697 -0.1386,0.1142 -0.0623,0.0667 -0.1111,0.1423 -0.1454,0.2285 -0.0346,0.0853 -0.0522,0.1783 -0.0527,0.2778 3e-4,0.0661 0.008,0.1296 0.0238,0.1902 0.0159,0.0607 0.0383,0.1177 0.0677,0.1707 0.0295,0.0533 0.0652,0.1014 0.1066,0.1451 0.0408,0.0437 0.087,0.0814 0.1386,0.1134 0.0513,0.032 0.1066,0.0567 0.1659,0.074 0.0595,0.0173 0.121,0.026 0.1853,0.0266 0.0618,-6e-4 0.1219,-0.009 0.1798,-0.0266 0.0581,-0.0173 0.1125,-0.042 0.163,-0.074 0.0507,-0.032 0.0958,-0.0697 0.1354,-0.1134 0.0417,-0.0437 0.0774,-0.0918 0.1078,-0.1451 0.0297,-0.053 0.0533,-0.11 0.0694,-0.1707 0.0165,-0.0606 0.0244,-0.1241 0.0247,-0.1902 -3e-4,-0.066 -0.008,-0.1292 -0.0247,-0.1899 -0.0161,-0.0604 -0.0397,-0.1171 -0.0694,-0.1707 -0.0304,-0.0527 -0.0661,-0.1014 -0.1078,-0.1457 -0.0396,-0.0445 -0.0847,-0.0824 -0.1354,-0.1142 -0.0505,-0.0315 -0.1049,-0.0561 -0.163,-0.0737 -0.0579,-0.017 -0.118,-0.0255 -0.1798,-0.0258 z m 0.3161,1.0681 c -0.0422,0.0454 -0.0907,0.0805 -0.1443,0.1055 -0.0541,0.0255 -0.1114,0.0377 -0.1718,0.0385 -0.0643,-8e-4 -0.1235,-0.013 -0.1783,-0.0385 -0.0549,-0.025 -0.1031,-0.0601 -0.1457,-0.1055 -0.028,-0.0292 -0.0521,-0.0618 -0.0725,-0.0984 -0.0204,-0.0368 -0.0357,-0.0759 -0.0468,-0.1184 -0.011,-0.042 -0.0167,-0.0859 -0.0167,-0.1313 0,-0.0456 0.006,-0.0893 0.0167,-0.1318 0.0111,-0.0422 0.0264,-0.0816 0.0468,-0.1185 0.0204,-0.0371 0.0445,-0.0703 0.0725,-0.1 0.0426,-0.0451 0.0908,-0.08 0.1457,-0.1046 0.0548,-0.0244 0.114,-0.0369 0.1783,-0.0372 0.0604,3e-4 0.1177,0.0128 0.1718,0.0372 0.0536,0.0246 0.1021,0.0595 0.1443,0.1046 0.0278,0.0297 0.0513,0.0629 0.0717,0.1 0.0204,0.0369 0.036,0.0763 0.0474,0.1185 0.0113,0.0425 0.017,0.0862 0.017,0.1318 0,0.0454 -0.006,0.0893 -0.017,0.1313 -0.0114,0.0425 -0.027,0.0816 -0.0474,0.1184 -0.0204,0.0366 -0.0439,0.0692 -0.0717,0.0984 z m 1.9925,-0.5981 c -3e-4,-0.0601 -0.0116,-0.1157 -0.0338,-0.1678 -0.0218,-0.0516 -0.0527,-0.0972 -0.0918,-0.1366 -0.0394,-0.0394 -0.085,-0.0703 -0.1369,-0.0919 -0.0519,-0.0221 -0.1074,-0.0334 -0.1675,-0.0337 h -0.3571 -9e-4 c -0.0204,3e-4 -0.0388,0.005 -0.0549,0.0147 -0.0168,0.01 -0.0301,0.0227 -0.0397,0.0389 -0.01,0.0167 -0.0151,0.0354 -0.0153,0.0564 v 1.1797 c 2e-4,0.0205 0.005,0.0389 0.0153,0.0553 0.01,0.0167 0.0229,0.0301 0.0397,0.0397 0.0161,0.01 0.0345,0.0147 0.0549,0.0153 0.021,-6e-4 0.0397,-0.006 0.0567,-0.0153 0.0168,-0.01 0.0301,-0.023 0.04,-0.0397 0.01,-0.0164 0.015,-0.0348 0.0153,-0.0553 v -0.4337 h 0.2461 c 0.0601,-2e-4 0.1156,-0.0119 0.1675,-0.0337 0.0519,-0.0221 0.0975,-0.0527 0.1369,-0.0915 0.0391,-0.0394 0.07,-0.0842 0.0918,-0.1355 0.0222,-0.0513 0.0335,-0.1063 0.0338,-0.1653 z m -0.6761,-0.2083 h 0.2461 c 0.0391,5e-4 0.0739,0.01 0.1048,0.0283 0.0312,0.0179 0.0559,0.0434 0.074,0.0743 0.0185,0.0311 0.0281,0.0666 0.0292,0.1057 -0.001,0.0377 -0.0107,0.072 -0.0292,0.1026 -0.0181,0.0303 -0.0428,0.055 -0.074,0.0731 -0.0309,0.0185 -0.0657,0.0275 -0.1048,0.0284 h -0.2461 z m 2.2102,-0.1857 c -0.0162,-0.0122 -0.034,-0.019 -0.0525,-0.021 -0.0189,-0.002 -0.0374,9e-4 -0.0555,0.008 -0.0176,0.007 -0.0329,0.0199 -0.0459,0.0363 l -0.3419,0.4683 -0.3421,-0.4683 c -0.0117,-0.0164 -0.0261,-0.0289 -0.0434,-0.0363 -0.0173,-0.008 -0.0354,-0.0105 -0.0547,-0.008 -0.019,0.002 -0.0369,0.009 -0.0539,0.021 -0.0167,0.0122 -0.0286,0.0272 -0.0363,0.0445 -0.008,0.0178 -0.0104,0.0357 -0.008,0.0547 0.003,0.0187 0.01,0.0363 0.0224,0.0527 l 0.4059,0.5618 v 0.54 c 6e-4,0.0213 0.006,0.04 0.0159,0.0562 0.01,0.0167 0.0233,0.0295 0.04,0.0394 0.0167,0.01 0.0346,0.0141 0.0544,0.0147 0.021,-6e-4 0.0394,-0.005 0.0558,-0.0147 0.0168,-0.01 0.0298,-0.0227 0.0394,-0.0394 0.01,-0.0162 0.0142,-0.0349 0.0148,-0.0562 v -0.54 l 0.4099,-0.5618 c 0.0113,-0.0164 0.0176,-0.034 0.0195,-0.0527 0.002,-0.019 -10e-4,-0.0369 -0.008,-0.0547 -0.007,-0.0173 -0.019,-0.0323 -0.0351,-0.0445 z" />
    <path
       inkscape:connector-curvature="0"
       id="path6741"
       d="M 142.92,183.18 H 98.764 c -0.0663,0 -0.1202,-0.0538 -0.1202,-0.1202 v -7.1248 c 0,-0.0666 0.0539,-0.1202 0.1202,-0.1202 h 44.16 c 0.0666,0 0.1201,0.0536 0.1201,0.1202 v 7.1248 c 0,0.0664 -0.0535,0.1202 -0.1201,0.1202 z m -44.036,-0.24 h 43.92 v -6.8848 H 98.888 Z" />
    <path
       inkscape:connector-curvature="0"
       id="path6743"
       d="m 142.92,181.3 h -30.499 c -0.0663,0 -0.1199,-0.0539 -0.1199,-0.1202 0,-0.0663 0.0536,-0.1202 0.1199,-0.1202 h 30.499 c 0.0663,0 0.1202,0.0539 0.1202,0.1202 0,0.0663 -0.0539,0.1202 -0.1202,0.1202 z" />
    <path
       inkscape:connector-curvature="0"
       id="path6745"
       d="m 142.92,177.95 h -30.499 c -0.0663,0 -0.1199,-0.0539 -0.1199,-0.1202 0,-0.0663 0.0536,-0.1202 0.1199,-0.1202 h 30.499 c 0.0663,0 0.1202,0.0539 0.1202,0.1202 0,0.0663 -0.0539,0.1202 -0.1202,0.1202 z" />
  </g>
</svg>
