<!DOCTYPE svg PUBLIC "-//W3C//DTD SVG 1.1//EN" "http://www.w3.org/Graphics/SVG/1.1/DTD/svg11.dtd"><svg xmlns="http://www.w3.org/2000/svg" width="232" height="141" viewBox="0 0 94 57.22" shape-rendering="geometricPrecision" text-rendering="geometricPrecision" image-rendering="optimizeQuality" fill-rule="evenodd" clip-rule="evenodd"><defs><style>.str0{stroke:#4f8bcc;stroke-width:.404902;stroke-linecap:round;stroke-linejoin:round}.fil0{fill:none}.fil1,.fil2{fill:#4f8bcc}.fil1{fill-rule:nonzero}</style></defs><g id="Layer_x0020_1"><g id="_357181480"><path id="_551099280" class="fil0 str0" d="M6.72 42.61a4.86 4.86 0 0 1 3.2 4.58H.2c0-2.1 1.34-3.9 3.21-4.58"/><path id="_551099808" class="fil0 str0" d="M3.6 38.7v-5.47c0-.76.61-1.38 1.37-1.38h13.78c.75 0 1.37.62 1.37 1.38v7.49c0 .75-.62 1.37-1.37 1.37H7.17"/><path id="_551099304" class="fil0 str0" d="M5.07 38.22a2.51 2.51 0 1 1 0 5.02 2.51 2.51 0 0 1 0-5.02z"/><path id="_551099232" class="fil0 str0" d="M9.46 39.52l-1.07-.61v-3.87l1.68-.97 1.68-.97 1.68.97 1.68.97v3.87l-1.68.97-1.68.97-1.47-.85"/><path id="_551098728" class="fil0 str0" d="M12.48 36.81h-.53a.7.7 0 0 1-.7-.69.7.7 0 0 1 .7-.69H13"/><path id="_551098680" class="fil0 str0" d="M12.49 36.81a.7.7 0 0 1 0 1.38h-1.2"/><path id="_551098560" class="fil0 str0" d="M9.46 39.52l.94-.54v-3.55"/><path id="_551099112" class="fil0 str0" d="M37.06 20.82H56.9c.69 0 1.25.56 1.25 1.25v13.07c0 .69-.56 1.25-1.25 1.25H37.06c-.7 0-1.25-.56-1.25-1.25V22.07c0-.69.56-1.25 1.25-1.25z"/><path id="_551098872" class="fil0 str0" d="M38.72 20.82h2.25v-.76h-2.25z"/><path id="_551098056" class="fil0 str0" d="M55.24 20.82H53v-.76h2.24z"/><path id="_551098032" class="fil0 str0" d="M46.98 19.47c-.67 0-1.23-.07-1.8-.14-.73-.09-.85.18-1 .82l-.21.67h-.7c.15-.83.16-2.3 1-2.67.42-.19 2.15-.2 2.69-.2s2.27.01 2.7.2c.83.38.84 1.84.98 2.67h-.69l-.16-.67c-.16-.64-.28-.91-1-.82-.58.07-1.14.14-1.8.14z"/><path id="_551098272" class="fil0 str0" d="M45.75 29.07v-4.28"/><path id="_551098104" class="fil0 str0" d="M45.75 22.63a1.08 1.08 0 1 1 0 2.16 1.08 1.08 0 0 1 0-2.16z"/><path id="_551097600" class="fil0 str0" d="M44.76 29.07h1.98v1.98h-1.98z"/><path id="_551097672" class="fil0 str0" d="M49.1 27.42a1.08 1.08 0 1 0 0 2.16 1.08 1.08 0 0 0 0-2.16z"/><path id="_551098296" class="fil0 str0" d="M49.09 31.65v-2.07"/><path id="_551097360" class="fil0 str0" d="M51.52 33.05l-2.43-1.4"/><path id="_551097288" class="fil0 str0" d="M52.48 32.47a1.08 1.08 0 1 0 0 2.16 1.08 1.08 0 0 0 0-2.16z"/><path id="_551096976" class="fil0 str0" d="M46.66 33.05l2.43-1.4"/><path id="_551097120" class="fil0 str0" d="M45.7 32.47a1.08 1.08 0 1 1 0 2.16 1.08 1.08 0 0 1 0-2.16z"/><path id="_551096904" class="fil0 str0" d="M48.18 27.93l-2.43-1.41"/><path id="_551097240" class="fil0 str0" d="M42.4 27.42a1.08 1.08 0 1 1 0 2.16 1.08 1.08 0 0 1 0-2.16z"/><path id="_551097168" class="fil0 str0" d="M43.32 27.93l2.43-1.41"/><path id="_551096688" class="fil0 str0" d="M6.72 17.11a4.86 4.86 0 0 1 3.2 4.57H.2c0-2.1 1.34-3.9 3.21-4.57"/><path id="_551096664" class="fil0 str0" d="M3.6 13.19V7.72c0-.75.61-1.37 1.37-1.37h13.78c.75 0 1.37.62 1.37 1.37v7.5c0 .75-.62 1.37-1.37 1.37H7.17"/><path id="_551096616" class="fil0 str0" d="M5.07 12.71a2.51 2.51 0 1 1 0 5.02 2.51 2.51 0 0 1 0-5.02z"/><path id="_551096352" class="fil0 str0" d="M80.4 42.61a4.87 4.87 0 0 1 3.21 4.58h-9.73c0-2.1 1.34-3.9 3.21-4.58"/><path id="_551096400" class="fil0 str0" d="M77.28 38.7v-5.47c0-.76.61-1.38 1.37-1.38h13.78c.75 0 1.37.62 1.37 1.38v7.49c0 .75-.62 1.37-1.37 1.37H80.85"/><path id="_551095656" class="fil0 str0" d="M78.75 38.22a2.51 2.51 0 1 1 0 5.02 2.51 2.51 0 0 1 0-5.02z"/><g><path id="_551095944" class="fil0 str0" d="M80.4 17.11a4.87 4.87 0 0 1 3.21 4.57h-9.73c0-2.1 1.34-3.9 3.21-4.57"/><path id="_551095920" class="fil0 str0" d="M77.28 13.19V7.72c0-.75.61-1.37 1.37-1.37h13.78c.75 0 1.37.62 1.37 1.37v7.5c0 .75-.62 1.37-1.37 1.37H80.85"/><path id="_551095800" class="fil0 str0" d="M78.75 12.71a2.51 2.51 0 1 1 0 5.02 2.51 2.51 0 0 1 0-5.02z"/></g><g><path id="_551094936" class="fil0 str0" d="M31.28 52.44A4.87 4.87 0 0 1 34.49 57h-9.73c0-2.1 1.34-3.9 3.21-4.57"/><path id="_551094720" class="fil0 str0" d="M28.16 48.52v-5.47c0-.75.61-1.37 1.37-1.37H43.3c.75 0 1.37.62 1.37 1.37v7.5c0 .75-.62 1.37-1.37 1.37H31.73"/><path id="_551094792" class="fil0 str0" d="M29.63 48.04a2.51 2.51 0 1 1 0 5.02 2.51 2.51 0 0 1 0-5.02z"/></g><g><path id="_551094624" class="fil0 str0" d="M55.97 52.44a4.86 4.86 0 0 1 3.2 4.57h-9.72c0-2.1 1.34-3.9 3.2-4.57"/><path id="_551094912" class="fil0 str0" d="M52.84 48.52v-5.47c0-.75.62-1.37 1.37-1.37H68c.76 0 1.37.62 1.37 1.37v7.5c0 .75-.61 1.37-1.37 1.37H56.42"/><path id="_551094984" class="fil0 str0" d="M54.31 48.04a2.51 2.51 0 1 1 0 5.02 2.51 2.51 0 0 1 0-5.02z"/></g><g><path id="_551094144" class="fil0 str0" d="M60.06 45.61c-1.13.1-1.88.32-1.88.57 0 .34 1.33.6 2.97.6 1.64 0 2.97-.26 2.97-.6"/><path id="_551094072" class="fil0 str0" d="M61.68 45.79c-1.12-.55-.94-1.54-.32-1.97.68-.48 1.64-1.21 1.38-2.14"/><path id="_551094048" class="fil0 str0" d="M62.65 45.73c.28-.68-.53-.82-.46-1.3.03-.25.32-.6 1.16-1.18"/><path id="_551094216" class="fil0 str0" d="M58.62 48.87c-.58.12-.9.28-.9.45 0 .36 1.53.66 3.43.66 1.9 0 3.44-.3 3.44-.66"/><path id="_551093784" class="fil0 str0" d="M59.35 47.3c-.2.07-.3.14-.3.22 0 .24.95.43 2.1.43.93 0 1.74-.12 2.02-.3"/><path id="_551093904" class="fil0 str0" d="M65 45.54c.42 0 .76.37.63.86-.22.82-1.07 1.14-1.07 1.14"/><path id="_551093592" class="fil0 str0" d="M59.92 48.4c-.13.04-.2.1-.2.17 0 .18.64.34 1.42.34.63 0 1.18-.1 1.36-.24"/></g><g><path id="_551093448" class="fil0 str0" d="M31.28 10.96a4.87 4.87 0 0 1 3.21 4.58h-9.73c0-2.1 1.34-3.9 3.21-4.58"/><path id="_551093280" class="fil0 str0" d="M28.16 7.04V1.58c0-.76.61-1.38 1.37-1.38H43.3c.75 0 1.37.62 1.37 1.38v7.49c0 .75-.62 1.37-1.37 1.37H31.73"/><path id="_551093328" class="fil0 str0" d="M29.63 6.56a2.51 2.51 0 1 1 0 5.02 2.51 2.51 0 0 1 0-5.02z"/></g><g><path id="_551092920" class="fil0 str0" d="M55.97 10.96a4.86 4.86 0 0 1 3.2 4.58h-9.72c0-2.1 1.34-3.9 3.2-4.58"/><path id="_551092728" class="fil0 str0" d="M52.84 7.04V1.58c0-.76.62-1.38 1.37-1.38H68c.76 0 1.37.62 1.37 1.38v7.49c0 .75-.61 1.37-1.37 1.37H56.42"/><path id="_551092824" class="fil0 str0" d="M54.31 6.56a2.51 2.51 0 1 1 0 5.02 2.51 2.51 0 0 1 0-5.02z"/></g><g><path id="_551092632" class="fil0 str0" d="M40.25 3.65l-.64-.63 1.49-1.49.94.95s0 .96-.42 1.84a10.62 10.62 0 0 1-4.1 4.1c-.88.41-1.84.42-1.84.42l-.95-.95 1.49-1.48.63.64a4.64 4.64 0 0 0 3.4-3.4z"/><path id="_551092392" class="fil0 str0" d="M36.93 3.83a.53.53 0 1 1 0 1.06.53.53 0 0 1 0-1.06z"/><path id="_551092320" class="fil0 str0" d="M34.8 3.83a.53.53 0 1 1 0 1.06.53.53 0 0 1 0-1.06z"/><path id="_551091888" class="fil0 str0" d="M32.67 3.83a.53.53 0 1 1 0 1.06.53.53 0 0 1 0-1.06z"/></g><g><path id="_551092200" class="fil0 str0" d="M61.4 1.9a3.42 3.42 0 1 1 0 6.85 3.42 3.42 0 0 1 0-6.85z"/><path id="_551091744" class="fil0 str0" d="M61.75 5.32h-.71a.93.93 0 0 1-.93-.93c0-.5.42-.92.93-.92h1.43"/><path id="_551091528" class="fil0 str0" d="M61.77 5.32a.93.93 0 0 1 0 1.85h-1.6"/><path id="_551091720" class="fil0 str0" d="M61.39 3.47V1.9"/><path id="_551092176" class="fil0 str0" d="M61.39 8.74V7.18"/></g><path id="_551091192" class="fil0 str0" d="M84.8 7.63a3.33 3.33 0 0 1 0 6.67c-.9 0-2.45-.68-1.34-1.38.76-.49.51-1.25-.33-1.04-1.2.3-1.66.54-1.66-.91 0-1.84 1.5-3.34 3.33-3.34z"/><path id="_551091024" class="fil1" d="M82.9 9.85a.71.71 0 0 1 .5 1.22l-.01.01a.71.71 0 0 1-1 0l-.01-.02a.71.71 0 0 1 .51-1.2zm.21.5a.31.31 0 0 0-.45.43h.01a.31.31 0 0 0 .43.01h.01l.14.14-.14-.14a.31.31 0 0 0 0-.44zm.28.73a.2.2 0 0 1-.28 0m-.73-.02a.2.2 0 0 1 0-.27"/><path id="_551091216" class="fil1" d="M84.2 8.4a.71.71 0 1 1-.51 1.21h-.01a.71.71 0 0 1 0-1l.02-.01a.7.7 0 0 1 .5-.2zm.21.49a.31.31 0 0 0-.43 0 .31.31 0 0 0 0 .43l-.15.15.14-.14a.31.31 0 1 0 .44-.44zm-.73.71a.2.2 0 0 1 0-.27m.02-.73a.2.2 0 0 1 .27 0"/><path id="_551090712" class="fil0 str0" d="M86.62 9.5a.51.51 0 1 1-1.03 0 .51.51 0 0 1 1.03 0z"/><path id="_551091288" class="fil0 str0" d="M86.72 11.88a.51.51 0 1 1 0-1.03.51.51 0 0 1 0 1.03z"/><g><path id="_551090808" class="fil0 str0" d="M82.6 35.27h1.23v-1.23c0-1.42 3.42-1.42 3.42 0v1.23h1.22c1.42 0 1.42 3.4 0 3.4h-1.22v1.23c0 1.42-3.42 1.42-3.42 0v-1.22h-1.22c-1.42 0-1.42-3.41 0-3.41z"/><path id="_551090904" class="fil0 str0" d="M83.83 38.68v-.42c0-.7.58-1.29 1.3-1.29h.83c.7 0 1.29-.58 1.29-1.29v-.41"/><path id="_551090160" class="fil0 str0" d="M83.83 35.27h1.12"/><path id="_551090280" class="fil2" d="M84.95 33.8a.36.36 0 1 1 0 .73.36.36 0 0 1 0-.73z"/><path id="_551090232" class="fil0 str0" d="M87.25 38.68h-1.12"/><path id="_551090256" class="fil2" d="M86.13 40.14a.36.36 0 1 1 0-.72.36.36 0 0 1 0 .72z"/></g><path id="_551090328" class="fil0 str0" d="M90.34 12.6h-.78l-.19 1.34h1.16z"/><path id="_551089200" class="fil0 str0" d="M90.34 16.59h-.78l-.19-2.65h1.16z"/><path id="_551089560" class="fil0 str0" d="M90 10.08c0 .93.56.86.7 1.45.13.6-.34 1.07-.34 1.07h-.8c-.8-.88-.26-1.83.44-2.52z"/><g><path id="_551089536" class="fil0 str0" d="M11.86 9.8a2.52 2.52 0 1 1 0 5.04 2.52 2.52 0 0 1 0-5.04z"/><path id="_551089512" class="fil0 str0" d="M11.86 14.84V9.8"/><path id="_551089464" class="fil0 str0" d="M11.86 8.74h-1.44a1.44 1.44 0 0 1 2.88 0h-1.44z"/><path id="_551089848" class="fil0 str0" d="M8.46 9.23c.17.92 1.06 1.24 1.7 1.16"/><path id="_551089416" class="fil0 str0" d="M8.1 12.32h1.23"/><path id="_551089872" class="fil0 str0" d="M15.61 12.32h-1.23"/><path id="_551089392" class="fil0 str0" d="M8.46 15.4c.17-.91 1.06-1.23 1.7-1.15"/><path id="_551088768" class="fil0 str0" d="M15.26 9.23c-.18.92-1.06 1.24-1.71 1.16"/><path id="_551088936" class="fil0 str0" d="M15.26 15.4c-.18-.91-1.06-1.23-1.71-1.15"/></g><g><path id="_551088912" class="fil0 str0" d="M32.85 45.86h3.35v3h-3.35z"/><path id="_551088528" class="fil0 str0" d="M34.53 45h-1.68a1.68 1.68 0 1 1 3.35 0h-1.67z"/><path id="_551088408" class="fil0 str0" d="M37.07 47.98v-2.12"/><path id="_551088384" class="fil0 str0" d="M31.99 47.98v-2.12"/><path id="_551088480" class="fil0 str0" d="M35.44 50.41v-1.55"/><path id="_551088216" class="fil0 str0" d="M33.61 50.41v-1.55"/><path id="_551087832" class="fil0 str0" d="M35.65 43.75l.27-.58"/><path id="_551088000" class="fil0 str0" d="M33.3 43.75l-.27-.58"/><path id="_551087712" class="fil0 str0" d="M40.93 45.55c-.2 0-.38-.05-.55-.14-.59-.31-1.44-.16-1.76.86-.5 1.58.99 3.64 1.72 3.2.22-.14.4-.2.59-.2.18 0 .36.06.58.2.43.25 1.1-.33 1.5-1.18-.5-.22-.84-.74-.84-1.36 0-.56.29-1.04.72-1.3-.4-.43-.99-.45-1.42-.22-.17.09-.36.14-.54.14z"/><path id="_551087952" class="fil0 str0" d="M41.86 43.2c.16.23.12.66-.1 1.05-.23.4-.58.64-.86.62-.15-.22-.12-.65.11-1.04.23-.4.58-.64.85-.62z"/></g><g><path id="_357184648" class="fil0 str0" d="M33.86 32.14H25.4l-3.42 2.79"/><path id="_357184600" class="fil0 str0" d="M35.48 36.95l-3.35 2.73"/><path id="_357184264" class="fil0 str0" d="M34.49 39.68h-2.36"/><path id="_357184240" class="fil0 str0" d="M32.13 37.32v2.36"/><path id="_357184144" class="fil0 str0" d="M24.34 34.93h-2.37"/><path id="_357183952" class="fil0 str0" d="M21.97 32.56v2.37"/><path id="_357183832" class="fil0 str0" d="M33.86 25.08H25.4l-3.42-2.8"/><path id="_357183712" class="fil0 str0" d="M35.48 20.27l-3.35-2.74"/><g><path id="_357183376" class="fil0 str0" d="M34.49 17.53h-2.36"/><path id="_357183736" class="fil0 str0" d="M32.13 19.9v-2.37"/></g><g><path id="_357183616" class="fil0 str0" d="M24.34 22.29h-2.37"/><path id="_357183544" class="fil0 str0" d="M21.97 24.65v-2.36"/></g></g><g><path id="_357182704" class="fil0 str0" d="M60.1 32.14h8.47L72 34.93"/><path id="_357183112" class="fil0 str0" d="M58.48 36.95l3.35 2.73"/><path id="_357182560" class="fil0 str0" d="M59.47 39.68h2.36"/><path id="_357182680" class="fil0 str0" d="M61.83 37.32v2.36"/><path id="_357182944" class="fil0 str0" d="M69.63 34.93h2.36"/><path id="_357181600" class="fil0 str0" d="M71.99 32.56v2.37"/><path id="_357182344" class="fil0 str0" d="M60.1 25.08h8.47l3.42-2.8"/><path id="_357182320" class="fil0 str0" d="M58.48 20.27l3.35-2.74"/><g><path id="_357182056" class="fil0 str0" d="M59.47 17.53h2.36"/><path id="_357181792" class="fil0 str0" d="M61.83 19.9v-2.37"/></g><g><path id="_357181768" class="fil0 str0" d="M69.63 22.29h2.36"/><path id="_357180832" class="fil0 str0" d="M71.99 24.65v-2.36"/></g></g></g></g></svg>