<!DOCTYPE svg PUBLIC "-//W3C//DTD SVG 1.1//EN" "http://www.w3.org/Graphics/SVG/1.1/DTD/svg11.dtd"><svg xmlns="http://www.w3.org/2000/svg" width="232" height="141" viewBox="0 0 94 57.22" shape-rendering="geometricPrecision" text-rendering="geometricPrecision" image-rendering="optimizeQuality" fill-rule="evenodd" clip-rule="evenodd"><defs><style>.str0{stroke:#4f8bcc;stroke-width:.404902;stroke-linecap:round;stroke-linejoin:round}.fil0{fill:none}.fil1{fill:#4f8bcc}</style></defs><g id="Layer_x0020_1"><g id="_549124280"><path id="_553075056" class="fil0 str0" d="M6.72 42.61a4.86 4.86 0 0 1 3.2 4.58H.2c0-2.1 1.34-3.9 3.21-4.58"/><path id="_553074720" class="fil0 str0" d="M3.6 38.7v-5.47c0-.76.61-1.38 1.37-1.38h13.78c.75 0 1.37.62 1.37 1.38v7.49c0 .75-.62 1.37-1.37 1.37H7.17"/><circle id="_553074240" class="fil0 str0" cx="5.07" cy="40.72" r="2.51"/><path id="_553073568" class="fil0 str0" d="M9.46 39.52l-1.07-.61v-3.87l1.68-.97 1.68-.97 1.68.97 1.68.97v3.87l-1.68.97-1.68.97-1.47-.85"/><path id="_553073544" class="fil0 str0" d="M12.48 36.81h-.53a.7.7 0 0 1-.7-.69.7.7 0 0 1 .7-.69H13"/><path id="_553073256" class="fil0 str0" d="M12.49 36.81a.7.7 0 0 1 0 1.38h-1.2"/><path id="_553073328" class="fil0 str0" d="M9.46 39.52l.94-.54v-3.55"/><path id="_553073592" class="fil0 str0" d="M37.06 20.82H56.9c.69 0 1.25.56 1.25 1.25v13.07c0 .69-.56 1.25-1.25 1.25H37.06c-.7 0-1.25-.56-1.25-1.25V22.07c0-.69.56-1.25 1.25-1.25z"/><path id="_548263480" class="fil0 str0" d="M38.72 20.82h2.25v-.76h-2.25z"/><path id="_548287480" class="fil0 str0" d="M55.24 20.82H53v-.76h2.24z"/><path id="_548287744" class="fil0 str0" d="M46.98 19.47c-.67 0-1.23-.07-1.8-.14-.73-.09-.85.18-1 .82l-.21.67h-.7c.15-.83.16-2.3 1-2.67.42-.19 2.15-.2 2.69-.2s2.27.01 2.7.2c.83.38.84 1.84.98 2.67h-.69l-.16-.67c-.16-.64-.28-.91-1-.82-.58.07-1.14.14-1.8.14z"/><path id="_548287912" class="fil0 str0" d="M45.75 29.07v-4.28"/><circle id="_548287288" class="fil0 str0" cx="45.75" cy="23.71" r="1.08"/><path id="_548287504" class="fil0 str0" d="M44.76 29.07h1.98v1.98h-1.98z"/><circle id="_548287408" class="fil0 str0" cx="49.09" cy="28.5" r="1.08"/><path id="_548286928" class="fil0 str0" d="M49.09 31.65v-2.07"/><path id="_548286592" class="fil0 str0" d="M51.52 33.05l-2.43-1.4"/><circle id="_548286448" class="fil0 str0" cx="52.48" cy="33.55" r="1.08"/><path id="_548286424" class="fil0 str0" d="M46.66 33.05l2.43-1.4"/><circle id="_548287168" class="fil0 str0" cx="45.71" cy="33.55" r="1.08"/><path id="_548286976" class="fil0 str0" d="M48.18 27.93l-2.43-1.41"/><circle id="_548286760" class="fil0 str0" cx="42.41" cy="28.5" r="1.08"/><path id="_548286208" class="fil0 str0" d="M43.32 27.93l2.43-1.41"/><path id="_548285728" class="fil0 str0" d="M6.72 17.11a4.86 4.86 0 0 1 3.2 4.57H.2c0-2.1 1.34-3.9 3.21-4.57"/><path id="_548285992" class="fil0 str0" d="M3.6 13.19V7.72c0-.75.61-1.37 1.37-1.37h13.78c.75 0 1.37.62 1.37 1.37v7.5c0 .75-.62 1.37-1.37 1.37H7.17"/><circle id="_548285968" class="fil0 str0" cx="5.07" cy="15.22" r="2.51"/><path id="_548286160" class="fil0 str0" d="M80.4 42.61a4.87 4.87 0 0 1 3.21 4.58h-9.73c0-2.1 1.34-3.9 3.21-4.58"/><path id="_548285176" class="fil0 str0" d="M77.28 38.7v-5.47c0-.76.61-1.38 1.37-1.38h13.78c.75 0 1.37.62 1.37 1.38v7.49c0 .75-.62 1.37-1.37 1.37H80.85"/><circle id="_548285152" class="fil0 str0" cx="78.75" cy="40.72" r="2.51"/><g><path id="_548285008" class="fil0 str0" d="M80.4 17.11a4.87 4.87 0 0 1 3.21 4.57h-9.73c0-2.1 1.34-3.9 3.21-4.57"/><path id="_548284984" class="fil0 str0" d="M77.28 13.19V7.72c0-.75.61-1.37 1.37-1.37h13.78c.75 0 1.37.62 1.37 1.37v7.5c0 .75-.62 1.37-1.37 1.37H80.85"/><circle id="_548284888" class="fil0 str0" cx="78.75" cy="15.22" r="2.51"/></g><g><path id="_548284600" class="fil0 str0" d="M31.28 52.44A4.87 4.87 0 0 1 34.49 57h-9.73c0-2.1 1.34-3.9 3.21-4.57"/><path id="_548284504" class="fil0 str0" d="M28.16 48.52v-5.47c0-.75.61-1.37 1.37-1.37H43.3c.75 0 1.37.62 1.37 1.37v7.5c0 .75-.62 1.37-1.37 1.37H31.73"/><circle id="_548284288" class="fil0 str0" cx="29.63" cy="50.55" r="2.51"/></g><g><path id="_548284840" class="fil0 str0" d="M55.97 52.44a4.86 4.86 0 0 1 3.2 4.57h-9.72c0-2.1 1.34-3.9 3.2-4.57"/><path id="_548284720" class="fil0 str0" d="M52.84 48.52v-5.47c0-.75.62-1.37 1.37-1.37H68c.76 0 1.37.62 1.37 1.37v7.5c0 .75-.61 1.37-1.37 1.37H56.42"/><circle id="_548283352" class="fil0 str0" cx="54.31" cy="50.55" r="2.51"/></g><g><path id="_548283472" class="fil0 str0" d="M60.06 45.61c-1.13.1-1.88.32-1.88.57 0 .34 1.33.6 2.97.6 1.64 0 2.97-.26 2.97-.6"/><path id="_548283760" class="fil0 str0" d="M61.68 45.79c-1.12-.55-.94-1.54-.32-1.97.68-.48 1.64-1.21 1.38-2.14"/><path id="_548283952" class="fil0 str0" d="M62.65 45.73c.28-.68-.53-.82-.46-1.3.03-.25.32-.6 1.16-1.18"/><path id="_548283856" class="fil0 str0" d="M58.62 48.87c-.58.12-.9.28-.9.45 0 .36 1.53.66 3.43.66 1.9 0 3.44-.3 3.44-.66"/><path id="_548283328" class="fil0 str0" d="M59.35 47.3c-.2.07-.3.14-.3.22 0 .24.95.43 2.1.43.93 0 1.74-.12 2.02-.3"/><path id="_548283280" class="fil0 str0" d="M65 45.54c.42 0 .76.37.63.86-.22.82-1.07 1.14-1.07 1.14"/><path id="_548282848" class="fil0 str0" d="M59.92 48.4c-.13.04-.2.1-.2.17 0 .18.64.34 1.42.34.63 0 1.18-.1 1.36-.24"/></g><g><path id="_548282704" class="fil0 str0" d="M31.28 10.96a4.87 4.87 0 0 1 3.21 4.58h-9.73c0-2.1 1.34-3.9 3.21-4.58"/><path id="_548282752" class="fil0 str0" d="M28.16 7.04V1.58c0-.76.61-1.38 1.37-1.38H43.3c.75 0 1.37.62 1.37 1.38v7.49c0 .75-.62 1.37-1.37 1.37H31.73"/><circle id="_548282968" class="fil0 str0" cx="29.63" cy="9.07" r="2.51"/></g><g><path id="_548282392" class="fil0 str0" d="M55.97 10.96a4.86 4.86 0 0 1 3.2 4.58h-9.72c0-2.1 1.34-3.9 3.2-4.58"/><path id="_548281984" class="fil0 str0" d="M52.84 7.04V1.58c0-.76.62-1.38 1.37-1.38H68c.76 0 1.37.62 1.37 1.38v7.49c0 .75-.61 1.37-1.37 1.37H56.42"/><circle id="_548281912" class="fil0 str0" cx="54.31" cy="9.07" r="2.51"/></g><g><path id="_548282080" class="fil0 str0" d="M40.25 3.65l-.64-.63 1.49-1.49.94.95s0 .96-.42 1.84a10.62 10.62 0 0 1-4.1 4.1c-.88.41-1.84.42-1.84.42l-.95-.95 1.49-1.48.63.64a4.64 4.64 0 0 0 3.4-3.4z"/><circle id="_548282416" class="fil0 str0" cx="36.93" cy="4.36" r=".53"/><circle id="_548282464" class="fil0 str0" cx="34.8" cy="4.36" r=".53"/><circle id="_548281552" class="fil0 str0" cx="32.67" cy="4.36" r=".53"/></g><g><circle id="_548281768" class="fil0 str0" cx="61.39" cy="5.32" r="3.42"/><path id="_548281360" class="fil0 str0" d="M61.75 5.32h-.71a.93.93 0 0 1-.93-.93c0-.5.42-.92.93-.92h1.43"/><path id="_548281576" class="fil0 str0" d="M61.77 5.32a.93.93 0 0 1 0 1.85h-1.6"/><path id="_548281456" class="fil0 str0" d="M61.39 3.47V1.9"/><path id="_548280376" class="fil0 str0" d="M61.39 8.74V7.18"/></g><path id="_548280304" class="fil0 str0" d="M84.8 7.63a3.33 3.33 0 0 1 0 6.67c-.9 0-2.45-.68-1.34-1.38.76-.49.51-1.25-.33-1.04-1.2.3-1.66.54-1.66-.91 0-1.84 1.5-3.34 3.33-3.34z"/><circle id="_548281024" class="fil0 str0" cx="82.89" cy="10.57" r=".51"/><circle id="_548280880" class="fil0 str0" transform="scale(.13505) rotate(60 253.3 573.64)" r="3.79"/><circle id="_548280784" class="fil0 str0" transform="matrix(-.06752 .11695 -.11695 -.06752 86.1 9.5)" r="3.79"/><circle id="_548281000" class="fil0 str0" cx="86.72" cy="11.36" r=".51"/><g><path id="_548279848" class="fil0 str0" d="M82.6 35.27h1.23v-1.23c0-1.42 3.42-1.42 3.42 0v1.23h1.22c1.42 0 1.42 3.4 0 3.4h-1.22v1.23c0 1.42-3.42 1.42-3.42 0v-1.22h-1.22c-1.42 0-1.42-3.41 0-3.41z"/><path id="_548279584" class="fil0 str0" d="M83.83 38.68v-.42c0-.7.58-1.29 1.3-1.29h.83c.7 0 1.29-.58 1.29-1.29v-.41"/><path id="_548280112" class="fil0 str0" d="M83.83 35.27h1.12"/><circle id="_548280184" class="fil1" cx="84.95" cy="34.17" r=".36"/><path id="_548279752" class="fil0 str0" d="M87.25 38.68h-1.12"/><circle id="_548279992" class="fil1" cx="86.13" cy="39.78" r=".36"/></g><path id="_548279008" class="fil0 str0" d="M90.34 12.6h-.78l-.19 1.34h1.16z"/><path id="_548279248" class="fil0 str0" d="M90.34 16.59h-.78l-.19-2.65h1.16z"/><path id="_548278816" class="fil0 str0" d="M90 10.08c0 .93.56.86.7 1.45.13.6-.34 1.07-.34 1.07h-.8c-.8-.88-.26-1.83.44-2.52z"/><g><circle id="_548278792" class="fil0 str0" cx="11.86" cy="12.32" r="2.52"/><path id="_548278744" class="fil0 str0" d="M11.86 14.84V9.8"/><path id="_548279464" class="fil0 str0" d="M11.86 8.74h-1.44a1.44 1.44 0 0 1 2.88 0h-1.44z"/><path id="_548279368" class="fil0 str0" d="M8.46 9.23c.17.92 1.06 1.24 1.7 1.16"/><path id="_548279440" class="fil0 str0" d="M8.1 12.32h1.23"/><path id="_548278504" class="fil0 str0" d="M15.61 12.32h-1.23"/><path id="_548278432" class="fil0 str0" d="M8.46 15.4c.17-.91 1.06-1.23 1.7-1.15"/><path id="_548278264" class="fil0 str0" d="M15.26 9.23c-.18.92-1.06 1.24-1.71 1.16"/><path id="_548278144" class="fil0 str0" d="M15.26 15.4c-.18-.91-1.06-1.23-1.71-1.15"/></g><g><path id="_548278312" class="fil0 str0" d="M32.6 45.86h3.36v3H32.6z"/><path id="_548278672" class="fil0 str0" d="M34.28 45h-1.67a1.68 1.68 0 1 1 3.35 0h-1.68z"/><path id="_548278024" class="fil0 str0" d="M36.82 47.98v-2.12"/><path id="_548277208" class="fil0 str0" d="M31.74 47.98v-2.12"/><path id="_548277880" class="fil0 str0" d="M35.2 50.41v-1.55"/><path id="_548277592" class="fil0 str0" d="M33.37 50.41v-1.55"/><path id="_548277424" class="fil0 str0" d="M35.4 43.75l.27-.58"/><path id="_548277280" class="fil0 str0" d="M33.06 43.75l-.27-.58"/><path id="_548277400" class="fil0 str0" d="M40.68 45.55c-.18 0-.37-.05-.54-.14-.6-.31-1.44-.16-1.77.86-.5 1.58 1 3.64 1.73 3.2.22-.14.4-.2.58-.2.19 0 .37.06.6.2.42.25 1.1-.33 1.5-1.18-.5-.22-.85-.74-.85-1.36 0-.56.29-1.04.71-1.3-.4-.43-.98-.45-1.41-.22-.17.09-.36.14-.55.14z"/><path id="_548277664" class="fil0 str0" d="M41.62 43.2c.16.23.12.66-.1 1.05-.24.4-.59.64-.86.62-.16-.22-.12-.65.1-1.04.24-.4.59-.64.86-.62z"/></g><g><path id="_548276440" class="fil0 str0" d="M33.86 32.14H25.4l-3.42 2.79"/><path id="_548276824" class="fil0 str0" d="M35.48 36.95l-3.35 2.73"/><path id="_548275720" class="fil0 str0" d="M34.49 39.68h-2.36"/><path id="_548276272" class="fil0 str0" d="M32.13 37.32v2.36"/><path id="_548275312" class="fil0 str0" d="M24.34 34.93h-2.37"/><path id="_548275288" class="fil0 str0" d="M21.97 32.56v2.37"/><path id="_549149832" class="fil0 str0" d="M33.86 25.08H25.4l-3.42-2.8"/><path id="_549148824" class="fil0 str0" d="M35.48 20.27l-3.35-2.74"/><g><path id="_549148392" class="fil0 str0" d="M34.49 17.53h-2.36"/><path id="_549149256" class="fil0 str0" d="M32.13 19.9v-2.37"/></g><g><path id="_549149040" class="fil0 str0" d="M24.34 22.29h-2.37"/><path id="_549149112" class="fil0 str0" d="M21.97 24.65v-2.36"/></g></g><g><path id="_549151704" class="fil0 str0" d="M60.1 32.14h8.47L72 34.93"/><path id="_549151272" class="fil0 str0" d="M58.48 36.95l3.35 2.73"/><path id="_549150936" class="fil0 str0" d="M59.47 39.68h2.36"/><path id="_549151032" class="fil0 str0" d="M61.83 37.32v2.36"/><path id="_549151248" class="fil0 str0" d="M69.63 34.93h2.36"/><path id="_549150792" class="fil0 str0" d="M71.99 32.56v2.37"/><path id="_549150360" class="fil0 str0" d="M60.1 25.08h8.47l3.42-2.8"/><path id="_549150336" class="fil0 str0" d="M58.48 20.27l3.35-2.74"/><g><path id="_549150168" class="fil0 str0" d="M59.47 17.53h2.36"/><path id="_549149928" class="fil0 str0" d="M61.83 19.9v-2.37"/></g><g><path id="_549149712" class="fil0 str0" d="M69.63 22.29h2.36"/><path id="_549150408" class="fil0 str0" d="M71.99 24.65v-2.36"/></g></g></g></g></svg>