<!DOCTYPE svg PUBLIC "-//W3C//DTD SVG 1.1//EN" "http://www.w3.org/Graphics/SVG/1.1/DTD/svg11.dtd"><svg xmlns="http://www.w3.org/2000/svg" width="238" height="141" viewBox="0 0 62.47 37.07" shape-rendering="geometricPrecision" text-rendering="geometricPrecision" image-rendering="optimizeQuality" fill-rule="evenodd" clip-rule="evenodd"><defs><style>.str0{stroke:#4f8bcc;stroke-width:.262177;stroke-linecap:round;stroke-linejoin:round}.fil0{fill:none}</style></defs><g id="Layer_x0020_1"><rect class="fil0 str0" x=".13" y="16.28" width="6.97" height="4.56" rx=".54" ry=".54"/><rect class="fil0 str0" x=".13" y="7.5" width="6.97" height="4.56" rx=".54" ry=".54"/><rect class="fil0 str0" x=".13" y="25.06" width="6.97" height="4.56" rx=".54" ry=".54"/><path class="fil0 str0" d="M24.85 26.04h-4.29a.48.48 0 0 1-.47-.47V11.55c0-.26.21-.48.47-.48H41.9c.26 0 .48.22.48.48v14.02c0 .26-.22.47-.48.47H26.92M20.09 13.33h22.29M21.4 12.2h2.23M8.34 18.56h10.45M8.34 9.78h5.1l5.35 4.37M8.34 27.34h5.1l5.35-4.37"/><rect class="fil0 str0" x="55.37" y="16.28" width="6.97" height="4.56" rx=".54" ry=".54"/><rect class="fil0 str0" x="55.37" y="7.5" width="6.97" height="4.56" rx=".54" ry=".54"/><rect class="fil0 str0" x="55.37" y="25.06" width="6.97" height="4.56" rx=".54" ry=".54"/><rect class="fil0 str0" x="27.75" y="1.14" width="6.97" height="4.56" rx=".54" ry=".54"/><rect class="fil0 str0" x="16.25" y="1.14" width="6.97" height="4.56" rx=".54" ry=".54"/><rect class="fil0 str0" x="39.24" y="1.14" width="6.97" height="4.56" rx=".54" ry=".54"/><rect class="fil0 str0" x="27.75" y="32.38" width="6.97" height="4.56" rx=".54" ry=".54"/><rect class="fil0 str0" x="16.25" y="32.38" width="6.97" height="4.56" rx=".54" ry=".54"/><rect class="fil0 str0" x="39.24" y="32.38" width="6.97" height="4.56" rx=".54" ry=".54"/><g id="_548273584"><path id="_548274592" class="fil0 str0" d="M26.92 23.38v5.44a1.04 1.04 0 0 1-2.07 0v-5.44a4.27 4.27 0 0 0 2.07 0z"/><circle id="_548274568" class="fil0 str0" cx="25.88" cy="19.26" r="4.25"/><circle id="_548274664" class="fil0 str0" cx="25.88" cy="19.26" r="3.4"/><path id="_548274280" class="fil0 str0" d="M25.88 19.26h-2.2a2.2 2.2 0 0 1 2.2-2.2v2.2z"/><path id="_548274496" class="fil0 str0" d="M25.62 24.62v3.26"/></g><g id="_548272792"><path id="_548273488" class="fil0 str0" d="M31.73 15.54h1.56v1.56h-1.56z"/><path id="_548273464" class="fil0 str0" d="M34.89 15.54h1.56v1.56h-1.56z"/><path id="_548273656" class="fil0 str0" d="M31.73 18.71h1.56v1.56h-1.56z"/><path id="_548273896" class="fil0 str0" d="M34.89 18.71h1.56v1.56h-1.56z"/><path id="_548274112" class="fil0 str0" d="M31.73 21.87h1.56v1.56h-1.56z"/><path id="_548273920" class="fil0 str0" d="M34.89 21.87h1.56v1.56h-1.56z"/><path id="_548273056" class="fil0 str0" d="M38.06 15.54h1.56v1.56h-1.56z"/><path id="_548273008" class="fil0 str0" d="M38.06 18.71h1.56v1.56h-1.56z"/><path id="_548273248" class="fil0 str0" d="M38.06 21.87h1.56v1.56h-1.56z"/></g><g id="_548268832"><path id="_548268976" class="fil0 str0" d="M31.23 30.18v-2.84"/><path id="_548269240" class="fil0 str0" d="M20.23 30.18l3.49-2.84"/><path id="_548268760" class="fil0 str0" d="M42.23 30.18l-3.48-2.84"/></g><path class="fil0 str0" d="M54.13 18.56H43.67M54.13 9.78h-5.1l-5.36 4.37M54.13 27.34h-5.1l-5.36-4.37"/><g id="_548268280"><path id="_548268328" class="fil0 str0" d="M17.22 14.15h1.57"/><path id="_548268472" class="fil0 str0" d="M18.79 12.58v1.57"/></g><g id="_548267656"><path id="_548268232" class="fil0 str0" d="M17.68 19.67l1.11-1.11"/><path id="_548267536" class="fil0 str0" d="M17.68 17.45l1.11 1.11"/></g><g id="_548267416"><path id="_548267440" class="fil0 str0" d="M18.79 24.54v-1.57"/><path id="_548267248" class="fil0 str0" d="M17.22 22.97h1.57"/></g><g id="_548267320"><path id="_548267344" class="fil0 str0" d="M23.72 28.91v-1.57"/><path id="_548267224" class="fil0 str0" d="M22.15 27.34h1.57"/></g><g id="_548266480"><path id="_548267872" class="fil0 str0" d="M32.34 28.45l-1.11-1.11"/><path id="_548266840" class="fil0 str0" d="M30.12 28.45l1.11-1.11"/></g><g id="_548266720"><path id="_548266456" class="fil0 str0" d="M38.75 28.91v-1.57"/><path id="_548267152" class="fil0 str0" d="M40.32 27.34h-1.57"/></g><g id="_548267080"><path id="_548266792" class="fil0 str0" d="M43.67 24.54v-1.57"/><path id="_548266744" class="fil0 str0" d="M45.24 22.97h-1.57"/></g><g id="_548266336"><path id="_548267032" class="fil0 str0" d="M45.24 14.15h-1.57"/><path id="_548266120" class="fil0 str0" d="M43.67 12.58v1.57"/></g><g id="_548266048"><path id="_548266240" class="fil0 str0" d="M44.78 19.67l-1.11-1.11"/><path id="_548266168" class="fil0 str0" d="M44.78 17.45l-1.11 1.11"/></g><g id="_548263504"><path id="_548264320" class="fil0 str0" d="M2.38 7.5c.05-.3.06-.8.33-.93.15-.07.72-.08.9-.08.18 0 .76 0 .9.08.28.13.29.64.34.93"/><path id="_548264272" class="fil0 str0" d="M.87 7.14h.75"/><path id="_548263456" class="fil0 str0" d="M6.36 7.14h-.75"/></g><g id="_548263528"><path id="_548263624" class="fil0 str0" d="M2.38 16.28c.05-.3.06-.8.33-.94.15-.06.72-.07.9-.07.18 0 .76 0 .9.07.28.14.29.64.34.94"/><path id="_548264032" class="fil0 str0" d="M.87 15.92h.75"/><path id="_548263984" class="fil0 str0" d="M6.36 15.92h-.75"/></g><g id="_548263288"><path id="_548263912" class="fil0 str0" d="M2.38 25.06c.05-.3.06-.8.33-.94.15-.07.72-.07.9-.07.18 0 .76 0 .9.07.28.13.29.64.34.94"/><path id="_548262616" class="fil0 str0" d="M.87 24.7h.75"/><path id="_548263336" class="fil0 str0" d="M6.36 24.7h-.75"/></g><g id="_548263168"><path id="_548262856" class="fil0 str0" d="M57.62 7.5c.05-.3.05-.8.33-.93.14-.07.72-.08.9-.08.18 0 .76 0 .9.08.28.13.28.64.33.93"/><path id="_548262688" class="fil0 str0" d="M56.11 7.14h.74"/><path id="_548263216" class="fil0 str0" d="M61.59 7.14h-.74"/></g><g id="_548262472"><path id="_548263024" class="fil0 str0" d="M57.62 16.28c.05-.3.05-.8.33-.94.14-.06.72-.07.9-.07.18 0 .76 0 .9.07.28.14.28.64.33.94"/><path id="_548262592" class="fil0 str0" d="M56.11 15.92h.74"/><path id="_548262568" class="fil0 str0" d="M61.59 15.92h-.74"/></g><g id="_548262184"><path id="_548261848" class="fil0 str0" d="M57.62 25.06c.05-.3.05-.8.33-.94.14-.07.72-.07.9-.07.18 0 .76 0 .9.07.28.13.28.64.33.94"/><path id="_548262232" class="fil0 str0" d="M56.11 24.7h.74"/><path id="_548261944" class="fil0 str0" d="M61.59 24.7h-.74"/></g><g id="_548261440"><path id="_548261200" class="fil0 str0" d="M18.55 1.14c.05-.3.05-.8.33-.94.14-.06.72-.07.9-.07.18 0 .76 0 .9.07.28.14.28.64.33.94"/><path id="_548261464" class="fil0 str0" d="M17.04.78h.74"/><path id="_548261704" class="fil0 str0" d="M22.52.78h-.74"/></g><g id="_548261224"><path id="_548261584" class="fil0 str0" d="M30 1.14c.05-.3.05-.8.33-.94.14-.06.72-.07.9-.07.18 0 .76 0 .9.07.28.14.28.64.33.94"/><path id="_548261272" class="fil0 str0" d="M28.49.78h.74"/><path id="_548261656" class="fil0 str0" d="M33.97.78h-.74"/></g><g id="_548260840"><path id="_548260528" class="fil0 str0" d="M41.46 1.14c.04-.3.05-.8.32-.94.15-.06.73-.07.9-.07.19 0 .77 0 .9.07.29.14.29.64.34.94"/><path id="_548260984" class="fil0 str0" d="M39.94.78h.75"/><path id="_548260936" class="fil0 str0" d="M45.43.78h-.75"/></g><g id="_548259760"><path id="_548260408" class="fil0 str0" d="M18.55 32.38c.05-.3.05-.8.33-.93.14-.07.72-.07.9-.07.18 0 .76 0 .9.07.28.13.28.64.33.93"/><path id="_548260744" class="fil0 str0" d="M17.04 32.03h.74"/><path id="_548260576" class="fil0 str0" d="M22.52 32.03h-.74"/></g><g id="_548259976"><path id="_548259712" class="fil0 str0" d="M30 32.38c.05-.3.05-.8.33-.93.14-.07.72-.07.9-.07.18 0 .76 0 .9.07.28.13.28.64.33.93"/><path id="_548259640" class="fil0 str0" d="M28.49 32.03h.74"/><path id="_548260000" class="fil0 str0" d="M33.97 32.03h-.74"/></g><g id="_548258920"><path id="_548260072" class="fil0 str0" d="M41.46 32.38c.04-.3.05-.8.32-.93.15-.07.73-.07.9-.07.19 0 .77 0 .9.07.29.13.29.64.34.93"/><path id="_548259736" class="fil0 str0" d="M39.94 32.03h.75"/><path id="_548259904" class="fil0 str0" d="M45.43 32.03h-.75"/></g><g id="_548287648"><path id="_548287816" class="fil0 str0" d="M31.23 6.94v2.84"/><path id="_548287792" class="fil0 str0" d="M20.23 6.94l3.49 2.84"/><path id="_548287912" class="fil0 str0" d="M42.23 6.94l-3.48 2.84"/></g><g id="_548286952"><path id="_548286880" class="fil0 str0" d="M23.72 8.21v1.57"/><path id="_548286784" class="fil0 str0" d="M22.15 9.78h1.57"/></g><g id="_548286592"><path id="_548286688" class="fil0 str0" d="M32.34 8.67l-1.11 1.11"/><path id="_548286616" class="fil0 str0" d="M30.12 8.67l1.11 1.11"/></g><g id="_548286664"><path id="_548287048" class="fil0 str0" d="M38.75 8.21v1.57"/><path id="_548286544" class="fil0 str0" d="M40.32 9.78h-1.57"/></g></g></svg>