<svg xmlns="http://www.w3.org/2000/svg" width="264.55" height="141" viewBox="0 0 55.62 29.69" id="svg1691" clip-rule="evenodd" fill-rule="evenodd" image-rendering="optimizeQuality" shape-rendering="geometricPrecision" text-rendering="geometricPrecision"><defs id="defs1586"><style id="style1584">.str0{stroke:#4f8bcc;stroke-width:.210216;stroke-linecap:round;stroke-linejoin:round}.fil0{fill:none}.fil1{fill:#4f8bcc;fill-rule:nonzero}</style></defs><g id="_545586288" transform="translate(-5.52)"><path d="M25.73 22.76a8.33 8.33 0 0 1 0-14.44" class="fil0 str0" id="_548273272" fill="none" stroke="#4f8bcc" stroke-width=".21" stroke-linecap="round" stroke-linejoin="round"/><path d="M34.07 22.76a8.33 8.33 0 0 0 0-14.44" class="fil0 str0" id="_548272840" fill="none" stroke="#4f8bcc" stroke-width=".21" stroke-linecap="round" stroke-linejoin="round"/><g id="g1596"><path class="fil0 str0" id="_548272048" fill="none" stroke="#4f8bcc" stroke-width=".21" stroke-linecap="round" stroke-linejoin="round" d="M30.84 20.26v-3.51l1.38-2.09 2.14-3.22h-8.54l2.14 3.22 1.37 2.09v5.02z"/><path class="fil0 str0" id="_548272528" fill="none" stroke="#4f8bcc" stroke-width=".21" stroke-linecap="round" stroke-linejoin="round" d="M27.24 12.36l1.4 2.11 1.3 1.96v3.28"/><circle r=".72" cy="9.95" cx="28.42" class="fil0 str0" id="_548272096" fill="none" stroke="#4f8bcc" stroke-width=".21" stroke-linecap="round" stroke-linejoin="round"/><circle r=".72" cy="8.78" cx="30.67" class="fil0 str0" id="_548271832" fill="none" stroke="#4f8bcc" stroke-width=".21" stroke-linecap="round" stroke-linejoin="round"/><path d="M30.09 11.44h-.72a.72.72 0 1 1 1.44 0z" class="fil0 str0" id="_548271304" fill="none" stroke="#4f8bcc" stroke-width=".21" stroke-linecap="round" stroke-linejoin="round"/></g><path d="M48.04 11.47h.02c.08.02.12.05.12.1V15c-.02.08-.06.13-.13.13-.09-.02-.13-.06-.13-.1v-3.26c-.23.08-.37.12-.42.12-.05 0-.08-.04-.1-.13v-.04c0-.06.12-.12.35-.16l.3-.1zm1.86 0c.4 0 .72.22.94.66.12.38.18.73.18 1.05v.23c0 .4-.08.8-.24 1.2-.23.34-.51.52-.86.52h-.03c-.37 0-.67-.2-.88-.6a3.33 3.33 0 0 1-.22-1.22v-.03c0-.48.09-.9.25-1.29.23-.35.52-.52.86-.52zm-.88 1.78v.1c0 .48.09.87.26 1.2.18.22.38.33.6.33h.03c.5 0 .78-.36.86-1.1a3.2 3.2 0 0 0-.17-1.64c-.18-.28-.4-.42-.69-.42-.33 0-.58.18-.74.55-.1.34-.15.67-.15.98zm3.49-1.78c.4 0 .72.22.94.66.12.38.18.73.18 1.05v.23c0 .4-.08.8-.24 1.2-.23.34-.51.52-.86.52h-.03c-.37 0-.67-.2-.89-.6a3.33 3.33 0 0 1-.21-1.22v-.03c0-.48.08-.9.25-1.29.23-.35.52-.52.86-.52zm-.88 1.78v.1c0 .48.08.87.26 1.2.18.22.38.33.6.33h.03c.49 0 .77-.36.86-1.1a3.2 3.2 0 0 0-.17-1.64c-.18-.28-.41-.42-.69-.42-.34 0-.58.18-.74.55-.1.34-.15.67-.15.98zm3.5-1.78h.06c.27 0 .5.13.7.38.1.16.16.33.16.5 0 .38-.2.66-.6.84-.1.03-.2.05-.28.05h-.01c-.35 0-.61-.17-.8-.5a.84.84 0 0 1-.09-.39c0-.38.2-.67.62-.84a.84.84 0 0 1 .24-.04zm2.2 0h.03c.08.02.12.06.12.12v.04c0 .02-.12.18-.36.49l-2.26 2.98a.17.17 0 0 1-.07.03c-.1-.02-.14-.06-.14-.1v-.05c0-.04.09-.16.27-.38l2.35-3.1a.12.12 0 0 1 .06-.03zm-2.8.87v.02c0 .3.16.5.5.61l.1.01h.06c.29 0 .48-.17.6-.5v-.12c0-.3-.16-.51-.48-.62l-.14-.02c-.3 0-.5.15-.62.47l-.02.15zm2.44 1.01c.35 0 .62.18.82.54.04.13.07.24.07.34v.03c0 .35-.19.62-.55.8a.92.92 0 0 1-.34.07h-.01c-.3 0-.55-.15-.75-.44a.83.83 0 0 1-.12-.41v-.07c0-.3.16-.56.47-.75a.94.94 0 0 1 .41-.1zm-.63.88c0 .3.15.5.46.62l.15.02h.04c.29 0 .49-.16.6-.48v-.18c0-.3-.16-.49-.5-.6h-.11c-.32 0-.53.17-.63.52z" class="fil1" id="_548271088" fill="#4f8bcc" fill-rule="nonzero"/><path d="M46.82 16.72c.07.02.1.05.1.1v.02c.1-.08.22-.12.37-.12.07 0 .16.02.25.06.03.03.05.06.05.1-.01.07-.05.1-.11.1h-.01a.6.6 0 0 0-.17-.03h-.02c-.15 0-.26.08-.33.23a.42.42 0 0 0-.02.14v.5c0 .05-.04.09-.11.1-.07 0-.1-.04-.12-.11v-.97c0-.08.05-.12.12-.12zm1.39 0c.23 0 .4.11.53.33a.6.6 0 0 1 .07.28v.03c-.01.07-.05.1-.11.1h-.83c.02.08.08.14.18.2.06.02.11.03.17.03.05 0 .12-.02.2-.06h.04c.07.01.1.05.1.1v.02c0 .09-.1.14-.32.17h-.03c-.22 0-.39-.1-.52-.3a.61.61 0 0 1-.08-.3c0-.22.1-.4.31-.52.1-.05.2-.08.29-.08zm-.36.52h.73c0-.03-.04-.08-.1-.16-.08-.08-.16-.12-.24-.12h-.05c-.12 0-.22.06-.3.18a.33.33 0 0 0-.04.1zm1.2-.5c.06 0 .1.03.1.08.07-.05.15-.08.27-.08.15 0 .27.06.36.17.03-.06.12-.1.27-.15l.1-.02c.18 0 .32.1.43.26.03.08.05.15.05.21v.61c0 .05-.04.09-.1.1h-.02c-.07-.01-.1-.05-.1-.1v-.6c0-.11-.07-.2-.2-.24h-.08c-.1 0-.17.05-.23.17V17.8c-.02.07-.06.11-.12.11-.07-.01-.11-.05-.11-.1v-.5c0-.13-.02-.21-.05-.24a.24.24 0 0 0-.2-.1h-.01c-.12 0-.2.05-.24.18l-.01.12v.54c0 .05-.04.09-.11.1-.07 0-.1-.04-.12-.1v-.95c.01-.08.05-.13.12-.13zm2.31 0a.6.6 0 0 1 .6.59c0 .22-.1.4-.32.52a.6.6 0 0 1-.27.07h-.03c-.16 0-.3-.07-.45-.22a.59.59 0 0 1 .13-.86.6.6 0 0 1 .34-.1zm-.36.57v.02c0 .14.06.25.2.32.04.03.1.04.15.04h.02c.15 0 .25-.07.33-.22a.38.38 0 0 0 .03-.14v-.02a.36.36 0 0 0-.37-.35c-.16 0-.27.08-.35.25a.38.38 0 0 0-.01.1zm1.31-.99h.02c.07.02.1.05.1.1v.33h.17c.06 0 .1.03.11.1 0 .06-.03.1-.1.12h-.18v.56c0 .09.03.14.08.16h.13c.05 0 .09.04.1.11v.01c-.01.08-.05.11-.11.11h-.09c-.14 0-.24-.08-.31-.23a.43.43 0 0 1-.02-.13v-.59H52.09c-.06-.02-.1-.06-.1-.11.02-.07.04-.11.08-.11h.14v-.3c0-.09.04-.13.1-.13zm1.04.4c.23 0 .41.11.54.33.04.09.06.18.06.28v.03c-.01.07-.05.1-.1.1H53c.03.08.09.14.18.2l.17.03c.06 0 .13-.02.21-.06h.04c.06.01.1.05.1.1v.02c0 .09-.11.14-.33.17h-.03c-.21 0-.39-.1-.52-.3a.6.6 0 0 1-.07-.3c0-.22.1-.4.3-.52.1-.05.2-.08.3-.08zm-.35.52h.72c0-.03-.03-.08-.1-.16-.08-.08-.16-.12-.24-.12h-.04c-.12 0-.22.06-.3.18a.34.34 0 0 0-.04.1zm1.68 1.13c-.06 0-.1-.04-.11-.12 0-.06.04-.1.12-.1.13 0 .23-.08.27-.21l.01-.12v-.99c0-.06.04-.1.12-.1.07 0 .1.04.1.1v1.03c0 .21-.1.37-.3.47a.63.63 0 0 1-.19.04zm.4-1.93c.08.02.12.06.12.12s-.05.1-.13.12c-.07-.02-.1-.06-.1-.1v-.03c0-.05.04-.09.1-.1zm.8.3a.6.6 0 0 1 .6.59c0 .22-.1.4-.32.52a.6.6 0 0 1-.26.07h-.04c-.16 0-.3-.07-.44-.22a.59.59 0 0 1 .13-.86.6.6 0 0 1 .34-.1zm-.36.57v.02c0 .14.07.25.2.32.05.03.1.04.15.04h.03c.14 0 .25-.07.32-.22a.39.39 0 0 0 .03-.14v-.02a.36.36 0 0 0-.37-.35c-.15 0-.27.08-.34.25a.38.38 0 0 0-.02.1zm1.15-1.04h.02c.07.02.1.06.1.1v.47a.6.6 0 0 1 .98.47c0 .23-.1.41-.32.54a.6.6 0 0 1-.27.07h-.03c-.16 0-.32-.07-.46-.23a.66.66 0 0 1-.12-.4v-.91c0-.05.03-.09.1-.1zm.12 1.03v.03c0 .15.09.27.25.34.04.02.08.02.12.02h.02c.15 0 .27-.08.35-.24a.52.52 0 0 0 .02-.12v-.02c0-.16-.09-.27-.25-.35a.55.55 0 0 0-.12-.02h-.02c-.15 0-.27.08-.34.24a.38.38 0 0 0-.03.12zm1.83.23c0-.02-.02-.03-.05-.03a3.34 3.34 0 0 1-.6-.16.26.26 0 0 1-.1-.21c0-.12.07-.22.24-.33a.54.54 0 0 1 .74.21v.04c0 .07-.04.1-.11.12-.05 0-.1-.04-.14-.1a.32.32 0 0 0-.23-.1.3.3 0 0 0-.27.15v.02a10.32 10.32 0 0 1 .62.16c.09.06.13.13.13.23 0 .12-.09.24-.26.34a.6.6 0 0 1-.25.05c-.17 0-.32-.08-.44-.25a.11.11 0 0 1-.03-.06v-.02c0-.06.04-.1.12-.1.04 0 .09.03.14.1.07.07.14.1.23.1.1 0 .19-.05.26-.15z" class="fil1" id="_548271064" fill="#4f8bcc" fill-rule="nonzero"/><g id="g1606"><g id="g1602"><path class="fil0 str0" id="_548271160" fill="none" stroke="#4f8bcc" stroke-width=".21" stroke-linecap="round" stroke-linejoin="round" d="M40.88 17.68l2.14-2.14"/><path class="fil0 str0" id="_548271376" fill="none" stroke="#4f8bcc" stroke-width=".21" stroke-linecap="round" stroke-linejoin="round" d="M40.88 13.39l2.14 2.15"/></g><path class="fil0 str0" id="_548270440" fill="none" stroke="#4f8bcc" stroke-width=".21" stroke-linecap="round" stroke-linejoin="round" d="M38.23 16.11h2.88"/><path class="fil0 str0" id="_548271016" fill="none" stroke="#4f8bcc" stroke-width=".21" stroke-linecap="round" stroke-linejoin="round" d="M38.23 14.97h2.88"/></g><path id="_548272480" class="fil0 str0" transform="matrix(.59671 0 0 1.00229 9.76 -.04)" fill="none" stroke="#4f8bcc" stroke-width=".21" stroke-linecap="round" stroke-linejoin="round" d="M10.49 4.43h5.25l5.56 4.54"/><path id="_548272288" class="fil0 str0" transform="matrix(.59671 0 0 1.00229 9.76 -.04)" fill="none" stroke="#4f8bcc" stroke-width=".21" stroke-linecap="round" stroke-linejoin="round" d="M10.49 26.58h5.25l5.56-4.53"/><path id="_548272240" class="fil0 str0" fill="none" stroke="#4f8bcc" stroke-width=".14" stroke-linecap="round" stroke-linejoin="round" d="M16.08 15.53h4.13"/><g id="g1613" transform="translate(-.02)"><path id="_548271688" class="fil0 str0" fill="none" stroke="#4f8bcc" stroke-width=".21" stroke-linecap="round" stroke-linejoin="round" d="M19.03 17.01l1.48-1.47"/><path id="_548271664" class="fil0 str0" fill="none" stroke="#4f8bcc" stroke-width=".21" stroke-linecap="round" stroke-linejoin="round" d="M19.03 14.07l1.48 1.47"/></g><g id="g1617" transform="translate(1.26)"><path id="_548270968" class="fil0 str0" fill="none" stroke="#4f8bcc" stroke-width=".21" stroke-linecap="round" stroke-linejoin="round" d="M19.22 8.97h2.08"/><path id="_548270728" class="fil0 str0" fill="none" stroke="#4f8bcc" stroke-width=".21" stroke-linecap="round" stroke-linejoin="round" d="M21.3 6.89v2.08"/></g><g id="g1621" transform="translate(1.26)"><path id="_548270800" class="fil0 str0" fill="none" stroke="#4f8bcc" stroke-width=".21" stroke-linecap="round" stroke-linejoin="round" d="M19.22 22.05h2.08"/><path id="_548270680" class="fil0 str0" fill="none" stroke="#4f8bcc" stroke-width=".21" stroke-linecap="round" stroke-linejoin="round" d="M21.3 24.13v-2.08"/></g><g id="g1629"><path d="M52.52 7.95c-.5 0-.93-.05-1.36-.1-.55-.07-.64.13-.76.62l-.16.5h-.52c.1-.63.12-1.71.74-2a9.15 9.15 0 0 1 2.05-.15c.4 0 1.72 0 2.04.15.63.29.63 1.37.74 2h-.52l-.12-.5c-.12-.49-.21-.7-.76-.62-.43.05-.86.1-1.37.1z" class="fil0 str0" id="_548266312" fill="none" stroke="#4f8bcc" stroke-width=".21" stroke-linecap="round" stroke-linejoin="round"/><rect ry=".96" rx=".96" height="11.94" width="17.14" y="8.98" x="43.93" class="fil0 str0" id="_548265880" fill="none" stroke="#4f8bcc" stroke-width=".21" stroke-linecap="round" stroke-linejoin="round"/><path class="fil0 str0" id="_548265784" fill="none" stroke="#4f8bcc" stroke-width=".21" stroke-linecap="round" stroke-linejoin="round" d="M46.17 8.49h1.72v.49h-1.72z"/><path class="fil0 str0" id="_548265592" fill="none" stroke="#4f8bcc" stroke-width=".21" stroke-linecap="round" stroke-linejoin="round" d="M57.12 8.49h1.72v.49h-1.72z"/></g><g id="g1644" transform="translate(5.48)"><rect ry=".73" rx=".73" height="6.14" width="9.39" y="1.44" x=".11" class="fil0 str0" id="_548265256" fill="none" stroke="#4f8bcc" stroke-width=".21" stroke-linecap="round" stroke-linejoin="round"/><g id="g1637"><path d="M5.84 4.67L8 5.92c.22.13.3.43.17.65a.48.48 0 0 1-.65.18L5.36 5.5a1.97 1.97 0 0 0 .48-.83z" class="fil0 str0" id="_548265496" fill="none" stroke="#4f8bcc" stroke-width=".21" stroke-linecap="round" stroke-linejoin="round"/><circle r="1.85" transform="scale(1.06285 -1.06285) rotate(60 5.22 1.27)" class="fil0 str0" id="_548265064" fill="none" stroke="#4f8bcc" stroke-width=".21" stroke-linecap="round" stroke-linejoin="round"/><circle r="1.85" transform="rotate(-60 5.55 -1.35) scale(.84869)" class="fil0 str0" id="_548265448" fill="none" stroke="#4f8bcc" stroke-width=".21" stroke-linecap="round" stroke-linejoin="round"/><path d="M3.95 4.13V3.12a1.01 1.01 0 0 0-1.02 1.01h1.02z" class="fil0 str0" id="_548265472" fill="none" stroke="#4f8bcc" stroke-width=".21" stroke-linecap="round" stroke-linejoin="round"/><path class="fil0 str0" id="_548264728" fill="none" stroke="#4f8bcc" stroke-width=".21" stroke-linecap="round" stroke-linejoin="round" d="M6.03 5.47l1.3.75"/></g><g id="g1642"><path d="M3.17 1.44c.07-.4.07-1.06.44-1.24C3.8.11 4.56.1 4.8.1s1 .01 1.19.1c.36.18.37.84.43 1.24" class="fil0 str0" id="_548264512" fill="none" stroke="#4f8bcc" stroke-width=".21" stroke-linecap="round" stroke-linejoin="round"/><path class="fil0 str0" id="_548264560" fill="none" stroke="#4f8bcc" stroke-width=".21" stroke-linecap="round" stroke-linejoin="round" d="M1.18 1.04h.98"/><path class="fil0 str0" id="_548264224" fill="none" stroke="#4f8bcc" stroke-width=".21" stroke-linecap="round" stroke-linejoin="round" d="M8.42 1.04h-.99"/></g></g><g id="g1667" transform="translate(5.48)"><rect ry=".73" rx=".73" height="6.14" width="9.39" y="12.44" x=".11" class="fil0 str0" id="_548259448" fill="none" stroke="#4f8bcc" stroke-width=".21" stroke-linecap="round" stroke-linejoin="round"/><g id="g1660"><path class="fil0 str0" id="_548259280" fill="none" stroke="#4f8bcc" stroke-width=".21" stroke-linecap="round" stroke-linejoin="round" d="M2.63 13.51h.94v.94h-.94z"/><path class="fil0 str0" id="_548258800" fill="none" stroke="#4f8bcc" stroke-width=".21" stroke-linecap="round" stroke-linejoin="round" d="M4.33 13.51h.94v.94h-.94z"/><path class="fil0 str0" id="_548259520" fill="none" stroke="#4f8bcc" stroke-width=".21" stroke-linecap="round" stroke-linejoin="round" d="M6.03 13.51h.94v.94h-.94z"/><path class="fil0 str0" id="_548259304" fill="none" stroke="#4f8bcc" stroke-width=".21" stroke-linecap="round" stroke-linejoin="round" d="M2.63 15.04h.94v.94h-.94z"/><path class="fil0 str0" id="_548259136" fill="none" stroke="#4f8bcc" stroke-width=".21" stroke-linecap="round" stroke-linejoin="round" d="M2.63 16.57h.94v.94h-.94z"/><path class="fil0 str0" id="_548258272" fill="none" stroke="#4f8bcc" stroke-width=".21" stroke-linecap="round" stroke-linejoin="round" d="M4.33 15.04h.94v.94h-.94z"/><path class="fil0 str0" id="_548258368" fill="none" stroke="#4f8bcc" stroke-width=".21" stroke-linecap="round" stroke-linejoin="round" d="M4.33 16.57h.94v.94h-.94z"/><path class="fil0 str0" id="_548258488" fill="none" stroke="#4f8bcc" stroke-width=".21" stroke-linecap="round" stroke-linejoin="round" d="M6.03 15.04h.94v.94h-.94z"/><path class="fil0 str0" id="_548258200" fill="none" stroke="#4f8bcc" stroke-width=".21" stroke-linecap="round" stroke-linejoin="round" d="M6.03 16.57h.94v.94h-.94z"/><path class="fil0 str0" id="_548258344" fill="none" stroke="#4f8bcc" stroke-width=".21" stroke-linecap="round" stroke-linejoin="round" d="M2.63 14.45l.94-.94"/><path class="fil0 str0" id="_548258152" fill="none" stroke="#4f8bcc" stroke-width=".21" stroke-linecap="round" stroke-linejoin="round" d="M4.33 15.98l.94-.94"/><path class="fil0 str0" id="_548258584" fill="none" stroke="#4f8bcc" stroke-width=".21" stroke-linecap="round" stroke-linejoin="round" d="M6.03 15.98l.94-.94"/><path class="fil0 str0" id="_548290456" fill="none" stroke="#4f8bcc" stroke-width=".21" stroke-linecap="round" stroke-linejoin="round" d="M6.03 17.52l.94-.95"/></g><g id="g1665"><path d="M3.17 12.44c.07-.4.07-1.06.44-1.23.19-.1.95-.1 1.19-.1s1 0 1.19.1c.36.17.37.84.43 1.23" class="fil0 str0" id="_548290288" fill="none" stroke="#4f8bcc" stroke-width=".21" stroke-linecap="round" stroke-linejoin="round"/><path class="fil0 str0" id="_548290168" fill="none" stroke="#4f8bcc" stroke-width=".21" stroke-linecap="round" stroke-linejoin="round" d="M1.18 12.04h.98"/><path class="fil0 str0" id="_548289904" fill="none" stroke="#4f8bcc" stroke-width=".21" stroke-linecap="round" stroke-linejoin="round" d="M8.42 12.04h-.99"/></g></g><g id="g1687" transform="translate(5.48)"><rect ry=".73" rx=".73" height="6.14" width="9.39" y="23.45" x=".11" class="fil0 str0" id="_548289736" fill="none" stroke="#4f8bcc" stroke-width=".21" stroke-linecap="round" stroke-linejoin="round"/><g id="g1680"><circle r="2.41" cy="26.52" cx="4.8" class="fil0 str0" id="_548289544" fill="none" stroke="#4f8bcc" stroke-width=".21" stroke-linecap="round" stroke-linejoin="round"/><path d="M6.24 26.18l.01.34c0 1.33-.65 2.4-1.45 2.4-.53 0-1-.46-1.25-1.15m-.2-.91v-.34c0-1.34.64-2.42 1.45-2.42.53 0 .99.47 1.24 1.17" class="fil0 str0" id="_545495016" fill="none" stroke="#4f8bcc" stroke-width=".21" stroke-linecap="round" stroke-linejoin="round"/><path class="fil0 str0" id="_548289496" fill="none" stroke="#4f8bcc" stroke-width=".21" stroke-linecap="round" stroke-linejoin="round" d="M4.8 24.1v4.83"/><path d="M3.48 24.5a2.37 2.37 0 0 0 2.63 0" class="fil0 str0" id="_548289640" fill="none" stroke="#4f8bcc" stroke-width=".21" stroke-linecap="round" stroke-linejoin="round"/><path d="M2.64 25.44c.37.17.78.3 1.23.36m.93.08c.31 0 .62-.03.92-.07m.9-.23l.34-.14" class="fil0 str0" id="_545494728" fill="none" stroke="#4f8bcc" stroke-width=".21" stroke-linecap="round" stroke-linejoin="round"/><path d="M3.48 28.54a2.37 2.37 0 0 1 2.63 0" class="fil0 str0" id="_548288776" fill="none" stroke="#4f8bcc" stroke-width=".21" stroke-linecap="round" stroke-linejoin="round"/><path d="M2.64 27.6c.1-.06.22-.1.34-.15m.9-.22a5.83 5.83 0 0 1 3.08.36" class="fil0 str0" id="_545494800" fill="none" stroke="#4f8bcc" stroke-width=".21" stroke-linecap="round" stroke-linejoin="round"/><rect ry=".47" rx=".47" height=".93" width=".93" y="26.85" x="2.96" class="fil0 str0" id="_548289160" fill="none" stroke="#4f8bcc" stroke-width=".21" stroke-linecap="round" stroke-linejoin="round"/><rect ry=".47" rx=".47" height=".93" width=".93" y="25.37" x="3.87" class="fil0 str0" id="_548289424" fill="none" stroke="#4f8bcc" stroke-width=".21" stroke-linecap="round" stroke-linejoin="round"/><rect ry=".47" rx=".47" height=".93" width=".93" y="25.25" x="5.71" class="fil0 str0" id="_548289208" fill="none" stroke="#4f8bcc" stroke-width=".21" stroke-linecap="round" stroke-linejoin="round"/></g><g id="g1685"><path d="M3.17 23.45c.07-.4.07-1.06.44-1.24.19-.09.95-.1 1.19-.1s1 .01 1.19.1c.36.18.37.84.43 1.24" class="fil0 str0" id="_548288608" fill="none" stroke="#4f8bcc" stroke-width=".21" stroke-linecap="round" stroke-linejoin="round"/><path class="fil0 str0" id="_548288200" fill="none" stroke="#4f8bcc" stroke-width=".21" stroke-linecap="round" stroke-linejoin="round" d="M1.18 23.05h.98"/><path class="fil0 str0" id="_548288272" fill="none" stroke="#4f8bcc" stroke-width=".21" stroke-linecap="round" stroke-linejoin="round" d="M8.42 23.05h-.99"/></g></g></g></svg>