<?xml version="1.0" encoding="UTF-8" standalone="no"?>
<svg xmlns="http://www.w3.org/2000/svg" xml:space="preserve" height="436.32" width="447.01" version="1.1" viewBox="0 0 447.00665 436.31598"><g transform="matrix(1.3333 0 0 -1.3333 -177.31 634.92)"><g fill="#1a1a1a"><path d="m455.49 163.7c-1.344 0-2.435 1.092-2.435 2.437s1.091 2.435 2.435 2.435c4.344 0 7.878 3.534 7.878 7.878v234.63c0 4.343-3.534 7.877-7.878 7.877h-308.54c-4.343 0-7.877-3.534-7.877-7.877v-234.63c0-4.344 3.534-7.878 7.877-7.878 1.346 0 2.436-1.09 2.436-2.435s-1.09-2.437-2.436-2.437c-7.03 0-12.749 5.72-12.749 12.75v234.63c0 7.03 5.719 12.75 12.749 12.75h308.54c7.031 0 12.75-5.72 12.75-12.75v-234.63c0-7.03-5.719-12.75-12.75-12.75zm-241.36 0c-1.345 0-2.436 1.092-2.436 2.437s1.091 2.435 2.436 2.435c1.336 0 2.445 0.583 3.206 1.682 0.76 1.099 0.913 2.341 0.442 3.593-9.077 24.097-13.996 51.825-13.851 78.079 0.158 28.698 6.216 54.729 17.517 75.28 0.648 1.179 2.129 1.609 3.309 0.961 1.179-0.648 1.609-2.13 0.961-3.309-24.44-44.442-19.306-107-3.377-149.29 1.046-2.776 0.692-5.647-0.995-8.084-1.686-2.438-4.248-3.781-7.212-3.781zm95.245 1.824c-0.099 0-0.198 0.006-0.298 0.018-5.83 0.712-11.401 1.648-16.559 2.785-27.299 6.018-49.713 22.538-63.112 46.52-15.587 27.897-17.448 62.583-5.241 97.665 0.442 1.271 1.831 1.943 3.102 1.501 1.27-0.442 1.941-1.832 1.5-3.102-11.744-33.75-10.006-67.022 4.893-93.688 12.71-22.749 33.986-38.424 59.906-44.137 5.008-1.105 10.425-2.015 16.101-2.707 1.336-0.163 2.286-1.378 2.123-2.714-0.151-1.235-1.202-2.141-2.415-2.141"/><path d="m356.54 428.12c-0.003 0-0.006-0.001-0.01 0h-11.479c-1.111 0-2.081 0.751-2.359 1.827-0.454 1.757-0.784 3.82-1.133 6.003-0.873 5.445-1.959 12.222-5.337 14.496-1.204 0.81-2.7 1.156-4.998 1.156-2.184 0-4.844-0.315-8.213-0.714-5.548-0.657-12.452-1.474-21.798-1.474-9.345 0-16.249 0.817-21.797 1.474-3.369 0.399-6.03 0.714-8.214 0.714-2.299 0-3.793-0.346-4.998-1.156-3.379-2.273-4.464-9.05-5.336-14.495-0.35-2.184-0.68-4.247-1.134-6.004-0.278-1.076-1.248-1.827-2.359-1.827h-11.47c-0.675 0-1.32 0.28-1.78 0.774-0.461 0.493-0.696 1.156-0.65 1.829 0.704 10.23 3.587 34.571 15.134 39.65 7.175 3.157 27.119 4.595 42.614 4.595s35.439-1.438 42.614-4.595c11.468-5.045 14.391-29.092 15.119-39.44 0.02-0.123 0.029-0.249 0.029-0.377 0-1.346-1.091-2.436-2.435-2.436zm-9.535 4.872h6.888c-1.246 13.822-5.022 29.839-12.028 32.921-6.24 2.746-25.175 4.183-40.652 4.183-15.478 0-34.412-1.437-40.652-4.183-7.007-3.082-10.782-19.099-12.028-32.921h6.888c0.222 1.145 0.425 2.414 0.635 3.729 1.075 6.708 2.294 14.313 7.429 17.768 2.041 1.373 4.421 1.985 7.717 1.985 2.472 0 5.258-0.33 8.787-0.747 5.42-0.642 12.166-1.44 21.224-1.44 9.059 0 15.805 0.798 21.225 1.44 3.528 0.417 6.315 0.747 8.786 0.747 3.296 0 5.676-0.612 7.717-1.985 5.136-3.455 6.354-11.06 7.428-17.768 0.211-1.315 0.414-2.584 0.636-3.729"/><path d="m199.41 418.95h-27.779c-1.346 0-2.437 1.091-2.437 2.437v7.081c0 1.346 1.091 2.436 2.437 2.436h27.779c1.346 0 2.437-1.09 2.437-2.436v-7.081c0-1.346-1.091-2.437-2.437-2.437zm-25.343 4.873h22.907v2.209h-22.907v-2.209"/><path d="m430.81 418.95h-27.781c-1.344 0-2.435 1.091-2.435 2.437v7.081c0 1.346 1.091 2.436 2.435 2.436h27.781c1.345 0 2.436-1.09 2.436-2.436v-7.081c0-1.346-1.091-2.437-2.436-2.437zm-25.344 4.873h22.908v2.209h-22.908v-2.209"/><path d="m275.28 258.44c-0.5 0-0.998 0.152-1.422 0.457-1.085 0.78-26.738 19.274-39.561 34.476-13.207 15.659-13.162 31.997-13.153 32.685 0.008 0.695 0.313 1.354 0.839 1.81 0.525 0.456 1.22 0.666 1.91 0.576 31.214-4.043 50.649-46.187 53.766-67.006 0.043-0.181 0.066-0.369 0.066-0.563 0-1.346-1.092-2.435-2.437-2.435h-0.008zm-49.047 64.651c0.612-5.092 2.939-16.084 11.789-26.576 9.064-10.747 25.339-23.621 33.588-29.876-2.274 8.865-6.95 20.538-13.809 31.051-6.531 10.012-17.169 22.205-31.568 25.401"/><path d="m173.56 305.95c-3.61 0-6.008 0.135-6.281 0.151-0.842 0.049-1.598 0.53-1.999 1.272-0.402 0.742-0.391 1.638 0.028 2.37 7.2 12.578 18.523 21.732 30.289 24.488 9.902 2.318 19.773 0.241 29.341-6.175 1.117-0.75 1.416-2.264 0.666-3.381-0.749-1.117-2.262-1.416-3.38-0.666-8.4 5.633-16.985 7.476-25.516 5.477-10.721-2.51-19.519-10.739-24.953-18.642 6.301-0.074 18.496 0.215 28.049 3.036 1.289 0.381 2.645-0.356 3.027-1.646 0.381-1.29-0.356-2.645-1.647-3.027-9.358-2.763-20.711-3.257-27.624-3.257"/><path d="m223.58 325.45c-1.292 0-2.369 1.015-2.431 2.319-0.655 13.553-11.34 21.967-20.188 26.638-8.593 4.538-18.232 7.061-25.313 7.863 7.465-9.881 20.604-21.261 30.442-27.546 1.133-0.724 1.465-2.23 0.741-3.365-0.725-1.133-2.231-1.465-3.364-0.741-11.501 7.348-27.577 21.445-34.718 33.098-0.459 0.749-0.48 1.687-0.054 2.455s1.233 1.247 2.111 1.254c15.69 0.141 53.837-11.028 55.209-39.421 0.065-1.344-0.972-2.486-2.316-2.551-0.04-0.002-0.08-0.003-0.119-0.003"/><path d="m223.58 325.45c-0.042 0-0.085 0.001-0.128 0.003-1.344 0.07-2.377 1.215-2.307 2.559 0.42 8.109 5.095 14.753 13.519 19.216 16.798 8.897 44.326 7.417 49.879 4.053 0.676-0.41 1.111-1.122 1.168-1.91 0.056-0.789-0.274-1.555-0.885-2.057-0.522-0.429-12.991-10.585-29.535-17.34-3.788-1.547-7.78-2.749-11.866-3.576-1.32-0.264-2.604 0.587-2.87 1.906s0.586 2.604 1.905 2.871c3.786 0.765 7.484 1.879 10.989 3.31 10.625 4.338 19.648 10.262 24.487 13.733-8.731 1.393-28.287 1.434-40.991-5.296-6.924-3.668-10.603-8.769-10.934-15.162-0.068-1.301-1.144-2.31-2.431-2.31"/><path d="m465.8 148.95h-329.16c-1.345 0-2.436 1.091-2.436 2.437 0 1.344 1.091 2.436 2.436 2.436h329.16c1.346 0 2.436-1.092 2.436-2.436 0-1.346-1.09-2.437-2.436-2.437"/><path d="m455.49 163.7c-3.707 0-7.084 2.028-10.351 3.988-2.821 1.692-5.487 3.292-7.845 3.292s-5.022-1.6-7.845-3.292c-3.266-1.96-6.644-3.988-10.351-3.988-3.708 0-7.085 2.028-10.352 3.988-2.821 1.692-5.487 3.292-7.844 3.292-2.359 0-5.024-1.6-7.845-3.292-3.267-1.96-6.645-3.988-10.353-3.988-3.707 0-7.085 2.028-10.35 3.988-2.823 1.692-5.487 3.292-7.846 3.292-2.358 0-5.023-1.6-7.845-3.292-3.266-1.96-6.643-3.988-10.352-3.988-3.706 0-7.084 2.028-10.351 3.988-2.821 1.692-5.486 3.292-7.845 3.292-2.078 0-4.036-1.01-6.302-2.18-3.181-1.64-7.139-3.679-12.621-3.269-1.342 0.102-2.348 1.271-2.247 2.613 0.101 1.341 1.262 2.342 2.613 2.246 4.105-0.309 6.979 1.173 10.021 2.741 2.593 1.338 5.276 2.721 8.536 2.721 3.707 0 7.085-2.027 10.352-3.987 2.822-1.693 5.487-3.293 7.844-3.293 2.359 0 5.024 1.6 7.845 3.293 3.267 1.96 6.645 3.987 10.352 3.987 3.708 0 7.086-2.027 10.351-3.987 2.823-1.693 5.488-3.293 7.845-3.293 2.359 0 5.023 1.6 7.846 3.293 3.267 1.96 6.643 3.987 10.352 3.987 3.707 0 7.084-2.027 10.351-3.987 2.821-1.693 5.487-3.293 7.845-3.293 2.357 0 5.023 1.6 7.845 3.293 3.266 1.96 6.644 3.987 10.351 3.987 3.708 0 7.086-2.027 10.352-3.987 2.822-1.693 5.487-3.293 7.844-3.293 1.346 0 2.437-1.09 2.437-2.435s-1.091-2.437-2.437-2.437"/><path d="m214.06 163.68c-3.709-0.002-6.959 2.234-9.881 4.244-2.417 1.662-4.701 3.233-6.687 3.233-2.358 0-5.024-1.6-7.845-3.293-3.267-1.959-6.644-3.985-10.352-3.985s-7.085 2.026-10.352 3.985c-2.821 1.693-5.486 3.293-7.844 3.293-1.344 0-2.512-1.014-4.305-2.669-2.314-2.135-5.194-4.791-9.842-4.791-1.345 0-2.436 1.092-2.436 2.437s1.091 2.435 2.436 2.435c2.744 0 4.502 1.622 6.538 3.5 2.012 1.856 4.292 3.96 7.609 3.96 3.707 0 7.085-2.026 10.351-3.986 2.822-1.693 5.487-3.292 7.845-3.292s5.023 1.599 7.845 3.292c3.266 1.96 6.644 3.986 10.352 3.986 3.5 0 6.524-2.08 9.449-4.09 2.9-1.996 5.641-3.88 8.165-3.258 1.305 0.323 2.626-0.477 2.948-1.783 0.322-1.308-0.477-2.628-1.784-2.949-0.754-0.187-1.49-0.269-2.21-0.269"/></g><g fill="#428bca"><path d="m454.27 164.92c-1.345 0-2.436 1.091-2.436 2.436s1.091 2.436 2.436 2.436c4.344 0 7.877 3.533 7.877 7.877v234.63c0 4.344-3.533 7.877-7.877 7.877h-308.54c-4.343 0-7.877-3.533-7.877-7.877v-234.63c0-4.344 3.534-7.877 7.877-7.877 1.346 0 2.437-1.091 2.437-2.436s-1.091-2.436-2.437-2.436c-7.03 0-12.75 5.719-12.75 12.749v234.63c0 7.03 5.72 12.75 12.75 12.75h308.54c7.03 0 12.75-5.72 12.75-12.75v-234.63c0-7.03-5.72-12.749-12.75-12.749zm-241.36 0c-1.346 0-2.436 1.091-2.436 2.436s1.09 2.436 2.436 2.436c1.336 0 2.445 0.581 3.206 1.681 0.76 1.099 0.913 2.342 0.442 3.593-9.077 24.096-13.996 51.825-13.851 78.079 0.159 28.698 6.216 54.73 17.517 75.28 0.649 1.179 2.13 1.609 3.309 0.961 1.179-0.649 1.609-2.13 0.961-3.309-24.44-44.441-19.306-107-3.377-149.29 1.046-2.775 0.693-5.645-0.995-8.083-1.687-2.437-4.248-3.78-7.212-3.78zm95.244 1.823c-0.098 0-0.198 0.006-0.298 0.018-5.83 0.713-11.4 1.649-16.558 2.785-27.299 6.018-49.713 22.538-63.112 46.52-15.587 27.898-17.448 62.582-5.241 97.666 0.442 1.27 1.83 1.942 3.101 1.5 1.271-0.443 1.942-1.831 1.5-3.102-11.743-33.749-10.005-67.022 4.893-93.687 12.711-22.75 33.986-38.425 59.907-44.138 5.007-1.104 10.424-2.014 16.101-2.707 1.335-0.163 2.286-1.378 2.123-2.714-0.151-1.236-1.202-2.141-2.416-2.141"/><path d="m355.33 429.34h-0.008-11.48c-1.111 0-2.081 0.751-2.358 1.827-0.455 1.757-0.785 3.82-1.135 6.004-0.872 5.445-1.958 12.222-5.336 14.494-1.204 0.811-2.699 1.156-4.998 1.156-2.184 0-4.845-0.314-8.213-0.713-5.548-0.657-12.451-1.474-21.798-1.474-9.345 0-16.25 0.817-21.797 1.474-3.369 0.398-6.03 0.713-8.214 0.713-2.299 0-3.793-0.345-4.998-1.156-3.378-2.272-4.464-9.05-5.336-14.495-0.35-2.183-0.68-4.246-1.134-6.003-0.277-1.076-1.248-1.827-2.359-1.827h-11.48c-0.675 0-1.319 0.28-1.78 0.774s-0.697 1.156-0.65 1.83c0.704 10.229 3.588 34.57 15.133 39.649 7.176 3.158 27.121 4.595 42.615 4.595s35.439-1.437 42.614-4.595c11.467-5.045 14.39-29.092 15.12-39.441 0.018-0.122 0.029-0.247 0.029-0.376 0-1.345-1.091-2.436-2.437-2.436zm-9.534 4.872h6.888c-1.246 13.822-5.022 29.839-12.028 32.921-6.241 2.746-25.175 4.182-40.652 4.182-15.478 0-34.412-1.435-40.652-4.182-7.006-3.082-10.782-19.099-12.028-32.921h6.887c0.223 1.145 0.426 2.414 0.636 3.729 1.075 6.708 2.293 14.312 7.428 17.767 2.042 1.373 4.422 1.986 7.718 1.986 2.472 0 5.258-0.33 8.786-0.747 5.421-0.642 12.167-1.441 21.225-1.441 9.059 0 15.805 0.799 21.225 1.441 3.528 0.417 6.314 0.747 8.786 0.747 3.296 0 5.677-0.613 7.718-1.986 5.134-3.455 6.352-11.057 7.427-17.766 0.211-1.316 0.414-2.584 0.636-3.73"/><path d="m198.19 420.17h-27.78c-1.346 0-2.437 1.091-2.437 2.437v7.082c0 1.345 1.091 2.436 2.437 2.436h27.78c1.345 0 2.436-1.091 2.436-2.436v-7.082c0-1.346-1.091-2.437-2.436-2.437zm-25.344 4.873h22.907v2.209h-22.907v-2.209"/><path d="m429.59 420.17h-27.781c-1.345 0-2.436 1.091-2.436 2.437v7.082c0 1.345 1.091 2.436 2.436 2.436h27.781c1.344 0 2.435-1.091 2.435-2.436v-7.082c0-1.346-1.091-2.437-2.435-2.437zm-25.345 4.873h22.908v2.209h-22.908v-2.209"/><path d="m274.06 259.66c-0.5 0-0.999 0.153-1.422 0.457-1.085 0.78-26.739 19.275-39.56 34.477-13.208 15.658-13.162 31.997-13.154 32.685 0.008 0.695 0.314 1.354 0.839 1.81s1.22 0.666 1.909 0.576c31.215-4.043 50.65-46.188 53.767-67.007 0.043-0.181 0.065-0.368 0.065-0.562 0-1.346-1.09-2.436-2.436-2.436h-0.008zm-49.047 64.653c0.612-5.093 2.939-16.085 11.789-26.578 9.064-10.746 25.338-23.62 33.588-29.876-2.273 8.866-6.95 20.538-13.808 31.051-6.533 10.013-17.17 22.206-31.569 25.403"/><path d="m172.34 307.17c-3.61 0-6.01 0.135-6.283 0.151-0.841 0.049-1.598 0.531-1.998 1.272-0.402 0.742-0.391 1.639 0.028 2.37 7.2 12.578 18.524 21.733 30.288 24.488 9.902 2.319 19.773 0.241 29.342-6.176 1.117-0.749 1.415-2.262 0.666-3.38-0.749-1.117-2.262-1.416-3.38-0.666-8.399 5.633-16.984 7.476-25.517 5.478-10.719-2.511-19.518-10.74-24.953-18.643 6.3-0.073 18.498 0.215 28.049 3.036 1.291 0.38 2.646-0.356 3.027-1.646 0.382-1.291-0.355-2.646-1.646-3.027-9.358-2.763-20.71-3.257-27.623-3.257"/><path d="m222.36 326.67c-1.292 0-2.369 1.015-2.432 2.319-0.655 13.553-11.339 21.967-20.186 26.638-8.594 4.538-18.234 7.061-25.314 7.863 7.464-9.881 20.604-21.26 30.442-27.545 1.134-0.725 1.466-2.232 0.741-3.365-0.724-1.133-2.231-1.466-3.364-0.742-11.501 7.348-27.577 21.445-34.718 33.098-0.459 0.749-0.48 1.687-0.054 2.455s1.232 1.247 2.111 1.255c15.702 0.128 53.837-11.029 55.209-39.422 0.065-1.344-0.972-2.486-2.316-2.551-0.039-0.002-0.079-0.003-0.119-0.003"/><path d="m222.36 326.67c-0.043 0-0.085 0.001-0.128 0.004-1.345 0.069-2.377 1.215-2.307 2.559 0.42 8.108 5.095 14.752 13.519 19.215 16.799 8.898 44.327 7.417 49.879 4.052 0.675-0.408 1.111-1.121 1.167-1.909 0.057-0.789-0.273-1.555-0.884-2.057-0.522-0.429-12.991-10.585-29.536-17.34-3.787-1.547-7.779-2.749-11.865-3.575-1.319-0.264-2.604 0.586-2.87 1.905-0.267 1.319 0.586 2.604 1.905 2.871 3.786 0.765 7.484 1.879 10.988 3.31 10.608 4.331 19.639 10.26 24.485 13.733-8.733 1.393-28.285 1.433-40.988-5.295-6.924-3.669-10.603-8.77-10.934-15.163-0.067-1.301-1.144-2.31-2.431-2.31"/></g><g transform="matrix(1.336 0 0 1.336 -53.572 -137.7)"><path d="m328.57 354c-8.896 0-16.133 7.237-16.133 16.133s7.237 16.134 16.133 16.134c8.897 0 16.133-7.238 16.133-16.134s-7.236-16.133-16.133-16.133zm0 27.394c-6.21 0-11.261-5.052-11.261-11.261s5.051-11.261 11.261-11.261c6.209 0 11.261 5.052 11.261 11.261s-5.052 11.261-11.261 11.261" fill="#1a1a1a"/><path d="m327.35 355.22c-8.895 0-16.132 7.237-16.132 16.133s7.237 16.134 16.132 16.134c8.897 0 16.134-7.238 16.134-16.134s-7.237-16.133-16.134-16.133zm0 27.394c-6.208 0-11.26-5.052-11.26-11.261s5.052-11.261 11.26-11.261c6.211 0 11.262 5.052 11.262 11.261s-5.051 11.261-11.262 11.261" fill="#428bca"/></g><g><path d="m427.67 288.39h-22.239c-1.345 0-2.436 1.091-2.436 2.437 0 1.345 1.091 2.436 2.436 2.436h22.239c1.345 0 2.435-1.091 2.435-2.436 0-1.346-1.09-2.437-2.435-2.437" fill="#1a1a1a"/><path d="m426.45 289.61h-22.237c-1.346 0-2.437 1.091-2.437 2.436 0 1.346 1.091 2.437 2.437 2.437h22.237c1.346 0 2.437-1.091 2.437-2.437 0-1.345-1.091-2.436-2.437-2.436" fill="#428bca"/><path d="m348.73 309.41h-22.238c-1.346 0-2.437 1.091-2.437 2.437 0 1.345 1.091 2.436 2.437 2.436h22.238c1.345 0 2.435-1.091 2.435-2.436 0-1.346-1.09-2.437-2.435-2.437" fill="#1a1a1a"/><path d="m337.28 320.37h-33.518c-1.346 0-2.437 1.091-2.437 2.436s1.091 2.436 2.437 2.436h33.518c1.345 0 2.436-1.091 2.436-2.436s-1.091-2.436-2.436-2.436" fill="#1a1a1a"/></g><g fill="#428bca"><path d="m347.51 310.63h-22.238c-1.345 0-2.436 1.091-2.436 2.437 0 1.345 1.091 2.436 2.436 2.436h22.238c1.345 0 2.436-1.091 2.436-2.436 0-1.346-1.091-2.437-2.436-2.437"/><path d="m336.07 321.59h-33.518c-1.345 0-2.435 1.091-2.435 2.437 0 1.344 1.09 2.435 2.435 2.435h33.518c1.346 0 2.437-1.091 2.437-2.435 0-1.346-1.091-2.437-2.437-2.437"/><path d="m464.58 150.17h-329.16c-1.346 0-2.437 1.091-2.437 2.436s1.091 2.436 2.437 2.436h329.16c1.346 0 2.437-1.091 2.437-2.436s-1.091-2.436-2.437-2.436"/><path d="m454.27 164.92c-3.708 0-7.085 2.027-10.352 3.986-2.821 1.693-5.487 3.292-7.845 3.292s-5.023-1.599-7.845-3.292c-3.266-1.959-6.644-3.986-10.351-3.986-3.708 0-7.085 2.027-10.351 3.986-2.823 1.693-5.488 3.292-7.846 3.292s-5.023-1.599-7.845-3.292c-3.266-1.959-6.644-3.986-10.352-3.986-3.707 0-7.084 2.027-10.351 3.986-2.821 1.693-5.486 3.292-7.845 3.292-2.358 0-5.023-1.599-7.845-3.292-3.266-1.959-6.644-3.986-10.351-3.986-3.708 0-7.085 2.027-10.352 3.986-2.822 1.693-5.487 3.292-7.845 3.292-2.079 0-4.037-1.009-6.303-2.179-3.181-1.64-7.141-3.679-12.62-3.269-1.342 0.102-2.348 1.27-2.247 2.612s1.265 2.345 2.613 2.246c4.105-0.306 6.979 1.173 10.02 2.742 2.594 1.338 5.276 2.72 8.537 2.72 3.708 0 7.086-2.026 10.352-3.986 2.821-1.693 5.486-3.292 7.845-3.292 2.357 0 5.023 1.599 7.845 3.292 3.266 1.96 6.643 3.986 10.351 3.986s7.085-2.026 10.352-3.986c2.822-1.693 5.487-3.292 7.844-3.292 2.359 0 5.024 1.599 7.846 3.292 3.266 1.96 6.644 3.986 10.351 3.986 3.708 0 7.085-2.026 10.352-3.986 2.821-1.693 5.487-3.292 7.845-3.292s5.022 1.599 7.845 3.292c3.265 1.96 6.643 3.986 10.351 3.986 3.707 0 7.085-2.026 10.352-3.986 2.822-1.693 5.487-3.292 7.845-3.292 1.345 0 2.436-1.091 2.436-2.436s-1.091-2.436-2.436-2.436"/><path d="m212.84 164.9c-3.711 0-6.959 2.234-9.881 4.245-2.418 1.662-4.702 3.232-6.689 3.232-2.357 0-5.023-1.598-7.844-3.292-3.267-1.959-6.644-3.986-10.352-3.986-3.707 0-7.085 2.027-10.352 3.986-2.822 1.694-5.486 3.292-7.845 3.292-1.343 0-2.511-1.014-4.305-2.669-2.313-2.135-5.193-4.79-9.841-4.79-1.345 0-2.436 1.091-2.436 2.436s1.091 2.436 2.436 2.436c2.744 0 4.502 1.622 6.538 3.499 2.012 1.857 4.292 3.96 7.608 3.96 3.708 0 7.086-2.026 10.353-3.985 2.821-1.694 5.486-3.293 7.844-3.293s5.023 1.599 7.845 3.293c3.267 1.959 6.644 3.985 10.351 3.985 3.501 0 6.525-2.079 9.449-4.091 2.902-1.995 5.644-3.879 8.166-3.258 1.305 0.324 2.626-0.476 2.947-1.783 0.322-1.306-0.477-2.627-1.783-2.948-0.754-0.185-1.49-0.269-2.209-0.269"/></g><path d="m178.04 247.75h-22.238c-1.346 0-2.436 1.091-2.436 2.437 0 1.344 1.09 2.435 2.436 2.435h22.238c1.345 0 2.436-1.091 2.436-2.435 0-1.346-1.091-2.437-2.436-2.437" fill="#1a1a1a"/><path d="m176.83 248.97h-22.238c-1.346 0-2.437 1.09-2.437 2.435s1.091 2.437 2.437 2.437h22.238c1.345 0 2.436-1.092 2.436-2.437s-1.091-2.435-2.436-2.435" fill="#428bca"/>
</g></svg>
