<svg xmlns="http://www.w3.org/2000/svg" width="538" height="383"><path d="M382.4 118.58c1-1.77 1.48-2.84 1.3-2.84.18-.2.68-.53.68-.53s0-.7 1.33-1.05c1.35-.34 1.67-.52 2.17-.7.5-.2 1.7-1.75 2-2.46.18-.72.85-1.96.67-2.5-.17-.5-.84-3.17-1-3.17-.2 0 0 0-1-1.06-1-1.05-1.66-1.95-1.84-2.47-.17-.53-.5-.5 0-1.22.5-.7.67-.55.85-1.08.17-.52.67-1.03-.5-.7-1.16.36-.35.2-1.34 0-.97 0-3.48.52-2.3-1.06 1.33-1.58 1.65-2.64 1.82-2.64.17 0 1.3-1.42 1.48 0 0 1.24.5.9.67 1.77 0 .87 1.5-.9 1.5-.9s.5.2.83.55c.32.35.32 1.24.32 1.58 0 0 .2.17.52.35.85.7 1.66.34 1.66 1.58 0 1.42 0 1.42.5 1.77.5.34 1 .18 1.48-.17.5-.34 1.16-1.76 1.16-1.76s0-.55-1.16-1.42c-1.16-.87-2-1.42-2.33-1.77-.5-.34-.32-1.58.18-2.1.5-.53.67-.72.5-1.43-.18-.7.17-1.05 1.33-1.05h1.34s.14.18.14-.35c0-.52 1.52-2.65 1.02-2.65-.32 0 0-.53-.17-1.4-.2-.88.83-2.3 0-2.82-.86-.7-1.03-.9-1.52-1.95-.5-1.06-.5-1.08-2.33-1.42-2-.18-2.82.56-3.32-.16-.5-.7-.67.88-1-.9-.3-1.94.5-3.15.5-3.15s1.17-.9 1.5-1.43c.3-.53 1.5-.88 2.5-.35.98.35 2.32.35 3.66.53 1.15.18 1.15 1.05 1.65 0 .67-1.06 0-1.58.5-2.1.5-.54 1-1.43 1.33-.9.32.52 1.16 1.05 1.66.34.67-.72.84-.88.84-.88l.32.34s.67-.34.67.37c0 .7.64 1.58.32 2.1-.33.54-.82.54-.82 1.77 0 1.24-.03 1.06.8 2.3.86 1.05 1.35.18 1.52 1.42.18 1.24.32.9 1.17 1.76.84.88.64.88 1.3 1.22.68.34.85.9.85.18v-1.92c0-.72.67-1.24.18-2.48-.5-1.24-.03-1.08-1.02-1.95-.85-.87-1.5.18-1.8-1.05-.33-1.24 1.48-1.77 1.8-1.95.5-.18 1.16-1.06 1.34-.53.17.7-1.17 3 .98.53.67-.7 1.02-1.22 1.34-1.4.18 0 1.17-.18 1.34 0 .18.18.85-.7.67-.7-.17 0-2.33-1.25-2.33-1.25l-1.5-.87s.5-.36.83-.36c.32 0 .5-.87.82-.87.32 0 3 .53 3.5.87.48.35 2.35.37 2.17.2-.17-.2-1.5-1.1-1.5-1.43 0-.34-2.66-.87-3.5-.87-.85 0-1.5.35-2.33 0-.66-.18-1.65-.9-2.14-.9-.5 0-7.16-1.4-7.48-1.2-.32 0-.8 1.58-1 1.4-.16-.2-.7-.2-1.68-.53-1-.35-2.47-.53-4.3-.7-1.84-.2-3.17.17-3.67-.54-.5-.7-1.66-.35-3-.53h-3.5c-.66 0-2.3 0-2.63-.18-.32 0-.85-.7-1.34-.7-.5 0-.35-.17-1.34-.36-.84-.2-.84-1.22-1.16-.35-.32.87-.15.7-.64.87-.5.35-.85.9-1.17.9h-1.7c-.16-.2-.63-.37-1.3-.37h-1.65c-1-.18-1.7 0-2.68-.53-.84-.53-.8-.9-1.66-.7-.84 0-.84-.17-1.83-.17-1 0-2.33.7-3 .7-.67 0-2.15 0-2.65-.36-.5-.35-.67-.88-2.67-.53-2 .18-2.96.18-2.64-.35.32-.53.8-1.24 1-1.42.16 0 .83-.53.34-.7-.32-.2-.82-.36-1.66-.54-.84 0-.84.37-2.18.18-1.34-.18.84-.52-1.98-.52s-3.52.34-3.84.34c-.32 0-.64-.7-1.48.37-.85.87-1.84 1.58-3.32 1.58-1.5 0-1.5-.17-3 .36-1.48.52-2.33-.2-2 1.05.3 1.25.66 1.78.66 1.96 0 .18-.64 1.76-1.48.9-.84-.88-2.36-4.78-1.7-2.14.68 2.48 2.2 3.37.86 3.9-1.5.34-1.3-.2-1.5-.37-.16-.18 0-1.22 0-1.93 0-.7-.2-1.07-.5-1.42-.33-.34-.16-.9-.83-.9-.67-.17 0-.52-1-.52-.97 0-1.82-.7-1.5.9.18 1.42.5.52 1 1.76.66 1.42 1.68.35.83 1.4-.84.87-3 .7-3.5.18-.48-.34-.34.2-1.33-.52-.98-.7-.66-1.24-1.83-.7-1.16.5-1.48 1.57-1.98 1.22-.5-.34-1.5.53-1.83 0-.3-.52-1.82-.52-2.14 0-.32.53-1.17.35-2.5 1.06-1.34.7-.85 0-2.5 1.42-1.5 1.42-2.5 2.45-3 1.58-.5-.87-3.32-2.45-2.33-2.64 1-.18 1.66-.7 2.33-.18.67.53 1.5.35 1.68 0 .18-.34.85-.9 0-1.24-.84-.52-1-.18-2.32-.7-1.5-.53 0-.35-2-.7-2.02-.34-2.83-.52-3.33-.7-.5-.2-1.35 0-2.02 0-.66 0-1.3-.2-1.97-.2-.66 0-1 0-2 .72-.84.7-1.5 1.06-2.15 1.58-.67.53-2.2 1.6-2.68 2.1-.5.36-1.98 1.62-2.15 2.14-.18.53.17.9-.5 1.24-.67.35-1.16.35-1.66.35s0-.7-.5 0c-.5.87-.3 3.7 0 3.18.33-.34.15-1.6 1.8-.55 1.67 1.24 2.7 1.08 2.7 2.13 0 1.07 1.15 1.07 1.33 1.25.16.18.8-.36.8-.36s1.66-1.07 1.66-1.6c0-.52 1.02-1.76 1.02-1.76s-.52-.18-.52-1.06c0-.87.17-1.05.34-1.76.18-.87-.84 0 1.5-1.58 2.32-1.6 2.32-.53 2.32-.53s.32.35 0 .88-1 1.77-1.17 1.95c-.17.18.7 1.4 1.02 1.4.32 0 1.16-.35 1.48-.16.5 0 1.17-.2 1.5 0 .16.18.83.7.34 1.05-.33.35-1.18.9-1.85.7-.67-.17-1.48-1.23-1 .36.5 1.58 0 1.94-.48 1.94-.5 0-1.5-.9-1.34.35.18 1.24-1 1.95-1.16 1.95h-.67-1c-.3 0-1.15.34-1.33.7-.17.33-.52 0-.84 0-.32 0 .03-.52-.82-.7-.83-.2-1.15-.35-1.65 0-.5.34-1.2.5-1.5.16-.33-.18.17-.87-.5-.53-.67.35-1.02 1.24-1.34 1.24h-.14c-.84 0-1.34.33-1.66.52-.5.18.18 1.07-.66 1.42-.85.34-.18-.37-1.02.34-.85.7-1 1.42-1.3 1.42-.33 0-.2.17-.86.35-.66.18-.66.18-.98.18-.32 0 0 .18-.85 0-.84-.18-1.48.18-1.3.53.17.34 2.96 1.24.8 1.05-2.15 0-1.48.38-.98.72.5.35.64.7.8.7.2 0 .68 1.07.68 1.07s.67 0 .18.52c-.5.52.15.7-.17 1.4s-.35.18-.67.36c-.32.18-.8.7-1.48.18-.85-.52-1.5-.7-2.33-.9-1 0-.32-.17-1 .36-.66.52-.83 1.23-.83 1.94 0 .7.17 1.6 0 2.1-.18.54-.18.9 0 1.62.17.7.67 1.05.67 1.05s1 .18 1.33.18c.17 0 .64-.17 1.3.18.67.34 1.2.52 1.52 0 .32-.53 1.83-1.06 2.33-1.6.5-.5.8-.7.5-1.04-.18-.53.5-1.6.83-1.95.33-.2 1.18-.54 1.18-.54l.8-1.4s.86-.9 1.18-.9c.32 0 2.5.88 2.32-.17-.32-.36.03-.7.35-.36.18.35.82.2.82.2s.32-.2.5 0c.17.17.52 1.22 1 1.57.5.2.85.54 1.17.72.32.18.67 0 1.17.53.48.52 1.12.87 1.3 1.05 0 .18.67.87.67.87s.52.2.34.55c-.16.35-.83 1.22-1.32 1.4-.32.18-1.3-.16-1 .18.33.35.85.7 1.17.53l1.66-1.76v-.35c0-.34 0-1.07.33-.9.32.2.67.54.84.2.18-.35.32-.2 0-.37-.32-.2-1.34-1.6-1.66-1.6-.48 0-1.5-.86-1.5-.86s-.14-.2-.8-.9c-.5-.7-.68-.53-.86-1.06-.17-.52-.67-1.23.18-1.05.84.17 1.3.7 2.15 1.23.84.52.67.7 1.34 1.05.68.53.82.87 1.32.87.5 0 1.16.37 1.16 1.08 0 .7.18 1.58.35 1.58.18.2.64.54.82.88l.67 1.42c.17.35.5.53.66.88.18.34.32 0 .5 0 .17.18.5.02.5-.17v-.88s1-.34.84-.53c-.32-.2-1.17-1.08-1.17-1.43 0-.34 0-.87.32-.87s.85.9 1.52.18c.66-.7 1.8-.87 1.47 0-.32.88 0 1.06 0 2.1 0 1.07.35.72.84 1.25.5.53.86.7 1.35.87.32.2 1 0 1.5.2.66 0 .98-.2 1.47 0 .5.17 1.7 0 2 0 .18.17 1.17-.36 1.17.17s.34 0 .17 1.24c-.18 1.24-.5 2.12-.5 2.12-.84 1.58-1.2 2.1-1.5 2.1-.33 0-.68.37-1.35.2-.67 0-1.48 0-2.47-.2-1-.18-2.82.2-3.5-.15-.66-.35-1.83 0-2.32-.7-.5-.54-1.2-.56-1.5-.9-.33-.35-.5-1.25-.5 0 0 1.23-.65 1.4-.82 1.94-.17.72.18.38-.66.2-.85 0-1 .34-2.33-.53-1.15-.88-1.82-.9-2.32-1.43-.67-.34-1.16.72-1.83-.52-.67-1.24-1.5-.2-1.5-1.24v-1.58c0-.7.83-1.24.5-1.42-.3-.2 0-.7-.66-.35-.5.18-1.35.35-1.84.53-.67.18 1.3 0-1.52.18-3 .18-3.8.53-3.8.53s-.18-.18-.68.16c-.32.35-.8.9-1.48.55-.5-.18-.84-.18-1.34 0-.5 0-.84-.35-1.34 0-.5.34-1.13.53-1.3.34-.18-.18-.67-.9-.67-.9l-1.17 1.6-.84.9-1.5.88.16.87s-.67.7-.5 1.06v1.07s-.98 1.06-1.48 1.4c-.5.35-1 1.06-1 1.06s-.34.53-.66.7c-.17.2-.67.72-.84 1.06-.32.53-.64.88-.82 1.06-.17.18-.66.9-.84 1.6-.17.87-.84 1.93-.84 1.93l-.15.37c0 1.42-.03 1.6.15 2.1.17.54.35.38.17 1.43-.17 1.06-.14 1.4-.32 1.93-.17.53-.67 1.42-.84 1.77-.17.34.36 1.05.36 1.05s.17 1.06 0 1.24c-.18.17 0 .7 0 .7s.84.55 1.16.9c.32.34.82.87.82 1.05 0 .18.66 1.4.84 1.58 0 .18.64 1.08.8 1.42.2.18.86 1.06.86 1.06s1 .88 1.16 1.06c.18.35.84.53 1.16.7.18.2.82.17 1 .36.3.18.84-.2 1.16 0 .32.18 1.16-.17 1.34-.35.17-.18.84-.7 1.16-.53.32.2.64 0 .8 0 .33 0 .86-.36 1.03-.36.32 0 1-.35 1.3-.35.2 0 1.03-.52 1.35-.52.32 0 .67-.36 1-.18.3.2.16-.34.83 0 .67.2.85 0 1.17.2.17.17.52 0 .84.33.18.35.64.55.64.9 0 .34.52.68.52.68h.5s.64-.5.8-.16c.2.35.86.16.86.16l.67.9.14.34s.53 1.24.35 1.77c0 .52-.03 1.58-.35 1.76-.17.18-.32 1.24-.32 1.24s-.35.34.32.87c.67.54 1.17 1.27 1.34 1.6.2.36.85 1.25.85 1.78s.18.87.5 1.58c.32.7.64.87.8 1.58 0 .88.2.9.2 1.43 0 .52-.33.7 0 1.05.16.35.48 1.08.48 1.42 0 .18-.14 1.22-.14 1.22l-.2.53-.16 1.6-.5.7c-.17.53-.5 1.05-.32 1.93 0 .87-.35.87.15 1.58.67.88.84 1.6 1.34 2.48.33.7.68 1.42.68 1.95s.32.7.5 1.24c.17.7.17.87.17 1.4v1.6c.17.2.14.87.32 1.22 0 .33-.15.36.17.88.32.53.82.9 1 1.24.3.35.16.16.48.87.32.7.5.9.67 1.4 0 .54.17 1.6.34 2.3.18.53.5 1.06.5 1.06s.84.53 1.16.53c.32 0 .82-.88 1.3-.54.5.18.85 0 1.17 0 .32 0 .85-.53 1.17-.53.32 0 .84-.7 1.16-.52.32.2.7-.18 1.02-.52l1.3-1.42c.68-.7.7-.7 1.03-1.06.32-.34.8-1.23 1.48-1.42.5-.18.67-.7.84-1.05.18-.35.18-.7.5-.87.17-.35 0-.03.5-.9.3-1.05.84-1.4 1.16-1.58.32-.18.67-.7.84-.87.18 0 .67.17.5-.54-.18-.7 0-1.75-.18-1.93-.18-.18-.33.53-.33-.7 0-1.25.82-2.48.82-2.48s1.18-1.6 1.5-1.77c.32-.18.5-.53 1-.87.48-.34 1.65-1.05 1.65-1.57 0-.35.5-1.42.5-1.6 0-.2 0-.53-.18-1.77-.18-1.42.17-1.06-.32-2.3-.5-1.23-.53-2.82-.85-3.16-.32-.34-.14-1.42-.14-1.77 0-.34.5-1.07.8-1.42.2-.33 1.18-1.57 1.18-1.57s1.5-1.76 2-2.64c.5-.88 1-1.6 1.5-1.95.48-.35 1.33-1.06 1.82-1.77.5-.7 1.48-2.3 1.66-2.47 0-.18.67-1.05.67-1.05s.8-1.05.98-1.58c.17-.53.84-3.7.84-3.53-.17.18-1.02.34-1.34.34-.32 0 .5.37-1.66.2-2.15-.2-3.3.17-3.3.17-.68-.18-1.2.7-1.53-.53-.18-1.05-.33-1.76-.82-2.48-.5-.87-.84-1.05-1.5-2.1-.68-1.06-.68-.55-1.18-1.43-.5-.86-.84-.5-1.16-1.57-.32-1.05-.67-.7-1.16-2.13-.5-1.42-.82-1.58-1-2.45-.17-.88-.5-1.06-.66-1.77-.18-.7-1.84-4.4-2.16-4.58-.17-.2-.67-1.6-.5-1.24 0 .18 1.17 1.05 1.17 1.05s.64-.17.82-.17c.17 0 1.16.9 1.16 1.24 0 .34 1.52 1.76 2.02 3 .32 1.06.84 1.95.84 2.3 0 .34.85 1.58 1.17 2.1.32.53 1.3 1.42 1.48 1.95.2.53 1.5 2.1 1.5 3.17 0 1.04.66 2.46.84 2.64 0 .35 1.48.72 1.48.72l1.83-.53s2.68-1.77 3-1.77c.32 0 2.68-1.24 2.68-1.24s1-.9 1.66-1.6c.66-.53 1.47-1.58 1.47-2.1.17-.54.5-.54 1-1.25.66-.7 1.5-1.4.83-1.92-.5-.53-.8-.37-1.48-1.08-.84-.87-.67-.7-1.16-1.58-.5-1.07-.03-2.3-1.02-1.07-1.17 1.24-.67 1.6-1.84 1.77-1.16.18-1.48 1.05-2.15.18-.5-.87-1.02-.36-1.34-1.6-.3-1.24-.45-1.24-.63-1.77 0-.5 0-.5-.67-1.57-.67-1.24-.17-2.98.15-1.93.32 1.06 1.02 1.22 2 1.93 1 .7 1.5 1.24 2.33 1.42.85 0 1.66-.02 1.84.16.17.2.35 0 .67 0 .3.2.48-.15.66.38.17.7.98.7 1.3 1.05.32.35.35.17 1.34.35 1 .18 2.33.18 2.33.18h1.48l1.7.18s1.17.7 1.5.7c.3 0 .3.9 1.15 1.4.84.54.84.54 1.34 1.07.48.54.3.9.98 1.43.67.53 1.48-.02 1.66-.37.17-.18.84-.7.84 0s.8.37.5 1.95c-.18 1.6-.33 1.07 0 2.12.3 1.06 1.97 4.26 2.15 5.14.17.87.5.7.67 1.58 0 .87.5 1.24.5 1.76 0 .7.5.9.66 1.24 0 .53.84 0 1.16 0 .18 0 1.34-1.05 1.34-1.05s.5-.2.32-.9v-1.77c0-1.24-.5-1.24-.17-2.48.18-1.24.85-1.93 1.03-2.45.17-.53.8-1.6.98-1.6.2 0 2.02-.88 2.34-1.6.32-.52 1-1.23 1.5-1.75.66-.7 1.64-1.42 1.82-1.24.17.2.17.2.5.2.3 0 1 .34 1.5.34s1.52 1.42 1.84 2.13c.17.7-.03.52.8 1.58.86 1.05 1.53.34 1.53 1.58s0 1.26.32 1.6c.32.53.84-.9 1.34-.7.48.18.48-.2.8 1.05.32 1.24.67 1.24.67 2.48v3.17c.17.87.67 1.24.67 1.42 0 0 .52-1.42.35-2.3-.2-.86 0-2.3.3-2.65.33-.36.82-.88 1 .17.32 1.06.5.2 1.16 1.42.67 1.23 1.34.87 1.34 1.58 0 .52.5.7 1 1.05.48.53 1 0 1.5-.53.67-.52 2.33-2.3 2.33-3 0-.7.84-.53-.5-2.48-1.16-1.76-1.16-2.47-2.5-3.53-1.34-1.06-1.98-1.22-1-2.64 1-1.42 1.5-2.48 2-1.95.66.35 1.65.37 1.65 1.96 0 1.58.03 3.36 1.02 1.42z" fill="#b2b2b2"/><path d="M326.36 154.55l-.35-1.76c-.16.7-.8 2.12-.8 2.12l-1.5.87s-.5.52-.83.52c-.32 0-1 .52-1 .52s-.7-.16-.5.55c.16.7.34 1.57.16 1.76v1.4c0 .7-.17 1.4-.67 1.58-.32.18-.84.36-.67.9.17.52 0 2.28 0 2.28l1 1.6s.33-.2.83-.2c.67 0 1.16-.52 1.16-.52s.66.18.66-.7c0-.87.35-1.94.17-2.12 0-.2.67-1.24.67-1.6 0-.17.82-1.4.82-1.75 0-.35.5-1.06.67-1.58 0-.53 0-1.6.16-1.95.18-.35 0-.7 0-.87v-1.08zM326.2 152.62c.16 0 .16.2 0 0zm0 0M419.46 165.5c-.5-.87.18-1.07-.5-1.4-.66-.36-1.15-.2-1.33-.72-.17-.53-.8-.5-1-1.93-.16-1.58-1.15-1.6-1.15-1.6s-.85-.35-.67-.53c.18-.18.36-1.24.18-1.58 0-.35-.03-1.06-.35-1.6-.17-.5-.34-1.06-.66-1.6-.18-.52-.64-.68-.82-1.4-.17-.7-.32-.86-.5-1.04 0-.2-.17-.88-.34 0l-.5 2.45-.83 1.77c-.18.34-.5 1.42-.82 1.42-.32 0-.67.34-.84.34-.3 0-.8.02-.98-.16-.17-.18-.84-.9-1.16-.9-.32 0-.53-.7-.85-.7-.16 0-.66-.53-.48-.88 0-.34.17-1.07.17-1.42 0-.34.5-1.05.5-1.05s0-.53-.33-.53h-1.34c-.84 0-1.02-.18-1.34-.18-.33 0 .34-.18-.5 0-.85.18-1.17.9-1.66 1.42-.5.53 0 .34-.5.53-.5.2-.35-.34-.67.53-.32.88.18 1.06 0 1.24-.17.18-1.83-.53-1.83-.53s.32 0 0-.52c-.32-.35-.67-.9-1-.7-.48.17-.83.35-1.15.88-.33.34-.33.7-.5 1.05-.18.35-.85.35-.85.7 0 .34 0 1.05-.32 1.23-.17 0-.32-.34-.5-.34-.17 0-.17-.7-.34-.35-.2.34-.33.34-.5.86-.18.7-.33 1.24-.5 1.24-.18 0 0 .18-.67.53-.67.34-.85.34-1.83.87-1 .53-.82.55-1.5.55-.66 0-.83.34-1.33.34-.5 0-.84.18-1.16.7-.3.53-.83.7-1.15.7-.32 0-.67.36-.67.36-.18.34-.32 3.7-.5 4.06-.17.34-.5 2.47-.32 3 .18.53.32 2.3.15 2.82-.17.53 0 2.3-.3 2.3-.33 0-.5 0-.5.34 0 .18.5.7.5.7h1.33c.5 0 1.16-.52 1.65-.52.67 0 1-.53 1.5-.53.48 0 1.68-.36 2-.18.32.18.8-.9 1.3-.7.5.17 1.7-.54 2.2-.54.48 0 .8-.86 1.3-.68.5.2 1.65-.34 2.32 0 .5.2 1.37-.87 1.7 0 .3.88 1.47 1.06 1.47 1.6v1.22h.85s1.48-.9 1.66-.9c.17 0 .8-.86.8-.33 0 .35-.48 1.24-.66 1.6-.17.33.18.88.18.88s.8.35.5 1.06c-.33.7 0 .52 0 1.05 0 .52.02.36.34.7.32.35.82.87 1.3.87.5 0 .7-.52 1.03-.34.32.18 1.13 0 1.3.34.18.35-1.48 1.06 1.52-.18 3-1.25 3.16-1.6 3.48-2.12.32-.53.85-.9 1.17-1.24.32-.34 0-.16.98-.87.85-.7.82-.34 1.66-1.76.84-1.4 1.5-1.78 1.5-2.12.18-.2.5-.35.5-1.22s.67-1.8.67-2.13c0-.35.15-.87.15-1.4.5-1.24.84-1.95.34-2.82zM384.87 142.56c.5-.18 2.18 0 2.18 0s.67.18 1 .18c.3 0 .5-.18.66-.18.2 0 .68-.87.68-.87s-.35-.38.15-.9c.5-.53 1-.72 1-1.24 0-.53-.16-.53 0-.88.2-.34.83-.18.65-.52-.17-.35.18-.2-.14-.9s-.67-.87-.35-1.58c.3-.87.66-.9.48-1.42 0-.53.35-.7-.14-1.22-.5-.52-.84-.7-1.16-.9l-.35-.17c-.32.53-1.34 1.95-1.66 1.95-.32 0-.82.52-1 .34-.17-.18-.98.02-1.16 1.08-.16 1.05-.65 1.58-.83 1.58-.17 0 .35 1.58-.8.87-1.18-.72-.86.54-1.03.88-.18.35.17 1.24.35 1.6 0 .33.34.88.66 1.4 0 .35.14.88.8.88zM420.95 149.97c-.5-.35-.85-.7-2.33-1.93-1.48-1.24-.5-.37-.32-1.42.17-.88-.17-.2-.5-.7-.3-.36 0-.72-.84-1.6-.84-.87-.32-.36-1.16-.7-.85-.35-1.17-.17-1.66-.88-.67-.53-1.48-.36-2.33-.9-.98-.52-1.15-.17-1.33-.52-.17-.34-.32-.16-.8-.16-.5 0-.5-.02-.68.7-.18.7-.85.72-1.35 1.06-.5.35-.84.17-1.34-.7-.48-.88-.45-.35-.63-1.77 0-1.42-1.2-.7-1.5-.53 0 0-.82-.18-.82 0v.16l1.16.9c1.17.87 0 .87 0 .87s-.16.55.16.9c.32.34.84.15 1.33.34.66.17.66.17.84.17h.32l1.34.53c.5.18.5.7.98.87.5.18.32.9.32.9s.18.7 0 1.05c-.17.52.18.7.85.36.67-.18.52.2.84.53.3.36 1.13.7 1.8.36.67-.2.52.7 1 0 .5-.72.83-1.06 1.32-1.06.5 0 .67.18.85.7.17.54 1.16.88 1.66 1.4.5.54 1.16.72 1.33.9.18.2 1.5.17 1.98.17.32.87 0 .34-.5 0zM378.9 142.56c0-.18-.34-.87-.66-1.06-.32-.18-.67-.9-1.17-1.76-.5-1.06 0 0-1.16-1.58-1.15-1.6-.98-.7-1.82-1.24-.85-.53-1.02-.9-1.52-1.24-.32-.53-.8-1.76-1.48-1.76-.67 0-1-.35-1-.35h-.16s.52.7.84 1.06c.17.34.15.87.64 1.4.5.52.67 1.05.84 1.23.32.2.85 1.6 1.17 2.13.18.52.68.87 1 1.4.32.52.84 1.6 1.5 2.47.68.87.85 1.42 1.17 1.76.32.53 1.17.88 1.17.88s.32.03.8-.68c.5-.53.36-1.24.36-1.42.18-.35-.32-1.06-.5-1.24zM247.55 145.38c.17-.53-.82-.35-1-.87-.3-.52-.52 0-.84-.36-.3-.34-.83-.16-1.15-.87-.18-.7-1.34-.35-2.33-1.06-1-.7-.64 0-1.3-.17-.68-.18-1.35 0-1.52-.18-.18-.18-.67.7-1 0-.3-.53-.3-.18-1.47-1.24-1.17-1.04-.5-.33-1.34-.52-.5-.18-.68.2-.68.37v-.18-.53c0-.53 0 0-.5-.18-.5-.2-.67 0-.84 0-.32 0-1.34.34-1.83.52-.5 0 .67-.52 1.34-1.76.65-1.24-.2-1.22-.5-2.46-.33-1.23-1-1.42-1.84-1.94-.85-.7-.32-.2-.82-.2-.5 0-1 0-1.5-.5-.5-.54-.82-.2-1-.72-.17-.53-.5-.53-1.34-1.6-.84-.86-1.48-.86-1.98-1.04-.66-.18-.84-.37-1.83-1.24-.33-.34-.5-.34-.68-.34 0 0 .15-.02.32-.37.18-.86-1.48 0-2.82-.33-1.34-.2-1.16.34-1.48 0-.18-.53-.5-.37-1.17-.7-.67-.2-.84-.38-1.16-.73-.3-.34-.17.03-.83 1.6-.67 1.43-.18.9-.5 1.25-.32.33-.84.5-.67-.72.18-1.24 0-.37-.67-1.95-.67-1.6-1 .9-1.3.9-.18 0-1.17.15-1.17.15s-1.16 1.77-1.83 2.3c-.67.52-.85.9-.67 1.23.17.54-.18 1.07.67 1.6.84.7-.5 1.05-.5 1.76 0 .7-.84 1.77-.84 1.77l-1.18 1.94s-.66 1.24-1.16 1.6c-.5.33-.5 1.22 0 1.75s.32.7.5.9c.17.18-1 .87-1 .87l.18 1.57s1.63 2.13 1.8 2.3c.18.2.85 1.4 1.17 2.12.5.7.68 1.94.85 2.3.32.33.67 1.75 1 2.1.3.34 1.5 1.42 2 1.76.32.35 1.66 1.42 2.33 1.95.67.54 1.13.88 1.97.88.85 0 .03.7 1.02 1.24 1 .53-.17 2.1 0 3.35.18 1.23-.17 2.65 0 3.18.18.53-.17 1.93.15 3.17s0 2.47.17 3.18c.17.7.34 3.53.34 3.53l.5 6.54s.35.5.67.7c.33.17.5 1.04.82 1.22.32.18.32.9.5 1.6.17.7.17.87.66 1.05.32.18 0 .87 0 1.06 0 .2-.5.53-.66 1.06-.18.53.84 1.77.84 1.77l.8 1.58s1.2 1.8 1.53 2.14c.3.35 1.47.9 1.96 1.24 0 0 1.2.18 1.52 0 .32-.18 0-.02-.18-.55-.17-.53-.35-.53-.17-1.4 0-.87.35-.9.84-1.76.32-.88 0-.53 0-1.77s-.5-.9-1.16-.9c-.66 0-.17-.87-.17-1.2 0-.2.18-.56.67-.9.32-.35.35-.7.35-.7s.15-.9-.17-1.4c-.32-.54-.35-.72-.67-.9-.3-.2-.17-1.06-.17-1.06l.5-.18.17.36s.85.18 1.34 0c.5-.18.18-.9.18-1.95 0-1.05.14-.36.32-.7.17-.35.84.18 1.16.36.32.18.5-.18.67-.18.17 0 .5-1.06 1-1.24.48-.17 0 0 .16-.34.18-.34.18-.36.5-.9.32-.52-.82-.7-1.5-1.23-.66-.52-.83-.87-.83-1.4.17-.52.32.2 1.48.53 1.17.35 1.02 0 1.34.18.32.2.18-.18.18-.18s.8-.16 1-.87c.3-.54 0 0 .33-.72.32-.7.32-.37 1.3-1.6 1-1.24.2-.35.2-.88 0-.34.3-.87.3-1.58 0-.53.68-.9 1.17-2.13.5-1.25.5-1.43 0-2.3-.5-.88 1.02-1.4 1.52-1.6.32 0 1.5-.35 2.5-.7 1-.34.46-.16 1.3-.7.85-.5.53.18.85-.7.18-.87.32-.7 1-2.47.66-1.77.16-.55.34-1.42.18-.86 0-.86.33-2.1.17-1.24 0-1.77.32-2.82.17-1.06.03 0 .35-1.06.32-1.05.17-1.23.67-2.3.32-1.04.35-.35.67-.7.32-.34.32-.87.8-1.05.5-.2 1-1.6 1.17-2.48-.3-.36-.65-.2-.65-.72zM204.66 129.86s-.17-.53-.67-.53c-.33 0-1.17-1.05-1.17-1.05s-.32-.37-.32-.9c0-.52-.3-1.4 0-2.45.33-1.06.15-2.13.15-2.48 0-.34.35-.36-.14-.7-.5-.35-1.48-.35-2.32-.35-.67 0-1.48.16-1.66.34-.17 0 .82-2.47 1-2.82.17-.34.8-2.13.8-2.47 0-.2.18-.37-.14-.7-.32-.36-1.16-.52-1.66-.18-.5.2-.35-.36-.84.7-.32.87-.85 1.94-1.17 2.12-.48.18-1.32.7-1.32.7s-1.17 0-1.5-.18c-.3 0-2-.87-2.32-1.58-.32-.53-.5-1.77-.5-2.3 0-.52.82-2.3.82-2.65 0-.36.85-1.96.85-2.3 0-.35.14-1.06.32-1.4.17-.35 1.34-.73 1.66-1.08.33-.34.85-.7 1.35-.87.5-.18 1-.35 1.33-.35.32 0 1.3-.87 1.5 0 .16.88.83.5 1.15.7.32.18.52.52 1.02-.53.67-1.06 1.16-1.4 1.16-1.06 0 .2 1 0 1.18.2.17.18.5-.2 1 .34.48.53 1.32.55 1.15.9 0 .17.32.17.32.52 0 .18.35-.55.35.87s.32 2.3.32 2.3.52 1.23.84.9c.18-.2.67-.9.67-.9s.82-.53.15-2.12c-.5-1.57-.15-2.12-.32-2.64 0-.72-.03-.88.8-1.6.86-.7 3-2.28 3.68-2.63.5-.34 1.66-1.23 1.66-1.23s.5-.2.5-.9 1.5-1.76 1.5-2.1c0-.35 1-1.06 1-1.06s.98-.7.98-1.06c0-.34 1.34-1.05 1.52-1.05.17 0 1.65.34 1.65-.37 0-.7 0-.87.85-1.58.84-.7 1.66-1.58 2.15-1.58.5 0 1.66-.7 2.15-.9.5-.18 2.16-.87.67 0-1.48.88-.52.37-.84 1.24-.32.88-.5 1.77.84.7 1.5-1.22 1.34-1.4 1.84-1.57.5 0 .18.16 1.34-.18 1.17-.36 1.17-.54 1.17-.54s.47-.53.15-.7c-.32-.2.35-.54-.8 0-1.18.52-1 .52-1.84.34-.84-.2-1.83-.17-.98-.88.84-.87 1.83-1.07 1.16-1.42-.67-.34-2.36 0-2.68.2h-1.16c-.5 0-.32-.7 0-.9.32-.17 1.34-.7 2.5-.88 1.17-.34 4.16-.34 4.83-.34.67 0 1.48.16 2.15-.2.5-.33 1.5-1.06 1.66-1.4.18-.35.85-.88.85-.88s.64-.7.32-1.06c-.32-.34-.82-1.07-1-.9-.3.2 0 1.07-.66 0-.68-1.04-.54-1.2-.86-1.4-.32-.17-.64 0-.32-1.23.32-1.22.18-1.57.18-1.57s.17-.9 0-1.07c-.18 0-.35-.35-.85 0-.32.18-2.5 1.42-3 1.6-.5.18-.98-.9-.8-1.6.17-.53 0-.2-.18-1.06-.32-.87-1.5-.87-2-.87s-1.52-.7-1.84-.18c-.32.52-1.83 1.92-2.15 2.1-.32.2-.82-1.4-1 1.08-.17 2.48.82 3.17-.34 3.35-1.17.18-2.33.87-2.33.87s-.98 0-.98.7c0 .72-.32 2.12-.8 2.3-.5.2-1.53 0-2.02-.52-.5-.53 0-2.3 0-2.3l.67-.7s-4.83-.88-4.66-1.06c0-.35-1.5-.9-1.5-1.42-.18-.53-.18-1.58 0-1.93.17-.34 2.18-2.3 3.17-2.66 1-.34 2.82-1.2 3.32-1.4.48-.18 1.47 0 1.65-.52.32-.35.35-1.06.35-1.06s-.15-1.07.17-.9c.32.2.8.37.8.72 0 .18 0 .9.68.18.67-.7 1.17-.9 1.84-1.24.66-.34 1.47-.18 1.96-.52.5-.35 1.52-.7 1.52-1.42 0-.88-.18-.53-.67-.7-.3 0 .18 0-1.16.7-1.33.7-.84.18-1.83.7-.98.53-.98.5-.98.17 0-.35.18-1.06.18-1.06s-.03.03-.53-.15-.46 0-.64-.7c0-.72.32-1.77-.35-1.43-.66.35-1.48-.16-1.97 1.42-.5 1.58-2.35 3.17-2.85 2.82-.5-.34-.5-.53-.8-.53-.33 0-.85-.52-1.52-.52h-3.15c-.5 0-1.2-.36-1.5.17-.5.53-1.17 1.07-1.17 1.42 0 .33-.63-.88-.8-.88-.18 0-.85-.37-1.52-.37s-1.13-.34-1.3-.34c-.18 0 .17-.7 0-.7l-5.16-.2s-1.5-.7-2.18-.5c-.67 0-2.33.17-3.5.35-1.16.18-3.13 1.06-3.8 1.06-.67 0-1.98 0-2.16-.36-.17-.34 0-.34-.17-.34-.3 0 0-.17-.83-.88-.67-.52.34-1.07-1-1.07h-3.3c-1.17 0-3.68.7-4 .7-.32 0-2.67.37-3 .2-.3-.2-2.35.86-2.67.86-.32 0-1.83.03-2.15.38-.32.18-2.16.7-1.5 1.05.68.35.48.88.65 1.06 0 .17-.64.88-.64.88s-.17-.02-1-.36c-.86-.35-1.67-.53-2.17-.2-.33.2-1.03.74-.85 1.1.17.33 1.16 1.04 1.34.86.16-.18.48-.7.98-.7s1.2-.35.52.52c-.67.87-1.2 1.24-1.5 1.24-.33 0-1.32.18-2.17.18-.84 0-.84-.35-1.5.53-.85.87-1 .36-1.17 1.23-.18.88-.32.88 0 1.06.32.18-.67.34 0 .53.67.18 1.5.52 1.5.7 0 .2.82-.36.33.35-.5.7-.82 1.24.16.53.85-.7 1.5-.18 2.16-.53.84-.34 1.5-.53 2-.87.5-.35.67-.87 1.34-1.06.67-.2.15 0 .32.52.18.53 0 .5.5.16.5-.34.5 0 1-.52.48-.53 1.35-.88 1.67-.53.5.18.65.18.82.18h.35c.67 0-.35-.17 1.98.36 2.32.52 2.82.2 3 1.07.17.87.52 0 .84.53.32.53.64 0 .8 1.05.2.9 0 3.54-.16 3.9-.18.33-.15.33-.15 1.04 0 .72 1 4.08.67 4.43-.32.34-1.02.34-1.02.34l-.32 1.43s-.67 1.24-1.16 1.77c-.5.7-1.2 1.4-1.5 1.93-.33.52-.68 1.6-1.18 2.13-.5.52-1 .34-.8 1.58.16 1.24 0 2.47.16 3.35.18.86.5 2.12.82 2.46.32.35.5.53 1 .87.48.35 1.15.9 1.15 1.24v2.82s.52.9.52 1.6c0 .87.64 1.76.64 1.76l.54 1.06s.17-.02.5.7c.3.7.3.7.3.88v.18c0-.18-.16-1.42-.16-1.76-.18-.35-.15-.9-.32-1.42-.18-.53 0-1.06-.32-1.77-.5-.7-.5-.87-.67-1.58-.32-.53-.53-1.4-.35-1.58.32-.2.5-1.24 1.16 0 .67 1.23.67.9.85 1.76 0 .87.32 1.24.5 1.58.17.36.8 1.78.98 2.3.33.53 0-.36.68.88.67 1.05.84 1.42 1.16 2.3.32.86.67.88.85 1.6.16.7 0 .52 0 1.23-.2.72.13 1.6.13 1.6s1 .36 1.17.7c.17.35 1.16.7 1.33.88.18.34 1.17.7 1.17.7l1.16.72c.32.18 1.17.34 1.17.34s.67.18.84.18h.8s.68-.54.86-.36c.17.18.8-.35 1 0 .16.34.66.36.83.7.18.35.5.37.82.72.32.34.84.36 1.16.7.32.35.67.35 1.16.35h.85c.32 0 .5-.16.8.2.33.33.54.7.86 1.04.18.35.85.35.85 1.06 0 .7.14.53.14 1.05 0 .53.3.9.5.9.16.18 1 .87 1 .87l1.17.18.82.7 1 .36zM226.6 56.8zM265.85 65.64c.67-.53.8-.7 1-1.42.16-.7-.5-1.03.16-2.45.68-1.43.85-.2 3-.9 2.16-.87.5-1.58 1.5-2.64.98-1.05.83-.9 2.32-1.6 1.48-.7 0 0-.18-.87-.17-.87-1.13 0-1.98-.7-.84-.72-1.33.17-2 .17-.67 0-1.34.16-3 .16-1.48-.2-2.97.18-3.64 0-.84-.2-1.48.18-3.5 0-2-.2-2.3.9-2.8.36-.5-.53-2.02 1.24-3.68 1.24h-3.17c-1 0-1.48-.9-2.82-1.24-1.16-.35-1.5-.53-3-.7-1.33-.2-1.65-.54-3-.72-1.16-.18-.46-.16-2.96.36-2.5.53-1.5.35-2.34 1.06-.84.53-3.66.53-3.66.53l-5.82.5s1 .54.67.72c-.32.2 0 .17.5.88.5.7.84.7 2.32.9 1.48.17.67.15.67.15s.64.37 1.48.55c.85.18.35.32 2-.55 1.5-.87.33-.18 1 0 .67.18 0 0 .67-.87.66-.87 1.97-.7 3.13-1.06 1.16-.34 2.36-.52 2.68-.52.5-.2 2.33-.55 3.82-.9 1.48-.34-.18.7.5.9.66.18-1.32 1.05-1.32 1.05s-1.5-.18-3-.18c-1.48.18-.17 1.07.33.9.5-.2.84.15 2 .34 1.17.2 1 .53 1.84 1.24.84.72.8.53 1.3 1.24.5.7.36 1.24.68 2.1.32.9.5 2.14.5 2.14s-.33.88-.65 1.06c-.32.18-1.02.34-2.18.16-1.17-.18-.18 1.42 0 2.13.17.7.17 1.93.5 2.46.3.52.66 1.23 1.16 1.94.5.53.84.53 1.5 1.06.68.53 2.02-1.75 2.5-2.46.5-.52.16-.73.83-1.6.68-.87 1.17-.87 3.67-1.58 2.33-.72 1.17-1.07 1.5-1.25.3-.18 2-.87 2.66-.87.67 0 1.84-.37 3.32-.7 2.33-.54 2.33.17 3-.54z" fill="#b2b2b2"/><path d="M226.45 65.28c.67-.35-.17-1.6 2.48-.53 2.64.87 2.32-.18 3 1.24.66 1.4.98 2.46.66 2.8-.33.35-.5.74-1.5 1.08-1.16.35-1.5.87-.84 1.4.85.53 2.33 1.24 3 1.58.67.35 2.65.55 1.66-.7-1-1.22.17-1.6.17-1.6s2 1.6 1.16-.15c-.67-1.76-1.17-1.76-.67-1.76.48 0 1.33.53 1.33.53l.5-.9-.5-1.57-1.52-1.6s1.18-1.22-.48-1.4c-1.66-.2-1.5-.17-2.5-.88-1-.7-1-.87-2.65-.53-1.66.34-2.33.52-2.33.52l-.84-.9c-.5.54-1.98 1.43-1.5 1.77.33.52.68 1.92 1.35 1.58zM203 63.88c.5.34 1 .18 1.66.18.67 0 .35-.18.18.87-.18 1.06.5.9.8 1.24.18.34.53-.16 1.52.18 1 .18.5.16 1.5-.18.83-.53 1.32-.16 2 .18.5.35 1.97-.53 3.14-.7 1.16-.2.17-.54.67-2.3.5-1.58-1.98.5-2.65.16-.67-.33-1.52.54-2.18.2-.67-.2-1.5-1.06-2.33-1.77-.84-.7-1.8.18-2.46-.35-.67-.52-2.5 1.22-3.18 1.93 0 0 .85.03 1.34.38z" fill="#b2b2b2"/><path d="M434.6 34.05c-1.35-1.24-2.65-2.1-4.5-1.93l-80.46 1.58h-.5L286.8 18.18c-1-.18-1.84-.18-2.83 0l-63.5 13.94c-.2 0-.36.16-.36.16h-69.15c-3.66 0-5.64 3-5.64 6.88V213.3c0 1.96.36 3.9 1.84 5.3 1.48 1.24 3.14 1.93 4.98 1.6l72.15-11.48h.67l57.37 12c.5 0 .83.18 1.32.18h1.02l67.15-10.4h.5l77.46 9.87c1.84.18 3.32-.34 4.66-1.76 1.34-1.23 1.83-3.16 1.83-5.1V39c-.17-1.77-.32-3.53-1.66-4.95zm-1.84 179.26c0 .54-.52 1.07-.84 1.6-.5.34-1 .52-1.66.52l-77.48-9.88h-1.8l-67.18 10.43h-.67l-57.35-12c-.5 0-.84-.18-1.34-.18h-.98l-72.33 11.28c-.85.18-1.52-.2-1.84-.53-.33-.35-.82-.7-.82-1.58V39c0-1.06 1.34-1.58 2.33-1.58h69.16c.5 0 .82-.37 1.3-.37L284.8 23.1c.3 0 .5-.17.83 0l62.35 15.53c.5.2 1 .2 1.66.2l80.62-1.6c.5 0 1.16.2 1.66.53.32.35.84.87.84 1.4z" fill="#b2b2b2"/><path d="M16 52.27v86.86c0 .45.23.87.6 1.1l54.55 32.95c.2.1.4.17.6.17.23 0 .44-.06.63-.17l54.53-32.95c.4-.23.63-.65.63-1.1V52.27c0-.45-.24-.87-.62-1.1L72.4 18.23c-.38-.23-.85-.23-1.23 0L16.6 51.17c-.37.23-.6.65-.6 1.1zm107.88 0l-2.26 1.37-49.45-29.86c-.25-.16-.56-.16-.8 0L21.9 53.64l-2.25-1.37 52.1-31.47zm-50.9 33.68l52.12-31.47v83.92l-52.12 31.47zm-1.22-2.2L23.53 54.6 71.76 25.5 120 54.6zM18.43 54.47l52.12 31.47v83.92L18.43 138.4z"/><path d="M120.62 127.86c.25-.15.4-.43.4-.74v-12.38c0-.32-.15-.6-.4-.75-.24-.17-.56-.17-.8 0l-7.44 4.48c-.24.15-.4.45-.4.75v12.38c0 .32.16.6.4.75.13.08.26.1.4.1.15 0 .28-.02.4-.1zm-1.2-1.22l-5.82 3.5v-10.42l5.8-3.5zM120.62 110.9c.25-.14.4-.4.4-.72v-12.4c0-.3-.15-.58-.4-.74-.24-.15-.56-.15-.8 0l-7.44 4.5c-.24.15-.4.43-.4.74v12.4c0 .3.16.57.4.72.13.08.26.13.4.13.15 0 .28-.05.4-.13zm-1.2-1.2l-5.82 3.5v-10.43l5.8-3.5zM120.62 93.98c.25-.15.4-.42.4-.73v-12.4c0-.3-.15-.57-.4-.73-.24-.15-.56-.15-.8 0l-7.44 4.5c-.24.15-.4.4-.4.72v12.4c0 .3.16.58.4.73.13.08.26.1.4.1.15 0 .28-.02.4-.1zm-1.2-1.23l-5.82 3.5v-10.4l5.8-3.52zM120.62 77.05c.25-.16.4-.42.4-.73V63.94c0-.3-.15-.6-.4-.75-.24-.16-.56-.16-.8 0l-7.44 4.48c-.24.16-.4.44-.4.75V80.8c0 .32.16.58.4.74.13.08.26.1.4.1.15 0 .28-.02.4-.1zm-1.2-1.23l-5.82 3.5v-10.4l5.8-3.52zM108.97 134.88c.25-.15.4-.42.4-.73v-12.4c0-.3-.15-.57-.4-.72-.25-.16-.57-.16-.8 0l-7.44 4.47c-.25.16-.4.44-.4.75v12.4c0 .3.15.58.4.74.12.07.27.1.4.1.16 0 .3-.03.4-.1zm-1.22-1.2l-5.8 3.5v-10.44l5.8-3.5zM108.97 117.97c.25-.16.4-.45.4-.75v-12.4c0-.3-.15-.57-.4-.73-.25-.16-.57-.16-.8 0l-7.44 4.48c-.25.16-.4.44-.4.73v12.4c0 .32.15.6.4.74.12.08.27.13.4.13.16 0 .3-.05.4-.13zm-1.22-1.23l-5.8 3.5V109.8l5.8-3.48zM108.97 101.02c.25-.16.4-.44.4-.75V87.9c0-.32-.15-.58-.4-.74-.25-.15-.57-.15-.8 0l-7.44 4.48c-.25.15-.4.43-.4.74v12.38c0 .3.15.6.4.75.12.07.27.12.4.12.16 0 .3-.03.4-.1zm-1.22-1.2l-5.8 3.48V92.88l5.8-3.5zM108.97 84.1c.25-.17.4-.43.4-.74v-12.4c0-.3-.15-.58-.4-.73-.25-.16-.57-.16-.8 0l-7.44 4.5c-.25.14-.4.4-.4.72v12.38c0 .3.15.6.4.74.12.08.27.1.4.1.16 0 .3-.02.4-.1zm-1.22-1.24l-5.8 3.5V75.95l5.8-3.5zM97.35 141.92c.24-.15.4-.43.4-.74v-12.4c0-.3-.16-.58-.4-.73-.25-.16-.57-.16-.82 0l-7.43 4.5c-.25.14-.4.42-.4.73v12.4c0 .3.15.58.4.73.12.1.25.12.4.12.14 0 .3-.03.4-.1zm-1.22-1.23l-5.82 3.5V133.8l5.83-3.5zM97.35 124.97c.24-.15.4-.42.4-.73v-12.4c0-.3-.16-.57-.4-.72-.25-.16-.57-.16-.82 0l-7.43 4.5c-.25.14-.4.4-.4.72v12.4c0 .3.15.58.4.74.12.06.25.1.4.1.14 0 .3-.02.4-.1zm-1.22-1.2l-5.82 3.5v-10.42l5.83-3.5zM97.35 108.04c.24-.16.4-.43.4-.75V94.9c0-.3-.16-.56-.4-.72-.25-.15-.57-.15-.82 0l-7.43 4.5c-.25.15-.4.43-.4.74v12.38c0 .3.15.57.4.73.12.08.25.12.4.12.14 0 .3-.04.4-.12zm-1.22-1.2l-5.82 3.5V99.9l5.83-3.5zM97.35 91.1c.24-.15.4-.4.4-.72V78c0-.32-.16-.6-.4-.75-.25-.16-.57-.16-.82 0l-7.43 4.5c-.25.16-.4.42-.4.74v12.37c0 .3.15.57.4.73.12.07.25.12.4.12.14 0 .3-.05.4-.12zm-1.22-1.22l-5.82 3.5V83l5.83-3.52zM85.7 148.96c.24-.16.4-.44.4-.75v-12.37c0-.3-.16-.6-.4-.74-.25-.17-.57-.17-.82 0l-7.45 4.48c-.25.15-.4.43-.4.74v12.38c0 .3.15.6.4.75.12.06.27.1.4.1.16 0 .3-.02.4-.1zm-1.22-1.2l-5.83 3.48v-10.42l5.83-3.5zM85.7 132.03c.24-.16.4-.44.4-.75V118.9c0-.3-.16-.6-.4-.75-.25-.15-.57-.15-.82 0l-7.45 4.5c-.25.15-.4.44-.4.74v12.4c0 .3.15.56.4.72.12.07.27.1.4.1.16 0 .3-.03.4-.1zm-1.22-1.23l-5.83 3.5v-10.4l5.83-3.53zM85.7 115.08c.24-.16.4-.42.4-.73v-12.4c0-.3-.16-.6-.4-.75-.25-.15-.57-.15-.82 0l-7.45 4.5c-.25.15-.4.43-.4.74v12.4c0 .3.15.57.4.73.12.06.27.1.4.1.16 0 .3-.03.4-.1zm-1.22-1.23l-5.83 3.53v-10.44l5.83-3.5zM85.7 98.14c.24-.15.4-.42.4-.73V85.04c0-.3-.16-.6-.4-.74-.25-.17-.57-.17-.82 0l-7.45 4.5c-.25.15-.4.4-.4.72v12.38c0 .3.15.58.4.73.12.08.27.13.4.13.16 0 .3-.05.4-.13zm-1.22-1.22l-5.83 3.52V90.02l5.83-3.53zM31.15 132.35c.24-.15.4-.43.4-.74v-12.37c0-.3-.16-.6-.4-.75l-7.43-4.5c-.25-.15-.57-.15-.82 0-.24.17-.4.44-.4.76v12.38c0 .3.16.6.4.74l7.44 4.5c.13.07.26.1.4.1.15 0 .28-.03.4-.1zm-1.22-2.2l-5.8-3.5V116.2l5.8 3.52zM31.15 115.42c.24-.16.4-.45.4-.75V102.3c0-.32-.16-.6-.4-.75l-7.43-4.5c-.25-.15-.57-.15-.82 0-.24.16-.4.44-.4.75v12.38c0 .3.16.58.4.73l7.44 4.5c.13.08.26.13.4.13.15 0 .28-.03.4-.1zm-1.22-2.2l-5.8-3.52V99.28l5.8 3.5zM31.15 98.47c.24-.15.4-.42.4-.73v-12.4c0-.3-.16-.57-.4-.73l-7.43-4.48c-.25-.15-.57-.15-.82 0-.24.16-.4.42-.4.73v12.4c0 .3.16.58.4.73l7.44 4.5c.13.07.26.1.4.1.15 0 .28-.03.4-.1zm-1.22-2.2l-5.8-3.52V82.33l5.8 3.5zM31.15 81.54c.24-.16.4-.42.4-.73V68.44c0-.3-.16-.6-.4-.75l-7.43-4.5c-.25-.14-.57-.14-.82 0-.24.17-.4.45-.4.76v12.38c0 .3.16.57.4.73l7.44 4.5c.13.07.26.1.4.1.15 0 .28-.03.4-.1zm-1.22-2.2l-5.8-3.52V65.4l5.8 3.5zM42.8 139.4c.23-.17.4-.43.4-.74v-12.4c0-.3-.17-.57-.4-.73l-7.43-4.5c-.24-.14-.57-.14-.8 0-.26.17-.4.43-.4.74v12.4c0 .3.14.57.4.73l7.42 4.5c.1.07.24.1.4.1.12 0 .28-.05.4-.1zm-1.22-2.22l-5.8-3.5v-10.43l5.8 3.5zM42.8 122.46c.23-.16.4-.44.4-.75v-12.37c0-.3-.17-.6-.4-.75l-7.43-4.5c-.24-.14-.57-.14-.8 0-.26.17-.4.45-.4.76v12.38c0 .3.14.6.4.75l7.42 4.47c.1.08.24.13.4.13.12 0 .28-.04.4-.1zm-1.22-2.23l-5.8-3.5v-10.4l5.8 3.48zM42.8 105.5c.23-.15.4-.4.4-.72v-12.4c0-.3-.17-.57-.4-.73l-7.43-4.5c-.24-.14-.57-.14-.8 0-.26.17-.4.43-.4.74v12.4c0 .3.14.56.4.72l7.42 4.5c.1.07.24.1.4.1.12 0 .28-.03.4-.1zm-1.22-2.2l-5.8-3.5V89.36l5.8 3.5zM42.8 88.57c.23-.15.4-.43.4-.74V75.45c0-.3-.17-.58-.4-.73l-7.43-4.5c-.24-.15-.57-.15-.8 0-.26.16-.4.44-.4.75v12.4c0 .3.14.56.4.72l7.42 4.47c.1.08.24.1.4.1.12 0 .28-.02.4-.1zm-1.22-2.2l-5.8-3.5V72.42l5.8 3.5zM54.43 146.43c.25-.16.4-.44.4-.75v-12.4c0-.3-.15-.57-.4-.73l-7.44-4.5c-.25-.14-.6-.14-.82 0-.25.17-.4.43-.4.74v12.38c0 .3.15.6.4.74l7.44 4.5c.12.07.27.1.4.1.16 0 .3-.03.4-.1zm-1.2-2.2l-5.83-3.52v-10.43l5.82 3.5zM54.43 129.48c.25-.16.4-.44.4-.75v-12.38c0-.3-.15-.57-.4-.73l-7.44-4.5c-.25-.16-.6-.16-.82 0-.25.15-.4.43-.4.74v12.38c0 .3.15.6.4.75l7.44 4.48c.12.08.27.1.4.1.16 0 .3-.02.4-.1zm-1.2-2.2l-5.83-3.52v-10.42l5.82 3.5zM54.43 112.55c.25-.16.4-.44.4-.75V99.42c0-.3-.15-.6-.4-.75L47 94.17c-.25-.14-.6-.14-.82 0-.25.17-.4.43-.4.74v12.4c0 .32.15.58.4.74l7.44 4.5c.12.07.27.1.4.1.16 0 .3-.03.4-.1zm-1.2-2.23l-5.83-3.5V96.38l5.82 3.5zM54.43 95.6c.25-.16.4-.42.4-.73V82.5c0-.33-.15-.6-.4-.74L47 77.26c-.25-.17-.6-.17-.82 0-.25.15-.4.42-.4.74v12.38c0 .3.15.57.4.73l7.44 4.5c.12.07.27.12.4.12.16 0 .3-.05.4-.12zm-1.2-2.2l-5.83-3.52V79.46l5.82 3.5zM66.5 152.72v-12.4c0-.3-.16-.6-.4-.74l-7.45-4.5c-.25-.15-.57-.15-.82 0-.24.16-.4.44-.4.75v12.4c0 .3.16.57.4.73l7.45 4.5c.13.05.26.1.4.1.15 0 .3-.03.42-.1.24-.17.4-.43.4-.74zm-1.63-1.48l-5.82-3.5V137.3l5.82 3.52zM66.1 136.52c.24-.16.4-.42.4-.73v-12.4c0-.3-.16-.6-.4-.74l-7.45-4.5c-.25-.15-.57-.15-.82 0-.24.16-.4.43-.4.74v12.38c0 .3.16.6.4.75l7.45 4.5c.13.06.26.1.4.1.15 0 .3-.04.42-.1zm-1.23-2.2l-5.82-3.52v-10.43l5.82 3.52zM66.1 119.58c.24-.15.4-.43.4-.74v-12.38c0-.32-.16-.6-.4-.75l-7.45-4.48c-.25-.16-.57-.16-.82 0-.24.16-.4.42-.4.73v12.4c0 .3.16.6.4.74l7.45 4.48c.13.08.26.1.4.1.15 0 .3-.02.42-.1zm-1.23-2.2l-5.82-3.53v-10.42l5.82 3.5zM66.1 102.63c.24-.15.4-.42.4-.73V89.52c0-.3-.16-.57-.4-.73l-7.45-4.5c-.25-.17-.57-.17-.82 0-.24.14-.4.42-.4.73V97.4c0 .32.16.6.4.74l7.45 4.5c.13.07.26.12.4.12.15 0 .3-.05.42-.13zm-1.23-2.2l-5.82-3.5V86.48L64.87 90zM77.05 60.95c.12.08.26.1.4.1.15 0 .3-.02.4-.1l14.45-8.7c.24-.17.4-.43.4-.74V41.48c0-.3-.16-.57-.4-.73l-14.44-8.7c-.24-.17-.56-.17-.8 0l-14.44 8.7c-.25.16-.4.42-.4.73V51.5c0 .32.15.58.4.74zm-13.22-18l12.8 7.74v8.05L63.84 51zm14.44 7.74l12.8-7.75V51l-12.8 7.75zm-.82-1.5l-12.8-7.73 12.8-7.73 12.82 7.73z"/><path d="M431.93 235.8c.35-.23.62-.75.58-1.17-.03-.42-.37-.58-.73-.35-.36.22-.6.72-.57 1.15.04.42.37.6.73.37zM465.07 217.86l-68.85 41.53c-.25.14-.4.4-.4.72v57.33c0 .3.15.58.4.73.13.08.27.1.42.1.14 0 .27-.02.4-.1l68.84-41.42c.25-.15.4-.42.4-.73V218.6c0-.3-.15-.6-.4-.74-.26-.14-.56-.14-.8 0zm-.4 57.7l-67.22 40.43v-55.4l67.22-40.53z" fill="#0c7cba"/><path d="M529.96 316.52c.04-.9-.37-1.78-1.18-2.3l-53.02-31.55c-1.4-.9-2.74-1.3-3.92-1.4.04-.33.06-.65.04-.9l.07-68.13c.02-.32.04-3.16-1.2-4.38-.05-.03-.75-.68-1.84-.76-3.1-1.13-5.57.13-5.7.2l-69.27 41.77c-3.65 2.02-4.8 4.78-4.8 4.8-1.37 2.4-1.18 8.1-1.16 8.7v63.4c.02 1.07.8 3.16 3.53 3.76v2.77c0 .14.04 1.5 1.9 2.6 8.37 5.03 52 30.83 52.17 30.92.12.08 3.14 1.96 5.32 1.96h.02c.04.02.17.02.38.02.84 0 3.03-.26 6.88-2.43l4.1-2.38 62.1-38.5 1.82-1.08 2.28-1.36c.15-.1 1.5-.96 1.5-2.37v-3.38zm-2-.87c.3.2.48.6.38.92-.1.36-.54.62-1.1.94L497 336.28c-.5-.3-1.14-.34-1.66 0l-9.35 5.72c-.56.33-.85.97-.82 1.6l-23.72 14.7-4.06 2.38c-3.63 2.04-5.57 2.2-6.17 2.2H451c-1.52 0-3.84-1.25-4.62-1.75-.4-.23-42.67-25-52.8-31 0 0-.53-.27-.46-1 .03-.28.5-.65.77-.8L468 283.9c.14-.1 3.18-2.2 6.94.23zm-31.53 22.57l-9.34 5.73c-.24.15-.54.07-.67-.17-.13-.23-.05-.55.17-.68l9.35-5.74c.07-.05.15-.08.24-.08.16 0 .32.1.4.26.13.23.06.55-.17.68zm-26.1-126l-.06 68.2c.02.34-.02.75-.02.9-1.85.25-3.05 1.1-3.1 1.16l-74.03 44.36c-.08.05-.57.33-.98.8-.03-.16-.04-.33-.04-.5v-63.57c-.06-1.6-.03-6.12.97-7.86 0 0 1.12-2.35 4.16-4.1l68.82-41.45 2-1.25c.9-.4 1.54.16 1.6.2.5.5.7 2.1.68 3.1zm-80.75 113.73v-63.42c-.06-1.6-.03-6.12.98-7.9.02 0 1-2.35 4.16-4.1l69.24-41.73s.7-.35 1.78-.45l-69.3 41.77c-3.52 2-4.78 4.77-4.8 4.8-1.38 2.4-1.2 8.08-1.16 8.68v63.9c-.8-.6-.9-1.43-.9-1.55zm138.1-5.17c-.78.46-1.53.93-2.3 1.38-.57.36-1.18.7-1.8 1.1l-62.12 38.47-4.06 2.37c-3.63 2.04-5.57 2.2-6.17 2.2H451c-1.52 0-3.84-1.25-4.62-1.74-.37-.2-43.68-25.8-52.2-30.9-.96-.6-1.07-1.14-1.07-1.14v-.73c10.42 6.18 52.25 30.7 52.47 30.8.12.1 3.14 1.95 5.32 1.95h.02c.04 0 .17.03.38.03.84 0 3.03-.26 6.88-2.43l4.1-2.38 23.73-14.7c.26.15.55.2.84.2.3 0 .6-.07.86-.23l9.36-5.74c.55-.34.84-.97.8-1.6l30.28-18.76.22-.15v1.1c0 .33-.47.75-.68.88z" fill="#0c7cba"/><path d="M497.84 328.53v-.02l-12.26-7.33c-2.3-1.23-4.17-.24-4.27-.18l-20.63 12.58c-.1.07-1.15.62-1.2 1.67-.05.7.34 1.32 1.17 1.87l11.95 7.1c.06.04 1.14.7 2.64.7.75 0 1.62-.17 2.5-.67l19.73-11.8c.26-.15 1.5-.9 1.54-2.1.02-.5-.18-1.2-1.16-1.82zm-1.15 2.45l-19.76 11.8c-1.77 1-3.47.02-3.54-.02l-11.92-7.1c-.27-.16-.37-.3-.4-.3.06-.1.2-.2.36-.28l20.65-12.6c.05-.03 1.22-.6 2.7.18l12.2 7.3c.33.2.38.34.38.34 0 .13-.34.47-.7.68zM436.62 342.3l-25.13-15.2c-.27-.16-.57-.16-.82 0l-7.73 4.7c-.25.13-.4.4-.4.72 0 .3.16.58.42.72l25.13 15.2c.13.08.26.12.4.12s.28-.04.4-.12l7.73-4.68c.25-.15.4-.44.4-.75 0-.3-.15-.57-.4-.7zm-8.12 4.44l-23.53-14.22 6.12-3.72 23.5 14.23zM469.56 292.14c0 .3.14.58.4.73l25.13 15.2c.12.08.26.1.4.1.15 0 .28-.02.4-.1l7.73-4.7c.25-.15.4-.43.4-.73s-.15-.6-.4-.73l-25.13-15.2c-.26-.14-.57-.14-.82 0l-7.72 4.7c-.26.14-.4.43-.4.74zm8.52-3.73l23.53 14.24-6.1 3.7-23.52-14.2zM494.65 309.78c0-.27-.07-.8-.7-1.18l-24.56-14.78c-1.67-1-3.22-.1-3.3-.06l-50.4 30.4c-.76.45-1.14 1-1.14 1.63 0 .7.48 1.22.9 1.47l24.15 14.63c.32.2.87.43 1.53.43.43 0 .88-.08 1.35-.34l51.33-31c.16-.07.84-.47.85-1.22zM441.7 340.5c-.63.34-1.2 0-1.25-.05l-24.18-14.64h-.02c.06-.06.14-.1.26-.17l50.4-30.4c.05 0 .84-.44 1.7.07l24.05 14.47z" fill="#0c7cba"/><path d="M127.53 95.67h110.92c11.05 0 20 8.96 20 20V293.3c0 11.03 8.96 20 20 20H392.1" stroke="#0c7cba" stroke-width="2" fill="none"/><path d="M125.1 96.67h-.57v-2h.57z" fill="#0c7cba"/></svg>