<?xml version="1.0" standalone="no"?>
<!DOCTYPE svg PUBLIC "-//W3C//DTD SVG 20010904//EN"
 "http://www.w3.org/TR/2001/REC-SVG-20010904/DTD/svg10.dtd">
<svg version="1.0" xmlns="http://www.w3.org/2000/svg"
 width="700.000000pt" height="700.000000pt" viewBox="0 0 700.000000 700.000000"
 preserveAspectRatio="xMidYMid meet">
<metadata>
Created by potrace 1.11, written by Peter Selinger 2001-2013
</metadata>
<g transform="translate(0.000000,700.000000) scale(0.100000,-0.100000)"
fill="#000000" stroke="none">
<path d="M0 3500 l0 -3500 3500 0 3500 0 0 3500 0 3500 -3500 0 -3500 0 0
-3500z m2345 3039 c306 -36 559 -157 750 -360 111 -118 200 -270 247 -422 l21
-69 71 69 c158 154 301 232 533 290 99 25 124 28 303 27 176 0 206 -2 307 -26
253 -60 457 -179 551 -320 34 -51 27 -117 -15 -160 -28 -27 -70 -39 -579 -165
-456 -113 -545 -138 -524 -146 160 -64 391 -208 532 -331 286 -250 460 -541
536 -890 22 -106 26 -144 26 -311 0 -133 -5 -218 -17 -285 -23 -132 -55 -170
-145 -170 -39 0 -48 5 -111 68 -38 37 -388 405 -776 817 -389 413 -725 768
-745 789 l-38 39 -48 -74 c-192 -296 -325 -699 -381 -1154 -20 -168 -23 -606
-5 -760 110 -912 510 -1635 1182 -2138 88 -66 134 -87 188 -87 61 0 97 17 248
117 78 51 167 102 199 113 86 29 177 35 258 16 85 -20 123 -39 271 -139 136
-91 170 -107 224 -107 61 0 98 17 226 102 206 139 314 174 454 149 91 -16 144
-42 306 -149 118 -78 144 -91 202 -101 79 -14 112 -34 130 -78 19 -43 18 -75
-3 -111 -26 -45 -66 -64 -132 -63 -97 1 -176 33 -317 127 -183 122 -194 127
-273 122 -64 -3 -70 -6 -221 -105 -183 -119 -248 -145 -365 -145 -123 1 -188
26 -365 142 -84 55 -164 103 -177 106 -13 4 -50 4 -82 2 -55 -4 -70 -11 -212
-105 -170 -110 -209 -129 -305 -142 -135 -20 -250 17 -397 127 -755 560 -1208
1396 -1297 2392 -13 147 -13 482 0 630 47 525 204 1033 426 1370 30 47 57 88
60 91 2 4 -15 19 -37 34 l-41 27 -25 -24 c-14 -13 -64 -75 -112 -138 -561
-744 -807 -1866 -661 -3020 57 -445 195 -951 348 -1269 44 -93 45 -96 31 -135
-8 -21 -26 -48 -40 -58 -25 -19 -54 -20 -1064 -18 -1146 1 -1080 -3 -1112 64
-20 43 -11 95 23 127 l26 24 925 3 c873 2 925 3 920 20 -3 9 -28 78 -55 152
-303 815 -379 1821 -206 2705 106 542 293 1011 569 1430 11 16 16 27 10 23
-44 -26 -1840 -768 -1861 -768 -41 0 -93 30 -111 63 -23 45 -12 121 36 266 86
257 211 455 401 634 258 243 649 408 1025 434 49 3 95 8 102 12 7 3 -127 97
-303 211 -174 113 -327 218 -340 233 -19 22 -24 40 -24 80 0 47 3 54 44 91 60
56 203 130 314 161 177 51 327 64 497 44z"/>
<path d="M2050 6284 c-14 -2 -62 -14 -108 -26 -67 -17 -81 -24 -70 -33 13 -13
1198 -785 1257 -820 12 -7 13 5 8 74 -30 383 -273 670 -660 777 -76 21 -118
26 -247 29 -85 2 -166 2 -180 -1z"/>
<path d="M4105 5816 c-153 -26 -265 -68 -375 -141 -87 -58 -211 -185 -250
-256 -7 -12 46 -2 243 46 836 205 1017 250 1017 256 0 14 -160 69 -259 89 -89
18 -287 21 -376 6z"/>
<path d="M2020 5449 c-489 -63 -876 -315 -1070 -697 -24 -46 -41 -84 -39 -86
6 -6 1729 716 1729 725 0 10 -143 46 -233 58 -90 13 -292 12 -387 0z"/>
<path d="M3526 5086 c91 -103 1319 -1396 1327 -1396 11 0 0 156 -19 265 -70
414 -378 796 -820 1019 -158 80 -307 126 -483 151 l-43 6 38 -45z"/>
</g>
</svg>
