<?xml version="1.0" standalone="no"?>
<!DOCTYPE svg PUBLIC "-//W3C//DTD SVG 20010904//EN"
 "http://www.w3.org/TR/2001/REC-SVG-20010904/DTD/svg10.dtd">
<svg version="1.0" xmlns="http://www.w3.org/2000/svg"
 width="700.000000pt" height="700.000000pt" viewBox="0 0 700.000000 700.000000"
 preserveAspectRatio="xMidYMid meet">
<metadata>
Created by potrace 1.11, written by Peter Selinger 2001-2013
</metadata>
<g transform="translate(0.000000,700.000000) scale(0.100000,-0.100000)"
fill="#000000" stroke="none">
<path d="M0 3500 l0 -3500 3500 0 3500 0 -1 1263 c0 715 -4 1250 -9 1233 -13
-42 -49 -90 -84 -111 -25 -16 -57 -20 -166 -25 l-135 -5 -5 -350 c-6 -383 -7
-386 -71 -486 -83 -129 -223 -209 -371 -211 -101 -1 -165 21 -289 102 -34 22
-68 40 -76 40 -8 0 -41 -18 -74 -41 -116 -78 -162 -94 -274 -94 -91 0 -106 3
-165 31 -36 17 -89 48 -119 68 -29 20 -60 36 -68 36 -9 0 -41 -18 -73 -39
-198 -135 -346 -138 -540 -11 -42 28 -83 50 -91 50 -8 0 -52 -25 -98 -55 -107
-70 -169 -89 -275 -83 -92 5 -154 29 -250 96 -33 23 -66 42 -75 42 -9 0 -47
-21 -84 -46 -38 -25 -99 -57 -135 -71 -138 -52 -330 -11 -395 84 -14 21 -29
49 -32 63 -3 14 -33 47 -66 75 -141 116 -309 328 -417 525 -254 468 -311 1104
-147 1646 23 76 -65 -138 -100 -241 -79 -236 -113 -444 -122 -730 -11 -351 32
-654 138 -970 34 -104 44 -123 72 -140 120 -76 108 -253 -22 -318 l-46 -22
-765 -3 c-528 -2 -786 1 -832 8 -187 32 -328 171 -358 356 -14 83 -13 3524 0
3595 34 181 176 320 356 349 35 6 408 10 901 10 l843 0 4 23 c3 12 12 62 21
111 41 219 117 356 234 420 112 60 347 81 852 73 539 -8 618 -24 732 -146 76
-81 123 -196 154 -376 l17 -105 541 0 c592 0 615 -2 667 -57 45 -48 61 -91 56
-149 -6 -64 -37 -114 -93 -146 l-40 -23 -2424 -3 c-1761 -1 -2428 -5 -2438
-13 -11 -10 -13 -312 -13 -1770 0 -1728 0 -1758 19 -1769 13 -6 241 -10 670
-10 l650 0 -20 58 c-45 130 -96 363 -121 557 -17 134 -17 617 0 750 40 302
124 590 240 824 l49 99 -31 -13 c-17 -7 -226 -95 -464 -194 -279 -117 -445
-181 -467 -181 -57 0 -92 51 -94 136 -2 79 66 252 142 364 138 203 388 354
659 401 l67 11 -137 90 c-162 106 -158 103 -194 152 -39 54 -38 104 3 151 36
41 144 96 239 121 87 23 270 23 364 0 88 -21 219 -82 287 -134 92 -70 178
-189 221 -304 l20 -57 47 38 c63 53 141 95 236 127 72 25 94 27 230 28 172 1
255 -17 377 -81 79 -41 164 -122 173 -165 17 -74 -25 -137 -103 -157 -20 -6
-129 -33 -242 -61 -113 -28 -211 -53 -218 -55 -8 -3 24 -30 75 -64 348 -229
520 -593 462 -974 -17 -115 -46 -148 -141 -162 -40 -6 -48 -4 -86 27 -22 18
-226 230 -453 471 -226 240 -415 437 -419 437 -13 0 -87 -162 -118 -261 -144
-449 -111 -970 88 -1387 87 -183 194 -329 348 -479 74 -72 90 -83 121 -83 20
-1 54 -7 75 -15 39 -14 39 -14 116 35 104 67 158 90 233 97 108 10 185 -16
319 -105 l68 -45 68 45 c134 90 211 115 319 105 75 -7 145 -37 244 -103 l69
-46 38 24 c20 12 58 37 84 54 73 50 141 69 238 69 74 0 93 -4 150 -31 36 -17
94 -49 129 -72 71 -47 64 -47 163 19 95 65 150 83 253 83 106 0 159 -19 273
-95 40 -27 80 -49 87 -49 8 0 27 11 42 24 l28 24 0 314 0 313 -1085 5 -1085 5
-37 23 c-55 34 -83 85 -82 152 0 32 7 68 17 87 9 17 537 679 1172 1470 789
981 1168 1445 1193 1460 91 55 196 30 257 -62 20 -30 20 -50 23 -1397 l2
-1368 119 0 c95 0 128 -4 163 -19 55 -23 95 -70 103 -119 4 -20 8 -41 10 -47
2 -5 4 995 4 2223 l1 2232 -3500 0 -3500 0 0 -3500z"/>
<path d="M3220 6023 c-151 -6 -325 -25 -355 -37 -68 -29 -122 -144 -150 -323
l-7 -43 780 0 780 0 -15 78 c-26 145 -68 243 -116 275 -13 9 -51 20 -83 26
-132 23 -569 36 -834 24z"/>
<path d="M5368 3802 l-857 -1067 856 -3 c471 -1 858 -1 860 1 2 2 2 483 1
1069 l-3 1066 -857 -1066z"/>
<path d="M2012 4788 c-24 -5 -42 -13 -40 -18 6 -18 453 -302 507 -322 31 -12
72 -31 91 -43 19 -12 46 -24 58 -28 26 -6 26 -6 -3 98 -55 193 -255 326 -485
324 -47 -1 -104 -5 -128 -11z"/>
<path d="M3273 4479 c-103 -17 -198 -66 -267 -137 -35 -37 -36 -41 -18 -46 16
-5 542 117 602 140 22 9 -19 23 -110 40 -84 15 -131 16 -207 3z"/>
<path d="M2035 4264 c-11 -3 -56 -14 -100 -25 -139 -35 -237 -91 -340 -194
-78 -78 -156 -187 -143 -200 2 -3 209 81 459 186 249 105 463 194 474 199 17
6 14 9 -20 20 -41 12 -294 23 -330 14z"/>
<path d="M2996 3977 c49 -51 219 -231 379 -400 159 -169 293 -307 298 -307 5
0 6 30 2 68 -24 244 -147 444 -364 591 -117 80 -277 141 -366 141 l-37 0 88
-93z"/>
</g>
</svg>
