<?xml version="1.0" standalone="no"?>
<!DOCTYPE svg PUBLIC "-//W3C//DTD SVG 20010904//EN"
 "http://www.w3.org/TR/2001/REC-SVG-20010904/DTD/svg10.dtd">
<svg version="1.0" xmlns="http://www.w3.org/2000/svg"
 width="700.000000pt" height="700.000000pt" viewBox="0 0 700.000000 700.000000"
 preserveAspectRatio="xMidYMid meet">
<metadata>
Created by potrace 1.11, written by Peter Selinger 2001-2013
</metadata>
<g transform="translate(0.000000,700.000000) scale(0.100000,-0.100000)"
fill="#000000" stroke="none">
<path d="M3107 6175 c-1 -2 -72 -5 -157 -9 -269 -11 -371 -25 -447 -62 -116
-56 -191 -192 -237 -429 -14 -76 -19 -106 -32 -220 -4 -27 -8 -53 -11 -57 -2
-5 -132 -8 -288 -8 l-284 0 0 68 c0 77 -17 125 -58 164 -55 52 -84 58 -306 58
-196 0 -205 -1 -253 -25 -77 -39 -112 -108 -109 -217 l1 -47 -345 -3 c-337 -3
-347 -4 -396 -26 -63 -29 -119 -83 -153 -147 l-27 -50 0 -1995 0 -1995 24 -48
c33 -67 91 -123 159 -154 l57 -26 864 -1 c572 -1 872 2 885 9 32 16 30 43 -12
145 -87 210 -152 446 -191 695 -28 176 -35 277 -36 495 0 219 8 331 35 494 12
67 23 136 26 155 11 69 85 314 124 414 83 208 220 444 333 572 l44 49 51 -33
c29 -18 52 -35 52 -37 0 -2 -20 -35 -45 -73 -68 -105 -132 -240 -175 -370 -22
-64 -41 -127 -44 -141 -2 -14 -9 -45 -15 -70 -19 -87 -31 -162 -47 -315 -8
-76 -5 -347 5 -423 6 -43 13 -99 16 -127 9 -73 41 -216 71 -314 104 -343 279
-630 536 -876 290 -279 387 -305 605 -164 59 38 118 72 131 76 56 14 111 -4
205 -65 115 -76 154 -93 220 -93 88 0 108 8 244 99 69 46 93 56 137 60 59 5
95 -10 193 -79 103 -72 181 -94 268 -75 11 2 25 5 31 5 7 1 53 28 102 60 122
81 144 91 191 91 53 0 83 -12 166 -69 114 -78 143 -90 221 -92 70 -2 106 12
219 85 107 70 111 71 175 71 64 0 66 -1 173 -72 102 -69 149 -87 222 -87 108
0 244 84 294 182 43 86 44 99 45 546 l1 430 204 1 c182 1 205 3 216 19 7 9 12
25 10 34 -2 9 -4 20 -4 23 -3 18 -66 25 -234 24 -160 0 -188 2 -191 15 -2 8
-4 704 -3 1545 0 842 -3 1542 -6 1557 -9 33 -49 47 -73 27 -9 -7 -167 -202
-353 -434 -185 -231 -338 -422 -342 -425 -5 -5 -158 -196 -804 -1000 -126
-157 -310 -386 -410 -510 -99 -124 -273 -340 -385 -480 -113 -140 -207 -257
-210 -260 -24 -21 -50 -67 -50 -85 0 -52 -59 -50 1274 -50 682 0 1246 -3 1251
-7 6 -4 10 -157 9 -430 -2 -460 -2 -457 -59 -533 -36 -46 -117 -85 -181 -86
-56 -2 -84 10 -190 82 -95 64 -129 77 -205 77 -78 0 -108 -12 -226 -90 -145
-95 -177 -95 -333 5 -115 74 -157 90 -234 86 -67 -3 -101 -18 -210 -92 -79
-53 -98 -62 -147 -65 -63 -5 -87 5 -189 76 -91 63 -134 79 -210 80 -78 0 -112
-13 -239 -96 -128 -85 -166 -86 -286 -9 -130 83 -175 103 -235 106 -79 3 -134
-18 -241 -89 -82 -56 -101 -65 -150 -68 -68 -5 -102 11 -214 101 -77 62 -225
210 -293 292 -100 122 -224 339 -290 506 -63 159 -112 358 -127 514 -4 39 -9
73 -11 77 -13 21 -2 477 11 498 2 3 6 30 10 60 25 224 161 585 269 715 l25 30
37 -40 c36 -38 307 -325 369 -390 31 -32 280 -296 348 -369 314 -334 327 -345
362 -306 30 34 46 275 26 390 -18 95 -21 108 -47 180 -88 244 -288 461 -549
594 -49 25 -115 54 -145 64 l-55 19 50 12 c68 16 61 14 268 66 100 25 191 47
202 49 11 2 58 14 105 26 47 12 92 23 100 25 80 17 110 35 110 67 0 31 -86
114 -158 151 -113 59 -225 87 -358 89 -247 5 -451 -84 -596 -259 l-27 -33 -15
54 c-9 30 -16 57 -16 61 0 15 -62 139 -89 178 -128 183 -358 298 -601 300
-142 1 -276 -33 -373 -94 -60 -38 -67 -46 -67 -77 0 -22 48 -55 428 -301 45
-30 82 -56 82 -60 0 -3 -37 -6 -83 -7 -80 0 -150 -7 -212 -19 -16 -3 -43 -8
-60 -11 -107 -21 -288 -108 -395 -189 -161 -124 -285 -311 -336 -513 l-19 -74
23 -18 c29 -24 45 -20 177 40 50 23 1148 480 1153 480 3 0 -3 -10 -14 -22 -55
-64 -166 -248 -228 -381 -100 -214 -195 -548 -221 -772 -4 -33 -9 -69 -11 -80
-25 -120 -24 -584 1 -765 2 -19 7 -55 10 -80 4 -38 16 -113 20 -130 1 -3 5
-25 9 -50 24 -137 123 -477 161 -550 8 -16 15 -35 15 -42 0 -11 -148 -13 -812
-13 l-813 1 -47 22 c-50 25 -88 68 -106 121 -9 25 -12 525 -12 1985 0 1878 1
1953 19 1991 23 49 64 89 113 109 33 14 316 16 2707 16 l2671 0 14 23 c11 17
14 47 12 123 -2 89 -5 106 -29 146 -15 26 -44 57 -64 70 -37 22 -44 23 -268
23 -261 0 -273 -3 -329 -83 -25 -35 -30 -53 -34 -122 l-5 -80 -283 0 c-156 0
-285 3 -285 8 -1 4 -3 16 -4 27 -2 11 -6 36 -8 55 -3 19 -9 58 -12 85 -29 227
-86 384 -171 475 -79 84 -154 104 -474 126 -72 5 -558 12 -563 9z m570 -110
c162 -9 240 -18 306 -36 77 -20 143 -108 186 -245 23 -72 28 -101 66 -361 l5
-33 -48 0 -49 0 -18 83 c-67 296 -127 348 -380 324 -44 -5 -96 -10 -115 -13
-142 -20 -492 -25 -606 -9 -27 3 -67 8 -89 11 -22 2 -67 7 -100 10 -84 10
-153 8 -201 -5 -72 -19 -136 -109 -159 -221 -2 -8 -15 -52 -30 -97 l-26 -83
-50 0 c-46 0 -49 1 -44 23 3 12 12 72 21 132 42 298 114 446 234 483 68 21
140 28 365 38 83 4 151 7 152 8 6 4 481 -3 580 -9z m-842 -370 c33 -3 74 -8
90 -10 227 -30 506 -25 841 14 73 8 138 5 164 -9 11 -6 27 -25 36 -42 16 -30
55 -160 69 -225 l7 -33 -756 0 c-547 0 -756 3 -756 11 0 24 71 235 86 258 9
12 30 29 47 36 30 13 52 13 172 0z m-1319 -139 c22 -18 29 -35 34 -77 10 -97
34 -89 -264 -89 l-263 0 2 63 c3 67 16 100 50 116 11 5 108 10 217 10 193 1
197 1 224 -23z m3968 13 c35 -16 57 -69 55 -129 l-3 -50 -263 0 -263 0 0 58
c0 66 15 101 50 119 33 17 388 18 424 2z m980 -1885 c1 -967 -2 -1468 -9
-1472 -5 -4 -540 -7 -1188 -7 -929 0 -1176 2 -1173 12 4 10 388 494 421 529 5
6 24 28 40 49 27 35 108 136 565 705 69 85 132 164 142 175 9 11 166 207 349
435 183 228 338 420 344 426 5 7 120 150 254 318 135 168 247 303 250 301 2
-3 5 -665 5 -1471z m-4465 965 c122 -33 197 -76 282 -159 111 -110 164 -230
175 -404 5 -65 3 -78 -8 -73 -8 3 -91 55 -184 116 -93 60 -292 190 -443 289
-151 98 -276 183 -278 188 -2 6 20 19 49 29 133 45 278 50 407 14z m1271 -284
c100 -14 283 -87 263 -106 -10 -8 -946 -239 -951 -234 -7 6 65 118 97 151 62
65 112 100 222 155 26 12 97 30 148 36 25 3 47 6 48 7 5 5 120 -2 173 -9z
m-1217 -254 c88 -24 137 -50 115 -62 -11 -6 -765 -322 -918 -384 -30 -13 -115
-48 -187 -78 -73 -31 -133 -51 -133 -45 0 19 69 158 105 211 43 64 85 110 150
163 58 48 180 124 198 124 7 0 17 4 22 8 28 25 193 70 285 79 30 3 57 7 59 9
13 11 237 -7 304 -25z m792 -227 c215 -70 416 -211 540 -379 132 -177 182
-345 176 -585 l-1 -44 -41 44 c-37 40 -248 264 -369 391 -25 26 -76 80 -114
120 -38 41 -135 143 -215 228 -193 204 -203 214 -226 241 l-20 23 95 -6 c61
-4 124 -16 175 -33z"/>
</g>
</svg>
