<?xml version="1.0" standalone="no"?>
<!DOCTYPE svg PUBLIC "-//W3C//DTD SVG 20010904//EN"
 "http://www.w3.org/TR/2001/REC-SVG-20010904/DTD/svg10.dtd">
<svg version="1.0" xmlns="http://www.w3.org/2000/svg"
 width="700.000000pt" height="700.000000pt" viewBox="0 0 700.000000 700.000000"
 preserveAspectRatio="xMidYMid meet">
<metadata>
Created by potrace 1.11, written by Peter Selinger 2001-2013
</metadata>
<g transform="translate(0.000000,700.000000) scale(0.100000,-0.100000)"
fill="#000000" stroke="none">
<path d="M0 3500 l0 -3500 3500 0 3500 0 0 3500 0 3500 -3500 0 -3500 0 0
-3500z m2359 3080 c297 -38 535 -147 734 -339 117 -113 215 -263 267 -409 l23
-62 51 48 c139 130 313 220 526 273 84 21 119 23 305 24 169 0 227 -4 295 -19
191 -42 360 -118 494 -223 114 -89 133 -109 149 -158 14 -39 14 -61 1 -122 -6
-29 -59 -90 -96 -109 -16 -8 -230 -64 -476 -125 -246 -60 -454 -112 -462 -115
-10 -3 4 -16 40 -36 489 -273 807 -682 912 -1172 17 -82 21 -135 22 -286 1
-385 -5 -433 -57 -488 -68 -74 -186 -78 -264 -9 -20 18 -374 389 -786 825
-412 435 -752 792 -756 792 -4 0 -26 -33 -49 -72 -339 -595 -436 -1477 -247
-2248 129 -523 384 -986 745 -1350 123 -124 277 -256 375 -322 55 -37 64 -40
115 -36 49 4 68 13 175 85 215 144 282 168 444 161 139 -7 183 -24 372 -149
144 -94 154 -99 204 -99 50 0 61 5 181 86 218 147 278 169 443 162 137 -6 179
-22 370 -147 125 -81 160 -100 202 -105 157 -21 230 -143 171 -286 -35 -87
-157 -121 -297 -85 -83 22 -133 47 -259 133 -138 94 -186 116 -235 107 -20 -4
-92 -44 -164 -91 -218 -144 -290 -170 -442 -161 -126 7 -189 33 -364 147 -84
54 -165 101 -181 105 -47 10 -90 -8 -216 -92 -193 -129 -277 -163 -407 -163
-178 0 -291 58 -562 291 -613 525 -1007 1265 -1119 2100 -93 691 7 1422 271
1975 60 127 61 128 23 74 -203 -291 -382 -706 -484 -1122 -89 -359 -128 -703
-128 -1113 0 -455 48 -839 158 -1255 69 -261 188 -585 232 -634 77 -84 64
-205 -31 -280 l-39 -31 -1064 -3 c-1034 -2 -1065 -2 -1102 17 -78 40 -118 109
-110 191 6 64 47 123 102 150 42 20 58 20 914 20 480 0 872 2 872 4 0 2 -12
35 -26 72 -104 278 -209 720 -253 1069 -61 487 -54 1037 20 1495 79 498 232
960 446 1354 30 54 52 100 51 102 -2 2 -370 -150 -818 -338 -735 -307 -820
-341 -867 -340 -55 1 -115 26 -145 58 -51 57 -60 161 -19 228 10 17 33 74 51
126 88 257 219 463 410 643 234 220 565 377 905 428 44 6 84 15 88 19 5 4 -15
22 -43 39 -204 126 -478 315 -496 344 -66 102 -20 241 94 283 26 10 65 28 87
40 185 104 478 154 724 124z"/>
<path d="M2052 6240 c-29 -4 -55 -10 -57 -12 -3 -2 242 -165 543 -361 375
-244 548 -352 550 -342 7 32 -40 185 -85 275 -40 80 -62 110 -143 191 -81 81
-110 103 -198 148 -142 72 -260 102 -427 106 -71 2 -154 0 -183 -5z"/>
<path d="M4162 5780 c-178 -20 -362 -93 -473 -187 -59 -51 -99 -96 -77 -88 7
2 224 56 482 120 258 63 471 117 473 119 2 2 -34 10 -79 19 -107 21 -234 28
-326 17z"/>
<path d="M2075 5413 c-87 -6 -259 -42 -356 -74 -205 -68 -367 -167 -515 -314
-87 -86 -200 -232 -189 -244 5 -4 1446 597 1458 608 21 21 -234 36 -398 24z"/>
<path d="M3652 5052 c6 -15 1151 -1222 1155 -1218 8 8 -27 186 -53 267 -36
115 -120 277 -199 380 -179 238 -484 452 -785 548 -97 32 -124 37 -118 23z"/>
</g>
</svg>
