<svg version="1" xmlns="http://www.w3.org/2000/svg" width="933.333" height="933.333" viewBox="0 0 700.000000 700.000000"><path d="M323.8 138.5c-.2.2-5.5.6-11.8.9-19.2 1.1-26.2 3.1-32.7 9.6-7.2 7.1-12.5 23.2-14.9 45.2-.3 2.9-.7 5.8-.9 6.4-.4 1.3-45.2 1.7-46 .5-.2-.4-.5-3.3-.6-6.5-.2-4.5-.9-6.6-3-9.5-4.2-5.9-7-6.6-27-6.6-17 0-17.7.1-21.1 2.5-4.9 3.3-6.8 6.9-7.3 13.5-.2 3-.6 5.9-.9 6.4-.3.5-12.6.9-27.3.9-24.5 0-27.2.2-31.3 2-5.7 2.5-10.7 7.5-13.4 13.2-2 4.5-2 5.1-2.1 163.3 0 173.5-.3 164.6 5.6 172 1.4 1.8 5 4.5 8 6.2l5.4 2.9 70.5.1c38.8.1 71.3-.2 72.3-.7 2.4-1.2 2.2-3.4-1.4-11.9-9.1-21.8-15.8-49.9-17.6-73.8-1.3-16.3-.5-54.2 1.1-57 .2-.3.6-2.9 1-5.6.7-6 .8-6.6 3.5-17.7 4.6-19.3 13-40.5 21.8-55 5.2-8.4 15.2-21.8 16.9-22.5.7-.2 3.1.8 5.3 2.3 4.1 2.7 4.1 2.7 2.3 4.8-2.9 3.2-8.6 13.3-12 21.1-18.7 43.3-18.2 101.2 1.4 144.3 6.9 15.1 16.8 31.1 24.7 39.9 12.5 13.8 27.8 27 34.6 29.9 4.7 2 12.7 2 17.3 0 2-.9 6.2-3.4 9.3-5.5 11.9-8.4 14.9-8.1 30.7 2.5 2.6 1.8 6.8 3.7 9.2 4.2 7.8 1.7 11.4.5 26.9-9.1 8-4.9 11.9-4.6 21.4 1.6 11 7.1 13 7.9 19.3 7.9 6 0 10.9-1.9 18-7.1 10.1-7.3 14.9-7.5 24.9-1.1 16.8 10.9 22.8 11 38.1 1 11.7-7.7 15.3-7.6 26.9.4 11.2 7.7 19.8 8.9 29.5 4.2 6.3-3.1 11-8 13.9-14.5 2-4.4 2.1-6.5 2.1-40.3.1-31.1.3-35.8 1.6-35.9.8 0 8.4-.1 16.8-.2 12.4-.2 15.5-.5 16.2-1.7 1.3-2 1.2-2.3-.4-4.5-1.3-1.8-2.8-2-17.5-1.9-8.9 0-16.2-.2-16.2-.5-.1-.3-.2-57.2-.3-126.3-.1-110.4-.3-125.9-1.6-127.2-2.5-2.5-5.2-.9-11 6.6-3 3.9-6 7.6-6.5 8.2-.6.6-5.5 6.7-11 13.6-28 35-67 83.6-67.5 84-.8.8-40.1 49.7-43 53.5-1.4 1.8-13.5 17-27 33.7-50.9 63.2-47.4 58.3-44.6 61 1.2 1.3 15.4 1.5 100.3 1.6 54.3 0 99.9.1 101.3.1l2.5.1-.1 34.7c-.1 29.2-.3 35.4-1.7 38.3-3.4 7.7-9.8 12-18 12-3.2 0-5.8-.9-10.3-3.6-12.1-7.5-14.5-8.6-19.8-9.1-5.8-.6-12 1.5-18 6-10 7.5-15.9 8.5-23.5 4.1-2.5-1.5-5.3-3.2-6.1-3.9-5.7-4.8-14.6-7.4-21.3-6.1-1.9.3-7.6 3.3-12.7 6.6-12.6 8.1-15.1 8.1-27.2.4-4.8-3-10.2-6-12-6.5-7.6-2.1-14.1-.4-24.1 6.4-10.9 7.4-14.6 7.6-24.2 1.5-10.4-6.5-13.7-8-18.9-8.5-6.1-.6-10.6 1.2-22.5 8.7-8.8 5.5-12.7 5.5-21.2-.2-9.8-6.5-28.3-25.7-36.1-37.3-24.4-36.5-33.6-83.2-25.4-128.1 2.2-11.9 2.3-12.4 5.7-22.5 3.4-10.4 9-22.3 14-29.5l3.2-4.7 6.5 6.9c5.4 5.7 22.5 23.9 36.7 38.9 13.3 14.1 33.9 35.8 38.1 40.2 8.9 9.4 11.1 6.8 11.9-13.7.9-23.5-8.1-44.3-26.5-61.3-10-9.3-20-15.5-32.2-20.1l-5.8-2.2 27.8-6.8c36.8-9 38.6-9.6 39-12.3.5-3.1-5.6-9.4-12.5-13.1-8.3-4.4-18.3-6.8-29.3-7.1-17.5-.4-32.2 5.2-43.6 16.6-3.5 3.5-6.5 6.3-6.8 6.3-.4 0-.6-1-.6-2.3-.1-4-5.5-16.1-9.8-22-10.4-14-28.2-22.6-47.2-22.9-9.3-.1-14.7.7-21.9 3.4-10.5 3.9-15.9 8.9-13.4 12.3.5.6 10 7 21.2 14.3l20.3 13.2-6.3.1c-10.9.2-14.4.7-23.6 2.9-29.2 7.3-50 26.6-58.2 54.3-1.8 6.2-2 8.1-1.1 9.2 2.4 2.9-.4 3.9 56.5-20 45.2-18.9 51.6-21.5 50.8-20.2-.3.7-2.3 3.5-4.3 6.2-9.3 12.7-19.9 35.9-25.3 55.6-6.7 24-9 40.9-9.1 66.4-.1 28.2 1.8 45.5 7.9 69.6 2.4 9.2 8.8 28.6 10.6 32.1.6 1 .4 1.7-.4 2-.6.2-30.3.4-65.8.3-59.5 0-64.9-.2-68.5-1.8-4.6-2.1-8.4-7.2-9.3-12.5-.4-2-.7-74.1-.6-160.2V222.5l2.3-3.7c1.3-2.1 3.8-4.8 5.5-6l3.2-2.3 217.8-.5c192.1-.4 217.9-.7 218.7-2 .5-.8.8-5.5.6-10.3-.5-10-2.4-14.1-8.5-17.3-3-1.7-5.7-1.9-21-1.9-14.8 0-18.1.3-20.8 1.7-5.1 2.8-7.6 7.3-8.2 14.7l-.6 6.6h-46l-.7-5c-1.5-11.7-2-14.4-3.4-21.5-3.1-15.3-9.2-25.9-17.4-30.4-4.7-2.6-11.5-4-24-5.2-7.2-.6-64.6-1.4-65.2-.9zm62.2 8.9c13.9 1.2 17.5 1.8 21.6 3.6 9.5 4.1 14.8 17.5 18 45.2l.7 5.8h-3.6c-3.8 0-4.3-.9-6.1-10-2.2-11.4-6.3-18.6-12.4-21.6-3.5-1.8-5.6-2.1-12.5-1.9-4.5.2-9.5.6-11.2.9-7.7 1.3-15.3 1.8-30.5 1.8-15 0-20.7-.3-31-1.7-10.1-1.4-19.4-1.3-22.9.1-7.1 3-9 5.9-13.5 21.4l-3.1 10.5-3.9.2-3.8.2.7-5.7c1-8.6 1.6-12.5 2-14.2.3-.8.7-3.3 1.1-5.5.3-2.2.8-4.3 1.1-4.7.2-.5.6-1.8.8-3 .9-4.2 5.6-12.7 8.6-15.2 4.7-4 10.9-5.3 30.4-6.2 7.2-.4 13.1-.8 13.3-.9.5-.4 49.1.3 56.2.9zm-70 30c19.2 2.6 45.4 2.6 67 0 11.9-1.5 17.8-1 20 1.6 2 2.3 5.6 13 6.7 19.5l.5 3.3h-61.1c-33.6-.1-61.1-.4-61.1-.7 0-.8 3.4-11.6 5.7-17.9 2.3-6.6 7.1-7.8 22.3-5.8zm-109.4 12c1.8 2 2.4 3.9 2.4 7.5v4.9l-21.2-.2-21.2-.1-.2-3c-.2-5.4 1.5-9.6 4.6-10.9 1.9-.7 8.2-1.1 18.1-1.1l15.2.1 2.3 2.8zm321.1-1.6c2.5 1.4 3.5 4 3.8 9.8l.2 4.2h-21.4l-21.3-.1v-4.3c0-6 1.7-9.3 5.4-10.2 4.7-1.2 30.7-.7 33.3.6zm78.7 151c-.1 65.3-.2 119.2-.3 119.7-.1.8-30.1 1-95.8.9-52.7 0-95.9-.2-96-.3-.1 0 10.2-13 22.8-28.9 12.7-15.8 24.5-30.5 26.2-32.7 1.8-2.1 4.4-5.3 5.8-7 1.4-1.6 15.4-19 31.1-38.5 29.1-36.3 67.4-84 92.2-114.8 7.6-9.4 13.9-17.2 14-17.2v118.8zm-361.3-77.3c13 2.8 27.4 14.6 32.7 26.7 2.9 6.6 4.7 16.2 4.3 23.5-.1 2.1-1 1.7-10.3-4.5-5.7-3.7-15.2-10-21.3-14-6-3.9-17.4-11.3-25.2-16.4-7.8-5.1-15-9.8-16-10.4-1.6-1-1.6-1.2.7-2.4 1.4-.8 5.5-2.1 9.2-3 6.7-1.6 17.2-1.4 25.9.5zm107.2 24.1c6.6 1.5 16.7 6 16.7 7.4 0 .6-9.1 3.4-10.7 3.3-.1 0-15 3.7-33 8.2-18 4.5-33 8.1-33.1 7.9-.6-.5 6.5-10.9 9.4-13.8 3.8-3.8 10.5-8.3 15.2-10.3 9.8-4.2 24.3-5.3 35.5-2.7zM250 305.4c3 .9 6.6 2.3 8 3.1 2.4 1.3 2.4 1.4.5 2.1-1.1.4-23.8 9.9-50.5 21-26.6 11.2-48.6 20.1-48.9 19.9-.7-.7 3.9-10.1 8-16.5 10.1-15.6 27.3-26.3 48.8-30.5 8.9-1.7 27.1-1.2 34.1.9zm59.9 17.2c13.8 3.5 28.6 12 39.3 22.6 10.2 10.1 16.9 21.3 20.3 34.3 1.7 6.6 2.9 24.5 1.6 24.5-.5 0-3.2-2.6-6.1-5.8-2.9-3.1-12.4-13.1-21-22.2s-17-17.9-18.6-19.7c-1.6-1.7-9.4-10-17.4-18.3-8-8.4-14.6-15.6-14.8-16.1-.6-1.5 9.7-1 16.7.7z"/></svg>